<?xml version="1.0" encoding="utf-8"?>
<!-- Generator: Adobe Illustrator 17.0.0, SVG Export Plug-In . SVG Version: 6.00 Build 0)  -->
<!DOCTYPE svg PUBLIC "-//W3C//DTD SVG 1.1//EN" "http://www.w3.org/Graphics/SVG/1.1/DTD/svg11.dtd">
<svg version="1.1" xmlns="http://www.w3.org/2000/svg" xmlns:xlink="http://www.w3.org/1999/xlink" x="0px" y="0px"
	 width="52.667px" height="52.5px" viewBox="2.013 1.346 52.667 52.5" enable-background="new 2.013 1.346 52.667 52.5"
	 xml:space="preserve">
<g id="Layer_1">
	<g opacity="0.28">
		<path fill="#FFFFFF" d="M28.44,53.502c-0.708,0-1.423-0.309-1.96-0.846L3.344,29.52c-0.488-0.488-0.786-1.114-0.837-1.762
			C2.452,27.081,2.67,26.46,3.12,26.01L26.703,2.427c0.874-0.875,2.518-0.769,3.51,0.224l23.136,23.136
			c0.488,0.488,0.786,1.114,0.838,1.762c0.054,0.678-0.164,1.299-0.614,1.749L29.99,52.881
			C29.589,53.281,29.039,53.502,28.44,53.502z M28.254,2.805c-0.235,0-0.572,0.057-0.844,0.329L3.827,26.717
			c-0.239,0.239-0.354,0.581-0.324,0.962c0.033,0.411,0.227,0.813,0.547,1.134l23.136,23.136c0.351,0.352,0.808,0.553,1.253,0.553
			c0.235,0,0.572-0.057,0.843-0.328L52.866,28.59c0.239-0.239,0.354-0.581,0.324-0.962c-0.033-0.411-0.228-0.814-0.548-1.134
			L29.507,3.358C29.156,3.007,28.699,2.805,28.254,2.805z"/>
	</g>
	<g opacity="0.28">
		<path fill="#FFFFFF" d="M29.288,45.804c-0.52,0.52-1.436,0.447-2.046-0.163L10.359,28.758c-0.61-0.61-0.683-1.526-0.163-2.046
			L27.405,9.503c0.52-0.52,1.436-0.447,2.046,0.163l16.883,16.883c0.61,0.61,0.683,1.526,0.163,2.046L29.288,45.804z"/>
	</g>
</g>
<g id="mail" display="none">
	<g display="inline">
		<path fill="#FEFEFE" d="M21.688,23.716c0.924,0.797,1.848,1.593,2.771,2.391c0.57,0.493,1.138,0.989,1.725,1.5
			c-0.478,0.406-0.942,0.8-1.405,1.194c-0.956,0.813-1.911,1.626-2.868,2.438c-0.07,0.059-0.149,0.109-0.223,0.163
			C21.688,28.839,21.688,26.278,21.688,23.716z"/>
		<path fill="#FEFEFE" d="M34.412,23.14c-2.068,1.772-4.132,3.542-6.21,5.322c-2.075-1.779-4.14-3.548-6.208-5.321
			c0.223-0.226,0.486-0.26,0.763-0.26c1.17,0.001,2.34,0,3.511,0c2.442,0,4.884,0,7.326-0.001
			C33.887,22.882,34.172,22.899,34.412,23.14z"/>
		<path fill="#FEFEFE" d="M29.814,27.985c1.53,1.312,3.053,2.618,4.627,3.969c-0.189,0.081-0.339,0.162-0.499,0.208
			c-0.111,0.032-0.235,0.022-0.354,0.022c-3.594,0.001-7.188,0-10.782,0.001c-0.293,0-0.577-0.018-0.815-0.258
			c1.534-1.315,3.063-2.626,4.598-3.941c0.542,0.474,1.07,0.935,1.612,1.407C28.745,28.918,29.273,28.457,29.814,27.985z"/>
		<path fill="#FEFEFE" d="M34.693,31.408c-1.505-1.279-2.982-2.534-4.474-3.802c1.493-1.299,2.969-2.583,4.474-3.892
			C34.693,26.287,34.693,28.826,34.693,31.408z"/>
	</g>
</g>
<g id="phone" display="none">
	<path display="inline" fill="#FFFFFF" d="M31.594,20.84c0.53,0.21,0.716,0.599,0.714,1.164c-0.015,3.766-0.015,7.533,0,11.299
		c0.002,0.566-0.184,0.955-0.714,1.164c-2.165,0-4.33,0-6.494,0c-0.53-0.21-0.716-0.599-0.714-1.165
		c0.015-3.766,0.015-7.532,0-11.298c-0.002-0.566,0.184-0.955,0.714-1.164C27.264,20.84,29.429,20.84,31.594,20.84z M25.055,22.307
		c0,3.499,0,6.97,0,10.441c2.208,0,4.395,0,6.582,0c0-3.488,0-6.959,0-10.441C29.436,22.307,27.256,22.307,25.055,22.307z
		 M28.349,33.09c-0.244-0.002-0.46,0.215-0.457,0.46c0.003,0.241,0.197,0.438,0.439,0.445c0.256,0.007,0.464-0.188,0.47-0.44
		C28.806,33.311,28.594,33.092,28.349,33.09z M28.346,21.504c-0.3,0-0.6-0.005-0.9,0.004c-0.056,0.002-0.11,0.061-0.165,0.094
		c0.055,0.042,0.11,0.121,0.166,0.122c0.6,0.009,1.2,0.009,1.799,0c0.055-0.001,0.11-0.08,0.165-0.122
		c-0.055-0.033-0.11-0.092-0.166-0.093C28.946,21.499,28.646,21.504,28.346,21.504z"/>
</g>
<g id="search" display="none">
	<path display="inline" fill="#FFFFFF" d="M34.99,34.073c-0.084,0-0.167,0-0.251,0c-0.22-0.067-0.373-0.223-0.527-0.384
		c-0.933-0.974-1.87-1.946-2.805-2.919c-0.034-0.036-0.057-0.082-0.085-0.124c-0.05,0.039-0.072,0.051-0.092,0.065
		c-0.858,0.576-1.803,0.872-2.838,0.886c-1.095,0.015-2.093-0.296-2.992-0.913c-0.799-0.549-1.397-1.271-1.797-2.157
		c-0.422-0.936-0.547-1.914-0.388-2.924c0.168-1.065,0.635-1.99,1.381-2.767c0.756-0.787,1.671-1.293,2.743-1.504
		c0.216-0.043,0.436-0.067,0.654-0.099c0.226,0,0.451,0,0.677,0c0.115,0.016,0.23,0.032,0.345,0.048
		c1.171,0.158,2.173,0.663,3.001,1.5c0.818,0.827,1.311,1.825,1.457,2.982c0.129,1.02-0.026,2.001-0.488,2.92
		c-0.188,0.374-0.431,0.721-0.683,1.135c0.091,0.077,0.226,0.172,0.339,0.289c0.892,0.921,1.78,1.847,2.67,2.771
		c0.205,0.213,0.29,0.455,0.193,0.743C35.42,33.871,35.226,33.996,34.99,34.073z M28.337,22.588
		c-2.106-0.003-3.824,1.711-3.832,3.824c-0.008,2.108,1.727,3.844,3.832,3.836c2.115-0.008,3.825-1.719,3.825-3.829
		C32.163,24.31,30.446,22.591,28.337,22.588z"/>
</g>
<g id="ru" display="none">
	<g display="inline">
		<path fill="#FFFFFF" d="M23.638,27.623v3.354h-1.349v-8.083h2.781c0.899,0,1.595,0.204,2.087,0.611s0.739,0.988,0.739,1.743
			c0,0.418-0.108,0.778-0.325,1.08c-0.216,0.302-0.532,0.543-0.946,0.725c0.455,0.145,0.784,0.379,0.985,0.706
			c0.202,0.325,0.303,0.729,0.303,1.21v0.672c0,0.236,0.029,0.468,0.089,0.694c0.059,0.226,0.157,0.397,0.294,0.516v0.128h-1.388
			c-0.148-0.122-0.243-0.313-0.283-0.572c-0.041-0.259-0.061-0.518-0.061-0.776v-0.65c0-0.414-0.12-0.743-0.358-0.988
			c-0.239-0.244-0.563-0.366-0.974-0.366H23.638z M23.638,26.54h1.36c0.541,0,0.935-0.104,1.183-0.311
			c0.248-0.207,0.372-0.523,0.372-0.949c0-0.407-0.122-0.726-0.366-0.958c-0.245-0.231-0.617-0.347-1.116-0.347h-1.432V26.54z"/>
		<path fill="#FFFFFF" d="M35.696,22.893v5.325c0,0.898-0.295,1.604-0.885,2.112c-0.591,0.509-1.353,0.763-2.285,0.763
			c-0.918,0-1.665-0.254-2.243-0.763c-0.577-0.509-0.865-1.214-0.865-2.112v-5.325h1.349v5.325c0,0.573,0.161,1.017,0.483,1.329
			c0.321,0.313,0.747,0.469,1.276,0.469c0.548,0,0.988-0.156,1.321-0.469s0.5-0.756,0.5-1.329v-5.325H35.696z"/>
	</g>
</g>
<g id="inst">
	<path fill="#FFFFFF" d="M22.952,31.939c0-2.937,0-5.874,0-8.811c0.179-0.48,0.501-0.817,0.989-0.989c2.847,0,5.694,0,8.541,0
		c0.586,0.165,1.047,0.477,1.259,1.079c0,2.907,0,5.814,0,8.721c-0.2,0.504-0.547,0.847-1.079,0.989c-2.907,0-5.814,0-8.721,0
		C23.457,32.752,23.116,32.434,22.952,31.939z M28.35,31.489c1.049,0,2.098,0.005,3.147-0.002c0.528-0.004,0.8-0.278,0.802-0.806
		c0.006-1.244-0.007-2.487,0.007-3.731c0.007-0.587-0.418-0.274-0.635-0.3c-0.355-0.044-0.149,0.239-0.128,0.363
		c0.212,1.229-0.343,2.535-1.428,3.219c-1.175,0.741-2.377,0.738-3.55-0.004c-1.078-0.683-1.632-1.993-1.418-3.223
		c0.022-0.128,0.222-0.406-0.138-0.358c-0.221,0.029-0.635-0.269-0.627,0.313c0.019,1.228,0.003,2.457,0.007,3.686
		c0.002,0.581,0.267,0.841,0.857,0.843C26.283,31.492,27.317,31.489,28.35,31.489z M28.361,25.556
		c-1.087-0.006-1.98,0.868-1.992,1.95c-0.012,1.087,0.859,1.987,1.939,2.004c1.105,0.017,2.013-0.873,2.015-1.974
		C30.325,26.452,29.444,25.562,28.361,25.556z M31.417,23.577c-0.913,0-0.913,0-0.913,0.906c0,0.165-0.003,0.329,0.002,0.494
		c0.007,0.25,0.137,0.372,0.388,0.4c1.312,0.149,1.55-0.088,1.411-1.403c-0.026-0.249-0.141-0.386-0.393-0.395
		C31.747,23.573,31.582,23.578,31.417,23.577z"/>
</g>
<g id="tw" display="none">
	<path display="inline" fill="#FFFFFF" d="M22.081,31.92c1.271-0.011,2.45-0.26,3.561-1.098c-1.14-0.184-2.046-0.588-2.493-1.706
		c0.695,0.023,1.34,0.327,2.05-0.003c-1.381-0.63-2.563-1.398-2.962-2.985c0.39,0.023,0.631,0.34,0.987,0.216
		c-0.059-0.25-0.268-0.353-0.397-0.516c-0.608-0.763-0.724-1.693-0.309-2.459c0.129-0.238,0.22-0.273,0.416-0.056
		c1.346,1.492,3.126,1.832,5.018,1.89c0.36,0.011,0.338-0.17,0.343-0.424c0.027-1.505,1.12-2.592,2.577-2.591
		c0.655,0.001,1.197,0.269,1.596,0.756c0.346,0.42,0.663,0.45,1.077,0.138c0.183-0.138,0.397-0.233,0.61-0.355
		c-0.051,0.486-0.134,0.622-0.915,1.503c0.492,0.052,0.875-0.272,1.373-0.324c-0.21,0.398-0.455,0.707-0.761,0.937
		c-0.344,0.258-0.407,0.566-0.413,0.968c-0.047,3.456-2.325,6.281-5.651,6.959C25.801,33.173,23.885,32.903,22.081,31.92z"/>
</g>
<g id="fb" display="none">
	<path display="inline" fill="#FFFFFF" d="M31.534,25.116h-2.171v-1.424c0-0.535,0.354-0.659,0.604-0.659c0.249,0,1.532,0,1.532,0
		v-2.351l-2.11-0.008c-2.342,0-2.875,1.753-2.875,2.875v1.567h-1.355v2.423h1.355c0,3.109,0,6.855,0,6.855h2.849
		c0,0,0-3.783,0-6.855h1.923L31.534,25.116z"/>
</g>
<g id="vk" display="none">
	<path display="inline" fill="#FFFFFF" d="M20.904,23.799c0.779-0.041,1.56-0.121,2.338-0.097c0.222,0.007,0.495,0.278,0.641,0.497
		c0.564,0.84,1.073,1.717,1.629,2.563c0.22,0.334,0.506,0.625,0.879,1.076c0.164-0.398,0.319-0.622,0.341-0.858
		c0.07-0.739,0.096-1.482,0.127-2.224c0.028-0.652-0.49-0.577-0.975-0.621c0.556-0.63,1.191-0.912,1.939-0.952
		c0.371-0.02,0.744-0.006,1.117-0.004c0.677,0.005,0.885,0.181,0.906,0.878c0.025,0.826-0.042,1.657,0.02,2.479
		c0.028,0.373,0.199,0.976,0.431,1.044c0.514,0.15,0.553-0.472,0.746-0.806c0.546-0.947,1.058-1.914,1.631-2.844
		c0.127-0.205,0.459-0.411,0.687-0.401c0.674,0.03,1.346,0.155,2.014,0.27c0.407,0.07,0.509,0.338,0.3,0.681
		c-0.45,0.74-0.921,1.467-1.385,2.198c-0.055,0.087-0.125,0.165-0.186,0.248c-0.879,1.185-0.867,1.173,0.168,2.191
		c0.47,0.462,0.92,0.956,1.303,1.49c0.472,0.659,0.117,1.413-0.691,1.489c-0.594,0.056-1.202,0.052-1.796-0.002
		c-0.235-0.021-0.473-0.223-0.671-0.389c-0.522-0.437-0.99-0.944-1.539-1.342c-0.655-0.475-1.431-0.075-1.533,0.736
		c-0.131,1.051-0.136,1.053-1.172,1.012c-1.03-0.04-1.932-0.413-2.721-1.062c-1.83-1.504-3.109-3.407-4.02-5.576
		c-0.167-0.397-0.353-0.785-0.531-1.178C20.904,24.13,20.904,23.964,20.904,23.799z"/>
</g>
<g id="g" display="none">
	<g id="Google_plus_2_" display="inline">
		<polygon fill="#FFFFFF" points="34.245,24.056 34.245,22.2 33.315,22.2 33.315,24.056 31.453,24.056 31.453,24.985 33.315,24.985 
			33.315,26.84 34.245,26.84 34.245,24.985 36.106,24.985 36.106,24.056 		"/>
		<path fill="#FFFFFF" d="M29.136,29.825c-1.303-0.948-1.621-1.483-0.378-2.442c0.701-0.541,1.192-1.26,1.192-2.149
			c0-0.969-0.397-1.848-1.145-2.275h1.059l0.901-0.943c0,0-3.398,0-4.034,0c-2.518,0-3.753,1.505-3.753,3.16
			c0,1.692,1.164,3.024,3.437,3.024c-0.353,0.709-0.211,1.365,0.365,1.833c-3.882,0-4.712,1.699-4.712,3.007
			c0,1.696,1.954,2.704,4.298,2.704c3.204,0,4.478-1.694,4.478-3.084C30.845,31.525,30.42,30.784,29.136,29.825z M24.497,25.151
			c-0.188-1.424,0.541-2.514,1.628-2.482c1.087,0.033,2.017,1.201,2.204,2.624c0.188,1.425-0.438,2.34-1.524,2.308
			C25.718,27.569,24.684,26.575,24.497,25.151z M26.379,34.99c-1.62,0-2.789-1.022-2.789-2.251c0-1.204,1.372-2.242,2.992-2.224
			c1.797,0,2.869,1.115,2.869,2.287C29.45,34.03,28.449,34.99,26.379,34.99z"/>
	</g>
</g>
</svg>
