<?xml version="1.0" encoding="utf-8"?>
<!-- Generator: Adobe Illustrator 17.0.0, SVG Export Plug-In . SVG Version: 6.00 Build 0)  -->
<!DOCTYPE svg PUBLIC "-//W3C//DTD SVG 1.1//EN" "http://www.w3.org/Graphics/SVG/1.1/DTD/svg11.dtd">
<svg version="1.1" xmlns="http://www.w3.org/2000/svg" xmlns:xlink="http://www.w3.org/1999/xlink" x="0px" y="0px" width="5.74px"
	 height="10.294px" viewBox="0 0 5.74 10.294" enable-background="new 0 0 5.74 10.294" xml:space="preserve">
<g id="mail" display="none">
	<path display="inline" d="M-5.638,2.458c1.354,1.168,2.709,2.335,4.062,3.504c0.836,0.723,1.668,1.45,2.528,2.198
		c-0.701,0.596-1.38,1.172-2.059,1.75c-1.401,1.191-2.802,2.384-4.204,3.574c-0.103,0.087-0.218,0.159-0.327,0.239
		C-5.638,9.967-5.638,6.212-5.638,2.458z"/>
	<path display="inline" d="M13.013,1.613C9.981,4.212,6.956,6.805,3.91,9.415c-3.042-2.607-6.068-5.2-9.1-7.799
		c0.326-0.332,0.713-0.381,1.119-0.381c1.715,0.001,3.431,0,5.146,0c3.58,0,7.16,0.001,10.739-0.001
		C12.243,1.234,12.661,1.26,13.013,1.613z"/>
	<path display="inline" d="M6.273,8.715c2.242,1.923,4.475,3.838,6.783,5.817c-0.277,0.119-0.497,0.237-0.731,0.304
		c-0.162,0.047-0.345,0.032-0.519,0.032C6.538,14.87,1.27,14.869-3.998,14.87c-0.429,0-0.846-0.026-1.194-0.379
		c2.248-1.927,4.491-3.849,6.74-5.777c0.795,0.694,1.569,1.37,2.362,2.063C4.706,10.082,5.48,9.407,6.273,8.715z"/>
	<path display="inline" d="M13.425,13.732c-2.206-1.875-4.371-3.714-6.558-5.573c2.189-1.904,4.352-3.786,6.558-5.705
		C13.425,6.226,13.425,9.948,13.425,13.732z"/>
</g>
<g id="phone" display="none">
	<path display="inline" d="M8.005-0.685c0.622,0.246,0.841,0.703,0.838,1.367c-0.017,4.422-0.017,8.844,0,13.265
		c0.003,0.664-0.216,1.121-0.838,1.367c-2.542,0-5.083,0-7.625,0c-0.623-0.246-0.84-0.704-0.838-1.368
		c0.017-4.422,0.017-8.843,0-13.265C-0.461,0.017-0.242-0.439,0.38-0.685C2.921-0.685,5.463-0.685,8.005-0.685z M0.328,1.037
		c0,4.108,0,8.184,0,12.258c2.593,0,5.161,0,7.727,0c0-4.095,0-8.17,0-12.258C5.471,1.037,2.912,1.037,0.328,1.037z M4.195,13.698
		c-0.287-0.002-0.54,0.253-0.537,0.54c0.003,0.283,0.231,0.515,0.515,0.523c0.3,0.009,0.545-0.22,0.552-0.517
		C4.732,13.957,4.483,13.7,4.195,13.698z M4.192,0.094c-0.352,0-0.704-0.006-1.056,0.005C3.07,0.102,3.006,0.172,2.942,0.21
		c0.065,0.05,0.129,0.142,0.195,0.143c0.704,0.01,1.408,0.01,2.112,0c0.065-0.001,0.129-0.094,0.193-0.144
		c-0.065-0.038-0.129-0.108-0.195-0.11C4.896,0.088,4.544,0.094,4.192,0.094z"/>
</g>
<g id="search" display="none">
	<path display="inline" d="M11.391,15.651c-0.111,0-0.222,0-0.333,0c-0.292-0.089-0.496-0.296-0.7-0.51
		c-1.24-1.294-2.484-2.584-3.725-3.877c-0.045-0.047-0.076-0.109-0.113-0.164c-0.067,0.051-0.095,0.068-0.123,0.086
		c-1.14,0.766-2.395,1.158-3.769,1.177c-1.454,0.02-2.78-0.393-3.974-1.212c-1.061-0.729-1.856-1.689-2.387-2.865
		c-0.561-1.243-0.727-2.542-0.516-3.883c0.223-1.415,0.843-2.642,1.835-3.675c1.004-1.045,2.219-1.717,3.643-1.997
		C1.518-1.326,1.81-1.358,2.099-1.401c0.3,0,0.6,0,0.899,0C3.151-1.38,3.304-1.359,3.457-1.338c1.556,0.209,2.886,0.881,3.985,1.992
		c1.087,1.098,1.742,2.423,1.936,3.961c0.171,1.355-0.034,2.658-0.649,3.879C8.479,8.99,8.156,9.45,7.822,10.001
		c0.121,0.102,0.3,0.229,0.45,0.384c1.185,1.224,2.364,2.454,3.546,3.68c0.272,0.283,0.385,0.604,0.256,0.987
		C11.963,15.382,11.704,15.549,11.391,15.651z M2.555,0.397C-0.242,0.392-2.524,2.67-2.534,5.476
		c-0.01,2.799,2.293,5.105,5.089,5.094c2.809-0.011,5.08-2.284,5.08-5.086C7.636,2.684,5.356,0.401,2.555,0.397z"/>
</g>
<g id="ru" display="none">
	<text transform="matrix(1 0 0 1 -3.854 11.0417)" display="inline" font-family="'Roboto-Medium'" font-size="12">RU</text>
</g>
<g id="arrow_main_menu" display="none">
	<polygon display="inline" fill="#E53935" points="-5.83,5.637 13.622,5.637 3.896,13.595 	"/>
</g>
<g id="Слой_7" display="none">
	<path display="inline" fill="#FFFFFF" d="M-2.338,11.615c0-3.452,0-6.903,0-10.355C-2.128,0.696-1.749,0.3-1.176,0.098
		c3.346,0,6.692,0,10.038,0c0.689,0.194,1.23,0.56,1.479,1.268c0,3.416,0,6.833,0,10.249c-0.235,0.592-0.643,0.996-1.268,1.162
		c-3.416,0-6.833,0-10.249,0C-1.745,12.571-2.146,12.197-2.338,11.615z M4.006,11.087c1.233,0,2.465,0.006,3.698-0.003
		c0.621-0.004,0.94-0.326,0.943-0.948c0.007-1.462-0.008-2.923,0.009-4.385c0.008-0.69-0.491-0.322-0.746-0.353
		c-0.417-0.051-0.175,0.28-0.15,0.427C8.009,7.27,7.356,8.805,6.082,9.609C4.701,10.48,3.288,10.477,1.91,9.604
		C0.643,8.802-0.008,7.262,0.243,5.816c0.026-0.151,0.261-0.477-0.162-0.42C-0.178,5.43-0.665,5.08-0.655,5.763
		c0.022,1.444,0.003,2.888,0.008,4.332c0.002,0.683,0.314,0.988,1.007,0.991C1.576,11.09,2.791,11.087,4.006,11.087z M4.018,4.114
		c-1.277-0.008-2.327,1.02-2.341,2.292C1.664,7.684,2.687,8.741,3.956,8.761c1.298,0.021,2.366-1.026,2.368-2.32
		C6.327,5.166,5.291,4.121,4.018,4.114z M7.61,1.788c-1.073,0-1.074,0-1.073,1.065c0,0.193-0.003,0.387,0.002,0.58
		C6.547,3.727,6.7,3.87,6.994,3.903C8.536,4.078,8.815,3.8,8.652,2.254C8.621,1.962,8.486,1.8,8.19,1.79
		C7.997,1.784,7.804,1.789,7.61,1.788z"/>
</g>
<g id="Слой_7__x28_копия_x29_" display="none">
	<path display="inline" fill="#25798C" d="M-2.338,11.615c0-3.452,0-6.903,0-10.355C-2.128,0.696-1.749,0.3-1.176,0.098
		c3.346,0,6.692,0,10.038,0c0.689,0.194,1.23,0.56,1.479,1.268c0,3.416,0,6.833,0,10.249c-0.235,0.592-0.643,0.996-1.268,1.162
		c-3.416,0-6.833,0-10.249,0C-1.745,12.571-2.146,12.197-2.338,11.615z M4.006,11.087c1.233,0,2.465,0.006,3.698-0.003
		c0.621-0.004,0.94-0.326,0.943-0.948c0.007-1.462-0.008-2.923,0.009-4.385c0.008-0.69-0.491-0.322-0.746-0.353
		c-0.417-0.051-0.175,0.28-0.15,0.427C8.009,7.27,7.356,8.805,6.082,9.609C4.701,10.48,3.288,10.477,1.91,9.604
		C0.643,8.802-0.008,7.262,0.243,5.816c0.026-0.151,0.261-0.477-0.162-0.42C-0.178,5.43-0.665,5.08-0.655,5.763
		c0.022,1.444,0.003,2.888,0.008,4.332c0.002,0.683,0.314,0.988,1.007,0.991C1.576,11.09,2.791,11.087,4.006,11.087z M4.018,4.114
		c-1.277-0.008-2.327,1.02-2.341,2.292C1.664,7.684,2.687,8.741,3.956,8.761c1.298,0.021,2.366-1.026,2.368-2.32
		C6.327,5.166,5.291,4.121,4.018,4.114z M7.61,1.788c-1.073,0-1.074,0-1.073,1.065c0,0.193-0.003,0.387,0.002,0.58
		C6.547,3.727,6.7,3.87,6.994,3.903C8.536,4.078,8.815,3.8,8.652,2.254C8.621,1.962,8.486,1.8,8.19,1.79
		C7.997,1.784,7.804,1.789,7.61,1.788z"/>
</g>
<g id="Слой_8" display="none">
	<path display="inline" fill="#FFFFFF" d="M-2.315,10.608c1.271-0.011,2.45-0.26,3.561-1.098C0.106,9.326-0.8,8.922-1.247,7.804
		c0.695,0.023,1.34,0.327,2.05-0.003c-1.381-0.63-2.563-1.398-2.962-2.985c0.39,0.023,0.631,0.34,0.987,0.216
		C-1.232,4.782-1.44,4.678-1.57,4.516c-0.608-0.763-0.724-1.693-0.309-2.459c0.129-0.238,0.22-0.273,0.416-0.056
		c1.346,1.492,3.126,1.832,5.018,1.89c0.36,0.011,0.338-0.17,0.343-0.424c0.027-1.505,1.12-2.592,2.577-2.591
		c0.655,0.001,1.197,0.269,1.596,0.756c0.346,0.42,0.663,0.45,1.077,0.138c0.183-0.138,0.397-0.233,0.61-0.355
		C9.707,1.901,9.624,2.037,8.843,2.918c0.492,0.052,0.875-0.272,1.373-0.324c-0.21,0.398-0.455,0.707-0.761,0.937
		C9.111,3.789,9.047,4.097,9.042,4.498c-0.047,3.456-2.325,6.281-5.651,6.959C1.405,11.862-0.511,11.592-2.315,10.608z"/>
</g>
<g id="Слой_8__x28_копия_x29_" display="none">
	<path display="inline" fill="#25798C" d="M-2.315,10.608c1.271-0.011,2.45-0.26,3.561-1.098C0.106,9.326-0.8,8.922-1.247,7.804
		c0.695,0.023,1.34,0.327,2.05-0.003c-1.381-0.63-2.563-1.398-2.962-2.985c0.39,0.023,0.631,0.34,0.987,0.216
		C-1.232,4.782-1.44,4.678-1.57,4.516c-0.608-0.763-0.724-1.693-0.309-2.459c0.129-0.238,0.22-0.273,0.416-0.056
		c1.346,1.492,3.126,1.832,5.018,1.89c0.36,0.011,0.338-0.17,0.343-0.424c0.027-1.505,1.12-2.592,2.577-2.591
		c0.655,0.001,1.197,0.269,1.596,0.756c0.346,0.42,0.663,0.45,1.077,0.138c0.183-0.138,0.397-0.233,0.61-0.355
		C9.707,1.901,9.624,2.037,8.843,2.918c0.492,0.052,0.875-0.272,1.373-0.324c-0.21,0.398-0.455,0.707-0.761,0.937
		C9.111,3.789,9.047,4.097,9.042,4.498c-0.047,3.456-2.325,6.281-5.651,6.959C1.405,11.862-0.511,11.592-2.315,10.608z"/>
</g>
<g id="Слой_9__x28_копия_x29_" display="none">
	<path display="inline" fill="#FFFFFF" d="M6.729,4.629H4.871V3.41c0-0.458,0.303-0.564,0.517-0.564c0.213,0,1.311,0,1.311,0V0.834
		L4.894,0.827c-2.005,0-2.461,1.501-2.461,2.461v1.341H1.273v2.073h1.159c0,2.661,0,5.867,0,5.867h2.439c0,0,0-3.238,0-5.867h1.646
		L6.729,4.629z"/>
</g>
<g id="Слой_9" display="none">
	<path display="inline" fill="#25798C" d="M6.729,4.629H4.871V3.41c0-0.458,0.303-0.564,0.517-0.564c0.213,0,1.311,0,1.311,0V0.834
		L4.894,0.827c-2.005,0-2.461,1.501-2.461,2.461v1.341H1.273v2.073h1.159c0,2.661,0,5.867,0,5.867h2.439c0,0,0-3.238,0-5.867h1.646
		L6.729,4.629z"/>
</g>
<g id="Слой_10" display="none">
	<path display="inline" fill="#FFFFFF" d="M-5.738,2.849c0.906-0.047,1.814-0.141,2.718-0.113c0.258,0.008,0.575,0.324,0.746,0.578
		c0.655,0.977,1.248,1.996,1.894,2.98c0.255,0.389,0.589,0.727,1.022,1.252c0.19-0.462,0.371-0.723,0.397-0.998
		c0.081-0.859,0.111-1.724,0.148-2.587c0.032-0.758-0.57-0.671-1.134-0.723C0.7,2.507,1.439,2.178,2.308,2.132
		C2.74,2.109,3.174,2.125,3.607,2.128c0.787,0.006,1.029,0.211,1.054,1.021c0.03,0.961-0.049,1.927,0.024,2.883
		c0.033,0.434,0.232,1.135,0.502,1.213C5.784,7.419,5.83,6.696,6.054,6.307C6.689,5.206,7.284,4.081,7.951,3
		C8.098,2.762,8.485,2.522,8.75,2.534c0.784,0.035,1.565,0.18,2.342,0.314c0.473,0.081,0.592,0.393,0.349,0.792
		c-0.524,0.86-1.07,1.706-1.61,2.556C9.767,6.297,9.686,6.388,9.615,6.485C8.592,7.863,8.607,7.848,9.81,9.032
		c0.546,0.537,1.07,1.112,1.515,1.733c0.549,0.767,0.137,1.643-0.803,1.731c-0.691,0.065-1.397,0.06-2.089-0.003
		c-0.273-0.025-0.55-0.259-0.78-0.452c-0.607-0.509-1.152-1.097-1.79-1.56c-0.761-0.552-1.665-0.087-1.782,0.855
		c-0.153,1.222-0.158,1.224-1.363,1.177c-1.198-0.047-2.246-0.48-3.164-1.235C-2.575,9.53-4.062,7.318-5.121,4.795
		c-0.194-0.462-0.411-0.913-0.617-1.369C-5.738,3.234-5.738,3.041-5.738,2.849z"/>
</g>
<g id="Слой_10__x28_копия_x29_" display="none">
	<path display="inline" fill="#25798C" d="M-5.738,2.849c0.906-0.047,1.814-0.141,2.718-0.113c0.258,0.008,0.575,0.324,0.746,0.578
		c0.655,0.977,1.248,1.996,1.894,2.98c0.255,0.389,0.589,0.727,1.022,1.252c0.19-0.462,0.371-0.723,0.397-0.998
		c0.081-0.859,0.111-1.724,0.148-2.587c0.032-0.758-0.57-0.671-1.134-0.723C0.7,2.507,1.439,2.178,2.308,2.132
		C2.74,2.109,3.174,2.125,3.607,2.128c0.787,0.006,1.029,0.211,1.054,1.021c0.03,0.961-0.049,1.927,0.024,2.883
		c0.033,0.434,0.232,1.135,0.502,1.213C5.784,7.419,5.83,6.696,6.054,6.307C6.689,5.206,7.284,4.081,7.951,3
		C8.098,2.762,8.485,2.522,8.75,2.534c0.784,0.035,1.565,0.18,2.342,0.314c0.473,0.081,0.592,0.393,0.349,0.792
		c-0.524,0.86-1.07,1.706-1.61,2.556C9.767,6.297,9.686,6.388,9.615,6.485C8.592,7.863,8.607,7.848,9.81,9.032
		c0.546,0.537,1.07,1.112,1.515,1.733c0.549,0.767,0.137,1.643-0.803,1.731c-0.691,0.065-1.397,0.06-2.089-0.003
		c-0.273-0.025-0.55-0.259-0.78-0.452c-0.607-0.509-1.152-1.097-1.79-1.56c-0.761-0.552-1.665-0.087-1.782,0.855
		c-0.153,1.222-0.158,1.224-1.363,1.177c-1.198-0.047-2.246-0.48-3.164-1.235C-2.575,9.53-4.062,7.318-5.121,4.795
		c-0.194-0.462-0.411-0.913-0.617-1.369C-5.738,3.234-5.738,3.041-5.738,2.849z"/>
</g>
<g id="Слой_11" display="none">
	<g id="Google_plus_2_" display="inline">
		<polygon fill="#FFFFFF" points="10.395,1.513 10.395,-0.718 9.276,-0.718 9.276,1.513 7.037,1.513 7.037,2.63 9.276,2.63 
			9.276,4.862 10.395,4.862 10.395,2.63 12.633,2.63 12.633,1.513 		"/>
		<path fill="#FFFFFF" d="M4.25,8.451C2.683,7.312,2.3,6.668,3.796,5.514c0.843-0.65,1.434-1.516,1.434-2.585
			c0-1.165-0.478-2.222-1.376-2.736h1.274l1.084-1.134c0,0-4.087,0-4.851,0c-3.028,0-4.513,1.81-4.513,3.801
			c0,2.035,1.4,3.637,4.134,3.637C0.556,7.35,0.726,8.138,1.419,8.702c-4.668,0-5.667,2.043-5.667,3.616
			c0,2.04,2.35,3.252,5.169,3.252c3.853,0,5.385-2.037,5.385-3.709C6.306,10.497,5.795,9.605,4.25,8.451z M-1.329,2.83
			c-0.226-1.712,0.651-3.023,1.958-2.985C1.936-0.116,3.054,1.29,3.28,3.001c0.226,1.713-0.526,2.815-1.833,2.776
			C0.139,5.739-1.104,4.542-1.329,2.83z M0.934,14.663c-1.948,0-3.355-1.229-3.355-2.707c0-1.448,1.651-2.696,3.598-2.675
			c2.161,0,3.45,1.342,3.45,2.75C4.628,13.509,3.425,14.663,0.934,14.663z"/>
	</g>
</g>
<g id="Слой_11__x28_копия_x29_" display="none">
	<g id="Google_plus_1_" display="inline">
		<polygon fill="#25798C" points="10.395,1.513 10.395,-0.718 9.276,-0.718 9.276,1.513 7.037,1.513 7.037,2.63 9.276,2.63 
			9.276,4.862 10.395,4.862 10.395,2.63 12.633,2.63 12.633,1.513 		"/>
		<path fill="#25798C" d="M4.25,8.451C2.683,7.312,2.3,6.668,3.796,5.514c0.843-0.65,1.434-1.516,1.434-2.585
			c0-1.165-0.478-2.222-1.376-2.736h1.274l1.084-1.134c0,0-4.087,0-4.851,0c-3.028,0-4.513,1.81-4.513,3.801
			c0,2.035,1.4,3.637,4.134,3.637C0.556,7.35,0.726,8.138,1.419,8.702c-4.668,0-5.667,2.043-5.667,3.616
			c0,2.04,2.35,3.252,5.169,3.252c3.853,0,5.385-2.037,5.385-3.709C6.306,10.497,5.795,9.605,4.25,8.451z M-1.329,2.83
			c-0.226-1.712,0.651-3.023,1.958-2.985C1.936-0.116,3.054,1.29,3.28,3.001c0.226,1.713-0.526,2.815-1.833,2.776
			C0.139,5.739-1.104,4.542-1.329,2.83z M0.934,14.663c-1.948,0-3.355-1.229-3.355-2.707c0-1.448,1.651-2.696,3.598-2.675
			c2.161,0,3.45,1.342,3.45,2.75C4.628,13.509,3.425,14.663,0.934,14.663z"/>
	</g>
</g>
<g id="arrow_pagination" display="none">
	<path display="inline" d="M-0.393,15.979c-0.04-0.021-0.081-0.041-0.121-0.063c-0.28-0.154-0.352-0.505-0.152-0.754
		c0.047-0.058,0.102-0.11,0.155-0.163c2.575-2.576,5.151-5.151,7.727-7.726C7.26,7.229,7.315,7.195,7.395,7.081
		c-0.06-0.035-0.131-0.059-0.178-0.106C4.628,4.389,2.039,1.802-0.544-0.79c-0.103-0.104-0.197-0.251-0.223-0.391
		c-0.051-0.281,0.133-0.443,0.373-0.548c0.081,0,0.161,0,0.242,0c0.129,0.102,0.269,0.193,0.385,0.309
		C2.928,1.27,5.62,3.963,8.312,6.655c0.049,0.049,0.099,0.097,0.142,0.15C8.611,7.002,8.61,7.248,8.453,7.441
		c-0.047,0.058-0.102,0.11-0.155,0.163c-2.688,2.689-5.376,5.377-8.066,8.064c-0.116,0.116-0.255,0.208-0.383,0.311
		C-0.232,15.979-0.313,15.979-0.393,15.979z"/>
</g>
<g id="arrow_для_попапов">
	<path fill="#FFFFFF" d="M5.369,10.174c0.023-0.012,0.046-0.023,0.068-0.036c0.159-0.087,0.2-0.287,0.086-0.428
		C5.497,9.677,5.466,9.648,5.436,9.618C3.974,8.156,2.511,6.693,1.049,5.232C1.023,5.206,0.992,5.187,0.947,5.122
		c0.034-0.02,0.074-0.033,0.101-0.06c1.47-1.468,2.94-2.937,4.406-4.409c0.059-0.059,0.112-0.142,0.126-0.222
		C5.61,0.271,5.505,0.18,5.369,0.12c-0.046,0-0.092,0-0.137,0C5.158,0.178,5.079,0.23,5.013,0.295
		C3.483,1.823,1.955,3.352,0.426,4.88C0.398,4.908,0.369,4.935,0.345,4.966C0.257,5.077,0.257,5.217,0.346,5.327
		c0.027,0.033,0.058,0.062,0.088,0.092c1.526,1.527,3.052,3.053,4.58,4.579c0.066,0.066,0.145,0.118,0.218,0.177
		C5.277,10.174,5.323,10.174,5.369,10.174z"/>
</g>
<g id="Blogosphere_promotion" display="none">
	<path display="inline" fill="#FFFFFF" d="M4.384,0.086c0.159,0.047,0.326,0.06,0.482,0.116C5.628,0.475,6.113,0.987,6.303,1.75
		c0.022,0.088,0.062,0.123,0.15,0.155c0.741,0.268,1.177,0.79,1.287,1.539c0.126,0.857-0.355,1.649-1.174,1.989
		c-0.22,0.091-0.451,0.138-0.691,0.138c-1.34,0.001-2.681-0.013-4.021,0.005c-0.949,0.013-1.752-0.78-1.753-1.71
		c0-0.503,0.21-0.925,0.615-1.249c0.06-0.048,0.077-0.089,0.065-0.166C0.669,1.714,1.363,1.044,2.132,1.147
		c0.072,0.01,0.104-0.009,0.139-0.063c0.3-0.454,0.722-0.755,1.255-0.91C3.651,0.137,3.781,0.115,3.91,0.086
		C4.068,0.086,4.226,0.086,4.384,0.086z M3.825,5.158c0.684,0,1.368,0,2.053,0c0.048,0,0.097,0,0.144-0.006
		c1.024-0.136,1.619-1.228,1.153-2.118C6.958,2.62,6.621,2.35,6.146,2.25c-0.15-0.032-0.193-0.078-0.219-0.225
		C5.915,1.956,5.904,1.888,5.888,1.82c-0.18-0.748-0.87-1.301-1.666-1.316C3.488,0.489,2.934,0.796,2.568,1.411
		C2.451,1.607,2.402,1.631,2.19,1.577c-0.591-0.15-1.12,0.365-0.961,0.937c0.05,0.182,0.032,0.233-0.124,0.335
		C0.635,3.157,0.432,3.654,0.569,4.183c0.149,0.574,0.683,0.994,1.275,0.978C2.505,5.145,3.165,5.158,3.825,5.158z"/>
	<path display="inline" fill="#FFFFFF" d="M3.765,10.269c-0.05-0.055-0.128-0.055-0.19-0.09c-0.254-0.145-0.385-0.362-0.377-0.64
		c0.008-0.288,0.16-0.502,0.435-0.623c0.069-0.03,0.088-0.064,0.088-0.133C3.718,8.028,3.719,7.272,3.72,6.516
		c0-0.162,0.077-0.249,0.213-0.247C4.04,6.27,4.123,6.34,4.137,6.443c0.005,0.039,0.004,0.079,0.004,0.119
		c0,0.732,0.001,1.465-0.002,2.197c0,0.082,0.016,0.126,0.103,0.163c0.265,0.111,0.44,0.396,0.423,0.662
		c-0.019,0.307-0.222,0.559-0.519,0.65c-0.031,0.009-0.07,0.003-0.092,0.034C3.958,10.269,3.861,10.269,3.765,10.269z M3.928,9.854
		c0.171,0.001,0.31-0.128,0.312-0.291c0.002-0.161-0.14-0.301-0.305-0.301c-0.169,0.001-0.31,0.134-0.313,0.295
		C3.619,9.719,3.756,9.853,3.928,9.854z"/>
	<path display="inline" fill="#FFFFFF" d="M4.877,7.081c0-0.189-0.001-0.378,0-0.566C4.878,6.36,4.953,6.272,5.083,6.27
		c0.133-0.002,0.218,0.087,0.22,0.246c0.003,0.338,0.001,0.676,0.002,1.013c0,0.059-0.001,0.12,0.01,0.178
		C5.341,7.851,5.485,7.975,5.64,7.98c0.202,0.007,0.405,0.001,0.608,0.004c0.055,0.001,0.067-0.031,0.084-0.069
		c0.14-0.305,0.439-0.467,0.783-0.427C7.423,7.524,7.68,7.771,7.734,8.083c0.06,0.346-0.162,0.682-0.522,0.789
		c-0.338,0.1-0.721-0.065-0.867-0.382C6.312,8.417,6.274,8.395,6.194,8.395c-0.213,0-0.426,0.017-0.638-0.012
		c-0.368-0.05-0.66-0.35-0.675-0.707C4.872,7.478,4.879,7.279,4.879,7.081C4.878,7.081,4.878,7.081,4.877,7.081z M7.316,8.195
		c0.001-0.17-0.137-0.304-0.312-0.303c-0.168,0.002-0.308,0.138-0.307,0.3C6.698,8.353,6.84,8.49,7.007,8.49
		C7.178,8.49,7.315,8.359,7.316,8.195z"/>
	<path display="inline" fill="#FFFFFF" d="M2.984,7.093c0,0.166,0.001,0.331,0,0.497C2.979,8.067,2.642,8.392,2.145,8.396
		C1.976,8.398,1.808,8.399,1.639,8.395C1.58,8.394,1.55,8.412,1.525,8.467C1.389,8.768,1.08,8.934,0.751,8.892
		C0.429,8.85,0.179,8.609,0.126,8.29C0.069,7.945,0.289,7.614,0.645,7.509c0.342-0.101,0.723,0.06,0.868,0.379
		C1.55,7.969,1.594,7.986,1.674,7.983c0.161-0.005,0.323,0,0.485-0.002C2.403,7.98,2.553,7.841,2.555,7.606
		c0.003-0.345,0.001-0.689,0.002-1.034c0-0.046,0.003-0.093,0.012-0.138C2.589,6.325,2.677,6.262,2.79,6.27
		c0.106,0.007,0.187,0.079,0.19,0.187C2.985,6.668,2.982,6.88,2.982,7.093C2.983,7.093,2.983,7.093,2.984,7.093z M0.851,8.484
		c0.172,0.001,0.31-0.128,0.313-0.291c0.002-0.159-0.138-0.3-0.304-0.304C0.686,7.884,0.543,8.02,0.544,8.189
		C0.545,8.357,0.676,8.483,0.851,8.484z"/>
</g>
<g id="Blogosphere_promotion_1_" display="none">
	<path display="inline" fill="#FFFFFF" d="M9.05,3.32C8.985,3.496,8.98,3.684,8.949,3.867c-0.106,0.638-0.201,1.278-0.31,1.915
		C8.56,6.239,8.178,6.563,7.714,6.597C7.332,6.625,6.951,6.61,6.569,6.612c-0.614,0.004-1.228,0-1.842,0.002
		C4.465,6.614,4.23,6.543,4.03,6.37C3.99,6.335,3.962,6.331,3.918,6.365c-0.07,0.052-0.153,0.07-0.241,0.069
		C3.352,6.433,3.028,6.435,2.704,6.433C2.443,6.431,2.273,6.264,2.273,6.005c-0.002-1.013-0.002-2.026,0-3.039
		c0-0.246,0.142-0.414,0.387-0.428c0.357-0.021,0.715-0.018,1.073,0C3.829,2.543,3.91,2.584,3.979,2.65
		c0.026,0.025,0.047,0.047,0.088,0.033C4.433,2.55,4.76,2.363,4.972,2.02c0.107-0.173,0.147-0.365,0.147-0.566
		c0.001-0.358,0-0.716,0-1.074c0-0.174,0.053-0.238,0.224-0.274C5.567,0.059,5.788,0.05,6.01,0.119
		c0.401,0.125,0.589,0.422,0.644,0.814C6.708,1.32,6.672,1.71,6.675,2.099c0.001,0.099,0.026,0.124,0.124,0.123
		c0.406-0.006,0.812-0.003,1.218-0.002C8.364,2.22,8.653,2.346,8.865,2.63C8.961,2.757,8.999,2.908,9.05,3.054
		C9.05,3.143,9.05,3.231,9.05,3.32z M6.123,6.187c0-0.001,0-0.001,0-0.002c0.488,0,0.976,0.005,1.463-0.002
		c0.374-0.006,0.59-0.187,0.65-0.55c0.127-0.769,0.246-1.54,0.365-2.311c0.064-0.414-0.167-0.678-0.587-0.678
		c-0.484-0.001-0.969,0-1.453,0c-0.24,0-0.309-0.069-0.31-0.31C6.25,1.917,6.254,1.501,6.244,1.085
		C6.234,0.691,6.018,0.487,5.643,0.491c-0.076,0.001-0.106,0.02-0.104,0.103C5.545,0.867,5.542,1.14,5.541,1.413
		C5.54,1.732,5.478,2.035,5.292,2.304c-0.269,0.39-0.649,0.625-1.088,0.775c-0.07,0.024-0.094,0.05-0.094,0.125
		c0.003,0.795,0.001,1.59,0.002,2.384c0.001,0.375,0.225,0.598,0.598,0.599C5.182,6.187,5.653,6.187,6.123,6.187z M3.686,4.491
		c0-0.481-0.002-0.962,0.002-1.443c0.001-0.075-0.017-0.099-0.095-0.098c-0.269,0.005-0.539,0.004-0.808,0
		C2.711,2.95,2.685,2.966,2.686,3.046c0.003,0.958,0.003,1.917,0,2.875c0,0.075,0.019,0.1,0.097,0.099
		c0.269-0.004,0.539-0.004,0.808,0c0.076,0.001,0.098-0.019,0.097-0.097C3.685,5.446,3.686,4.968,3.686,4.491z"/>
	<path display="inline" fill="#FFFFFF" d="M-1.43,2.276c0.052-0.138,0.072-0.287,0.143-0.419C-1.03,1.38-0.637,1.101-0.093,1.091
		c0.873-0.016,1.746-0.006,2.62-0.006c0.58,0,1.16,0,1.74,0c0.044,0,0.09,0,0.132,0.011c0.088,0.023,0.153,0.121,0.147,0.21
		c-0.007,0.099-0.081,0.18-0.18,0.192C4.322,1.504,4.277,1.504,4.233,1.504c-1.395,0-2.79,0-4.186,0c-0.175,0-0.348,0.018-0.506,0.1
		c-0.377,0.195-0.548,0.511-0.547,0.931c0.001,1.235,0.001,2.47,0.001,3.705c0,0.188-0.003,0.375,0.001,0.563
		c0.008,0.484,0.276,0.834,0.734,0.961c0.096,0.027,0.195,0.03,0.294,0.031c0.259,0.002,0.519,0,0.778,0.001
		c0.221,0,0.288,0.068,0.288,0.285c0,0.495,0,0.989,0,1.49C1.133,9.565,1.152,9.53,1.177,9.507c0.557-0.533,1.116-1.064,1.67-1.6
		c0.088-0.085,0.182-0.118,0.302-0.118c1.296,0.002,2.593,0,3.889,0.002c0.377,0.001,0.673-0.143,0.881-0.46
		C7.953,7.277,7.976,7.215,8.009,7.16C8.072,7.056,8.18,7.02,8.281,7.068c0.103,0.049,0.15,0.165,0.102,0.277
		C8.198,7.767,7.884,8.044,7.439,8.167C7.304,8.205,7.164,8.213,7.024,8.213c-1.262-0.001-2.524,0-3.787-0.002
		c-0.07,0-0.12,0.02-0.17,0.068c-0.664,0.639-1.329,1.275-1.994,1.912c-0.063,0.06-0.128,0.115-0.223,0.1
		c-0.122-0.019-0.183-0.101-0.184-0.254c-0.001-0.276,0-0.553,0-0.829c0-0.293-0.003-0.587,0.002-0.88
		C0.668,8.24,0.651,8.21,0.553,8.21C0.284,8.21,0.014,8.233-0.254,8.194c-0.55-0.081-1-0.491-1.134-1.03
		c-0.01-0.041-0.004-0.088-0.041-0.119C-1.43,5.456-1.43,3.866-1.43,2.276z"/>
</g>
<g id="Blogosphere_promotion_2_" display="none">
	<path display="inline" fill="#FFFFFF" d="M9.035,5.611C9.001,5.632,9.002,5.669,8.992,5.7c-0.114,0.375-0.444,0.627-0.85,0.651
		C7.786,6.372,7.428,6.144,7.279,5.796C7.253,5.734,7.218,5.717,7.155,5.718C6.856,5.721,6.557,5.72,6.259,5.718
		C6.125,5.718,6.043,5.654,6.026,5.546C6.003,5.408,6.102,5.302,6.26,5.301c0.285-0.002,0.57-0.003,0.855,0.001
		c0.07,0.001,0.101-0.017,0.119-0.088C7.343,4.791,7.721,4.504,8.14,4.519c0.45,0.017,0.8,0.327,0.879,0.779
		c0.002,0.009,0.01,0.017,0.015,0.025C9.035,5.419,9.035,5.515,9.035,5.611z M8.115,4.946C7.84,4.947,7.627,5.162,7.628,5.437
		C7.629,5.711,7.845,5.925,8.12,5.924c0.274-0.001,0.488-0.217,0.487-0.491C8.606,5.157,8.391,4.945,8.115,4.946z"/>
	<path display="inline" fill="#FFFFFF" d="M-1.524,5.302c0.053-0.166,0.103-0.331,0.226-0.465c0.243-0.266,0.543-0.373,0.892-0.293
		c0.352,0.081,0.584,0.306,0.679,0.659c0.02,0.076,0.05,0.102,0.131,0.1C0.644,5.296,0.884,5.3,1.125,5.301
		c0.034,0,0.069-0.001,0.103,0.005c0.104,0.018,0.178,0.106,0.177,0.209C1.403,5.615,1.336,5.696,1.232,5.715
		C1.189,5.723,1.144,5.726,1.1,5.726C0.849,5.727,0.598,5.728,0.348,5.726C0.289,5.725,0.257,5.741,0.231,5.799
		C0.073,6.153-0.281,6.374-0.644,6.352c-0.405-0.025-0.714-0.269-0.841-0.661c-0.009-0.028-0.008-0.062-0.04-0.08
		C-1.524,5.508-1.524,5.405-1.524,5.302z M-0.608,5.924c0.274,0,0.49-0.215,0.49-0.489c0-0.275-0.213-0.489-0.489-0.49
		c-0.276,0-0.49,0.213-0.49,0.488C-1.096,5.709-0.882,5.923-0.608,5.924z"/>
	<path display="inline" fill="#FFFFFF" d="M5.14,5.693c0,0.189-0.001,0.378,0,0.567C5.142,6.46,5.086,6.639,4.947,6.787
		C4.913,6.824,4.908,6.863,4.909,6.909C4.91,7.164,4.912,7.418,4.907,7.672C4.906,7.737,4.93,7.769,4.985,7.798
		C5.506,8.071,5.998,8.389,6.46,8.754c0.223,0.176,0.338,0.4,0.338,0.683c0.001,0.237,0.001,0.474,0,0.711
		c0,0.093-0.02,0.177-0.109,0.229c-0.144,0.083-0.311-0.018-0.314-0.197c-0.004-0.237-0.006-0.474,0-0.711
		C6.38,9.304,6.319,9.183,6.189,9.08c-0.467-0.365-0.962-0.684-1.49-0.951C4.544,8.05,4.477,7.942,4.48,7.77
		c0.006-0.33,0.003-0.66,0.001-0.99c0-0.096,0.027-0.175,0.107-0.232c0.088-0.063,0.13-0.153,0.129-0.257
		c-0.003-0.422,0.02-0.845-0.013-1.267C4.676,4.668,4.343,4.341,3.988,4.31C3.789,4.293,3.589,4.28,3.395,4.338
		C3.023,4.448,2.803,4.753,2.797,5.167C2.791,5.531,2.796,5.896,2.795,6.26c0,0.12,0.036,0.222,0.137,0.295
		c0.077,0.055,0.1,0.134,0.099,0.226c-0.002,0.34-0.002,0.681,0,1.021c0.001,0.146-0.058,0.244-0.19,0.312
		C2.302,8.389,1.792,8.711,1.316,9.087C1.192,9.184,1.134,9.302,1.137,9.459C1.141,9.7,1.138,9.94,1.138,10.181
		c0,0.095-0.04,0.17-0.127,0.206c-0.076,0.032-0.155,0.024-0.222-0.034c-0.051-0.043-0.072-0.1-0.072-0.164
		c0-0.275-0.002-0.55,0.004-0.825C0.726,9.11,0.85,8.916,1.045,8.76C1.506,8.393,2,8.078,2.519,7.802
		c0.064-0.034,0.087-0.07,0.085-0.142C2.6,7.41,2.602,7.159,2.604,6.908c0-0.051-0.01-0.091-0.046-0.13
		C2.432,6.644,2.374,6.481,2.373,6.3C2.371,5.887,2.366,5.475,2.376,5.062C2.39,4.441,2.933,3.9,3.556,3.878
		c0.303-0.011,0.607-0.023,0.886,0.127c0.43,0.231,0.67,0.589,0.695,1.079c0.01,0.202,0.002,0.405,0.002,0.608
		C5.138,5.693,5.139,5.693,5.14,5.693z"/>
	<path display="inline" fill="#FFFFFF" d="M4.671,1.074c0,0.413-0.283,0.78-0.688,0.882C3.915,1.974,3.898,2.002,3.898,2.067
		C3.901,2.356,3.9,2.645,3.899,2.933c0,0.092-0.03,0.17-0.115,0.215C3.712,3.188,3.639,3.183,3.57,3.137
		C3.484,3.081,3.472,2.994,3.472,2.902C3.471,2.62,3.469,2.338,3.473,2.057c0.001-0.079-0.018-0.12-0.095-0.154
		C2.999,1.737,2.799,1.359,2.851,0.926c0.042-0.35,0.362-0.682,0.727-0.753C4.139,0.062,4.671,0.501,4.671,1.074z M3.754,0.58
		C3.486,0.581,3.262,0.806,3.262,1.074c0,0.266,0.228,0.493,0.494,0.492C4.023,1.565,4.25,1.337,4.248,1.071
		C4.247,0.803,4.022,0.579,3.754,0.58z"/>
	<path display="inline" fill="#FFFFFF" d="M0.697,3.265C0.196,3.257-0.2,2.904-0.242,2.456c-0.046-0.482,0.259-0.915,0.726-1.003
		C0.859,1.383,1.181,1.5,1.408,1.813c0.216,0.297,0.238,0.623,0.074,0.952C1.446,2.835,1.457,2.87,1.508,2.921
		C1.703,3.11,1.894,3.303,2.085,3.496c0.063,0.064,0.1,0.139,0.067,0.233c-0.03,0.083-0.09,0.128-0.174,0.141
		c-0.086,0.013-0.15-0.033-0.208-0.09c-0.187-0.187-0.376-0.372-0.56-0.563C1.156,3.162,1.115,3.144,1.043,3.183
		C0.926,3.246,0.797,3.269,0.697,3.265z M1.16,2.348c-0.001-0.273-0.217-0.49-0.489-0.49c-0.276,0-0.499,0.225-0.494,0.498
		c0.005,0.267,0.233,0.491,0.497,0.489C0.941,2.842,1.161,2.618,1.16,2.348z"/>
	<path display="inline" fill="#FFFFFF" d="M6.811,3.265C6.687,3.269,6.534,3.233,6.396,3.149C6.344,3.118,6.315,3.126,6.275,3.167
		C6.085,3.361,5.892,3.552,5.7,3.744C5.645,3.799,5.583,3.843,5.501,3.833c-0.158-0.018-0.238-0.193-0.15-0.326
		c0.023-0.034,0.052-0.064,0.081-0.093C5.616,3.23,5.8,3.044,5.986,2.861c0.039-0.038,0.052-0.068,0.028-0.124
		C5.78,2.187,6.04,1.625,6.613,1.469c0.35-0.095,0.664-0.001,0.906,0.271c0.259,0.291,0.312,0.631,0.153,0.987
		C7.519,3.07,7.214,3.258,6.811,3.265z M6.35,2.349c0,0.27,0.22,0.494,0.487,0.496c0.265,0.002,0.492-0.223,0.497-0.49
		c0.004-0.273-0.22-0.498-0.495-0.497C6.566,1.859,6.351,2.075,6.35,2.349z"/>
</g>
<g id="ppc" display="none">
	<path display="inline" fill="#FFFFFF" d="M4.706,0.083c0.613,0.128,0.816,0.585,0.91,1.131C5.623,1.262,5.63,1.31,5.638,1.365
		c0.057,0,0.106,0,0.154,0c0.916,0,1.831,0,2.747,0c0.045,0,0.091-0.001,0.135,0.008c0.113,0.023,0.181,0.112,0.171,0.221
		C8.835,1.708,8.77,1.773,8.657,1.787c-0.045,0.005-0.09,0.006-0.135,0.006c-3.203,0-6.405,0-9.608,0c-0.049,0-0.099,0-0.147-0.008
		c-0.101-0.017-0.16-0.08-0.171-0.182c-0.012-0.108,0.038-0.185,0.139-0.219c0.049-0.016,0.105-0.018,0.157-0.018
		c0.78-0.001,1.56-0.001,2.34-0.001c0.045,0,0.089,0,0.141,0c0.084-0.591,0.245-1.122,0.918-1.282
		C3.096,0.083,3.901,0.083,4.706,0.083z M1.784,1.359c1.163,0,2.286,0,3.439,0C5.171,1.187,5.132,1.025,5.074,0.87
		C4.985,0.635,4.81,0.51,4.555,0.509c-0.701-0.001-1.403-0.001-2.104,0c-0.227,0-0.4,0.104-0.489,0.31
		C1.89,0.987,1.846,1.166,1.784,1.359z"/>
	<path display="inline" fill="#FFFFFF" d="M-0.738,2.228c2.978,0,5.94,0,8.91,0c0,0.105,0.004,0.206-0.001,0.307
		C8.116,3.868,8.061,5.2,8.005,6.533C7.933,8.247,7.86,9.961,7.785,11.675c-0.011,0.261-0.105,0.494-0.276,0.695
		c-0.183,0.214-0.421,0.306-0.693,0.323c-0.11,0.007-0.222,0.003-0.332,0.003c-1.913,0-3.826,0-5.739,0.001
		c-0.327,0-0.616-0.083-0.831-0.347c-0.155-0.19-0.245-0.409-0.257-0.653c-0.038-0.767-0.068-1.533-0.1-2.3
		c-0.055-1.292-0.109-2.583-0.163-3.875c-0.044-1.058-0.088-2.116-0.131-3.174C-0.74,2.312-0.738,2.276-0.738,2.228z M-0.293,2.653
		c0,0.059-0.002,0.105,0,0.149c0.05,1.214,0.101,2.428,0.151,3.642c0.072,1.71,0.144,3.42,0.215,5.13
		c0.015,0.363,0.18,0.703,0.719,0.701c1.95-0.009,3.9-0.004,5.85-0.004c0.07,0,0.139-0.005,0.209-0.013
		c0.211-0.024,0.361-0.139,0.437-0.332c0.044-0.112,0.07-0.237,0.075-0.358c0.056-1.255,0.105-2.51,0.157-3.765
		c0.07-1.669,0.141-3.338,0.212-5.007c0.002-0.047,0-0.095,0-0.144C5.051,2.653,2.385,2.653-0.293,2.653z"/>
	<path display="inline" fill="#FFFFFF" d="M3.718,9.492c-0.8,0-1.601,0-2.401,0c-0.025,0-0.049,0-0.074,0
		c-0.195-0.001-0.3-0.076-0.301-0.215c0-0.139,0.104-0.215,0.299-0.215c1.654,0,3.308,0,4.962,0c0.045,0,0.091,0.003,0.134,0.013
		C6.44,9.098,6.491,9.173,6.495,9.27c0.004,0.093-0.041,0.17-0.134,0.2C6.309,9.487,6.249,9.491,6.192,9.491
		C5.368,9.493,4.543,9.492,3.718,9.492z"/>
	<path display="inline" fill="#FFFFFF" d="M3.714,11.63c-0.817,0-1.634,0-2.45,0c-0.215,0-0.324-0.075-0.321-0.219
		c0.003-0.142,0.107-0.213,0.315-0.213c1.642,0,3.283,0,4.925,0c0.208,0,0.312,0.071,0.315,0.213
		C6.5,11.556,6.391,11.63,6.176,11.63C5.355,11.63,4.535,11.63,3.714,11.63z"/>
	<path display="inline" fill="#FFFFFF" d="M3.707,10.557c-0.813,0-1.625,0-2.438,0c-0.037,0-0.074,0.001-0.111-0.001
		c-0.128-0.009-0.215-0.094-0.217-0.208c-0.002-0.113,0.088-0.203,0.212-0.213c0.037-0.003,0.074-0.001,0.111-0.001
		c1.637,0,3.275,0,4.912,0c0.012,0,0.025,0,0.037,0c0.184,0.001,0.287,0.08,0.284,0.216c-0.003,0.133-0.102,0.208-0.28,0.208
		C5.381,10.557,4.544,10.557,3.707,10.557z"/>
</g>
<g id="ppc_1_" display="none">
	<path display="inline" fill="#FFFFFF" d="M-4.109,0.88c0.05-0.112,0.086-0.234,0.154-0.333c0.168-0.245,0.415-0.351,0.71-0.351
		c4.289,0,8.578-0.001,12.867,0.001c0.514,0,0.861,0.348,0.861,0.86c0.002,2.973,0.002,5.947,0,8.92
		c0,0.508-0.338,0.845-0.847,0.857c-0.024,0.001-0.047,0-0.071,0c-4.251,0-8.502-0.001-12.753,0.002
		c-0.376,0-0.665-0.127-0.839-0.471c-0.031-0.062-0.054-0.129-0.081-0.194C-4.109,7.074-4.109,3.977-4.109,0.88z M-3.487,8.99
		c4.461,0,8.899,0,13.35,0c0-0.065,0-0.121,0-0.178c0-2.555,0-5.11,0-7.665c0-0.288-0.042-0.329-0.328-0.329
		c-4.231,0-8.463,0-12.694,0c-0.286,0-0.328,0.042-0.328,0.329c0,2.555,0,5.11,0,7.665C-3.487,8.868-3.487,8.924-3.487,8.99z
		 M3.184,10.129c0.19,0.002,0.365-0.166,0.371-0.357c0.006-0.196-0.166-0.373-0.365-0.375C2.997,9.396,2.825,9.56,2.819,9.752
		C2.813,9.946,2.988,10.127,3.184,10.129z"/>
	<path display="inline" fill="#FFFFFF" d="M3.185,12.565c-0.912,0-1.823,0-2.735,0c-0.192,0-0.201-0.01-0.202-0.203
		c0-0.09,0.005-0.181-0.001-0.271c-0.009-0.124,0.046-0.17,0.167-0.169c0.456,0.003,0.912,0.001,1.367,0.001
		c0.207,0,0.217-0.01,0.217-0.217C2,11.377,2,11.377,2.335,11.377c0.612,0,1.225,0,1.837,0c0.181,0,0.202,0.023,0.204,0.207
		c0.004,0.36-0.045,0.341,0.35,0.34c0.408,0,0.817,0.002,1.225-0.001c0.126-0.001,0.186,0.041,0.176,0.174
		c-0.007,0.094-0.001,0.19-0.002,0.285c-0.001,0.168-0.016,0.183-0.192,0.183c-0.636,0-1.272,0-1.909,0
		C3.745,12.565,3.465,12.565,3.185,12.565z"/>
	<path display="inline" fill="#FFFFFF" d="M5.679,5.981C5.646,6.196,5.623,6.389,5.586,6.58C5.518,6.935,5.228,7.046,4.942,6.823
		c-0.288-0.224-0.57-0.457-0.85-0.693C3.97,6.027,3.839,5.977,3.677,5.979C3.127,5.985,2.576,5.982,2.025,5.981
		c-0.349-0.001-0.54-0.187-0.54-0.535c-0.002-0.921-0.002-1.842,0-2.763C1.485,2.328,1.676,2.14,2.034,2.14
		c1.401-0.001,2.801-0.001,4.202,0c0.359,0,0.543,0.187,0.544,0.546c0.001,0.916,0.001,1.833,0,2.749
		c0,0.367-0.183,0.546-0.554,0.547C6.046,5.982,5.866,5.981,5.679,5.981z M2.029,5.441c0.567,0,1.118,0.003,1.668-0.001
		c0.268-0.002,0.501,0.078,0.707,0.251C4.624,5.877,4.851,6.056,5.09,6.25c0.02-0.127,0.036-0.233,0.055-0.339
		c0.056-0.311,0.244-0.468,0.562-0.47c0.174-0.001,0.348,0,0.521,0c0-0.93,0-1.843,0-2.754c-1.406,0-2.799,0-4.199,0
		C2.029,3.606,2.029,4.515,2.029,5.441z"/>
	<path display="inline" fill="#FFFFFF" d="M0.142,3.765c0,0.929,0,1.838,0,2.763c0.172,0,0.337-0.001,0.502,0
		c0.351,0.002,0.532,0.155,0.593,0.504C1.253,7.125,1.265,7.218,1.282,7.33C1.326,7.299,1.36,7.277,1.391,7.251
		C1.554,7.12,1.727,6.999,1.875,6.853c0.31-0.307,0.69-0.354,1.095-0.323c0.176,0.013,0.283,0.128,0.276,0.282
		c-0.007,0.149-0.121,0.271-0.287,0.25c-0.376-0.049-0.656,0.104-0.917,0.35c-0.179,0.169-0.38,0.315-0.572,0.47
		C1.145,8.145,0.853,8.039,0.781,7.631C0.749,7.45,0.726,7.266,0.696,7.067c-0.193,0-0.381,0.001-0.57,0
		c-0.343-0.002-0.531-0.186-0.531-0.526c-0.001-0.926-0.001-1.852,0-2.778c0-0.343,0.182-0.531,0.525-0.534
		c0.232-0.003,0.465-0.002,0.697,0.015C0.959,3.255,1.04,3.377,1.031,3.516C1.022,3.647,0.931,3.743,0.796,3.759
		C0.74,3.766,0.682,3.764,0.626,3.765C0.47,3.765,0.314,3.765,0.142,3.765z"/>
</g>
<g id="ppc_2_" display="none">
	<path display="inline" fill="#FFFFFF" d="M1.39,6.367c0.012-0.006,0.011-0.019,0.014-0.03c0.042-0.129,0.129-0.209,0.262-0.231
		C1.801,6.084,1.91,6.133,1.991,6.244C2.01,6.27,2.025,6.299,2.033,6.331c0.005,0.022,0.016,0.028,0.039,0.028
		c0.095-0.001,0.191-0.001,0.286,0C2.416,6.36,2.45,6.408,2.43,6.457C2.416,6.49,2.389,6.502,2.354,6.502
		c-0.093,0-0.186,0.001-0.279-0.001c-0.025,0-0.036,0.007-0.043,0.031C1.99,6.667,1.863,6.759,1.722,6.759
		c-0.143,0-0.271-0.093-0.314-0.227c-0.004-0.014-0.004-0.03-0.018-0.04C1.39,6.451,1.39,6.409,1.39,6.367z M1.535,6.429
		C1.534,6.532,1.617,6.615,1.72,6.615c0.101,0,0.184-0.082,0.186-0.183C1.907,6.331,1.821,6.245,1.72,6.245
		C1.618,6.245,1.536,6.327,1.535,6.429z"/>
	<path display="inline" fill="#FFFFFF" d="M3.226,4.643C3.263,4.66,3.305,4.665,3.34,4.688c0.121,0.076,0.179,0.185,0.163,0.326
		C3.488,5.147,3.41,5.238,3.282,5.283c-0.027,0.01-0.035,0.021-0.034,0.048c0.002,0.095,0.001,0.191,0,0.286
		C3.247,5.657,3.224,5.681,3.187,5.687C3.158,5.692,3.126,5.675,3.113,5.648C3.105,5.631,3.106,5.614,3.106,5.596
		c0-0.091-0.001-0.181,0-0.272c0-0.022-0.006-0.032-0.028-0.039c-0.14-0.044-0.232-0.17-0.23-0.314
		c0.002-0.145,0.095-0.27,0.233-0.313c0.012-0.004,0.026-0.002,0.033-0.015C3.152,4.643,3.189,4.643,3.226,4.643z M3.362,4.978
		c0.004-0.099-0.075-0.184-0.174-0.189C3.081,4.784,2.997,4.861,2.993,4.968C2.988,5.068,3.071,5.155,3.174,5.158
		C3.273,5.161,3.358,5.08,3.362,4.978z"/>
	<path display="inline" fill="#FFFFFF" d="M3.116,6.724c0.047,0,0.093,0.001,0.14,0c0.066-0.001,0.115-0.048,0.116-0.11
		c0.001-0.062-0.048-0.111-0.114-0.112c-0.051-0.001-0.102,0-0.154,0c-0.15-0.001-0.259-0.099-0.266-0.248
		C2.832,6.121,2.929,6.005,3.072,5.992c0.03-0.003,0.037-0.013,0.035-0.04C3.104,5.928,3.105,5.904,3.107,5.879
		C3.11,5.841,3.14,5.816,3.177,5.816c0.038,0,0.067,0.025,0.07,0.064c0.002,0.029,0.002,0.058,0.001,0.087
		C3.248,5.985,3.254,5.991,3.272,5.99c0.034-0.001,0.067-0.001,0.101,0c0.053,0,0.086,0.027,0.087,0.07
		c0.001,0.043-0.033,0.074-0.086,0.075c-0.09,0.001-0.179,0-0.269,0c-0.062,0-0.103,0.028-0.117,0.079
		c-0.02,0.07,0.027,0.136,0.099,0.141c0.067,0.004,0.135-0.002,0.202,0.005C3.399,6.37,3.498,6.461,3.513,6.567
		C3.53,6.694,3.466,6.808,3.354,6.85C3.327,6.86,3.3,6.866,3.272,6.868c-0.02,0.001-0.025,0.01-0.024,0.029
		c0.001,0.027,0.001,0.054-0.001,0.08c-0.002,0.041-0.03,0.068-0.069,0.068c-0.04,0.001-0.069-0.027-0.072-0.069
		c-0.002-0.026-0.002-0.051,0-0.077c0.001-0.022-0.005-0.031-0.029-0.03c-0.035,0.002-0.07,0.001-0.105,0
		C2.92,6.868,2.889,6.84,2.889,6.796c0-0.045,0.031-0.072,0.084-0.072C3.021,6.723,3.069,6.724,3.116,6.724z"/>
	<path display="inline" fill="#FFFFFF" d="M2.13,7.134C2.188,7.13,2.244,7.139,2.294,7.168C2.317,7.181,2.33,7.177,2.347,7.159
		c0.065-0.067,0.131-0.132,0.197-0.198C2.566,6.94,2.591,6.927,2.623,6.938c0.026,0.009,0.043,0.027,0.049,0.054
		c0.007,0.031-0.008,0.054-0.029,0.074C2.577,7.132,2.512,7.198,2.445,7.263C2.429,7.279,2.428,7.29,2.438,7.31
		c0.112,0.22-0.044,0.478-0.29,0.48C1.989,7.792,1.841,7.661,1.822,7.511c-0.024-0.19,0.101-0.341,0.263-0.374
		C2.099,7.134,2.115,7.135,2.13,7.134z M2.147,7.645c0.101,0,0.185-0.083,0.185-0.184c0-0.1-0.083-0.184-0.183-0.186
		C2.047,7.274,1.962,7.36,1.962,7.462C1.963,7.563,2.046,7.645,2.147,7.645z"/>
	<path display="inline" fill="#FFFFFF" d="M2.475,5.402C2.473,5.464,2.462,5.51,2.437,5.552C2.427,5.57,2.429,5.581,2.444,5.596
		c0.067,0.065,0.132,0.131,0.198,0.197c0.025,0.024,0.04,0.052,0.026,0.087C2.649,5.93,2.59,5.942,2.548,5.902
		C2.501,5.858,2.455,5.811,2.409,5.765C2.384,5.739,2.362,5.707,2.332,5.69c-0.035-0.019-0.063,0.02-0.097,0.028
		C2.026,5.772,1.82,5.62,1.818,5.403c-0.001-0.202,0.17-0.347,0.359-0.33c0.137,0.012,0.259,0.118,0.289,0.249
		C2.473,5.353,2.473,5.384,2.475,5.402z M1.962,5.399C1.962,5.499,2.043,5.583,2.145,5.585c0.1,0.002,0.185-0.082,0.187-0.182
		c0.002-0.102-0.082-0.187-0.184-0.188C2.046,5.215,1.963,5.297,1.962,5.399z"/>
	<path display="inline" fill="#FFFFFF" d="M4.225,5.727C4.166,5.73,4.109,5.721,4.057,5.691C4.037,5.68,4.026,5.683,4.01,5.699
		C3.945,5.765,3.879,5.83,3.813,5.896c-0.02,0.02-0.043,0.035-0.074,0.029C3.686,5.913,3.663,5.857,3.695,5.814
		C3.712,5.79,3.735,5.77,3.757,5.748C3.807,5.697,3.858,5.646,3.91,5.596c0.013-0.013,0.018-0.022,0.008-0.041
		c-0.1-0.197,0-0.417,0.214-0.475C4.314,5.03,4.51,5.169,4.533,5.356C4.557,5.547,4.411,5.722,4.225,5.727z M4.392,5.4
		c0-0.101-0.083-0.184-0.184-0.185c-0.101,0-0.185,0.082-0.186,0.183C4.022,5.501,4.107,5.586,4.209,5.585
		C4.309,5.585,4.392,5.501,4.392,5.4z"/>
	<path display="inline" fill="#FFFFFF" d="M3.878,7.444c0.003-0.05,0.016-0.097,0.041-0.139c0.01-0.017,0.005-0.026-0.007-0.038
		C3.843,7.199,3.775,7.13,3.707,7.062c-0.02-0.021-0.033-0.045-0.023-0.076c0.009-0.028,0.028-0.045,0.057-0.051
		c0.031-0.006,0.054,0.01,0.074,0.03C3.88,7.03,3.945,7.095,4.009,7.16c0.015,0.015,0.026,0.02,0.047,0.009
		c0.206-0.107,0.45,0.025,0.477,0.254c0.02,0.175-0.099,0.33-0.263,0.36c-0.181,0.033-0.35-0.082-0.385-0.26
		C3.88,7.498,3.88,7.471,3.878,7.444z M4.392,7.463c0.001-0.101-0.08-0.185-0.182-0.187c-0.1-0.002-0.185,0.081-0.187,0.182
		C4.021,7.56,4.104,7.645,4.207,7.645C4.309,7.646,4.391,7.564,4.392,7.463z"/>
	<path display="inline" fill="#FFFFFF" d="M4.144,6.359c0.047,0,0.093-0.001,0.139,0.001C4.306,6.36,4.315,6.352,4.322,6.331
		c0.05-0.157,0.2-0.25,0.363-0.226c0.158,0.024,0.28,0.166,0.279,0.326C4.963,6.59,4.844,6.73,4.687,6.755
		C4.525,6.78,4.371,6.687,4.323,6.532C4.316,6.51,4.307,6.501,4.282,6.501c-0.096,0.002-0.193,0.001-0.289,0
		C3.953,6.501,3.929,6.48,3.921,6.443C3.915,6.409,3.929,6.385,3.957,6.367c0.015-0.009,0.031-0.008,0.047-0.009
		C4.051,6.358,4.098,6.359,4.144,6.359z M4.819,6.432C4.82,6.329,4.738,6.245,4.635,6.245c-0.101,0-0.184,0.082-0.186,0.183
		C4.447,6.529,4.533,6.615,4.635,6.615C4.736,6.615,4.818,6.534,4.819,6.432z"/>
	<path display="inline" fill="#FFFFFF" d="M3.249,7.397c0,0.047,0.001,0.093-0.001,0.139C3.247,7.56,3.256,7.568,3.277,7.575
		c0.157,0.05,0.25,0.2,0.225,0.363c-0.024,0.158-0.166,0.28-0.326,0.279C3.017,8.216,2.877,8.096,2.852,7.94
		C2.827,7.778,2.92,7.624,3.076,7.576c0.022-0.007,0.031-0.016,0.03-0.041c-0.002-0.096-0.001-0.193,0-0.289
		c0.001-0.04,0.022-0.064,0.058-0.071C3.198,7.168,3.223,7.182,3.24,7.21c0.009,0.015,0.008,0.031,0.008,0.047
		C3.249,7.304,3.249,7.351,3.249,7.397z M3.177,8.072c0.102,0,0.183-0.08,0.185-0.183c0.002-0.102-0.083-0.187-0.185-0.187
		c-0.1,0-0.183,0.083-0.185,0.184C2.991,7.988,3.074,8.072,3.177,8.072z"/>
</g>
<g id="ppc_3_" display="none">
	<path display="inline" fill="#FFFFFF" d="M4.45,4.162c0.098,0.034,0.133,0.103,0.133,0.206C4.581,5.023,4.582,5.679,4.582,6.334
		c0,0.017,0,0.034,0,0.054c-0.055,0-0.108,0-0.164,0c0-0.686,0-1.371,0-2.059c-0.61,0-1.215,0-1.827,0c0,0.017,0,0.034,0,0.05
		c0,0.356,0,0.712,0,1.068c0,0.138-0.063,0.2-0.201,0.2c-0.248,0-0.496,0-0.743,0c-0.016,0-0.031,0-0.049,0c0,0.817,0,1.631,0,2.448
		c0.472,0,0.943,0,1.417,0c0,0.056,0,0.108,0,0.165C2.998,8.261,2.983,8.262,2.968,8.262c-0.448,0-0.896,0-1.344,0
		c-0.133,0-0.196-0.063-0.196-0.196c0-0.795,0-1.591,0-2.386c0-0.095,0.028-0.18,0.086-0.257C1.8,5.045,2.086,4.665,2.372,4.285
		c0.046-0.061,0.107-0.098,0.177-0.124C3.182,4.162,3.816,4.162,4.45,4.162z M1.679,5.479c0.254,0,0.498,0,0.742,0
		c0-0.326,0-0.649,0-0.984C2.171,4.827,1.927,5.15,1.679,5.479z"/>
	<path display="inline" fill="#FFFFFF" d="M4.596,7.887C4.685,7.982,4.773,8.075,4.859,8.17c0.118,0.131,0.083,0.322-0.072,0.395
		C4.69,8.61,4.581,8.588,4.499,8.503C4.417,8.417,4.335,8.33,4.255,8.241C4.232,8.215,4.214,8.212,4.182,8.226
		C3.631,8.467,3.024,8.197,2.831,7.627C2.679,7.176,2.899,6.65,3.327,6.441c0.522-0.255,1.124-0.041,1.357,0.491
		C4.82,7.241,4.792,7.546,4.624,7.838C4.616,7.851,4.608,7.863,4.601,7.875C4.599,7.877,4.599,7.88,4.596,7.887z M4.35,7.931
		c0.398-0.416,0.27-0.973-0.034-1.233C4.017,6.442,3.558,6.431,3.251,6.687C2.933,6.951,2.856,7.402,3.07,7.752
		c0.107,0.175,0.259,0.297,0.454,0.359c0.278,0.088,0.534,0.027,0.769-0.137c0.02,0.045,0.03,0.092,0.058,0.124
		C4.438,8.2,4.531,8.297,4.624,8.393c0.033,0.034,0.087,0.034,0.117,0.005c0.031-0.03,0.03-0.078-0.004-0.116
		C4.685,8.224,4.631,8.167,4.578,8.111C4.512,8.041,4.454,7.961,4.35,7.931z"/>
	<path display="inline" fill="#FFFFFF" d="M3.062,7.327c-0.004-0.389,0.314-0.71,0.709-0.716c0.389-0.006,0.714,0.317,0.717,0.712
		C4.49,7.714,4.174,8.033,3.78,8.037C3.387,8.041,3.066,7.723,3.062,7.327z M3.229,7.32C3.225,7.621,3.468,7.869,3.77,7.871
		c0.302,0.003,0.548-0.237,0.552-0.54c0.004-0.303-0.238-0.55-0.544-0.554C3.479,6.773,3.232,7.017,3.229,7.32z"/>
</g>
<g id="ppc_4_" display="none">
	<path display="inline" fill="#FFFFFF" d="M1.455,4.275C1.485,4.229,1.53,4.22,1.582,4.22C2.86,4.221,4.138,4.221,5.416,4.221
		c0.018,0,0.037,0.001,0.055,0.004c0.042,0.008,0.069,0.041,0.069,0.08c-0.001,0.041-0.031,0.076-0.075,0.08
		C5.43,4.389,5.394,4.389,5.358,4.386C5.325,4.383,5.316,4.397,5.32,4.426c0.001,0.009,0,0.019,0,0.028c0,0.765,0,1.529,0,2.294
		c0,0.081-0.019,0.152-0.085,0.205c-0.05,0.04-0.108,0.048-0.169,0.048c-0.841,0-1.681,0-2.522,0c-0.205,0-0.41,0-0.614,0
		c-0.12,0-0.203-0.059-0.232-0.162C1.69,6.808,1.689,6.776,1.689,6.744c0-0.77,0-1.54,0.001-2.31c0-0.037-0.006-0.054-0.047-0.048
		C1.62,4.39,1.596,4.385,1.572,4.387C1.521,4.392,1.481,4.376,1.455,4.331C1.455,4.312,1.455,4.293,1.455,4.275z M3.507,4.387
		c-0.536,0-1.072,0-1.608-0.001c-0.037,0-0.045,0.011-0.045,0.046C1.855,5.205,1.855,5.977,1.855,6.75
		c0,0.07,0.016,0.086,0.083,0.086c1.045,0,2.091,0,3.136,0c0.065,0,0.082-0.017,0.082-0.083c0-0.775,0-1.551,0.001-2.326
		c0-0.035-0.01-0.04-0.042-0.04C4.578,4.387,4.042,4.387,3.507,4.387z"/>
	<path display="inline" fill="#FFFFFF" d="M3.627,7.788c0,0.131,0,0.259,0,0.386c0,0.057-0.029,0.091-0.076,0.094
		c-0.05,0.004-0.086-0.033-0.087-0.091c-0.001-0.109,0-0.218,0-0.327c0-0.02,0-0.039,0-0.062C3.445,7.792,3.438,7.805,3.428,7.814
		C3.289,7.953,3.15,8.092,3.011,8.232C2.985,8.257,2.958,8.276,2.919,8.266C2.866,8.253,2.84,8.194,2.868,8.148
		c0.009-0.015,0.021-0.027,0.033-0.04C3.078,7.93,3.256,7.752,3.434,7.575c0.022-0.022,0.031-0.043,0.03-0.073
		c-0.002-0.046-0.002-0.093,0-0.14c0.001-0.024-0.006-0.032-0.031-0.032c-0.089,0.001-0.178,0.001-0.267,0
		C3.123,7.33,3.092,7.304,3.084,7.268C3.076,7.231,3.092,7.194,3.125,7.177c0.017-0.009,0.035-0.011,0.054-0.011
		c0.241,0,0.481-0.001,0.722,0c0.059,0,0.097,0.036,0.096,0.084C3.997,7.299,3.959,7.331,3.9,7.332c-0.081,0-0.162,0.001-0.243,0
		c-0.022,0-0.033,0.006-0.029,0.029c0,0.003,0,0.005,0,0.008c0,0.058-0.015,0.123,0.006,0.174c0.021,0.05,0.077,0.086,0.118,0.127
		C3.894,7.813,4.038,7.957,4.182,8.1C4.19,8.108,4.198,8.115,4.205,8.123C4.24,8.164,4.241,8.212,4.206,8.244
		c-0.033,0.031-0.081,0.03-0.118-0.005C4.058,8.211,4.029,8.181,4,8.152C3.887,8.039,3.775,7.926,3.661,7.814
		C3.653,7.805,3.646,7.792,3.627,7.788z"/>
	<path display="inline" fill="#FFFFFF" d="M3.537,5.247c0,0.11,0.001,0.221-0.001,0.331c0,0.029,0.006,0.038,0.037,0.038
		c0.218-0.001,0.436-0.001,0.654-0.001c0.089,0,0.116,0.029,0.11,0.119C4.314,6.089,4.14,6.346,3.821,6.502
		C3.463,6.675,3,6.561,2.759,6.244C2.502,5.907,2.502,5.473,2.766,5.143C2.938,4.927,3.169,4.82,3.445,4.812
		C3.503,4.81,3.536,4.846,3.537,4.908C3.538,5.021,3.537,5.134,3.537,5.247z M3.37,5.347c0-0.109-0.001-0.218,0.001-0.327
		c0.001-0.033-0.009-0.039-0.04-0.034c-0.34,0.057-0.599,0.364-0.599,0.71c0,0.354,0.26,0.657,0.609,0.711
		c0.391,0.06,0.753-0.2,0.821-0.587c0.006-0.036-0.001-0.042-0.035-0.042C3.911,5.78,3.695,5.78,3.478,5.779
		c-0.079,0-0.107-0.03-0.108-0.109C3.37,5.563,3.37,5.455,3.37,5.347z"/>
	<path display="inline" fill="#FFFFFF" d="M4.124,5.434c-0.1,0-0.199,0-0.299,0c-0.067,0-0.097-0.03-0.097-0.097
		c0-0.199,0-0.399,0-0.598c0-0.07,0.031-0.099,0.1-0.098C4.206,4.649,4.511,4.952,4.521,5.33c0.002,0.075-0.026,0.103-0.102,0.104
		C4.321,5.434,4.222,5.434,4.124,5.434z M4.124,5.271c0.066,0,0.133-0.001,0.199,0c0.021,0,0.026-0.004,0.022-0.027
		c-0.037-0.208-0.218-0.39-0.423-0.428c-0.026-0.005-0.032,0-0.032,0.026c0.001,0.132,0.001,0.263,0,0.395
		c0,0.026,0.008,0.035,0.034,0.034C3.991,5.27,4.058,5.271,4.124,5.271z"/>
</g>
<g id="ppc_5_" display="none">
	<path display="inline" fill="#FFFFFF" d="M1.449,6.261c0-0.011,0-0.021,0-0.032c0.019-0.06,0.063-0.081,0.122-0.079
		c0.057,0.001,0.114,0,0.176,0c0.03-0.446,0.198-0.829,0.512-1.143c0.313-0.314,0.696-0.482,1.141-0.514c0-0.059,0-0.112,0-0.165
		c0-0.081,0.031-0.123,0.092-0.125c0.062-0.001,0.095,0.042,0.095,0.125c0,0.054,0,0.108,0,0.164
		c0.451,0.029,0.835,0.198,1.15,0.512C5.052,5.319,5.22,5.704,5.251,6.151c0.061,0,0.118,0.001,0.175,0
		c0.058-0.001,0.101,0.02,0.12,0.078c0,0.013,0,0.027,0,0.04C5.521,6.325,5.477,6.344,5.418,6.341c-0.055-0.002-0.111,0-0.168,0
		c-0.031,0.45-0.201,0.834-0.517,1.148c-0.315,0.314-0.701,0.48-1.147,0.509c0,0.058,0,0.112,0,0.165
		c0,0.081-0.032,0.123-0.092,0.124C3.432,8.287,3.399,8.244,3.399,8.161c0-0.054,0-0.108,0-0.165
		C2.952,7.965,2.57,7.796,2.258,7.483C1.945,7.169,1.777,6.785,1.747,6.34c-0.061,0-0.118-0.001-0.175,0
		C1.512,6.341,1.468,6.321,1.449,6.261z M5.025,6.574C4.589,6.973,4.082,7.181,3.497,7.181c-0.586,0-1.093-0.21-1.527-0.608
		c0.156,0.741,0.817,1.211,1.43,1.23c0-0.014,0-0.029,0-0.043c0-0.051,0-0.101,0.002-0.152c0.002-0.039,0.024-0.065,0.06-0.078
		c0.034-0.013,0.07-0.009,0.092,0.018c0.018,0.022,0.03,0.054,0.032,0.082C3.59,7.688,3.587,7.746,3.587,7.805
		C4.278,7.779,4.895,7.245,5.025,6.574z M3.502,5.46C3.08,5.461,2.736,5.806,2.737,6.226c0.002,0.42,0.346,0.763,0.765,0.762
		c0.421,0,0.765-0.346,0.764-0.767C4.265,5.801,3.922,5.459,3.502,5.46z M3.399,4.683c-0.352,0.025-0.657,0.15-0.92,0.375
		C2.23,5.272,2.065,5.539,1.986,5.86C2.418,5.474,2.922,5.271,3.5,5.272C4.08,5.272,4.584,5.477,5.016,5.87
		C4.844,5.136,4.157,4.69,3.586,4.688c0,0.061,0.001,0.122,0,0.183C3.585,4.913,3.565,4.943,3.527,4.959
		C3.492,4.973,3.454,4.969,3.431,4.94c-0.017-0.022-0.028-0.054-0.03-0.083C3.396,4.801,3.399,4.743,3.399,4.683z M1.978,6.15
		c0.041,0,0.075-0.001,0.11,0c0.017,0,0.035,0.002,0.051,0.005c0.045,0.01,0.072,0.044,0.072,0.088
		c0.001,0.046-0.026,0.083-0.073,0.091C2.099,6.34,2.058,6.34,2.011,6.343C2.233,6.58,2.49,6.753,2.79,6.866
		C2.469,6.441,2.467,6.018,2.78,5.594C2.545,5.659,2.15,5.93,1.978,6.15z M4.225,5.594C4.536,6.021,4.534,6.44,4.218,6.862
		c0.297-0.115,0.55-0.285,0.77-0.521c-0.044,0-0.078,0.002-0.111,0C4.809,6.335,4.769,6.28,4.787,6.219
		c0.012-0.041,0.05-0.066,0.106-0.067c0.04-0.001,0.08,0,0.13,0C4.797,5.898,4.536,5.716,4.225,5.594z"/>
	<path display="inline" fill="#FFFFFF" d="M3.843,6.245c0,0.191-0.156,0.346-0.347,0.344C3.307,6.588,3.153,6.433,3.153,6.244
		c0-0.19,0.158-0.346,0.347-0.344C3.69,5.902,3.843,6.056,3.843,6.245z M3.498,6.088c-0.085,0-0.155,0.07-0.155,0.155
		c-0.001,0.087,0.07,0.159,0.157,0.158c0.085-0.001,0.155-0.071,0.157-0.155C3.657,6.161,3.584,6.088,3.498,6.088z"/>
</g>
<g id="cooperation_red_2_" display="none">
	<path display="inline" fill="#E53935" d="M1.619,9.52C1.557,9.495,1.533,9.448,1.534,9.382c0.003-0.15,0.001-0.3,0.001-0.45
		c0-0.095,0.04-0.135,0.135-0.135c0.09-0.001,0.179,0,0.273,0C1.95,8.726,1.953,8.658,1.961,8.59
		C2.012,8.105,2.156,7.654,2.453,7.26c0.045-0.059,0.095-0.114,0.145-0.168C2.65,7.036,2.716,7.031,2.762,7.075
		C2.809,7.12,2.807,7.183,2.752,7.24C2.582,7.415,2.458,7.621,2.364,7.845C2.25,8.117,2.188,8.402,2.168,8.696
		C2.166,8.727,2.164,8.758,2.162,8.793c0.09,0,0.178,0,0.272,0C2.448,8.67,2.49,8.557,2.564,8.457
		c0.139-0.19,0.329-0.308,0.551-0.371c0.363-0.104,0.716-0.075,1.05,0.109c0.116,0.064,0.214,0.15,0.293,0.257
		c0.037,0.05,0.035,0.1-0.006,0.133C4.411,8.619,4.359,8.613,4.321,8.563C4.181,8.38,3.99,8.279,3.77,8.235
		c-0.353-0.07-0.683-0.022-0.967,0.218c-0.114,0.096-0.177,0.22-0.186,0.34c0.747,0,1.495,0,2.245,0
		C4.854,8.545,4.815,8.304,4.742,8.07C4.648,7.769,4.508,7.493,4.29,7.261C4.183,7.147,4.061,7.053,3.919,6.984
		c-0.027-0.013-0.056-0.03-0.074-0.053c-0.042-0.053-0.019-0.122,0.047-0.16c0.067-0.038,0.138-0.072,0.2-0.117
		c0.253-0.18,0.421-0.428,0.547-0.707C4.741,5.722,4.805,5.485,4.838,5.24C4.84,5.221,4.843,5.202,4.848,5.184
		c0.015-0.054,0.065-0.088,0.117-0.08c0.054,0.008,0.096,0.051,0.089,0.108C5.041,5.319,5.025,5.427,5.001,5.533
		C4.918,5.902,4.77,6.242,4.529,6.537C4.424,6.665,4.304,6.775,4.159,6.871C4.48,7.084,4.692,7.38,4.842,7.723
		C4.992,8.062,5.064,8.42,5.077,8.796c0.09,0,0.175,0,0.261,0c0.117,0,0.151,0.034,0.151,0.151c0,0.145-0.002,0.29,0.001,0.434
		C5.491,9.448,5.467,9.495,5.405,9.52C4.143,9.52,2.881,9.52,1.619,9.52z M1.752,9.301c1.174,0,2.345,0,3.52,0
		c0-0.097,0-0.19,0-0.287c-1.174,0-2.346,0-3.52,0C1.752,9.111,1.752,9.205,1.752,9.301z"/>
	<path display="inline" fill="#E53935" d="M5.405,4.224C5.467,4.248,5.491,4.295,5.49,4.361C5.487,4.508,5.489,4.654,5.489,4.801
		c0,0.11-0.036,0.146-0.145,0.146c-1.037,0-2.075,0-3.112,0c-0.022,0-0.044,0-0.069,0c0.007,0.225,0.039,0.441,0.099,0.652
		C2.354,5.927,2.497,6.23,2.734,6.482c0.109,0.117,0.234,0.213,0.38,0.28c0.05,0.023,0.088,0.057,0.084,0.117
		c-0.006,0.08-0.083,0.119-0.162,0.084C2.863,6.884,2.712,6.774,2.582,6.636C2.279,6.312,2.104,5.923,2.015,5.494
		C1.981,5.332,1.971,5.164,1.95,4.998c-0.002-0.015-0.003-0.03-0.005-0.052c-0.088,0-0.173,0-0.259,0
		c-0.117,0-0.151-0.034-0.151-0.151c0-0.145,0.002-0.29-0.001-0.434C1.533,4.295,1.557,4.248,1.619,4.224
		C2.881,4.224,4.143,4.224,5.405,4.224z M1.752,4.728c1.174,0,2.345,0,3.52,0c0-0.096,0-0.19,0-0.287c-1.174,0-2.345,0-3.52,0
		C1.752,4.538,1.752,4.632,1.752,4.728z"/>
	<path display="inline" fill="#E53935" d="M3.517,5.329c0.283,0,0.565,0,0.848,0c0.114,0,0.157,0.056,0.127,0.165
		C4.422,5.752,4.321,5.996,4.154,6.208c-0.132,0.167-0.29,0.299-0.506,0.344c-0.246,0.05-0.456-0.03-0.637-0.193
		C2.799,6.168,2.673,5.922,2.582,5.657c-0.02-0.058-0.037-0.118-0.053-0.178C2.505,5.389,2.55,5.33,2.643,5.33
		C2.935,5.329,3.226,5.329,3.517,5.329z M4.257,5.547c-0.501,0-0.989,0-1.484,0c0.014,0.039,0.024,0.075,0.038,0.11
		c0.08,0.202,0.181,0.391,0.342,0.541c0.224,0.208,0.498,0.206,0.722-0.003c0.115-0.107,0.2-0.236,0.267-0.377
		C4.183,5.732,4.217,5.642,4.257,5.547z"/>
	<circle display="inline" fill="#E53935" cx="3.513" cy="6.872" r="0.105"/>
	<circle display="inline" fill="#E53935" cx="3.511" cy="7.337" r="0.105"/>
	<circle display="inline" fill="#E53935" cx="3.511" cy="7.802" r="0.105"/>
</g>
<g id="cooperation_red_1_" display="none">
	<path display="inline" fill="#E53935" d="M6.422,9.454C6.393,9.483,6.375,9.521,6.328,9.531c-0.07,0.015-0.134-0.023-0.146-0.094
		C6.171,9.368,6.177,9.298,6.178,9.228c0-0.035-0.012-0.058-0.04-0.079C6.017,9.056,5.89,8.975,5.755,8.907
		C5.686,8.871,5.657,8.818,5.659,8.743c0.002-0.086,0.001-0.171,0-0.257c0-0.033,0.001-0.069,0.026-0.089
		c0.042-0.035,0.041-0.078,0.04-0.124C5.723,8.197,5.726,8.122,5.724,8.046C5.72,7.923,5.655,7.866,5.521,7.867
		c-0.124,0.001-0.187,0.061-0.189,0.18c-0.001,0.07,0,0.139,0,0.209c0,0.053-0.009,0.106,0.042,0.147
		c0.023,0.019,0.021,0.054,0.021,0.084c-0.001,0.088-0.002,0.175,0,0.263c0.001,0.071-0.028,0.121-0.091,0.154
		C5.172,8.972,5.048,9.05,4.93,9.138c-0.04,0.03-0.057,0.06-0.053,0.109c0.004,0.047,0.002,0.096,0.001,0.143
		C4.875,9.48,4.825,9.537,4.752,9.536C4.678,9.535,4.631,9.479,4.63,9.389c-0.001-0.062,0-0.123,0-0.185
		c0-0.098,0.041-0.176,0.117-0.237c0.112-0.09,0.232-0.168,0.357-0.237c0.03-0.016,0.043-0.034,0.041-0.069
		C5.142,8.586,5.125,8.517,5.108,8.444C5.063,8.251,5.048,8.047,5.123,7.858C5.192,7.683,5.37,7.599,5.569,7.619
		c0.255,0.026,0.4,0.186,0.4,0.444c0,0.094,0,0.187,0,0.281c0,0.043-0.004,0.087-0.029,0.12c-0.053,0.07-0.027,0.149-0.033,0.224
		c-0.002,0.026,0.022,0.03,0.038,0.04c0.103,0.06,0.203,0.124,0.301,0.194C6.327,8.98,6.393,9.046,6.422,9.144
		C6.422,9.247,6.422,9.351,6.422,9.454z"/>
	<path display="inline" fill="#E53935" d="M0.303,9.108c0.09-0.188,0.275-0.266,0.435-0.372c0.027-0.018,0.073-0.021,0.074-0.061
		c0-0.06,0.021-0.126-0.013-0.181C0.762,8.433,0.747,8.37,0.748,8.301c0.002-0.103-0.008-0.207,0.005-0.31
		c0.031-0.248,0.23-0.401,0.485-0.373C1.484,7.644,1.63,7.805,1.631,8.051c0,0.094,0,0.187,0,0.281c0,0.043-0.003,0.087-0.028,0.12
		C1.552,8.521,1.575,8.597,1.569,8.67C1.566,8.7,1.59,8.705,1.608,8.716c0.121,0.07,0.238,0.144,0.348,0.231
		c0.073,0.058,0.118,0.129,0.12,0.223c0.002,0.072,0.004,0.143,0.001,0.215c-0.003,0.082-0.054,0.132-0.125,0.13
		C1.88,9.513,1.833,9.461,1.831,9.379C1.83,9.331,1.828,9.283,1.832,9.236c0.004-0.051-0.014-0.084-0.056-0.115
		C1.661,9.035,1.54,8.959,1.413,8.893C1.347,8.859,1.317,8.808,1.319,8.735c0.002-0.088,0.001-0.175,0-0.263
		c0-0.029,0-0.062,0.021-0.079C1.39,8.352,1.38,8.298,1.38,8.246c0-0.074,0.001-0.147-0.001-0.221
		c-0.002-0.09-0.064-0.154-0.154-0.158c-0.049-0.003-0.1-0.007-0.146,0.019c-0.056,0.031-0.081,0.08-0.081,0.143
		c-0.001,0.094,0,0.187,0,0.281c0,0.018-0.001,0.037,0.015,0.05c0.045,0.037,0.05,0.088,0.049,0.141
		c-0.001,0.078-0.002,0.155,0,0.233C1.064,8.808,1.034,8.86,0.965,8.895C0.834,8.962,0.71,9.041,0.593,9.13
		C0.562,9.154,0.549,9.178,0.551,9.215c0.003,0.05,0.001,0.1,0,0.149C0.55,9.442,0.523,9.49,0.467,9.508
		c-0.064,0.02-0.113-0.003-0.149-0.057c-0.003-0.004-0.01-0.006-0.015-0.008C0.303,9.331,0.303,9.219,0.303,9.108z"/>
	<path display="inline" fill="#E53935" d="M2.204,6.753c0.327,0,0.653-0.001,0.98,0.001c0.046,0,0.062-0.011,0.06-0.059
		C3.24,6.608,3.242,6.52,3.243,6.433C3.244,6.349,3.29,6.299,3.362,6.297C3.435,6.295,3.485,6.341,3.49,6.425
		c0.005,0.085,0.006,0.172,0,0.257C3.485,6.745,3.509,6.755,3.566,6.755c0.635-0.002,1.271-0.001,1.906-0.001
		c0.14,0,0.175,0.036,0.175,0.177c0,0.135,0,0.271-0.001,0.406c0,0.053-0.026,0.091-0.075,0.112
		C5.529,7.468,5.486,7.462,5.449,7.432C5.414,7.406,5.403,7.368,5.403,7.327c0-0.092-0.002-0.183,0.001-0.275
		c0.001-0.039-0.012-0.05-0.051-0.05c-0.603,0.001-1.207,0.001-1.81,0c-0.044,0-0.053,0.016-0.052,0.055
		c0.003,0.086,0.002,0.171,0,0.257C3.49,7.391,3.455,7.441,3.396,7.456c-0.078,0.019-0.15-0.037-0.153-0.123
		c-0.003-0.094-0.003-0.187,0-0.281c0.001-0.04-0.012-0.05-0.051-0.05c-0.607,0.001-1.215,0.001-1.822,0
		c-0.044,0-0.053,0.016-0.051,0.055C1.322,7.144,1.321,7.232,1.32,7.32C1.319,7.403,1.274,7.455,1.203,7.459
		c-0.072,0.004-0.128-0.048-0.13-0.132c-0.004-0.145-0.004-0.291,0-0.436c0.003-0.095,0.053-0.137,0.152-0.137
		C1.551,6.753,1.878,6.753,2.204,6.753z"/>
	<path display="inline" fill="#E53935" d="M3.854,4.831c0,0.068,0,0.135,0,0.203c0,0.045-0.009,0.089-0.036,0.124
		C3.755,5.241,3.792,5.335,3.783,5.423c-0.003,0.025,0.024,0.03,0.04,0.039c0.141,0.079,0.276,0.166,0.404,0.264
		C4.322,5.8,4.374,5.89,4.37,6.012C4.367,6.084,4.371,6.156,4.369,6.227C4.366,6.303,4.315,6.356,4.247,6.356
		c-0.067,0-0.119-0.052-0.122-0.128C4.122,6.157,4.123,6.085,4.124,6.013C4.125,5.976,4.111,5.95,4.082,5.927
		C3.943,5.82,3.797,5.723,3.64,5.644c-0.073-0.036-0.107-0.09-0.106-0.17c0.002-0.098,0-0.195,0-0.293
		c0-0.047,0.008-0.092,0.048-0.123c0.024-0.018,0.025-0.043,0.025-0.07c0-0.104,0.001-0.207,0-0.311
		C3.605,4.535,3.526,4.464,3.384,4.456c-0.192-0.011-0.27,0.109-0.26,0.26C3.13,4.808,3.125,4.9,3.125,4.992
		c0,0.024-0.001,0.049,0.021,0.065C3.19,5.091,3.199,5.137,3.198,5.19c-0.002,0.098-0.003,0.195,0,0.293
		c0.002,0.075-0.029,0.125-0.094,0.158c-0.156,0.08-0.304,0.173-0.443,0.28C2.625,5.949,2.607,5.979,2.609,6.026
		c0.004,0.066,0.002,0.131,0,0.197C2.607,6.301,2.561,6.352,2.492,6.357C2.428,6.361,2.368,6.31,2.364,6.235
		c-0.005-0.103-0.011-0.207,0.007-0.31C2.384,5.847,2.43,5.789,2.491,5.74c0.131-0.105,0.271-0.195,0.418-0.275
		c0.032-0.018,0.047-0.038,0.043-0.075c-0.003-0.032-0.002-0.064,0-0.095C2.955,5.245,2.948,5.201,2.917,5.16
		C2.894,5.13,2.884,5.092,2.882,5.053C2.875,4.916,2.878,4.779,2.881,4.641c0.006-0.221,0.182-0.41,0.422-0.431
		C3.53,4.19,3.711,4.276,3.808,4.462c0.033,0.063,0.046,0.131,0.047,0.201C3.855,4.719,3.855,4.775,3.854,4.831
		C3.854,4.831,3.854,4.831,3.854,4.831z"/>
	<path display="inline" fill="#E53935" d="M3.803,8.199C3.799,8.277,3.824,8.373,3.777,8.452c-0.04,0.066-0.035,0.131-0.04,0.2
		c-0.003,0.043,0.015,0.065,0.05,0.084c0.119,0.064,0.231,0.14,0.338,0.223C4.202,9.017,4.25,9.091,4.254,9.189
		c0.002,0.072,0.004,0.143,0.001,0.215C4.25,9.484,4.197,9.537,4.129,9.536c-0.07-0.001-0.117-0.055-0.12-0.137
		c-0.001-0.02-0.004-0.04,0-0.06C4.034,9.217,3.98,9.14,3.877,9.079C3.782,9.022,3.69,8.959,3.59,8.908
		C3.52,8.873,3.489,8.82,3.492,8.741c0.003-0.087,0.001-0.175,0.001-0.263c0-0.031,0.001-0.063,0.025-0.083
		c0.037-0.031,0.038-0.069,0.038-0.112C3.554,8.201,3.556,8.12,3.555,8.038C3.553,7.931,3.487,7.87,3.375,7.867
		C3.241,7.864,3.167,7.919,3.163,8.031C3.159,8.128,3.162,8.226,3.161,8.323c0,0.016,0,0.033,0.014,0.044
		c0.048,0.038,0.052,0.09,0.052,0.145c-0.001,0.072-0.002,0.143,0,0.215C3.231,8.814,3.2,8.875,3.119,8.914
		C2.986,8.978,2.864,9.061,2.747,9.15c-0.028,0.022-0.041,0.044-0.04,0.08c0.002,0.06,0.002,0.12,0,0.179
		C2.704,9.484,2.651,9.537,2.584,9.536c-0.065-0.001-0.117-0.051-0.12-0.124C2.46,9.339,2.462,9.265,2.463,9.191
		c0.002-0.096,0.047-0.17,0.121-0.228c0.108-0.085,0.221-0.162,0.343-0.227c0.038-0.02,0.055-0.043,0.053-0.088
		C2.977,8.579,2.957,8.516,2.941,8.45c-0.048-0.2-0.063-0.408,0.02-0.603c0.071-0.167,0.246-0.248,0.44-0.229
		c0.253,0.025,0.401,0.188,0.402,0.444C3.803,8.104,3.803,8.146,3.803,8.199z"/>
</g>
<g id="cooperation_red" display="none">
	<path display="inline" fill="#E53935" d="M0.244,7.758C0.362,7.53,0.589,7.43,0.786,7.293c0.077-0.053,0.21-0.058,0.192-0.206
		C0.965,6.991,0.958,6.898,0.933,6.8C0.857,6.5,0.817,6.185,0.982,5.899c0.123-0.213,0.415-0.288,0.681-0.207
		c0.231,0.071,0.371,0.263,0.375,0.521C2.04,6.349,2.037,6.484,2.039,6.62C2.04,6.693,2.022,6.759,1.984,6.823
		C1.888,6.982,1.941,7.184,2.097,7.271c0.15,0.084,0.289,0.182,0.425,0.286c0.11,0.084,0.163,0.191,0.159,0.329
		C2.679,7.974,2.682,8.061,2.68,8.149c-0.002,0.08-0.047,0.13-0.126,0.129C2.481,8.276,2.44,8.228,2.436,8.153
		c-0.001-0.028-0.006-0.057,0-0.083C2.476,7.859,2.38,7.724,2.203,7.626c-0.129-0.071-0.251-0.153-0.38-0.224
		C1.737,7.354,1.696,7.289,1.7,7.19c0.004-0.107,0.002-0.215,0-0.322C1.7,6.81,1.715,6.762,1.752,6.715
		c0.084-0.106,0.055-0.613-0.039-0.708c-0.112-0.112-0.252-0.11-0.391-0.071C1.197,5.972,1.139,6.073,1.132,6.197
		C1.124,6.34,1.129,6.483,1.13,6.627c0,0.016-0.001,0.036,0.008,0.046c0.155,0.168,0.064,0.373,0.083,0.56
		c0.009,0.085-0.055,0.134-0.126,0.171C0.915,7.5,0.744,7.608,0.581,7.73C0.513,7.781,0.483,7.839,0.489,7.921
		C0.492,7.981,0.489,8.041,0.489,8.1c0,0.064,0.002,0.128-0.069,0.165C0.342,8.307,0.297,8.249,0.244,8.212
		C0.244,8.061,0.244,7.91,0.244,7.758z"/>
	<path display="inline" fill="#E53935" d="M5.718,6.403C5.714,6.57,5.735,6.727,5.641,6.875C5.603,6.936,5.63,7.038,5.627,7.121
		C5.624,7.236,5.731,7.24,5.795,7.28c0.142,0.089,0.281,0.181,0.413,0.283c0.101,0.079,0.154,0.179,0.153,0.308
		C6.36,7.963,6.362,8.055,6.36,8.146c-0.002,0.08-0.045,0.132-0.124,0.131c-0.08,0-0.119-0.055-0.12-0.134
		c0-0.02-0.004-0.041,0-0.06c0.046-0.226-0.061-0.368-0.251-0.47C5.742,7.548,5.627,7.47,5.505,7.403
		C5.418,7.356,5.377,7.291,5.381,7.192c0.004-0.107,0-0.215,0.002-0.322C5.383,6.834,5.382,6.792,5.4,6.766
		C5.54,6.56,5.472,6.337,5.451,6.122c-0.012-0.127-0.126-0.197-0.27-0.205C5.008,5.907,4.87,5.968,4.836,6.091
		C4.784,6.278,4.758,6.495,4.829,6.654C4.907,6.834,4.885,7,4.902,7.173C4.913,7.286,4.866,7.36,4.764,7.412
		C4.587,7.501,4.421,7.61,4.261,7.73C4.193,7.781,4.163,7.838,4.168,7.921c0.004,0.075,0.001,0.151,0,0.227
		c-0.002,0.08-0.045,0.131-0.124,0.129C3.97,8.276,3.926,8.228,3.924,8.153C3.922,8.038,3.919,7.922,3.928,7.807
		c0.008-0.104,0.068-0.183,0.15-0.247c0.157-0.123,0.321-0.235,0.498-0.327c0.061-0.032,0.086-0.071,0.082-0.14
		c-0.007-0.11,0.014-0.222-0.065-0.319C4.56,6.734,4.565,6.676,4.565,6.624c0-0.135-0.002-0.271,0-0.406
		C4.571,5.899,4.77,5.692,5.09,5.67c0.312-0.021,0.55,0.136,0.615,0.41C5.731,6.19,5.714,6.302,5.718,6.403z"/>
	<path display="inline" fill="#E53935" d="M1.448,8.807c0,0.081,0.003,0.144-0.001,0.207C1.442,9.09,1.408,9.147,1.323,9.144
		C1.24,9.142,1.203,9.088,1.201,9.011C1.198,8.843,1.198,8.676,1.198,8.509c0-0.08,0.042-0.128,0.123-0.131
		c0.167-0.005,0.334-0.01,0.501-0.009c0.079,0,0.144,0.033,0.141,0.126c-0.003,0.09-0.065,0.121-0.146,0.122
		c-0.055,0.001-0.11,0-0.187,0c0.177,0.18,0.367,0.306,0.573,0.405c0.918,0.443,1.957,0.283,2.701-0.411
		c0.02-0.019,0.04-0.039,0.062-0.056c0.06-0.047,0.125-0.06,0.182-0.002c0.063,0.065,0.043,0.129-0.017,0.188
		C4.676,9.19,4.132,9.452,3.492,9.505c-0.757,0.063-1.419-0.162-1.99-0.662C1.49,8.833,1.476,8.826,1.448,8.807z"/>
	<path display="inline" fill="#E53935" d="M5.074,4.945c0-0.086-0.003-0.148,0.001-0.21C5.08,4.659,5.118,4.605,5.2,4.604
		c0.079-0.001,0.119,0.053,0.121,0.122C5.329,4.9,5.33,5.076,5.326,5.25C5.325,5.321,5.278,5.368,5.202,5.37
		C5.03,5.373,4.859,5.374,4.688,5.375c-0.081,0-0.131-0.044-0.131-0.123c0.001-0.073,0.05-0.116,0.124-0.119
		c0.062-0.003,0.124-0.001,0.216-0.001C4.651,4.894,4.394,4.732,4.103,4.633c-0.932-0.317-1.77-0.149-2.502,0.516
		C1.586,5.163,1.573,5.177,1.558,5.19C1.499,5.24,1.434,5.254,1.376,5.197C1.312,5.134,1.332,5.065,1.39,5.008
		C1.579,4.823,1.785,4.661,2.021,4.54c1.014-0.517,2.113-0.387,2.984,0.349C5.02,4.902,5.035,4.914,5.074,4.945z"/>
</g>
<g id="smm_red" display="none">
	<path display="inline" fill="#E53935" d="M0.22,6.903c0.065-0.131,0.102-0.273,0.149-0.41C0.595,5.839,0.818,5.184,1.042,4.53
		C1.093,4.381,1.165,4.347,1.315,4.4C1.672,4.526,2.03,4.65,2.386,4.779c0.165,0.06,0.32,0.055,0.475-0.028
		c0.226-0.121,0.46-0.135,0.703-0.05C4.176,4.916,4.79,5.126,5.403,5.338c0.15,0.052,0.181,0.114,0.151,0.271
		c-0.035,0.179-0.102,0.34-0.255,0.45c-0.176,0.126-0.37,0.121-0.566,0.06C4.526,6.054,4.321,5.981,4.115,5.911
		c-0.103-0.035-0.101-0.034-0.149,0.06C3.803,6.293,3.561,6.524,3.205,6.618C2.924,6.693,2.649,6.65,2.379,6.558
		C2.291,6.527,2.25,6.443,2.275,6.365c0.027-0.086,0.108-0.129,0.206-0.102c0.124,0.035,0.249,0.069,0.378,0.076
		c0.379,0.018,0.638-0.167,0.817-0.486C3.71,5.791,3.737,5.726,3.76,5.659c0.044-0.127,0.12-0.163,0.248-0.12
		c0.273,0.092,0.545,0.184,0.818,0.277c0.058,0.02,0.118,0.029,0.179,0.024c0.105-0.009,0.203-0.1,0.221-0.201
		c0.008-0.046-0.029-0.042-0.051-0.05C4.923,5.501,4.67,5.414,4.417,5.327C4.101,5.218,3.785,5.112,3.472,5
		C3.309,4.942,3.156,4.949,3.004,5.03C2.801,5.139,2.587,5.165,2.366,5.096C2.306,5.077,2.29,5.093,2.272,5.147
		C2.029,5.859,1.785,6.57,1.541,7.282c-0.058,0.17-0.121,0.2-0.291,0.141C0.959,7.322,0.668,7.221,0.376,7.123
		C0.305,7.1,0.25,7.064,0.22,6.994C0.22,6.964,0.22,6.933,0.22,6.903z M1.249,7.088c0.04,0.001,0.037-0.032,0.044-0.053
		c0.23-0.67,0.459-1.342,0.691-2.012c0.015-0.045,0.008-0.062-0.036-0.076C1.752,4.882,1.556,4.816,1.361,4.746
		c-0.048-0.017-0.06-0.001-0.074,0.039C1.059,5.456,0.829,6.127,0.599,6.797C0.584,6.841,0.581,6.862,0.634,6.879
		C0.829,6.942,1.022,7.01,1.215,7.077C1.227,7.081,1.239,7.084,1.249,7.088z"/>
	<path display="inline" fill="#E53935" d="M1.826,8.252c-0.003-0.071,0.017-0.146,0.06-0.214c0.02-0.032,0.018-0.049-0.008-0.077
		C1.645,7.718,1.699,7.374,1.997,7.219c0.219-0.115,0.443-0.22,0.666-0.327c0.097-0.046,0.189-0.017,0.227,0.066
		c0.038,0.084,0.004,0.168-0.094,0.217C2.589,7.277,2.383,7.377,2.176,7.477c-0.032,0.016-0.065,0.03-0.088,0.057
		C2.046,7.583,2.038,7.64,2.067,7.697c0.029,0.058,0.08,0.082,0.144,0.077c0.036-0.003,0.067-0.02,0.099-0.035
		C2.706,7.544,3.103,7.35,3.5,7.157C3.529,7.142,3.559,7.128,3.59,7.119c0.068-0.018,0.14,0.017,0.172,0.08
		c0.032,0.062,0.017,0.14-0.038,0.185C3.699,7.405,3.67,7.421,3.641,7.435C3.185,7.658,2.73,7.881,2.274,8.104
		c-0.12,0.059-0.163,0.138-0.122,0.222c0.043,0.087,0.128,0.101,0.25,0.041C2.909,8.121,3.414,7.874,3.92,7.627
		c0.009-0.004,0.018-0.009,0.027-0.013c0.106-0.049,0.192-0.027,0.234,0.058c0.044,0.087,0.006,0.172-0.103,0.225
		c-0.358,0.176-0.716,0.35-1.074,0.525C2.9,8.473,2.795,8.523,2.692,8.575C2.594,8.625,2.56,8.705,2.6,8.785
		c0.04,0.08,0.124,0.102,0.222,0.054c0.467-0.228,0.934-0.457,1.401-0.685c0.129-0.063,0.216-0.048,0.263,0.044
		c0.048,0.095,0.006,0.174-0.128,0.239C4.053,8.585,3.75,8.734,3.446,8.882c-0.062,0.03-0.114,0.067-0.117,0.144
		c-0.005,0.1,0.084,0.172,0.181,0.147c0.017-0.005,0.034-0.011,0.049-0.019c0.658-0.326,1.324-0.635,1.974-0.977
		c0.344-0.181,0.648-0.421,0.932-0.685c0.061-0.057,0.12-0.117,0.185-0.168c0.048-0.038,0.045-0.069,0.02-0.119
		c-0.341-0.693-0.68-1.387-1.019-2.08C5.633,5.088,5.613,5.051,5.612,5.011c-0.001-0.073,0.04-0.123,0.104-0.154
		C6.017,4.709,6.318,4.56,6.62,4.414c0.113-0.055,0.19-0.023,0.249,0.1c0.313,0.642,0.626,1.284,0.939,1.925
		c0.049,0.1,0.098,0.199,0.146,0.299c0.064,0.132,0.039,0.206-0.092,0.27c-0.27,0.132-0.539,0.264-0.809,0.395
		C7.003,7.429,6.959,7.46,6.918,7.498c-0.253,0.233-0.503,0.469-0.784,0.67c-0.291,0.209-0.607,0.37-0.927,0.526
		C4.706,8.939,4.205,9.184,3.704,9.43C3.523,9.519,3.35,9.517,3.185,9.393c-0.079-0.06-0.134-0.139-0.156-0.235
		c-0.013-0.058-0.03-0.059-0.078-0.036C2.703,9.239,2.456,9.167,2.328,8.944c-0.027-0.047-0.046-0.096-0.05-0.15
		C2.275,8.742,2.255,8.72,2.2,8.71C1.978,8.672,1.826,8.486,1.826,8.252z M6.979,7.094c0.015-0.007,0.029-0.013,0.042-0.02
		C7.206,6.983,7.391,6.89,7.578,6.802c0.044-0.021,0.045-0.037,0.025-0.077C7.502,6.524,7.405,6.322,7.306,6.12
		c-0.213-0.435-0.426-0.87-0.638-1.305c-0.017-0.034-0.024-0.068-0.08-0.039C6.402,4.873,6.213,4.964,6.024,5.053
		c-0.041,0.02-0.041,0.039-0.023,0.075C6.049,5.22,6.093,5.314,6.139,5.407C6.405,5.95,6.671,6.494,6.937,7.037
		C6.947,7.058,6.949,7.087,6.979,7.094z"/>
</g>
<g id="smm_red_1_" display="none">
	<path display="inline" fill="#E53935" d="M0.253,9.96c0.137-0.189,0.202-0.417,0.326-0.612c0.36-0.564,0.47-1.172,0.442-1.84
		c-0.04-0.966-0.01-1.935-0.01-2.903c0-0.225,0.039-0.263,0.269-0.263c1.926,0,3.851,0,5.777,0c0.237,0,0.275,0.038,0.275,0.275
		c0,1.233,0.001,2.466-0.001,3.699c0,0.11,0.02,0.208,0.07,0.307c0.209,0.413,0.411,0.829,0.617,1.243
		c0.017,0.034,0.018,0.08,0.064,0.095c0,0.051,0,0.102,0,0.153C8,10.18,7.908,10.198,7.802,10.198c-2.424-0.002-4.847-0.002-7.271,0
		c-0.105,0-0.197-0.021-0.279-0.085C0.253,10.062,0.253,10.011,0.253,9.96z M4.167,8.358c0.902,0,1.804-0.002,2.706,0.003
		c0.114,0.001,0.144-0.027,0.143-0.142c-0.005-1.142-0.004-2.283,0-3.425c0-0.112-0.035-0.131-0.138-0.131
		c-1.804,0.003-3.608,0.003-5.412,0c-0.111,0-0.145,0.022-0.145,0.14c0.005,1.136,0.005,2.273,0,3.409
		C1.321,8.338,1.361,8.361,1.476,8.36C2.373,8.356,3.27,8.358,4.167,8.358z M7.664,9.872C7.48,9.498,7.303,9.145,7.134,8.788
		C7.093,8.702,7.045,8.673,6.949,8.673c-0.805,0.004-1.61,0.002-2.415,0.002c-1.045,0-2.089,0-3.134,0.001
		c-0.056,0-0.123-0.027-0.16,0.049C1.054,9.103,0.867,9.479,0.672,9.872c0.071,0,0.121,0,0.17,0c0.535,0,1.071-0.022,1.605,0.008
		c0.304,0.017,0.487-0.064,0.57-0.36c0.042-0.148,0.151-0.196,0.304-0.194c0.474,0.007,0.948,0,1.422,0.003
		C5.319,9.334,5.19,9.267,5.434,9.757C5.48,9.851,5.533,9.875,5.631,9.875c0.627-0.004,1.253-0.002,1.88-0.002
		C7.555,9.872,7.599,9.872,7.664,9.872z M4.16,9.813c0.275,0,0.55,0.001,0.825-0.001c0.034,0,0.096,0.028,0.096-0.034
		c0.001-0.045-0.02-0.103-0.076-0.121c-0.028-0.009-0.06-0.005-0.091-0.005c-0.499,0-0.998,0-1.496,0
		c-0.025,0-0.052-0.003-0.076,0.002C3.274,9.667,3.254,9.73,3.254,9.779c0,0.06,0.063,0.032,0.097,0.032
		C3.621,9.814,3.891,9.813,4.16,9.813z"/>
	<path display="inline" fill="#E53935" d="M4.026,7.146c0.107,0,0.214,0.005,0.321-0.001c0.139-0.009,0.244-0.109,0.239-0.231
		C4.581,6.781,4.51,6.688,4.374,6.673C4.248,6.66,4.12,6.666,3.993,6.662c-0.304-0.009-0.538-0.217-0.56-0.497
		C3.409,5.856,3.599,5.61,3.911,5.56C3.99,5.548,4.019,5.524,4.012,5.448C4.008,5.402,4.009,5.355,4.015,5.31
		c0.012-0.089,0.071-0.139,0.156-0.137c0.084,0.002,0.137,0.054,0.152,0.143C4.335,5.393,4.281,5.497,4.36,5.541
		c0.059,0.033,0.149,0.012,0.225,0.012c0.11-0.001,0.197,0.031,0.195,0.159c-0.002,0.129-0.092,0.155-0.2,0.154
		c-0.178-0.001-0.357-0.003-0.535,0C3.862,5.87,3.749,5.965,3.749,6.108c0,0.144,0.114,0.238,0.295,0.242
		C4.155,6.352,4.268,6.347,4.38,6.352c0.278,0.013,0.504,0.234,0.522,0.505c0.019,0.29-0.162,0.549-0.441,0.589
		C4.331,7.464,4.314,7.519,4.322,7.623C4.331,7.734,4.307,7.84,4.173,7.845C4.029,7.849,3.999,7.74,4.011,7.622
		c0.013-0.126-0.03-0.18-0.159-0.162c-0.05,0.007-0.102,0.001-0.153,0C3.602,7.456,3.541,7.401,3.54,7.309
		c-0.002-0.1,0.062-0.159,0.165-0.161c0.107-0.002,0.214-0.001,0.321-0.001C4.026,7.147,4.026,7.146,4.026,7.146z"/>
</g>
<g id="smm_red_2_" display="none">
	<path display="inline" fill="#E53935" d="M4.119,2.469C4.185,2.501,4.258,2.497,4.328,2.51c1.001,0.187,1.727,0.744,2.121,1.676
		c0.408,0.966,0.29,1.901-0.324,2.756c-0.417,0.58-0.988,0.947-1.686,1.084c-0.929,0.183-1.76-0.046-2.467-0.683
		C1.517,6.933,1.227,6.42,1.116,5.819C0.949,4.914,1.169,4.106,1.777,3.412C2.179,2.953,2.686,2.667,3.28,2.533
		c0.089-0.02,0.179-0.03,0.269-0.046C3.563,2.485,3.582,2.49,3.587,2.469C3.765,2.469,3.942,2.469,4.119,2.469z M6.355,5.296
		C6.347,4.687,6.158,4.151,5.788,3.703C5.408,3.244,4.923,2.952,4.336,2.84C3.766,2.731,3.22,2.811,2.709,3.083
		C2.168,3.372,1.781,3.805,1.555,4.378c-0.163,0.413-0.209,0.841-0.141,1.28c0.071,0.461,0.26,0.868,0.56,1.225
		C1.993,6.906,2.011,6.915,2.04,6.906c0.238-0.076,0.473-0.159,0.688-0.289c0.13-0.078,0.251-0.168,0.333-0.301
		C3.082,6.283,3.084,6.26,3.053,6.23c-0.15-0.147-0.247-0.327-0.311-0.525C2.63,5.354,2.619,4.996,2.647,4.631
		C2.698,3.97,3.153,3.525,3.815,3.505C4.397,3.488,4.844,3.81,4.995,4.372c0.094,0.35,0.084,0.706,0.023,1.061
		c-0.05,0.29-0.152,0.556-0.357,0.774C4.634,6.236,4.644,6.259,4.656,6.284c0.039,0.081,0.098,0.147,0.167,0.204
		c0.257,0.21,0.562,0.321,0.872,0.42C5.734,6.92,5.752,6.899,5.773,6.874C6.158,6.406,6.35,5.869,6.355,5.296z M2.953,4.926
		c0.001,0.266,0.031,0.51,0.12,0.744C3.21,6.03,3.471,6.211,3.854,6.215c0.36,0.004,0.631-0.186,0.765-0.543
		c0.128-0.339,0.14-0.69,0.099-1.046C4.699,4.45,4.65,4.283,4.538,4.143C4.315,3.862,4.012,3.798,3.676,3.846
		c-0.325,0.046-0.543,0.23-0.651,0.542C2.963,4.568,2.961,4.756,2.953,4.926z M2.271,7.173C3.19,7.976,4.608,7.938,5.462,7.171
		C5.315,7.12,5.171,7.068,5.035,6.999c-0.257-0.13-0.502-0.277-0.651-0.538C4.366,6.43,4.347,6.434,4.32,6.444
		C4.018,6.565,3.713,6.57,3.407,6.459C3.37,6.446,3.352,6.455,3.333,6.489C3.302,6.546,3.26,6.596,3.215,6.643
		c-0.15,0.156-0.332,0.266-0.524,0.36C2.556,7.069,2.415,7.119,2.271,7.173z"/>
	<path display="inline" fill="#E53935" d="M3.878,9.016c0.656,0,1.312,0,1.969,0c0.034,0,0.068-0.001,0.101,0.004
		c0.079,0.012,0.131,0.079,0.129,0.161c-0.002,0.078-0.054,0.139-0.132,0.15C5.914,9.336,5.882,9.335,5.851,9.335
		c-1.323,0-2.646,0-3.968,0c-0.15,0-0.221-0.051-0.223-0.158C1.658,9.068,1.73,9.016,1.886,9.016
		C2.55,9.016,3.214,9.016,3.878,9.016z"/>
	<path display="inline" fill="#E53935" d="M3.865,10.473c-0.43,0-0.86,0-1.29,0c-0.128,0-0.199-0.064-0.194-0.171
		c0.004-0.074,0.043-0.122,0.113-0.141c0.032-0.009,0.067-0.012,0.1-0.012c0.849-0.001,1.699-0.001,2.548,0
		c0.139,0,0.213,0.057,0.214,0.161c0.001,0.098-0.068,0.163-0.179,0.163c-0.208,0.002-0.417,0-0.625,0
		C4.324,10.473,4.094,10.473,3.865,10.473z"/>
</g>
<g id="Слой_34" display="none">
	<path display="inline" fill="#0D8497" d="M-2.524,4.253C-2.48,4.115-2.395,4.04-2.242,4.035c0.116-0.004,0.174-0.09,0.193-0.198
		C-2.039,3.78-2.04,3.72-2.04,3.662c0.001-0.405-0.001-0.811,0.001-1.216c0.001-0.237,0.1-0.342,0.332-0.342
		C-0.324,2.102,1.059,2.1,2.442,2.105c0.395,0.001,0.776,0.07,1.078,0.357c0.087,0.083,0.158,0.183,0.236,0.275
		c0.094,0.11,0.174,0.12,0.255,0.003C4.34,2.267,4.83,2.13,5.356,2.123c1.383-0.02,2.766-0.016,4.149-0.019
		c0.223,0,0.324,0.108,0.325,0.337c0.002,0.409,0,0.819,0.001,1.228c0,0.28,0.031,0.32,0.301,0.379
		c0.104,0.022,0.16,0.087,0.177,0.186c0.008,0.049,0.006,0.1,0.006,0.15c0,2.135,0,4.27,0,6.405c0,0.301-0.098,0.4-0.396,0.4
		c-1.262,0-2.524,0-3.786,0c-0.403,0-0.8,0.037-1.181,0.183c-0.289,0.111-0.544,0.269-0.746,0.51
		c-0.209,0.249-0.406,0.243-0.611-0.002c-0.245-0.295-0.576-0.447-0.933-0.555c-0.372-0.112-0.755-0.135-1.14-0.136
		c-1.22-0.001-2.44-0.001-3.66,0.001c-0.185,0-0.326-0.053-0.387-0.242C-2.524,8.716-2.524,6.485-2.524,4.253z M-1.442,6.397
		c0,1.103,0,2.206,0,3.31c0,0.025,0,0.05,0,0.075c0.001,0.241,0.08,0.32,0.325,0.321c0.272,0.001,0.543-0.001,0.815,0
		c0.907,0.005,1.814-0.004,2.72,0.022c0.518,0.015,0.993,0.175,1.343,0.596c0.093,0.112,0.216,0.111,0.296,0.001
		c0.182-0.249,0.441-0.376,0.72-0.474c0.336-0.118,0.686-0.142,1.037-0.143c1.032-0.004,2.064-0.001,3.097-0.002
		c0.238,0,0.321-0.08,0.321-0.312c0-2.269,0-4.538,0-6.807c0-0.223-0.087-0.309-0.313-0.309C7.811,2.674,6.704,2.668,5.597,2.679
		C5.388,2.681,5.168,2.715,4.973,2.788C4.525,2.956,4.328,3.331,4.25,3.78c-0.02,0.115-0.027,0.233-0.028,0.349
		C4.221,5.75,4.222,7.372,4.221,8.993c0,0.287-0.098,0.39-0.355,0.379c-0.137-0.005-0.23-0.069-0.264-0.206
		C3.578,9.07,3.571,8.968,3.571,8.869c-0.002-1.55-0.001-3.101-0.001-4.651c0-0.618-0.298-1.044-0.849-1.302
		c-0.426-0.2-0.883-0.24-1.345-0.241c-0.823-0.002-1.646-0.001-2.47-0.001c-0.276,0-0.347,0.073-0.348,0.351
		C-1.442,4.149-1.442,5.273-1.442,6.397z"/>
</g>
<g id="Слой_35" display="none">
	<path display="inline" fill="#0D8497" d="M3.591,0.25c0.113,0.054,0.238,0.048,0.357,0.07C5.66,0.64,6.902,1.592,7.576,3.187
		C8.275,4.838,8.072,6.437,7.021,7.9c-0.713,0.992-1.69,1.62-2.884,1.854c-1.59,0.312-3.011-0.078-4.219-1.169
		c-0.777-0.702-1.274-1.578-1.464-2.606C-1.83,4.431-1.454,3.05-0.414,1.862c0.688-0.785,1.555-1.274,2.57-1.503
		c0.152-0.034,0.307-0.052,0.46-0.078C2.641,0.277,2.672,0.286,2.682,0.25C2.985,0.25,3.288,0.25,3.591,0.25z M7.415,5.086
		c-0.014-1.042-0.336-1.959-0.97-2.725c-0.65-0.785-1.479-1.284-2.483-1.477C2.987,0.698,2.054,0.834,1.18,1.3
		C0.254,1.794-0.408,2.535-0.793,3.514c-0.278,0.707-0.357,1.438-0.241,2.189c0.122,0.789,0.445,1.485,0.957,2.096
		c0.033,0.039,0.063,0.055,0.114,0.038c0.407-0.131,0.809-0.272,1.177-0.494c0.222-0.134,0.43-0.287,0.569-0.514
		c0.035-0.057,0.038-0.097-0.015-0.149C1.511,6.43,1.346,6.123,1.237,5.783C1.044,5.184,1.025,4.571,1.073,3.948
		C1.16,2.816,1.94,2.056,3.071,2.022c0.996-0.03,1.76,0.521,2.019,1.483c0.161,0.598,0.143,1.208,0.039,1.815
		C5.044,5.815,4.869,6.271,4.518,6.644C4.472,6.692,4.489,6.731,4.51,6.774c0.067,0.138,0.167,0.251,0.285,0.348
		c0.44,0.359,0.96,0.55,1.492,0.718C6.354,7.862,6.384,7.826,6.42,7.783C7.079,6.983,7.406,6.064,7.415,5.086z M1.597,4.452
		C1.599,4.907,1.65,5.324,1.802,5.724C2.036,6.34,2.483,6.65,3.138,6.657c0.615,0.006,1.079-0.319,1.309-0.929
		c0.218-0.58,0.239-1.181,0.17-1.789C4.583,3.638,4.499,3.353,4.309,3.113C3.927,2.632,3.408,2.523,2.834,2.605
		C2.278,2.684,1.905,2.999,1.721,3.532C1.614,3.84,1.611,4.161,1.597,4.452z M0.431,8.296c1.571,1.374,3.997,1.307,5.458-0.003
		C5.636,8.205,5.39,8.115,5.157,7.998c-0.44-0.222-0.858-0.474-1.113-0.92c-0.03-0.053-0.063-0.047-0.109-0.029
		C3.418,7.256,2.897,7.264,2.374,7.074C2.31,7.051,2.279,7.068,2.248,7.125C2.194,7.222,2.123,7.308,2.045,7.389
		C1.789,7.656,1.478,7.843,1.149,8.005C0.919,8.118,0.677,8.203,0.431,8.296z"/>
	<path display="inline" fill="#0D8497" d="M3.178,11.448c1.122,0,2.245,0,3.367,0c0.058,0,0.116-0.002,0.173,0.007
		c0.135,0.021,0.224,0.135,0.22,0.275c-0.004,0.134-0.093,0.238-0.225,0.257c-0.053,0.007-0.107,0.007-0.16,0.007
		c-2.263,0-4.525,0-6.788,0c-0.256,0-0.378-0.087-0.381-0.269c-0.003-0.188,0.121-0.277,0.386-0.277
		C0.907,11.448,2.043,11.448,3.178,11.448z"/>
	<path display="inline" fill="#0D8497" d="M3.157,13.939c-0.735,0-1.47,0.001-2.206,0c-0.219,0-0.341-0.11-0.331-0.293
		c0.007-0.126,0.074-0.208,0.194-0.242c0.055-0.015,0.114-0.021,0.171-0.021c1.453-0.001,2.905-0.001,4.358-0.001
		c0.237,0,0.365,0.098,0.366,0.276c0.001,0.167-0.116,0.278-0.306,0.28c-0.356,0.003-0.713,0.001-1.069,0.001
		C3.941,13.939,3.549,13.939,3.157,13.939z"/>
	<ellipse display="inline" fill="#0D8497" cx="3.154" cy="4.51" rx="1.907" ry="2.173"/>
	<path display="inline" fill="#0D8497" d="M0.064,8.179l2.154-1.267h1.902l1.992,1.267C6.111,8.179,3.793,11.184,0.064,8.179z"/>
</g>
<g id="Слой_36" display="none">
	<path display="inline" fill="#0D8497" d="M-4.438,2.619c0.14-0.103,0.293-0.139,0.469-0.137c0.584,0.008,1.168-0.011,1.751,0.01
		C-1.98,2.501-1.898,2.436-1.86,2.198c0.212-1.344,1.322-2.212,2.674-2.111c1.128,0.084,2.077,0.99,2.222,2.149
		C3.062,2.449,3.133,2.494,3.331,2.49c0.614-0.012,1.228-0.007,1.842-0.004c0.356,0.002,0.417,0.067,0.42,0.429
		C5.595,3.167,5.594,3.419,5.592,3.67C5.591,3.864,5.487,3.983,5.301,3.981C5.127,3.979,5.033,3.86,5.028,3.682
		c-0.001-0.02-0.001-0.04-0.002-0.06C4.999,3.052,4.999,3.052,4.433,3.052c-0.383,0-0.765,0.007-1.148-0.003
		c-0.167-0.005-0.233,0.04-0.225,0.218C3.074,3.578,3.063,3.89,3.064,4.202C3.065,4.4,2.993,4.55,2.777,4.547
		C2.56,4.544,2.497,4.389,2.498,4.194c0.002-0.312-0.006-0.624,0.003-0.936C2.507,3.103,2.463,3.048,2.3,3.049
		c-1.148,0.006-2.295,0.006-3.443,0c-0.168-0.001-0.202,0.067-0.198,0.215C-1.333,3.576-1.339,3.888-1.339,4.2
		c0,0.195-0.068,0.349-0.286,0.347C-1.84,4.544-1.91,4.393-1.908,4.197c0.002-0.292-0.012-0.585,0.005-0.876
		c0.011-0.202-0.037-0.282-0.259-0.274c-0.483,0.018-0.967,0.015-1.449,0.001c-0.202-0.006-0.255,0.056-0.252,0.254
		C-3.853,4.006-3.86,4.711-3.86,5.415c0,2.154,0,4.309,0,6.463c0,1.12,0.543,1.656,1.672,1.657c1.289,0,2.577,0,3.866,0.001
		c0.1,0,0.203-0.003,0.301,0.013c0.15,0.025,0.228,0.13,0.224,0.277c-0.004,0.146-0.087,0.246-0.236,0.269
		c-0.089,0.013-0.181,0.009-0.271,0.009c-1.309,0-2.618-0.025-3.926,0.008c-1.096,0.028-1.91-0.611-2.141-1.498
		c-0.01-0.04-0.021-0.077-0.067-0.088C-4.438,9.223-4.438,5.921-4.438,2.619z M0.558,2.489c0.453,0,0.906,0,1.359,0
		c0.649,0,0.67-0.032,0.423-0.657c-0.287-0.723-1.088-1.242-1.83-1.186c-0.897,0.068-1.62,0.666-1.797,1.485
		c-0.074,0.344-0.064,0.358,0.275,0.359C-0.489,2.489,0.034,2.489,0.558,2.489z"/>
	<path display="inline" fill="#0D8497" d="M11.025,13.069c-0.204,0.46-0.468,0.857-0.999,0.992
		c-0.169,0.043-0.338,0.043-0.508,0.043c-1.711,0.002-3.421,0.002-5.132,0.001c-0.973-0.001-1.508-0.539-1.509-1.514
		c-0.002-1.781-0.001-3.562,0-5.343c0-0.437,0.075-0.513,0.501-0.514c0.413-0.001,0.826-0.016,1.237,0.006
		c0.243,0.013,0.318-0.043,0.316-0.303C4.925,5.485,5.47,4.709,6.296,4.438c1.327-0.436,2.628,0.479,2.682,1.887
		c0.016,0.406,0.016,0.406,0.418,0.407c0.392,0,0.785,0.008,1.177-0.004c0.185-0.006,0.331,0.045,0.452,0.18
		C11.025,8.961,11.025,11.015,11.025,13.069z M6.943,13.54c0.825,0,1.65-0.018,2.475,0.006c0.626,0.018,1.055-0.276,1.031-1.013
		c-0.032-1.005-0.008-2.012-0.008-3.018c0-0.654-0.006-1.308,0.004-1.962c0.003-0.186-0.057-0.246-0.241-0.239
		c-0.321,0.013-0.644,0.013-0.966,0c-0.191-0.008-0.278,0.042-0.26,0.25c0.016,0.18,0.003,0.362,0,0.543
		c-0.003,0.183-0.111,0.291-0.281,0.29c-0.17-0.001-0.276-0.11-0.278-0.293c-0.003-0.191-0.01-0.383-0.001-0.573
		c0.007-0.15-0.036-0.217-0.201-0.216c-0.835,0.006-1.67,0.006-2.505,0c-0.155-0.001-0.219,0.048-0.21,0.207
		C5.513,7.703,5.51,7.884,5.502,8.065C5.493,8.258,5.406,8.41,5.193,8.396c-0.188-0.012-0.271-0.152-0.27-0.338
		C4.924,7.887,4.91,7.715,4.927,7.545c0.019-0.196-0.065-0.238-0.242-0.231C4.383,7.327,4.08,7.334,3.779,7.313
		c-0.247-0.018-0.322,0.055-0.32,0.311c0.012,1.66,0.005,3.32,0.007,4.98c0,0.639,0.295,0.933,0.942,0.935
		C5.253,13.542,6.098,13.54,6.943,13.54z M6.941,6.732c0.422,0,0.844-0.005,1.266,0.003c0.148,0.003,0.219-0.028,0.21-0.197
		C8.402,6.256,8.384,5.979,8.255,5.72C7.957,5.117,7.294,4.788,6.651,4.927C5.947,5.08,5.505,5.682,5.492,6.481
		C5.489,6.669,5.525,6.747,5.736,6.738C6.137,6.72,6.539,6.732,6.941,6.732z"/>
	<path display="inline" fill="#0D8497" d="M3.188,7.095h7.542l-0.104,6.072c0,0-0.104,0.479-0.854,0.583H3.792
		c0,0-0.625-0.646-0.604-1.083S3.188,7.095,3.188,7.095z"/>
</g>
<g id="Слой_37" display="none">
	<path display="inline" fill="#0D8497" d="M11.771,13.971c-0.326,0.216-0.446,0.189-0.612-0.14c0.109-0.505-0.1-0.839-0.552-1.052
		c-0.141-0.067-0.264-0.174-0.408-0.235c-0.304-0.128-0.377-0.347-0.401-0.668c-0.039-0.539,0.248-1.025,0.181-1.567
		C9.927,9.894,9.794,9.7,9.428,9.7c-0.369,0-0.55,0.193-0.549,0.608c0.001,0.329,0.012,0.641,0.142,0.971
		c0.232,0.59,0.009,1.04-0.55,1.365c-0.072,0.042-0.139,0.096-0.214,0.131c-0.465,0.213-0.683,0.556-0.574,1.074
		c-0.051,0.191-0.171,0.289-0.37,0.247c-0.193-0.041-0.198-0.201-0.23-0.363c-0.161-0.822,0.381-1.19,0.966-1.538
		c0.461-0.274,0.459-0.399,0.304-0.932c-0.146-0.503-0.156-1.044,0.034-1.545c0.181-0.479,0.726-0.698,1.325-0.592
		c0.456,0.081,0.834,0.476,0.847,0.963c0.012,0.453,0.09,0.913-0.13,1.359c-0.144,0.294-0.019,0.507,0.271,0.689
		c0.266,0.167,0.519,0.353,0.78,0.528c0.155,0.104,0.206,0.275,0.291,0.425C11.771,13.384,11.771,13.678,11.771,13.971z"/>
	<path display="inline" fill="#0D8497" d="M-3.739,13.771c-0.167,0.338-0.295,0.366-0.616,0.137c0-0.315,0-0.63,0-0.945
		c0.267-0.387,0.666-0.612,1.049-0.854c0.305-0.193,0.38-0.438,0.248-0.781c-0.199-0.517-0.173-1.057-0.024-1.569
		c0.147-0.505,0.699-0.738,1.322-0.638C-1.29,9.197-0.914,9.6-0.905,10.109c0.008,0.442,0.076,0.887-0.14,1.326
		c-0.109,0.223-0.103,0.532,0.253,0.665c0.172,0.064,0.309,0.217,0.476,0.302c0.528,0.268,0.667,0.712,0.606,1.261
		c-0.02,0.175-0.038,0.343-0.25,0.383c-0.208,0.039-0.309-0.083-0.366-0.261c0.114-0.509-0.12-0.83-0.559-1.048
		c-0.178-0.088-0.346-0.195-0.518-0.296c-0.099-0.059-0.226-0.122-0.23-0.241c-0.013-0.379-0.085-0.751,0.067-1.137
		c0.137-0.348,0.094-0.74,0.003-1.109c-0.024-0.1-0.122-0.164-0.225-0.206c-0.412-0.168-0.784,0.056-0.786,0.503
		c-0.002,0.325-0.03,0.641,0.13,0.973c0.248,0.513,0,1.077-0.495,1.36c-0.1,0.057-0.191,0.131-0.295,0.18
		C-3.665,12.967-3.844,13.297-3.739,13.771z"/>
	<path display="inline" fill="#0D8497" d="M0.638,6.812c0.839,0,1.678-0.007,2.517,0.005C3.365,6.82,3.43,6.759,3.413,6.555
		C3.397,6.357,3.405,6.156,3.412,5.957c0.008-0.202,0.1-0.36,0.32-0.348c0.194,0.01,0.286,0.154,0.288,0.348
		c0,0.042-0.002,0.084,0.001,0.126c0.017,0.238-0.104,0.553,0.054,0.691C4.207,6.89,4.513,6.811,4.743,6.812
		c1.479,0.001,2.958,0,4.437,0.001c0.484,0,0.552,0.067,0.553,0.538c0.001,0.304,0.004,0.608-0.002,0.913
		C9.726,8.458,9.659,8.625,9.427,8.622C9.199,8.619,9.128,8.464,9.126,8.261c0-0.01,0-0.021,0-0.031
		C9.119,7.97,9.212,7.618,9.079,7.474c-0.157-0.169-0.513-0.05-0.782-0.051C6.975,7.418,5.653,7.43,4.332,7.413
		C4.059,7.41,3.988,7.49,4.018,7.743c0.021,0.176,0.005,0.356,0.003,0.534c-0.002,0.19-0.078,0.335-0.285,0.346
		c-0.23,0.012-0.304-0.146-0.32-0.344C3.412,8.216,3.415,8.153,3.415,8.09C3.412,7.421,3.412,7.421,2.759,7.421
		c-1.395,0-2.79,0.006-4.185-0.006C-1.663,7.412-1.74,7.47-1.714,7.706c0.022,0.197,0.01,0.398,0.002,0.597
		c-0.008,0.192-0.1,0.322-0.309,0.32C-2.218,8.621-2.305,8.487-2.31,8.315c-0.011-0.388-0.012-0.776-0.002-1.164
		c0.007-0.273,0.195-0.34,0.433-0.34C-1.04,6.814-0.201,6.812,0.638,6.812z"/>
	<path display="inline" fill="#0D8497" d="M4.973,1.744C4.965,2.037,4.993,2.37,4.812,2.702c-0.171,0.313-0.01,0.631,0.304,0.82
		c0.188,0.113,0.356,0.263,0.552,0.359c0.635,0.313,0.742,0.853,0.677,1.48C6.326,5.55,6.254,5.701,6.053,5.708
		C5.832,5.716,5.701,5.552,5.742,5.361c0.138-0.653-0.27-0.945-0.741-1.21C4.946,4.12,4.892,4.087,4.84,4.052
		c-0.211-0.145-0.54-0.178-0.612-0.453C4.136,3.245,4.094,2.83,4.23,2.514c0.165-0.383,0.147-0.748,0.149-1.126
		c0.002-0.464-0.231-0.693-0.662-0.694C3.281,0.693,3.056,0.916,3.065,1.388c0.008,0.377-0.037,0.746,0.141,1.128
		c0.142,0.305,0.07,0.699,0.013,1.052C3.192,3.737,3.053,3.802,2.924,3.87C2.581,4.051,2.257,4.261,1.941,4.486
		C1.76,4.615,1.668,4.759,1.691,4.983c0.015,0.145,0.008,0.294-0.002,0.44C1.678,5.593,1.573,5.699,1.41,5.71
		C1.243,5.721,1.121,5.624,1.108,5.454c-0.044-0.571-0.101-1.148,0.525-1.49c0.22-0.12,0.417-0.281,0.632-0.409
		c0.416-0.248,0.46-0.533,0.299-1.007C2.359,1.945,2.342,1.305,2.606,0.711C2.837,0.19,3.465-0.026,4.095,0.129
		c0.511,0.125,0.861,0.573,0.878,1.126C4.977,1.402,4.973,1.549,4.973,1.744z"/>
	<path display="inline" fill="#0D8497" d="M1.958,13.834c-0.043,0.192-0.155,0.3-0.358,0.264c-0.213-0.037-0.21-0.21-0.243-0.382
		c-0.153-0.791,0.358-1.157,0.925-1.5c0.511-0.309,0.498-0.402,0.34-0.968c-0.137-0.491-0.148-1.024,0.032-1.516
		c0.179-0.492,0.739-0.721,1.345-0.607c0.469,0.088,0.839,0.503,0.838,1.002c-0.002,0.443,0.076,0.888-0.13,1.329
		c-0.108,0.231-0.105,0.534,0.243,0.673c0.162,0.065,0.293,0.204,0.451,0.282c0.564,0.279,0.716,0.745,0.645,1.332
		c-0.021,0.171-0.051,0.318-0.24,0.354c-0.202,0.038-0.316-0.068-0.358-0.261c0.107-0.505-0.111-0.835-0.557-1.053
		c-0.188-0.091-0.362-0.21-0.543-0.314c-0.102-0.058-0.212-0.124-0.233-0.242c-0.058-0.331-0.118-0.701,0.011-0.991
		c0.138-0.312,0.124-0.607,0.127-0.913C4.255,9.893,4.062,9.693,3.685,9.7C3.322,9.706,3.148,9.9,3.151,10.323
		c0.002,0.318,0.003,0.619,0.14,0.94c0.239,0.56,0.003,1.06-0.532,1.373c-0.081,0.047-0.157,0.106-0.241,0.147
		C2.074,12.998,1.85,13.326,1.958,13.834z"/>
	<path display="inline" fill="#0D8497" d="M1.686,13.834c-0.125-0.527,0.135-0.869,0.647-1.092c0.098-0.042,0.185-0.103,0.279-0.152
		c0.619-0.324,0.892-0.844,0.615-1.426c-0.158-0.333-0.159-0.646-0.162-0.976C3.062,9.748,3.263,9.546,3.683,9.54
		c0.436-0.007,0.658,0.201,0.654,0.649c-0.003,0.318,0.013,0.624-0.147,0.948c-0.149,0.301-0.08,0.685-0.013,1.029
		c0.024,0.122,0.151,0.19,0.269,0.251c0.21,0.108,0.411,0.231,0.628,0.326c0.516,0.226,0.767,0.568,0.644,1.093
		C4.374,13.836,3.03,13.835,1.686,13.834z"/>
	<path display="inline" fill="#0D8497" d="M7.411,13.849c-0.125-0.538,0.127-0.894,0.664-1.116c0.087-0.036,0.164-0.092,0.248-0.136
		c0.647-0.338,0.905-0.805,0.636-1.418c-0.15-0.343-0.163-0.667-0.164-1.008C8.793,9.74,9.003,9.539,9.43,9.54
		c0.423,0,0.577,0.202,0.636,0.633c0.078,0.563-0.254,1.067-0.209,1.628c0.027,0.333,0.112,0.56,0.463,0.694
		c0.166,0.063,0.308,0.175,0.471,0.244c0.523,0.221,0.765,0.568,0.639,1.093C10.091,13.837,8.751,13.843,7.411,13.849z"/>
	<path display="inline" fill="#0D8497" d="M-4.011,13.771c-0.121-0.492,0.086-0.833,0.589-1.047c0.12-0.051,0.226-0.127,0.342-0.186
		c0.574-0.293,0.861-0.879,0.573-1.41c-0.186-0.344-0.153-0.671-0.151-1.009c0.003-0.463,0.434-0.696,0.911-0.521
		c0.119,0.043,0.232,0.11,0.26,0.214c0.104,0.382,0.155,0.788-0.004,1.15c-0.176,0.4-0.092,0.786-0.077,1.179
		c0.005,0.124,0.151,0.189,0.266,0.25c0.198,0.105,0.394,0.216,0.6,0.307c0.509,0.226,0.78,0.558,0.648,1.086
		C-1.373,13.779-2.692,13.775-4.011,13.771z"/>
</g>
<g id="Слой_38" display="none">
	<path display="inline" fill="#999999" d="M11.766,0.137c0,0.36,0,0.72,0,1.08c-0.008,0.11-0.022,0.22-0.023,0.331
		c-0.025,1.661-0.051,3.323-0.069,4.984c-0.003,0.26-0.087,0.466-0.271,0.65c-2.667,2.662-5.329,5.328-7.997,7.989
		c-0.152,0.151-0.325,0.296-0.516,0.39c-0.257,0.127-0.54,0.201-0.811,0.297c-0.148,0-0.296,0-0.445,0
		c-0.023-0.01-0.046-0.026-0.07-0.029c-0.471-0.073-0.872-0.288-1.206-0.621c-1.409-1.403-2.816-2.807-4.214-4.22
		c-0.178-0.18-0.323-0.405-0.44-0.632c-0.099-0.192-0.136-0.417-0.2-0.627c0-0.148,0-0.296,0-0.445
		c0.01-0.024,0.024-0.048,0.028-0.073c0.073-0.489,0.302-0.9,0.647-1.245C-1.154,5.297,1.516,2.63,4.182-0.04
		c0.184-0.184,0.388-0.268,0.649-0.271c1.688-0.018,3.376-0.045,5.064-0.07c0.084-0.001,0.168-0.014,0.252-0.022
		c0.349,0,0.699,0,1.048,0C11.467-0.31,11.705-0.181,11.766,0.137z M10.362,0.966c-0.06-0.003-0.097-0.007-0.133-0.007
		C8.541,0.972,6.852,0.984,5.164,1.002C5.091,1.003,5.002,1.047,4.949,1.1C2.334,3.71-0.279,6.322-2.89,8.934
		c-0.326,0.327-0.326,0.801,0.005,1.132c1.402,1.405,2.805,2.808,4.21,4.21c0.336,0.335,0.705,0.329,1.042-0.008
		c2.612-2.612,5.224-5.225,7.838-7.835c0.077-0.077,0.11-0.153,0.111-0.263c0.013-1.672,0.03-3.345,0.046-5.017
		C10.363,1.096,10.362,1.039,10.362,0.966z"/>
	<path display="inline" fill="#999999" d="M8.717,3.231C8.716,3.774,8.275,4.218,7.73,4.226C7.19,4.233,6.725,3.771,6.727,3.228
		C6.729,2.68,7.184,2.232,7.733,2.236C8.278,2.241,8.718,2.686,8.717,3.231z"/>
</g>
<g id="Слой_39" display="none">
	<path display="inline" fill="#999999" d="M-1.212,11.992c-0.132-0.061-0.172-0.093-0.215-0.097C-3.717,11.7-4.28,11.085-4.28,8.774
		c0-2.344-0.002-4.687,0.001-7.031c0.002-1.886,0.856-2.753,2.72-2.755c3.764-0.003,7.528-0.004,11.292,0
		c1.784,0.002,2.673,0.883,2.677,2.655c0.006,2.533,0.006,5.066,0,7.599c-0.004,1.749-0.886,2.633-2.613,2.636
		c-1.704,0.003-3.409-0.019-5.113,0.017c-0.371,0.008-0.792,0.138-1.096,0.347c-1.575,1.08-3.119,2.204-4.799,3.401
		C-1.212,14.323-1.212,13.136-1.212,11.992z M0.275,12.717c0.965-0.686,1.797-1.228,2.57-1.844c0.516-0.411,1.051-0.545,1.696-0.533
		c1.773,0.032,3.548,0.016,5.322,0.008c0.792-0.004,1.019-0.228,1.021-1.008c0.006-2.602,0.006-5.204,0-7.806
		c-0.002-0.773-0.245-1.016-1.02-1.017c-3.856-0.005-7.711-0.004-11.567,0c-0.815,0.001-1.046,0.236-1.047,1.06
		c-0.004,2.578-0.005,5.157,0,7.735c0.002,0.827,0.215,1.029,1.063,1.038c0.631,0.006,1.262,0.001,1.962,0.001
		C0.275,11.146,0.275,11.843,0.275,12.717z"/>
</g>
<g id="Слой_40" display="none">
	<path display="inline" fill="#999999" d="M4.192-0.808c-4.486,0-8.122,3.637-8.122,8.122c0,4.486,3.637,8.122,8.122,8.122
		c4.486,0,8.122-3.636,8.122-8.122C12.315,2.829,8.678-0.808,4.192-0.808z M4.192,13.96c-3.67,0-6.646-2.975-6.646-6.646
		s2.975-6.646,6.646-6.646s6.646,2.975,6.646,6.646S7.862,13.96,4.192,13.96z"/>
	<path display="inline" fill="#999999" d="M4.931,7.009V2.884c0-0.408-0.331-0.738-0.738-0.738S3.454,2.476,3.454,2.884v4.43
		c0,0.002,0.001,0.003,0.001,0.005c0,0.047,0.005,0.093,0.014,0.139c0.004,0.023,0.013,0.043,0.019,0.065
		C3.495,7.549,3.5,7.573,3.51,7.597C3.521,7.623,3.535,7.646,3.548,7.67c0.01,0.018,0.018,0.037,0.03,0.054
		c0.027,0.041,0.058,0.079,0.092,0.113l2.088,2.088c0.288,0.288,0.756,0.288,1.044,0c0.288-0.288,0.288-0.756,0-1.044L4.931,7.009z"
		/>
</g>
</svg>
