<?xml version="1.0" encoding="utf-8"?>
<!-- Generator: Adobe Illustrator 19.0.0, SVG Export Plug-In . SVG Version: 6.00 Build 0)  -->
<svg version="1.1" xmlns="http://www.w3.org/2000/svg" xmlns:xlink="http://www.w3.org/1999/xlink" x="0px" y="0px"
	 viewBox="0 0 14.832 19.696" enable-background="new 0 0 14.832 19.696" xml:space="preserve">
<g id="mail" display="none">
	<path display="inline" d="M15.047,24.529c1.354,1.168,2.709,2.335,4.062,3.504c0.836,0.723,1.668,1.45,2.528,2.198
		c-0.701,0.596-1.38,1.172-2.059,1.75c-1.401,1.191-2.802,2.384-4.204,3.574c-0.103,0.087-0.218,0.159-0.327,0.239
		C15.047,32.038,15.047,28.283,15.047,24.529z"/>
	<path display="inline" d="M33.698,23.684c-3.031,2.598-6.057,5.191-9.103,7.802c-3.042-2.607-6.068-5.2-9.1-7.799
		c0.326-0.332,0.713-0.381,1.119-0.381c1.715,0.001,3.431,0,5.146,0c3.58,0,7.16,0.001,10.739-0.001
		C32.929,23.305,33.346,23.331,33.698,23.684z"/>
	<path display="inline" d="M26.959,30.786c2.242,1.923,4.475,3.838,6.783,5.817c-0.277,0.119-0.497,0.237-0.731,0.304
		c-0.162,0.047-0.345,0.032-0.519,0.032c-5.268,0.001-10.536,0.001-15.804,0.002c-0.429,0-0.846-0.026-1.194-0.379
		c2.248-1.927,4.491-3.849,6.74-5.777c0.795,0.694,1.569,1.37,2.362,2.063C25.391,32.153,26.166,31.478,26.959,30.786z"/>
	<path display="inline" d="M34.111,35.804c-2.206-1.875-4.371-3.714-6.558-5.573c2.189-1.904,4.352-3.786,6.558-5.705
		C34.111,28.297,34.111,32.019,34.111,35.804z"/>
</g>
<g id="phone" display="none">
	<path display="inline" d="M28.69,21.386c0.622,0.246,0.841,0.703,0.838,1.367c-0.017,4.422-0.017,8.844,0,13.265
		c0.003,0.664-0.216,1.121-0.838,1.367c-2.542,0-5.083,0-7.625,0c-0.623-0.246-0.84-0.704-0.838-1.368
		c0.017-4.422,0.017-8.843,0-13.265c-0.003-0.664,0.216-1.121,0.838-1.367C23.607,21.386,26.149,21.386,28.69,21.386z
		 M21.014,23.108c0,4.108,0,8.184,0,12.258c2.593,0,5.161,0,7.727,0c0-4.095,0-8.17,0-12.258
		C26.157,23.108,23.598,23.108,21.014,23.108z M24.881,35.769c-0.287-0.002-0.54,0.253-0.537,0.54
		c0.003,0.283,0.231,0.515,0.515,0.523c0.3,0.009,0.545-0.22,0.552-0.517C25.418,36.028,25.168,35.771,24.881,35.769z
		 M24.877,22.165c-0.352,0-0.704-0.006-1.056,0.005c-0.066,0.002-0.129,0.072-0.194,0.111c0.065,0.05,0.129,0.142,0.195,0.143
		c0.704,0.01,1.408,0.01,2.112,0c0.065-0.001,0.129-0.094,0.193-0.144c-0.065-0.038-0.129-0.108-0.195-0.11
		C25.582,22.16,25.229,22.165,24.877,22.165z"/>
</g>
<g id="search" display="none">
	<path display="inline" d="M32.077,37.722c-0.111,0-0.222,0-0.333,0c-0.292-0.089-0.496-0.296-0.7-0.51
		c-1.24-1.294-2.484-2.584-3.725-3.877c-0.045-0.047-0.076-0.109-0.113-0.164c-0.067,0.051-0.095,0.068-0.123,0.086
		c-1.14,0.766-2.395,1.158-3.769,1.177c-1.454,0.02-2.78-0.393-3.974-1.212c-1.061-0.729-1.856-1.689-2.387-2.865
		c-0.561-1.243-0.727-2.542-0.516-3.883c0.223-1.415,0.843-2.642,1.835-3.675c1.004-1.045,2.219-1.717,3.643-1.997
		c0.287-0.056,0.579-0.089,0.868-0.132c0.3,0,0.599,0,0.899,0c0.153,0.021,0.306,0.043,0.459,0.063
		c1.556,0.209,2.886,0.881,3.985,1.992c1.087,1.098,1.742,2.423,1.936,3.961c0.171,1.355-0.034,2.658-0.649,3.879
		c-0.25,0.497-0.573,0.957-0.907,1.508c0.121,0.102,0.3,0.229,0.45,0.384c1.185,1.224,2.364,2.454,3.546,3.68
		c0.272,0.283,0.385,0.604,0.256,0.987C32.648,37.453,32.39,37.62,32.077,37.722z M23.241,22.468
		c-2.797-0.005-5.079,2.273-5.089,5.079c-0.01,2.799,2.293,5.105,5.089,5.094c2.809-0.011,5.08-2.284,5.08-5.086
		C28.321,24.755,26.042,22.472,23.241,22.468z"/>
</g>
<g id="ru" display="none">
	<text transform="matrix(1 0 0 1 16.8317 33.1127)" display="inline" font-family="'Roboto-Medium'" font-size="12px">RU</text>
</g>
<g id="arrow_main_menu" display="none">
	<polygon display="inline" fill="#E53935" points="14.855,27.708 34.308,27.708 24.582,35.666 	"/>
</g>
<g id="Слой_7" display="none">
	<path display="inline" fill="#FFFFFF" d="M18.347,33.686c0-3.452,0-6.903,0-10.355c0.211-0.564,0.589-0.961,1.162-1.162
		c3.346,0,6.692,0,10.038,0c0.689,0.194,1.23,0.56,1.479,1.268c0,3.416,0,6.833,0,10.249c-0.235,0.592-0.643,0.996-1.268,1.162
		c-3.416,0-6.833,0-10.249,0C18.941,34.642,18.54,34.268,18.347,33.686z M24.692,33.158c1.233,0,2.465,0.006,3.698-0.003
		c0.621-0.004,0.94-0.326,0.943-0.948c0.007-1.462-0.008-2.923,0.009-4.385c0.008-0.69-0.491-0.322-0.746-0.353
		c-0.417-0.051-0.175,0.28-0.15,0.427c0.249,1.444-0.404,2.979-1.678,3.783c-1.381,0.871-2.794,0.868-4.172-0.005
		c-1.267-0.802-1.918-2.343-1.667-3.788c0.026-0.151,0.261-0.477-0.162-0.42c-0.259,0.035-0.747-0.316-0.736,0.367
		c0.022,1.444,0.003,2.888,0.008,4.332c0.002,0.683,0.314,0.988,1.007,0.991C22.261,33.161,23.477,33.158,24.692,33.158z
		 M24.704,26.185c-1.277-0.008-2.327,1.02-2.341,2.292c-0.014,1.278,1.009,2.335,2.279,2.355c1.298,0.021,2.366-1.026,2.368-2.32
		C27.012,27.237,25.977,26.192,24.704,26.185z M28.296,23.859c-1.073,0-1.074,0-1.073,1.065c0,0.193-0.003,0.387,0.002,0.58
		c0.008,0.294,0.161,0.437,0.456,0.47c1.542,0.175,1.821-0.103,1.658-1.649c-0.031-0.293-0.166-0.454-0.462-0.464
		C28.683,23.855,28.489,23.86,28.296,23.859z"/>
</g>
<g id="Слой_7__x28_копия_x29_" display="none">
	<path display="inline" fill="#25798C" d="M18.347,33.686c0-3.452,0-6.903,0-10.355c0.211-0.564,0.589-0.961,1.162-1.162
		c3.346,0,6.692,0,10.038,0c0.689,0.194,1.23,0.56,1.479,1.268c0,3.416,0,6.833,0,10.249c-0.235,0.592-0.643,0.996-1.268,1.162
		c-3.416,0-6.833,0-10.249,0C18.941,34.642,18.54,34.268,18.347,33.686z M24.692,33.158c1.233,0,2.465,0.006,3.698-0.003
		c0.621-0.004,0.94-0.326,0.943-0.948c0.007-1.462-0.008-2.923,0.009-4.385c0.008-0.69-0.491-0.322-0.746-0.353
		c-0.417-0.051-0.175,0.28-0.15,0.427c0.249,1.444-0.404,2.979-1.678,3.783c-1.381,0.871-2.794,0.868-4.172-0.005
		c-1.267-0.802-1.918-2.343-1.667-3.788c0.026-0.151,0.261-0.477-0.162-0.42c-0.259,0.035-0.747-0.316-0.736,0.367
		c0.022,1.444,0.003,2.888,0.008,4.332c0.002,0.683,0.314,0.988,1.007,0.991C22.261,33.161,23.477,33.158,24.692,33.158z
		 M24.704,26.185c-1.277-0.008-2.327,1.02-2.341,2.292c-0.014,1.278,1.009,2.335,2.279,2.355c1.298,0.021,2.366-1.026,2.368-2.32
		C27.012,27.237,25.977,26.192,24.704,26.185z M28.296,23.859c-1.073,0-1.074,0-1.073,1.065c0,0.193-0.003,0.387,0.002,0.58
		c0.008,0.294,0.161,0.437,0.456,0.47c1.542,0.175,1.821-0.103,1.658-1.649c-0.031-0.293-0.166-0.454-0.462-0.464
		C28.683,23.855,28.489,23.86,28.296,23.859z"/>
</g>
<g id="Слой_8" display="none">
	<path display="inline" fill="#FFFFFF" d="M18.371,32.679c1.271-0.011,2.45-0.26,3.561-1.098c-1.14-0.184-2.046-0.588-2.493-1.706
		c0.695,0.023,1.34,0.327,2.05-0.003c-1.381-0.63-2.563-1.398-2.962-2.985c0.39,0.023,0.631,0.34,0.987,0.216
		c-0.059-0.249-0.268-0.353-0.397-0.516c-0.608-0.763-0.724-1.693-0.309-2.459c0.129-0.238,0.22-0.273,0.416-0.056
		c1.346,1.492,3.126,1.832,5.018,1.89c0.36,0.011,0.338-0.17,0.343-0.424c0.027-1.505,1.12-2.592,2.577-2.591
		c0.655,0.001,1.197,0.269,1.596,0.756c0.346,0.42,0.663,0.45,1.077,0.138c0.183-0.138,0.397-0.233,0.61-0.355
		c-0.051,0.486-0.134,0.622-0.915,1.503c0.492,0.052,0.875-0.272,1.373-0.324c-0.21,0.398-0.455,0.707-0.761,0.937
		c-0.344,0.258-0.407,0.566-0.413,0.968c-0.047,3.456-2.325,6.281-5.651,6.959C22.091,33.933,20.174,33.663,18.371,32.679z"/>
</g>
<g id="Слой_8__x28_копия_x29_" display="none">
	<path display="inline" fill="#25798C" d="M18.371,32.679c1.271-0.011,2.45-0.26,3.561-1.098c-1.14-0.184-2.046-0.588-2.493-1.706
		c0.695,0.023,1.34,0.327,2.05-0.003c-1.381-0.63-2.563-1.398-2.962-2.985c0.39,0.023,0.631,0.34,0.987,0.216
		c-0.059-0.249-0.268-0.353-0.397-0.516c-0.608-0.763-0.724-1.693-0.309-2.459c0.129-0.238,0.22-0.273,0.416-0.056
		c1.346,1.492,3.126,1.832,5.018,1.89c0.36,0.011,0.338-0.17,0.343-0.424c0.027-1.505,1.12-2.592,2.577-2.591
		c0.655,0.001,1.197,0.269,1.596,0.756c0.346,0.42,0.663,0.45,1.077,0.138c0.183-0.138,0.397-0.233,0.61-0.355
		c-0.051,0.486-0.134,0.622-0.915,1.503c0.492,0.052,0.875-0.272,1.373-0.324c-0.21,0.398-0.455,0.707-0.761,0.937
		c-0.344,0.258-0.407,0.566-0.413,0.968c-0.047,3.456-2.325,6.281-5.651,6.959C22.091,33.933,20.174,33.663,18.371,32.679z"/>
</g>
<g id="Слой_9__x28_копия_x29_" display="none">
	<path display="inline" fill="#FFFFFF" d="M27.415,26.7h-1.858v-1.219c0-0.458,0.303-0.564,0.517-0.564c0.213,0,1.311,0,1.311,0
		v-2.012l-1.806-0.007c-2.005,0-2.461,1.501-2.461,2.461V26.7h-1.159v2.073h1.159c0,2.661,0,5.867,0,5.867h2.439
		c0,0,0-3.238,0-5.867h1.646L27.415,26.7z"/>
</g>
<g id="Слой_9" display="none">
	<path display="inline" fill="#25798C" d="M27.415,26.7h-1.858v-1.219c0-0.458,0.303-0.564,0.517-0.564c0.213,0,1.311,0,1.311,0
		v-2.012l-1.806-0.007c-2.005,0-2.461,1.501-2.461,2.461V26.7h-1.159v2.073h1.159c0,2.661,0,5.867,0,5.867h2.439
		c0,0,0-3.238,0-5.867h1.646L27.415,26.7z"/>
</g>
<g id="Слой_10" display="none">
	<path display="inline" fill="#FFFFFF" d="M14.948,24.92c0.906-0.047,1.814-0.141,2.718-0.113c0.258,0.008,0.575,0.324,0.746,0.578
		c0.655,0.977,1.248,1.996,1.894,2.98c0.255,0.389,0.589,0.727,1.022,1.252c0.19-0.462,0.371-0.723,0.397-0.998
		c0.081-0.859,0.111-1.724,0.148-2.587c0.032-0.758-0.57-0.671-1.134-0.723c0.647-0.732,1.385-1.061,2.255-1.107
		c0.432-0.023,0.866-0.008,1.298-0.004c0.787,0.006,1.029,0.211,1.054,1.021c0.03,0.961-0.049,1.927,0.024,2.883
		c0.033,0.434,0.232,1.135,0.502,1.213c0.597,0.175,0.644-0.549,0.868-0.938c0.635-1.101,1.23-2.226,1.897-3.307
		c0.147-0.238,0.534-0.478,0.799-0.466c0.784,0.035,1.565,0.18,2.342,0.314c0.473,0.081,0.592,0.393,0.349,0.792
		c-0.524,0.86-1.07,1.706-1.61,2.556c-0.064,0.101-0.145,0.192-0.216,0.288c-1.023,1.378-1.008,1.364,0.195,2.548
		c0.546,0.537,1.07,1.112,1.515,1.733c0.549,0.767,0.137,1.643-0.803,1.731c-0.691,0.065-1.397,0.06-2.089-0.003
		c-0.273-0.025-0.55-0.259-0.78-0.452c-0.607-0.509-1.152-1.097-1.79-1.56c-0.761-0.552-1.665-0.087-1.782,0.855
		c-0.153,1.222-0.158,1.224-1.363,1.177c-1.198-0.047-2.246-0.48-3.164-1.235c-2.128-1.749-3.616-3.962-4.674-6.484
		c-0.194-0.462-0.411-0.913-0.617-1.369C14.948,25.305,14.948,25.112,14.948,24.92z"/>
</g>
<g id="Слой_10__x28_копия_x29_" display="none">
	<path display="inline" fill="#25798C" d="M14.948,24.92c0.906-0.047,1.814-0.141,2.718-0.113c0.258,0.008,0.575,0.324,0.746,0.578
		c0.655,0.977,1.248,1.996,1.894,2.98c0.255,0.389,0.589,0.727,1.022,1.252c0.19-0.462,0.371-0.723,0.397-0.998
		c0.081-0.859,0.111-1.724,0.148-2.587c0.032-0.758-0.57-0.671-1.134-0.723c0.647-0.732,1.385-1.061,2.255-1.107
		c0.432-0.023,0.866-0.008,1.298-0.004c0.787,0.006,1.029,0.211,1.054,1.021c0.03,0.961-0.049,1.927,0.024,2.883
		c0.033,0.434,0.232,1.135,0.502,1.213c0.597,0.175,0.644-0.549,0.868-0.938c0.635-1.101,1.23-2.226,1.897-3.307
		c0.147-0.238,0.534-0.478,0.799-0.466c0.784,0.035,1.565,0.18,2.342,0.314c0.473,0.081,0.592,0.393,0.349,0.792
		c-0.524,0.86-1.07,1.706-1.61,2.556c-0.064,0.101-0.145,0.192-0.216,0.288c-1.023,1.378-1.008,1.364,0.195,2.548
		c0.546,0.537,1.07,1.112,1.515,1.733c0.549,0.767,0.137,1.643-0.803,1.731c-0.691,0.065-1.397,0.06-2.089-0.003
		c-0.273-0.025-0.55-0.259-0.78-0.452c-0.607-0.509-1.152-1.097-1.79-1.56c-0.761-0.552-1.665-0.087-1.782,0.855
		c-0.153,1.222-0.158,1.224-1.363,1.177c-1.198-0.047-2.246-0.48-3.164-1.235c-2.128-1.749-3.616-3.962-4.674-6.484
		c-0.194-0.462-0.411-0.913-0.617-1.369C14.948,25.305,14.948,25.112,14.948,24.92z"/>
</g>
<g id="Слой_11" display="none">
	<g id="Google_plus_2_" display="inline">
		<polygon fill="#FFFFFF" points="31.08,23.584 31.08,21.353 29.961,21.353 29.961,23.584 27.723,23.584 27.723,24.701 
			29.961,24.701 29.961,26.933 31.08,26.933 31.08,24.701 33.318,24.701 33.318,23.584 		"/>
		<path fill="#FFFFFF" d="M24.936,30.522c-1.567-1.14-1.95-1.783-0.454-2.937c0.843-0.65,1.434-1.516,1.434-2.585
			c0-1.165-0.478-2.222-1.376-2.736h1.274l1.084-1.134c0,0-4.087,0-4.851,0c-3.028,0-4.513,1.81-4.513,3.801
			c0,2.035,1.4,3.637,4.134,3.637c-0.424,0.853-0.254,1.641,0.439,2.205c-4.668,0-5.667,2.043-5.667,3.616
			c0,2.04,2.35,3.252,5.169,3.252c3.853,0,5.385-2.037,5.385-3.709C26.992,32.568,26.481,31.676,24.936,30.522z M19.356,24.901
			c-0.226-1.712,0.651-3.023,1.958-2.985c1.307,0.039,2.425,1.445,2.651,3.156c0.226,1.713-0.526,2.815-1.833,2.776
			C20.825,27.81,19.582,26.613,19.356,24.901z M21.62,36.734c-1.948,0-3.355-1.229-3.355-2.707c0-1.448,1.651-2.696,3.598-2.675
			c2.161,0,3.45,1.342,3.45,2.75C25.314,35.58,24.11,36.734,21.62,36.734z"/>
	</g>
</g>
<g id="Слой_11__x28_копия_x29_" display="none">
	<g id="Google_plus_1_" display="inline">
		<polygon fill="#25798C" points="31.08,23.584 31.08,21.353 29.961,21.353 29.961,23.584 27.723,23.584 27.723,24.701 
			29.961,24.701 29.961,26.933 31.08,26.933 31.08,24.701 33.318,24.701 33.318,23.584 		"/>
		<path fill="#25798C" d="M24.936,30.522c-1.567-1.14-1.95-1.783-0.454-2.937c0.843-0.65,1.434-1.516,1.434-2.585
			c0-1.165-0.478-2.222-1.376-2.736h1.274l1.084-1.134c0,0-4.087,0-4.851,0c-3.028,0-4.513,1.81-4.513,3.801
			c0,2.035,1.4,3.637,4.134,3.637c-0.424,0.853-0.254,1.641,0.439,2.205c-4.668,0-5.667,2.043-5.667,3.616
			c0,2.04,2.35,3.252,5.169,3.252c3.853,0,5.385-2.037,5.385-3.709C26.992,32.568,26.481,31.676,24.936,30.522z M19.356,24.901
			c-0.226-1.712,0.651-3.023,1.958-2.985c1.307,0.039,2.425,1.445,2.651,3.156c0.226,1.713-0.526,2.815-1.833,2.776
			C20.825,27.81,19.582,26.613,19.356,24.901z M21.62,36.734c-1.948,0-3.355-1.229-3.355-2.707c0-1.448,1.651-2.696,3.598-2.675
			c2.161,0,3.45,1.342,3.45,2.75C25.314,35.58,24.11,36.734,21.62,36.734z"/>
	</g>
</g>
<g id="arrow_pagination" display="none">
	<path display="inline" d="M20.292,38.05c-0.04-0.021-0.081-0.041-0.121-0.063c-0.28-0.154-0.352-0.505-0.152-0.754
		c0.047-0.058,0.102-0.11,0.155-0.163c2.575-2.576,5.151-5.151,7.727-7.726c0.044-0.044,0.099-0.079,0.179-0.193
		c-0.06-0.035-0.131-0.059-0.178-0.106c-2.589-2.586-5.178-5.173-7.761-7.765c-0.103-0.104-0.197-0.251-0.223-0.391
		c-0.051-0.281,0.133-0.443,0.373-0.548c0.081,0,0.161,0,0.242,0c0.129,0.102,0.269,0.193,0.385,0.309
		c2.695,2.69,5.386,5.383,8.079,8.075c0.049,0.049,0.099,0.097,0.142,0.15c0.156,0.196,0.155,0.442-0.002,0.635
		c-0.047,0.058-0.102,0.11-0.155,0.163c-2.688,2.689-5.376,5.377-8.066,8.064c-0.116,0.116-0.255,0.208-0.383,0.311
		C20.454,38.05,20.373,38.05,20.292,38.05z"/>
</g>
<g id="arrow_для_попапов" display="none">
	<path display="inline" fill="#25798C" d="M21.184,32.245c-0.023-0.012-0.046-0.023-0.068-0.036c-0.159-0.087-0.2-0.287-0.086-0.428
		c0.027-0.033,0.058-0.062,0.088-0.092c1.462-1.462,2.924-2.925,4.387-4.387c0.025-0.025,0.056-0.045,0.102-0.109
		c-0.034-0.02-0.074-0.033-0.101-0.06c-1.47-1.468-2.94-2.937-4.406-4.409c-0.059-0.059-0.112-0.142-0.126-0.222
		c-0.029-0.16,0.076-0.252,0.212-0.311c0.046,0,0.092,0,0.137,0c0.073,0.058,0.153,0.11,0.219,0.175
		c1.53,1.527,3.058,3.056,4.587,4.585c0.028,0.028,0.056,0.055,0.081,0.085c0.089,0.111,0.088,0.251-0.001,0.361
		c-0.027,0.033-0.058,0.062-0.088,0.092c-1.526,1.527-3.052,3.053-4.58,4.579c-0.066,0.066-0.145,0.118-0.218,0.177
		C21.276,32.245,21.23,32.245,21.184,32.245z"/>
</g>
<g id="Blogosphere_promotion">
	<path fill="#FFFFFF" d="M8.22,0.193c0.301,0.09,0.618,0.113,0.915,0.22c1.444,0.519,2.364,1.489,2.724,2.938
		c0.041,0.166,0.117,0.234,0.284,0.295c1.405,0.508,2.232,1.498,2.442,2.919c0.24,1.625-0.673,3.128-2.227,3.772
		c-0.417,0.173-0.856,0.262-1.31,0.262c-2.542,0.002-5.085-0.025-7.627,0.01c-1.8,0.025-3.324-1.48-3.324-3.243
		c0-0.954,0.398-1.755,1.166-2.369c0.114-0.091,0.145-0.169,0.123-0.316C1.175,3.282,2.49,2.012,3.948,2.206
		c0.137,0.018,0.197-0.018,0.264-0.119c0.569-0.862,1.37-1.431,2.38-1.727C6.83,0.291,7.077,0.248,7.32,0.193
		C7.62,0.193,7.92,0.193,8.22,0.193z M7.16,9.814c1.298,0,2.596,0,3.893,0c0.091,0,0.183,0.001,0.273-0.011
		c1.942-0.259,3.071-2.328,2.187-4.018C13.103,5,12.463,4.489,11.562,4.298c-0.284-0.06-0.365-0.149-0.415-0.426
		c-0.023-0.13-0.043-0.26-0.074-0.389c-0.341-1.418-1.651-2.467-3.161-2.497C6.521,0.959,5.47,1.541,4.776,2.708
		C4.554,3.08,4.46,3.125,4.058,3.023C2.938,2.738,1.935,3.716,2.235,4.8c0.096,0.346,0.06,0.442-0.236,0.636
		c-0.89,0.583-1.274,1.525-1.014,2.53C1.267,9.055,2.28,9.851,3.404,9.821C4.655,9.789,5.908,9.814,7.16,9.814z"/>
	<path fill="#FFFFFF" d="M7.046,19.509c-0.095-0.105-0.244-0.104-0.36-0.17c-0.482-0.275-0.73-0.686-0.716-1.214
		c0.015-0.547,0.304-0.953,0.825-1.182c0.13-0.057,0.167-0.122,0.166-0.252c-0.004-1.433-0.003-2.867-0.002-4.3
		c0-0.308,0.146-0.472,0.405-0.469c0.203,0.002,0.361,0.134,0.386,0.33c0.01,0.074,0.008,0.151,0.008,0.226
		c0,1.389,0.003,2.779-0.003,4.168c-0.001,0.155,0.03,0.24,0.196,0.309c0.503,0.21,0.834,0.751,0.803,1.256
		c-0.036,0.582-0.421,1.06-0.985,1.234c-0.058,0.018-0.132,0.006-0.175,0.065C7.412,19.509,7.229,19.509,7.046,19.509z
		 M7.355,18.722c0.325,0.003,0.588-0.242,0.591-0.552c0.004-0.305-0.266-0.572-0.578-0.57c-0.32,0.001-0.588,0.254-0.593,0.559
		C6.769,18.466,7.03,18.719,7.355,18.722z"/>
	<path fill="#FFFFFF" d="M9.155,13.461c0-0.358-0.002-0.716,0-1.074c0.002-0.294,0.144-0.46,0.392-0.464
		c0.252-0.004,0.413,0.164,0.417,0.466c0.007,0.641,0.001,1.281,0.003,1.922c0,0.113-0.002,0.228,0.018,0.338
		c0.051,0.273,0.323,0.507,0.619,0.517c0.384,0.013,0.769,0.002,1.153,0.008c0.105,0.002,0.126-0.059,0.159-0.131
		c0.266-0.578,0.833-0.886,1.485-0.81c0.585,0.068,1.073,0.537,1.175,1.129c0.114,0.656-0.308,1.293-0.989,1.496
		c-0.641,0.19-1.368-0.123-1.645-0.724c-0.064-0.139-0.135-0.179-0.287-0.179c-0.403,0-0.808,0.032-1.21-0.023
		c-0.698-0.095-1.252-0.663-1.281-1.34c-0.016-0.376-0.003-0.754-0.003-1.13C9.158,13.461,9.156,13.461,9.155,13.461z
		 M13.781,15.574c0.002-0.322-0.261-0.577-0.591-0.574c-0.318,0.003-0.584,0.262-0.583,0.568c0.002,0.305,0.272,0.565,0.587,0.565
		C13.519,16.134,13.78,15.885,13.781,15.574z"/>
	<path fill="#FFFFFF" d="M5.564,13.484c0,0.314,0.002,0.629,0,0.943c-0.008,0.905-0.648,1.521-1.591,1.53
		c-0.32,0.003-0.639,0.005-0.959-0.002c-0.114-0.002-0.169,0.031-0.217,0.136c-0.258,0.57-0.843,0.886-1.469,0.805
		c-0.61-0.079-1.085-0.537-1.184-1.141c-0.108-0.655,0.309-1.283,0.983-1.482c0.649-0.191,1.371,0.114,1.647,0.719
		c0.07,0.153,0.153,0.185,0.305,0.181C3.386,15.165,3.693,15.173,4,15.17c0.464-0.003,0.747-0.267,0.752-0.714
		c0.007-0.654,0.001-1.308,0.003-1.962c0-0.087,0.005-0.176,0.022-0.262c0.04-0.206,0.206-0.324,0.421-0.31
		c0.201,0.013,0.355,0.15,0.36,0.354c0.009,0.402,0.003,0.805,0.003,1.207C5.562,13.484,5.563,13.484,5.564,13.484z M1.518,16.123
		c0.327,0.001,0.588-0.242,0.593-0.553c0.005-0.302-0.263-0.569-0.577-0.577c-0.327-0.008-0.598,0.251-0.596,0.57
		C0.939,15.882,1.188,16.121,1.518,16.123z"/>
</g>
<g id="Blogosphere_promotion_1_" display="none">
	<path display="inline" fill="#FFFFFF" d="M19.783,6.418c-0.121,0.329-0.132,0.68-0.188,1.021c-0.198,1.191-0.375,2.386-0.58,3.576
		c-0.147,0.853-0.861,1.458-1.726,1.521c-0.713,0.052-1.425,0.023-2.138,0.027c-1.146,0.007-2.292-0.001-3.438,0.003
		c-0.489,0.002-0.929-0.131-1.301-0.454c-0.076-0.066-0.127-0.072-0.21-0.01c-0.131,0.097-0.286,0.13-0.45,0.129
		c-0.605-0.002-1.21,0.003-1.815-0.002c-0.488-0.004-0.805-0.315-0.806-0.799c-0.003-1.891-0.003-3.782,0-5.673
		C7.13,5.299,7.395,4.984,7.853,4.958c0.667-0.039,1.335-0.033,2.003,0c0.18,0.009,0.331,0.087,0.459,0.209
		c0.048,0.046,0.088,0.088,0.164,0.061c0.685-0.247,1.295-0.596,1.69-1.237c0.199-0.323,0.274-0.682,0.275-1.057
		c0.001-0.669,0-1.337,0.001-2.006c0-0.326,0.098-0.444,0.418-0.511c0.417-0.087,0.83-0.103,1.244,0.026
		c0.749,0.234,1.101,0.788,1.203,1.521c0.101,0.721,0.033,1.449,0.038,2.174c0.001,0.186,0.049,0.232,0.232,0.229
		c0.758-0.011,1.515-0.006,2.273-0.004c0.65,0.002,1.188,0.236,1.585,0.766c0.178,0.238,0.25,0.52,0.345,0.792
		C19.783,6.087,19.783,6.253,19.783,6.418z M14.318,11.771c0-0.001,0-0.003,0-0.003c0.911-0.001,1.821,0.009,2.732-0.005
		c0.698-0.01,1.101-0.349,1.213-1.027c0.238-1.436,0.46-2.875,0.682-4.314c0.119-0.772-0.312-1.266-1.096-1.267
		c-0.904-0.001-1.809,0-2.713,0c-0.448,0-0.576-0.13-0.578-0.579c-0.003-0.777,0.003-1.554-0.015-2.33
		c-0.018-0.736-0.421-1.117-1.121-1.109c-0.143,0.002-0.197,0.037-0.194,0.193c0.01,0.509,0.006,1.019,0.003,1.528
		c-0.002,0.596-0.117,1.161-0.464,1.663c-0.503,0.728-1.212,1.166-2.031,1.447c-0.131,0.045-0.176,0.094-0.176,0.233
		c0.005,1.484,0.002,2.968,0.004,4.451c0.001,0.699,0.42,1.116,1.117,1.118C12.561,11.772,13.44,11.771,14.318,11.771z M9.769,8.604
		c0-0.898-0.003-1.796,0.003-2.693c0.001-0.14-0.032-0.185-0.178-0.182C9.091,5.738,8.588,5.737,8.085,5.729
		C7.947,5.727,7.9,5.757,7.9,5.906c0.005,1.789,0.005,3.578,0.001,5.367c0,0.14,0.035,0.188,0.181,0.185
		c0.503-0.008,1.006-0.008,1.509,0c0.142,0.002,0.183-0.036,0.182-0.18C9.766,10.387,9.769,9.496,9.769,8.604z"/>
	<path display="inline" fill="#FFFFFF" d="M0.217,4.469c0.097-0.258,0.135-0.535,0.268-0.783c0.479-0.89,1.212-1.412,2.228-1.43
		c1.63-0.029,3.261-0.011,4.891-0.011c1.083-0.001,2.165-0.001,3.248,0.001c0.082,0,0.168,0,0.246,0.02
		c0.165,0.043,0.286,0.225,0.274,0.393c-0.013,0.184-0.151,0.336-0.336,0.359c-0.082,0.01-0.165,0.01-0.248,0.01
		c-2.605,0-5.21,0-7.815,0.001c-0.326,0-0.649,0.033-0.945,0.186C1.326,3.579,1.007,4.169,1.008,4.952
		c0.003,2.306,0.001,4.611,0.001,6.917c0,0.35-0.005,0.701,0.001,1.051c0.015,0.904,0.516,1.556,1.371,1.794
		c0.179,0.05,0.365,0.056,0.549,0.057c0.484,0.004,0.968,0.001,1.452,0.002c0.412,0.001,0.538,0.126,0.538,0.532
		c0,0.923,0,1.847,0,2.782c0.082-0.008,0.117-0.073,0.163-0.117c1.041-0.994,2.083-1.987,3.118-2.988
		c0.164-0.159,0.34-0.221,0.563-0.221c2.42,0.004,4.84-0.001,7.26,0.004c0.704,0.001,1.257-0.267,1.645-0.859
		c0.066-0.1,0.109-0.216,0.171-0.319c0.116-0.195,0.319-0.261,0.506-0.172c0.192,0.091,0.28,0.309,0.19,0.517
		c-0.344,0.789-0.93,1.305-1.761,1.536c-0.253,0.07-0.513,0.086-0.776,0.086c-2.356-0.001-4.713,0-7.069-0.004
		c-0.131,0-0.224,0.037-0.318,0.127c-1.239,1.192-2.482,2.381-3.724,3.57c-0.117,0.112-0.239,0.215-0.417,0.186
		c-0.229-0.036-0.342-0.189-0.344-0.473c-0.003-0.516-0.001-1.032-0.001-1.548c0-0.548-0.006-1.096,0.004-1.643
		c0.003-0.165-0.03-0.223-0.213-0.223c-0.502,0.001-1.006,0.044-1.507-0.029c-1.027-0.15-1.867-0.917-2.117-1.922
		c-0.019-0.076-0.007-0.164-0.077-0.223C0.217,10.405,0.217,7.437,0.217,4.469z"/>
</g>
<g id="Blogosphere_promotion_2_" display="none">
	<path display="inline" fill="#FFFFFF" d="M19.827,10.548c-0.062,0.037-0.061,0.106-0.079,0.164c-0.21,0.69-0.817,1.156-1.566,1.199
		c-0.656,0.038-1.315-0.381-1.59-1.024c-0.049-0.114-0.113-0.144-0.229-0.143c-0.551,0.005-1.101,0.005-1.652,0.001
		c-0.246-0.002-0.397-0.119-0.429-0.318c-0.041-0.253,0.141-0.448,0.432-0.45c0.525-0.004,1.051-0.006,1.576,0.002
		c0.129,0.002,0.186-0.031,0.219-0.162c0.2-0.781,0.896-1.31,1.669-1.281c0.829,0.031,1.473,0.603,1.62,1.435
		c0.003,0.016,0.019,0.031,0.028,0.046C19.827,10.193,19.827,10.37,19.827,10.548z M18.133,9.321
		c-0.507,0.002-0.899,0.398-0.897,0.905c0.002,0.505,0.4,0.899,0.905,0.897c0.505-0.002,0.899-0.399,0.897-0.905
		C19.036,9.711,18.64,9.319,18.133,9.321z"/>
	<path display="inline" fill="#FFFFFF" d="M0.371,9.978c0.097-0.305,0.191-0.61,0.416-0.856c0.449-0.489,1.001-0.687,1.644-0.54
		C3.079,8.73,3.506,9.146,3.681,9.796c0.038,0.139,0.092,0.188,0.242,0.184c0.443-0.012,0.886-0.005,1.329-0.004
		c0.063,0,0.127-0.002,0.189,0.008c0.192,0.032,0.328,0.195,0.326,0.385c-0.002,0.186-0.125,0.334-0.316,0.37
		c-0.08,0.015-0.163,0.02-0.245,0.021c-0.462,0.002-0.924,0.004-1.386-0.001c-0.108-0.001-0.167,0.028-0.214,0.134
		c-0.292,0.653-0.944,1.061-1.612,1.019c-0.746-0.046-1.316-0.496-1.55-1.218c-0.017-0.051-0.015-0.115-0.073-0.147
		C0.371,10.358,0.371,10.168,0.371,9.978z M2.059,11.123c0.505,0.001,0.902-0.395,0.903-0.9c0.001-0.507-0.393-0.901-0.901-0.902
		C1.553,9.32,1.159,9.713,1.159,10.22C1.159,10.727,1.553,11.123,2.059,11.123z"/>
	<path display="inline" fill="#FFFFFF" d="M12.65,10.697c0,0.348-0.002,0.697,0.001,1.045c0.003,0.369-0.1,0.699-0.355,0.972
		c-0.063,0.068-0.072,0.14-0.071,0.225c0.002,0.469,0.006,0.937-0.002,1.406c-0.002,0.12,0.042,0.178,0.143,0.231
		c0.959,0.504,1.866,1.09,2.718,1.762c0.411,0.324,0.622,0.737,0.624,1.259c0.001,0.437,0.001,0.874,0,1.311
		c0,0.171-0.037,0.327-0.202,0.422c-0.265,0.153-0.572-0.034-0.579-0.363c-0.008-0.437-0.01-0.874,0-1.311
		c0.007-0.304-0.103-0.528-0.344-0.717c-0.86-0.672-1.773-1.26-2.746-1.753c-0.285-0.144-0.409-0.345-0.403-0.661
		c0.011-0.608,0.005-1.216,0.002-1.824c-0.001-0.176,0.049-0.322,0.198-0.428c0.162-0.115,0.239-0.283,0.237-0.474
		c-0.006-0.778,0.038-1.558-0.024-2.335c-0.051-0.654-0.666-1.257-1.32-1.314c-0.367-0.032-0.735-0.056-1.092,0.05
		C8.75,8.405,8.344,8.966,8.333,9.729c-0.01,0.671-0.001,1.343-0.003,2.014c0,0.221,0.066,0.409,0.252,0.544
		c0.141,0.102,0.183,0.247,0.183,0.416c-0.003,0.627-0.004,1.254,0,1.881c0.002,0.269-0.107,0.449-0.351,0.574
		c-0.993,0.508-1.932,1.102-2.81,1.794c-0.228,0.18-0.335,0.397-0.33,0.686c0.008,0.443,0.002,0.887,0.001,1.33
		c0,0.175-0.073,0.313-0.234,0.38c-0.141,0.059-0.285,0.044-0.409-0.062C4.54,19.205,4.5,19.1,4.5,18.983
		c0-0.506-0.003-1.013,0.008-1.519c0.01-0.469,0.239-0.827,0.598-1.113c0.848-0.677,1.758-1.258,2.716-1.765
		c0.118-0.063,0.159-0.13,0.157-0.261c-0.008-0.462-0.005-0.925-0.002-1.387c0.001-0.094-0.019-0.168-0.085-0.239
		c-0.231-0.247-0.338-0.548-0.34-0.882c-0.004-0.76-0.013-1.52,0.004-2.28c0.026-1.144,1.028-2.141,2.175-2.183
		c0.558-0.02,1.118-0.042,1.632,0.235c0.793,0.426,1.235,1.084,1.28,1.989c0.018,0.373,0.003,0.747,0.003,1.121L12.65,10.697z"/>
	<path display="inline" fill="#FFFFFF" d="M11.787,2.187c0,0.761-0.521,1.437-1.267,1.626c-0.126,0.032-0.158,0.083-0.157,0.204
		c0.006,0.532,0.003,1.064,0.002,1.596c0,0.169-0.055,0.313-0.212,0.397c-0.134,0.071-0.267,0.063-0.395-0.021
		C9.599,5.885,9.577,5.724,9.576,5.555C9.575,5.036,9.57,4.517,9.579,3.997c0.002-0.145-0.034-0.221-0.176-0.283
		C8.706,3.409,8.337,2.713,8.432,1.913c0.077-0.645,0.667-1.256,1.34-1.388C10.806,0.323,11.786,1.131,11.787,2.187z M10.096,1.277
		C9.603,1.278,9.19,1.692,9.19,2.186c0.001,0.491,0.421,0.909,0.911,0.907c0.492-0.002,0.909-0.422,0.906-0.911
		C11.005,1.688,10.59,1.275,10.096,1.277z"/>
	<path display="inline" fill="#FFFFFF" d="M4.463,6.224c-0.923-0.015-1.652-0.665-1.73-1.49C2.648,3.845,3.209,3.048,4.07,2.886
		c0.692-0.13,1.285,0.087,1.703,0.662c0.398,0.547,0.439,1.147,0.136,1.755c-0.064,0.129-0.045,0.194,0.05,0.287
		c0.359,0.348,0.711,0.704,1.063,1.06c0.117,0.118,0.185,0.256,0.123,0.43C7.089,7.232,6.977,7.315,6.823,7.338
		c-0.159,0.024-0.277-0.06-0.383-0.166C6.095,6.826,5.746,6.485,5.408,6.135C5.31,6.034,5.234,6.002,5.101,6.074
		C4.886,6.189,4.649,6.232,4.463,6.224z M5.317,4.535c-0.001-0.504-0.4-0.903-0.902-0.903c-0.508,0-0.92,0.415-0.911,0.918
		C3.513,5.042,3.933,5.455,4.421,5.45C4.913,5.445,5.318,5.032,5.317,4.535z"/>
	<path display="inline" fill="#FFFFFF" d="M15.73,6.224c-0.229,0.007-0.511-0.058-0.765-0.213c-0.096-0.059-0.149-0.044-0.224,0.033
		c-0.35,0.358-0.706,0.709-1.059,1.063c-0.102,0.102-0.215,0.182-0.367,0.165c-0.291-0.033-0.439-0.355-0.276-0.6
		c0.042-0.062,0.096-0.118,0.149-0.171c0.339-0.341,0.678-0.683,1.021-1.02c0.071-0.07,0.095-0.126,0.052-0.229
		c-0.431-1.014,0.047-2.048,1.103-2.336c0.644-0.175,1.224-0.002,1.669,0.499c0.477,0.537,0.576,1.163,0.282,1.819
		C17.033,5.864,16.472,6.211,15.73,6.224z M14.881,4.536c-0.001,0.497,0.406,0.911,0.898,0.914c0.488,0.003,0.907-0.41,0.915-0.902
		c0.008-0.503-0.405-0.918-0.913-0.916C15.278,3.633,14.881,4.031,14.881,4.536z"/>
</g>
<g id="ppc" display="none">
	<path display="inline" fill="#FFFFFF" d="M11.543,0.284c0.963,0.201,1.283,0.919,1.43,1.777c0.013,0.075,0.023,0.151,0.036,0.238
		c0.089,0,0.166,0,0.243,0c1.439,0,2.878,0,4.317,0.001c0.071,0,0.143-0.001,0.212,0.013c0.177,0.037,0.285,0.176,0.269,0.347
		c-0.017,0.177-0.119,0.281-0.296,0.303C17.683,2.97,17.611,2.97,17.54,2.97c-5.033,0-10.066,0-15.099,0
		c-0.077,0-0.156,0-0.231-0.013C2.051,2.93,1.958,2.83,1.941,2.671C1.922,2.502,2,2.381,2.159,2.328
		c0.077-0.026,0.165-0.028,0.248-0.028c1.226-0.002,2.452-0.001,3.678-0.001c0.07,0,0.14,0,0.221,0
		c0.132-0.929,0.385-1.764,1.442-2.015C9.013,0.284,10.278,0.284,11.543,0.284z M6.951,2.289c1.829,0,3.593,0,5.405,0
		c-0.081-0.271-0.142-0.526-0.234-0.769c-0.139-0.369-0.415-0.566-0.815-0.567c-1.102-0.002-2.205-0.002-3.307,0
		C7.643,0.954,7.371,1.116,7.231,1.441C7.117,1.703,7.049,1.985,6.951,2.289z"/>
	<path display="inline" fill="#FFFFFF" d="M2.987,3.654c4.68,0,9.336,0,14.003,0c0,0.165,0.006,0.324-0.001,0.483
		c-0.086,2.095-0.173,4.189-0.262,6.284c-0.114,2.694-0.227,5.388-0.345,8.081c-0.018,0.411-0.165,0.777-0.434,1.093
		c-0.287,0.336-0.661,0.481-1.089,0.508c-0.174,0.011-0.348,0.005-0.522,0.005c-3.006,0-6.012-0.001-9.019,0.001
		c-0.514,0-0.968-0.13-1.307-0.545c-0.244-0.299-0.385-0.644-0.404-1.026c-0.059-1.205-0.107-2.41-0.158-3.615
		c-0.086-2.03-0.171-4.06-0.256-6.09c-0.07-1.663-0.138-3.325-0.207-4.988C2.985,3.787,2.987,3.729,2.987,3.654z M3.688,4.322
		c0,0.093-0.003,0.164,0,0.235c0.079,1.908,0.158,3.816,0.238,5.723c0.112,2.688,0.226,5.375,0.338,8.063
		c0.024,0.57,0.283,1.105,1.13,1.101c3.064-0.015,6.129-0.006,9.194-0.007c0.109,0,0.219-0.007,0.328-0.02
		c0.331-0.038,0.568-0.218,0.687-0.521c0.069-0.176,0.11-0.373,0.118-0.562c0.088-1.972,0.165-3.944,0.247-5.917
		c0.11-2.623,0.222-5.246,0.332-7.869c0.003-0.074,0-0.149,0-0.226C12.086,4.322,7.895,4.322,3.688,4.322z"/>
	<path display="inline" fill="#FFFFFF" d="M9.99,15.07c-1.258,0-2.516,0-3.773,0c-0.039,0-0.077,0-0.116,0
		c-0.306-0.001-0.472-0.12-0.472-0.338c-0.001-0.218,0.163-0.338,0.47-0.338c2.599-0.001,5.199-0.001,7.798,0
		c0.07,0,0.142,0.005,0.211,0.02c0.16,0.036,0.241,0.153,0.248,0.306c0.006,0.146-0.065,0.267-0.21,0.314
		c-0.084,0.027-0.177,0.034-0.266,0.034C12.583,15.071,11.286,15.07,9.99,15.07z"/>
	<path display="inline" fill="#FFFFFF" d="M9.984,18.431c-1.284,0-2.567,0-3.851,0c-0.337,0-0.509-0.118-0.504-0.345
		c0.004-0.223,0.169-0.334,0.496-0.334c2.58,0,5.16,0,7.74,0c0.327,0,0.491,0.112,0.495,0.335c0.004,0.227-0.168,0.344-0.505,0.344
		C12.564,18.431,11.274,18.431,9.984,18.431z"/>
	<path display="inline" fill="#FFFFFF" d="M9.973,16.744c-1.277,0-2.554,0-3.831,0c-0.058,0-0.116,0.002-0.174-0.002
		c-0.201-0.014-0.338-0.147-0.341-0.327c-0.002-0.177,0.138-0.319,0.333-0.335c0.058-0.005,0.116-0.002,0.174-0.002
		c2.573,0,5.147,0,7.72,0c0.019,0,0.039,0,0.058,0c0.288,0.002,0.451,0.126,0.447,0.339c-0.005,0.209-0.16,0.326-0.439,0.327
		C12.605,16.744,11.289,16.744,9.973,16.744z"/>
</g>
<g id="ppc_1_" display="none">
	<path display="inline" fill="#FFFFFF" d="M2.196,2.833c0.067-0.149,0.115-0.312,0.206-0.444c0.225-0.327,0.554-0.468,0.947-0.468
		c5.725,0,11.45-0.001,17.175,0.001c0.686,0,1.149,0.464,1.149,1.148c0.002,3.969,0.002,7.938,0,11.907
		c0,0.679-0.451,1.127-1.131,1.144c-0.032,0.001-0.063,0-0.095,0c-5.674,0-11.349-0.002-17.023,0.003
		c-0.502,0-0.888-0.169-1.12-0.629c-0.042-0.083-0.072-0.172-0.108-0.259C2.196,11.102,2.196,6.968,2.196,2.833z M3.025,13.659
		c5.955,0,11.879,0,17.82,0c0-0.087,0-0.162,0-0.237c0-3.41,0-6.821,0-10.231c0-0.384-0.056-0.44-0.437-0.44
		c-5.648,0-11.296,0-16.945,0c-0.382,0-0.438,0.056-0.438,0.439c0,3.41,0,6.821,0,10.231C3.025,13.497,3.025,13.572,3.025,13.659z
		 M11.931,15.18c0.254,0.003,0.487-0.222,0.496-0.476c0.008-0.262-0.222-0.498-0.487-0.5c-0.259-0.002-0.487,0.216-0.496,0.473
		C11.435,14.936,11.67,15.177,11.931,15.18z"/>
	<path display="inline" fill="#FFFFFF" d="M11.932,18.431c-1.217,0-2.434,0-3.651,0c-0.256,0-0.268-0.013-0.269-0.271
		c0-0.12,0.007-0.241-0.002-0.361c-0.012-0.166,0.061-0.226,0.222-0.225c0.608,0.004,1.217,0.002,1.825,0.001
		c0.277,0,0.289-0.014,0.29-0.289c0.001-0.441,0.001-0.441,0.449-0.441c0.818,0,1.635,0,2.453,0c0.241,0,0.269,0.031,0.272,0.276
		c0.005,0.481-0.061,0.455,0.468,0.454c0.545-0.001,1.09,0.003,1.635-0.002c0.168-0.002,0.249,0.055,0.235,0.232
		c-0.01,0.126-0.001,0.253-0.002,0.38c-0.002,0.225-0.022,0.245-0.257,0.245c-0.849,0.001-1.699,0-2.548,0
		C12.68,18.431,12.306,18.431,11.932,18.431z"/>
	<path display="inline" fill="#FFFFFF" d="M15.261,9.643c-0.044,0.287-0.074,0.545-0.123,0.799c-0.091,0.473-0.478,0.621-0.86,0.324
		c-0.385-0.3-0.761-0.611-1.134-0.925c-0.164-0.138-0.338-0.204-0.554-0.201c-0.735,0.008-1.47,0.004-2.205,0.003
		c-0.465-0.001-0.72-0.25-0.721-0.715c-0.003-1.229-0.003-2.459,0-3.688c0.001-0.474,0.256-0.724,0.733-0.725
		c1.87-0.001,3.739-0.002,5.609,0c0.479,0,0.725,0.249,0.726,0.728c0.001,1.223,0.001,2.446,0,3.669c0,0.489-0.245,0.729-0.74,0.73
		C15.75,9.644,15.511,9.643,15.261,9.643z M10.389,8.922c0.757,0,1.492,0.004,2.227-0.002c0.358-0.003,0.669,0.104,0.943,0.336
		c0.294,0.248,0.596,0.486,0.916,0.745c0.027-0.17,0.048-0.311,0.073-0.452c0.074-0.415,0.325-0.624,0.75-0.627
		c0.232-0.002,0.464,0,0.696,0c0-1.242,0-2.46,0-3.676c-1.876,0-3.737,0-5.605,0C10.389,6.472,10.389,7.686,10.389,8.922z"/>
	<path display="inline" fill="#FFFFFF" d="M7.87,6.685c0,1.24,0,2.454,0,3.688c0.23,0,0.45-0.001,0.67,0
		c0.469,0.002,0.71,0.207,0.791,0.672c0.022,0.124,0.038,0.25,0.061,0.398c0.058-0.042,0.104-0.071,0.146-0.105
		c0.217-0.175,0.448-0.336,0.645-0.532c0.414-0.41,0.921-0.473,1.461-0.432c0.235,0.018,0.378,0.171,0.369,0.377
		c-0.009,0.199-0.161,0.362-0.383,0.333c-0.501-0.065-0.876,0.138-1.224,0.467c-0.239,0.226-0.507,0.421-0.763,0.628
		c-0.434,0.351-0.824,0.21-0.919-0.336c-0.043-0.242-0.073-0.487-0.113-0.753c-0.257,0-0.509,0.001-0.76,0
		c-0.458-0.003-0.708-0.248-0.709-0.702c-0.001-1.236-0.001-2.472,0-3.708c0-0.458,0.243-0.708,0.7-0.713
		c0.31-0.003,0.621-0.003,0.93,0.02c0.19,0.015,0.297,0.176,0.286,0.362C9.045,6.527,8.924,6.656,8.743,6.677
		C8.668,6.686,8.591,6.684,8.516,6.684C8.307,6.685,8.099,6.685,7.87,6.685z"/>
</g>
<g id="ppc_2_" display="none">
	<path display="inline" fill="#FFFFFF" d="M4.035,11.422c0.053-0.028,0.048-0.084,0.063-0.129c0.183-0.56,0.562-0.911,1.142-1.008
		c0.587-0.098,1.063,0.116,1.414,0.598c0.084,0.115,0.15,0.241,0.182,0.381c0.022,0.097,0.072,0.123,0.169,0.122
		c0.416-0.006,0.831-0.006,1.247,0c0.254,0.004,0.405,0.213,0.315,0.428c-0.06,0.143-0.179,0.196-0.33,0.195
		c-0.405-0.002-0.811,0.004-1.216-0.003c-0.109-0.002-0.157,0.03-0.189,0.136c-0.181,0.587-0.734,0.988-1.35,0.99
		c-0.622,0.002-1.182-0.404-1.369-0.989c-0.019-0.059-0.017-0.131-0.077-0.173C4.035,11.788,4.035,11.605,4.035,11.422z
		 M4.667,11.689c-0.004,0.449,0.356,0.814,0.804,0.813c0.439,0,0.801-0.358,0.809-0.799c0.008-0.439-0.365-0.814-0.809-0.813
		C5.028,10.89,4.671,11.245,4.667,11.689z"/>
	<path display="inline" fill="#FFFFFF" d="M12.038,3.906c0.163,0.073,0.343,0.097,0.498,0.193c0.529,0.329,0.78,0.807,0.709,1.421
		c-0.067,0.584-0.407,0.981-0.962,1.177c-0.118,0.042-0.151,0.09-0.149,0.21c0.007,0.415,0.005,0.831-0.001,1.247
		c-0.003,0.17-0.105,0.275-0.264,0.303c-0.127,0.022-0.266-0.051-0.325-0.172c-0.035-0.071-0.031-0.148-0.031-0.223
		c-0.001-0.395-0.004-0.791,0.002-1.186c0.001-0.097-0.028-0.14-0.122-0.17c-0.612-0.194-1.011-0.743-1.003-1.369
		c0.008-0.632,0.413-1.175,1.017-1.364c0.05-0.016,0.112-0.011,0.144-0.067C11.714,3.906,11.876,3.906,12.038,3.906z M12.63,5.363
		c0.018-0.431-0.325-0.803-0.76-0.823c-0.462-0.022-0.831,0.317-0.849,0.78c-0.018,0.439,0.34,0.816,0.791,0.831
		C12.241,6.165,12.612,5.809,12.63,5.363z"/>
	<path display="inline" fill="#FFFFFF" d="M11.56,12.975c0.203,0,0.406,0.002,0.608-0.001c0.29-0.004,0.502-0.208,0.505-0.48
		c0.003-0.269-0.209-0.482-0.497-0.49c-0.223-0.006-0.446,0-0.669-0.002c-0.654-0.006-1.13-0.431-1.16-1.079
		c-0.026-0.577,0.395-1.08,1.018-1.136c0.131-0.012,0.161-0.055,0.151-0.173c-0.009-0.106-0.005-0.213,0.004-0.319
		c0.014-0.167,0.141-0.278,0.305-0.278c0.164,0,0.292,0.111,0.305,0.277c0.01,0.126,0.009,0.253,0.005,0.38
		c-0.003,0.08,0.026,0.107,0.105,0.104c0.147-0.005,0.294-0.002,0.441-0.001c0.232,0.002,0.374,0.116,0.38,0.305
		c0.006,0.189-0.143,0.324-0.376,0.327c-0.39,0.004-0.781,0-1.171,0.002c-0.272,0.001-0.448,0.122-0.512,0.343
		c-0.087,0.303,0.116,0.594,0.431,0.613c0.293,0.017,0.587-0.009,0.881,0.02c0.477,0.047,0.908,0.443,0.973,0.906
		c0.078,0.554-0.201,1.049-0.692,1.233c-0.115,0.043-0.234,0.067-0.355,0.075c-0.089,0.006-0.108,0.045-0.105,0.125
		c0.005,0.116,0.005,0.233-0.002,0.35c-0.011,0.179-0.133,0.296-0.302,0.298c-0.175,0.003-0.303-0.116-0.314-0.302
		c-0.007-0.111-0.008-0.223-0.002-0.334c0.005-0.096-0.021-0.137-0.126-0.131c-0.152,0.009-0.304,0.005-0.456,0.002
		c-0.229-0.005-0.365-0.127-0.365-0.319c0.001-0.195,0.136-0.312,0.368-0.314C11.144,12.973,11.352,12.975,11.56,12.975z"/>
	<path display="inline" fill="#FFFFFF" d="M7.259,14.762c0.253-0.015,0.497,0.024,0.717,0.15c0.099,0.057,0.155,0.039,0.229-0.038
		c0.282-0.291,0.571-0.576,0.859-0.861c0.094-0.093,0.203-0.151,0.342-0.104c0.115,0.039,0.187,0.117,0.214,0.235
		c0.031,0.135-0.036,0.234-0.125,0.323c-0.286,0.287-0.571,0.576-0.862,0.859c-0.07,0.068-0.077,0.119-0.033,0.206
		c0.489,0.959-0.191,2.083-1.264,2.094c-0.692,0.007-1.339-0.563-1.422-1.216c-0.106-0.828,0.44-1.486,1.147-1.631
		C7.127,14.766,7.194,14.767,7.259,14.762z M7.334,16.992c0.439,0,0.805-0.363,0.806-0.8c0.001-0.436-0.362-0.803-0.799-0.809
		c-0.442-0.006-0.813,0.365-0.811,0.81C6.532,16.633,6.893,16.992,7.334,16.992z"/>
	<path display="inline" fill="#FFFFFF" d="M8.763,7.211C8.756,7.484,8.706,7.684,8.6,7.867C8.553,7.948,8.564,7.995,8.631,8.059
		c0.291,0.283,0.575,0.572,0.862,0.859c0.107,0.107,0.175,0.225,0.114,0.381C9.523,9.514,9.263,9.566,9.082,9.395
		C8.875,9.2,8.679,8.995,8.478,8.794C8.367,8.683,8.272,8.543,8.14,8.469C7.989,8.384,7.863,8.554,7.718,8.591
		C6.806,8.826,5.907,8.163,5.9,7.217C5.894,6.337,6.643,5.704,7.467,5.78c0.597,0.054,1.129,0.513,1.26,1.087
		C8.757,7.001,8.757,7.137,8.763,7.211z M6.529,7.198C6.527,7.638,6.883,8.002,7.324,8.01c0.434,0.007,0.808-0.356,0.815-0.792
		C8.146,6.773,7.78,6.401,7.335,6.4C6.894,6.4,6.532,6.758,6.529,7.198z"/>
	<path display="inline" fill="#FFFFFF" d="M16.391,8.632c-0.257,0.013-0.505-0.028-0.73-0.158c-0.086-0.05-0.137-0.037-0.205,0.033
		c-0.283,0.29-0.572,0.574-0.86,0.86c-0.089,0.088-0.188,0.155-0.324,0.125c-0.228-0.05-0.331-0.293-0.192-0.482
		c0.077-0.105,0.177-0.194,0.27-0.287c0.221-0.223,0.442-0.446,0.667-0.666c0.058-0.056,0.078-0.096,0.036-0.179
		c-0.435-0.859-0.001-1.819,0.932-2.071c0.793-0.215,1.652,0.392,1.752,1.207C17.84,7.848,17.202,8.607,16.391,8.632z M17.122,7.205
		c0-0.442-0.36-0.803-0.801-0.804c-0.441-0.002-0.806,0.359-0.809,0.798c-0.003,0.445,0.368,0.817,0.81,0.814
		C16.761,8.01,17.122,7.646,17.122,7.205z"/>
	<path display="inline" fill="#FFFFFF" d="M14.88,16.117c0.015-0.217,0.07-0.422,0.179-0.608c0.044-0.075,0.022-0.114-0.032-0.167
		c-0.299-0.296-0.597-0.594-0.892-0.893c-0.089-0.091-0.142-0.196-0.099-0.33c0.04-0.122,0.123-0.196,0.246-0.221
		c0.134-0.027,0.234,0.042,0.323,0.131c0.283,0.283,0.568,0.565,0.848,0.851c0.065,0.067,0.113,0.086,0.205,0.039
		c0.897-0.466,1.964,0.108,2.079,1.108c0.088,0.764-0.431,1.437-1.148,1.569c-0.79,0.145-1.526-0.358-1.679-1.131
		C14.887,16.351,14.889,16.233,14.88,16.117z M17.121,16.197c0.003-0.442-0.351-0.806-0.793-0.814
		c-0.435-0.009-0.808,0.353-0.817,0.792c-0.009,0.446,0.355,0.818,0.802,0.82C16.757,16.995,17.118,16.639,17.121,16.197z"/>
	<path display="inline" fill="#FFFFFF" d="M16.04,11.384c0.203,0,0.406-0.006,0.608,0.002c0.099,0.004,0.139-0.031,0.168-0.124
		c0.218-0.686,0.872-1.091,1.583-0.984c0.688,0.103,1.219,0.723,1.216,1.42c-0.003,0.695-0.524,1.306-1.206,1.413
		c-0.707,0.111-1.378-0.296-1.59-0.973c-0.03-0.096-0.067-0.136-0.176-0.134c-0.421,0.007-0.841,0.006-1.262,0.001
		c-0.175-0.002-0.28-0.094-0.311-0.253c-0.029-0.147,0.033-0.254,0.156-0.331c0.064-0.04,0.136-0.037,0.206-0.037
		C15.635,11.383,15.837,11.384,16.04,11.384z M18.984,11.704c0.004-0.449-0.356-0.814-0.804-0.814c-0.439,0-0.801,0.358-0.809,0.799
		c-0.008,0.439,0.365,0.814,0.809,0.814C18.622,12.502,18.98,12.147,18.984,11.704z"/>
	<path display="inline" fill="#FFFFFF" d="M12.138,15.912c0,0.203,0.006,0.406-0.003,0.608c-0.004,0.1,0.033,0.138,0.125,0.167
		c0.685,0.217,1.09,0.874,0.983,1.583c-0.104,0.688-0.725,1.219-1.421,1.215c-0.695-0.004-1.305-0.526-1.412-1.207
		c-0.111-0.708,0.296-1.377,0.974-1.589c0.097-0.031,0.134-0.069,0.133-0.177c-0.007-0.421-0.006-0.841,0-1.262
		c0.002-0.175,0.094-0.279,0.254-0.311c0.147-0.029,0.254,0.034,0.33,0.157c0.039,0.064,0.036,0.136,0.037,0.207
		C12.139,15.507,12.138,15.709,12.138,15.912z M11.825,18.855c0.444,0,0.799-0.351,0.806-0.796c0.007-0.443-0.362-0.817-0.806-0.817
		c-0.437,0-0.8,0.36-0.807,0.801C11.012,18.488,11.376,18.855,11.825,18.855z"/>
</g>
<g id="ppc_3_" display="none">
	<path display="inline" fill="#FFFFFF" d="M17.62,3.971c0.436,0.153,0.595,0.462,0.594,0.921c-0.011,2.929-0.006,5.859-0.006,8.788
		c0,0.077,0,0.153,0,0.243c-0.247,0-0.481,0-0.734,0c0-3.064,0-6.125,0-9.201c-2.725,0-5.431,0-8.165,0c0,0.075,0,0.15,0,0.224
		c0,1.59,0,3.181,0,4.771c0,0.615-0.281,0.894-0.898,0.895c-1.107,0-2.215,0-3.322,0c-0.069,0-0.139,0-0.219,0
		c0,3.653,0,7.286,0,10.938c2.111,0,4.213,0,6.331,0c0,0.251,0,0.485,0,0.736c-0.069,0.003-0.138,0.009-0.206,0.009
		c-2.002,0-4.005,0.001-6.007,0c-0.594,0-0.875-0.281-0.875-0.876c-0.001-3.554,0-7.108-0.001-10.662
		c0-0.427,0.124-0.805,0.383-1.147c1.283-1.693,2.562-3.388,3.837-5.087C8.537,4.25,8.809,4.086,9.12,3.971
		C11.953,3.971,14.786,3.971,17.62,3.971z M5.238,9.857c1.136,0,2.226,0,3.317,0c0-1.459,0-2.902,0-4.396
		C7.435,6.945,6.345,8.39,5.238,9.857z"/>
	<path display="inline" fill="#FFFFFF" d="M18.271,20.618c0.397,0.425,0.793,0.839,1.176,1.264c0.529,0.587,0.369,1.44-0.322,1.765
		c-0.434,0.204-0.918,0.106-1.284-0.275c-0.37-0.385-0.736-0.775-1.092-1.173c-0.104-0.116-0.185-0.128-0.325-0.066
		c-2.463,1.079-5.177-0.127-6.038-2.677c-0.68-2.015,0.302-4.365,2.214-5.3c2.335-1.141,5.025-0.184,6.066,2.193
		c0.605,1.382,0.483,2.746-0.271,4.053c-0.032,0.056-0.068,0.109-0.102,0.164C18.286,20.576,18.283,20.588,18.271,20.618z
		 M17.171,20.817c1.78-1.86,1.206-4.346-0.151-5.51c-1.337-1.147-3.389-1.193-4.761-0.052c-1.42,1.181-1.765,3.196-0.81,4.761
		c0.478,0.783,1.156,1.328,2.03,1.603c1.243,0.391,2.384,0.12,3.436-0.611c0.09,0.202,0.135,0.413,0.258,0.556
		c0.39,0.453,0.807,0.885,1.221,1.317c0.147,0.153,0.391,0.151,0.524,0.021c0.137-0.135,0.135-0.35-0.019-0.52
		c-0.233-0.258-0.472-0.511-0.71-0.764C17.897,21.305,17.638,20.949,17.171,20.817z"/>
	<path display="inline" fill="#FFFFFF" d="M11.418,18.114c-0.016-1.737,1.404-3.171,3.168-3.199c1.74-0.027,3.191,1.415,3.202,3.181
		c0.011,1.749-1.401,3.174-3.165,3.193C12.87,21.307,11.434,19.885,11.418,18.114z M12.161,18.085
		c-0.015,1.346,1.07,2.451,2.419,2.463c1.351,0.012,2.448-1.061,2.467-2.415c0.019-1.354-1.064-2.457-2.429-2.475
		C13.281,15.641,12.176,16.732,12.161,18.085z"/>
</g>
<g id="ppc_4_" display="none">
	<path display="inline" fill="#FFFFFF" d="M4.028,4.285C4.176,4.062,4.393,4.02,4.646,4.02c6.213,0.004,12.426,0.003,18.639,0.004
		c0.09,0,0.181,0.003,0.269,0.02c0.204,0.039,0.337,0.199,0.334,0.39c-0.003,0.199-0.153,0.37-0.363,0.389
		c-0.173,0.015-0.35,0.019-0.523,0.004c-0.161-0.014-0.204,0.051-0.185,0.195c0.006,0.044,0.001,0.09,0.001,0.136
		c0,3.717-0.002,7.435,0.002,11.152c0,0.396-0.091,0.74-0.412,0.997c-0.241,0.193-0.523,0.233-0.82,0.233
		c-4.086-0.001-8.172-0.001-12.258-0.001c-0.996,0-1.991,0.002-2.987-0.001c-0.583-0.002-0.985-0.285-1.13-0.787
		c-0.043-0.15-0.046-0.306-0.046-0.461c0-3.743-0.001-7.487,0.004-11.23c0-0.179-0.031-0.262-0.227-0.233
		C4.832,4.844,4.713,4.821,4.598,4.832c-0.249,0.024-0.441-0.057-0.57-0.275C4.028,4.467,4.028,4.376,4.028,4.285z M14.003,4.83
		c-2.605,0-5.211,0.002-7.816-0.005c-0.182,0-0.218,0.051-0.218,0.223c0.005,3.756,0.004,7.513,0.004,11.269
		c0,0.339,0.076,0.417,0.404,0.417c5.082,0,10.163,0,15.245,0c0.318,0,0.399-0.082,0.399-0.404c0-3.769-0.001-7.538,0.004-11.308
		c0-0.169-0.051-0.197-0.206-0.197C19.214,4.832,16.608,4.83,14.003,4.83z"/>
	<path display="inline" fill="#FFFFFF" d="M14.589,21.366c0,0.637,0.002,1.257-0.001,1.878c-0.001,0.276-0.14,0.441-0.371,0.459
		c-0.241,0.019-0.42-0.161-0.423-0.443c-0.005-0.53-0.002-1.06-0.002-1.59c0-0.096,0-0.192,0-0.303
		c-0.087,0.016-0.124,0.08-0.17,0.126c-0.678,0.676-1.354,1.352-2.03,2.029c-0.124,0.124-0.257,0.213-0.445,0.168
		c-0.258-0.063-0.386-0.349-0.25-0.577c0.043-0.071,0.102-0.133,0.161-0.192c0.863-0.865,1.726-1.73,2.594-2.59
		c0.106-0.105,0.15-0.209,0.143-0.355c-0.011-0.226-0.009-0.453,0-0.679c0.005-0.118-0.029-0.155-0.151-0.153
		c-0.433,0.007-0.866,0.007-1.299,0c-0.208-0.003-0.359-0.129-0.398-0.306c-0.04-0.18,0.041-0.36,0.202-0.442
		c0.082-0.042,0.172-0.055,0.262-0.055c1.17-0.001,2.34-0.003,3.511,0.001c0.285,0.001,0.472,0.174,0.469,0.407
		c-0.003,0.241-0.187,0.395-0.478,0.397c-0.394,0.002-0.789,0.004-1.183-0.002c-0.108-0.002-0.158,0.028-0.141,0.14
		c0.002,0.013,0,0.026,0,0.039c0.002,0.284-0.073,0.6,0.027,0.844c0.1,0.244,0.373,0.417,0.574,0.618
		c0.699,0.7,1.399,1.399,2.098,2.099c0.037,0.037,0.075,0.071,0.109,0.11c0.172,0.197,0.174,0.433,0.007,0.59
		c-0.161,0.151-0.391,0.145-0.575-0.026c-0.147-0.136-0.285-0.282-0.426-0.424c-0.549-0.549-1.097-1.098-1.647-1.645
		C14.712,21.445,14.681,21.384,14.589,21.366z"/>
	<path display="inline" fill="#FFFFFF" d="M14.152,9.01c0,0.536,0.005,1.073-0.003,1.609c-0.002,0.142,0.029,0.184,0.178,0.183
		c1.06-0.007,2.12-0.004,3.18-0.004c0.434,0,0.565,0.14,0.536,0.577c-0.114,1.731-0.959,2.98-2.513,3.734
		c-1.74,0.845-3.991,0.29-5.163-1.25c-1.245-1.637-1.247-3.748,0.035-5.355c0.837-1.049,1.96-1.568,3.3-1.609
		c0.284-0.009,0.446,0.165,0.448,0.467C14.154,7.911,14.152,8.461,14.152,9.01z M13.341,9.499c0-0.53-0.007-1.06,0.004-1.59
		c0.003-0.163-0.046-0.189-0.193-0.165c-1.653,0.279-2.914,1.77-2.912,3.451c0.002,1.722,1.265,3.195,2.963,3.456
		c1.901,0.292,3.66-0.97,3.992-2.853c0.031-0.174-0.004-0.203-0.169-0.202c-1.054,0.007-2.107,0.005-3.161,0.003
		c-0.383-0.001-0.522-0.143-0.523-0.529C13.34,10.546,13.341,10.023,13.341,9.499z"/>
	<path display="inline" fill="#FFFFFF" d="M17.004,9.919c-0.484,0-0.969,0.002-1.453-0.001c-0.327-0.002-0.471-0.146-0.472-0.474
		c-0.002-0.969-0.002-1.938,0-2.906c0.001-0.339,0.15-0.481,0.487-0.474c1.835,0.038,3.319,1.514,3.367,3.35
		c0.01,0.363-0.127,0.503-0.495,0.504C17.96,9.921,17.482,9.919,17.004,9.919z M17.005,9.126c0.323,0,0.646-0.003,0.969,0.002
		c0.103,0.001,0.128-0.02,0.108-0.132c-0.182-1.009-1.058-1.895-2.059-2.079c-0.125-0.023-0.155,0-0.154,0.125
		c0.005,0.64,0.005,1.28,0,1.919c-0.001,0.125,0.037,0.17,0.165,0.167C16.358,9.121,16.682,9.126,17.005,9.126z"/>
</g>
<g id="ppc_5_" display="none">
	<path display="inline" fill="#FFFFFF" d="M4.117,13.79c0-0.051,0-0.102,0-0.153c0.091-0.286,0.3-0.384,0.584-0.377
		c0.272,0.006,0.544,0.001,0.836,0.001c0.141-2.126,0.945-3.952,2.438-5.449c1.493-1.496,3.319-2.299,5.437-2.448
		c0-0.279,0-0.532,0-0.786c0.001-0.386,0.15-0.588,0.437-0.594c0.296-0.006,0.455,0.202,0.455,0.596c0,0.258,0,0.515,0,0.782
		c2.147,0.139,3.981,0.942,5.482,2.442c1.501,1.499,2.304,3.332,2.448,5.462c0.292,0,0.564,0.004,0.836-0.001
		c0.278-0.006,0.479,0.097,0.573,0.371c0,0.064,0,0.127,0,0.191c-0.117,0.269-0.331,0.356-0.612,0.344
		c-0.264-0.011-0.529-0.002-0.799-0.002c-0.147,2.144-0.958,3.973-2.463,5.469c-1.503,1.495-3.34,2.289-5.465,2.426
		c0,0.278,0,0.531,0,0.785c0,0.384-0.152,0.588-0.44,0.592c-0.295,0.004-0.452-0.203-0.453-0.598c0-0.257,0-0.515,0-0.785
		c-2.132-0.15-3.95-0.956-5.439-2.447c-1.493-1.496-2.295-3.323-2.438-5.447c-0.291,0-0.563-0.005-0.835,0.001
		C4.417,14.174,4.208,14.076,4.117,13.79z M21.162,15.284c-2.08,1.901-4.493,2.891-7.284,2.89c-2.793-0.002-5.207-0.998-7.278-2.898
		c0.742,3.533,3.894,5.771,6.813,5.863c0-0.069-0.001-0.137,0-0.205c0.002-0.241-0.001-0.483,0.01-0.724
		c0.008-0.184,0.117-0.308,0.284-0.37c0.161-0.06,0.334-0.044,0.44,0.088c0.084,0.105,0.141,0.256,0.152,0.391
		c0.023,0.275,0.007,0.552,0.007,0.829C17.6,21.024,20.539,18.481,21.162,15.284z M13.903,9.973
		c-2.013,0.005-3.653,1.648-3.644,3.652c0.009,2.001,1.648,3.635,3.646,3.634c2.008-0.001,3.648-1.647,3.64-3.655
		C17.537,11.598,15.903,9.969,13.903,9.973z M13.413,6.269c-1.675,0.121-3.131,0.714-4.384,1.788
		c-1.188,1.02-1.975,2.294-2.353,3.824c2.06-1.838,4.461-2.808,7.216-2.805c2.763,0.003,5.167,0.981,7.224,2.852
		c-0.818-3.499-4.092-5.623-6.812-5.632c0,0.291,0.004,0.582-0.001,0.873c-0.003,0.196-0.099,0.342-0.282,0.415
		c-0.167,0.066-0.346,0.049-0.456-0.09c-0.083-0.105-0.134-0.258-0.145-0.394C13.398,6.831,13.413,6.558,13.413,6.269z
		 M6.641,13.261c0.196,0,0.36-0.003,0.523,0.001c0.082,0.002,0.165,0.008,0.245,0.026c0.213,0.047,0.342,0.208,0.345,0.418
		c0.004,0.218-0.126,0.395-0.349,0.432c-0.19,0.031-0.385,0.029-0.61,0.044c1.059,1.129,2.284,1.955,3.716,2.491
		c-1.531-2.024-1.542-4.04-0.048-6.061C9.34,10.92,7.459,12.214,6.641,13.261z M17.349,10.614c1.482,2.032,1.471,4.029-0.034,6.04
		c1.413-0.547,2.62-1.358,3.669-2.485c-0.211,0-0.37,0.009-0.528-0.002c-0.323-0.023-0.514-0.284-0.432-0.578
		c0.055-0.197,0.236-0.314,0.507-0.32c0.191-0.004,0.383-0.001,0.618-0.001C20.074,12.059,18.829,11.192,17.349,10.614z"/>
	<path display="inline" fill="#FFFFFF" d="M15.527,13.716c-0.001,0.91-0.746,1.648-1.653,1.64c-0.901-0.008-1.634-0.747-1.633-1.644
		c0.002-0.905,0.751-1.648,1.656-1.641C14.8,12.079,15.528,12.814,15.527,13.716z M13.883,12.966
		c-0.407,0.002-0.737,0.332-0.741,0.741c-0.004,0.416,0.333,0.757,0.747,0.754c0.404-0.002,0.741-0.337,0.746-0.741
		C14.639,13.312,14.293,12.965,13.883,12.966z"/>
</g>
<g id="cooperation_red_2_" display="none">
	<path display="inline" fill="#E53935" d="M6.774,23.753c-0.234-0.093-0.322-0.267-0.318-0.517c0.01-0.562,0.002-1.124,0.003-1.685
		c0.001-0.357,0.149-0.504,0.507-0.507c0.335-0.002,0.671,0,1.024,0c0.021-0.265,0.036-0.52,0.063-0.775
		c0.191-1.816,0.731-3.505,1.844-4.98c0.167-0.221,0.355-0.426,0.544-0.629c0.196-0.211,0.441-0.231,0.614-0.065
		c0.175,0.167,0.171,0.404-0.036,0.617c-0.639,0.658-1.101,1.427-1.454,2.267c-0.429,1.021-0.66,2.087-0.736,3.189
		c-0.008,0.116-0.014,0.232-0.022,0.362c0.336,0,0.668,0,1.018,0c0.055-0.458,0.212-0.882,0.488-1.258
		c0.522-0.712,1.234-1.153,2.066-1.39c1.36-0.388,2.681-0.28,3.934,0.41c0.435,0.24,0.801,0.563,1.098,0.963
		c0.138,0.186,0.13,0.374-0.023,0.498c-0.153,0.125-0.348,0.106-0.491-0.081c-0.525-0.688-1.239-1.066-2.065-1.231
		c-1.322-0.264-2.559-0.081-3.622,0.817c-0.427,0.361-0.664,0.825-0.697,1.275c2.8,0,5.6,0,8.41,0
		c-0.028-0.932-0.177-1.832-0.451-2.709c-0.352-1.127-0.873-2.164-1.691-3.032c-0.402-0.427-0.859-0.779-1.389-1.035
		c-0.102-0.049-0.209-0.114-0.278-0.2c-0.158-0.198-0.073-0.458,0.174-0.598c0.252-0.143,0.516-0.27,0.751-0.438
		c0.947-0.676,1.578-1.602,2.049-2.648c0.381-0.846,0.623-1.734,0.744-2.654c0.009-0.07,0.021-0.141,0.041-0.209
		c0.058-0.203,0.243-0.328,0.437-0.3c0.203,0.03,0.358,0.19,0.333,0.406c-0.048,0.403-0.107,0.806-0.197,1.201
		c-0.313,1.383-0.866,2.657-1.771,3.764c-0.391,0.478-0.842,0.89-1.384,1.25c1.2,0.799,1.994,1.908,2.559,3.192
		c0.56,1.272,0.832,2.611,0.88,4.021c0.336,0,0.657,0,0.977,0c0.438,0,0.565,0.126,0.565,0.565c0,0.542-0.007,1.085,0.003,1.627
		c0.005,0.25-0.083,0.423-0.318,0.517C16.23,23.753,11.502,23.753,6.774,23.753z M7.273,22.936c4.399,0,8.787,0,13.186,0
		c0-0.362,0-0.713,0-1.073c-4.399,0-8.787,0-13.186,0C7.273,22.223,7.273,22.574,7.273,22.936z"/>
	<path display="inline" fill="#E53935" d="M20.957,3.912c0.234,0.093,0.322,0.267,0.317,0.517c-0.01,0.549-0.003,1.098-0.003,1.646
		c0,0.411-0.134,0.546-0.545,0.546c-3.887,0-7.773,0-11.66,0c-0.082,0-0.165,0-0.257,0c0.026,0.844,0.147,1.65,0.37,2.441
		c0.347,1.233,0.886,2.365,1.771,3.311c0.41,0.438,0.878,0.797,1.424,1.05c0.188,0.087,0.331,0.212,0.315,0.439
		c-0.021,0.298-0.311,0.447-0.606,0.313c-0.648-0.295-1.214-0.709-1.7-1.227c-1.136-1.211-1.792-2.669-2.126-4.275
		c-0.127-0.61-0.167-1.238-0.246-1.858C8.005,6.759,8.001,6.702,7.993,6.621c-0.328,0-0.649,0-0.969,0
		c-0.438,0-0.564-0.127-0.564-0.565c0-0.542,0.007-1.085-0.003-1.627C6.452,4.179,6.54,4.005,6.774,3.912
		C11.502,3.912,16.23,3.912,20.957,3.912z M7.273,5.803c4.399,0,8.787,0,13.186,0c0-0.361,0-0.712,0-1.073
		c-4.399,0-8.787,0-13.186,0C7.273,5.091,7.273,5.442,7.273,5.803z"/>
	<path display="inline" fill="#E53935" d="M13.885,8.055c1.059,0,2.118,0,3.177,0c0.426,0,0.588,0.21,0.476,0.617
		c-0.264,0.966-0.642,1.88-1.268,2.674c-0.496,0.627-1.087,1.122-1.896,1.288c-0.923,0.189-1.707-0.112-2.385-0.722
		c-0.794-0.715-1.266-1.635-1.609-2.629c-0.076-0.219-0.139-0.443-0.199-0.667c-0.09-0.337,0.08-0.559,0.43-0.56
		C11.702,8.054,12.794,8.055,13.885,8.055z M16.657,8.87c-1.876,0-3.706,0-5.561,0c0.051,0.148,0.091,0.282,0.143,0.411
		c0.299,0.756,0.677,1.464,1.282,2.025c0.839,0.779,1.867,0.772,2.704-0.011c0.43-0.402,0.749-0.885,1.002-1.412
		C16.381,9.562,16.507,9.225,16.657,8.87z"/>
	<path display="inline" fill="#E53935" d="M13.875,14.226c-0.218,0.005-0.396-0.163-0.403-0.379
		c-0.007-0.226,0.169-0.408,0.394-0.408c0.217,0,0.391,0.172,0.393,0.389C14.262,14.045,14.092,14.221,13.875,14.226z"/>
	<path display="inline" fill="#E53935" d="M13.867,15.182c0.218,0,0.391,0.172,0.393,0.39c0.002,0.225-0.178,0.403-0.404,0.398
		c-0.217-0.005-0.386-0.181-0.383-0.399C13.475,15.352,13.649,15.181,13.867,15.182z"/>
	<path display="inline" fill="#E53935" d="M13.87,16.925c0.219,0.002,0.389,0.174,0.389,0.392c0,0.226-0.181,0.401-0.407,0.394
		c-0.216-0.006-0.384-0.185-0.38-0.403C13.476,17.092,13.651,16.923,13.87,16.925z"/>
</g>
<g id="cooperation_red_1_" display="none">
	<path display="inline" fill="#E53935" d="M26.196,22.014c-0.093,0.091-0.154,0.215-0.303,0.246
		c-0.226,0.048-0.433-0.074-0.471-0.302c-0.038-0.223-0.016-0.449-0.015-0.673c0-0.115-0.039-0.186-0.13-0.256
		c-0.387-0.3-0.799-0.56-1.234-0.782c-0.222-0.113-0.316-0.284-0.312-0.527c0.005-0.276,0.002-0.553,0.001-0.829
		c0-0.105,0.003-0.222,0.082-0.288c0.135-0.112,0.132-0.251,0.129-0.4c-0.004-0.244,0.004-0.489-0.002-0.733
		c-0.01-0.397-0.222-0.581-0.655-0.577c-0.4,0.003-0.604,0.195-0.611,0.58c-0.004,0.225-0.001,0.45-0.001,0.675
		c0.001,0.17-0.028,0.342,0.135,0.474c0.074,0.06,0.069,0.174,0.068,0.272c-0.002,0.283-0.005,0.566,0.001,0.848
		c0.005,0.231-0.092,0.392-0.295,0.497c-0.422,0.219-0.823,0.471-1.205,0.756c-0.129,0.096-0.184,0.195-0.171,0.353
		c0.013,0.153,0.007,0.308,0.002,0.462c-0.009,0.286-0.169,0.47-0.404,0.468c-0.238-0.002-0.393-0.185-0.396-0.474
		c-0.002-0.199,0-0.398,0-0.598c0-0.317,0.133-0.567,0.379-0.764c0.362-0.29,0.748-0.543,1.154-0.765
		c0.095-0.052,0.138-0.11,0.133-0.223c-0.011-0.24-0.067-0.466-0.122-0.7c-0.145-0.624-0.192-1.28,0.05-1.892
		c0.222-0.563,0.797-0.836,1.439-0.771c0.823,0.083,1.29,0.601,1.292,1.433c0.001,0.302-0.001,0.604,0,0.906
		c0.001,0.138-0.012,0.281-0.092,0.388c-0.171,0.227-0.087,0.481-0.108,0.724c-0.007,0.085,0.07,0.098,0.122,0.129
		c0.332,0.195,0.657,0.401,0.97,0.626c0.261,0.188,0.475,0.402,0.57,0.717C26.196,21.346,26.196,21.68,26.196,22.014z"/>
	<path display="inline" fill="#E53935" d="M6.446,20.896c0.291-0.607,0.886-0.858,1.405-1.2c0.086-0.057,0.237-0.069,0.238-0.198
		c0.001-0.195,0.068-0.406-0.042-0.584c-0.12-0.195-0.169-0.4-0.164-0.623C7.89,17.957,7.858,17.623,7.9,17.29
		C8,16.488,8.642,15.996,9.466,16.086c0.792,0.086,1.262,0.605,1.266,1.4c0.001,0.302-0.001,0.604,0.001,0.906
		c0.001,0.138-0.01,0.281-0.09,0.388c-0.166,0.221-0.092,0.467-0.111,0.704c-0.008,0.095,0.069,0.113,0.127,0.147
		c0.39,0.225,0.768,0.465,1.122,0.745c0.235,0.186,0.38,0.415,0.387,0.719c0.006,0.231,0.012,0.463,0.003,0.694
		c-0.011,0.263-0.175,0.425-0.405,0.42c-0.229-0.005-0.38-0.173-0.387-0.438c-0.004-0.154-0.011-0.309,0.002-0.463
		c0.013-0.165-0.045-0.272-0.179-0.371c-0.373-0.276-0.762-0.523-1.174-0.734c-0.212-0.109-0.309-0.273-0.303-0.512
		c0.007-0.283,0.003-0.566,0.001-0.848c-0.001-0.092-0.001-0.199,0.066-0.254c0.162-0.133,0.131-0.306,0.132-0.476
		c0.001-0.238,0.004-0.476-0.002-0.713c-0.008-0.289-0.208-0.496-0.497-0.511c-0.159-0.008-0.322-0.022-0.471,0.061
		c-0.181,0.101-0.261,0.259-0.262,0.46c-0.002,0.302,0,0.604-0.001,0.906c0,0.059-0.002,0.119,0.048,0.16
		c0.145,0.12,0.16,0.283,0.158,0.455c-0.003,0.251-0.005,0.501,0,0.752c0.006,0.244-0.091,0.414-0.313,0.526
		c-0.424,0.215-0.824,0.47-1.203,0.76c-0.099,0.075-0.14,0.153-0.134,0.274c0.008,0.16,0.004,0.321,0.001,0.482
		c-0.004,0.25-0.092,0.405-0.272,0.462c-0.206,0.065-0.363-0.009-0.481-0.184c-0.009-0.014-0.032-0.018-0.048-0.027
		C6.446,21.616,6.446,21.256,6.446,20.896z"/>
	<path display="inline" fill="#E53935" d="M12.582,13.297c1.054,0,2.108-0.003,3.163,0.003c0.15,0.001,0.199-0.036,0.192-0.19
		c-0.013-0.282-0.007-0.566-0.003-0.848c0.004-0.269,0.151-0.433,0.385-0.438c0.235-0.006,0.398,0.144,0.412,0.413
		c0.015,0.276,0.02,0.554,0,0.829c-0.015,0.206,0.06,0.237,0.246,0.237c2.051-0.007,4.101-0.004,6.152-0.004
		c0.45,0,0.566,0.117,0.566,0.573c0,0.437,0,0.874-0.002,1.311c-0.001,0.171-0.085,0.295-0.24,0.362
		c-0.141,0.061-0.277,0.04-0.399-0.055c-0.111-0.086-0.146-0.206-0.146-0.341c0-0.296-0.006-0.592,0.002-0.887
		c0.003-0.127-0.038-0.163-0.164-0.163c-1.948,0.004-3.896,0.004-5.843,0c-0.142,0-0.171,0.051-0.167,0.179
		c0.008,0.276,0.006,0.553,0.001,0.829c-0.005,0.251-0.117,0.411-0.307,0.458c-0.252,0.062-0.485-0.119-0.492-0.398
		c-0.009-0.302-0.008-0.604,0-0.906c0.004-0.129-0.039-0.161-0.164-0.161c-1.961,0.004-3.921,0.004-5.882-0.001
		c-0.143,0-0.17,0.051-0.166,0.178c0.008,0.283,0.005,0.566,0.002,0.848c-0.003,0.27-0.146,0.437-0.376,0.449
		c-0.233,0.012-0.414-0.155-0.421-0.427c-0.012-0.469-0.013-0.939,0.001-1.408c0.009-0.306,0.172-0.441,0.489-0.441
		C10.474,13.296,11.528,13.297,12.582,13.297z"/>
	<path display="inline" fill="#E53935" d="M17.906,7.092c0,0.218,0,0.437,0,0.655c0,0.145-0.03,0.288-0.116,0.401
		c-0.203,0.267-0.083,0.57-0.111,0.856c-0.008,0.08,0.077,0.095,0.129,0.125c0.454,0.255,0.89,0.535,1.304,0.853
		c0.307,0.236,0.474,0.529,0.46,0.923c-0.008,0.231,0.004,0.463-0.004,0.694c-0.008,0.244-0.175,0.414-0.392,0.415
		c-0.217,0.001-0.385-0.167-0.394-0.413c-0.009-0.231-0.006-0.463-0.003-0.694c0.002-0.119-0.042-0.203-0.138-0.277
		c-0.448-0.347-0.918-0.66-1.424-0.913c-0.235-0.118-0.345-0.289-0.341-0.549c0.005-0.315,0.002-0.63,0.001-0.945
		c0-0.153,0.025-0.296,0.156-0.396c0.077-0.059,0.08-0.14,0.08-0.225c-0.001-0.334,0.004-0.668-0.001-1.003
		c-0.008-0.462-0.263-0.691-0.723-0.716c-0.619-0.034-0.87,0.352-0.838,0.841c0.019,0.294,0.004,0.591,0.003,0.887
		c0,0.079-0.002,0.157,0.067,0.211c0.142,0.11,0.171,0.259,0.168,0.428c-0.006,0.315-0.009,0.63,0.001,0.945
		c0.007,0.241-0.094,0.403-0.304,0.511c-0.504,0.258-0.98,0.559-1.43,0.904c-0.119,0.091-0.177,0.187-0.168,0.339
		c0.011,0.211,0.007,0.424,0.002,0.636c-0.007,0.251-0.157,0.418-0.378,0.432c-0.209,0.014-0.403-0.15-0.414-0.392
		c-0.016-0.333-0.036-0.669,0.021-1c0.044-0.252,0.192-0.442,0.389-0.6c0.422-0.338,0.874-0.631,1.349-0.889
		c0.104-0.057,0.15-0.123,0.139-0.242c-0.009-0.102-0.007-0.206-0.001-0.308c0.01-0.158-0.012-0.301-0.113-0.433
		c-0.073-0.097-0.105-0.219-0.111-0.343c-0.023-0.443-0.015-0.886-0.004-1.329c0.018-0.712,0.589-1.325,1.363-1.393
		c0.733-0.064,1.316,0.214,1.628,0.814c0.106,0.204,0.149,0.422,0.151,0.65c0.001,0.18,0,0.36,0,0.54L17.906,7.092z"/>
	<path display="inline" fill="#E53935" d="M17.742,17.962c-0.014,0.251,0.069,0.561-0.086,0.816
		c-0.128,0.212-0.114,0.423-0.129,0.644c-0.01,0.139,0.049,0.209,0.161,0.27c0.385,0.208,0.745,0.453,1.092,0.719
		c0.249,0.191,0.404,0.429,0.415,0.746c0.008,0.231,0.013,0.463,0.002,0.694c-0.012,0.259-0.185,0.43-0.404,0.426
		c-0.226-0.005-0.378-0.177-0.388-0.441c-0.002-0.064-0.011-0.131,0.001-0.192c0.08-0.395-0.094-0.644-0.426-0.842
		c-0.308-0.184-0.605-0.387-0.926-0.55c-0.227-0.115-0.328-0.286-0.318-0.541c0.011-0.282,0.003-0.565,0.002-0.848
		c0-0.099,0.004-0.204,0.081-0.268c0.12-0.1,0.124-0.224,0.121-0.361c-0.005-0.263,0.002-0.527-0.003-0.79
		c-0.006-0.345-0.217-0.543-0.581-0.551c-0.43-0.01-0.669,0.166-0.684,0.527c-0.013,0.314-0.003,0.63-0.004,0.945
		c0,0.053,0,0.106,0.045,0.141c0.156,0.121,0.169,0.292,0.167,0.47c-0.002,0.231-0.008,0.463,0.001,0.694
		c0.011,0.28-0.089,0.476-0.351,0.603c-0.428,0.208-0.822,0.473-1.201,0.762c-0.092,0.07-0.132,0.143-0.128,0.258
		c0.007,0.192,0.007,0.386-0.001,0.578c-0.01,0.241-0.182,0.411-0.399,0.408c-0.209-0.003-0.376-0.164-0.388-0.399
		c-0.012-0.237-0.006-0.475-0.002-0.713c0.005-0.311,0.151-0.547,0.392-0.737c0.349-0.275,0.715-0.524,1.106-0.732
		c0.121-0.065,0.176-0.138,0.17-0.283c-0.009-0.223-0.074-0.427-0.125-0.641c-0.156-0.644-0.204-1.317,0.064-1.945
		c0.23-0.54,0.794-0.8,1.421-0.738c0.817,0.082,1.294,0.608,1.298,1.432C17.743,17.657,17.742,17.791,17.742,17.962z"/>
</g>
<g id="cooperation_red" display="none">
	<path display="inline" fill="#E53935" d="M6.43,17.839c0.382-0.739,1.116-1.062,1.754-1.503c0.249-0.172,0.681-0.187,0.62-0.668
		c-0.04-0.311-0.065-0.613-0.144-0.928c-0.245-0.971-0.375-1.989,0.158-2.914c0.397-0.688,1.343-0.932,2.203-0.669
		c0.748,0.228,1.2,0.852,1.212,1.686c0.007,0.438-0.003,0.875,0.003,1.313c0.003,0.238-0.054,0.449-0.178,0.657
		c-0.308,0.515-0.139,1.166,0.368,1.45c0.484,0.271,0.935,0.588,1.375,0.924c0.354,0.271,0.528,0.617,0.513,1.063
		c-0.009,0.283,0.004,0.567-0.005,0.85c-0.008,0.258-0.153,0.422-0.408,0.417c-0.235-0.004-0.369-0.161-0.38-0.404
		c-0.004-0.09-0.018-0.183-0.001-0.27c0.131-0.681-0.18-1.118-0.754-1.434c-0.416-0.229-0.812-0.494-1.228-0.724
		c-0.279-0.154-0.41-0.365-0.397-0.686c0.014-0.347,0.007-0.695,0.001-1.043c-0.003-0.188,0.046-0.342,0.167-0.495
		c0.271-0.344,0.178-1.983-0.127-2.289c-0.362-0.363-0.815-0.357-1.263-0.229c-0.407,0.116-0.595,0.444-0.616,0.844
		c-0.025,0.462-0.008,0.927-0.008,1.39c0,0.05-0.003,0.118,0.026,0.149c0.502,0.543,0.206,1.206,0.269,1.812
		c0.028,0.274-0.178,0.433-0.408,0.554c-0.58,0.307-1.133,0.656-1.659,1.052c-0.221,0.166-0.318,0.351-0.3,0.619
		c0.012,0.192,0.003,0.386,0.002,0.579c-0.001,0.208,0.005,0.413-0.222,0.533c-0.254,0.134-0.401-0.051-0.573-0.171
		C6.43,18.818,6.43,18.329,6.43,17.839z"/>
	<path display="inline" fill="#E53935" d="M24.135,13.458c-0.015,0.54,0.055,1.045-0.25,1.526c-0.124,0.196-0.036,0.526-0.045,0.795
		c-0.012,0.372,0.335,0.383,0.543,0.513c0.458,0.287,0.908,0.584,1.334,0.917c0.327,0.255,0.497,0.58,0.494,0.996
		c-0.003,0.296,0.003,0.592-0.003,0.888c-0.005,0.258-0.146,0.426-0.401,0.425c-0.259-0.001-0.384-0.177-0.389-0.434
		c-0.001-0.064-0.012-0.131,0-0.193c0.147-0.731-0.198-1.189-0.811-1.519c-0.395-0.213-0.769-0.466-1.164-0.681
		c-0.28-0.153-0.412-0.364-0.401-0.683c0.012-0.347-0.002-0.695,0.005-1.043c0.002-0.113-0.002-0.25,0.056-0.336
		c0.455-0.664,0.234-1.387,0.167-2.082c-0.039-0.411-0.409-0.637-0.874-0.664c-0.56-0.032-1.005,0.166-1.116,0.565
		c-0.169,0.603-0.25,1.305-0.023,1.821c0.255,0.579,0.181,1.117,0.237,1.676c0.036,0.365-0.117,0.607-0.445,0.772
		c-0.575,0.29-1.111,0.643-1.627,1.03c-0.221,0.166-0.317,0.35-0.302,0.619c0.013,0.244,0.005,0.489-0.001,0.734
		c-0.006,0.26-0.144,0.424-0.402,0.418c-0.235-0.005-0.379-0.161-0.384-0.401c-0.008-0.373-0.017-0.748,0.01-1.119
		c0.025-0.337,0.22-0.591,0.486-0.799c0.507-0.398,1.039-0.758,1.61-1.057c0.197-0.103,0.279-0.229,0.265-0.454
		c-0.022-0.355,0.045-0.717-0.21-1.03c-0.106-0.131-0.088-0.318-0.088-0.486c0-0.438-0.006-0.875,0.001-1.313
		c0.016-1.033,0.659-1.703,1.696-1.772c1.01-0.068,1.779,0.44,1.989,1.327C24.176,12.767,24.12,13.131,24.135,13.458z"/>
	<path display="inline" fill="#E53935" d="M10.326,21.232c0,0.26,0.011,0.466-0.003,0.669c-0.016,0.245-0.126,0.428-0.402,0.42
		c-0.268-0.008-0.389-0.183-0.394-0.432c-0.01-0.541-0.011-1.081-0.01-1.622c0-0.26,0.135-0.415,0.399-0.423
		c0.54-0.016,1.081-0.031,1.621-0.028c0.254,0.001,0.467,0.105,0.456,0.407c-0.01,0.291-0.21,0.39-0.472,0.395
		c-0.178,0.003-0.356,0.001-0.604,0.001c0.571,0.581,1.186,0.988,1.852,1.309c2.969,1.431,6.329,0.914,8.736-1.331
		c0.066-0.061,0.131-0.125,0.201-0.18c0.194-0.151,0.406-0.195,0.59-0.006c0.203,0.209,0.138,0.418-0.055,0.607
		c-1.477,1.45-3.236,2.297-5.307,2.468c-2.449,0.203-4.59-0.525-6.436-2.141C10.462,21.314,10.417,21.291,10.326,21.232z"/>
	<path display="inline" fill="#E53935" d="M22.05,8.742c0-0.277-0.011-0.479,0.003-0.68c0.017-0.247,0.139-0.42,0.406-0.424
		c0.254-0.004,0.384,0.17,0.393,0.393c0.022,0.566,0.028,1.133,0.015,1.698c-0.006,0.229-0.157,0.381-0.403,0.385
		c-0.553,0.01-1.107,0.015-1.661,0.016c-0.261,0.001-0.424-0.142-0.423-0.398c0.002-0.237,0.161-0.374,0.4-0.386
		c0.2-0.01,0.4-0.002,0.7-0.002c-0.797-0.767-1.63-1.291-2.569-1.61c-3.015-1.025-5.722-0.481-8.09,1.669
		c-0.048,0.043-0.092,0.09-0.141,0.132c-0.19,0.163-0.4,0.207-0.587,0.022c-0.206-0.204-0.143-0.426,0.045-0.61
		c0.61-0.598,1.277-1.123,2.039-1.512c3.279-1.671,6.833-1.251,9.649,1.128C21.875,8.603,21.925,8.642,22.05,8.742z"/>
</g>
<g id="smm_red" display="none">
	<path display="inline" fill="#E53935" d="M6.54,16.236c0.165-0.334,0.259-0.695,0.38-1.045c0.575-1.664,1.144-3.332,1.715-4.997
		c0.13-0.378,0.313-0.465,0.695-0.33c0.909,0.321,1.82,0.636,2.726,0.966c0.419,0.153,0.815,0.14,1.209-0.07
		c0.576-0.308,1.17-0.344,1.789-0.128c1.559,0.545,3.122,1.08,4.683,1.62c0.383,0.133,0.462,0.291,0.385,0.69
		c-0.089,0.457-0.26,0.867-0.649,1.146c-0.447,0.321-0.943,0.309-1.441,0.153c-0.527-0.165-1.048-0.351-1.572-0.529
		c-0.262-0.089-0.257-0.087-0.38,0.154c-0.416,0.818-1.031,1.406-1.937,1.646c-0.718,0.19-1.417,0.082-2.104-0.154
		c-0.224-0.077-0.328-0.293-0.267-0.491c0.068-0.22,0.275-0.329,0.525-0.259c0.316,0.089,0.633,0.177,0.962,0.192
		c0.964,0.046,1.626-0.424,2.08-1.237c0.088-0.157,0.156-0.324,0.216-0.494c0.113-0.324,0.306-0.415,0.633-0.305
		c0.694,0.233,1.388,0.47,2.082,0.704c0.148,0.05,0.3,0.074,0.456,0.061c0.268-0.022,0.517-0.255,0.562-0.511
		c0.02-0.118-0.073-0.107-0.129-0.127c-0.643-0.225-1.288-0.446-1.932-0.668c-0.802-0.276-1.607-0.546-2.406-0.831
		c-0.414-0.148-0.803-0.13-1.19,0.077c-0.517,0.277-1.062,0.342-1.624,0.166c-0.153-0.048-0.196-0.005-0.242,0.13
		c-0.617,1.813-1.239,3.625-1.859,5.437c-0.148,0.432-0.308,0.508-0.741,0.358c-0.741-0.256-1.482-0.513-2.226-0.762
		c-0.18-0.06-0.321-0.152-0.398-0.33C6.54,16.39,6.54,16.313,6.54,16.236z M9.161,16.706c0.101,0.004,0.094-0.082,0.112-0.135
		c0.587-1.707,1.17-3.416,1.759-5.122c0.039-0.114,0.02-0.157-0.091-0.194c-0.5-0.166-0.999-0.334-1.495-0.512
		c-0.121-0.044-0.152-0.003-0.187,0.1c-0.582,1.709-1.167,3.417-1.754,5.124c-0.038,0.11-0.043,0.166,0.091,0.209
		c0.495,0.159,0.986,0.334,1.478,0.502C9.104,16.688,9.135,16.697,9.161,16.706z"/>
	<path display="inline" fill="#E53935" d="M10.63,19.672c-0.007-0.181,0.044-0.373,0.152-0.545c0.051-0.081,0.045-0.125-0.021-0.195
		c-0.59-0.619-0.454-1.495,0.304-1.892c0.558-0.292,1.128-0.56,1.695-0.833c0.246-0.118,0.481-0.043,0.578,0.168
		c0.098,0.214,0.01,0.429-0.24,0.553c-0.524,0.26-1.05,0.515-1.575,0.77c-0.081,0.04-0.166,0.077-0.225,0.146
		c-0.106,0.124-0.126,0.268-0.054,0.413c0.073,0.147,0.204,0.208,0.366,0.196c0.091-0.007,0.171-0.05,0.253-0.09
		c1.01-0.495,2.02-0.988,3.03-1.481c0.075-0.036,0.151-0.075,0.231-0.095c0.174-0.045,0.356,0.044,0.438,0.204
		c0.081,0.157,0.044,0.357-0.096,0.471c-0.064,0.052-0.139,0.092-0.214,0.129c-1.159,0.569-2.319,1.137-3.479,1.705
		c-0.306,0.15-0.416,0.352-0.31,0.566c0.11,0.221,0.326,0.257,0.637,0.104c1.287-0.629,2.574-1.258,3.862-1.887
		c0.023-0.011,0.046-0.023,0.07-0.033c0.269-0.124,0.488-0.069,0.597,0.148c0.111,0.222,0.016,0.437-0.261,0.573
		c-0.911,0.447-1.824,0.892-2.735,1.338c-0.265,0.13-0.532,0.257-0.796,0.389c-0.249,0.125-0.336,0.33-0.233,0.533
		c0.103,0.204,0.316,0.259,0.565,0.137c1.189-0.58,2.378-1.163,3.567-1.744c0.328-0.161,0.55-0.123,0.669,0.112
		c0.122,0.241,0.015,0.442-0.326,0.609c-0.773,0.378-1.547,0.757-2.32,1.134c-0.157,0.076-0.29,0.17-0.299,0.366
		c-0.012,0.254,0.214,0.439,0.46,0.373c0.043-0.012,0.086-0.027,0.126-0.047c1.675-0.831,3.372-1.617,5.027-2.487
		c0.877-0.461,1.649-1.071,2.373-1.745c0.156-0.145,0.305-0.298,0.472-0.429c0.123-0.096,0.115-0.175,0.052-0.304
		c-0.868-1.764-1.73-3.53-2.596-5.295c-0.046-0.093-0.097-0.188-0.098-0.289c-0.003-0.186,0.101-0.313,0.264-0.393
		c0.767-0.376,1.533-0.754,2.303-1.126c0.288-0.139,0.483-0.058,0.635,0.254c0.798,1.634,1.594,3.268,2.391,4.902
		c0.124,0.254,0.249,0.507,0.372,0.762c0.162,0.337,0.099,0.525-0.234,0.688c-0.686,0.337-1.373,0.673-2.061,1.006
		c-0.129,0.062-0.242,0.142-0.347,0.239c-0.645,0.592-1.281,1.193-1.995,1.706c-0.74,0.532-1.546,0.942-2.361,1.34
		c-1.276,0.623-2.551,1.248-3.825,1.874c-0.461,0.227-0.904,0.222-1.323-0.095c-0.202-0.152-0.342-0.355-0.396-0.6
		c-0.033-0.148-0.077-0.149-0.2-0.091c-0.63,0.299-1.261,0.116-1.585-0.452c-0.068-0.118-0.117-0.246-0.127-0.381
		c-0.009-0.134-0.059-0.191-0.2-0.215C11.017,20.741,10.63,20.267,10.63,19.672z M23.749,16.721
		c0.038-0.018,0.073-0.034,0.107-0.051c0.473-0.232,0.943-0.468,1.42-0.692c0.111-0.052,0.114-0.094,0.062-0.195
		c-0.257-0.511-0.504-1.026-0.755-1.539c-0.542-1.107-1.084-2.215-1.625-3.322c-0.042-0.086-0.062-0.173-0.204-0.099
		c-0.473,0.245-0.954,0.475-1.435,0.704c-0.105,0.05-0.105,0.099-0.058,0.191c0.121,0.234,0.233,0.472,0.349,0.708
		c0.677,1.384,1.354,2.768,2.033,4.152C23.669,16.63,23.673,16.704,23.749,16.721z"/>
</g>
<g id="smm_red_1_" display="none">
	<path display="inline" fill="#E53935" d="M6.51,25.869c0.342-0.473,0.505-1.043,0.816-1.53c0.901-1.41,1.174-2.929,1.105-4.6
		c-0.1-2.416-0.026-4.839-0.025-7.259c0-0.562,0.097-0.658,0.671-0.658c4.815-0.001,9.629-0.001,14.444,0
		c0.592,0,0.687,0.094,0.687,0.688c0.001,3.082,0.002,6.165-0.003,9.247c0,0.274,0.051,0.519,0.176,0.767
		c0.523,1.031,1.027,2.072,1.542,3.107c0.042,0.084,0.044,0.2,0.159,0.237c0,0.127,0,0.255,0,0.382
		c-0.202,0.169-0.433,0.213-0.696,0.213c-6.06-0.006-12.119-0.006-18.179,0c-0.263,0-0.492-0.051-0.696-0.213
		C6.51,26.124,6.51,25.997,6.51,25.869z M16.296,21.865c2.255,0,4.511-0.006,6.766,0.007c0.285,0.002,0.36-0.068,0.359-0.356
		c-0.012-2.854-0.011-5.708,0-8.562c0.001-0.279-0.088-0.327-0.344-0.327c-4.511,0.008-9.021,0.008-13.532-0.001
		c-0.277-0.001-0.363,0.055-0.362,0.351c0.013,2.841,0.013,5.683,0,8.524c-0.001,0.314,0.099,0.372,0.385,0.37
		C11.811,21.86,14.053,21.865,16.296,21.865z M25.039,25.651c-0.46-0.936-0.902-1.82-1.325-2.712
		c-0.102-0.214-0.222-0.288-0.461-0.287c-2.013,0.01-4.026,0.006-6.038,0.006c-2.612,0-5.223-0.001-7.835,0.003
		c-0.14,0-0.307-0.068-0.401,0.123c-0.464,0.942-0.932,1.883-1.42,2.867c0.178,0,0.302,0,0.426,0c1.338,0,2.678-0.054,4.012,0.021
		c0.759,0.043,1.217-0.159,1.425-0.899c0.104-0.369,0.378-0.49,0.761-0.484c1.185,0.017,2.369,0.001,3.554,0.008
		c1.44,0.008,1.117-0.159,1.727,1.068c0.116,0.233,0.248,0.295,0.494,0.293c1.567-0.011,3.134-0.006,4.701-0.006
		C24.767,25.651,24.876,25.651,25.039,25.651z M16.28,25.502c0.687,0,1.374,0.003,2.061-0.004c0.084-0.001,0.239,0.07,0.241-0.085
		c0.001-0.114-0.05-0.256-0.189-0.301c-0.07-0.023-0.151-0.013-0.227-0.013c-1.247-0.001-2.494,0-3.741,0
		c-0.064,0-0.129-0.008-0.19,0.004c-0.169,0.034-0.221,0.19-0.221,0.315c0,0.149,0.158,0.08,0.243,0.08
		C14.931,25.505,15.605,25.502,16.28,25.502z"/>
	<path display="inline" fill="#E53935" d="M15.945,18.833c0.268,0,0.536,0.013,0.802-0.003c0.348-0.022,0.611-0.272,0.598-0.578
		c-0.014-0.331-0.192-0.562-0.531-0.599c-0.315-0.034-0.635-0.019-0.953-0.029c-0.76-0.022-1.345-0.543-1.4-1.244
		c-0.06-0.771,0.415-1.387,1.196-1.51c0.196-0.031,0.269-0.09,0.252-0.282c-0.01-0.113-0.008-0.23,0.007-0.343
		c0.029-0.223,0.178-0.347,0.39-0.343c0.211,0.005,0.343,0.134,0.38,0.358c0.032,0.192-0.104,0.452,0.093,0.562
		c0.147,0.083,0.373,0.03,0.563,0.029c0.276-0.002,0.492,0.077,0.487,0.398c-0.005,0.322-0.23,0.387-0.501,0.385
		c-0.446-0.003-0.892-0.007-1.338,0.001c-0.457,0.009-0.74,0.246-0.74,0.603c0,0.359,0.286,0.596,0.737,0.605
		c0.28,0.006,0.561-0.006,0.841,0.007c0.694,0.033,1.26,0.586,1.304,1.262c0.047,0.726-0.405,1.373-1.102,1.471
		c-0.323,0.046-0.367,0.183-0.347,0.444c0.022,0.278-0.039,0.543-0.372,0.554c-0.36,0.011-0.436-0.262-0.405-0.556
		c0.033-0.315-0.074-0.451-0.399-0.406c-0.125,0.017-0.254,0.003-0.382-0.001c-0.243-0.007-0.395-0.145-0.399-0.376
		c-0.004-0.251,0.155-0.397,0.414-0.403c0.267-0.006,0.535-0.001,0.803-0.001L15.945,18.833z"/>
</g>
<g id="smm_red_2_" display="none">
	<path display="inline" fill="#E53935" d="M16.915,11.735c0.163,0.078,0.344,0.069,0.517,0.101c2.48,0.463,4.278,1.842,5.255,4.152
		c1.012,2.392,0.719,4.708-0.803,6.827c-1.032,1.437-2.447,2.346-4.177,2.686c-2.302,0.452-4.361-0.113-6.111-1.693
		c-1.126-1.016-1.845-2.285-2.12-3.775c-0.413-2.242,0.132-4.243,1.639-5.963c0.996-1.136,2.252-1.845,3.722-2.177
		c0.22-0.05,0.445-0.075,0.667-0.113c0.035-0.006,0.081,0.006,0.095-0.045C16.037,11.735,16.476,11.735,16.915,11.735z
		 M22.453,18.739c-0.02-1.509-0.486-2.837-1.405-3.947c-0.941-1.137-2.142-1.86-3.597-2.139c-1.412-0.27-2.764-0.072-4.03,0.603
		c-1.34,0.715-2.3,1.788-2.858,3.206c-0.403,1.024-0.518,2.083-0.349,3.171c0.177,1.142,0.645,2.151,1.386,3.036
		c0.048,0.057,0.091,0.079,0.165,0.056c0.589-0.189,1.172-0.394,1.705-0.715c0.322-0.194,0.622-0.415,0.824-0.745
		c0.051-0.082,0.056-0.14-0.021-0.215c-0.372-0.364-0.612-0.809-0.77-1.301c-0.279-0.868-0.306-1.756-0.237-2.658
		c0.126-1.639,1.255-2.74,2.893-2.79c1.442-0.044,2.549,0.754,2.925,2.147c0.233,0.866,0.208,1.749,0.057,2.629
		c-0.123,0.718-0.378,1.378-0.886,1.918c-0.066,0.07-0.042,0.127-0.011,0.189c0.098,0.2,0.242,0.364,0.413,0.505
		c0.637,0.521,1.391,0.796,2.161,1.04c0.097,0.031,0.14-0.022,0.191-0.084C21.966,21.487,22.441,20.156,22.453,18.739z
		 M14.027,17.822c0.002,0.658,0.076,1.263,0.296,1.842c0.339,0.892,0.987,1.341,1.935,1.35c0.891,0.009,1.563-0.462,1.896-1.345
		c0.316-0.84,0.346-1.71,0.246-2.591c-0.049-0.435-0.171-0.849-0.447-1.197c-0.553-0.697-1.305-0.854-2.136-0.735
		c-0.806,0.115-1.346,0.57-1.613,1.343C14.051,16.935,14.047,17.4,14.027,17.822z M12.338,23.388
		c2.275,1.989,5.788,1.893,7.905-0.005c-0.366-0.127-0.722-0.256-1.06-0.427c-0.638-0.322-1.243-0.687-1.612-1.333
		c-0.044-0.077-0.092-0.068-0.158-0.042c-0.749,0.3-1.504,0.311-2.262,0.037c-0.093-0.033-0.137-0.01-0.182,0.073
		c-0.078,0.141-0.181,0.266-0.293,0.383c-0.372,0.387-0.822,0.658-1.298,0.892C13.044,23.131,12.693,23.253,12.338,23.388z"/>
	<path display="inline" fill="#E53935" d="M16.317,27.953c1.626,0,3.251,0,4.877,0c0.084,0,0.169-0.002,0.251,0.01
		c0.196,0.03,0.325,0.196,0.319,0.398c-0.005,0.194-0.135,0.345-0.326,0.372c-0.076,0.011-0.154,0.01-0.232,0.01
		c-3.277,0-6.554,0-9.831,0c-0.371,0-0.548-0.126-0.552-0.39c-0.004-0.272,0.175-0.401,0.559-0.401
		C13.027,27.953,14.672,27.953,16.317,27.953z"/>
	<path display="inline" fill="#E53935" d="M16.286,31.562c-1.065,0-2.13,0.001-3.195-0.001c-0.317,0-0.494-0.159-0.48-0.425
		c0.01-0.183,0.107-0.301,0.28-0.35c0.079-0.022,0.165-0.03,0.248-0.03c2.104-0.002,4.208-0.002,6.312-0.001
		c0.344,0,0.528,0.141,0.53,0.4c0.002,0.242-0.168,0.403-0.443,0.405c-0.516,0.004-1.033,0.001-1.549,0.001
		C17.422,31.562,16.854,31.562,16.286,31.562z"/>
</g>
<g id="Слой_34" display="none">
	<path display="inline" fill="#0D8497" d="M9.536,17.44c0.067-0.209,0.196-0.323,0.429-0.331c0.176-0.006,0.265-0.137,0.293-0.301
		c0.015-0.087,0.013-0.177,0.014-0.266c0.001-0.616-0.002-1.231,0.001-1.847c0.002-0.361,0.152-0.52,0.504-0.52
		c2.101-0.002,4.202-0.005,6.303,0.002c0.6,0.002,1.179,0.107,1.638,0.543c0.132,0.126,0.239,0.279,0.359,0.418
		c0.142,0.166,0.264,0.183,0.387,0.005c0.498-0.719,1.242-0.927,2.043-0.938c2.1-0.03,4.201-0.024,6.302-0.029
		c0.338-0.001,0.492,0.164,0.494,0.511c0.003,0.622,0.001,1.244,0.001,1.866c0,0.426,0.047,0.487,0.457,0.576
		c0.158,0.034,0.242,0.132,0.268,0.282c0.013,0.074,0.009,0.152,0.009,0.228c0,3.243,0,6.487,0,9.73
		c0,0.457-0.148,0.607-0.601,0.607c-1.917,0.001-3.834,0-5.751,0c-0.612,0-1.215,0.056-1.794,0.278
		c-0.44,0.169-0.826,0.409-1.133,0.775c-0.317,0.378-0.617,0.37-0.927-0.003c-0.372-0.447-0.875-0.68-1.417-0.843
		c-0.565-0.17-1.147-0.206-1.732-0.206c-1.853-0.001-3.707-0.002-5.56,0.002c-0.281,0.001-0.496-0.08-0.589-0.368
		C9.536,24.221,9.536,20.831,9.536,17.44z M11.181,20.698c0,1.676,0,3.352,0,5.028c0,0.038,0,0.076,0,0.114
		c0.002,0.367,0.122,0.486,0.493,0.487c0.413,0.001,0.825-0.002,1.238,0.001c1.377,0.007,2.755-0.006,4.131,0.033
		c0.787,0.022,1.508,0.267,2.04,0.905c0.142,0.17,0.328,0.169,0.45,0.001c0.276-0.379,0.67-0.571,1.094-0.72
		c0.51-0.179,1.042-0.216,1.576-0.218c1.568-0.005,3.136-0.001,4.704-0.002c0.362,0,0.487-0.122,0.487-0.474
		c0.001-3.447,0.001-6.894,0-10.341c0-0.339-0.133-0.47-0.476-0.47c-1.682-0.001-3.365-0.009-5.047,0.007
		c-0.317,0.003-0.651,0.055-0.947,0.166c-0.681,0.255-0.98,0.826-1.098,1.507c-0.03,0.174-0.042,0.353-0.042,0.53
		c-0.003,2.463-0.001,4.926-0.002,7.389c0,0.437-0.148,0.592-0.54,0.576c-0.208-0.008-0.35-0.106-0.401-0.313
		c-0.036-0.146-0.048-0.301-0.048-0.452c-0.003-2.355-0.002-4.71-0.002-7.065c0-0.939-0.452-1.586-1.289-1.978
		c-0.647-0.303-1.341-0.365-2.043-0.367c-1.251-0.003-2.501-0.001-3.752-0.001c-0.419,0-0.528,0.11-0.528,0.533
		C11.181,17.282,11.181,18.99,11.181,20.698z"/>
</g>
<g id="Слой_35" display="none">
	<path display="inline" fill="#0D8497" d="M19.702,14.836c0.146,0.07,0.307,0.062,0.461,0.09c2.214,0.413,3.819,1.644,4.691,3.706
		c0.903,2.136,0.642,4.203-0.717,6.094c-0.921,1.282-2.185,2.094-3.728,2.397c-2.055,0.404-3.893-0.101-5.455-1.511
		c-1.005-0.907-1.647-2.04-1.892-3.37c-0.369-2.002,0.118-3.788,1.463-5.323c0.889-1.014,2.01-1.647,3.323-1.943
		c0.196-0.044,0.397-0.067,0.595-0.101c0.031-0.005,0.072,0.006,0.085-0.04C18.919,14.836,19.311,14.836,19.702,14.836z
		 M24.646,21.088c-0.018-1.347-0.434-2.533-1.254-3.523c-0.84-1.015-1.912-1.661-3.211-1.909c-1.26-0.241-2.468-0.064-3.598,0.538
		c-1.196,0.638-2.053,1.596-2.551,2.862c-0.359,0.914-0.462,1.859-0.312,2.83c0.158,1.02,0.575,1.92,1.237,2.71
		c0.043,0.051,0.082,0.071,0.147,0.05c0.526-0.169,1.046-0.352,1.522-0.638c0.287-0.173,0.555-0.37,0.736-0.665
		c0.045-0.074,0.05-0.125-0.019-0.192c-0.332-0.325-0.546-0.722-0.687-1.161c-0.249-0.775-0.273-1.567-0.211-2.373
		c0.113-1.463,1.121-2.446,2.583-2.491c1.288-0.039,2.276,0.673,2.611,1.917c0.208,0.773,0.185,1.561,0.051,2.346
		c-0.11,0.641-0.337,1.23-0.79,1.712c-0.059,0.063-0.037,0.113-0.01,0.169c0.087,0.179,0.216,0.325,0.369,0.45
		c0.568,0.465,1.242,0.71,1.929,0.929c0.086,0.027,0.125-0.019,0.171-0.075C24.211,23.541,24.635,22.353,24.646,21.088z
		 M17.124,20.269c0.002,0.587,0.068,1.128,0.264,1.644c0.303,0.797,0.881,1.197,1.728,1.205c0.795,0.008,1.395-0.412,1.693-1.201
		c0.282-0.749,0.309-1.527,0.22-2.313c-0.044-0.389-0.152-0.758-0.399-1.068c-0.494-0.622-1.165-0.762-1.907-0.657
		c-0.719,0.102-1.202,0.509-1.44,1.199C17.146,19.477,17.142,19.893,17.124,20.269z M15.616,25.238
		c2.031,1.776,5.167,1.69,7.056-0.004c-0.327-0.113-0.644-0.229-0.946-0.381c-0.569-0.287-1.109-0.613-1.439-1.19
		c-0.039-0.069-0.082-0.061-0.141-0.037c-0.669,0.268-1.342,0.278-2.019,0.033c-0.083-0.03-0.122-0.009-0.163,0.065
		c-0.07,0.126-0.161,0.237-0.261,0.341c-0.332,0.345-0.734,0.587-1.159,0.796C16.247,25.008,15.934,25.117,15.616,25.238z"/>
	<path display="inline" fill="#0D8497" d="M19.168,29.313c1.451,0,2.902,0,4.353,0c0.075,0,0.151-0.002,0.224,0.009
		c0.175,0.027,0.29,0.175,0.285,0.356c-0.005,0.173-0.12,0.308-0.291,0.332c-0.068,0.01-0.138,0.009-0.207,0.009
		c-2.925,0-5.85,0-8.776,0c-0.331,0-0.489-0.112-0.493-0.348c-0.004-0.243,0.156-0.358,0.499-0.358
		C16.232,29.313,17.7,29.313,19.168,29.313z"/>
	<path display="inline" fill="#0D8497" d="M19.141,32.535c-0.951,0-1.901,0.001-2.852,0c-0.283,0-0.441-0.142-0.429-0.379
		c0.009-0.163,0.096-0.269,0.25-0.312c0.071-0.02,0.147-0.027,0.221-0.027c1.878-0.001,3.756-0.001,5.634-0.001
		c0.307,0,0.472,0.126,0.473,0.357c0.002,0.216-0.15,0.36-0.396,0.362c-0.461,0.004-0.922,0.001-1.383,0.001
		C20.155,32.535,19.648,32.535,19.141,32.535z"/>
	<ellipse display="inline" fill="#0D8497" cx="19.136" cy="20.343" rx="2.466" ry="2.809"/>
	<path display="inline" fill="#0D8497" d="M15.142,25.087l2.785-1.639h2.459l2.575,1.639C22.96,25.087,19.964,28.973,15.142,25.087z
		"/>
</g>
<g id="Слой_36" display="none">
	<path display="inline" fill="#0D8497" d="M12.949,18.114c0.174-0.128,0.364-0.173,0.583-0.17c0.726,0.01,1.452-0.014,2.177,0.012
		c0.297,0.011,0.398-0.069,0.445-0.366c0.264-1.671,1.644-2.75,3.324-2.625c1.402,0.104,2.582,1.231,2.762,2.671
		c0.033,0.265,0.121,0.321,0.367,0.316c0.763-0.015,1.527-0.008,2.29-0.005c0.443,0.002,0.519,0.083,0.522,0.534
		c0.002,0.313,0.001,0.626-0.001,0.939c-0.001,0.24-0.131,0.388-0.363,0.386c-0.216-0.002-0.333-0.15-0.339-0.372
		c-0.001-0.025-0.001-0.05-0.002-0.075c-0.034-0.707-0.034-0.707-0.737-0.707c-0.476,0-0.951,0.009-1.426-0.004
		c-0.208-0.006-0.289,0.05-0.28,0.27c0.016,0.387,0.003,0.776,0.005,1.164c0.001,0.245-0.089,0.432-0.357,0.428
		c-0.269-0.004-0.348-0.196-0.346-0.439c0.003-0.388-0.008-0.776,0.004-1.164c0.006-0.192-0.049-0.26-0.251-0.259
		c-1.427,0.008-2.853,0.008-4.28,0c-0.209-0.001-0.251,0.083-0.246,0.267c0.01,0.388,0.003,0.776,0.002,1.164
		c0,0.242-0.085,0.434-0.356,0.431c-0.267-0.003-0.353-0.191-0.351-0.435c0.003-0.363-0.014-0.727,0.006-1.088
		c0.014-0.252-0.046-0.351-0.322-0.341c-0.6,0.022-1.201,0.019-1.802,0.001c-0.251-0.008-0.317,0.07-0.313,0.316
		c0.014,0.876,0.006,1.752,0.006,2.628c0,2.678-0.001,5.356,0,8.034c0,1.392,0.675,2.059,2.078,2.059c1.602,0,3.204,0,4.805,0.001
		c0.125,0,0.252-0.004,0.374,0.016c0.186,0.031,0.284,0.161,0.279,0.344c-0.005,0.182-0.108,0.306-0.293,0.334
		c-0.11,0.017-0.225,0.011-0.337,0.011c-1.627,0.001-3.254-0.031-4.88,0.01c-1.362,0.035-2.374-0.76-2.662-1.862
		c-0.013-0.049-0.026-0.095-0.084-0.11C12.949,26.324,12.949,22.219,12.949,18.114z M19.16,17.953c0.563,0,1.126,0,1.689,0
		c0.807,0,0.833-0.04,0.525-0.817c-0.356-0.899-1.352-1.544-2.275-1.475c-1.115,0.084-2.014,0.827-2.234,1.846
		c-0.092,0.428-0.079,0.446,0.342,0.446C17.859,17.954,18.509,17.953,19.16,17.953z"/>
	<path display="inline" fill="#0D8497" d="M32.172,31.105c-0.254,0.572-0.582,1.065-1.242,1.233
		c-0.211,0.054-0.421,0.053-0.632,0.053c-2.126,0.002-4.253,0.003-6.379,0.001c-1.209-0.001-1.874-0.669-1.876-1.883
		c-0.002-2.214-0.001-4.428,0-6.642c0-0.543,0.093-0.638,0.623-0.639c0.513-0.001,1.027-0.019,1.538,0.007
		c0.302,0.016,0.395-0.053,0.393-0.377c-0.008-1.18,0.67-2.145,1.696-2.483c1.649-0.542,3.266,0.595,3.335,2.346
		c0.02,0.505,0.02,0.505,0.52,0.505c0.488,0,0.976,0.01,1.463-0.004c0.229-0.007,0.411,0.056,0.562,0.224
		C32.172,25.999,32.172,28.552,32.172,31.105z M27.098,31.69c1.026,0,2.052-0.023,3.076,0.007c0.778,0.023,1.312-0.344,1.282-1.26
		c-0.04-1.249-0.01-2.501-0.01-3.752c0-0.813-0.007-1.626,0.005-2.439c0.003-0.231-0.071-0.306-0.3-0.297
		c-0.4,0.016-0.801,0.016-1.2,0c-0.238-0.01-0.346,0.053-0.323,0.31c0.02,0.223,0.004,0.45,0,0.675
		c-0.004,0.227-0.138,0.362-0.349,0.361c-0.211-0.001-0.343-0.137-0.346-0.364c-0.003-0.238-0.012-0.476-0.001-0.713
		c0.009-0.187-0.044-0.27-0.249-0.268c-1.038,0.008-2.076,0.007-3.114,0c-0.193-0.001-0.272,0.059-0.261,0.257
		c0.012,0.224,0.008,0.45-0.002,0.675c-0.011,0.239-0.118,0.429-0.383,0.411c-0.234-0.016-0.337-0.188-0.336-0.42
		c0.001-0.213-0.016-0.427,0.004-0.637c0.023-0.243-0.081-0.296-0.301-0.287c-0.375,0.015-0.752,0.024-1.125-0.002
		c-0.308-0.022-0.401,0.068-0.398,0.387c0.015,2.063,0.007,4.127,0.008,6.19c0.001,0.795,0.366,1.159,1.172,1.162
		C24.997,31.693,26.048,31.69,27.098,31.69z M27.095,23.228c0.525,0,1.049-0.006,1.574,0.003c0.184,0.003,0.273-0.034,0.261-0.245
		c-0.019-0.35-0.041-0.695-0.201-1.017c-0.371-0.75-1.195-1.159-1.994-0.985c-0.875,0.19-1.425,0.938-1.441,1.932
		c-0.004,0.233,0.042,0.331,0.303,0.319C26.095,23.212,26.595,23.228,27.095,23.228z"/>
	<path display="inline" fill="#0D8497" d="M22.429,23.679h9.375l-0.129,7.548c0,0-0.129,0.596-1.062,0.725H23.18
		c0,0-0.777-0.803-0.751-1.347C22.455,30.061,22.429,23.679,22.429,23.679z"/>
</g>
<g id="Слой_37" display="none">
	<path display="inline" fill="#0D8497" d="M32.394,32.76c-0.386,0.255-0.527,0.223-0.724-0.166c0.129-0.597-0.118-0.992-0.653-1.244
		c-0.167-0.079-0.312-0.206-0.482-0.277c-0.359-0.152-0.446-0.411-0.474-0.79c-0.046-0.638,0.293-1.212,0.214-1.853
		c-0.061-0.491-0.218-0.72-0.651-0.721c-0.437-0.001-0.65,0.228-0.649,0.718c0.001,0.388,0.014,0.757,0.168,1.148
		c0.275,0.698,0.011,1.229-0.65,1.614c-0.086,0.05-0.164,0.114-0.253,0.155c-0.549,0.252-0.807,0.657-0.679,1.27
		c-0.061,0.226-0.203,0.342-0.438,0.292c-0.228-0.048-0.234-0.238-0.272-0.429c-0.19-0.972,0.45-1.407,1.143-1.819
		c0.544-0.324,0.543-0.472,0.36-1.102c-0.173-0.595-0.184-1.235,0.04-1.827c0.214-0.567,0.858-0.825,1.566-0.7
		c0.539,0.095,0.986,0.563,1.001,1.139c0.014,0.536,0.106,1.079-0.153,1.607c-0.171,0.348-0.022,0.6,0.32,0.815
		c0.314,0.197,0.614,0.418,0.922,0.624c0.183,0.122,0.244,0.325,0.345,0.502C32.394,32.065,32.394,32.413,32.394,32.76z"/>
	<path display="inline" fill="#0D8497" d="M14.058,32.524c-0.197,0.399-0.349,0.433-0.728,0.162c0-0.372,0-0.745,0-1.117
		c0.315-0.457,0.788-0.724,1.241-1.01c0.361-0.228,0.449-0.518,0.293-0.923c-0.235-0.611-0.205-1.249-0.029-1.855
		c0.174-0.597,0.827-0.872,1.563-0.754c0.555,0.089,0.999,0.565,1.01,1.168c0.01,0.523,0.09,1.048-0.165,1.567
		c-0.129,0.263-0.121,0.629,0.299,0.786c0.203,0.076,0.365,0.256,0.562,0.357c0.624,0.317,0.789,0.841,0.716,1.49
		c-0.023,0.207-0.045,0.405-0.295,0.452c-0.245,0.046-0.365-0.099-0.433-0.309c0.135-0.602-0.142-0.981-0.661-1.239
		c-0.21-0.104-0.41-0.231-0.612-0.35c-0.118-0.07-0.267-0.144-0.272-0.285c-0.015-0.448-0.101-0.888,0.079-1.344
		c0.162-0.412,0.111-0.875,0.004-1.311c-0.029-0.118-0.144-0.194-0.266-0.243c-0.487-0.199-0.927,0.066-0.929,0.594
		c-0.002,0.385-0.036,0.758,0.154,1.15c0.293,0.606,0,1.274-0.585,1.608c-0.118,0.067-0.226,0.154-0.348,0.212
		C14.146,31.573,13.935,31.963,14.058,32.524z"/>
	<path display="inline" fill="#0D8497" d="M19.234,24.297c0.992,0,1.984-0.008,2.976,0.006c0.247,0.004,0.325-0.069,0.304-0.31
		c-0.02-0.234-0.01-0.471-0.001-0.706c0.009-0.239,0.118-0.425,0.378-0.412c0.23,0.012,0.338,0.182,0.34,0.412
		c0,0.05-0.002,0.099,0.001,0.149c0.02,0.281-0.123,0.653,0.064,0.817c0.156,0.137,0.519,0.044,0.79,0.044
		c1.748,0.002,3.497,0,5.245,0.001c0.572,0,0.652,0.079,0.654,0.636c0.001,0.36,0.005,0.719-0.003,1.079
		c-0.005,0.231-0.084,0.428-0.359,0.425c-0.269-0.003-0.353-0.187-0.356-0.427c0-0.012,0-0.025,0-0.037
		c-0.008-0.307,0.101-0.724-0.056-0.893c-0.185-0.2-0.606-0.059-0.924-0.06c-1.562-0.006-3.125,0.008-4.687-0.012
		c-0.322-0.004-0.406,0.091-0.371,0.389c0.025,0.208,0.006,0.421,0.004,0.632c-0.003,0.225-0.092,0.396-0.337,0.409
		c-0.272,0.014-0.36-0.172-0.378-0.407c-0.006-0.074-0.002-0.149-0.002-0.223c-0.003-0.791-0.003-0.791-0.776-0.791
		c-1.649,0-3.299,0.008-4.948-0.007c-0.28-0.003-0.371,0.066-0.34,0.344c0.026,0.233,0.012,0.471,0.002,0.706
		c-0.009,0.227-0.119,0.381-0.366,0.378c-0.232-0.003-0.335-0.16-0.341-0.364c-0.013-0.458-0.015-0.918-0.003-1.376
		c0.008-0.322,0.23-0.402,0.512-0.401C17.25,24.299,18.242,24.297,19.234,24.297z"/>
	<path display="inline" fill="#0D8497" d="M24.358,18.305c-0.01,0.347,0.023,0.741-0.191,1.133c-0.202,0.37-0.011,0.746,0.359,0.97
		c0.222,0.134,0.421,0.311,0.652,0.425c0.751,0.369,0.877,1.008,0.801,1.75c-0.023,0.222-0.107,0.4-0.345,0.409
		c-0.261,0.01-0.415-0.185-0.367-0.411c0.164-0.772-0.319-1.117-0.877-1.43c-0.065-0.036-0.128-0.075-0.189-0.118
		c-0.25-0.172-0.638-0.21-0.723-0.535c-0.11-0.418-0.159-0.909,0.002-1.282c0.195-0.452,0.174-0.884,0.176-1.331
		c0.002-0.549-0.272-0.82-0.782-0.821c-0.516-0.001-0.782,0.263-0.771,0.821c0.009,0.446-0.043,0.882,0.167,1.334
		c0.168,0.361,0.083,0.826,0.015,1.244c-0.032,0.199-0.197,0.275-0.349,0.356c-0.406,0.214-0.788,0.463-1.162,0.728
		c-0.214,0.152-0.322,0.322-0.295,0.588c0.017,0.172,0.009,0.347-0.002,0.52c-0.013,0.201-0.138,0.326-0.331,0.339
		c-0.197,0.013-0.341-0.101-0.357-0.303c-0.052-0.675-0.12-1.357,0.621-1.761c0.26-0.142,0.492-0.332,0.747-0.484
		c0.491-0.293,0.544-0.63,0.353-1.19c-0.243-0.713-0.262-1.47,0.049-2.172c0.273-0.616,1.016-0.871,1.76-0.688
		c0.604,0.148,1.018,0.678,1.038,1.331C24.362,17.901,24.358,18.075,24.358,18.305z"/>
	<path display="inline" fill="#0D8497" d="M20.793,32.598c-0.051,0.226-0.184,0.354-0.423,0.313
		c-0.251-0.044-0.248-0.248-0.288-0.451c-0.181-0.935,0.423-1.368,1.093-1.773c0.604-0.365,0.589-0.476,0.402-1.144
		c-0.163-0.581-0.174-1.211,0.037-1.792c0.212-0.582,0.874-0.852,1.591-0.717c0.555,0.104,0.992,0.595,0.99,1.184
		c-0.002,0.524,0.09,1.05-0.153,1.571c-0.128,0.273-0.125,0.631,0.287,0.796c0.191,0.076,0.346,0.241,0.533,0.334
		c0.667,0.33,0.846,0.881,0.762,1.575c-0.024,0.202-0.06,0.376-0.284,0.418c-0.239,0.045-0.373-0.081-0.424-0.308
		c0.126-0.598-0.131-0.987-0.658-1.244c-0.222-0.108-0.428-0.249-0.642-0.372c-0.121-0.069-0.251-0.147-0.275-0.286
		c-0.068-0.392-0.139-0.829,0.013-1.171c0.164-0.369,0.147-0.717,0.15-1.079c0.004-0.511-0.223-0.747-0.669-0.739
		c-0.429,0.008-0.635,0.237-0.632,0.737c0.003,0.375,0.004,0.732,0.166,1.111c0.283,0.662,0.004,1.254-0.629,1.623
		c-0.096,0.056-0.186,0.125-0.285,0.173C20.931,31.609,20.665,31.998,20.793,32.598z"/>
	<path display="inline" fill="#0D8497" d="M20.472,32.598c-0.148-0.623,0.159-1.027,0.765-1.291c0.115-0.05,0.219-0.122,0.33-0.18
		c0.731-0.383,1.054-0.998,0.727-1.685c-0.187-0.394-0.188-0.764-0.192-1.154c-0.004-0.519,0.234-0.758,0.73-0.766
		c0.515-0.008,0.778,0.237,0.773,0.768c-0.003,0.376,0.016,0.738-0.173,1.121c-0.176,0.356-0.094,0.81-0.015,1.217
		c0.028,0.144,0.178,0.225,0.318,0.297c0.248,0.128,0.486,0.274,0.742,0.386c0.609,0.267,0.907,0.672,0.761,1.292
		C23.65,32.6,22.061,32.599,20.472,32.598z"/>
	<path display="inline" fill="#0D8497" d="M27.24,32.615c-0.148-0.636,0.15-1.057,0.785-1.319c0.103-0.043,0.194-0.109,0.293-0.161
		c0.764-0.4,1.069-0.952,0.752-1.676c-0.178-0.406-0.193-0.789-0.194-1.192c-0.001-0.51,0.246-0.747,0.75-0.746
		c0.5,0.001,0.682,0.239,0.752,0.749c0.092,0.665-0.301,1.262-0.247,1.924c0.032,0.394,0.133,0.663,0.548,0.82
		c0.196,0.074,0.364,0.206,0.557,0.288c0.618,0.262,0.904,0.672,0.755,1.292C30.408,32.601,28.824,32.608,27.24,32.615z"/>
	<path display="inline" fill="#0D8497" d="M13.738,32.523c-0.144-0.582,0.102-0.985,0.696-1.237c0.142-0.06,0.267-0.15,0.404-0.22
		c0.678-0.347,1.018-1.039,0.678-1.667c-0.22-0.407-0.181-0.794-0.178-1.192c0.003-0.547,0.513-0.822,1.077-0.616
		c0.14,0.051,0.274,0.13,0.308,0.252c0.124,0.452,0.183,0.932-0.005,1.359c-0.208,0.473-0.109,0.929-0.091,1.394
		c0.005,0.146,0.179,0.224,0.315,0.296c0.234,0.124,0.466,0.255,0.709,0.363c0.601,0.267,0.922,0.66,0.766,1.284
		C16.856,32.533,15.297,32.528,13.738,32.523z"/>
</g>
<g id="Слой_38" display="none">
	<path display="inline" fill="#999999" d="M32.528,16.611c0,0.432,0,0.864,0,1.296c-0.01,0.132-0.026,0.265-0.028,0.397
		c-0.03,1.994-0.061,3.988-0.083,5.983c-0.003,0.312-0.105,0.559-0.326,0.78c-3.201,3.195-6.396,6.395-9.598,9.589
		c-0.182,0.182-0.391,0.355-0.619,0.468c-0.308,0.152-0.648,0.241-0.974,0.357c-0.178,0-0.356,0-0.534,0
		c-0.028-0.012-0.055-0.031-0.085-0.035c-0.565-0.088-1.046-0.346-1.447-0.745c-1.691-1.684-3.38-3.369-5.058-5.066
		c-0.214-0.216-0.387-0.487-0.528-0.759c-0.119-0.231-0.163-0.5-0.24-0.753c0-0.178,0-0.356,0-0.534
		c0.012-0.029,0.029-0.057,0.034-0.087c0.087-0.587,0.362-1.08,0.776-1.494c3.201-3.204,6.405-6.405,9.605-9.61
		c0.221-0.221,0.465-0.322,0.779-0.326c2.026-0.021,4.052-0.054,6.078-0.084c0.101-0.002,0.201-0.017,0.302-0.026
		c0.419,0,0.839,0,1.258,0C32.169,16.075,32.455,16.23,32.528,16.611z M30.843,17.607c-0.072-0.004-0.116-0.009-0.16-0.008
		c-2.026,0.015-4.053,0.029-6.079,0.051c-0.088,0.001-0.195,0.054-0.259,0.118c-3.139,3.132-6.274,6.267-9.409,9.403
		c-0.392,0.392-0.391,0.961,0.006,1.359c1.683,1.686,3.367,3.371,5.054,5.053c0.403,0.402,0.847,0.395,1.251-0.009
		c3.135-3.135,6.27-6.271,9.407-9.404c0.092-0.092,0.133-0.184,0.134-0.315c0.015-2.007,0.036-4.015,0.055-6.022
		C30.843,17.763,30.843,17.694,30.843,17.607z"/>
	<path display="inline" fill="#999999" d="M28.627,20.308c-0.001,0.651-0.53,1.185-1.184,1.194
		c-0.648,0.009-1.206-0.546-1.204-1.197c0.002-0.658,0.548-1.196,1.207-1.19C28.1,19.12,28.628,19.654,28.627,20.308z"/>
</g>
<g id="Слой_39" display="none">
	<path display="inline" fill="#999999" d="M16.602,31.109c-0.153-0.071-0.2-0.108-0.25-0.112c-2.666-0.227-3.321-0.943-3.322-3.634
		c0-2.728-0.002-5.456,0.001-8.184c0.002-2.195,0.997-3.205,3.166-3.206c4.381-0.003,8.763-0.004,13.144,0
		c2.076,0.002,3.111,1.028,3.116,3.091c0.007,2.948,0.007,5.897,0,8.845c-0.005,2.036-1.031,3.065-3.042,3.069
		c-1.984,0.004-3.968-0.023-5.951,0.019c-0.431,0.009-0.921,0.16-1.276,0.403c-1.833,1.257-3.63,2.565-5.586,3.959
		C16.602,33.822,16.602,32.44,16.602,31.109z M18.332,31.953c1.124-0.798,2.092-1.429,2.992-2.146
		c0.601-0.479,1.223-0.634,1.974-0.62c2.064,0.037,4.13,0.019,6.195,0.01c0.922-0.004,1.186-0.265,1.188-1.174
		c0.007-3.029,0.007-6.057,0-9.086c-0.002-0.9-0.285-1.182-1.187-1.184c-4.488-0.005-8.976-0.005-13.463,0
		c-0.949,0.001-1.217,0.274-1.219,1.234c-0.005,3.001-0.005,6.002,0,9.003c0.002,0.962,0.25,1.198,1.237,1.208
		c0.734,0.007,1.469,0.001,2.283,0.001C18.332,30.124,18.332,30.936,18.332,31.953z"/>
</g>
<g id="Слой_40" display="none">
	<path display="inline" fill="#999999" d="M22.871,17.65c-4.486,0-8.122,3.637-8.122,8.122c0,4.486,3.637,8.122,8.122,8.122
		c4.486,0,8.122-3.636,8.122-8.122C30.993,21.287,27.357,17.65,22.871,17.65z M22.871,32.418c-3.67,0-6.646-2.975-6.646-6.646
		s2.975-6.646,6.646-6.646s6.646,2.975,6.646,6.646S26.541,32.418,22.871,32.418z"/>
	<path display="inline" fill="#999999" d="M23.609,25.466v-4.125c0-0.408-0.331-0.738-0.738-0.738s-0.738,0.331-0.738,0.738v4.43
		c0,0.002,0.001,0.003,0.001,0.005c0,0.047,0.005,0.093,0.014,0.139c0.004,0.023,0.013,0.043,0.019,0.065
		c0.007,0.024,0.013,0.049,0.023,0.073c0.011,0.025,0.025,0.049,0.038,0.073c0.01,0.018,0.018,0.037,0.03,0.054
		c0.027,0.041,0.058,0.079,0.092,0.113l2.088,2.088c0.288,0.288,0.756,0.288,1.044,0c0.288-0.288,0.288-0.756,0-1.044L23.609,25.466
		z"/>
</g>
<g id="Слой_41" display="none">
	<g display="inline">
		<g>
			<path fill="#E53935" d="M30.439,21.055h-3.62c-0.208,0-0.375,0.167-0.375,0.375c0,0.208,0.167,0.375,0.375,0.375h3.62
				c0.409,0,0.742,0.333,0.742,0.742v9.307c0,0.409-0.333,0.742-0.742,0.742H16.369c-0.409,0-0.742-0.333-0.742-0.742v-9.307
				c0-0.409,0.333-0.742,0.742-0.742h3.677c0.208,0,0.375-0.167,0.375-0.375c0-0.208-0.167-0.375-0.375-0.375h-3.677
				c-0.822,0-1.492,0.67-1.492,1.492v9.307c0,0.822,0.67,1.492,1.492,1.492h6.661v2.253h-3.113c-0.208,0-0.375,0.167-0.375,0.375
				s0.167,0.375,0.375,0.375h6.971c0.208,0,0.375-0.167,0.375-0.375s-0.167-0.375-0.375-0.375h-3.113v-2.253h6.661
				c0.822,0,1.492-0.67,1.492-1.492v-9.307C31.931,21.725,31.261,21.055,30.439,21.055z"/>
			<path fill="#E53935" d="M25.517,19.291c0-0.81-0.659-1.473-1.473-1.473H22.76c-0.81,0-1.473,0.659-1.473,1.473v0.882
				c0,0.023,0.004,0.045,0.008,0.064c-0.004,0.023-0.008,0.042-0.008,0.064v7.316c0,0.083,0.027,0.163,0.076,0.227l1.738,2.283
				c0.072,0.095,0.182,0.148,0.299,0.148c0.117,0,0.227-0.053,0.299-0.148l1.738-2.283c0.049-0.064,0.076-0.144,0.076-0.227V20.29
				c0-0.019-0.004-0.042-0.008-0.061c0.004-0.019,0.008-0.038,0.008-0.061v-0.878H25.517z M22.041,20.548h0.988v6.642h-0.988V20.548
				z M23.404,29.283l-1.026-1.348h2.052L23.404,29.283z M24.767,27.189h-0.988v-6.642h0.988V27.189z M24.767,19.798h-2.726v-0.507
				c0-0.398,0.326-0.723,0.723-0.723h1.284c0.398,0,0.723,0.326,0.723,0.723v0.507C24.771,19.798,24.767,19.798,24.767,19.798z"/>
		</g>
	</g>
</g>
<g id="Слой_42" display="none">
	<g display="inline">
		<g>
			<path fill="#E53935" d="M17.977,21.157c2.974-3.042,7.866-3.1,10.908-0.127l-0.867,0.01c-0.188,0.003-0.336,0.154-0.336,0.343
				c0.003,0.185,0.154,0.336,0.339,0.336h0.003l1.686-0.021c0.188-0.003,0.336-0.154,0.336-0.343l-0.021-1.686
				c-0.003-0.188-0.154-0.339-0.343-0.336s-0.336,0.154-0.336,0.343l0.01,0.867c-3.309-3.234-8.633-3.169-11.867,0.14
				c-1.12,1.148-1.888,2.58-2.213,4.145c-0.319,1.525-0.209,3.1,0.315,4.563c0.051,0.137,0.182,0.226,0.319,0.226
				c0.038,0,0.075-0.007,0.113-0.021c0.175-0.062,0.267-0.257,0.206-0.435C15.226,26.357,15.894,23.288,17.977,21.157z"/>
			<path fill="#E53935" d="M17.631,32.558c1.579,1.542,3.659,2.388,5.862,2.388c0.034,0,0.065,0,0.099,0
				c2.244-0.027,4.341-0.922,5.906-2.528c1.124-1.148,1.888-2.583,2.213-4.149c0.319-1.525,0.209-3.1-0.315-4.563
				c-0.062-0.175-0.257-0.267-0.435-0.206c-0.175,0.062-0.267,0.257-0.206,0.435c1.007,2.806,0.339,5.875-1.744,8.006
				c-1.442,1.473-3.368,2.299-5.43,2.323c-2.059,0.024-4.005-0.757-5.478-2.196l0.867-0.01c0.188-0.003,0.336-0.154,0.336-0.343
				c-0.003-0.185-0.154-0.336-0.339-0.336h-0.003L17.278,31.4c-0.089,0-0.175,0.038-0.24,0.103c-0.062,0.065-0.096,0.151-0.096,0.24
				l0.021,1.686c0.003,0.185,0.154,0.336,0.339,0.336h0.003c0.188-0.003,0.336-0.154,0.336-0.343L17.631,32.558z"/>
			<path fill="#E53935" d="M28.186,24.603c-0.75-1.805-2.449-3.004-4.382-3.121c-0.034-0.003-0.072-0.003-0.11-0.007
				c-0.003,0-0.01,0-0.014,0c-0.021,0-0.041-0.003-0.062-0.003c-0.003,0-0.007,0-0.01,0c-0.038,0-0.075-0.003-0.116-0.003
				c-0.668,0-1.319,0.13-1.939,0.387c-1.254,0.517-2.23,1.494-2.748,2.748c-0.521,1.254-0.521,2.634,0,3.885
				c0.788,1.905,2.631,3.138,4.693,3.138c0.027,0,0.051,0,0.079-0.003c0.014,0,0.031,0.003,0.045,0.003c0.007,0,0.014,0,0.017-0.003
				c0.031,0,0.058-0.003,0.089-0.003c0.01,0,0.021,0,0.034,0c0.01,0,0.017,0,0.027-0.003c0.565-0.031,1.12-0.158,1.651-0.377
				c1.254-0.517,2.23-1.494,2.748-2.748c0.517-1.254,0.521-2.634,0-3.885C28.186,24.607,28.186,24.607,28.186,24.603
				C28.186,24.607,28.186,24.607,28.186,24.603z M21.725,22.524c-0.377,0.49-0.678,1.131-0.877,1.874h-1.189
				C20.122,23.569,20.841,22.914,21.725,22.524z M19.351,25.08h1.35c-0.079,0.462-0.12,0.956-0.12,1.473
				c0,0.51,0.045,1.007,0.13,1.473h-1.36C19.008,27.067,19.008,26.035,19.351,25.08z M19.659,28.701h1.209
				c0.212,0.757,0.534,1.411,0.928,1.912C20.899,30.235,20.142,29.571,19.659,28.701z M23.28,30.9
				c-0.709-0.209-1.34-1.059-1.699-2.199h1.699V30.9L23.28,30.9z M23.28,28.022h-1.874c-0.096-0.466-0.147-0.963-0.147-1.473
				c0-0.517,0.048-1.014,0.13-1.473h1.891V28.022z M23.28,24.401h-1.73c0.346-1.178,0.976-2.011,1.73-2.203V24.401z M27.333,24.398
				h-0.942c-0.175-0.654-0.425-1.226-0.74-1.686C26.346,23.103,26.932,23.682,27.333,24.398z M23.959,22.195
				c0.754,0.195,1.381,1.028,1.73,2.203h-1.73V22.195z M23.959,25.08h1.891c0.086,0.459,0.13,0.952,0.13,1.473
				c0,0.51-0.051,1.007-0.147,1.473h-1.874V25.08z M23.959,30.9v-2.199h1.699C25.298,29.841,24.668,30.691,23.959,30.9z
				 M25.582,30.424c0.332-0.469,0.603-1.059,0.791-1.723h0.959C26.925,29.434,26.322,30.026,25.582,30.424z M27.641,28.022h-1.113
				c0.086-0.466,0.13-0.959,0.13-1.473c0-0.517-0.041-1.011-0.12-1.473h1.103C27.984,26.035,27.984,27.067,27.641,28.022z"/>
		</g>
	</g>
</g>
<g id="Слой_43" display="none">
	<g display="inline">
		<g>
			<path fill="#E53935" d="M31.902,26.485c0-4.686-3.813-8.499-8.499-8.499c-0.191,0-0.343,0.153-0.343,0.343v3.144h-0.159
				c-1.591,0-2.887,1.293-2.887,2.887v4.253c0,1.591,1.293,2.887,2.887,2.887h1.002c1.591,0,2.887-1.293,2.887-2.887v-4.256
				c0-1.591-1.293-2.887-2.887-2.887h-0.159v-2.794c4.152,0.18,7.473,3.615,7.473,7.809c0,2.759-1.411,5.258-3.771,6.69
				c-2.44,1.477-5.418,1.501-8.166,0.066c-1.13-0.593-2.042-1.504-2.634-2.638c-1.847-3.546-1.237-7.452,1.556-9.944
				c0.142-0.125,0.153-0.343,0.028-0.485c-0.125-0.142-0.343-0.153-0.485-0.028c-1.39,1.241-2.347,2.925-2.693,4.745
				c-0.374,1.979-0.035,4.066,0.984,6.024c0.655,1.262,1.667,2.274,2.925,2.929c1.456,0.763,2.974,1.14,4.457,1.14
				c1.535,0,3.036-0.409,4.385-1.227C30.37,32.205,31.902,29.484,31.902,26.485z M23.906,22.156c1.213,0,2.201,0.988,2.201,2.201
				v4.253c0,1.213-0.988,2.201-2.201,2.201h-1.002c-1.213,0-2.201-0.988-2.201-2.201v-4.253c0-1.213,0.988-2.201,2.201-2.201
				L23.906,22.156L23.906,22.156z"/>
			<path fill="#E53935" d="M23.404,25.619c0.191,0,0.343-0.153,0.343-0.343v-1.698c0-0.191-0.153-0.343-0.343-0.343
				s-0.343,0.153-0.343,0.343v1.698C23.06,25.463,23.213,25.619,23.404,25.619z"/>
		</g>
	</g>
</g>
<g id="Слой_44" display="none">
	<g display="inline">
		<g>
			<path fill="#E53935" d="M21.874,29.207h-3.98c-0.19,0-0.342,0.152-0.342,0.342s0.152,0.342,0.342,0.342h3.686
				c0.107,0.297,0.394,0.508,0.726,0.508h2.185c0.332,0,0.619-0.211,0.726-0.508h3.69c0.19,0,0.342-0.152,0.342-0.342
				s-0.152-0.342-0.342-0.342h-3.98c-0.19,0-0.342,0.152-0.342,0.342v0.076c0,0.048-0.041,0.09-0.09,0.09H22.31
				c-0.048,0-0.09-0.041-0.09-0.09V29.55C22.216,29.359,22.064,29.207,21.874,29.207z"/>
			<path fill="#E53935" d="M31.536,29.207h-0.899V21.32c0-0.19-0.152-0.342-0.342-0.342s-0.342,0.152-0.342,0.342v8.23
				c0,0.19,0.156,0.342,0.346,0.342h0.896v0.47c0,0.484-0.394,0.878-0.878,0.878H16.49c-0.484,0-0.878-0.394-0.878-0.878v-0.47
				h0.896c0.19,0,0.342-0.152,0.342-0.342v-8.23c0-0.19-0.152-0.342-0.342-0.342s-0.342,0.152-0.342,0.342v7.888h-0.896
				c-0.19,0-0.342,0.152-0.342,0.342v0.813c0,0.861,0.702,1.563,1.563,1.563h13.825c0.861,0,1.563-0.702,1.563-1.563V29.55
				C31.878,29.359,31.726,29.207,31.536,29.207z"/>
			<path fill="#E53935" d="M24.734,20.265l-1.975,1.964l-0.688-0.692c-0.135-0.135-0.349-0.135-0.484,0
				c-0.135,0.135-0.135,0.349,0,0.484l0.927,0.934c0.066,0.066,0.156,0.1,0.242,0.1c0.086,0,0.173-0.035,0.242-0.1l2.22-2.206
				c0.135-0.135,0.135-0.349,0-0.484C25.086,20.134,24.869,20.13,24.734,20.265z"/>
			<path fill="#E53935" d="M27.628,17.858h-8.451c-0.692,0-1.255,0.564-1.255,1.255v4.993c0,0.692,0.564,1.255,1.255,1.255h0.356
				v1.504c0,0.28,0.228,0.505,0.508,0.505c0.145,0,0.284-0.062,0.38-0.176l1.584-1.833h5.623c0.692,0,1.255-0.564,1.255-1.255
				v-4.993C28.883,18.422,28.32,17.858,27.628,17.858z M28.199,24.107c0,0.315-0.256,0.571-0.571,0.571h-5.782
				c-0.1,0-0.194,0.041-0.259,0.118l-1.373,1.587V25.02c0-0.19-0.152-0.342-0.342-0.342h-0.699c-0.315,0-0.571-0.256-0.571-0.571
				v-4.993c0-0.315,0.256-0.571,0.571-0.571h8.451c0.315,0,0.571,0.256,0.571,0.571v4.993H28.199z"/>
		</g>
	</g>
</g>
</svg>
