<?xml version="1.0" encoding="utf-8"?>
<!-- Generator: Adobe Illustrator 19.0.0, SVG Export Plug-In . SVG Version: 6.00 Build 0)  -->
<svg version="1.1" xmlns="http://www.w3.org/2000/svg" xmlns:xlink="http://www.w3.org/1999/xlink" x="0px" y="0px"
	 viewBox="0 0 17.125 17.313" enable-background="new 0 0 17.125 17.313" xml:space="preserve">
<g id="mail" display="none">
	<path display="inline" d="M0.841,7.52c1.354,1.168,2.709,2.335,4.062,3.504c0.836,0.723,1.668,1.45,2.528,2.198
		c-0.701,0.596-1.38,1.172-2.059,1.75c-1.401,1.191-2.802,2.384-4.204,3.574c-0.103,0.087-0.218,0.159-0.327,0.239
		C0.841,15.03,0.841,11.275,0.841,7.52z"/>
	<path display="inline" d="M19.492,6.676c-3.031,2.598-6.057,5.191-9.103,7.802c-3.042-2.607-6.068-5.2-9.1-7.799
		c0.326-0.332,0.713-0.381,1.119-0.381c1.715,0.001,3.431,0,5.146,0c3.58,0,7.16,0.001,10.739-0.001
		C18.722,6.297,19.14,6.322,19.492,6.676z"/>
	<path display="inline" d="M12.752,13.777c2.242,1.923,4.475,3.838,6.783,5.817c-0.277,0.119-0.497,0.237-0.731,0.304
		c-0.162,0.047-0.345,0.032-0.519,0.032c-5.268,0.001-10.536,0.001-15.804,0.002c-0.429,0-0.846-0.026-1.194-0.379
		c2.248-1.927,4.491-3.849,6.74-5.777c0.795,0.694,1.569,1.37,2.362,2.063C11.185,15.145,11.959,14.469,12.752,13.777z"/>
	<path display="inline" d="M19.904,18.795c-2.206-1.875-4.371-3.714-6.558-5.573c2.189-1.904,4.352-3.786,6.558-5.705
		C19.904,11.288,19.904,15.01,19.904,18.795z"/>
</g>
<g id="phone" display="none">
	<path display="inline" d="M14.484,4.377c0.622,0.246,0.841,0.703,0.838,1.367c-0.017,4.422-0.017,8.844,0,13.265
		c0.003,0.664-0.216,1.121-0.838,1.367c-2.542,0-5.083,0-7.625,0c-0.623-0.246-0.84-0.704-0.838-1.368
		c0.017-4.422,0.017-8.843,0-13.265C6.018,5.08,6.237,4.623,6.859,4.377C9.401,4.377,11.942,4.377,14.484,4.377z M6.807,6.1
		c0,4.108,0,8.184,0,12.258c2.593,0,5.161,0,7.727,0c0-4.095,0-8.17,0-12.258C11.95,6.1,9.391,6.1,6.807,6.1z M10.674,18.76
		c-0.287-0.002-0.54,0.253-0.537,0.54c0.003,0.283,0.231,0.515,0.515,0.523c0.3,0.009,0.545-0.22,0.552-0.517
		C11.211,19.019,10.962,18.762,10.674,18.76z M10.671,5.157c-0.352,0-0.704-0.006-1.056,0.005C9.549,5.164,9.486,5.234,9.421,5.273
		c0.065,0.05,0.129,0.142,0.195,0.143c0.704,0.01,1.408,0.01,2.112,0c0.065-0.001,0.129-0.094,0.193-0.144
		c-0.065-0.038-0.129-0.108-0.195-0.11C11.375,5.151,11.023,5.157,10.671,5.157z"/>
</g>
<g id="search" display="none">
	<path display="inline" d="M17.87,20.714c-0.111,0-0.222,0-0.333,0c-0.292-0.089-0.496-0.296-0.7-0.51
		c-1.24-1.294-2.484-2.584-3.725-3.877c-0.045-0.047-0.076-0.109-0.113-0.164c-0.067,0.051-0.095,0.068-0.123,0.086
		c-1.14,0.766-2.395,1.158-3.769,1.177c-1.454,0.02-2.78-0.393-3.974-1.212c-1.061-0.729-1.856-1.689-2.387-2.865
		c-0.561-1.243-0.727-2.542-0.516-3.883c0.223-1.415,0.843-2.642,1.835-3.675C5.07,4.745,6.285,4.074,7.71,3.793
		c0.287-0.056,0.579-0.089,0.868-0.132c0.3,0,0.6,0,0.899,0C9.63,3.682,9.783,3.704,9.936,3.724
		c1.556,0.209,2.886,0.881,3.985,1.992c1.087,1.098,1.742,2.423,1.936,3.961c0.171,1.355-0.034,2.658-0.649,3.879
		c-0.25,0.497-0.573,0.957-0.907,1.508c0.121,0.102,0.3,0.229,0.45,0.384c1.185,1.224,2.364,2.454,3.546,3.68
		c0.272,0.283,0.385,0.604,0.256,0.987C18.442,20.445,18.184,20.612,17.87,20.714z M9.034,5.459
		c-2.797-0.005-5.079,2.273-5.089,5.079c-0.01,2.799,2.293,5.105,5.089,5.094c2.809-0.011,5.08-2.284,5.08-5.086
		C14.115,7.747,11.835,5.464,9.034,5.459z"/>
</g>
<g id="ru" display="none">
	<text transform="matrix(1 0 0 1 2.6252 16.1042)" display="inline" font-family="'Roboto-Medium'" font-size="12px">RU</text>
</g>
<g id="arrow_main_menu" display="none">
	<polygon display="inline" fill="#E53935" points="0.649,10.699 20.101,10.699 10.375,18.657 	"/>
</g>
<g id="Слой_7" display="none">
	<path display="inline" fill="#FFFFFF" d="M4.141,16.677c0-3.452,0-6.903,0-10.355C4.352,5.759,4.73,5.362,5.303,5.16
		c3.346,0,6.692,0,10.038,0c0.689,0.194,1.23,0.56,1.479,1.268c0,3.416,0,6.833,0,10.249c-0.235,0.592-0.643,0.996-1.268,1.162
		c-3.416,0-6.833,0-10.249,0C4.734,17.633,4.333,17.259,4.141,16.677z M10.485,16.149c1.233,0,2.465,0.006,3.698-0.003
		c0.621-0.004,0.94-0.326,0.943-0.948c0.007-1.462-0.008-2.923,0.009-4.385c0.008-0.69-0.491-0.322-0.746-0.353
		c-0.417-0.051-0.175,0.28-0.15,0.427c0.249,1.444-0.404,2.979-1.678,3.783c-1.381,0.871-2.794,0.868-4.172-0.005
		c-1.267-0.802-1.918-2.343-1.667-3.788c0.026-0.151,0.261-0.477-0.162-0.42c-0.259,0.035-0.747-0.316-0.736,0.367
		c0.022,1.444,0.003,2.888,0.008,4.332c0.002,0.683,0.314,0.988,1.007,0.991C8.055,16.153,9.27,16.149,10.485,16.149z M10.497,9.176
		c-1.277-0.008-2.327,1.02-2.341,2.292c-0.014,1.278,1.009,2.335,2.279,2.355c1.298,0.021,2.366-1.026,2.368-2.32
		C12.806,10.229,11.77,9.184,10.497,9.176z M14.089,6.851c-1.073,0-1.074,0-1.073,1.065c0,0.193-0.003,0.387,0.002,0.58
		c0.008,0.294,0.161,0.437,0.456,0.47c1.542,0.175,1.821-0.103,1.658-1.649c-0.031-0.293-0.166-0.454-0.462-0.464
		C14.476,6.846,14.283,6.852,14.089,6.851z"/>
</g>
<g id="Слой_7__x28_копия_x29_" display="none">
	<path display="inline" fill="#25798C" d="M4.141,16.677c0-3.452,0-6.903,0-10.355C4.352,5.759,4.73,5.362,5.303,5.16
		c3.346,0,6.692,0,10.038,0c0.689,0.194,1.23,0.56,1.479,1.268c0,3.416,0,6.833,0,10.249c-0.235,0.592-0.643,0.996-1.268,1.162
		c-3.416,0-6.833,0-10.249,0C4.734,17.633,4.333,17.259,4.141,16.677z M10.485,16.149c1.233,0,2.465,0.006,3.698-0.003
		c0.621-0.004,0.94-0.326,0.943-0.948c0.007-1.462-0.008-2.923,0.009-4.385c0.008-0.69-0.491-0.322-0.746-0.353
		c-0.417-0.051-0.175,0.28-0.15,0.427c0.249,1.444-0.404,2.979-1.678,3.783c-1.381,0.871-2.794,0.868-4.172-0.005
		c-1.267-0.802-1.918-2.343-1.667-3.788c0.026-0.151,0.261-0.477-0.162-0.42c-0.259,0.035-0.747-0.316-0.736,0.367
		c0.022,1.444,0.003,2.888,0.008,4.332c0.002,0.683,0.314,0.988,1.007,0.991C8.055,16.153,9.27,16.149,10.485,16.149z M10.497,9.176
		c-1.277-0.008-2.327,1.02-2.341,2.292c-0.014,1.278,1.009,2.335,2.279,2.355c1.298,0.021,2.366-1.026,2.368-2.32
		C12.806,10.229,11.77,9.184,10.497,9.176z M14.089,6.851c-1.073,0-1.074,0-1.073,1.065c0,0.193-0.003,0.387,0.002,0.58
		c0.008,0.294,0.161,0.437,0.456,0.47c1.542,0.175,1.821-0.103,1.658-1.649c-0.031-0.293-0.166-0.454-0.462-0.464
		C14.476,6.846,14.283,6.852,14.089,6.851z"/>
</g>
<g id="Слой_8" display="none">
	<path display="inline" fill="#FFFFFF" d="M4.164,15.671c1.271-0.011,2.45-0.26,3.561-1.098c-1.14-0.184-2.046-0.588-2.493-1.706
		c0.695,0.023,1.34,0.327,2.05-0.003c-1.381-0.63-2.563-1.398-2.962-2.985c0.39,0.023,0.631,0.34,0.987,0.216
		C5.247,9.845,5.039,9.741,4.909,9.578C4.301,8.815,4.186,7.885,4.6,7.12c0.129-0.238,0.22-0.273,0.416-0.056
		c1.346,1.492,3.126,1.832,5.018,1.89c0.36,0.011,0.338-0.17,0.343-0.424c0.027-1.505,1.12-2.592,2.577-2.591
		c0.655,0.001,1.197,0.269,1.596,0.756c0.346,0.42,0.663,0.45,1.077,0.138c0.183-0.138,0.397-0.233,0.61-0.355
		c-0.051,0.486-0.134,0.622-0.915,1.503c0.492,0.052,0.875-0.272,1.373-0.324c-0.21,0.398-0.455,0.707-0.761,0.937
		c-0.344,0.258-0.407,0.566-0.413,0.968c-0.047,3.456-2.325,6.281-5.651,6.959C7.884,16.924,5.968,16.654,4.164,15.671z"/>
</g>
<g id="Слой_8__x28_копия_x29_" display="none">
	<path display="inline" fill="#25798C" d="M4.164,15.671c1.271-0.011,2.45-0.26,3.561-1.098c-1.14-0.184-2.046-0.588-2.493-1.706
		c0.695,0.023,1.34,0.327,2.05-0.003c-1.381-0.63-2.563-1.398-2.962-2.985c0.39,0.023,0.631,0.34,0.987,0.216
		C5.247,9.845,5.039,9.741,4.909,9.578C4.301,8.815,4.186,7.885,4.6,7.12c0.129-0.238,0.22-0.273,0.416-0.056
		c1.346,1.492,3.126,1.832,5.018,1.89c0.36,0.011,0.338-0.17,0.343-0.424c0.027-1.505,1.12-2.592,2.577-2.591
		c0.655,0.001,1.197,0.269,1.596,0.756c0.346,0.42,0.663,0.45,1.077,0.138c0.183-0.138,0.397-0.233,0.61-0.355
		c-0.051,0.486-0.134,0.622-0.915,1.503c0.492,0.052,0.875-0.272,1.373-0.324c-0.21,0.398-0.455,0.707-0.761,0.937
		c-0.344,0.258-0.407,0.566-0.413,0.968c-0.047,3.456-2.325,6.281-5.651,6.959C7.884,16.924,5.968,16.654,4.164,15.671z"/>
</g>
<g id="Слой_9__x28_копия_x29_" display="none">
	<path display="inline" fill="#FFFFFF" d="M13.209,9.691H11.35V8.473c0-0.458,0.303-0.564,0.517-0.564c0.213,0,1.311,0,1.311,0
		V5.896l-1.806-0.007c-2.005,0-2.461,1.501-2.461,2.461v1.341H7.752v2.073h1.159c0,2.661,0,5.867,0,5.867h2.439c0,0,0-3.238,0-5.867
		h1.646L13.209,9.691z"/>
</g>
<g id="Слой_9" display="none">
	<path display="inline" fill="#25798C" d="M13.209,9.691H11.35V8.473c0-0.458,0.303-0.564,0.517-0.564c0.213,0,1.311,0,1.311,0
		V5.896l-1.806-0.007c-2.005,0-2.461,1.501-2.461,2.461v1.341H7.752v2.073h1.159c0,2.661,0,5.867,0,5.867h2.439c0,0,0-3.238,0-5.867
		h1.646L13.209,9.691z"/>
</g>
<g id="Слой_10" display="none">
	<path display="inline" fill="#FFFFFF" d="M0.741,7.911C1.648,7.864,2.555,7.77,3.459,7.799c0.258,0.008,0.575,0.324,0.746,0.578
		c0.655,0.977,1.248,1.996,1.894,2.98c0.255,0.389,0.589,0.727,1.022,1.252c0.19-0.462,0.371-0.723,0.397-0.998
		C7.6,10.751,7.63,9.887,7.666,9.024c0.032-0.758-0.57-0.671-1.134-0.723C7.18,7.569,7.918,7.241,8.788,7.195
		c0.432-0.023,0.866-0.008,1.298-0.004c0.787,0.006,1.029,0.211,1.054,1.021c0.03,0.961-0.049,1.927,0.024,2.883
		c0.033,0.434,0.232,1.135,0.502,1.213c0.597,0.175,0.644-0.549,0.868-0.938c0.635-1.101,1.23-2.226,1.897-3.307
		c0.147-0.238,0.534-0.478,0.799-0.466c0.784,0.035,1.565,0.18,2.342,0.314c0.473,0.081,0.592,0.393,0.349,0.792
		c-0.524,0.86-1.07,1.706-1.61,2.556c-0.064,0.101-0.145,0.192-0.216,0.288c-1.023,1.378-1.008,1.364,0.195,2.548
		c0.546,0.537,1.07,1.112,1.515,1.733c0.549,0.767,0.137,1.643-0.803,1.731c-0.691,0.065-1.397,0.06-2.089-0.003
		c-0.273-0.025-0.55-0.259-0.78-0.452c-0.607-0.509-1.152-1.097-1.79-1.56c-0.761-0.552-1.665-0.087-1.782,0.855
		c-0.153,1.222-0.158,1.224-1.363,1.177c-1.198-0.047-2.246-0.48-3.164-1.235c-2.128-1.749-3.616-3.962-4.674-6.484
		C1.165,9.396,0.947,8.945,0.741,8.489C0.741,8.296,0.741,8.104,0.741,7.911z"/>
</g>
<g id="Слой_10__x28_копия_x29_" display="none">
	<path display="inline" fill="#25798C" d="M0.741,7.911C1.648,7.864,2.555,7.77,3.459,7.799c0.258,0.008,0.575,0.324,0.746,0.578
		c0.655,0.977,1.248,1.996,1.894,2.98c0.255,0.389,0.589,0.727,1.022,1.252c0.19-0.462,0.371-0.723,0.397-0.998
		C7.6,10.751,7.63,9.887,7.666,9.024c0.032-0.758-0.57-0.671-1.134-0.723C7.18,7.569,7.918,7.241,8.788,7.195
		c0.432-0.023,0.866-0.008,1.298-0.004c0.787,0.006,1.029,0.211,1.054,1.021c0.03,0.961-0.049,1.927,0.024,2.883
		c0.033,0.434,0.232,1.135,0.502,1.213c0.597,0.175,0.644-0.549,0.868-0.938c0.635-1.101,1.23-2.226,1.897-3.307
		c0.147-0.238,0.534-0.478,0.799-0.466c0.784,0.035,1.565,0.18,2.342,0.314c0.473,0.081,0.592,0.393,0.349,0.792
		c-0.524,0.86-1.07,1.706-1.61,2.556c-0.064,0.101-0.145,0.192-0.216,0.288c-1.023,1.378-1.008,1.364,0.195,2.548
		c0.546,0.537,1.07,1.112,1.515,1.733c0.549,0.767,0.137,1.643-0.803,1.731c-0.691,0.065-1.397,0.06-2.089-0.003
		c-0.273-0.025-0.55-0.259-0.78-0.452c-0.607-0.509-1.152-1.097-1.79-1.56c-0.761-0.552-1.665-0.087-1.782,0.855
		c-0.153,1.222-0.158,1.224-1.363,1.177c-1.198-0.047-2.246-0.48-3.164-1.235c-2.128-1.749-3.616-3.962-4.674-6.484
		C1.165,9.396,0.947,8.945,0.741,8.489C0.741,8.296,0.741,8.104,0.741,7.911z"/>
</g>
<g id="Слой_11" display="none">
	<g id="Google_plus_2_" display="inline">
		<polygon fill="#FFFFFF" points="16.874,6.576 16.874,4.344 15.755,4.344 15.755,6.576 13.517,6.576 13.517,7.693 15.755,7.693 
			15.755,9.924 16.874,9.924 16.874,7.693 19.112,7.693 19.112,6.576 		"/>
		<path fill="#FFFFFF" d="M10.729,13.514c-1.567-1.14-1.95-1.783-0.454-2.937c0.843-0.65,1.434-1.516,1.434-2.585
			c0-1.165-0.478-2.222-1.376-2.736h1.274l1.084-1.134c0,0-4.087,0-4.851,0c-3.028,0-4.513,1.81-4.513,3.801
			c0,2.035,1.4,3.637,4.134,3.637c-0.424,0.853-0.254,1.641,0.439,2.205c-4.668,0-5.667,2.043-5.667,3.616
			c0,2.04,2.35,3.252,5.169,3.252c3.853,0,5.385-2.037,5.385-3.709C12.785,15.559,12.274,14.668,10.729,13.514z M5.15,7.892
			C4.924,6.18,5.801,4.869,7.108,4.908c1.307,0.039,2.425,1.445,2.651,3.156c0.226,1.713-0.526,2.815-1.833,2.776
			C6.618,10.801,5.375,9.605,5.15,7.892z M7.414,19.726c-1.948,0-3.355-1.229-3.355-2.707c0-1.448,1.651-2.696,3.598-2.675
			c2.161,0,3.45,1.342,3.45,2.75C11.107,18.572,9.904,19.726,7.414,19.726z"/>
	</g>
</g>
<g id="Слой_11__x28_копия_x29_" display="none">
	<g id="Google_plus_1_" display="inline">
		<polygon fill="#25798C" points="16.874,6.576 16.874,4.344 15.755,4.344 15.755,6.576 13.517,6.576 13.517,7.693 15.755,7.693 
			15.755,9.924 16.874,9.924 16.874,7.693 19.112,7.693 19.112,6.576 		"/>
		<path fill="#25798C" d="M10.729,13.514c-1.567-1.14-1.95-1.783-0.454-2.937c0.843-0.65,1.434-1.516,1.434-2.585
			c0-1.165-0.478-2.222-1.376-2.736h1.274l1.084-1.134c0,0-4.087,0-4.851,0c-3.028,0-4.513,1.81-4.513,3.801
			c0,2.035,1.4,3.637,4.134,3.637c-0.424,0.853-0.254,1.641,0.439,2.205c-4.668,0-5.667,2.043-5.667,3.616
			c0,2.04,2.35,3.252,5.169,3.252c3.853,0,5.385-2.037,5.385-3.709C12.785,15.559,12.274,14.668,10.729,13.514z M5.15,7.892
			C4.924,6.18,5.801,4.869,7.108,4.908c1.307,0.039,2.425,1.445,2.651,3.156c0.226,1.713-0.526,2.815-1.833,2.776
			C6.618,10.801,5.375,9.605,5.15,7.892z M7.414,19.726c-1.948,0-3.355-1.229-3.355-2.707c0-1.448,1.651-2.696,3.598-2.675
			c2.161,0,3.45,1.342,3.45,2.75C11.107,18.572,9.904,19.726,7.414,19.726z"/>
	</g>
</g>
<g id="arrow_pagination" display="none">
	<path display="inline" d="M6.086,21.041C6.046,21.02,6.005,21,5.965,20.979c-0.28-0.154-0.352-0.505-0.152-0.754
		c0.047-0.058,0.102-0.11,0.155-0.163c2.575-2.576,5.151-5.151,7.727-7.726c0.044-0.044,0.099-0.079,0.179-0.193
		c-0.06-0.035-0.131-0.059-0.178-0.106c-2.589-2.586-5.178-5.173-7.761-7.765C5.832,4.169,5.738,4.022,5.713,3.882
		C5.661,3.6,5.846,3.439,6.086,3.334c0.081,0,0.161,0,0.242,0c0.129,0.102,0.269,0.193,0.385,0.309
		c2.695,2.69,5.386,5.383,8.079,8.075c0.049,0.049,0.099,0.097,0.142,0.15c0.156,0.196,0.155,0.442-0.002,0.635
		c-0.047,0.058-0.102,0.11-0.155,0.163c-2.688,2.689-5.376,5.377-8.066,8.064c-0.116,0.116-0.255,0.208-0.383,0.311
		C6.247,21.041,6.167,21.041,6.086,21.041z"/>
</g>
<g id="arrow_для_попапов" display="none">
	<path display="inline" fill="#25798C" d="M6.977,15.237c-0.023-0.012-0.046-0.023-0.068-0.036c-0.159-0.087-0.2-0.287-0.086-0.428
		c0.027-0.033,0.058-0.062,0.088-0.092c1.462-1.462,2.924-2.925,4.387-4.387c0.025-0.025,0.056-0.045,0.102-0.109
		c-0.034-0.02-0.074-0.033-0.101-0.06c-1.47-1.468-2.94-2.937-4.406-4.409C6.833,5.657,6.78,5.573,6.766,5.494
		c-0.029-0.16,0.076-0.252,0.212-0.311c0.046,0,0.092,0,0.137,0c0.073,0.058,0.153,0.11,0.219,0.175
		c1.53,1.527,3.058,3.056,4.587,4.585c0.028,0.028,0.056,0.055,0.081,0.085c0.089,0.111,0.088,0.251-0.001,0.361
		c-0.027,0.033-0.058,0.062-0.088,0.092c-1.526,1.527-3.052,3.053-4.58,4.579c-0.066,0.066-0.145,0.118-0.218,0.177
		C7.069,15.237,7.023,15.237,6.977,15.237z"/>
</g>
<g id="Blogosphere_promotion" display="none">
	<path display="inline" fill="#FFFFFF" d="M10.863,5.148c0.159,0.047,0.326,0.06,0.482,0.116c0.761,0.274,1.246,0.785,1.436,1.549
		c0.022,0.088,0.062,0.123,0.15,0.155c0.741,0.268,1.177,0.79,1.287,1.539c0.126,0.857-0.355,1.649-1.174,1.989
		c-0.22,0.091-0.451,0.138-0.691,0.138c-1.34,0.001-2.681-0.013-4.021,0.005c-0.949,0.013-1.752-0.78-1.753-1.71
		c0-0.503,0.21-0.925,0.615-1.249c0.06-0.048,0.077-0.089,0.065-0.166C7.149,6.776,7.842,6.107,8.611,6.209
		C8.683,6.219,8.715,6.2,8.75,6.147c0.3-0.454,0.722-0.755,1.255-0.91c0.126-0.037,0.256-0.059,0.384-0.088
		C10.547,5.148,10.705,5.148,10.863,5.148z M10.304,10.22c0.684,0,1.368,0,2.053,0c0.048,0,0.097,0,0.144-0.006
		c1.024-0.136,1.619-1.228,1.153-2.118c-0.216-0.414-0.554-0.683-1.029-0.784c-0.15-0.032-0.193-0.078-0.219-0.225
		c-0.012-0.068-0.023-0.137-0.039-0.205c-0.18-0.748-0.87-1.301-1.666-1.316C9.967,5.552,9.413,5.859,9.047,6.474
		C8.93,6.67,8.881,6.694,8.669,6.64C8.078,6.49,7.55,7.005,7.708,7.577c0.05,0.182,0.032,0.233-0.124,0.335
		C7.114,8.219,6.911,8.716,7.049,9.246c0.149,0.574,0.683,0.994,1.275,0.978C8.984,10.207,9.644,10.22,10.304,10.22z"/>
	<path display="inline" fill="#FFFFFF" d="M10.244,15.331c-0.05-0.055-0.128-0.055-0.19-0.09c-0.254-0.145-0.385-0.362-0.377-0.64
		c0.008-0.288,0.16-0.502,0.435-0.623c0.069-0.03,0.088-0.064,0.088-0.133c-0.002-0.756-0.002-1.511-0.001-2.267
		c0-0.162,0.077-0.249,0.213-0.247c0.107,0.001,0.19,0.071,0.203,0.174c0.005,0.039,0.004,0.079,0.004,0.119
		c0,0.732,0.001,1.465-0.002,2.197c0,0.082,0.016,0.126,0.103,0.163c0.265,0.111,0.44,0.396,0.423,0.662
		c-0.019,0.307-0.222,0.559-0.519,0.65c-0.031,0.009-0.07,0.003-0.092,0.034C10.437,15.331,10.341,15.331,10.244,15.331z
		 M10.407,14.917c0.171,0.001,0.31-0.128,0.312-0.291c0.002-0.161-0.14-0.301-0.305-0.301c-0.169,0.001-0.31,0.134-0.313,0.295
		C10.098,14.782,10.236,14.915,10.407,14.917z"/>
	<path display="inline" fill="#FFFFFF" d="M11.356,12.143c0-0.189-0.001-0.378,0-0.566c0.001-0.155,0.076-0.242,0.207-0.245
		c0.133-0.002,0.218,0.087,0.22,0.246c0.003,0.338,0.001,0.676,0.002,1.013c0,0.059-0.001,0.12,0.01,0.178
		c0.027,0.144,0.17,0.267,0.326,0.273c0.202,0.007,0.405,0.001,0.608,0.004c0.055,0.001,0.067-0.031,0.084-0.069
		c0.14-0.305,0.439-0.467,0.783-0.427c0.308,0.036,0.565,0.283,0.619,0.595c0.06,0.346-0.162,0.682-0.522,0.789
		c-0.338,0.1-0.721-0.065-0.867-0.382c-0.034-0.073-0.071-0.094-0.151-0.094c-0.213,0-0.426,0.017-0.638-0.012
		c-0.368-0.05-0.66-0.35-0.675-0.707c-0.008-0.198-0.002-0.397-0.002-0.596C11.358,12.143,11.357,12.143,11.356,12.143z
		 M13.795,13.257c0.001-0.17-0.137-0.304-0.312-0.303c-0.168,0.002-0.308,0.138-0.307,0.3c0.001,0.161,0.143,0.298,0.31,0.298
		C13.657,13.552,13.794,13.421,13.795,13.257z"/>
	<path display="inline" fill="#FFFFFF" d="M9.463,12.155c0,0.166,0.001,0.331,0,0.497c-0.004,0.477-0.342,0.802-0.839,0.806
		c-0.168,0.002-0.337,0.002-0.505-0.001c-0.06-0.001-0.089,0.016-0.114,0.072C7.868,13.83,7.56,13.997,7.23,13.954
		c-0.321-0.042-0.572-0.283-0.624-0.602c-0.057-0.346,0.163-0.676,0.519-0.781c0.342-0.101,0.723,0.06,0.868,0.379
		c0.037,0.081,0.081,0.098,0.161,0.095c0.161-0.005,0.323,0,0.485-0.002c0.245-0.002,0.394-0.141,0.396-0.376
		c0.003-0.345,0.001-0.689,0.002-1.034c0-0.046,0.003-0.093,0.012-0.138c0.021-0.108,0.109-0.171,0.222-0.164
		c0.106,0.007,0.187,0.079,0.19,0.187c0.005,0.212,0.001,0.424,0.001,0.636C9.462,12.155,9.462,12.155,9.463,12.155z M7.33,13.546
		c0.172,0.001,0.31-0.128,0.313-0.291c0.002-0.159-0.138-0.3-0.304-0.304c-0.172-0.004-0.315,0.132-0.314,0.301
		C7.024,13.419,7.156,13.546,7.33,13.546z"/>
</g>
<g id="Blogosphere_promotion_1_" display="none">
	<path display="inline" fill="#FFFFFF" d="M15.529,8.383c-0.065,0.176-0.07,0.364-0.101,0.547c-0.106,0.638-0.201,1.278-0.31,1.915
		c-0.078,0.457-0.461,0.781-0.925,0.815c-0.382,0.028-0.763,0.013-1.145,0.015c-0.614,0.004-1.228,0-1.842,0.002
		c-0.262,0.001-0.498-0.07-0.697-0.243c-0.041-0.035-0.068-0.039-0.113-0.005c-0.07,0.052-0.153,0.07-0.241,0.069
		c-0.324-0.001-0.648,0.001-0.972-0.001c-0.261-0.002-0.431-0.169-0.432-0.428c-0.002-1.013-0.002-2.026,0-3.039
		c0-0.246,0.142-0.414,0.387-0.428c0.357-0.021,0.715-0.018,1.073,0c0.096,0.005,0.177,0.046,0.246,0.112
		c0.026,0.025,0.047,0.047,0.088,0.033c0.367-0.132,0.694-0.319,0.905-0.663c0.107-0.173,0.147-0.365,0.147-0.566
		c0.001-0.358,0-0.716,0-1.074c0-0.174,0.053-0.238,0.224-0.274c0.223-0.047,0.445-0.055,0.666,0.014
		c0.401,0.125,0.589,0.422,0.644,0.814c0.054,0.386,0.018,0.776,0.021,1.165c0.001,0.099,0.026,0.124,0.124,0.123
		c0.406-0.006,0.812-0.003,1.218-0.002c0.348,0.001,0.636,0.126,0.849,0.41c0.096,0.128,0.134,0.278,0.185,0.424
		C15.529,8.205,15.529,8.294,15.529,8.383z M12.602,11.249c0-0.001,0-0.001,0-0.001c0.488-0.001,0.976,0.005,1.463-0.003
		c0.374-0.006,0.59-0.187,0.65-0.55c0.127-0.769,0.246-1.54,0.365-2.311c0.064-0.414-0.167-0.678-0.587-0.678
		c-0.484-0.001-0.969,0-1.453,0c-0.24,0-0.309-0.069-0.31-0.31c-0.002-0.416,0.002-0.832-0.008-1.248
		c-0.009-0.394-0.225-0.598-0.601-0.594c-0.076,0.001-0.106,0.02-0.104,0.103c0.006,0.273,0.003,0.546,0.002,0.819
		c-0.001,0.319-0.063,0.622-0.249,0.891c-0.269,0.39-0.649,0.625-1.088,0.775c-0.07,0.024-0.094,0.05-0.094,0.125
		c0.003,0.795,0.001,1.59,0.002,2.384c0.001,0.375,0.225,0.598,0.598,0.599C11.661,11.25,12.132,11.249,12.602,11.249z
		 M10.166,9.553c0-0.481-0.002-0.962,0.002-1.443c0.001-0.075-0.017-0.099-0.095-0.098c-0.269,0.005-0.539,0.004-0.808,0
		C9.19,8.012,9.164,8.028,9.165,8.108c0.003,0.958,0.003,1.917,0,2.875c0,0.075,0.019,0.1,0.097,0.099
		c0.269-0.004,0.539-0.004,0.808,0c0.076,0.001,0.098-0.019,0.097-0.097C10.164,10.508,10.166,10.031,10.166,9.553z"/>
	<path display="inline" fill="#FFFFFF" d="M5.049,7.339C5.101,7.2,5.122,7.052,5.193,6.919c0.256-0.477,0.649-0.756,1.193-0.766
		c0.873-0.016,1.746-0.006,2.62-0.006c0.58,0,1.16,0,1.74,0c0.044,0,0.09,0,0.132,0.011c0.088,0.023,0.153,0.121,0.147,0.21
		c-0.007,0.099-0.081,0.18-0.18,0.192c-0.044,0.005-0.088,0.005-0.133,0.005c-1.395,0-2.79,0-4.186,0
		c-0.175,0-0.348,0.018-0.506,0.1C5.643,6.862,5.472,7.178,5.473,7.597c0.001,1.235,0.001,2.47,0.001,3.705
		c0,0.188-0.003,0.375,0.001,0.563c0.008,0.484,0.276,0.834,0.734,0.961c0.096,0.027,0.195,0.03,0.294,0.031
		c0.259,0.002,0.519,0,0.778,0.001c0.221,0,0.288,0.068,0.288,0.285c0,0.495,0,0.989,0,1.49c0.044-0.004,0.063-0.039,0.087-0.062
		c0.557-0.533,1.116-1.064,1.67-1.6c0.088-0.085,0.182-0.118,0.302-0.118c1.296,0.002,2.593,0,3.889,0.002
		c0.377,0.001,0.673-0.143,0.881-0.46c0.035-0.054,0.058-0.115,0.091-0.171c0.062-0.104,0.171-0.14,0.271-0.092
		c0.103,0.049,0.15,0.165,0.102,0.277c-0.184,0.422-0.498,0.699-0.943,0.823c-0.136,0.038-0.275,0.046-0.415,0.046
		c-1.262-0.001-2.524,0-3.787-0.002c-0.07,0-0.12,0.02-0.17,0.068c-0.664,0.639-1.329,1.275-1.994,1.912
		c-0.063,0.06-0.128,0.115-0.223,0.1c-0.122-0.019-0.183-0.101-0.184-0.254c-0.001-0.276,0-0.553,0-0.829
		c0-0.293-0.003-0.587,0.002-0.88c0.002-0.089-0.016-0.119-0.114-0.119c-0.269,0.001-0.539,0.024-0.807-0.016
		c-0.55-0.081-1-0.491-1.134-1.03c-0.01-0.041-0.004-0.088-0.041-0.119C5.049,10.518,5.049,8.928,5.049,7.339z"/>
</g>
<g id="Blogosphere_promotion_2_" display="none">
	<path display="inline" fill="#FFFFFF" d="M15.514,10.674c-0.034,0.02-0.033,0.057-0.043,0.089c-0.114,0.375-0.444,0.627-0.85,0.651
		c-0.356,0.021-0.714-0.207-0.863-0.556c-0.026-0.062-0.061-0.078-0.124-0.078c-0.299,0.003-0.598,0.002-0.897,0.001
		c-0.133-0.001-0.215-0.065-0.233-0.173c-0.022-0.137,0.077-0.243,0.235-0.244c0.285-0.002,0.57-0.003,0.855,0.001
		c0.07,0.001,0.101-0.017,0.119-0.088c0.109-0.424,0.486-0.711,0.906-0.695c0.45,0.017,0.8,0.327,0.879,0.779
		c0.002,0.009,0.01,0.017,0.015,0.025C15.514,10.481,15.514,10.578,15.514,10.674z M14.595,10.008
		c-0.275,0.001-0.488,0.216-0.487,0.491c0.001,0.274,0.217,0.488,0.491,0.487c0.274-0.001,0.488-0.217,0.487-0.491
		C15.085,10.22,14.87,10.007,14.595,10.008z"/>
	<path display="inline" fill="#FFFFFF" d="M4.955,10.365C5.008,10.199,5.058,10.033,5.18,9.9c0.243-0.266,0.543-0.373,0.892-0.293
		c0.352,0.081,0.584,0.306,0.679,0.659c0.02,0.076,0.05,0.102,0.131,0.1c0.24-0.007,0.481-0.003,0.721-0.002
		c0.034,0,0.069-0.001,0.103,0.005c0.104,0.018,0.178,0.106,0.177,0.209c-0.001,0.101-0.068,0.181-0.172,0.201
		c-0.044,0.008-0.089,0.011-0.133,0.011c-0.251,0.001-0.501,0.002-0.752-0.001c-0.059-0.001-0.091,0.015-0.116,0.073
		c-0.158,0.355-0.512,0.576-0.875,0.553c-0.405-0.025-0.714-0.269-0.841-0.661c-0.009-0.028-0.008-0.062-0.04-0.08
		C4.955,10.571,4.955,10.468,4.955,10.365z M5.871,10.986c0.274,0,0.49-0.215,0.49-0.489c0-0.275-0.213-0.489-0.489-0.49
		c-0.276,0-0.49,0.213-0.49,0.488C5.383,10.771,5.597,10.986,5.871,10.986z"/>
	<path display="inline" fill="#FFFFFF" d="M11.619,10.755c0,0.189-0.001,0.378,0,0.567c0.002,0.201-0.054,0.379-0.193,0.527
		c-0.034,0.037-0.039,0.076-0.039,0.122c0.001,0.254,0.003,0.509-0.001,0.763c-0.001,0.065,0.023,0.096,0.078,0.125
		c0.521,0.274,1.013,0.592,1.475,0.956c0.223,0.176,0.338,0.4,0.338,0.683c0.001,0.237,0.001,0.474,0,0.711
		c0,0.093-0.02,0.177-0.109,0.229c-0.144,0.083-0.311-0.018-0.314-0.197c-0.004-0.237-0.006-0.474,0-0.711
		c0.004-0.165-0.056-0.287-0.187-0.389c-0.467-0.365-0.962-0.684-1.49-0.951c-0.155-0.078-0.222-0.187-0.219-0.359
		c0.006-0.33,0.003-0.66,0.001-0.99c0-0.096,0.027-0.175,0.107-0.232c0.088-0.063,0.13-0.153,0.129-0.257
		c-0.003-0.422,0.02-0.845-0.013-1.267c-0.028-0.355-0.362-0.682-0.717-0.713C10.268,9.356,10.068,9.342,9.874,9.4
		c-0.371,0.111-0.592,0.415-0.598,0.829c-0.005,0.364-0.001,0.729-0.001,1.093c0,0.12,0.036,0.222,0.137,0.295
		c0.077,0.055,0.1,0.134,0.099,0.226c-0.002,0.34-0.002,0.681,0,1.021c0.001,0.146-0.058,0.244-0.19,0.312
		c-0.539,0.276-1.049,0.598-1.525,0.973c-0.124,0.098-0.182,0.216-0.179,0.372c0.004,0.241,0.001,0.481,0.001,0.722
		c0,0.095-0.04,0.17-0.127,0.206c-0.076,0.032-0.155,0.024-0.222-0.034c-0.051-0.043-0.072-0.1-0.072-0.164
		c0-0.275-0.002-0.55,0.004-0.825c0.005-0.254,0.13-0.449,0.325-0.604c0.46-0.367,0.954-0.683,1.474-0.958
		c0.064-0.034,0.087-0.07,0.085-0.142c-0.004-0.251-0.003-0.502-0.001-0.753c0-0.051-0.01-0.091-0.046-0.13
		c-0.125-0.134-0.183-0.298-0.184-0.479c-0.002-0.412-0.007-0.825,0.002-1.237c0.014-0.621,0.558-1.162,1.181-1.185
		c0.303-0.011,0.607-0.023,0.886,0.127c0.43,0.231,0.67,0.589,0.695,1.079c0.01,0.202,0.002,0.405,0.002,0.608L11.619,10.755z"/>
	<path display="inline" fill="#FFFFFF" d="M11.15,6.137c0,0.413-0.283,0.78-0.688,0.882c-0.069,0.017-0.086,0.045-0.085,0.111
		c0.003,0.289,0.002,0.577,0.001,0.866c0,0.092-0.03,0.17-0.115,0.215C10.191,8.25,10.119,8.245,10.049,8.2
		C9.963,8.143,9.951,8.056,9.951,7.965C9.95,7.683,9.948,7.401,9.952,7.119c0.001-0.079-0.018-0.12-0.095-0.154
		C9.478,6.8,9.278,6.422,9.33,5.988c0.042-0.35,0.362-0.682,0.727-0.753C10.618,5.125,11.15,5.564,11.15,6.137z M10.233,5.643
		C9.965,5.643,9.741,5.868,9.741,6.136c0,0.266,0.228,0.493,0.494,0.492c0.267-0.001,0.493-0.229,0.492-0.495
		C10.726,5.865,10.501,5.642,10.233,5.643z"/>
	<path display="inline" fill="#FFFFFF" d="M7.176,8.327C6.675,8.319,6.279,7.967,6.237,7.519C6.191,7.036,6.495,6.604,6.963,6.516
		C7.338,6.445,7.66,6.563,7.887,6.875C8.103,7.172,8.125,7.498,7.96,7.827c-0.035,0.07-0.024,0.105,0.027,0.156
		c0.195,0.189,0.386,0.382,0.577,0.575c0.063,0.064,0.1,0.139,0.067,0.233c-0.03,0.083-0.09,0.128-0.174,0.141
		c-0.086,0.013-0.15-0.033-0.208-0.09c-0.187-0.187-0.376-0.372-0.56-0.563C7.636,8.224,7.594,8.207,7.522,8.246
		C7.405,8.309,7.277,8.332,7.176,8.327z M7.639,7.411c-0.001-0.273-0.217-0.49-0.489-0.49c-0.276,0-0.499,0.225-0.494,0.498
		C6.66,7.686,6.888,7.91,7.153,7.907C7.42,7.905,7.64,7.68,7.639,7.411z"/>
	<path display="inline" fill="#FFFFFF" d="M13.291,8.327c-0.124,0.004-0.277-0.032-0.415-0.116
		c-0.052-0.032-0.081-0.024-0.121,0.018c-0.19,0.194-0.383,0.385-0.575,0.577c-0.055,0.055-0.117,0.099-0.199,0.089
		c-0.158-0.018-0.238-0.193-0.15-0.326c0.023-0.034,0.052-0.064,0.081-0.093c0.184-0.185,0.368-0.371,0.554-0.554
		c0.039-0.038,0.052-0.068,0.028-0.124c-0.234-0.55,0.026-1.112,0.599-1.268c0.35-0.095,0.664-0.001,0.906,0.271
		c0.259,0.291,0.312,0.631,0.153,0.987C13.998,8.132,13.693,8.32,13.291,8.327z M12.83,7.411c0,0.27,0.22,0.494,0.487,0.496
		c0.265,0.002,0.492-0.223,0.497-0.49c0.004-0.273-0.22-0.498-0.495-0.497C13.045,6.921,12.83,7.138,12.83,7.411z"/>
</g>
<g id="ppc" display="none">
	<path display="inline" fill="#FFFFFF" d="M11.185,5.146c0.613,0.128,0.816,0.585,0.91,1.131c0.008,0.048,0.015,0.096,0.023,0.151
		c0.057,0,0.106,0,0.154,0c0.916,0,1.831,0,2.747,0c0.045,0,0.091-0.001,0.135,0.008c0.113,0.023,0.181,0.112,0.171,0.221
		c-0.011,0.113-0.075,0.179-0.188,0.193c-0.045,0.005-0.09,0.006-0.135,0.006c-3.203,0-6.405,0-9.608,0
		c-0.049,0-0.099,0-0.147-0.008c-0.101-0.017-0.16-0.08-0.171-0.182C5.063,6.558,5.113,6.481,5.214,6.446
		C5.263,6.43,5.319,6.429,5.372,6.428c0.78-0.001,1.56-0.001,2.34-0.001c0.045,0,0.089,0,0.141,0
		C7.937,5.837,8.098,5.306,8.77,5.146C9.575,5.146,10.38,5.146,11.185,5.146z M8.263,6.422c1.163,0,2.286,0,3.439,0
		c-0.052-0.172-0.091-0.335-0.149-0.489c-0.088-0.235-0.264-0.36-0.518-0.36c-0.701-0.001-1.403-0.001-2.104,0
		c-0.227,0-0.4,0.104-0.489,0.31C8.369,6.049,8.326,6.229,8.263,6.422z"/>
	<path display="inline" fill="#FFFFFF" d="M5.741,7.29c2.978,0,5.94,0,8.91,0c0,0.105,0.004,0.206-0.001,0.307
		c-0.055,1.333-0.11,2.665-0.166,3.998c-0.072,1.714-0.145,3.428-0.219,5.142c-0.011,0.261-0.105,0.494-0.276,0.695
		c-0.183,0.214-0.421,0.306-0.693,0.323c-0.11,0.007-0.222,0.003-0.332,0.003c-1.913,0-3.826,0-5.739,0.001
		c-0.327,0-0.616-0.083-0.831-0.347c-0.155-0.19-0.245-0.409-0.257-0.653c-0.038-0.767-0.068-1.533-0.1-2.3
		c-0.055-1.292-0.109-2.583-0.163-3.875C5.828,9.527,5.785,8.469,5.741,7.411C5.74,7.375,5.741,7.338,5.741,7.29z M6.187,7.716
		c0,0.059-0.002,0.105,0,0.149c0.05,1.214,0.101,2.428,0.151,3.642c0.072,1.71,0.144,3.42,0.215,5.13
		c0.015,0.363,0.18,0.703,0.719,0.701c1.95-0.009,3.9-0.004,5.85-0.004c0.07,0,0.139-0.005,0.209-0.013
		c0.211-0.024,0.361-0.139,0.437-0.332c0.044-0.112,0.07-0.237,0.075-0.358c0.056-1.255,0.105-2.51,0.157-3.765
		c0.07-1.669,0.141-3.338,0.212-5.007c0.002-0.047,0-0.095,0-0.144C11.531,7.716,8.864,7.716,6.187,7.716z"/>
	<path display="inline" fill="#FFFFFF" d="M10.197,14.555c-0.8,0-1.601,0-2.401,0c-0.025,0-0.049,0-0.074,0
		c-0.195-0.001-0.3-0.076-0.301-0.215c0-0.139,0.104-0.215,0.299-0.215c1.654,0,3.308,0,4.962,0c0.045,0,0.091,0.003,0.134,0.013
		c0.102,0.023,0.153,0.097,0.158,0.195c0.004,0.093-0.041,0.17-0.134,0.2c-0.053,0.017-0.113,0.022-0.169,0.022
		C11.847,14.555,11.022,14.555,10.197,14.555z"/>
	<path display="inline" fill="#FFFFFF" d="M10.193,16.693c-0.817,0-1.634,0-2.45,0c-0.215,0-0.324-0.075-0.321-0.219
		c0.003-0.142,0.107-0.213,0.315-0.213c1.642,0,3.283,0,4.925,0c0.208,0,0.312,0.071,0.315,0.213
		c0.002,0.144-0.107,0.219-0.322,0.219C11.835,16.693,11.014,16.693,10.193,16.693z"/>
	<path display="inline" fill="#FFFFFF" d="M10.186,15.62c-0.813,0-1.625,0-2.438,0c-0.037,0-0.074,0.001-0.111-0.001
		c-0.128-0.009-0.215-0.094-0.217-0.208c-0.002-0.113,0.088-0.203,0.212-0.213c0.037-0.003,0.074-0.001,0.111-0.001
		c1.637,0,3.275,0,4.912,0c0.012,0,0.025,0,0.037,0c0.184,0.001,0.287,0.08,0.284,0.216c-0.003,0.133-0.102,0.208-0.28,0.208
		C11.86,15.62,11.023,15.62,10.186,15.62z"/>
</g>
<g id="ppc_1_" display="none">
	<path display="inline" fill="#FFFFFF" d="M2.37,5.942c0.05-0.112,0.086-0.234,0.154-0.333c0.168-0.245,0.415-0.351,0.71-0.351
		c4.289,0,8.578-0.001,12.867,0.001c0.514,0,0.861,0.348,0.861,0.86c0.002,2.973,0.002,5.947,0,8.92
		c0,0.508-0.338,0.845-0.847,0.857c-0.024,0.001-0.047,0-0.071,0c-4.251,0-8.502-0.001-12.753,0.002
		c-0.376,0-0.665-0.127-0.839-0.471c-0.031-0.062-0.054-0.129-0.081-0.194C2.37,12.136,2.37,9.039,2.37,5.942z M2.992,14.052
		c4.461,0,8.899,0,13.35,0c0-0.065,0-0.121,0-0.178c0-2.555,0-5.11,0-7.665c0-0.288-0.042-0.329-0.328-0.329
		c-4.231,0-8.463,0-12.694,0c-0.286,0-0.328,0.042-0.328,0.329c0,2.555,0,5.11,0,7.665C2.992,13.931,2.992,13.987,2.992,14.052z
		 M9.664,15.192c0.19,0.002,0.365-0.166,0.371-0.357c0.006-0.196-0.166-0.373-0.365-0.375c-0.194-0.001-0.365,0.162-0.371,0.354
		C9.292,15.009,9.468,15.19,9.664,15.192z"/>
	<path display="inline" fill="#FFFFFF" d="M9.664,17.627c-0.912,0-1.823,0-2.735,0c-0.192,0-0.201-0.01-0.202-0.203
		c0-0.09,0.005-0.181-0.001-0.271c-0.009-0.124,0.046-0.17,0.167-0.169c0.456,0.003,0.912,0.001,1.367,0.001
		c0.207,0,0.217-0.01,0.217-0.217c0.001-0.331,0.001-0.331,0.336-0.331c0.612,0,1.225,0,1.837,0c0.181,0,0.202,0.023,0.204,0.207
		c0.004,0.36-0.045,0.341,0.35,0.34c0.408,0,0.817,0.002,1.225-0.001c0.126-0.001,0.186,0.041,0.176,0.174
		c-0.007,0.094-0.001,0.19-0.002,0.285c-0.001,0.168-0.016,0.183-0.192,0.183c-0.636,0-1.272,0-1.909,0
		C10.224,17.627,9.944,17.627,9.664,17.627z"/>
	<path display="inline" fill="#FFFFFF" d="M12.158,11.044c-0.033,0.215-0.056,0.408-0.092,0.599
		c-0.068,0.354-0.358,0.465-0.644,0.243c-0.288-0.224-0.57-0.457-0.85-0.693c-0.123-0.103-0.253-0.153-0.415-0.151
		c-0.551,0.006-1.101,0.003-1.652,0.002c-0.349-0.001-0.54-0.187-0.54-0.535c-0.002-0.921-0.002-1.842,0-2.763
		C7.964,7.39,8.155,7.202,8.513,7.202c1.401-0.001,2.801-0.001,4.202,0c0.359,0,0.543,0.187,0.544,0.546
		c0.001,0.916,0.001,1.833,0,2.749c0,0.367-0.183,0.546-0.554,0.547C12.525,11.044,12.345,11.044,12.158,11.044z M8.508,10.504
		c0.567,0,1.118,0.003,1.668-0.001c0.268-0.002,0.501,0.078,0.707,0.251c0.22,0.186,0.447,0.364,0.686,0.558
		c0.02-0.127,0.036-0.233,0.055-0.339c0.056-0.311,0.244-0.468,0.562-0.47c0.174-0.001,0.348,0,0.521,0c0-0.93,0-1.843,0-2.754
		c-1.406,0-2.799,0-4.199,0C8.508,8.668,8.508,9.578,8.508,10.504z"/>
	<path display="inline" fill="#FFFFFF" d="M6.621,8.827c0,0.929,0,1.838,0,2.763c0.172,0,0.337-0.001,0.502,0
		c0.351,0.002,0.532,0.155,0.593,0.504c0.016,0.093,0.029,0.187,0.045,0.299c0.044-0.031,0.078-0.053,0.109-0.078
		c0.162-0.131,0.336-0.252,0.483-0.398c0.31-0.307,0.69-0.354,1.095-0.323c0.176,0.013,0.283,0.128,0.276,0.282
		c-0.007,0.149-0.121,0.271-0.287,0.25c-0.376-0.049-0.656,0.104-0.917,0.35c-0.179,0.169-0.38,0.315-0.572,0.47
		c-0.325,0.263-0.617,0.157-0.689-0.251c-0.032-0.182-0.055-0.365-0.085-0.564c-0.193,0-0.381,0.001-0.57,0
		c-0.343-0.002-0.531-0.186-0.531-0.526c-0.001-0.926-0.001-1.852,0-2.778c0-0.343,0.182-0.531,0.525-0.534
		c0.232-0.003,0.465-0.002,0.697,0.015C7.438,8.318,7.519,8.439,7.51,8.578C7.502,8.709,7.41,8.806,7.275,8.822
		C7.219,8.828,7.162,8.827,7.105,8.827C6.949,8.828,6.793,8.827,6.621,8.827z"/>
</g>
<g id="ppc_2_" display="none">
	<path display="inline" fill="#FFFFFF" d="M7.869,11.43c0.012-0.006,0.011-0.019,0.014-0.03c0.042-0.129,0.129-0.209,0.262-0.231
		c0.135-0.023,0.244,0.027,0.324,0.137c0.019,0.026,0.034,0.055,0.042,0.087c0.005,0.022,0.016,0.028,0.039,0.028
		c0.095-0.001,0.191-0.001,0.286,0c0.058,0.001,0.093,0.049,0.072,0.098c-0.014,0.033-0.041,0.045-0.076,0.045
		c-0.093,0-0.186,0.001-0.279-0.001c-0.025,0-0.036,0.007-0.043,0.031c-0.042,0.135-0.168,0.227-0.31,0.227
		c-0.143,0-0.271-0.093-0.314-0.227c-0.004-0.014-0.004-0.03-0.018-0.04C7.869,11.514,7.869,11.472,7.869,11.43z M8.014,11.491
		c-0.001,0.103,0.082,0.187,0.184,0.187c0.101,0,0.184-0.082,0.186-0.183c0.002-0.101-0.084-0.187-0.186-0.187
		C8.097,11.308,8.015,11.389,8.014,11.491z"/>
	<path display="inline" fill="#FFFFFF" d="M9.705,9.706C9.743,9.722,9.784,9.728,9.819,9.75c0.121,0.076,0.179,0.185,0.163,0.326
		c-0.015,0.134-0.093,0.225-0.221,0.27c-0.027,0.01-0.035,0.021-0.034,0.048c0.002,0.095,0.001,0.191,0,0.286
		c-0.001,0.039-0.024,0.063-0.061,0.069c-0.029,0.005-0.061-0.012-0.075-0.039c-0.008-0.016-0.007-0.034-0.007-0.051
		c0-0.091-0.001-0.181,0-0.272c0-0.022-0.006-0.032-0.028-0.039c-0.14-0.044-0.232-0.17-0.23-0.314
		c0.002-0.145,0.095-0.27,0.233-0.313c0.012-0.004,0.026-0.002,0.033-0.015C9.631,9.706,9.668,9.706,9.705,9.706z M9.841,10.04
		c0.004-0.099-0.075-0.184-0.174-0.189C9.561,9.846,9.476,9.924,9.472,10.03c-0.004,0.101,0.078,0.187,0.181,0.191
		C9.752,10.224,9.837,10.142,9.841,10.04z"/>
	<path display="inline" fill="#FFFFFF" d="M9.596,11.786c0.047,0,0.093,0.001,0.14,0c0.066-0.001,0.115-0.048,0.116-0.11
		c0.001-0.062-0.048-0.111-0.114-0.112c-0.051-0.001-0.102,0-0.154,0c-0.15-0.001-0.259-0.099-0.266-0.248
		c-0.006-0.132,0.091-0.248,0.234-0.261c0.03-0.003,0.037-0.013,0.035-0.04c-0.002-0.024-0.001-0.049,0.001-0.073
		c0.003-0.038,0.032-0.064,0.07-0.064c0.038,0,0.067,0.025,0.07,0.064C9.729,10.971,9.728,11,9.727,11.029
		c-0.001,0.018,0.006,0.025,0.024,0.024c0.034-0.001,0.067-0.001,0.101,0c0.053,0,0.086,0.027,0.087,0.07
		c0.001,0.043-0.033,0.074-0.086,0.075c-0.09,0.001-0.179,0-0.269,0c-0.062,0-0.103,0.028-0.117,0.079
		c-0.02,0.07,0.027,0.136,0.099,0.141c0.067,0.004,0.135-0.002,0.202,0.005c0.109,0.011,0.208,0.102,0.223,0.208
		c0.018,0.127-0.046,0.241-0.159,0.283c-0.026,0.01-0.054,0.015-0.081,0.017c-0.02,0.001-0.025,0.01-0.024,0.029
		c0.001,0.027,0.001,0.054-0.001,0.08c-0.002,0.041-0.03,0.068-0.069,0.068c-0.04,0.001-0.069-0.027-0.072-0.069
		c-0.002-0.026-0.002-0.051,0-0.077c0.001-0.022-0.005-0.031-0.029-0.03c-0.035,0.002-0.07,0.001-0.105,0
		c-0.052-0.001-0.084-0.029-0.084-0.073c0-0.045,0.031-0.072,0.084-0.072C9.5,11.786,9.548,11.786,9.596,11.786z"/>
	<path display="inline" fill="#FFFFFF" d="M8.609,12.196c0.058-0.004,0.114,0.005,0.164,0.034c0.023,0.013,0.035,0.009,0.053-0.009
		c0.065-0.067,0.131-0.132,0.197-0.198C9.045,12.003,9.07,11.989,9.102,12c0.026,0.009,0.043,0.027,0.049,0.054
		c0.007,0.031-0.008,0.054-0.029,0.074c-0.066,0.066-0.131,0.132-0.198,0.197c-0.016,0.016-0.018,0.027-0.008,0.047
		c0.112,0.22-0.044,0.478-0.29,0.48c-0.159,0.002-0.307-0.129-0.326-0.279c-0.024-0.19,0.101-0.341,0.263-0.374
		C8.579,12.197,8.594,12.197,8.609,12.196z M8.626,12.708c0.101,0,0.185-0.083,0.185-0.184c0-0.1-0.083-0.184-0.183-0.186
		c-0.101-0.001-0.187,0.084-0.186,0.186C8.442,12.625,8.525,12.708,8.626,12.708z"/>
	<path display="inline" fill="#FFFFFF" d="M8.954,10.464c-0.002,0.062-0.013,0.108-0.037,0.15c-0.011,0.019-0.008,0.029,0.007,0.044
		c0.067,0.065,0.132,0.131,0.198,0.197c0.025,0.024,0.04,0.052,0.026,0.087c-0.019,0.049-0.079,0.061-0.12,0.022
		c-0.047-0.045-0.092-0.092-0.139-0.138c-0.026-0.025-0.047-0.058-0.078-0.075c-0.035-0.019-0.063,0.02-0.097,0.028
		c-0.209,0.054-0.416-0.098-0.417-0.315c-0.001-0.202,0.17-0.347,0.359-0.33c0.137,0.012,0.259,0.118,0.289,0.249
		C8.953,10.416,8.952,10.447,8.954,10.464z M8.442,10.461c-0.001,0.101,0.081,0.184,0.182,0.186c0.1,0.002,0.185-0.082,0.187-0.182
		c0.002-0.102-0.082-0.187-0.184-0.188C8.525,10.278,8.442,10.36,8.442,10.461z"/>
	<path display="inline" fill="#FFFFFF" d="M10.704,10.79c-0.059,0.003-0.116-0.007-0.167-0.036c-0.02-0.011-0.032-0.008-0.047,0.008
		c-0.065,0.067-0.131,0.132-0.197,0.197c-0.02,0.02-0.043,0.035-0.074,0.029c-0.052-0.011-0.076-0.067-0.044-0.111
		c0.018-0.024,0.041-0.044,0.062-0.066c0.051-0.051,0.101-0.102,0.153-0.153c0.013-0.013,0.018-0.022,0.008-0.041
		c-0.1-0.197,0-0.417,0.214-0.475c0.182-0.049,0.379,0.09,0.402,0.277C11.036,10.61,10.89,10.784,10.704,10.79z M10.871,10.462
		c0-0.101-0.083-0.184-0.184-0.185c-0.101,0-0.185,0.082-0.186,0.183c-0.001,0.102,0.084,0.187,0.186,0.187
		C10.789,10.647,10.871,10.564,10.871,10.462z"/>
	<path display="inline" fill="#FFFFFF" d="M10.357,12.507c0.003-0.05,0.016-0.097,0.041-0.139c0.01-0.017,0.005-0.026-0.007-0.038
		c-0.069-0.068-0.137-0.136-0.205-0.205c-0.02-0.021-0.033-0.045-0.023-0.076c0.009-0.028,0.028-0.045,0.057-0.051
		c0.031-0.006,0.054,0.01,0.074,0.03c0.065,0.065,0.13,0.13,0.195,0.195c0.015,0.015,0.026,0.02,0.047,0.009
		c0.206-0.107,0.45,0.025,0.477,0.254c0.02,0.175-0.099,0.33-0.263,0.36c-0.181,0.033-0.35-0.082-0.385-0.26
		C10.359,12.56,10.359,12.533,10.357,12.507z M10.871,12.525c0.001-0.101-0.08-0.185-0.182-0.187
		c-0.1-0.002-0.185,0.081-0.187,0.182c-0.002,0.102,0.081,0.188,0.184,0.188C10.788,12.708,10.87,12.627,10.871,12.525z"/>
	<path display="inline" fill="#FFFFFF" d="M10.623,11.421c0.047,0,0.093-0.001,0.139,0.001c0.023,0.001,0.032-0.007,0.039-0.028
		c0.05-0.157,0.2-0.25,0.363-0.226c0.158,0.024,0.28,0.166,0.279,0.326c-0.001,0.159-0.12,0.299-0.277,0.324
		c-0.162,0.026-0.316-0.068-0.365-0.223c-0.007-0.022-0.015-0.031-0.04-0.031c-0.096,0.002-0.193,0.001-0.289,0
		c-0.04-0.001-0.064-0.021-0.071-0.058c-0.007-0.034,0.008-0.058,0.036-0.076c0.015-0.009,0.031-0.008,0.047-0.009
		C10.53,11.421,10.577,11.421,10.623,11.421z M11.298,11.494c0.001-0.103-0.082-0.187-0.184-0.187c-0.101,0-0.184,0.082-0.186,0.183
		c-0.002,0.101,0.084,0.187,0.186,0.187C11.215,11.678,11.297,11.596,11.298,11.494z"/>
	<path display="inline" fill="#FFFFFF" d="M9.728,12.46c0,0.047,0.001,0.093-0.001,0.139c-0.001,0.023,0.008,0.032,0.029,0.038
		c0.157,0.05,0.25,0.2,0.225,0.363c-0.024,0.158-0.166,0.28-0.326,0.279c-0.159-0.001-0.299-0.121-0.324-0.277
		C9.306,12.84,9.4,12.687,9.555,12.638c0.022-0.007,0.031-0.016,0.03-0.041c-0.002-0.096-0.001-0.193,0-0.289
		c0.001-0.04,0.022-0.064,0.058-0.071c0.034-0.007,0.058,0.008,0.076,0.036c0.009,0.015,0.008,0.031,0.008,0.047
		C9.728,12.367,9.728,12.413,9.728,12.46z M9.656,13.135c0.102,0,0.183-0.08,0.185-0.183c0.002-0.102-0.083-0.187-0.185-0.187
		c-0.1,0-0.183,0.083-0.185,0.184C9.47,13.051,9.553,13.135,9.656,13.135z"/>
</g>
<g id="ppc_3_" display="none">
	<path display="inline" fill="#FFFFFF" d="M10.929,9.224c0.098,0.034,0.133,0.103,0.133,0.206c-0.002,0.656-0.001,1.311-0.001,1.967
		c0,0.017,0,0.034,0,0.054c-0.055,0-0.108,0-0.164,0c0-0.686,0-1.371,0-2.059c-0.61,0-1.215,0-1.827,0c0,0.017,0,0.034,0,0.05
		c0,0.356,0,0.712,0,1.068c0,0.138-0.063,0.2-0.201,0.2c-0.248,0-0.496,0-0.743,0c-0.016,0-0.031,0-0.049,0c0,0.817,0,1.631,0,2.448
		c0.472,0,0.943,0,1.417,0c0,0.056,0,0.108,0,0.165c-0.016,0.001-0.031,0.002-0.046,0.002c-0.448,0-0.896,0-1.344,0
		c-0.133,0-0.196-0.063-0.196-0.196c0-0.795,0-1.591,0-2.386c0-0.095,0.028-0.18,0.086-0.257c0.287-0.379,0.573-0.758,0.859-1.138
		C8.897,9.286,8.958,9.25,9.027,9.224C9.661,9.224,10.295,9.224,10.929,9.224z M8.159,10.541c0.254,0,0.498,0,0.742,0
		c0-0.326,0-0.649,0-0.984C8.65,9.89,8.406,10.213,8.159,10.541z"/>
	<path display="inline" fill="#FFFFFF" d="M11.075,12.949c0.089,0.095,0.177,0.188,0.263,0.283c0.118,0.131,0.083,0.322-0.072,0.395
		c-0.097,0.046-0.205,0.024-0.287-0.062c-0.083-0.086-0.165-0.173-0.244-0.262c-0.023-0.026-0.041-0.029-0.073-0.015
		C10.11,13.53,9.503,13.26,9.31,12.689c-0.152-0.451,0.068-0.977,0.496-1.186c0.522-0.255,1.124-0.041,1.357,0.491
		c0.135,0.309,0.108,0.615-0.061,0.907c-0.007,0.012-0.015,0.024-0.023,0.037C11.079,12.94,11.078,12.943,11.075,12.949z
		 M10.829,12.994c0.398-0.416,0.27-0.973-0.034-1.233c-0.299-0.257-0.758-0.267-1.065-0.012c-0.318,0.264-0.395,0.715-0.181,1.065
		c0.107,0.175,0.259,0.297,0.454,0.359c0.278,0.088,0.534,0.027,0.769-0.137c0.02,0.045,0.03,0.092,0.058,0.124
		c0.087,0.101,0.18,0.198,0.273,0.295c0.033,0.034,0.087,0.034,0.117,0.005c0.031-0.03,0.03-0.078-0.004-0.116
		c-0.052-0.058-0.106-0.114-0.159-0.171C10.991,13.103,10.934,13.023,10.829,12.994z"/>
	<path display="inline" fill="#FFFFFF" d="M9.541,12.389C9.538,12,9.856,11.679,10.25,11.673c0.389-0.006,0.714,0.317,0.717,0.712
		c0.002,0.391-0.314,0.71-0.708,0.714C9.866,13.104,9.545,12.785,9.541,12.389z M9.708,12.383c-0.003,0.301,0.239,0.548,0.541,0.551
		c0.302,0.003,0.548-0.237,0.552-0.54c0.004-0.303-0.238-0.55-0.544-0.554C9.958,11.836,9.711,12.08,9.708,12.383z"/>
</g>
<g id="ppc_4_" display="none">
	<path display="inline" fill="#FFFFFF" d="M7.934,9.337c0.031-0.046,0.075-0.055,0.127-0.055c1.278,0.001,2.556,0.001,3.834,0.001
		c0.018,0,0.037,0.001,0.055,0.004c0.042,0.008,0.069,0.041,0.069,0.08c-0.001,0.041-0.031,0.076-0.075,0.08
		c-0.036,0.003-0.072,0.004-0.108,0.001c-0.033-0.003-0.042,0.011-0.038,0.04c0.001,0.009,0,0.019,0,0.028c0,0.765,0,1.529,0,2.294
		c0,0.081-0.019,0.152-0.085,0.205c-0.05,0.04-0.108,0.048-0.169,0.048c-0.841,0-1.681,0-2.522,0c-0.205,0-0.41,0-0.614,0
		c-0.12,0-0.203-0.059-0.232-0.162c-0.009-0.031-0.009-0.063-0.009-0.095c0-0.77,0-1.54,0.001-2.31c0-0.037-0.006-0.054-0.047-0.048
		C8.099,9.452,8.075,9.448,8.051,9.45C8,9.455,7.96,9.438,7.934,9.393C7.934,9.375,7.934,9.356,7.934,9.337z M9.986,9.449
		c-0.536,0-1.072,0-1.608-0.001c-0.037,0-0.045,0.011-0.045,0.046c0.001,0.773,0.001,1.545,0.001,2.318
		c0,0.07,0.016,0.086,0.083,0.086c1.045,0,2.091,0,3.136,0c0.065,0,0.082-0.017,0.082-0.083c0-0.775,0-1.551,0.001-2.326
		c0-0.035-0.01-0.04-0.042-0.04C11.058,9.45,10.522,9.449,9.986,9.449z"/>
	<path display="inline" fill="#FFFFFF" d="M10.106,12.851c0,0.131,0,0.259,0,0.386c0,0.057-0.029,0.091-0.076,0.094
		c-0.05,0.004-0.086-0.033-0.087-0.091c-0.001-0.109,0-0.218,0-0.327c0-0.02,0-0.039,0-0.062c-0.018,0.003-0.026,0.016-0.035,0.026
		c-0.139,0.139-0.279,0.278-0.418,0.417c-0.025,0.025-0.053,0.044-0.092,0.034c-0.053-0.013-0.079-0.072-0.051-0.119
		c0.009-0.015,0.021-0.027,0.033-0.04c0.178-0.178,0.355-0.356,0.534-0.533c0.022-0.022,0.031-0.043,0.03-0.073
		c-0.002-0.046-0.002-0.093,0-0.14c0.001-0.024-0.006-0.032-0.031-0.032c-0.089,0.001-0.178,0.001-0.267,0
		c-0.043-0.001-0.074-0.027-0.082-0.063c-0.008-0.037,0.008-0.074,0.042-0.091c0.017-0.009,0.035-0.011,0.054-0.011
		c0.241,0,0.481-0.001,0.722,0c0.059,0,0.097,0.036,0.096,0.084c-0.001,0.049-0.038,0.081-0.098,0.082c-0.081,0-0.162,0.001-0.243,0
		c-0.022,0-0.033,0.006-0.029,0.029c0,0.003,0,0.005,0,0.008c0,0.058-0.015,0.123,0.006,0.174c0.021,0.05,0.077,0.086,0.118,0.127
		c0.144,0.144,0.288,0.288,0.432,0.432c0.008,0.008,0.015,0.015,0.022,0.023c0.035,0.041,0.036,0.089,0.002,0.121
		c-0.033,0.031-0.081,0.03-0.118-0.005c-0.03-0.028-0.059-0.058-0.088-0.087c-0.113-0.113-0.226-0.226-0.339-0.338
		C10.132,12.867,10.125,12.855,10.106,12.851z"/>
	<path display="inline" fill="#FFFFFF" d="M10.016,10.309c0,0.11,0.001,0.221-0.001,0.331c0,0.029,0.006,0.038,0.037,0.038
		c0.218-0.001,0.436-0.001,0.654-0.001c0.089,0,0.116,0.029,0.11,0.119c-0.023,0.356-0.197,0.613-0.517,0.768
		c-0.358,0.174-0.821,0.06-1.062-0.257c-0.256-0.337-0.256-0.771,0.007-1.102c0.172-0.216,0.403-0.323,0.679-0.331
		c0.058-0.002,0.092,0.034,0.092,0.096C10.017,10.083,10.016,10.196,10.016,10.309z M9.85,10.41c0-0.109-0.001-0.218,0.001-0.327
		c0.001-0.033-0.009-0.039-0.04-0.034c-0.34,0.057-0.599,0.364-0.599,0.71c0,0.354,0.26,0.657,0.609,0.711
		c0.391,0.06,0.753-0.2,0.821-0.587c0.006-0.036-0.001-0.042-0.035-0.042c-0.217,0.001-0.433,0.001-0.65,0.001
		c-0.079,0-0.107-0.03-0.108-0.109C9.849,10.625,9.85,10.518,9.85,10.41z"/>
	<path display="inline" fill="#FFFFFF" d="M10.603,10.496c-0.1,0-0.199,0-0.299,0c-0.067,0-0.097-0.03-0.097-0.097
		c0-0.199,0-0.399,0-0.598c0-0.07,0.031-0.099,0.1-0.098c0.378,0.008,0.683,0.311,0.693,0.689c0.002,0.075-0.026,0.103-0.102,0.104
		C10.8,10.497,10.701,10.496,10.603,10.496z M10.603,10.333c0.066,0,0.133-0.001,0.199,0c0.021,0,0.026-0.004,0.022-0.027
		c-0.037-0.208-0.218-0.39-0.423-0.428c-0.026-0.005-0.032,0-0.032,0.026c0.001,0.132,0.001,0.263,0,0.395
		c0,0.026,0.008,0.035,0.034,0.034C10.47,10.332,10.537,10.333,10.603,10.333z"/>
</g>
<g id="ppc_5_" display="none">
	<path display="inline" fill="#FFFFFF" d="M7.928,11.323c0-0.011,0-0.021,0-0.032c0.019-0.06,0.063-0.081,0.122-0.079
		c0.057,0.001,0.114,0,0.176,0c0.03-0.446,0.198-0.829,0.512-1.143c0.313-0.314,0.696-0.482,1.141-0.514c0-0.059,0-0.112,0-0.165
		c0-0.081,0.031-0.123,0.092-0.125c0.062-0.001,0.095,0.042,0.095,0.125c0,0.054,0,0.108,0,0.164
		c0.451,0.029,0.835,0.198,1.15,0.512c0.315,0.314,0.483,0.699,0.514,1.146c0.061,0,0.118,0.001,0.175,0
		c0.058-0.001,0.101,0.02,0.12,0.078c0,0.013,0,0.027,0,0.04c-0.025,0.057-0.069,0.075-0.128,0.072c-0.055-0.002-0.111,0-0.168,0
		c-0.031,0.45-0.201,0.834-0.517,1.148c-0.315,0.314-0.701,0.48-1.147,0.509c0,0.058,0,0.112,0,0.165
		c0,0.081-0.032,0.123-0.092,0.124c-0.062,0.001-0.095-0.043-0.095-0.125c0-0.054,0-0.108,0-0.165
		c-0.447-0.031-0.829-0.201-1.141-0.514c-0.313-0.314-0.481-0.697-0.512-1.143c-0.061,0-0.118-0.001-0.175,0
		C7.991,11.404,7.947,11.383,7.928,11.323z M11.504,11.637c-0.436,0.399-0.943,0.607-1.528,0.606c-0.586,0-1.093-0.21-1.527-0.608
		c0.156,0.741,0.817,1.211,1.43,1.23c0-0.014,0-0.029,0-0.043c0-0.051,0-0.101,0.002-0.152c0.002-0.039,0.024-0.065,0.06-0.078
		c0.034-0.013,0.07-0.009,0.092,0.018c0.018,0.022,0.03,0.054,0.032,0.082c0.005,0.058,0.001,0.116,0.001,0.174
		C10.757,12.841,11.374,12.308,11.504,11.637z M9.981,10.522c-0.422,0.001-0.766,0.346-0.765,0.766
		c0.002,0.42,0.346,0.763,0.765,0.762c0.421,0,0.765-0.346,0.764-0.767C10.744,10.863,10.401,10.522,9.981,10.522z M9.878,9.745
		c-0.352,0.025-0.657,0.15-0.92,0.375c-0.249,0.214-0.414,0.481-0.494,0.802c0.432-0.386,0.936-0.589,1.514-0.588
		c0.58,0.001,1.084,0.206,1.516,0.599c-0.172-0.734-0.859-1.18-1.429-1.182c0,0.061,0.001,0.122,0,0.183
		c-0.001,0.041-0.021,0.072-0.059,0.087c-0.035,0.014-0.073,0.01-0.096-0.019C9.893,9.98,9.882,9.948,9.88,9.92
		C9.875,9.863,9.878,9.806,9.878,9.745z M8.457,11.212c0.041,0,0.075-0.001,0.11,0c0.017,0,0.035,0.002,0.051,0.005
		c0.045,0.01,0.072,0.044,0.072,0.088c0.001,0.046-0.026,0.083-0.073,0.091c-0.04,0.007-0.081,0.006-0.128,0.009
		c0.222,0.237,0.479,0.41,0.78,0.523c-0.321-0.425-0.323-0.848-0.01-1.272C9.024,10.721,8.629,10.993,8.457,11.212z M10.704,10.657
		c0.311,0.426,0.309,0.845-0.007,1.267c0.297-0.115,0.55-0.285,0.77-0.521c-0.044,0-0.078,0.002-0.111,0
		c-0.068-0.005-0.108-0.06-0.091-0.121c0.012-0.041,0.05-0.066,0.106-0.067c0.04-0.001,0.08,0,0.13,0
		C11.276,10.96,11.015,10.778,10.704,10.657z"/>
	<path display="inline" fill="#FFFFFF" d="M10.322,11.308c0,0.191-0.156,0.346-0.347,0.344c-0.189-0.002-0.343-0.157-0.343-0.345
		c0-0.19,0.158-0.346,0.347-0.344C10.169,10.964,10.322,11.118,10.322,11.308z M9.977,11.15c-0.085,0-0.155,0.07-0.155,0.155
		c-0.001,0.087,0.07,0.159,0.157,0.158c0.085-0.001,0.155-0.071,0.157-0.155C10.136,11.223,10.063,11.15,9.977,11.15z"/>
</g>
<g id="cooperation_red_2_" display="none">
	<path display="inline" fill="#E53935" d="M8.098,14.582c-0.063-0.025-0.086-0.071-0.085-0.138c0.003-0.15,0.001-0.3,0.001-0.45
		c0-0.095,0.04-0.135,0.135-0.135c0.09-0.001,0.179,0,0.273,0c0.006-0.071,0.01-0.139,0.017-0.207
		c0.051-0.485,0.195-0.936,0.492-1.329c0.045-0.059,0.095-0.114,0.145-0.168c0.052-0.056,0.118-0.062,0.164-0.017
		c0.047,0.045,0.046,0.108-0.01,0.165c-0.171,0.176-0.294,0.381-0.388,0.605c-0.115,0.272-0.176,0.557-0.196,0.851
		c-0.002,0.031-0.004,0.062-0.006,0.097c0.09,0,0.178,0,0.272,0c0.015-0.122,0.057-0.235,0.13-0.336
		c0.139-0.19,0.329-0.308,0.551-0.371c0.363-0.104,0.716-0.075,1.05,0.109c0.116,0.064,0.214,0.15,0.293,0.257
		c0.037,0.05,0.035,0.1-0.006,0.133c-0.041,0.033-0.093,0.028-0.131-0.022c-0.14-0.184-0.331-0.285-0.551-0.329
		c-0.353-0.07-0.683-0.022-0.967,0.218c-0.114,0.096-0.177,0.22-0.186,0.34c0.747,0,1.495,0,2.245,0
		c-0.008-0.249-0.047-0.489-0.12-0.723c-0.094-0.301-0.233-0.578-0.451-0.809c-0.107-0.114-0.229-0.208-0.371-0.276
		c-0.027-0.013-0.056-0.03-0.074-0.053c-0.042-0.053-0.019-0.122,0.047-0.16c0.067-0.038,0.138-0.072,0.2-0.117
		c0.253-0.18,0.421-0.428,0.547-0.707c0.102-0.226,0.166-0.463,0.198-0.708c0.002-0.019,0.006-0.038,0.011-0.056
		c0.015-0.054,0.065-0.088,0.117-0.08c0.054,0.008,0.096,0.051,0.089,0.108c-0.013,0.107-0.029,0.215-0.053,0.321
		c-0.084,0.369-0.231,0.709-0.473,1.005c-0.104,0.128-0.225,0.238-0.369,0.334c0.32,0.213,0.532,0.509,0.683,0.852
		c0.149,0.339,0.222,0.697,0.235,1.073c0.09,0,0.175,0,0.261,0c0.117,0,0.151,0.034,0.151,0.151c0,0.145-0.002,0.29,0.001,0.434
		c0.001,0.067-0.022,0.113-0.085,0.138C10.622,14.582,9.36,14.582,8.098,14.582z M8.231,14.364c1.174,0,2.345,0,3.52,0
		c0-0.097,0-0.19,0-0.287c-1.174,0-2.346,0-3.52,0C8.231,14.174,8.231,14.267,8.231,14.364z"/>
	<path display="inline" fill="#E53935" d="M11.884,9.286c0.063,0.025,0.086,0.071,0.085,0.138c-0.003,0.146-0.001,0.293-0.001,0.439
		c0,0.11-0.036,0.146-0.145,0.146c-1.037,0-2.075,0-3.112,0c-0.022,0-0.044,0-0.069,0c0.007,0.225,0.039,0.441,0.099,0.652
		c0.093,0.329,0.236,0.631,0.473,0.884c0.109,0.117,0.234,0.213,0.38,0.28c0.05,0.023,0.088,0.057,0.084,0.117
		c-0.006,0.08-0.083,0.119-0.162,0.084c-0.173-0.079-0.324-0.189-0.454-0.328c-0.303-0.323-0.478-0.712-0.567-1.141
		c-0.034-0.163-0.044-0.33-0.066-0.496c-0.002-0.015-0.003-0.03-0.005-0.052c-0.088,0-0.173,0-0.259,0
		c-0.117,0-0.151-0.034-0.151-0.151c0-0.145,0.002-0.29-0.001-0.434C8.012,9.357,8.036,9.311,8.098,9.286
		C9.36,9.286,10.622,9.286,11.884,9.286z M8.231,9.791c1.174,0,2.345,0,3.52,0c0-0.096,0-0.19,0-0.287c-1.174,0-2.345,0-3.52,0
		C8.231,9.601,8.231,9.694,8.231,9.791z"/>
	<path display="inline" fill="#E53935" d="M9.996,10.392c0.283,0,0.565,0,0.848,0c0.114,0,0.157,0.056,0.127,0.165
		c-0.071,0.258-0.171,0.502-0.339,0.714c-0.132,0.167-0.29,0.299-0.506,0.344c-0.246,0.05-0.456-0.03-0.637-0.193
		c-0.212-0.191-0.338-0.436-0.429-0.702c-0.02-0.058-0.037-0.118-0.053-0.178c-0.024-0.09,0.021-0.149,0.115-0.149
		C9.414,10.392,9.705,10.392,9.996,10.392z M10.736,10.609c-0.501,0-0.989,0-1.484,0c0.014,0.039,0.024,0.075,0.038,0.11
		c0.08,0.202,0.181,0.391,0.342,0.541c0.224,0.208,0.498,0.206,0.722-0.003c0.115-0.107,0.2-0.236,0.267-0.377
		C10.663,10.794,10.696,10.704,10.736,10.609z"/>
	<circle display="inline" fill="#E53935" cx="9.992" cy="11.934" r="0.105"/>
	<circle display="inline" fill="#E53935" cx="9.99" cy="12.399" r="0.105"/>
	<circle display="inline" fill="#E53935" cx="9.99" cy="12.865" r="0.105"/>
</g>
<g id="cooperation_red_1_" display="none">
	<path display="inline" fill="#E53935" d="M12.901,14.517c-0.029,0.028-0.048,0.067-0.094,0.076
		c-0.07,0.015-0.134-0.023-0.146-0.094c-0.012-0.069-0.005-0.139-0.005-0.209c0-0.035-0.012-0.058-0.04-0.079
		c-0.12-0.093-0.247-0.174-0.382-0.242c-0.069-0.035-0.098-0.088-0.097-0.163c0.002-0.086,0.001-0.171,0-0.257
		c0-0.033,0.001-0.069,0.026-0.089c0.042-0.035,0.041-0.078,0.04-0.124c-0.001-0.076,0.001-0.151-0.001-0.227
		C12.2,12.986,12.134,12.929,12,12.93c-0.124,0.001-0.187,0.061-0.189,0.18c-0.001,0.07,0,0.139,0,0.209
		c0,0.053-0.009,0.106,0.042,0.147c0.023,0.019,0.021,0.054,0.021,0.084c-0.001,0.088-0.002,0.175,0,0.263
		c0.001,0.071-0.028,0.121-0.091,0.154c-0.131,0.068-0.255,0.146-0.373,0.234c-0.04,0.03-0.057,0.06-0.053,0.109
		c0.004,0.047,0.002,0.096,0.001,0.143c-0.003,0.089-0.053,0.146-0.125,0.145c-0.074-0.001-0.122-0.057-0.123-0.147
		c-0.001-0.062,0-0.123,0-0.185c0-0.098,0.041-0.176,0.117-0.237c0.112-0.09,0.232-0.168,0.357-0.237
		c0.03-0.016,0.043-0.034,0.041-0.069c-0.003-0.075-0.021-0.144-0.038-0.217c-0.045-0.193-0.059-0.397,0.015-0.586
		c0.069-0.174,0.247-0.259,0.446-0.239c0.255,0.026,0.4,0.186,0.4,0.444c0,0.094,0,0.187,0,0.281c0,0.043-0.004,0.087-0.029,0.12
		c-0.053,0.07-0.027,0.149-0.033,0.224c-0.002,0.026,0.022,0.03,0.038,0.04c0.103,0.06,0.203,0.124,0.301,0.194
		c0.081,0.058,0.147,0.124,0.177,0.222C12.901,14.31,12.901,14.413,12.901,14.517z"/>
	<path display="inline" fill="#E53935" d="M6.783,14.17c0.09-0.188,0.275-0.266,0.435-0.372c0.027-0.018,0.073-0.021,0.074-0.061
		c0-0.06,0.021-0.126-0.013-0.181c-0.037-0.061-0.052-0.124-0.051-0.193c0.002-0.103-0.008-0.207,0.005-0.31
		c0.031-0.248,0.23-0.401,0.485-0.373c0.245,0.027,0.391,0.188,0.392,0.434c0,0.094,0,0.187,0,0.281c0,0.043-0.003,0.087-0.028,0.12
		c-0.051,0.068-0.028,0.145-0.034,0.218c-0.002,0.03,0.021,0.035,0.039,0.045c0.121,0.07,0.238,0.144,0.348,0.231
		c0.073,0.058,0.118,0.129,0.12,0.223c0.002,0.072,0.004,0.143,0.001,0.215c-0.003,0.082-0.054,0.132-0.125,0.13
		c-0.071-0.002-0.118-0.054-0.12-0.136c-0.001-0.048-0.003-0.096,0.001-0.143c0.004-0.051-0.014-0.084-0.056-0.115
		c-0.116-0.085-0.236-0.162-0.364-0.227c-0.066-0.034-0.096-0.085-0.094-0.159c0.002-0.088,0.001-0.175,0-0.263
		c0-0.029,0-0.062,0.021-0.079c0.05-0.041,0.041-0.095,0.041-0.147c0-0.074,0.001-0.147-0.001-0.221
		c-0.002-0.09-0.064-0.154-0.154-0.158c-0.049-0.003-0.1-0.007-0.146,0.019c-0.056,0.031-0.081,0.08-0.081,0.143
		c-0.001,0.094,0,0.187,0,0.281c0,0.018-0.001,0.037,0.015,0.05c0.045,0.037,0.05,0.088,0.049,0.141
		c-0.001,0.078-0.002,0.155,0,0.233c0.002,0.075-0.028,0.128-0.097,0.163c-0.131,0.067-0.255,0.146-0.373,0.235
		c-0.031,0.023-0.043,0.047-0.042,0.085c0.003,0.05,0.001,0.1,0,0.149c-0.001,0.077-0.029,0.125-0.084,0.143
		c-0.064,0.02-0.113-0.003-0.149-0.057c-0.003-0.004-0.01-0.006-0.015-0.008C6.783,14.393,6.783,14.282,6.783,14.17z"/>
	<path display="inline" fill="#E53935" d="M8.684,11.816c0.327,0,0.653-0.001,0.98,0.001c0.046,0,0.062-0.011,0.06-0.059
		c-0.004-0.087-0.002-0.175-0.001-0.263c0.001-0.083,0.047-0.134,0.119-0.136c0.073-0.002,0.123,0.045,0.128,0.128
		c0.005,0.085,0.006,0.172,0,0.257c-0.005,0.064,0.019,0.074,0.076,0.073c0.635-0.002,1.271-0.001,1.906-0.001
		c0.14,0,0.175,0.036,0.175,0.177c0,0.135,0,0.271-0.001,0.406c0,0.053-0.026,0.091-0.075,0.112
		c-0.044,0.019-0.086,0.012-0.124-0.017c-0.035-0.027-0.045-0.064-0.045-0.106c0-0.092-0.002-0.183,0.001-0.275
		c0.001-0.039-0.012-0.05-0.051-0.05c-0.603,0.001-1.207,0.001-1.81,0c-0.044,0-0.053,0.016-0.052,0.055
		c0.003,0.086,0.002,0.171,0,0.257c-0.001,0.078-0.036,0.127-0.095,0.142c-0.078,0.019-0.15-0.037-0.153-0.123
		c-0.003-0.094-0.003-0.187,0-0.281c0.001-0.04-0.012-0.05-0.051-0.05c-0.607,0.001-1.215,0.001-1.822,0
		c-0.044,0-0.053,0.016-0.051,0.055c0.003,0.088,0.002,0.175,0.001,0.263c-0.001,0.084-0.045,0.135-0.117,0.139
		c-0.072,0.004-0.128-0.048-0.13-0.132c-0.004-0.145-0.004-0.291,0-0.436c0.003-0.095,0.053-0.137,0.152-0.137
		C8.03,11.816,8.357,11.816,8.684,11.816z"/>
	<path display="inline" fill="#E53935" d="M10.333,9.893c0,0.068,0,0.135,0,0.203c0,0.045-0.009,0.089-0.036,0.124
		c-0.063,0.083-0.026,0.177-0.035,0.265c-0.003,0.025,0.024,0.03,0.04,0.039c0.141,0.079,0.276,0.166,0.404,0.264
		c0.095,0.073,0.147,0.164,0.143,0.286c-0.003,0.072,0.001,0.143-0.001,0.215c-0.003,0.076-0.054,0.128-0.121,0.129
		c-0.067,0-0.119-0.052-0.122-0.128c-0.003-0.072-0.002-0.143-0.001-0.215c0.001-0.037-0.013-0.063-0.043-0.086
		c-0.139-0.107-0.284-0.204-0.441-0.283c-0.073-0.036-0.107-0.09-0.106-0.17c0.002-0.098,0-0.195,0-0.293
		c0-0.047,0.008-0.092,0.048-0.123c0.024-0.018,0.025-0.043,0.025-0.07c0-0.104,0.001-0.207,0-0.311
		c-0.002-0.143-0.082-0.214-0.224-0.222c-0.192-0.011-0.27,0.109-0.26,0.26c0.006,0.091,0.001,0.183,0.001,0.275
		c0,0.024-0.001,0.049,0.021,0.065c0.044,0.034,0.053,0.08,0.052,0.133c-0.002,0.098-0.003,0.195,0,0.293
		c0.002,0.075-0.029,0.125-0.094,0.158c-0.156,0.08-0.304,0.173-0.443,0.28c-0.037,0.028-0.055,0.058-0.052,0.105
		c0.004,0.066,0.002,0.131,0,0.197c-0.002,0.078-0.049,0.129-0.117,0.134c-0.065,0.004-0.125-0.046-0.128-0.122
		c-0.005-0.103-0.011-0.207,0.007-0.31c0.013-0.078,0.059-0.137,0.12-0.186c0.131-0.105,0.271-0.195,0.418-0.275
		c0.032-0.018,0.047-0.038,0.043-0.075c-0.003-0.032-0.002-0.064,0-0.095c0.003-0.049-0.004-0.093-0.035-0.134
		c-0.023-0.03-0.032-0.068-0.034-0.106C9.355,9.979,9.357,9.841,9.36,9.704c0.006-0.221,0.182-0.41,0.422-0.431
		c0.227-0.02,0.408,0.066,0.504,0.252c0.033,0.063,0.046,0.131,0.047,0.201C10.334,9.782,10.334,9.838,10.333,9.893L10.333,9.893z"
		/>
	<path display="inline" fill="#E53935" d="M10.282,13.261c-0.004,0.078,0.021,0.174-0.027,0.253c-0.04,0.066-0.035,0.131-0.04,0.2
		c-0.003,0.043,0.015,0.065,0.05,0.084c0.119,0.064,0.231,0.14,0.338,0.223c0.077,0.059,0.125,0.133,0.129,0.231
		c0.002,0.072,0.004,0.143,0.001,0.215c-0.004,0.08-0.057,0.133-0.125,0.132c-0.07-0.001-0.117-0.055-0.12-0.137
		c-0.001-0.02-0.003-0.04,0-0.06c0.025-0.122-0.029-0.199-0.132-0.261c-0.095-0.057-0.188-0.12-0.287-0.17
		c-0.07-0.036-0.102-0.089-0.098-0.168c0.003-0.087,0.001-0.175,0.001-0.263c0-0.031,0.001-0.063,0.025-0.083
		c0.037-0.031,0.038-0.069,0.038-0.112c-0.002-0.082,0.001-0.163-0.001-0.245c-0.002-0.107-0.067-0.168-0.18-0.171
		c-0.133-0.003-0.207,0.052-0.212,0.163c-0.004,0.097-0.001,0.195-0.001,0.293c0,0.016,0,0.033,0.014,0.044
		c0.048,0.038,0.052,0.09,0.052,0.145c-0.001,0.072-0.002,0.143,0,0.215c0.004,0.087-0.027,0.147-0.109,0.187
		c-0.133,0.064-0.255,0.146-0.372,0.236c-0.028,0.022-0.041,0.044-0.04,0.08c0.002,0.06,0.002,0.12,0,0.179
		c-0.003,0.075-0.056,0.127-0.124,0.127c-0.065-0.001-0.117-0.051-0.12-0.124c-0.004-0.073-0.002-0.147-0.001-0.221
		c0.002-0.096,0.047-0.17,0.121-0.228c0.108-0.085,0.221-0.162,0.343-0.227c0.038-0.02,0.055-0.043,0.053-0.088
		c-0.003-0.069-0.023-0.132-0.039-0.199c-0.048-0.2-0.063-0.408,0.02-0.603c0.071-0.167,0.246-0.248,0.44-0.229
		c0.253,0.025,0.401,0.188,0.402,0.444C10.283,13.167,10.282,13.208,10.282,13.261z"/>
</g>
<g id="cooperation_red" display="none">
	<path display="inline" fill="#E53935" d="M6.723,12.821c0.118-0.228,0.345-0.328,0.542-0.465c0.077-0.053,0.21-0.058,0.192-0.206
		c-0.012-0.096-0.02-0.189-0.045-0.287c-0.076-0.3-0.116-0.615,0.049-0.901c0.123-0.213,0.415-0.288,0.681-0.207
		c0.231,0.071,0.371,0.263,0.375,0.521c0.002,0.135-0.001,0.271,0.001,0.406c0.001,0.074-0.017,0.139-0.055,0.203
		c-0.095,0.159-0.043,0.361,0.114,0.448c0.15,0.084,0.289,0.182,0.425,0.286c0.11,0.084,0.163,0.191,0.159,0.329
		c-0.003,0.087,0.001,0.175-0.002,0.263c-0.002,0.08-0.047,0.13-0.126,0.129c-0.073-0.001-0.114-0.05-0.118-0.125
		c-0.001-0.028-0.006-0.057,0-0.083c0.041-0.211-0.056-0.346-0.233-0.443c-0.129-0.071-0.251-0.153-0.38-0.224
		c-0.086-0.048-0.127-0.113-0.123-0.212c0.004-0.107,0.002-0.215,0-0.322c-0.001-0.058,0.014-0.106,0.052-0.153
		c0.084-0.106,0.055-0.613-0.039-0.708c-0.112-0.112-0.252-0.11-0.391-0.071c-0.126,0.036-0.184,0.137-0.191,0.261
		c-0.008,0.143-0.003,0.287-0.002,0.43c0,0.016-0.001,0.036,0.008,0.046c0.155,0.168,0.064,0.373,0.083,0.56
		c0.009,0.085-0.055,0.134-0.126,0.171c-0.179,0.095-0.35,0.203-0.513,0.325c-0.068,0.051-0.098,0.109-0.093,0.192
		c0.004,0.059,0.001,0.119,0.001,0.179c0,0.064,0.002,0.128-0.069,0.165c-0.078,0.041-0.124-0.016-0.177-0.053
		C6.723,13.124,6.723,12.972,6.723,12.821z"/>
	<path display="inline" fill="#E53935" d="M12.198,11.466c-0.005,0.167,0.017,0.323-0.077,0.472
		c-0.038,0.061-0.011,0.163-0.014,0.246c-0.004,0.115,0.103,0.118,0.168,0.159c0.142,0.089,0.281,0.181,0.413,0.283
		c0.101,0.079,0.154,0.179,0.153,0.308c-0.001,0.092,0.001,0.183-0.001,0.275c-0.002,0.08-0.045,0.132-0.124,0.131
		c-0.08,0-0.119-0.055-0.12-0.134c0-0.02-0.004-0.041,0-0.06c0.046-0.226-0.061-0.368-0.251-0.47
		c-0.122-0.066-0.238-0.144-0.36-0.211c-0.087-0.047-0.127-0.112-0.124-0.211c0.004-0.107,0-0.215,0.002-0.322
		c0.001-0.035-0.001-0.077,0.017-0.104c0.141-0.205,0.072-0.429,0.052-0.644c-0.012-0.127-0.126-0.197-0.27-0.205
		c-0.173-0.01-0.311,0.051-0.345,0.175c-0.052,0.186-0.077,0.403-0.007,0.563c0.079,0.179,0.056,0.346,0.073,0.518
		c0.011,0.113-0.036,0.188-0.138,0.239c-0.178,0.09-0.343,0.199-0.503,0.318c-0.068,0.051-0.098,0.108-0.094,0.191
		c0.004,0.075,0.001,0.151,0,0.227c-0.002,0.08-0.045,0.131-0.124,0.129c-0.073-0.001-0.117-0.05-0.119-0.124
		c-0.002-0.115-0.005-0.231,0.003-0.346c0.008-0.104,0.068-0.183,0.15-0.247c0.157-0.123,0.321-0.235,0.498-0.327
		c0.061-0.032,0.086-0.071,0.082-0.14c-0.007-0.11,0.014-0.222-0.065-0.319c-0.033-0.041-0.027-0.098-0.027-0.15
		c0-0.135-0.002-0.271,0-0.406c0.005-0.319,0.204-0.526,0.524-0.548c0.312-0.021,0.55,0.136,0.615,0.41
		C12.21,11.252,12.193,11.365,12.198,11.466z"/>
	<path display="inline" fill="#E53935" d="M7.927,13.87c0,0.081,0.003,0.144-0.001,0.207c-0.005,0.076-0.039,0.132-0.124,0.13
		c-0.083-0.002-0.12-0.057-0.122-0.134c-0.003-0.167-0.004-0.334-0.003-0.502c0-0.08,0.042-0.128,0.123-0.131
		c0.167-0.005,0.334-0.01,0.501-0.009c0.079,0,0.144,0.033,0.141,0.126c-0.003,0.09-0.065,0.121-0.146,0.122
		c-0.055,0.001-0.11,0-0.187,0c0.177,0.18,0.367,0.306,0.573,0.405c0.918,0.443,1.957,0.283,2.701-0.411
		c0.02-0.019,0.04-0.039,0.062-0.056c0.06-0.047,0.125-0.06,0.182-0.002c0.063,0.065,0.043,0.129-0.017,0.188
		c-0.457,0.448-1.001,0.71-1.641,0.763c-0.757,0.063-1.419-0.162-1.99-0.662C7.969,13.895,7.955,13.888,7.927,13.87z"/>
	<path display="inline" fill="#E53935" d="M11.553,10.008c0-0.086-0.003-0.148,0.001-0.21c0.005-0.076,0.043-0.13,0.126-0.131
		c0.079-0.001,0.119,0.053,0.121,0.122c0.007,0.175,0.009,0.35,0.005,0.525c-0.002,0.071-0.049,0.118-0.125,0.119
		c-0.171,0.003-0.342,0.005-0.514,0.005c-0.081,0-0.131-0.044-0.131-0.123c0.001-0.073,0.05-0.116,0.124-0.119
		c0.062-0.003,0.124-0.001,0.216-0.001c-0.246-0.237-0.504-0.399-0.795-0.498C9.65,9.379,8.813,9.547,8.08,10.212
		c-0.015,0.013-0.029,0.028-0.044,0.041c-0.059,0.05-0.124,0.064-0.181,0.007c-0.064-0.063-0.044-0.132,0.014-0.189
		C8.058,9.886,8.264,9.723,8.5,9.603c1.014-0.517,2.113-0.387,2.984,0.349C11.499,9.965,11.514,9.977,11.553,10.008z"/>
</g>
<g id="smm_red" display="none">
	<path display="inline" fill="#E53935" d="M6.699,11.965c0.065-0.131,0.102-0.273,0.149-0.41c0.226-0.654,0.449-1.308,0.673-1.963
		c0.051-0.149,0.123-0.183,0.273-0.13c0.357,0.126,0.715,0.25,1.071,0.379c0.165,0.06,0.32,0.055,0.475-0.028
		c0.226-0.121,0.46-0.135,0.703-0.05c0.612,0.214,1.226,0.424,1.839,0.636c0.15,0.052,0.181,0.114,0.151,0.271
		c-0.035,0.179-0.102,0.34-0.255,0.45c-0.176,0.126-0.37,0.121-0.566,0.06c-0.207-0.065-0.412-0.138-0.617-0.208
		c-0.103-0.035-0.101-0.034-0.149,0.06c-0.163,0.321-0.405,0.552-0.761,0.646c-0.282,0.075-0.557,0.032-0.826-0.06
		c-0.088-0.03-0.129-0.115-0.105-0.193c0.027-0.086,0.108-0.129,0.206-0.102c0.124,0.035,0.249,0.069,0.378,0.076
		c0.379,0.018,0.638-0.167,0.817-0.486c0.034-0.062,0.061-0.127,0.085-0.194c0.044-0.127,0.12-0.163,0.248-0.12
		c0.273,0.092,0.545,0.184,0.818,0.277c0.058,0.02,0.118,0.029,0.179,0.024c0.105-0.009,0.203-0.1,0.221-0.201
		c0.008-0.046-0.029-0.042-0.051-0.05c-0.253-0.088-0.506-0.175-0.759-0.262c-0.315-0.108-0.631-0.214-0.945-0.327
		c-0.163-0.058-0.315-0.051-0.467,0.03c-0.203,0.109-0.417,0.134-0.638,0.065c-0.06-0.019-0.077-0.002-0.095,0.051
		c-0.242,0.712-0.487,1.424-0.73,2.135c-0.058,0.17-0.121,0.2-0.291,0.141c-0.291-0.101-0.582-0.201-0.874-0.299
		c-0.071-0.024-0.126-0.06-0.156-0.129C6.699,12.026,6.699,11.996,6.699,11.965z M7.728,12.15c0.04,0.001,0.037-0.032,0.044-0.053
		c0.23-0.67,0.459-1.342,0.691-2.012c0.015-0.045,0.008-0.062-0.036-0.076C8.231,9.944,8.035,9.878,7.84,9.808
		C7.792,9.791,7.78,9.807,7.767,9.848c-0.229,0.671-0.458,1.342-0.689,2.012c-0.015,0.043-0.017,0.065,0.036,0.082
		c0.195,0.062,0.387,0.131,0.581,0.197C7.706,12.143,7.718,12.147,7.728,12.15z"/>
	<path display="inline" fill="#E53935" d="M8.305,13.315c-0.003-0.071,0.017-0.146,0.06-0.214c0.02-0.032,0.018-0.049-0.008-0.077
		c-0.232-0.243-0.178-0.587,0.119-0.743c0.219-0.115,0.443-0.22,0.666-0.327c0.097-0.046,0.189-0.017,0.227,0.066
		c0.038,0.084,0.004,0.168-0.094,0.217c-0.206,0.102-0.412,0.202-0.619,0.303c-0.032,0.016-0.065,0.03-0.088,0.057
		c-0.042,0.049-0.05,0.105-0.021,0.162c0.029,0.058,0.08,0.082,0.144,0.077c0.036-0.003,0.067-0.02,0.099-0.035
		c0.397-0.194,0.793-0.388,1.19-0.582c0.029-0.014,0.059-0.029,0.091-0.037c0.068-0.018,0.14,0.017,0.172,0.08
		c0.032,0.062,0.017,0.14-0.038,0.185c-0.025,0.02-0.055,0.036-0.084,0.051c-0.455,0.224-0.911,0.446-1.366,0.67
		c-0.12,0.059-0.163,0.138-0.122,0.222c0.043,0.087,0.128,0.101,0.25,0.041c0.506-0.247,1.011-0.494,1.517-0.741
		c0.009-0.004,0.018-0.009,0.027-0.013c0.106-0.049,0.192-0.027,0.234,0.058c0.044,0.087,0.006,0.172-0.103,0.225
		c-0.358,0.176-0.716,0.35-1.074,0.525c-0.104,0.051-0.209,0.101-0.313,0.153c-0.098,0.049-0.132,0.129-0.092,0.209
		c0.04,0.08,0.124,0.102,0.222,0.054c0.467-0.228,0.934-0.457,1.401-0.685c0.129-0.063,0.216-0.048,0.263,0.044
		c0.048,0.095,0.006,0.174-0.128,0.239c-0.304,0.149-0.607,0.297-0.911,0.445c-0.062,0.03-0.114,0.067-0.117,0.144
		c-0.005,0.1,0.084,0.172,0.181,0.147c0.017-0.005,0.034-0.011,0.049-0.019c0.658-0.326,1.324-0.635,1.974-0.977
		c0.344-0.181,0.648-0.421,0.932-0.685c0.061-0.057,0.12-0.117,0.185-0.168c0.048-0.038,0.045-0.069,0.02-0.119
		c-0.341-0.693-0.68-1.387-1.019-2.08c-0.018-0.037-0.038-0.074-0.039-0.114C12.09,10,12.131,9.95,12.195,9.919
		c0.301-0.148,0.602-0.296,0.904-0.442c0.113-0.055,0.19-0.023,0.249,0.1c0.313,0.642,0.626,1.284,0.939,1.925
		c0.049,0.1,0.098,0.199,0.146,0.299c0.064,0.132,0.039,0.206-0.092,0.27c-0.27,0.132-0.539,0.264-0.809,0.395
		c-0.051,0.025-0.095,0.056-0.136,0.094c-0.253,0.233-0.503,0.469-0.784,0.67c-0.291,0.209-0.607,0.37-0.927,0.526
		c-0.501,0.244-1.002,0.49-1.502,0.736c-0.181,0.089-0.355,0.087-0.52-0.037c-0.079-0.06-0.134-0.139-0.156-0.235
		c-0.013-0.058-0.03-0.059-0.078-0.036c-0.248,0.117-0.495,0.046-0.623-0.177c-0.027-0.047-0.046-0.096-0.05-0.15
		c-0.004-0.053-0.023-0.075-0.079-0.084C8.457,13.735,8.305,13.549,8.305,13.315z M13.458,12.156
		c0.015-0.007,0.029-0.013,0.042-0.02c0.186-0.091,0.371-0.184,0.558-0.272c0.044-0.021,0.045-0.037,0.025-0.077
		c-0.101-0.201-0.198-0.403-0.297-0.604c-0.213-0.435-0.426-0.87-0.638-1.305c-0.017-0.034-0.024-0.068-0.08-0.039
		c-0.186,0.096-0.375,0.187-0.564,0.277c-0.041,0.02-0.041,0.039-0.023,0.075c0.048,0.092,0.092,0.185,0.137,0.278
		c0.266,0.544,0.532,1.087,0.798,1.631C13.426,12.12,13.428,12.149,13.458,12.156z"/>
</g>
<g id="smm_red_1_" display="none">
	<path display="inline" fill="#E53935" d="M6.732,15.022c0.137-0.189,0.202-0.417,0.326-0.612c0.36-0.564,0.47-1.172,0.442-1.84
		c-0.04-0.966-0.01-1.935-0.01-2.903c0-0.225,0.039-0.263,0.269-0.263c1.926,0,3.851,0,5.777,0c0.237,0,0.275,0.038,0.275,0.275
		c0,1.233,0.001,2.466-0.001,3.699c0,0.11,0.02,0.208,0.07,0.307c0.209,0.413,0.411,0.829,0.617,1.243
		c0.017,0.034,0.018,0.08,0.064,0.095c0,0.051,0,0.102,0,0.153c-0.081,0.068-0.173,0.085-0.279,0.085
		c-2.424-0.002-4.847-0.002-7.271,0c-0.105,0-0.197-0.021-0.279-0.085C6.732,15.124,6.732,15.073,6.732,15.022z M10.646,13.421
		c0.902,0,1.804-0.002,2.706,0.003c0.114,0.001,0.144-0.027,0.143-0.142c-0.005-1.142-0.004-2.283,0-3.425
		c0-0.112-0.035-0.131-0.138-0.131c-1.804,0.003-3.608,0.003-5.412,0c-0.111,0-0.145,0.022-0.145,0.14
		c0.005,1.136,0.005,2.273,0,3.409C7.8,13.4,7.841,13.423,7.955,13.423C8.852,13.419,9.749,13.421,10.646,13.421z M14.143,14.935
		c-0.184-0.375-0.361-0.728-0.53-1.085c-0.041-0.086-0.089-0.115-0.184-0.115c-0.805,0.004-1.61,0.002-2.415,0.002
		c-1.045,0-2.089,0-3.134,0.001c-0.056,0-0.123-0.027-0.16,0.049c-0.185,0.377-0.373,0.753-0.568,1.147c0.071,0,0.121,0,0.17,0
		c0.535,0,1.071-0.022,1.605,0.008c0.304,0.017,0.487-0.064,0.57-0.36c0.042-0.148,0.151-0.196,0.304-0.194
		c0.474,0.007,0.948,0,1.422,0.003c0.576,0.003,0.447-0.064,0.691,0.427c0.046,0.093,0.099,0.118,0.198,0.117
		c0.627-0.004,1.253-0.002,1.88-0.002C14.034,14.935,14.078,14.935,14.143,14.935z M10.639,14.876c0.275,0,0.55,0.001,0.825-0.001
		c0.034,0,0.096,0.028,0.096-0.034c0.001-0.045-0.02-0.103-0.076-0.121c-0.028-0.009-0.06-0.005-0.091-0.005
		c-0.499,0-0.998,0-1.496,0c-0.025,0-0.052-0.003-0.076,0.002c-0.068,0.013-0.088,0.076-0.088,0.126c0,0.06,0.063,0.032,0.097,0.032
		C10.1,14.877,10.37,14.876,10.639,14.876z"/>
	<path display="inline" fill="#E53935" d="M10.506,12.208c0.107,0,0.214,0.005,0.321-0.001c0.139-0.009,0.244-0.109,0.239-0.231
		c-0.006-0.132-0.077-0.225-0.212-0.24c-0.126-0.014-0.254-0.008-0.381-0.011c-0.304-0.009-0.538-0.217-0.56-0.497
		c-0.024-0.308,0.166-0.555,0.478-0.604c0.078-0.012,0.108-0.036,0.101-0.113c-0.004-0.045-0.003-0.092,0.003-0.137
		c0.012-0.089,0.071-0.139,0.156-0.137c0.084,0.002,0.137,0.054,0.152,0.143c0.013,0.077-0.041,0.181,0.037,0.225
		c0.059,0.033,0.149,0.012,0.225,0.012c0.11-0.001,0.197,0.031,0.195,0.159c-0.002,0.129-0.092,0.155-0.2,0.154
		c-0.178-0.001-0.357-0.003-0.535,0c-0.183,0.003-0.296,0.098-0.296,0.241c0,0.144,0.114,0.238,0.295,0.242
		c0.112,0.002,0.224-0.003,0.336,0.003c0.278,0.013,0.504,0.234,0.522,0.505c0.019,0.29-0.162,0.549-0.441,0.589
		c-0.129,0.018-0.147,0.073-0.139,0.177c0.009,0.111-0.015,0.217-0.149,0.222c-0.144,0.005-0.174-0.105-0.162-0.222
		c0.013-0.126-0.03-0.18-0.159-0.162c-0.05,0.007-0.102,0.001-0.153,0c-0.097-0.003-0.158-0.058-0.159-0.15
		c-0.002-0.1,0.062-0.159,0.165-0.161c0.107-0.002,0.214-0.001,0.321-0.001L10.506,12.208z"/>
</g>
<g id="smm_red_2_" display="none">
	<path display="inline" fill="#E53935" d="M10.598,7.532c0.066,0.032,0.139,0.028,0.209,0.041c1.001,0.187,1.727,0.744,2.121,1.676
		c0.408,0.966,0.29,1.901-0.324,2.756c-0.417,0.58-0.988,0.947-1.686,1.084c-0.929,0.183-1.76-0.046-2.467-0.683
		c-0.454-0.41-0.745-0.922-0.856-1.524C7.428,9.976,7.648,9.169,8.257,8.474C8.659,8.016,9.166,7.73,9.759,7.596
		c0.089-0.02,0.179-0.03,0.269-0.046c0.014-0.002,0.033,0.003,0.038-0.018C10.244,7.532,10.421,7.532,10.598,7.532z M12.834,10.359
		c-0.008-0.609-0.196-1.145-0.567-1.593c-0.38-0.459-0.865-0.751-1.452-0.863c-0.57-0.109-1.116-0.029-1.627,0.243
		C8.647,8.434,8.26,8.868,8.035,9.44c-0.163,0.413-0.209,0.841-0.141,1.28c0.071,0.461,0.26,0.868,0.56,1.225
		c0.019,0.023,0.037,0.032,0.066,0.022c0.238-0.076,0.473-0.159,0.688-0.289c0.13-0.078,0.251-0.168,0.333-0.301
		c0.02-0.033,0.022-0.057-0.009-0.087c-0.15-0.147-0.247-0.327-0.311-0.525c-0.113-0.35-0.124-0.709-0.096-1.073
		c0.051-0.662,0.507-1.106,1.168-1.126c0.582-0.018,1.029,0.304,1.181,0.867c0.094,0.35,0.084,0.706,0.023,1.061
		c-0.05,0.29-0.152,0.556-0.357,0.774c-0.027,0.028-0.017,0.051-0.005,0.076c0.039,0.081,0.098,0.147,0.167,0.204
		c0.257,0.21,0.562,0.321,0.872,0.42c0.039,0.012,0.056-0.009,0.077-0.034C12.637,11.469,12.829,10.931,12.834,10.359z M9.432,9.989
		c0.001,0.266,0.031,0.51,0.12,0.744c0.137,0.36,0.398,0.541,0.781,0.545c0.36,0.004,0.631-0.186,0.765-0.543
		c0.128-0.339,0.14-0.69,0.099-1.046c-0.02-0.176-0.069-0.343-0.18-0.483c-0.223-0.281-0.527-0.345-0.862-0.297
		C9.83,8.955,9.612,9.139,9.504,9.451C9.442,9.631,9.44,9.819,9.432,9.989z M8.75,12.236c0.918,0.803,2.337,0.764,3.191-0.002
		c-0.148-0.051-0.291-0.103-0.428-0.172c-0.257-0.13-0.502-0.277-0.651-0.538c-0.018-0.031-0.037-0.027-0.064-0.017
		c-0.302,0.121-0.607,0.126-0.913,0.015c-0.037-0.014-0.055-0.004-0.074,0.029c-0.032,0.057-0.073,0.107-0.118,0.154
		c-0.15,0.156-0.332,0.266-0.524,0.36C9.036,12.132,8.894,12.181,8.75,12.236z"/>
	<path display="inline" fill="#E53935" d="M10.357,14.079c0.656,0,1.312,0,1.969,0c0.034,0,0.068-0.001,0.101,0.004
		c0.079,0.012,0.131,0.079,0.129,0.161c-0.002,0.078-0.054,0.139-0.132,0.15c-0.031,0.004-0.062,0.004-0.094,0.004
		c-1.323,0-2.646,0-3.968,0c-0.15,0-0.221-0.051-0.223-0.158c-0.002-0.11,0.071-0.162,0.226-0.162
		C9.029,14.079,9.693,14.079,10.357,14.079z"/>
	<path display="inline" fill="#E53935" d="M10.344,15.535c-0.43,0-0.86,0-1.29,0c-0.128,0-0.199-0.064-0.194-0.171
		c0.004-0.074,0.043-0.122,0.113-0.141c0.032-0.009,0.067-0.012,0.1-0.012c0.849-0.001,1.699-0.001,2.548,0
		c0.139,0,0.213,0.057,0.214,0.161c0.001,0.098-0.068,0.163-0.179,0.163c-0.208,0.002-0.417,0-0.625,0
		C10.803,15.536,10.573,15.536,10.344,15.535z"/>
</g>
<g id="Слой_34" display="none">
	<path display="inline" fill="#0D8497" d="M3.955,9.315c0.044-0.137,0.129-0.213,0.283-0.218c0.116-0.004,0.174-0.09,0.193-0.198
		c0.01-0.057,0.009-0.117,0.009-0.175C4.44,8.319,4.438,7.914,4.44,7.508c0.001-0.237,0.1-0.342,0.332-0.342
		c1.383-0.001,2.766-0.004,4.149,0.001C9.316,7.169,9.698,7.238,10,7.525c0.087,0.083,0.158,0.183,0.236,0.275
		c0.094,0.11,0.174,0.12,0.255,0.003c0.328-0.473,0.818-0.61,1.345-0.618c1.383-0.02,2.766-0.016,4.149-0.019
		c0.223,0,0.324,0.108,0.325,0.337c0.002,0.409,0,0.819,0.001,1.228c0,0.28,0.031,0.32,0.301,0.379
		c0.104,0.022,0.16,0.087,0.177,0.186c0.008,0.049,0.006,0.1,0.006,0.15c0,2.135,0,4.27,0,6.405c0,0.301-0.098,0.4-0.396,0.4
		c-1.262,0-2.524,0-3.786,0c-0.403,0-0.8,0.037-1.181,0.183c-0.289,0.111-0.544,0.269-0.746,0.51
		c-0.209,0.249-0.406,0.243-0.611-0.002c-0.245-0.295-0.576-0.447-0.933-0.555c-0.372-0.112-0.755-0.135-1.14-0.136
		c-1.22-0.001-2.44-0.001-3.66,0.001c-0.185,0-0.326-0.053-0.387-0.242C3.955,13.779,3.955,11.547,3.955,9.315z M5.037,11.46
		c0,1.103,0,2.206,0,3.31c0,0.025,0,0.05,0,0.075c0.001,0.241,0.08,0.32,0.325,0.321c0.272,0.001,0.543-0.001,0.815,0
		c0.907,0.005,1.814-0.004,2.72,0.022c0.518,0.015,0.993,0.175,1.343,0.596c0.093,0.112,0.216,0.111,0.296,0.001
		c0.182-0.249,0.441-0.376,0.72-0.474c0.336-0.118,0.686-0.142,1.037-0.143c1.032-0.004,2.064-0.001,3.097-0.002
		c0.238,0,0.321-0.08,0.321-0.312c0-2.269,0-4.538,0-6.807c0-0.223-0.087-0.309-0.313-0.309c-1.107-0.001-2.215-0.006-3.322,0.005
		c-0.209,0.002-0.429,0.036-0.624,0.109c-0.448,0.168-0.645,0.544-0.723,0.992c-0.02,0.115-0.027,0.233-0.028,0.349
		c-0.002,1.621-0.001,3.243-0.002,4.864c0,0.287-0.098,0.39-0.355,0.379c-0.137-0.005-0.23-0.069-0.264-0.206
		c-0.024-0.096-0.031-0.198-0.031-0.297c-0.002-1.55-0.001-3.101-0.001-4.651c0-0.618-0.298-1.044-0.849-1.302
		c-0.426-0.2-0.883-0.24-1.345-0.241c-0.823-0.002-1.646-0.001-2.47-0.001c-0.276,0-0.347,0.073-0.348,0.351
		C5.037,9.211,5.037,10.335,5.037,11.46z"/>
</g>
<g id="Слой_35" display="none">
	<path display="inline" fill="#0D8497" d="M10.071,5.313c0.113,0.054,0.238,0.048,0.357,0.07c1.712,0.32,2.954,1.272,3.628,2.867
		c0.699,1.652,0.496,3.251-0.555,4.714c-0.713,0.992-1.69,1.62-2.884,1.854c-1.59,0.312-3.011-0.078-4.219-1.169
		c-0.777-0.702-1.274-1.578-1.464-2.606c-0.285-1.548,0.091-2.93,1.132-4.117C6.753,6.14,7.62,5.651,8.635,5.422
		c0.152-0.034,0.307-0.052,0.46-0.078C9.12,5.34,9.152,5.348,9.161,5.313C9.464,5.313,9.767,5.313,10.071,5.313z M13.894,10.148
		c-0.014-1.042-0.336-1.959-0.97-2.725c-0.65-0.785-1.479-1.284-2.483-1.477C9.467,5.76,8.533,5.897,7.659,6.363
		C6.733,6.856,6.071,7.597,5.686,8.577c-0.278,0.707-0.357,1.438-0.241,2.189c0.122,0.789,0.445,1.485,0.957,2.096
		c0.033,0.039,0.063,0.055,0.114,0.038c0.407-0.131,0.809-0.272,1.177-0.494c0.222-0.134,0.43-0.287,0.569-0.514
		c0.035-0.057,0.038-0.097-0.015-0.149c-0.257-0.251-0.422-0.559-0.531-0.898c-0.193-0.599-0.211-1.212-0.163-1.835
		C7.639,7.879,8.419,7.119,9.55,7.084c0.996-0.03,1.76,0.521,2.019,1.483c0.161,0.598,0.143,1.208,0.039,1.815
		c-0.085,0.496-0.261,0.951-0.611,1.324c-0.046,0.049-0.029,0.088-0.008,0.131c0.067,0.138,0.167,0.251,0.285,0.348
		c0.44,0.359,0.96,0.55,1.492,0.718c0.067,0.021,0.097-0.015,0.132-0.058C13.558,12.046,13.886,11.127,13.894,10.148z M8.077,9.515
		c0.001,0.454,0.053,0.872,0.204,1.272c0.234,0.616,0.682,0.926,1.336,0.932c0.615,0.006,1.079-0.319,1.309-0.929
		c0.218-0.58,0.239-1.181,0.17-1.789c-0.034-0.301-0.118-0.586-0.308-0.826c-0.382-0.481-0.901-0.589-1.475-0.508
		C8.757,7.747,8.384,8.061,8.2,8.595C8.093,8.903,8.09,9.224,8.077,9.515z M6.91,13.358c1.571,1.374,3.997,1.307,5.458-0.003
		c-0.253-0.088-0.498-0.177-0.732-0.295c-0.44-0.222-0.858-0.474-1.113-0.92c-0.03-0.053-0.063-0.047-0.109-0.029
		c-0.517,0.207-1.038,0.215-1.562,0.026c-0.064-0.023-0.094-0.007-0.126,0.05c-0.054,0.097-0.125,0.184-0.202,0.264
		c-0.257,0.267-0.567,0.454-0.896,0.616C7.398,13.18,7.156,13.265,6.91,13.358z"/>
	<path display="inline" fill="#0D8497" d="M9.658,16.51c1.122,0,2.245,0,3.367,0c0.058,0,0.116-0.002,0.173,0.007
		c0.135,0.021,0.224,0.135,0.22,0.275c-0.004,0.134-0.093,0.238-0.225,0.257c-0.053,0.007-0.107,0.007-0.16,0.007
		c-2.263,0-4.525,0-6.788,0c-0.256,0-0.378-0.087-0.381-0.269C5.861,16.599,5.985,16.51,6.25,16.51
		C7.386,16.51,8.522,16.51,9.658,16.51z"/>
	<path display="inline" fill="#0D8497" d="M9.636,19.002c-0.735,0-1.47,0.001-2.206,0c-0.219,0-0.341-0.11-0.331-0.293
		c0.007-0.126,0.074-0.208,0.194-0.242c0.055-0.015,0.114-0.021,0.171-0.021c1.453-0.001,2.905-0.001,4.358-0.001
		c0.237,0,0.365,0.098,0.366,0.276c0.001,0.167-0.116,0.278-0.306,0.28c-0.356,0.003-0.713,0.001-1.069,0.001
		C10.42,19.002,10.028,19.002,9.636,19.002z"/>
	<ellipse display="inline" fill="#0D8497" cx="9.633" cy="9.572" rx="1.907" ry="2.173"/>
	<path display="inline" fill="#0D8497" d="M6.543,13.242l2.154-1.267h1.902l1.992,1.267C12.59,13.242,10.273,16.247,6.543,13.242z"
		/>
</g>
<g id="Слой_36" display="none">
	<path display="inline" fill="#0D8497" d="M2.041,7.681c0.14-0.103,0.293-0.139,0.469-0.137c0.584,0.008,1.168-0.011,1.751,0.01
		C4.499,7.563,4.581,7.499,4.619,7.26c0.212-1.344,1.322-2.212,2.674-2.111c1.128,0.084,2.077,0.99,2.222,2.149
		C9.542,7.511,9.612,7.556,9.81,7.552c0.614-0.012,1.228-0.007,1.842-0.004c0.356,0.002,0.417,0.067,0.42,0.429
		c0.002,0.252,0.001,0.503-0.001,0.755c-0.001,0.193-0.105,0.312-0.292,0.311c-0.174-0.002-0.268-0.121-0.273-0.299
		c-0.001-0.02-0.001-0.04-0.002-0.06c-0.027-0.569-0.027-0.569-0.593-0.569c-0.383,0-0.765,0.007-1.148-0.003
		C9.598,8.107,9.532,8.152,9.54,8.329C9.553,8.64,9.542,8.953,9.543,9.265c0.001,0.197-0.071,0.347-0.287,0.344
		c-0.217-0.003-0.28-0.158-0.279-0.353C8.98,8.944,8.971,8.632,8.981,8.32C8.986,8.165,8.942,8.11,8.779,8.111
		c-1.148,0.006-2.295,0.006-3.443,0C5.168,8.11,5.134,8.178,5.138,8.326C5.146,8.638,5.14,8.95,5.14,9.262
		c0,0.195-0.068,0.349-0.286,0.347C4.639,9.607,4.57,9.456,4.571,9.259C4.573,8.967,4.56,8.675,4.576,8.384
		c0.011-0.202-0.037-0.282-0.259-0.274C3.834,8.127,3.35,8.125,2.867,8.11C2.665,8.104,2.612,8.166,2.615,8.364
		c0.011,0.704,0.004,1.409,0.004,2.114c0,2.154,0,4.309,0,6.463c0,1.12,0.543,1.656,1.672,1.657c1.289,0,2.577,0,3.866,0.001
		c0.1,0,0.203-0.003,0.301,0.013c0.15,0.025,0.228,0.13,0.224,0.277c-0.004,0.146-0.087,0.246-0.236,0.269
		c-0.089,0.013-0.181,0.009-0.271,0.009c-1.309,0-2.618-0.025-3.926,0.008c-1.096,0.028-1.91-0.611-2.141-1.498
		c-0.01-0.04-0.021-0.077-0.067-0.088C2.041,14.285,2.041,10.983,2.041,7.681z M7.037,7.552c0.453,0,0.906,0,1.359,0
		c0.649,0,0.67-0.032,0.423-0.657C8.531,6.171,7.73,5.652,6.988,5.708c-0.897,0.068-1.62,0.666-1.797,1.485
		C5.117,7.537,5.128,7.551,5.467,7.552C5.99,7.552,6.513,7.552,7.037,7.552z"/>
	<path display="inline" fill="#0D8497" d="M17.504,18.131c-0.204,0.46-0.468,0.857-0.999,0.992
		c-0.169,0.043-0.338,0.043-0.508,0.043c-1.711,0.002-3.421,0.002-5.132,0.001c-0.973-0.001-1.508-0.539-1.509-1.514
		c-0.002-1.781-0.001-3.562,0-5.343c0-0.437,0.075-0.513,0.501-0.514c0.413-0.001,0.826-0.016,1.237,0.006
		c0.243,0.013,0.318-0.043,0.316-0.303c-0.006-0.95,0.539-1.726,1.364-1.997c1.327-0.436,2.628,0.479,2.682,1.887
		c0.016,0.406,0.016,0.406,0.418,0.407c0.392,0,0.785,0.008,1.177-0.004c0.185-0.006,0.331,0.045,0.452,0.18
		C17.504,14.024,17.504,16.077,17.504,18.131z M13.423,18.602c0.825,0,1.65-0.018,2.475,0.006c0.626,0.018,1.055-0.276,1.031-1.013
		c-0.032-1.005-0.008-2.012-0.008-3.018c0-0.654-0.006-1.308,0.004-1.962c0.003-0.186-0.057-0.246-0.241-0.239
		c-0.321,0.013-0.644,0.013-0.966,0c-0.191-0.008-0.278,0.042-0.26,0.25c0.016,0.18,0.003,0.362,0,0.543
		c-0.003,0.183-0.111,0.291-0.281,0.29c-0.17-0.001-0.276-0.11-0.278-0.293c-0.003-0.191-0.01-0.383-0.001-0.573
		c0.007-0.15-0.036-0.217-0.201-0.216c-0.835,0.006-1.67,0.006-2.505,0c-0.155-0.001-0.219,0.048-0.21,0.207
		c0.009,0.181,0.007,0.362-0.002,0.543c-0.009,0.193-0.095,0.345-0.308,0.331c-0.188-0.012-0.271-0.152-0.27-0.338
		c0.001-0.171-0.013-0.343,0.003-0.513c0.019-0.196-0.065-0.238-0.242-0.231c-0.301,0.012-0.605,0.02-0.905-0.002
		c-0.247-0.018-0.322,0.055-0.32,0.311c0.012,1.66,0.005,3.32,0.007,4.98c0,0.639,0.295,0.933,0.942,0.935
		C11.732,18.604,12.578,18.602,13.423,18.602z M13.42,11.795c0.422,0,0.844-0.005,1.266,0.003c0.148,0.003,0.219-0.028,0.21-0.197
		c-0.015-0.282-0.033-0.559-0.162-0.818c-0.298-0.603-0.962-0.932-1.604-0.793c-0.704,0.153-1.146,0.755-1.159,1.554
		c-0.003,0.188,0.034,0.266,0.244,0.256C12.616,11.782,13.018,11.795,13.42,11.795z"/>
	<path display="inline" fill="#0D8497" d="M9.667,12.158h7.542l-0.104,6.072c0,0-0.104,0.479-0.854,0.583h-5.979
		c0,0-0.625-0.646-0.604-1.083C9.688,17.292,9.667,12.158,9.667,12.158z"/>
</g>
<g id="Слой_37" display="none">
	<path display="inline" fill="#0D8497" d="M18.25,19.034c-0.326,0.216-0.446,0.189-0.612-0.14c0.109-0.505-0.1-0.839-0.552-1.052
		c-0.141-0.067-0.264-0.174-0.408-0.235c-0.304-0.128-0.377-0.347-0.401-0.668c-0.039-0.539,0.248-1.025,0.181-1.567
		c-0.052-0.415-0.185-0.609-0.55-0.61c-0.369,0-0.55,0.193-0.549,0.608c0.001,0.329,0.012,0.641,0.142,0.971
		c0.232,0.59,0.009,1.04-0.55,1.365c-0.072,0.042-0.139,0.096-0.214,0.131c-0.465,0.213-0.683,0.556-0.574,1.074
		c-0.051,0.191-0.171,0.289-0.37,0.247c-0.193-0.041-0.198-0.201-0.23-0.363c-0.161-0.822,0.381-1.19,0.966-1.538
		c0.461-0.274,0.459-0.399,0.304-0.932c-0.146-0.503-0.156-1.044,0.034-1.545c0.181-0.479,0.726-0.698,1.325-0.592
		c0.456,0.081,0.834,0.476,0.847,0.963c0.012,0.453,0.09,0.913-0.13,1.359c-0.144,0.294-0.019,0.507,0.271,0.689
		c0.266,0.167,0.519,0.353,0.78,0.528c0.155,0.104,0.206,0.275,0.291,0.425C18.25,18.446,18.25,18.74,18.25,19.034z"/>
	<path display="inline" fill="#0D8497" d="M2.74,18.834c-0.167,0.338-0.295,0.366-0.616,0.137c0-0.315,0-0.63,0-0.945
		c0.267-0.387,0.666-0.612,1.049-0.854c0.305-0.193,0.38-0.438,0.248-0.781c-0.199-0.517-0.173-1.057-0.024-1.569
		c0.147-0.505,0.699-0.738,1.322-0.638c0.469,0.075,0.845,0.478,0.855,0.988c0.008,0.442,0.076,0.887-0.14,1.326
		c-0.109,0.223-0.103,0.532,0.253,0.665c0.172,0.064,0.309,0.217,0.476,0.302c0.528,0.268,0.667,0.712,0.606,1.261
		c-0.02,0.175-0.038,0.343-0.25,0.383c-0.208,0.039-0.309-0.083-0.366-0.261c0.114-0.509-0.12-0.83-0.559-1.048
		c-0.178-0.088-0.346-0.195-0.518-0.296c-0.099-0.059-0.226-0.122-0.23-0.241c-0.013-0.379-0.085-0.751,0.067-1.137
		c0.137-0.348,0.094-0.74,0.003-1.109c-0.024-0.1-0.122-0.164-0.225-0.206c-0.412-0.168-0.784,0.056-0.786,0.503
		c-0.002,0.325-0.03,0.641,0.13,0.973c0.248,0.513,0,1.077-0.495,1.36c-0.1,0.057-0.191,0.131-0.295,0.18
		C2.814,18.03,2.635,18.359,2.74,18.834z"/>
	<path display="inline" fill="#0D8497" d="M7.118,11.875c0.839,0,1.678-0.007,2.517,0.005c0.209,0.003,0.275-0.058,0.257-0.262
		c-0.017-0.198-0.009-0.398-0.001-0.598c0.008-0.202,0.1-0.36,0.32-0.348c0.194,0.01,0.286,0.154,0.288,0.348
		c0,0.042-0.002,0.084,0.001,0.126c0.017,0.238-0.104,0.553,0.054,0.691c0.132,0.116,0.439,0.037,0.668,0.037
		c1.479,0.001,2.958,0,4.437,0.001c0.484,0,0.552,0.067,0.553,0.538c0.001,0.304,0.004,0.608-0.002,0.913
		c-0.004,0.195-0.071,0.362-0.304,0.359c-0.228-0.003-0.299-0.158-0.301-0.361c0-0.01,0-0.021,0-0.031
		c-0.007-0.26,0.086-0.612-0.047-0.755c-0.157-0.169-0.513-0.05-0.782-0.051c-1.322-0.005-2.643,0.007-3.965-0.01
		c-0.273-0.003-0.344,0.077-0.314,0.329c0.021,0.176,0.005,0.356,0.003,0.534c-0.002,0.19-0.078,0.335-0.285,0.346
		c-0.23,0.012-0.304-0.146-0.32-0.344c-0.005-0.063-0.002-0.126-0.002-0.189c-0.002-0.669-0.002-0.669-0.656-0.669
		c-1.395,0-2.79,0.006-4.185-0.006c-0.237-0.002-0.314,0.056-0.288,0.291c0.022,0.197,0.01,0.398,0.002,0.597
		c-0.008,0.192-0.1,0.322-0.309,0.32c-0.196-0.002-0.283-0.135-0.288-0.308c-0.011-0.388-0.012-0.776-0.002-1.164
		c0.007-0.273,0.195-0.34,0.433-0.34C5.439,11.876,6.278,11.875,7.118,11.875z"/>
	<path display="inline" fill="#0D8497" d="M11.452,6.806c-0.009,0.294,0.02,0.627-0.162,0.958c-0.171,0.313-0.01,0.631,0.304,0.82
		c0.188,0.113,0.356,0.263,0.552,0.359c0.635,0.313,0.742,0.853,0.677,1.48c-0.019,0.188-0.091,0.339-0.292,0.346
		c-0.221,0.008-0.351-0.156-0.311-0.347c0.138-0.653-0.27-0.945-0.741-1.21c-0.055-0.031-0.108-0.064-0.16-0.099
		c-0.211-0.145-0.54-0.178-0.612-0.453c-0.093-0.354-0.135-0.769,0.002-1.085c0.165-0.383,0.147-0.748,0.149-1.126
		c0.002-0.464-0.231-0.693-0.662-0.694C9.76,5.756,9.535,5.979,9.544,6.451c0.008,0.377-0.037,0.746,0.141,1.128
		c0.142,0.305,0.07,0.699,0.013,1.052C9.671,8.8,9.532,8.865,9.403,8.932C9.06,9.114,8.737,9.324,8.42,9.549
		c-0.181,0.129-0.273,0.273-0.25,0.497c0.015,0.145,0.008,0.294-0.002,0.44c-0.011,0.17-0.116,0.276-0.28,0.286
		c-0.167,0.011-0.289-0.086-0.302-0.256c-0.044-0.571-0.101-1.148,0.525-1.49c0.22-0.12,0.417-0.281,0.632-0.409
		C9.16,8.37,9.204,8.085,9.043,7.611C8.838,7.008,8.821,6.367,9.085,5.774c0.231-0.521,0.859-0.737,1.489-0.582
		c0.511,0.125,0.861,0.573,0.878,1.126C11.456,6.464,11.452,6.611,11.452,6.806z"/>
	<path display="inline" fill="#0D8497" d="M8.437,18.896c-0.043,0.192-0.155,0.3-0.358,0.264c-0.213-0.037-0.21-0.21-0.243-0.382
		c-0.153-0.791,0.358-1.157,0.925-1.5c0.511-0.309,0.498-0.402,0.34-0.968c-0.137-0.491-0.148-1.024,0.032-1.516
		c0.179-0.492,0.739-0.721,1.345-0.607c0.469,0.088,0.839,0.503,0.838,1.002c-0.002,0.443,0.076,0.888-0.13,1.329
		c-0.108,0.231-0.105,0.534,0.243,0.673c0.162,0.065,0.293,0.204,0.451,0.282c0.564,0.279,0.716,0.745,0.645,1.332
		c-0.021,0.171-0.051,0.318-0.24,0.354c-0.202,0.038-0.316-0.068-0.358-0.261c0.107-0.505-0.111-0.835-0.557-1.053
		c-0.188-0.091-0.362-0.21-0.543-0.314c-0.102-0.058-0.212-0.124-0.233-0.242c-0.058-0.331-0.118-0.701,0.011-0.991
		c0.138-0.312,0.124-0.607,0.127-0.913c0.003-0.432-0.189-0.632-0.566-0.625c-0.363,0.006-0.537,0.201-0.534,0.624
		c0.002,0.318,0.003,0.619,0.14,0.94c0.239,0.56,0.003,1.06-0.532,1.373c-0.081,0.047-0.157,0.106-0.241,0.147
		C8.553,18.06,8.329,18.389,8.437,18.896z"/>
	<path display="inline" fill="#0D8497" d="M8.165,18.896C8.04,18.369,8.3,18.028,8.812,17.804c0.098-0.042,0.185-0.103,0.279-0.152
		c0.619-0.324,0.892-0.844,0.615-1.426c-0.158-0.333-0.159-0.646-0.162-0.976c-0.004-0.439,0.198-0.641,0.618-0.648
		c0.436-0.007,0.658,0.201,0.654,0.649c-0.003,0.318,0.013,0.624-0.147,0.948c-0.149,0.301-0.08,0.685-0.013,1.029
		c0.024,0.122,0.151,0.19,0.269,0.251c0.21,0.108,0.411,0.231,0.628,0.326c0.516,0.226,0.767,0.568,0.644,1.093
		C10.853,18.899,9.509,18.897,8.165,18.896z"/>
	<path display="inline" fill="#0D8497" d="M13.89,18.911c-0.125-0.538,0.127-0.894,0.664-1.116c0.087-0.036,0.164-0.092,0.248-0.136
		c0.647-0.338,0.905-0.805,0.636-1.418c-0.15-0.343-0.163-0.667-0.164-1.008c-0.001-0.431,0.208-0.632,0.635-0.631
		c0.423,0,0.577,0.202,0.637,0.633c0.078,0.563-0.254,1.067-0.209,1.628c0.027,0.333,0.112,0.56,0.463,0.694
		c0.166,0.063,0.308,0.175,0.471,0.244c0.523,0.221,0.765,0.568,0.639,1.093C16.57,18.899,15.23,18.905,13.89,18.911z"/>
	<path display="inline" fill="#0D8497" d="M2.468,18.833C2.347,18.341,2.555,18,3.057,17.787c0.12-0.051,0.226-0.127,0.342-0.186
		c0.574-0.293,0.861-0.879,0.573-1.41c-0.186-0.344-0.153-0.671-0.151-1.009c0.003-0.463,0.434-0.696,0.911-0.521
		c0.119,0.043,0.232,0.11,0.26,0.214c0.104,0.382,0.155,0.788-0.004,1.15c-0.176,0.4-0.092,0.786-0.077,1.179
		c0.005,0.124,0.151,0.189,0.266,0.25c0.198,0.105,0.394,0.216,0.6,0.307c0.509,0.226,0.78,0.558,0.648,1.086
		C5.106,18.842,3.787,18.837,2.468,18.833z"/>
</g>
<g id="Слой_38" display="none">
	<path display="inline" fill="#999999" d="M18.245,5.199c0,0.36,0,0.72,0,1.08c-0.008,0.11-0.022,0.22-0.023,0.331
		c-0.025,1.661-0.051,3.323-0.069,4.984c-0.003,0.26-0.087,0.466-0.271,0.65c-2.667,2.662-5.329,5.328-7.997,7.989
		c-0.152,0.151-0.325,0.296-0.516,0.39c-0.257,0.127-0.54,0.201-0.811,0.297c-0.148,0-0.296,0-0.445,0
		c-0.023-0.01-0.046-0.026-0.07-0.029c-0.471-0.073-0.872-0.288-1.206-0.621c-1.409-1.403-2.816-2.807-4.214-4.22
		c-0.178-0.18-0.323-0.405-0.44-0.632c-0.099-0.192-0.136-0.417-0.2-0.627c0-0.148,0-0.296,0-0.445
		c0.01-0.024,0.024-0.048,0.028-0.073c0.073-0.489,0.302-0.9,0.647-1.245c2.667-2.669,5.337-5.336,8.002-8.006
		c0.184-0.184,0.388-0.268,0.649-0.271c1.688-0.018,3.376-0.045,5.064-0.07c0.084-0.001,0.168-0.014,0.252-0.022
		c0.349,0,0.699,0,1.048,0C17.946,4.752,18.185,4.882,18.245,5.199z M16.841,6.029c-0.06-0.003-0.097-0.007-0.133-0.007
		c-1.688,0.013-3.376,0.024-5.065,0.043c-0.073,0.001-0.163,0.045-0.216,0.098c-2.615,2.609-5.227,5.221-7.839,7.834
		c-0.326,0.327-0.326,0.801,0.005,1.132c1.402,1.405,2.805,2.808,4.21,4.21c0.336,0.335,0.705,0.329,1.042-0.008
		c2.612-2.612,5.224-5.225,7.838-7.835c0.077-0.077,0.11-0.153,0.111-0.263c0.013-1.672,0.03-3.345,0.046-5.017
		C16.842,6.158,16.841,6.101,16.841,6.029z"/>
	<path display="inline" fill="#999999" d="M15.196,8.293c-0.001,0.543-0.441,0.987-0.987,0.995c-0.54,0.008-1.005-0.454-1.003-0.998
		c0.002-0.548,0.457-0.997,1.006-0.992C14.757,7.304,15.197,7.748,15.196,8.293z"/>
</g>
<g id="Слой_39" display="none">
	<path display="inline" fill="#999999" d="M5.268,17.054c-0.132-0.061-0.172-0.093-0.215-0.097c-2.291-0.195-2.854-0.81-2.854-3.122
		c0-2.344-0.002-4.687,0.001-7.031C2.202,4.919,3.056,4.052,4.92,4.05c3.764-0.003,7.528-0.004,11.292,0
		c1.784,0.002,2.673,0.883,2.677,2.655c0.006,2.533,0.006,5.066,0,7.599c-0.004,1.749-0.886,2.633-2.613,2.636
		c-1.704,0.003-3.409-0.019-5.113,0.017c-0.371,0.008-0.792,0.138-1.096,0.347c-1.575,1.08-3.119,2.204-4.799,3.401
		C5.268,19.385,5.268,18.198,5.268,17.054z M6.754,17.779c0.965-0.686,1.797-1.228,2.57-1.844c0.516-0.411,1.051-0.545,1.696-0.533
		c1.773,0.032,3.548,0.016,5.322,0.008c0.792-0.004,1.019-0.228,1.021-1.008c0.006-2.602,0.006-5.204,0-7.806
		c-0.002-0.773-0.245-1.016-1.02-1.017c-3.856-0.005-7.711-0.004-11.567,0C3.961,5.58,3.731,5.815,3.729,6.64
		c-0.004,2.578-0.005,5.157,0,7.735c0.002,0.827,0.215,1.029,1.063,1.038c0.631,0.006,1.262,0.001,1.962,0.001
		C6.754,16.208,6.754,16.906,6.754,17.779z"/>
</g>
<g id="Слой_40">
	<path fill="#999999" d="M8.664,0.641c-4.486,0-8.122,3.637-8.122,8.122c0,4.486,3.637,8.122,8.122,8.122
		c4.486,0,8.122-3.636,8.122-8.122C16.787,4.278,13.15,0.641,8.664,0.641z M8.664,15.41c-3.67,0-6.646-2.975-6.646-6.646
		s2.975-6.646,6.646-6.646s6.646,2.975,6.646,6.646S12.334,15.41,8.664,15.41z"/>
	<path fill="#999999" d="M9.403,8.458V4.333c0-0.408-0.331-0.738-0.738-0.738c-0.408,0-0.738,0.331-0.738,0.738v4.43
		c0,0.002,0.001,0.003,0.001,0.005c0,0.047,0.005,0.093,0.014,0.139C7.945,8.931,7.953,8.951,7.96,8.974
		c0.007,0.024,0.013,0.049,0.023,0.073C7.993,9.072,8.007,9.095,8.02,9.119c0.01,0.018,0.018,0.037,0.03,0.054
		c0.027,0.041,0.058,0.079,0.092,0.113l2.088,2.088c0.288,0.288,0.756,0.288,1.044,0c0.288-0.288,0.288-0.756,0-1.044L9.403,8.458z"
		/>
</g>
<g id="Слой_41" display="none">
	<g display="inline">
		<g>
			<path fill="#E53935" d="M16.233,4.047h-3.62c-0.208,0-0.375,0.167-0.375,0.375c0,0.208,0.167,0.375,0.375,0.375h3.62
				c0.409,0,0.742,0.333,0.742,0.742v9.307c0,0.409-0.333,0.742-0.742,0.742H2.162c-0.409,0-0.742-0.333-0.742-0.742V5.539
				c0-0.409,0.333-0.742,0.742-0.742h3.677c0.208,0,0.375-0.167,0.375-0.375c0-0.208-0.167-0.375-0.375-0.375H2.162
				c-0.822,0-1.492,0.67-1.492,1.492v9.307c0,0.822,0.67,1.492,1.492,1.492h6.661v2.253H5.71c-0.208,0-0.375,0.167-0.375,0.375
				c0,0.208,0.167,0.375,0.375,0.375h6.971c0.208,0,0.375-0.167,0.375-0.375c0-0.208-0.167-0.375-0.375-0.375H9.569v-2.253h6.661
				c0.822,0,1.492-0.67,1.492-1.492V5.539C17.725,4.717,17.055,4.047,16.233,4.047z"/>
			<path fill="#E53935" d="M11.31,2.282c0-0.81-0.659-1.473-1.473-1.473H8.554c-0.81,0-1.473,0.659-1.473,1.473v0.882
				c0,0.023,0.004,0.045,0.008,0.064C7.085,3.252,7.081,3.271,7.081,3.293v7.316c0,0.083,0.027,0.163,0.076,0.227l1.738,2.283
				c0.072,0.095,0.182,0.148,0.299,0.148c0.117,0,0.227-0.053,0.299-0.148l1.738-2.283c0.049-0.064,0.076-0.144,0.076-0.227V3.282
				c0-0.019-0.004-0.042-0.008-0.061c0.004-0.019,0.008-0.038,0.008-0.061V2.282H11.31z M7.834,3.539h0.988v6.642H7.834V3.539z
				 M9.198,12.275l-1.026-1.348h2.052L9.198,12.275z M10.561,10.181H9.572V3.539h0.988V10.181z M10.561,2.79H7.834V2.282
				c0-0.398,0.326-0.723,0.723-0.723h1.284c0.398,0,0.723,0.326,0.723,0.723V2.79C10.564,2.79,10.561,2.79,10.561,2.79z"/>
		</g>
	</g>
</g>
<g id="Слой_42" display="none">
	<g display="inline">
		<g>
			<path fill="#E53935" d="M3.771,4.148c2.974-3.042,7.866-3.1,10.908-0.127l-0.867,0.01c-0.188,0.003-0.336,0.154-0.336,0.343
				C13.479,4.56,13.63,4.71,13.815,4.71h0.003l1.686-0.021c0.188-0.003,0.336-0.154,0.336-0.343l-0.021-1.686
				c-0.003-0.188-0.154-0.339-0.343-0.336s-0.336,0.154-0.336,0.343l0.01,0.867c-3.309-3.234-8.633-3.169-11.867,0.14
				c-1.12,1.148-1.888,2.58-2.213,4.145c-0.319,1.525-0.209,3.1,0.315,4.563c0.051,0.137,0.182,0.226,0.319,0.226
				c0.038,0,0.075-0.007,0.113-0.021c0.175-0.062,0.267-0.257,0.206-0.435C1.02,9.349,1.688,6.279,3.771,4.148z"/>
			<path fill="#E53935" d="M3.424,15.55c1.579,1.542,3.659,2.388,5.862,2.388c0.034,0,0.065,0,0.099,0
				c2.244-0.027,4.341-0.922,5.906-2.528c1.124-1.148,1.888-2.583,2.213-4.149c0.319-1.525,0.209-3.1-0.315-4.563
				c-0.062-0.175-0.257-0.267-0.435-0.206c-0.175,0.062-0.267,0.257-0.206,0.435c1.007,2.806,0.339,5.875-1.744,8.006
				c-1.442,1.473-3.368,2.299-5.43,2.323C7.316,17.28,5.37,16.499,3.897,15.06l0.867-0.01C4.952,15.046,5.1,14.895,5.1,14.707
				c-0.003-0.185-0.154-0.336-0.339-0.336H4.757l-1.686,0.021c-0.089,0-0.175,0.038-0.24,0.103c-0.062,0.065-0.096,0.151-0.096,0.24
				l0.021,1.686c0.003,0.185,0.154,0.336,0.339,0.336h0.003c0.188-0.003,0.336-0.154,0.336-0.343L3.424,15.55z"/>
			<path fill="#E53935" d="M13.98,7.595c-0.75-1.805-2.449-3.004-4.382-3.121C9.564,4.47,9.526,4.47,9.488,4.467
				c-0.003,0-0.01,0-0.014,0c-0.021,0-0.041-0.003-0.062-0.003c-0.003,0-0.007,0-0.01,0c-0.038,0-0.075-0.003-0.116-0.003
				c-0.668,0-1.319,0.13-1.939,0.387C6.093,5.365,5.117,6.341,4.6,7.595c-0.521,1.254-0.521,2.634,0,3.885
				c0.788,1.905,2.631,3.138,4.693,3.138c0.027,0,0.051,0,0.079-0.003c0.014,0,0.031,0.003,0.045,0.003c0.007,0,0.014,0,0.017-0.003
				c0.031,0,0.058-0.003,0.089-0.003c0.01,0,0.021,0,0.034,0c0.01,0,0.017,0,0.027-0.003c0.565-0.031,1.12-0.158,1.651-0.377
				c1.254-0.517,2.23-1.494,2.748-2.748s0.521-2.634,0-3.885C13.98,7.598,13.98,7.598,13.98,7.595
				C13.98,7.598,13.98,7.598,13.98,7.595z M7.518,5.515C7.142,6.005,6.84,6.646,6.641,7.389H5.453
				C5.915,6.56,6.635,5.906,7.518,5.515z M5.144,8.071h1.35c-0.079,0.462-0.12,0.956-0.12,1.473c0,0.51,0.045,1.007,0.13,1.473
				h-1.36C4.802,10.058,4.802,9.027,5.144,8.071z M5.453,11.692h1.209c0.212,0.757,0.534,1.411,0.928,1.912
				C6.693,13.227,5.936,12.562,5.453,11.692z M9.074,13.892c-0.709-0.209-1.34-1.059-1.699-2.199h1.699V13.892L9.074,13.892z
				 M9.074,11.014H7.2c-0.096-0.466-0.147-0.963-0.147-1.473c0-0.517,0.048-1.014,0.13-1.473h1.891V11.014z M9.074,7.393h-1.73
				C7.69,6.214,8.32,5.382,9.074,5.19V7.393z M13.126,7.389h-0.942c-0.175-0.654-0.425-1.226-0.74-1.686
				C12.14,6.094,12.726,6.673,13.126,7.389z M9.752,5.186c0.754,0.195,1.381,1.028,1.73,2.203h-1.73V5.186z M9.752,8.071h1.891
				c0.086,0.459,0.13,0.952,0.13,1.473c0,0.51-0.051,1.007-0.147,1.473H9.752V8.071z M9.752,13.892v-2.199h1.699
				C11.092,12.833,10.461,13.683,9.752,13.892z M11.376,13.415c0.332-0.469,0.603-1.059,0.791-1.723h0.959
				C12.719,12.425,12.116,13.018,11.376,13.415z M13.435,11.014h-1.113c0.086-0.466,0.13-0.959,0.13-1.473
				c0-0.517-0.041-1.011-0.12-1.473h1.103C13.777,9.027,13.777,10.058,13.435,11.014z"/>
		</g>
	</g>
</g>
<g id="Слой_43" display="none">
	<g display="inline">
		<g>
			<path fill="#E53935" d="M17.696,9.477c0-4.686-3.813-8.499-8.499-8.499c-0.191,0-0.343,0.153-0.343,0.343v3.144H8.694
				c-1.591,0-2.887,1.293-2.887,2.887v4.253c0,1.591,1.293,2.887,2.887,2.887h1.002c1.591,0,2.887-1.293,2.887-2.887V7.349
				c0-1.591-1.293-2.887-2.887-2.887H9.537V1.668c4.152,0.18,7.473,3.615,7.473,7.809c0,2.759-1.411,5.258-3.771,6.69
				c-2.44,1.477-5.418,1.501-8.166,0.066c-1.13-0.593-2.042-1.504-2.634-2.638C0.591,10.049,1.201,6.143,3.994,3.65
				c0.142-0.125,0.153-0.343,0.028-0.485C3.897,3.023,3.679,3.013,3.537,3.137C2.147,4.378,1.19,6.063,0.844,7.883
				c-0.374,1.979-0.035,4.066,0.984,6.024c0.655,1.262,1.667,2.274,2.925,2.929c1.456,0.763,2.974,1.14,4.457,1.14
				c1.535,0,3.036-0.409,4.385-1.227C16.164,15.196,17.696,12.475,17.696,9.477z M9.7,5.148c1.213,0,2.201,0.988,2.201,2.201v4.253
				c0,1.213-0.988,2.201-2.201,2.201H8.698c-1.213,0-2.201-0.988-2.201-2.201V7.349c0-1.213,0.988-2.201,2.201-2.201L9.7,5.148
				L9.7,5.148z"/>
			<path fill="#E53935" d="M9.197,8.61c0.191,0,0.343-0.153,0.343-0.343V6.569c0-0.191-0.153-0.343-0.343-0.343
				c-0.191,0-0.343,0.153-0.343,0.343v1.698C8.854,8.454,9.006,8.61,9.197,8.61z"/>
		</g>
	</g>
</g>
<g id="Слой_44" display="none">
	<g display="inline">
		<g>
			<path fill="#E53935" d="M7.668,12.199h-3.98c-0.19,0-0.342,0.152-0.342,0.342s0.152,0.342,0.342,0.342h3.686
				c0.107,0.297,0.394,0.508,0.726,0.508h2.185c0.332,0,0.619-0.211,0.726-0.508h3.69c0.19,0,0.342-0.152,0.342-0.342
				s-0.152-0.342-0.342-0.342h-3.98c-0.19,0-0.342,0.152-0.342,0.342v0.076c0,0.048-0.041,0.09-0.09,0.09H8.103
				c-0.048,0-0.09-0.041-0.09-0.09v-0.076C8.01,12.351,7.858,12.199,7.668,12.199z"/>
			<path fill="#E53935" d="M17.329,12.199H16.43V4.311c0-0.19-0.152-0.342-0.342-0.342s-0.342,0.152-0.342,0.342v8.23
				c0,0.19,0.156,0.342,0.346,0.342h0.896v0.47c0,0.484-0.394,0.878-0.878,0.878H2.283c-0.484,0-0.878-0.394-0.878-0.878v-0.47
				h0.896c0.19,0,0.342-0.152,0.342-0.342v-8.23c0-0.19-0.152-0.342-0.342-0.342S1.958,4.121,1.958,4.311v7.888H1.063
				c-0.19,0-0.342,0.152-0.342,0.342v0.813c0,0.861,0.702,1.563,1.563,1.563h13.825c0.861,0,1.563-0.702,1.563-1.563v-0.813
				C17.671,12.351,17.519,12.199,17.329,12.199z"/>
			<path fill="#E53935" d="M10.527,3.256L8.553,5.221L7.865,4.529c-0.135-0.135-0.349-0.135-0.484,0
				c-0.135,0.135-0.135,0.349,0,0.484l0.927,0.934c0.066,0.066,0.156,0.1,0.242,0.1s0.173-0.035,0.242-0.1l2.22-2.206
				c0.135-0.135,0.135-0.349,0-0.484C10.88,3.125,10.662,3.122,10.527,3.256z"/>
			<path fill="#E53935" d="M13.422,0.85H4.97c-0.692,0-1.255,0.564-1.255,1.255v4.993c0,0.692,0.564,1.255,1.255,1.255h0.356v1.504
				c0,0.28,0.228,0.505,0.508,0.505c0.145,0,0.284-0.062,0.38-0.176l1.584-1.833h5.623c0.692,0,1.255-0.564,1.255-1.255V2.105
				C14.677,1.413,14.113,0.85,13.422,0.85z M13.992,7.098c0,0.315-0.256,0.571-0.571,0.571H7.64c-0.1,0-0.194,0.041-0.259,0.118
				L6.008,9.374V8.011c0-0.19-0.152-0.342-0.342-0.342H4.967c-0.315,0-0.571-0.256-0.571-0.571V2.105
				c0-0.315,0.256-0.571,0.571-0.571h8.451c0.315,0,0.571,0.256,0.571,0.571v4.993H13.992z"/>
		</g>
	</g>
</g>
</svg>
