<?xml version="1.0" encoding="utf-8"?>
<!-- Generator: Adobe Illustrator 19.0.0, SVG Export Plug-In . SVG Version: 6.00 Build 0)  -->
<svg version="1.1" id="Слой_1" xmlns="http://www.w3.org/2000/svg" xmlns:xlink="http://www.w3.org/1999/xlink" x="0px" y="0px"
	 viewBox="0 0 46.125 56.693" enable-background="new 0 0 46.125 56.693" xml:space="preserve">
<path fill="#0D8497" d="M21.414,56.151c-1.077-0.109-2.156-0.203-3.231-0.33c-5.217-0.619-10.362-1.567-15.311-3.393
	c-1.514-0.559-1.941-1.17-1.864-2.776c0.205-4.292,0.775-8.536,1.956-12.674c0.294-1.031,0.767-2.029,1.28-2.976
	c0.949-1.75,2.618-2.566,4.407-3.214c1.594-0.577,3.173-1.201,4.741-1.846c0.365-0.15,0.494,0.05,0.677,0.235
	c1.827,1.859,4.006,3.099,6.576,3.543c4.509,0.779,8.507-0.247,11.798-3.55c0.267-0.268,0.464-0.311,0.832-0.161
	c1.805,0.735,3.618,1.454,5.45,2.118c2.207,0.8,3.549,2.399,4.387,4.514c0.88,2.22,1.294,4.553,1.635,6.894
	c0.315,2.163,0.527,4.342,0.731,6.519c0.208,2.219-0.143,2.743-2.237,3.52c-3.54,1.314-7.215,2.102-10.93,2.686
	c-2.283,0.359-4.593,0.545-6.891,0.812c-0.106,0.012-0.209,0.051-0.313,0.078C23.876,56.151,22.645,56.151,21.414,56.151z"/>
<path fill="#0D8497" d="M24.455,0.541c0.958,0.176,1.933,0.288,2.871,0.538c3.854,1.027,6.312,3.513,7.438,7.316
	c0.82,2.771,0.68,5.576,0.219,8.389c-0.474,2.896-1.275,5.679-2.825,8.198c-1.348,2.19-3.132,3.892-5.645,4.663
	c-4.161,1.277-8.643,0.197-11.45-3.631c-2.03-2.769-2.986-5.946-3.533-9.284c-0.338-2.065-0.498-4.133-0.218-6.215
	c0.383-2.848,1.444-5.367,3.672-7.287c1.608-1.386,3.51-2.122,5.581-2.465c0.498-0.083,0.999-0.149,1.499-0.222
	C22.862,0.541,23.658,0.541,24.455,0.541z"/>
</svg>
