<?xml version="1.0" encoding="utf-8"?>
<!-- Generator: Adobe Illustrator 19.0.0, SVG Export Plug-In . SVG Version: 6.00 Build 0)  -->
<svg version="1.1" id="Capa_1" xmlns="http://www.w3.org/2000/svg" xmlns:xlink="http://www.w3.org/1999/xlink" x="0px" y="0px"
	 viewBox="-52 176.29 489.6 489.6" enable-background="new -52 176.29 489.6 489.6" xml:space="preserve">
<g>
	<g>
		<g>
			<path fill="#0D8497" d="M391,445.99c-5.4,0-9.7,4.3-9.7,9.7v78.1c0,9.7-3.1,19-8.9,27.2c-11.3,15.2-46.6,50.9-132.5,51.3
				c-5.4-12.8-23.7-22.1-45.5-22.1c-26,0-47,13.6-47,29.9s21,29.9,47,29.9c19.8,0,36.9-7.8,43.9-18.7h0.4
				c95.2,0,136-41.2,148.8-59.1c8.2-11.3,12.4-24.5,12.4-38.5v-78.5C400.7,450.19,396.4,445.99,391,445.99z"/>
			<path fill="#0D8497" d="M437.6,466.99c0-24.9-11.3-47.4-29.1-62.2c-1.6-117.4-98-212.6-215.7-212.6s-214.1,95.2-215.7,212.6
				c-17.9,14.8-29.1,37.3-29.1,62.2c0,44.3,36.1,80.8,80.8,80.8c5.4,0,9.7-4.3,9.7-9.7v-142.3c0-5.4-4.3-9.7-9.7-9.7
				c-11.3,0-22.1,2.3-31.9,6.6c7.8-101.4,92.5-181.4,195.9-181.4s188.1,80,195.8,181.5c-9.7-4.3-20.6-6.6-31.9-6.6
				c-5.4,0-9.7,4.3-9.7,9.7v142.2c0,5.4,4.3,9.3,9.7,9.7c2.8,0.2,5.4-8.9,5.4-13.6v-78.9c0-15.9,12.8-28.8,28.8-28.8
				s28.8,12.8,28.8,28.8v62.2C431,503.89,437.6,485.99,437.6,466.99z"/>
		</g>
	</g>
</g>
</svg>
