<?xml version="1.0" encoding="utf-8"?>
<!-- Generator: Adobe Illustrator 19.0.0, SVG Export Plug-In . SVG Version: 6.00 Build 0)  -->
<svg version="1.1" xmlns="http://www.w3.org/2000/svg" xmlns:xlink="http://www.w3.org/1999/xlink" x="0px" y="0px"
	 viewBox="0 0 17.309 14.463" enable-background="new 0 0 17.309 14.463" xml:space="preserve">
<g id="mail" display="none">
	<path display="inline" d="M0.299,6.879c1.354,1.168,2.709,2.335,4.062,3.504c0.836,0.723,1.668,1.45,2.528,2.198
		c-0.701,0.596-1.38,1.172-2.059,1.75c-1.401,1.191-2.802,2.384-4.204,3.574c-0.103,0.087-0.218,0.159-0.327,0.239
		C0.299,14.388,0.299,10.634,0.299,6.879z"/>
	<path display="inline" d="M18.95,6.035c-3.031,2.598-6.057,5.191-9.103,7.802c-3.042-2.607-6.068-5.2-9.1-7.799
		C1.074,5.705,1.46,5.656,1.866,5.656c1.715,0.001,3.431,0,5.146,0c3.58,0,7.16,0.001,10.739-0.001
		C18.18,5.656,18.598,5.681,18.95,6.035z"/>
	<path display="inline" d="M12.21,13.136c2.242,1.923,4.475,3.838,6.783,5.817c-0.277,0.119-0.497,0.237-0.731,0.304
		c-0.162,0.047-0.345,0.032-0.519,0.032C12.476,19.291,7.208,19.29,1.94,19.291c-0.429,0-0.846-0.026-1.194-0.379
		c2.248-1.927,4.491-3.849,6.74-5.777c0.795,0.694,1.569,1.37,2.362,2.063C10.643,14.504,11.418,13.828,12.21,13.136z"/>
	<path display="inline" d="M19.363,18.154c-2.206-1.875-4.371-3.714-6.558-5.573c2.189-1.904,4.352-3.786,6.558-5.705
		C19.363,10.647,19.363,14.369,19.363,18.154z"/>
</g>
<g id="phone" display="none">
	<path display="inline" d="M13.942,3.736c0.622,0.246,0.841,0.703,0.838,1.367c-0.017,4.422-0.017,8.844,0,13.265
		c0.003,0.664-0.216,1.121-0.838,1.367c-2.542,0-5.083,0-7.625,0c-0.623-0.246-0.84-0.704-0.838-1.368
		c0.017-4.422,0.017-8.843,0-13.265C5.477,4.438,5.695,3.982,6.317,3.736C8.859,3.736,11.401,3.736,13.942,3.736z M6.266,5.458
		c0,4.108,0,8.184,0,12.258c2.593,0,5.161,0,7.727,0c0-4.095,0-8.17,0-12.258C11.409,5.458,8.85,5.458,6.266,5.458z M10.133,18.119
		c-0.287-0.002-0.54,0.253-0.537,0.54c0.003,0.283,0.231,0.515,0.515,0.523c0.3,0.009,0.545-0.22,0.552-0.517
		C10.67,18.378,10.42,18.121,10.133,18.119z M10.129,4.516c-0.352,0-0.704-0.006-1.056,0.005C9.007,4.523,8.944,4.593,8.879,4.632
		c0.065,0.05,0.129,0.142,0.195,0.143c0.704,0.01,1.408,0.01,2.112,0c0.065-0.001,0.129-0.094,0.193-0.144
		c-0.065-0.038-0.129-0.108-0.195-0.11C10.833,4.51,10.481,4.515,10.129,4.516z"/>
</g>
<g id="search" display="none">
	<path display="inline" d="M17.329,20.072c-0.111,0-0.222,0-0.333,0c-0.292-0.089-0.496-0.296-0.7-0.51
		c-1.24-1.294-2.484-2.584-3.725-3.877c-0.045-0.047-0.076-0.109-0.113-0.164c-0.067,0.051-0.095,0.068-0.123,0.086
		c-1.14,0.766-2.395,1.158-3.769,1.177c-1.454,0.02-2.78-0.393-3.974-1.212c-1.061-0.729-1.856-1.689-2.387-2.865
		c-0.561-1.243-0.727-2.542-0.516-3.883C1.913,7.41,2.534,6.182,3.525,5.149c1.004-1.045,2.219-1.717,3.643-1.997
		C7.455,3.095,7.747,3.063,8.036,3.02c0.3,0,0.6,0,0.899,0c0.153,0.021,0.306,0.043,0.459,0.063
		c1.556,0.209,2.886,0.881,3.985,1.992c1.087,1.098,1.742,2.423,1.936,3.961c0.171,1.355-0.034,2.658-0.649,3.879
		c-0.25,0.497-0.573,0.957-0.907,1.508c0.121,0.102,0.3,0.229,0.45,0.384c1.185,1.224,2.364,2.454,3.546,3.68
		c0.272,0.283,0.385,0.604,0.256,0.987C17.9,19.804,17.642,19.97,17.329,20.072z M8.493,4.818C5.696,4.813,3.413,7.091,3.403,9.897
		c-0.01,2.799,2.293,5.105,5.089,5.094c2.809-0.011,5.08-2.284,5.08-5.086C13.573,7.105,11.294,4.823,8.493,4.818z"/>
</g>
<g id="ru" display="none">
	<text transform="matrix(1 0 0 1 2.0835 15.4628)" display="inline" font-family="'Roboto-Medium'" font-size="12px">RU</text>
</g>
<g id="arrow_main_menu" display="none">
	<polygon display="inline" fill="#E53935" points="0.107,10.058 19.559,10.058 9.833,18.016 	"/>
</g>
<g id="Слой_7" display="none">
	<path display="inline" fill="#FFFFFF" d="M3.599,16.036c0-3.452,0-6.903,0-10.355C3.81,5.117,4.188,4.721,4.761,4.519
		c3.346,0,6.692,0,10.038,0c0.689,0.194,1.23,0.56,1.479,1.268c0,3.416,0,6.833,0,10.249c-0.235,0.592-0.643,0.996-1.268,1.162
		c-3.416,0-6.833,0-10.249,0C4.193,16.992,3.792,16.618,3.599,16.036z M9.943,15.508c1.233,0,2.465,0.006,3.698-0.003
		c0.621-0.004,0.94-0.326,0.943-0.948c0.007-1.462-0.008-2.923,0.009-4.385c0.008-0.69-0.491-0.322-0.746-0.353
		c-0.417-0.051-0.175,0.28-0.15,0.427c0.249,1.444-0.404,2.979-1.678,3.783c-1.381,0.871-2.794,0.868-4.172-0.005
		c-1.267-0.802-1.918-2.343-1.667-3.788c0.026-0.151,0.261-0.477-0.162-0.42C5.76,9.851,5.272,9.501,5.283,10.184
		c0.022,1.444,0.003,2.888,0.008,4.332c0.002,0.683,0.314,0.988,1.007,0.991C7.513,15.512,8.728,15.508,9.943,15.508z M9.956,8.535
		c-1.277-0.008-2.327,1.02-2.341,2.292c-0.014,1.278,1.009,2.335,2.279,2.355c1.298,0.021,2.366-1.026,2.368-2.32
		C12.264,9.588,11.228,8.542,9.956,8.535z M13.548,6.209c-1.073,0-1.074,0-1.073,1.065c0,0.193-0.003,0.387,0.002,0.58
		c0.008,0.294,0.161,0.437,0.456,0.47c1.542,0.175,1.821-0.103,1.658-1.649c-0.031-0.293-0.166-0.454-0.462-0.464
		C13.935,6.205,13.741,6.21,13.548,6.209z"/>
</g>
<g id="Слой_7__x28_копия_x29_" display="none">
	<path display="inline" fill="#25798C" d="M3.599,16.036c0-3.452,0-6.903,0-10.355C3.81,5.117,4.188,4.721,4.761,4.519
		c3.346,0,6.692,0,10.038,0c0.689,0.194,1.23,0.56,1.479,1.268c0,3.416,0,6.833,0,10.249c-0.235,0.592-0.643,0.996-1.268,1.162
		c-3.416,0-6.833,0-10.249,0C4.193,16.992,3.792,16.618,3.599,16.036z M9.943,15.508c1.233,0,2.465,0.006,3.698-0.003
		c0.621-0.004,0.94-0.326,0.943-0.948c0.007-1.462-0.008-2.923,0.009-4.385c0.008-0.69-0.491-0.322-0.746-0.353
		c-0.417-0.051-0.175,0.28-0.15,0.427c0.249,1.444-0.404,2.979-1.678,3.783c-1.381,0.871-2.794,0.868-4.172-0.005
		c-1.267-0.802-1.918-2.343-1.667-3.788c0.026-0.151,0.261-0.477-0.162-0.42C5.76,9.851,5.272,9.501,5.283,10.184
		c0.022,1.444,0.003,2.888,0.008,4.332c0.002,0.683,0.314,0.988,1.007,0.991C7.513,15.512,8.728,15.508,9.943,15.508z M9.956,8.535
		c-1.277-0.008-2.327,1.02-2.341,2.292c-0.014,1.278,1.009,2.335,2.279,2.355c1.298,0.021,2.366-1.026,2.368-2.32
		C12.264,9.588,11.228,8.542,9.956,8.535z M13.548,6.209c-1.073,0-1.074,0-1.073,1.065c0,0.193-0.003,0.387,0.002,0.58
		c0.008,0.294,0.161,0.437,0.456,0.47c1.542,0.175,1.821-0.103,1.658-1.649c-0.031-0.293-0.166-0.454-0.462-0.464
		C13.935,6.205,13.741,6.21,13.548,6.209z"/>
</g>
<g id="Слой_8" display="none">
	<path display="inline" fill="#FFFFFF" d="M3.622,15.029c1.271-0.011,2.45-0.26,3.561-1.098c-1.14-0.184-2.046-0.588-2.493-1.706
		c0.695,0.023,1.34,0.327,2.05-0.003c-1.381-0.63-2.563-1.398-2.962-2.985c0.39,0.023,0.631,0.34,0.987,0.216
		C4.706,9.203,4.497,9.099,4.368,8.937C3.759,8.173,3.644,7.244,4.058,6.478c0.129-0.238,0.22-0.273,0.416-0.056
		C5.82,7.914,7.6,8.255,9.492,8.312c0.36,0.011,0.338-0.17,0.343-0.424c0.027-1.505,1.12-2.592,2.577-2.591
		c0.655,0.001,1.197,0.269,1.596,0.756c0.346,0.42,0.663,0.45,1.077,0.138c0.183-0.138,0.397-0.233,0.61-0.355
		c-0.051,0.486-0.134,0.622-0.915,1.503c0.492,0.052,0.875-0.272,1.373-0.324c-0.21,0.398-0.455,0.707-0.761,0.937
		c-0.344,0.258-0.407,0.566-0.413,0.968c-0.047,3.456-2.325,6.281-5.651,6.959C7.342,16.283,5.426,16.013,3.622,15.029z"/>
</g>
<g id="Слой_8__x28_копия_x29_" display="none">
	<path display="inline" fill="#25798C" d="M3.622,15.029c1.271-0.011,2.45-0.26,3.561-1.098c-1.14-0.184-2.046-0.588-2.493-1.706
		c0.695,0.023,1.34,0.327,2.05-0.003c-1.381-0.63-2.563-1.398-2.962-2.985c0.39,0.023,0.631,0.34,0.987,0.216
		C4.706,9.203,4.497,9.099,4.368,8.937C3.759,8.173,3.644,7.244,4.058,6.478c0.129-0.238,0.22-0.273,0.416-0.056
		C5.82,7.914,7.6,8.255,9.492,8.312c0.36,0.011,0.338-0.17,0.343-0.424c0.027-1.505,1.12-2.592,2.577-2.591
		c0.655,0.001,1.197,0.269,1.596,0.756c0.346,0.42,0.663,0.45,1.077,0.138c0.183-0.138,0.397-0.233,0.61-0.355
		c-0.051,0.486-0.134,0.622-0.915,1.503c0.492,0.052,0.875-0.272,1.373-0.324c-0.21,0.398-0.455,0.707-0.761,0.937
		c-0.344,0.258-0.407,0.566-0.413,0.968c-0.047,3.456-2.325,6.281-5.651,6.959C7.342,16.283,5.426,16.013,3.622,15.029z"/>
</g>
<g id="Слой_9__x28_копия_x29_" display="none">
	<path display="inline" fill="#FFFFFF" d="M12.667,9.05h-1.858V7.831c0-0.458,0.303-0.564,0.517-0.564c0.213,0,1.311,0,1.311,0
		V5.255l-1.806-0.007c-2.005,0-2.461,1.501-2.461,2.461V9.05H7.21v2.073H8.37c0,2.661,0,5.867,0,5.867h2.439c0,0,0-3.238,0-5.867
		h1.646L12.667,9.05z"/>
</g>
<g id="Слой_9" display="none">
	<path display="inline" fill="#25798C" d="M12.667,9.05h-1.858V7.831c0-0.458,0.303-0.564,0.517-0.564c0.213,0,1.311,0,1.311,0
		V5.255l-1.806-0.007c-2.005,0-2.461,1.501-2.461,2.461V9.05H7.21v2.073H8.37c0,2.661,0,5.867,0,5.867h2.439c0,0,0-3.238,0-5.867
		h1.646L12.667,9.05z"/>
</g>
<g id="Слой_10" display="none">
	<path display="inline" fill="#FFFFFF" d="M0.2,7.27c0.906-0.047,1.814-0.141,2.718-0.113c0.258,0.008,0.575,0.324,0.746,0.578
		c0.655,0.977,1.248,1.996,1.894,2.98c0.255,0.389,0.589,0.727,1.022,1.252c0.19-0.462,0.371-0.723,0.397-0.998
		c0.081-0.859,0.111-1.724,0.148-2.587c0.032-0.758-0.57-0.671-1.134-0.723c0.647-0.732,1.385-1.061,2.255-1.107
		C8.678,6.53,9.111,6.546,9.544,6.549c0.787,0.006,1.029,0.211,1.054,1.021c0.03,0.961-0.049,1.927,0.024,2.883
		c0.033,0.434,0.232,1.135,0.502,1.213c0.597,0.175,0.644-0.549,0.868-0.938c0.635-1.101,1.23-2.226,1.897-3.307
		c0.147-0.238,0.534-0.478,0.799-0.466c0.784,0.035,1.565,0.18,2.342,0.314c0.473,0.081,0.592,0.393,0.349,0.792
		c-0.524,0.86-1.07,1.706-1.61,2.556c-0.064,0.101-0.145,0.192-0.216,0.288c-1.023,1.378-1.008,1.364,0.195,2.548
		c0.546,0.537,1.07,1.112,1.515,1.733c0.549,0.767,0.137,1.643-0.803,1.731c-0.691,0.065-1.397,0.06-2.089-0.003
		c-0.273-0.025-0.55-0.259-0.78-0.452c-0.607-0.509-1.152-1.097-1.79-1.56c-0.761-0.552-1.665-0.087-1.782,0.855
		c-0.153,1.222-0.158,1.224-1.363,1.177c-1.198-0.047-2.246-0.48-3.164-1.235c-2.128-1.749-3.616-3.962-4.674-6.484
		C0.623,8.755,0.406,8.303,0.2,7.847C0.2,7.655,0.2,7.462,0.2,7.27z"/>
</g>
<g id="Слой_10__x28_копия_x29_" display="none">
	<path display="inline" fill="#25798C" d="M0.2,7.27c0.906-0.047,1.814-0.141,2.718-0.113c0.258,0.008,0.575,0.324,0.746,0.578
		c0.655,0.977,1.248,1.996,1.894,2.98c0.255,0.389,0.589,0.727,1.022,1.252c0.19-0.462,0.371-0.723,0.397-0.998
		c0.081-0.859,0.111-1.724,0.148-2.587c0.032-0.758-0.57-0.671-1.134-0.723c0.647-0.732,1.385-1.061,2.255-1.107
		C8.678,6.53,9.111,6.546,9.544,6.549c0.787,0.006,1.029,0.211,1.054,1.021c0.03,0.961-0.049,1.927,0.024,2.883
		c0.033,0.434,0.232,1.135,0.502,1.213c0.597,0.175,0.644-0.549,0.868-0.938c0.635-1.101,1.23-2.226,1.897-3.307
		c0.147-0.238,0.534-0.478,0.799-0.466c0.784,0.035,1.565,0.18,2.342,0.314c0.473,0.081,0.592,0.393,0.349,0.792
		c-0.524,0.86-1.07,1.706-1.61,2.556c-0.064,0.101-0.145,0.192-0.216,0.288c-1.023,1.378-1.008,1.364,0.195,2.548
		c0.546,0.537,1.07,1.112,1.515,1.733c0.549,0.767,0.137,1.643-0.803,1.731c-0.691,0.065-1.397,0.06-2.089-0.003
		c-0.273-0.025-0.55-0.259-0.78-0.452c-0.607-0.509-1.152-1.097-1.79-1.56c-0.761-0.552-1.665-0.087-1.782,0.855
		c-0.153,1.222-0.158,1.224-1.363,1.177c-1.198-0.047-2.246-0.48-3.164-1.235c-2.128-1.749-3.616-3.962-4.674-6.484
		C0.623,8.755,0.406,8.303,0.2,7.847C0.2,7.655,0.2,7.462,0.2,7.27z"/>
</g>
<g id="Слой_11" display="none">
	<g id="Google_plus_2_" display="inline">
		<polygon fill="#FFFFFF" points="16.332,5.934 16.332,3.703 15.213,3.703 15.213,5.934 12.975,5.934 12.975,7.051 15.213,7.051 
			15.213,9.283 16.332,9.283 16.332,7.051 18.57,7.051 18.57,5.934 		"/>
		<path fill="#FFFFFF" d="M10.187,12.873c-1.567-1.14-1.95-1.783-0.454-2.937c0.843-0.65,1.434-1.516,1.434-2.585
			c0-1.165-0.478-2.222-1.376-2.736h1.274l1.084-1.134c0,0-4.087,0-4.851,0c-3.028,0-4.513,1.81-4.513,3.801
			c0,2.035,1.4,3.637,4.134,3.637c-0.424,0.853-0.254,1.641,0.439,2.205c-4.668,0-5.667,2.043-5.667,3.616
			c0,2.04,2.35,3.252,5.169,3.252c3.853,0,5.385-2.037,5.385-3.709C12.243,14.918,11.732,14.027,10.187,12.873z M4.608,7.251
			C4.382,5.539,5.259,4.228,6.566,4.266c1.307,0.039,2.425,1.445,2.651,3.156c0.226,1.713-0.526,2.815-1.833,2.776
			C6.076,10.16,4.833,8.964,4.608,7.251z M6.872,19.084c-1.948,0-3.355-1.229-3.355-2.707c0-1.448,1.651-2.696,3.598-2.675
			c2.161,0,3.45,1.342,3.45,2.75C10.566,17.93,9.362,19.084,6.872,19.084z"/>
	</g>
</g>
<g id="Слой_11__x28_копия_x29_" display="none">
	<g id="Google_plus_1_" display="inline">
		<polygon fill="#25798C" points="16.332,5.934 16.332,3.703 15.213,3.703 15.213,5.934 12.975,5.934 12.975,7.051 15.213,7.051 
			15.213,9.283 16.332,9.283 16.332,7.051 18.57,7.051 18.57,5.934 		"/>
		<path fill="#25798C" d="M10.187,12.873c-1.567-1.14-1.95-1.783-0.454-2.937c0.843-0.65,1.434-1.516,1.434-2.585
			c0-1.165-0.478-2.222-1.376-2.736h1.274l1.084-1.134c0,0-4.087,0-4.851,0c-3.028,0-4.513,1.81-4.513,3.801
			c0,2.035,1.4,3.637,4.134,3.637c-0.424,0.853-0.254,1.641,0.439,2.205c-4.668,0-5.667,2.043-5.667,3.616
			c0,2.04,2.35,3.252,5.169,3.252c3.853,0,5.385-2.037,5.385-3.709C12.243,14.918,11.732,14.027,10.187,12.873z M4.608,7.251
			C4.382,5.539,5.259,4.228,6.566,4.266c1.307,0.039,2.425,1.445,2.651,3.156c0.226,1.713-0.526,2.815-1.833,2.776
			C6.076,10.16,4.833,8.964,4.608,7.251z M6.872,19.084c-1.948,0-3.355-1.229-3.355-2.707c0-1.448,1.651-2.696,3.598-2.675
			c2.161,0,3.45,1.342,3.45,2.75C10.566,17.93,9.362,19.084,6.872,19.084z"/>
	</g>
</g>
<g id="arrow_pagination" display="none">
	<path display="inline" d="M5.544,20.4c-0.04-0.021-0.081-0.041-0.121-0.063c-0.28-0.154-0.352-0.505-0.152-0.754
		c0.047-0.058,0.102-0.11,0.155-0.163c2.575-2.576,5.151-5.151,7.727-7.726c0.044-0.044,0.099-0.079,0.179-0.193
		c-0.06-0.035-0.131-0.059-0.178-0.106C10.565,8.81,7.977,6.223,5.394,3.631C5.29,3.527,5.196,3.38,5.171,3.24
		C5.12,2.959,5.304,2.797,5.544,2.692c0.081,0,0.161,0,0.242,0c0.129,0.102,0.269,0.193,0.385,0.309
		c2.695,2.69,5.386,5.383,8.079,8.075c0.049,0.049,0.099,0.097,0.142,0.15c0.156,0.196,0.155,0.442-0.002,0.635
		c-0.047,0.058-0.102,0.11-0.155,0.163c-2.688,2.689-5.376,5.377-8.066,8.064c-0.116,0.116-0.255,0.208-0.383,0.311
		C5.706,20.4,5.625,20.4,5.544,20.4z"/>
</g>
<g id="arrow_для_попапов" display="none">
	<path display="inline" fill="#25798C" d="M6.436,14.595c-0.023-0.012-0.046-0.023-0.068-0.036c-0.159-0.087-0.2-0.287-0.086-0.428
		c0.027-0.033,0.058-0.062,0.088-0.092c1.462-1.462,2.924-2.925,4.387-4.387c0.025-0.025,0.056-0.045,0.102-0.109
		c-0.034-0.02-0.074-0.033-0.101-0.06c-1.47-1.468-2.94-2.937-4.406-4.409C6.292,5.015,6.238,4.932,6.224,4.852
		C6.195,4.692,6.3,4.601,6.436,4.541c0.046,0,0.092,0,0.137,0c0.073,0.058,0.153,0.11,0.219,0.175
		c1.53,1.527,3.058,3.056,4.587,4.585c0.028,0.028,0.056,0.055,0.081,0.085c0.089,0.111,0.088,0.251-0.001,0.361
		C11.432,9.78,11.401,9.81,11.371,9.84c-1.526,1.527-3.052,3.053-4.58,4.579c-0.066,0.066-0.145,0.118-0.218,0.177
		C6.527,14.595,6.482,14.595,6.436,14.595z"/>
</g>
<g id="Blogosphere_promotion" display="none">
	<path display="inline" fill="#FFFFFF" d="M10.322,4.507c0.159,0.047,0.326,0.06,0.482,0.116c0.761,0.274,1.246,0.785,1.436,1.549
		c0.022,0.088,0.062,0.123,0.15,0.155c0.741,0.268,1.177,0.79,1.287,1.539c0.126,0.857-0.355,1.649-1.174,1.989
		c-0.22,0.091-0.451,0.138-0.691,0.138c-1.34,0.001-2.681-0.013-4.021,0.005c-0.949,0.013-1.752-0.78-1.753-1.71
		c0-0.503,0.21-0.925,0.615-1.249C6.713,6.991,6.73,6.95,6.718,6.873C6.607,6.135,7.301,5.466,8.069,5.568
		c0.072,0.01,0.104-0.009,0.139-0.063c0.3-0.454,0.722-0.755,1.255-0.91c0.126-0.037,0.256-0.059,0.384-0.088
		C10.005,4.507,10.163,4.507,10.322,4.507z M9.763,9.579c0.684,0,1.368,0,2.053,0c0.048,0,0.097,0,0.144-0.006
		c1.024-0.136,1.619-1.228,1.153-2.118c-0.216-0.414-0.554-0.683-1.029-0.784c-0.15-0.032-0.193-0.078-0.219-0.225
		c-0.012-0.068-0.023-0.137-0.039-0.205c-0.18-0.748-0.87-1.301-1.666-1.316C9.426,4.91,8.872,5.217,8.506,5.832
		c-0.117,0.196-0.167,0.22-0.378,0.166c-0.591-0.15-1.12,0.365-0.961,0.937c0.05,0.182,0.032,0.233-0.124,0.335
		C6.572,7.578,6.37,8.075,6.507,8.604C6.656,9.179,7.19,9.598,7.782,9.583C8.442,9.566,9.103,9.579,9.763,9.579z"/>
	<path display="inline" fill="#FFFFFF" d="M9.703,14.69c-0.05-0.055-0.128-0.055-0.19-0.09c-0.254-0.145-0.385-0.362-0.377-0.64
		c0.008-0.288,0.16-0.502,0.435-0.623c0.069-0.03,0.088-0.064,0.088-0.133c-0.002-0.756-0.002-1.511-0.001-2.267
		c0-0.162,0.077-0.249,0.213-0.247c0.107,0.001,0.19,0.071,0.203,0.174c0.005,0.039,0.004,0.079,0.004,0.119
		c0,0.732,0.001,1.465-0.002,2.197c0,0.082,0.016,0.126,0.103,0.163c0.265,0.111,0.44,0.396,0.423,0.662
		c-0.019,0.307-0.222,0.559-0.519,0.65c-0.031,0.009-0.07,0.003-0.092,0.034C9.895,14.69,9.799,14.69,9.703,14.69z M9.865,14.275
		c0.171,0.001,0.31-0.128,0.312-0.291c0.002-0.161-0.14-0.301-0.305-0.301c-0.169,0.001-0.31,0.134-0.313,0.295
		C9.557,14.14,9.694,14.274,9.865,14.275z"/>
	<path display="inline" fill="#FFFFFF" d="M10.814,11.502c0-0.189-0.001-0.378,0-0.566c0.001-0.155,0.076-0.242,0.207-0.245
		c0.133-0.002,0.218,0.087,0.22,0.246c0.003,0.338,0.001,0.676,0.002,1.013c0,0.059-0.001,0.12,0.01,0.178
		c0.027,0.144,0.17,0.267,0.326,0.273c0.202,0.007,0.405,0.001,0.608,0.004c0.055,0.001,0.067-0.031,0.084-0.069
		c0.14-0.305,0.439-0.467,0.783-0.427c0.308,0.036,0.565,0.283,0.619,0.595c0.06,0.346-0.162,0.682-0.522,0.789
		c-0.338,0.1-0.721-0.065-0.867-0.382c-0.034-0.073-0.071-0.094-0.151-0.094c-0.213,0-0.426,0.017-0.638-0.012
		c-0.368-0.05-0.66-0.35-0.675-0.707c-0.008-0.198-0.002-0.397-0.002-0.596C10.816,11.502,10.815,11.502,10.814,11.502z
		 M13.253,12.616c0.001-0.17-0.137-0.304-0.312-0.303c-0.168,0.002-0.308,0.138-0.307,0.3c0.001,0.161,0.143,0.298,0.31,0.298
		C13.115,12.911,13.252,12.78,13.253,12.616z"/>
	<path display="inline" fill="#FFFFFF" d="M8.921,11.514c0,0.166,0.001,0.331,0,0.497c-0.004,0.477-0.342,0.802-0.839,0.806
		c-0.168,0.002-0.337,0.002-0.505-0.001c-0.06-0.001-0.089,0.016-0.114,0.072c-0.136,0.301-0.445,0.467-0.775,0.424
		c-0.321-0.042-0.572-0.283-0.624-0.602c-0.057-0.346,0.163-0.676,0.519-0.781c0.342-0.101,0.723,0.06,0.868,0.379
		c0.037,0.081,0.081,0.098,0.161,0.095c0.161-0.005,0.323,0,0.485-0.002c0.245-0.002,0.394-0.141,0.396-0.376
		c0.003-0.345,0.001-0.689,0.002-1.034c0-0.046,0.003-0.093,0.012-0.138c0.021-0.108,0.109-0.171,0.222-0.164
		c0.106,0.007,0.187,0.079,0.19,0.187c0.005,0.212,0.001,0.424,0.001,0.636C8.92,11.514,8.921,11.514,8.921,11.514z M6.788,12.905
		c0.172,0.001,0.31-0.128,0.313-0.291c0.002-0.159-0.138-0.3-0.304-0.304c-0.172-0.004-0.315,0.132-0.314,0.301
		C6.483,12.778,6.614,12.904,6.788,12.905z"/>
</g>
<g id="Blogosphere_promotion_1_" display="none">
	<path display="inline" fill="#FFFFFF" d="M14.988,7.741c-0.065,0.176-0.07,0.364-0.101,0.547c-0.106,0.638-0.201,1.278-0.31,1.915
		c-0.078,0.457-0.461,0.781-0.925,0.815c-0.382,0.028-0.763,0.013-1.145,0.015c-0.614,0.004-1.228,0-1.842,0.002
		c-0.262,0.001-0.498-0.07-0.697-0.243c-0.041-0.035-0.068-0.039-0.113-0.005c-0.07,0.052-0.153,0.07-0.241,0.069
		c-0.324-0.001-0.648,0.001-0.972-0.001c-0.261-0.002-0.431-0.169-0.432-0.428c-0.002-1.013-0.002-2.026,0-3.039
		c0-0.246,0.142-0.414,0.387-0.428c0.357-0.021,0.715-0.018,1.073,0c0.096,0.005,0.177,0.046,0.246,0.112
		c0.026,0.025,0.047,0.047,0.088,0.033c0.367-0.132,0.694-0.319,0.905-0.663c0.107-0.173,0.147-0.365,0.147-0.566
		c0.001-0.358,0-0.716,0-1.074c0-0.174,0.053-0.238,0.224-0.274c0.223-0.047,0.445-0.055,0.666,0.014
		c0.401,0.125,0.589,0.422,0.644,0.814c0.054,0.386,0.018,0.776,0.021,1.165c0.001,0.099,0.026,0.124,0.124,0.123
		c0.406-0.006,0.812-0.003,1.218-0.002c0.348,0.001,0.636,0.126,0.849,0.41c0.096,0.128,0.134,0.278,0.185,0.424
		C14.988,7.564,14.988,7.652,14.988,7.741z M12.061,10.608c0-0.001,0-0.001,0-0.001c0.488-0.001,0.976,0.005,1.463-0.003
		c0.374-0.006,0.59-0.187,0.65-0.55c0.127-0.769,0.246-1.54,0.365-2.311c0.064-0.414-0.167-0.678-0.587-0.678
		c-0.484-0.001-0.969,0-1.453,0c-0.24,0-0.309-0.069-0.31-0.31c-0.002-0.416,0.002-0.832-0.008-1.248
		c-0.009-0.394-0.225-0.598-0.601-0.594c-0.076,0.001-0.106,0.02-0.104,0.103c0.006,0.273,0.003,0.546,0.002,0.819
		c-0.001,0.319-0.063,0.622-0.249,0.891C10.96,7.115,10.58,7.349,10.142,7.5c-0.07,0.024-0.094,0.05-0.094,0.125
		c0.003,0.795,0.001,1.59,0.002,2.384c0.001,0.375,0.225,0.598,0.598,0.599C11.119,10.609,11.59,10.608,12.061,10.608z M9.624,8.912
		c0-0.481-0.002-0.962,0.002-1.443C9.626,7.394,9.609,7.37,9.53,7.372c-0.269,0.005-0.539,0.004-0.808,0
		C8.648,7.371,8.623,7.387,8.623,7.467c0.003,0.958,0.003,1.917,0,2.875c0,0.075,0.019,0.1,0.097,0.099
		c0.269-0.004,0.539-0.004,0.808,0c0.076,0.001,0.098-0.019,0.097-0.097C9.622,9.867,9.624,9.389,9.624,8.912z"/>
	<path display="inline" fill="#FFFFFF" d="M4.508,6.697C4.559,6.559,4.58,6.41,4.651,6.278c0.256-0.477,0.649-0.756,1.193-0.766
		c0.873-0.016,1.746-0.006,2.62-0.006c0.58,0,1.16,0,1.74,0c0.044,0,0.09,0,0.132,0.011c0.088,0.023,0.153,0.121,0.147,0.21
		c-0.007,0.099-0.081,0.18-0.18,0.192c-0.044,0.005-0.088,0.005-0.133,0.005c-1.395,0-2.79,0-4.186,0
		c-0.175,0-0.348,0.018-0.506,0.1C5.102,6.22,4.931,6.536,4.931,6.956c0.001,1.235,0.001,2.47,0.001,3.705
		c0,0.188-0.003,0.375,0.001,0.563c0.008,0.484,0.276,0.834,0.734,0.961c0.096,0.027,0.195,0.03,0.294,0.031
		c0.259,0.002,0.519,0,0.778,0.001c0.221,0,0.288,0.068,0.288,0.285c0,0.495,0,0.989,0,1.49c0.044-0.004,0.063-0.039,0.087-0.062
		c0.557-0.533,1.116-1.064,1.67-1.6c0.088-0.085,0.182-0.118,0.302-0.118c1.296,0.002,2.593,0,3.889,0.002
		c0.377,0.001,0.673-0.143,0.881-0.46c0.035-0.054,0.058-0.115,0.091-0.171c0.062-0.104,0.171-0.14,0.271-0.092
		c0.103,0.049,0.15,0.165,0.102,0.277c-0.184,0.422-0.498,0.699-0.943,0.823c-0.136,0.038-0.275,0.046-0.415,0.046
		c-1.262-0.001-2.524,0-3.787-0.002c-0.07,0-0.12,0.02-0.17,0.068c-0.664,0.639-1.329,1.275-1.994,1.912
		c-0.063,0.06-0.128,0.115-0.223,0.1c-0.122-0.019-0.183-0.101-0.184-0.254c-0.001-0.276,0-0.553,0-0.829
		c0-0.293-0.003-0.587,0.002-0.88c0.002-0.089-0.016-0.119-0.114-0.119c-0.269,0.001-0.539,0.024-0.807-0.016
		c-0.55-0.081-1-0.491-1.134-1.03c-0.01-0.041-0.004-0.088-0.041-0.119C4.508,9.877,4.508,8.287,4.508,6.697z"/>
</g>
<g id="Blogosphere_promotion_2_" display="none">
	<path display="inline" fill="#FFFFFF" d="M14.972,10.033c-0.034,0.02-0.033,0.057-0.043,0.089c-0.114,0.375-0.444,0.627-0.85,0.651
		c-0.356,0.021-0.714-0.207-0.863-0.556c-0.026-0.062-0.061-0.078-0.124-0.078c-0.299,0.003-0.598,0.002-0.897,0.001
		c-0.133-0.001-0.215-0.065-0.233-0.173c-0.022-0.137,0.077-0.243,0.235-0.244c0.285-0.002,0.57-0.003,0.855,0.001
		c0.07,0.001,0.101-0.017,0.119-0.088c0.109-0.424,0.486-0.711,0.906-0.695c0.45,0.017,0.8,0.327,0.879,0.779
		c0.002,0.009,0.01,0.017,0.015,0.025C14.972,9.84,14.972,9.936,14.972,10.033z M14.053,9.367c-0.275,0.001-0.488,0.216-0.487,0.491
		c0.001,0.274,0.217,0.488,0.491,0.487c0.274-0.001,0.488-0.217,0.487-0.491C14.543,9.578,14.328,9.366,14.053,9.367z"/>
	<path display="inline" fill="#FFFFFF" d="M4.413,9.723c0.053-0.166,0.103-0.331,0.226-0.465c0.243-0.266,0.543-0.373,0.892-0.293
		C5.883,9.046,6.115,9.272,6.21,9.624c0.02,0.076,0.05,0.102,0.131,0.1c0.24-0.007,0.481-0.003,0.721-0.002
		c0.034,0,0.069-0.001,0.103,0.005c0.104,0.018,0.178,0.106,0.177,0.209c-0.001,0.101-0.068,0.181-0.172,0.201
		c-0.044,0.008-0.089,0.011-0.133,0.011c-0.251,0.001-0.501,0.002-0.752-0.001c-0.059-0.001-0.091,0.015-0.116,0.073
		c-0.158,0.355-0.512,0.576-0.875,0.553c-0.405-0.025-0.714-0.269-0.841-0.661c-0.009-0.028-0.008-0.062-0.04-0.08
		C4.413,9.929,4.413,9.826,4.413,9.723z M5.33,10.345c0.274,0,0.49-0.215,0.49-0.489c0-0.275-0.213-0.489-0.489-0.49
		c-0.276,0-0.49,0.213-0.49,0.488C4.841,10.13,5.055,10.345,5.33,10.345z"/>
	<path display="inline" fill="#FFFFFF" d="M11.077,10.114c0,0.189-0.001,0.378,0,0.567c0.002,0.201-0.054,0.379-0.193,0.527
		c-0.034,0.037-0.039,0.076-0.039,0.122c0.001,0.254,0.003,0.509-0.001,0.763c-0.001,0.065,0.023,0.096,0.078,0.125
		c0.521,0.274,1.013,0.592,1.475,0.956c0.223,0.176,0.338,0.4,0.338,0.683c0.001,0.237,0.001,0.474,0,0.711
		c0,0.093-0.02,0.177-0.109,0.229c-0.144,0.083-0.311-0.018-0.314-0.197c-0.004-0.237-0.006-0.474,0-0.711
		c0.004-0.165-0.056-0.287-0.187-0.389c-0.467-0.365-0.962-0.684-1.49-0.951c-0.155-0.078-0.222-0.187-0.219-0.359
		c0.006-0.33,0.003-0.66,0.001-0.99c0-0.096,0.027-0.175,0.107-0.232c0.088-0.063,0.13-0.153,0.129-0.257
		c-0.003-0.422,0.02-0.845-0.013-1.267C10.614,9.09,10.28,8.762,9.925,8.732C9.726,8.714,9.526,8.701,9.332,8.759
		C8.961,8.87,8.74,9.174,8.734,9.588c-0.005,0.364-0.001,0.729-0.001,1.093c0,0.12,0.036,0.222,0.137,0.295
		c0.077,0.055,0.1,0.134,0.099,0.226c-0.002,0.34-0.002,0.681,0,1.021c0.001,0.146-0.058,0.244-0.19,0.312
		C8.24,12.81,7.73,13.132,7.254,13.508c-0.124,0.098-0.182,0.216-0.179,0.372c0.004,0.241,0.001,0.481,0.001,0.722
		c0,0.095-0.04,0.17-0.127,0.206c-0.076,0.032-0.155,0.024-0.222-0.034c-0.051-0.043-0.072-0.1-0.072-0.164
		c0-0.275-0.002-0.55,0.004-0.825c0.005-0.254,0.13-0.449,0.325-0.604c0.46-0.367,0.954-0.683,1.474-0.958
		c0.064-0.034,0.087-0.07,0.085-0.142c-0.004-0.251-0.003-0.502-0.001-0.753c0-0.051-0.01-0.091-0.046-0.13
		c-0.125-0.134-0.183-0.298-0.184-0.479c-0.002-0.412-0.007-0.825,0.002-1.237c0.014-0.621,0.558-1.162,1.181-1.185
		c0.303-0.011,0.607-0.023,0.886,0.127c0.43,0.231,0.67,0.589,0.695,1.079c0.01,0.202,0.002,0.405,0.002,0.608L11.077,10.114z"/>
	<path display="inline" fill="#FFFFFF" d="M10.609,5.495c0,0.413-0.283,0.78-0.688,0.882C9.852,6.395,9.835,6.423,9.836,6.488
		c0.003,0.289,0.002,0.577,0.001,0.866c0,0.092-0.03,0.17-0.115,0.215C9.649,7.609,9.577,7.604,9.508,7.558
		C9.422,7.502,9.409,7.415,9.409,7.323C9.409,7.041,9.406,6.759,9.411,6.478c0.001-0.079-0.018-0.12-0.095-0.154
		C8.937,6.158,8.737,5.78,8.788,5.347C8.83,4.996,9.15,4.665,9.516,4.593C10.077,4.483,10.608,4.922,10.609,5.495z M9.691,5.001
		C9.423,5.002,9.199,5.227,9.2,5.495c0,0.266,0.228,0.493,0.494,0.492c0.267-0.001,0.493-0.229,0.492-0.495
		C10.184,5.224,9.959,5,9.691,5.001z"/>
	<path display="inline" fill="#FFFFFF" d="M6.634,7.686C6.133,7.678,5.738,7.325,5.695,6.877C5.649,6.395,5.954,5.962,6.421,5.874
		c0.376-0.071,0.697,0.047,0.924,0.359c0.216,0.297,0.238,0.623,0.074,0.952c-0.035,0.07-0.024,0.105,0.027,0.156
		c0.195,0.189,0.386,0.382,0.577,0.575c0.063,0.064,0.1,0.139,0.067,0.233c-0.03,0.083-0.09,0.128-0.174,0.141
		C7.828,8.304,7.764,8.258,7.707,8.2C7.52,8.013,7.331,7.828,7.147,7.638C7.094,7.583,7.053,7.566,6.98,7.605
		C6.864,7.667,6.735,7.691,6.634,7.686z M7.098,6.769c-0.001-0.273-0.217-0.49-0.489-0.49c-0.276,0-0.499,0.225-0.494,0.498
		c0.005,0.267,0.233,0.491,0.497,0.489C6.878,7.264,7.098,7.039,7.098,6.769z"/>
	<path display="inline" fill="#FFFFFF" d="M12.749,7.686c-0.124,0.004-0.277-0.032-0.415-0.116
		c-0.052-0.032-0.081-0.024-0.121,0.018c-0.19,0.194-0.383,0.385-0.575,0.577c-0.055,0.055-0.117,0.099-0.199,0.089
		c-0.158-0.018-0.238-0.193-0.15-0.326c0.023-0.034,0.052-0.064,0.081-0.093c0.184-0.185,0.368-0.371,0.554-0.554
		c0.039-0.038,0.052-0.068,0.028-0.124c-0.234-0.55,0.026-1.112,0.599-1.268c0.35-0.095,0.664-0.001,0.906,0.271
		c0.259,0.291,0.312,0.631,0.153,0.987C13.456,7.491,13.152,7.679,12.749,7.686z M12.288,6.77c0,0.27,0.22,0.494,0.487,0.496
		c0.265,0.002,0.492-0.223,0.497-0.49c0.004-0.273-0.22-0.498-0.495-0.497C12.504,6.28,12.288,6.496,12.288,6.77z"/>
</g>
<g id="ppc" display="none">
	<path display="inline" fill="#FFFFFF" d="M10.643,4.504c0.613,0.128,0.816,0.585,0.91,1.131c0.008,0.048,0.015,0.096,0.023,0.151
		c0.057,0,0.106,0,0.154,0c0.916,0,1.831,0,2.747,0c0.045,0,0.091-0.001,0.135,0.008c0.113,0.023,0.181,0.112,0.171,0.221
		c-0.011,0.113-0.075,0.179-0.188,0.193c-0.045,0.005-0.09,0.006-0.135,0.006c-3.203,0-6.405,0-9.608,0
		c-0.049,0-0.099,0-0.147-0.008c-0.101-0.017-0.16-0.08-0.171-0.182C4.522,5.916,4.571,5.839,4.673,5.805
		C4.722,5.789,4.777,5.787,4.83,5.787c0.78-0.001,1.56-0.001,2.34-0.001c0.045,0,0.089,0,0.141,0
		c0.084-0.591,0.245-1.122,0.918-1.282C9.034,4.504,9.838,4.504,10.643,4.504z M7.721,5.78c1.163,0,2.286,0,3.439,0
		c-0.052-0.172-0.091-0.335-0.149-0.489c-0.088-0.235-0.264-0.36-0.518-0.36c-0.701-0.001-1.403-0.001-2.104,0
		c-0.227,0-0.4,0.104-0.489,0.31C7.827,5.408,7.784,5.587,7.721,5.78z"/>
	<path display="inline" fill="#FFFFFF" d="M5.199,6.649c2.978,0,5.94,0,8.91,0c0,0.105,0.004,0.206-0.001,0.307
		c-0.055,1.333-0.11,2.665-0.166,3.998c-0.072,1.714-0.145,3.428-0.219,5.142c-0.011,0.261-0.105,0.494-0.276,0.695
		c-0.183,0.214-0.421,0.306-0.693,0.323c-0.11,0.007-0.222,0.003-0.332,0.003c-1.913,0-3.826,0-5.739,0.001
		c-0.327,0-0.616-0.083-0.831-0.347c-0.155-0.19-0.245-0.409-0.257-0.653c-0.038-0.767-0.068-1.533-0.1-2.3
		c-0.055-1.292-0.109-2.583-0.163-3.875C5.287,8.886,5.243,7.828,5.199,6.77C5.198,6.733,5.199,6.697,5.199,6.649z M5.645,7.074
		c0,0.059-0.002,0.105,0,0.149c0.05,1.214,0.101,2.428,0.151,3.642c0.072,1.71,0.144,3.42,0.215,5.13
		c0.015,0.363,0.18,0.703,0.719,0.701c1.95-0.009,3.9-0.004,5.85-0.004c0.07,0,0.139-0.005,0.209-0.013
		c0.211-0.024,0.361-0.139,0.437-0.332c0.044-0.112,0.07-0.237,0.075-0.358c0.056-1.255,0.105-2.51,0.157-3.765
		c0.07-1.669,0.141-3.338,0.212-5.007c0.002-0.047,0-0.095,0-0.144C10.989,7.074,8.322,7.074,5.645,7.074z"/>
	<path display="inline" fill="#FFFFFF" d="M9.655,13.913c-0.8,0-1.601,0-2.401,0c-0.025,0-0.049,0-0.074,0
		c-0.195-0.001-0.3-0.076-0.301-0.215c0-0.139,0.104-0.215,0.299-0.215c1.654,0,3.308,0,4.962,0c0.045,0,0.091,0.003,0.134,0.013
		c0.102,0.023,0.153,0.097,0.158,0.195c0.004,0.093-0.041,0.17-0.134,0.2c-0.053,0.017-0.113,0.022-0.169,0.022
		C11.305,13.914,10.48,13.913,9.655,13.913z"/>
	<path display="inline" fill="#FFFFFF" d="M9.651,16.052c-0.817,0-1.634,0-2.45,0c-0.215,0-0.324-0.075-0.321-0.219
		c0.003-0.142,0.107-0.213,0.315-0.213c1.642,0,3.283,0,4.925,0c0.208,0,0.312,0.071,0.315,0.213
		c0.002,0.144-0.107,0.219-0.322,0.219C11.293,16.052,10.472,16.052,9.651,16.052z"/>
	<path display="inline" fill="#FFFFFF" d="M9.645,14.978c-0.813,0-1.625,0-2.438,0c-0.037,0-0.074,0.001-0.111-0.001
		c-0.128-0.009-0.215-0.094-0.217-0.208c-0.002-0.113,0.088-0.203,0.212-0.213c0.037-0.003,0.074-0.001,0.111-0.001
		c1.637,0,3.275,0,4.912,0c0.012,0,0.025,0,0.037,0c0.184,0.001,0.287,0.08,0.284,0.216c-0.003,0.133-0.102,0.208-0.28,0.208
		C11.319,14.979,10.482,14.978,9.645,14.978z"/>
</g>
<g id="ppc_1_" display="none">
	<path display="inline" fill="#FFFFFF" d="M1.829,5.301c0.05-0.112,0.086-0.234,0.154-0.333c0.168-0.245,0.415-0.351,0.71-0.351
		c4.289,0,8.578-0.001,12.867,0.001c0.514,0,0.861,0.348,0.861,0.86c0.002,2.973,0.002,5.947,0,8.92
		c0,0.508-0.338,0.845-0.847,0.857c-0.024,0.001-0.047,0-0.071,0c-4.251,0-8.502-0.001-12.753,0.002
		c-0.376,0-0.665-0.127-0.839-0.471c-0.031-0.062-0.054-0.129-0.081-0.194C1.829,11.495,1.829,8.398,1.829,5.301z M2.45,13.411
		c4.461,0,8.899,0,13.35,0c0-0.065,0-0.121,0-0.178c0-2.555,0-5.11,0-7.665c0-0.288-0.042-0.329-0.328-0.329
		c-4.231,0-8.463,0-12.694,0c-0.286,0-0.328,0.042-0.328,0.329c0,2.555,0,5.11,0,7.665C2.45,13.289,2.45,13.345,2.45,13.411z
		 M9.122,14.55c0.19,0.002,0.365-0.166,0.371-0.357c0.006-0.196-0.166-0.373-0.365-0.375c-0.194-0.001-0.365,0.162-0.371,0.354
		C8.751,14.367,8.926,14.548,9.122,14.55z"/>
	<path display="inline" fill="#FFFFFF" d="M9.122,16.986c-0.912,0-1.823,0-2.735,0c-0.192,0-0.201-0.01-0.202-0.203
		c0-0.09,0.005-0.181-0.001-0.271c-0.009-0.124,0.046-0.17,0.167-0.169c0.456,0.003,0.912,0.001,1.367,0.001
		c0.207,0,0.217-0.01,0.217-0.217c0.001-0.331,0.001-0.331,0.336-0.331c0.612,0,1.225,0,1.837,0c0.181,0,0.202,0.023,0.204,0.207
		c0.004,0.36-0.045,0.341,0.35,0.34c0.408,0,0.817,0.002,1.225-0.001c0.126-0.001,0.186,0.041,0.176,0.174
		c-0.007,0.094-0.001,0.19-0.002,0.285c-0.001,0.168-0.016,0.183-0.192,0.183c-0.636,0-1.272,0-1.909,0
		C9.683,16.986,9.403,16.986,9.122,16.986z"/>
	<path display="inline" fill="#FFFFFF" d="M11.616,10.402c-0.033,0.215-0.056,0.408-0.092,0.599
		c-0.068,0.354-0.358,0.465-0.644,0.243c-0.288-0.224-0.57-0.457-0.85-0.693c-0.123-0.103-0.253-0.153-0.415-0.151
		c-0.551,0.006-1.101,0.003-1.652,0.002c-0.349-0.001-0.54-0.187-0.54-0.535c-0.002-0.921-0.002-1.842,0-2.763
		c0.001-0.355,0.191-0.543,0.549-0.543c1.401-0.001,2.801-0.001,4.202,0c0.359,0,0.543,0.187,0.544,0.546
		c0.001,0.916,0.001,1.833,0,2.749c0,0.367-0.183,0.546-0.554,0.547C11.983,10.403,11.804,10.402,11.616,10.402z M7.967,9.862
		c0.567,0,1.118,0.003,1.668-0.001c0.268-0.002,0.501,0.078,0.707,0.251c0.22,0.186,0.447,0.364,0.686,0.558
		c0.02-0.127,0.036-0.233,0.055-0.339c0.056-0.311,0.244-0.468,0.562-0.47c0.174-0.001,0.348,0,0.521,0c0-0.93,0-1.843,0-2.754
		c-1.406,0-2.799,0-4.199,0C7.967,8.027,7.967,8.936,7.967,9.862z"/>
	<path display="inline" fill="#FFFFFF" d="M6.08,8.186c0,0.929,0,1.838,0,2.763c0.172,0,0.337-0.001,0.502,0
		c0.351,0.002,0.532,0.155,0.593,0.504c0.016,0.093,0.029,0.187,0.045,0.299c0.044-0.031,0.078-0.053,0.109-0.078
		c0.162-0.131,0.336-0.252,0.483-0.398c0.31-0.307,0.69-0.354,1.095-0.323c0.176,0.013,0.283,0.128,0.276,0.282
		c-0.007,0.149-0.121,0.271-0.287,0.25c-0.376-0.049-0.656,0.104-0.917,0.35c-0.179,0.169-0.38,0.315-0.572,0.47
		c-0.325,0.263-0.617,0.157-0.689-0.251c-0.032-0.182-0.055-0.365-0.085-0.564c-0.193,0-0.381,0.001-0.57,0
		c-0.343-0.002-0.531-0.186-0.531-0.526c-0.001-0.926-0.001-1.852,0-2.778c0-0.343,0.182-0.531,0.525-0.534
		C6.29,7.648,6.523,7.648,6.754,7.666c0.142,0.011,0.223,0.132,0.214,0.271C6.96,8.068,6.869,8.165,6.734,8.18
		C6.677,8.187,6.62,8.185,6.563,8.186C6.407,8.186,6.251,8.186,6.08,8.186z"/>
</g>
<g id="ppc_2_" display="none">
	<path display="inline" fill="#FFFFFF" d="M7.328,10.789c0.012-0.006,0.011-0.019,0.014-0.03c0.042-0.129,0.129-0.209,0.262-0.231
		c0.135-0.023,0.244,0.027,0.324,0.137c0.019,0.026,0.034,0.055,0.042,0.087c0.005,0.022,0.016,0.028,0.039,0.028
		c0.095-0.001,0.191-0.001,0.286,0c0.058,0.001,0.093,0.049,0.072,0.098c-0.014,0.033-0.041,0.045-0.076,0.045
		c-0.093,0-0.186,0.001-0.279-0.001c-0.025,0-0.036,0.007-0.043,0.031c-0.042,0.135-0.168,0.227-0.31,0.227
		c-0.143,0-0.271-0.093-0.314-0.227c-0.004-0.014-0.004-0.03-0.018-0.04C7.328,10.872,7.328,10.83,7.328,10.789z M7.473,10.85
		c-0.001,0.103,0.082,0.187,0.184,0.187c0.101,0,0.184-0.082,0.186-0.183c0.002-0.101-0.084-0.187-0.186-0.187
		C7.556,10.667,7.474,10.748,7.473,10.85z"/>
	<path display="inline" fill="#FFFFFF" d="M9.164,9.064c0.037,0.017,0.079,0.022,0.114,0.044c0.121,0.076,0.179,0.185,0.163,0.326
		C9.425,9.568,9.347,9.66,9.22,9.705c-0.027,0.01-0.035,0.021-0.034,0.048c0.002,0.095,0.001,0.191,0,0.286
		c-0.001,0.039-0.024,0.063-0.061,0.069c-0.029,0.005-0.061-0.012-0.075-0.039c-0.008-0.016-0.007-0.034-0.007-0.051
		c0-0.091-0.001-0.181,0-0.272c0-0.022-0.006-0.032-0.028-0.039c-0.14-0.044-0.232-0.17-0.23-0.314
		C8.787,9.248,8.88,9.123,9.019,9.08C9.03,9.076,9.044,9.077,9.052,9.064C9.089,9.064,9.126,9.064,9.164,9.064z M9.299,9.399
		C9.303,9.3,9.225,9.215,9.125,9.21C9.019,9.205,8.934,9.283,8.93,9.389C8.926,9.489,9.008,9.576,9.111,9.579
		C9.21,9.583,9.295,9.501,9.299,9.399z"/>
	<path display="inline" fill="#FFFFFF" d="M9.054,11.145c0.047,0,0.093,0.001,0.14,0c0.066-0.001,0.115-0.048,0.116-0.11
		c0.001-0.062-0.048-0.111-0.114-0.112c-0.051-0.001-0.102,0-0.154,0c-0.15-0.001-0.259-0.099-0.266-0.248
		c-0.006-0.132,0.091-0.248,0.234-0.261c0.03-0.003,0.037-0.013,0.035-0.04c-0.002-0.024-0.001-0.049,0.001-0.073
		c0.003-0.038,0.032-0.064,0.07-0.064c0.038,0,0.067,0.025,0.07,0.064c0.002,0.029,0.002,0.058,0.001,0.087
		c-0.001,0.018,0.006,0.025,0.024,0.024c0.034-0.001,0.067-0.001,0.101,0c0.053,0,0.086,0.027,0.087,0.07
		c0.001,0.043-0.033,0.074-0.086,0.075c-0.09,0.001-0.179,0-0.269,0c-0.062,0-0.103,0.028-0.117,0.079
		c-0.02,0.07,0.027,0.136,0.099,0.141c0.067,0.004,0.135-0.002,0.202,0.005c0.109,0.011,0.208,0.102,0.223,0.208
		c0.018,0.127-0.046,0.241-0.159,0.283c-0.026,0.01-0.054,0.015-0.081,0.017c-0.02,0.001-0.025,0.01-0.024,0.029
		c0.001,0.027,0.001,0.054-0.001,0.08c-0.002,0.041-0.03,0.068-0.069,0.068c-0.04,0.001-0.069-0.027-0.072-0.069
		c-0.002-0.026-0.002-0.051,0-0.077c0.001-0.022-0.005-0.031-0.029-0.03c-0.035,0.002-0.07,0.001-0.105,0
		c-0.052-0.001-0.084-0.029-0.084-0.073c0-0.045,0.031-0.072,0.084-0.072C8.958,11.144,9.006,11.145,9.054,11.145z"/>
	<path display="inline" fill="#FFFFFF" d="M8.067,11.555c0.058-0.004,0.114,0.005,0.164,0.034c0.023,0.013,0.035,0.009,0.053-0.009
		c0.065-0.067,0.131-0.132,0.197-0.198c0.022-0.021,0.047-0.035,0.079-0.024c0.026,0.009,0.043,0.027,0.049,0.054
		c0.007,0.031-0.008,0.054-0.029,0.074c-0.066,0.066-0.131,0.132-0.198,0.197c-0.016,0.016-0.018,0.027-0.008,0.047
		c0.112,0.22-0.044,0.478-0.29,0.48c-0.159,0.002-0.307-0.129-0.326-0.279c-0.024-0.19,0.101-0.341,0.263-0.374
		C8.037,11.556,8.052,11.556,8.067,11.555z M8.084,12.066c0.101,0,0.185-0.083,0.185-0.184c0-0.1-0.083-0.184-0.183-0.186
		c-0.101-0.001-0.187,0.084-0.186,0.186C7.9,11.984,7.983,12.066,8.084,12.066z"/>
	<path display="inline" fill="#FFFFFF" d="M8.412,9.823c-0.002,0.062-0.013,0.108-0.037,0.15c-0.011,0.019-0.008,0.029,0.007,0.044
		c0.067,0.065,0.132,0.131,0.198,0.197c0.025,0.024,0.04,0.052,0.026,0.087c-0.019,0.049-0.079,0.061-0.12,0.022
		c-0.047-0.045-0.092-0.092-0.139-0.138C8.321,10.16,8.3,10.128,8.269,10.111c-0.035-0.019-0.063,0.02-0.097,0.028
		c-0.209,0.054-0.416-0.098-0.417-0.315c-0.001-0.202,0.17-0.347,0.359-0.33c0.137,0.012,0.259,0.118,0.289,0.249
		C8.411,9.774,8.411,9.806,8.412,9.823z M7.9,9.82c-0.001,0.101,0.081,0.184,0.182,0.186c0.1,0.002,0.185-0.082,0.187-0.182
		c0.002-0.102-0.082-0.187-0.184-0.188C7.983,9.636,7.901,9.719,7.9,9.82z"/>
	<path display="inline" fill="#FFFFFF" d="M10.162,10.148c-0.059,0.003-0.116-0.007-0.167-0.036
		c-0.02-0.011-0.032-0.008-0.047,0.008c-0.065,0.067-0.131,0.132-0.197,0.197c-0.02,0.02-0.043,0.035-0.074,0.029
		c-0.052-0.011-0.076-0.067-0.044-0.111c0.018-0.024,0.041-0.044,0.062-0.066c0.051-0.051,0.101-0.102,0.153-0.153
		c0.013-0.013,0.018-0.022,0.008-0.041c-0.1-0.197,0-0.417,0.214-0.475c0.182-0.049,0.379,0.09,0.402,0.277
		C10.494,9.969,10.348,10.143,10.162,10.148z M10.33,9.821c0-0.101-0.083-0.184-0.184-0.185c-0.101,0-0.185,0.082-0.186,0.183
		c-0.001,0.102,0.084,0.187,0.186,0.187C10.247,10.006,10.33,9.922,10.33,9.821z"/>
	<path display="inline" fill="#FFFFFF" d="M9.815,11.865c0.003-0.05,0.016-0.097,0.041-0.139c0.01-0.017,0.005-0.026-0.007-0.038
		c-0.069-0.068-0.137-0.136-0.205-0.205c-0.02-0.021-0.033-0.045-0.023-0.076c0.009-0.028,0.028-0.045,0.057-0.051
		c0.031-0.006,0.054,0.01,0.074,0.03c0.065,0.065,0.13,0.13,0.195,0.195c0.015,0.015,0.026,0.02,0.047,0.009
		c0.206-0.107,0.45,0.025,0.477,0.254c0.02,0.175-0.099,0.33-0.263,0.36c-0.181,0.033-0.35-0.082-0.385-0.26
		C9.817,11.919,9.817,11.892,9.815,11.865z M10.33,11.884c0.001-0.101-0.08-0.185-0.182-0.187c-0.1-0.002-0.185,0.081-0.187,0.182
		c-0.002,0.102,0.081,0.188,0.184,0.188C10.246,12.067,10.329,11.985,10.33,11.884z"/>
	<path display="inline" fill="#FFFFFF" d="M10.082,10.78c0.047,0,0.093-0.001,0.139,0.001c0.023,0.001,0.032-0.007,0.039-0.028
		c0.05-0.157,0.2-0.25,0.363-0.226c0.158,0.024,0.28,0.166,0.279,0.326c-0.001,0.159-0.12,0.299-0.277,0.324
		c-0.162,0.026-0.316-0.068-0.365-0.223c-0.007-0.022-0.015-0.031-0.04-0.031c-0.096,0.002-0.193,0.001-0.289,0
		c-0.04-0.001-0.064-0.021-0.071-0.058c-0.007-0.034,0.008-0.058,0.036-0.076c0.015-0.009,0.031-0.008,0.047-0.009
		C9.989,10.779,10.035,10.78,10.082,10.78z M10.757,10.853c0.001-0.103-0.082-0.187-0.184-0.187c-0.101,0-0.184,0.082-0.186,0.183
		c-0.002,0.101,0.084,0.187,0.186,0.187C10.674,11.036,10.756,10.955,10.757,10.853z"/>
	<path display="inline" fill="#FFFFFF" d="M9.186,11.818c0,0.047,0.001,0.093-0.001,0.139c-0.001,0.023,0.008,0.032,0.029,0.038
		c0.157,0.05,0.25,0.2,0.225,0.363c-0.024,0.158-0.166,0.28-0.326,0.279c-0.159-0.001-0.299-0.121-0.324-0.277
		c-0.025-0.162,0.068-0.316,0.223-0.365c0.022-0.007,0.031-0.016,0.03-0.041c-0.002-0.096-0.001-0.193,0-0.289
		c0.001-0.04,0.022-0.064,0.058-0.071c0.034-0.007,0.058,0.008,0.076,0.036c0.009,0.015,0.008,0.031,0.008,0.047
		C9.187,11.725,9.186,11.772,9.186,11.818z M9.115,12.493c0.102,0,0.183-0.08,0.185-0.183c0.002-0.102-0.083-0.187-0.185-0.187
		c-0.1,0-0.183,0.083-0.185,0.184C8.928,12.409,9.012,12.493,9.115,12.493z"/>
</g>
<g id="ppc_3_" display="none">
	<path display="inline" fill="#FFFFFF" d="M10.388,8.583c0.098,0.034,0.133,0.103,0.133,0.206c-0.002,0.656-0.001,1.311-0.001,1.967
		c0,0.017,0,0.034,0,0.054c-0.055,0-0.108,0-0.164,0c0-0.686,0-1.371,0-2.059c-0.61,0-1.215,0-1.827,0c0,0.017,0,0.034,0,0.05
		c0,0.356,0,0.712,0,1.068c0,0.138-0.063,0.2-0.201,0.2c-0.248,0-0.496,0-0.743,0c-0.016,0-0.031,0-0.049,0c0,0.817,0,1.631,0,2.448
		c0.472,0,0.943,0,1.417,0c0,0.056,0,0.108,0,0.165c-0.015,0.001-0.031,0.002-0.046,0.002c-0.448,0-0.896,0-1.344,0
		c-0.133,0-0.196-0.063-0.196-0.196c0-0.795,0-1.591,0-2.386c0-0.095,0.028-0.18,0.086-0.257c0.287-0.379,0.573-0.758,0.859-1.138
		c0.046-0.061,0.107-0.098,0.177-0.124C9.12,8.583,9.754,8.583,10.388,8.583z M7.617,9.9c0.254,0,0.498,0,0.742,0
		c0-0.326,0-0.649,0-0.984C8.109,9.248,7.865,9.572,7.617,9.9z"/>
	<path display="inline" fill="#FFFFFF" d="M10.533,12.308c0.089,0.095,0.177,0.188,0.263,0.283c0.118,0.131,0.083,0.322-0.072,0.395
		c-0.097,0.046-0.205,0.024-0.287-0.062c-0.083-0.086-0.165-0.173-0.244-0.262c-0.023-0.026-0.041-0.029-0.073-0.015
		c-0.551,0.242-1.159-0.028-1.351-0.599c-0.152-0.451,0.068-0.977,0.496-1.186c0.522-0.255,1.124-0.041,1.357,0.491
		c0.135,0.309,0.108,0.615-0.061,0.907c-0.007,0.012-0.015,0.024-0.023,0.037C10.537,12.299,10.536,12.301,10.533,12.308z
		 M10.287,12.352c0.398-0.416,0.27-0.973-0.034-1.233c-0.299-0.257-0.758-0.267-1.065-0.012c-0.318,0.264-0.395,0.715-0.181,1.065
		c0.107,0.175,0.259,0.297,0.454,0.359c0.278,0.088,0.534,0.027,0.769-0.137c0.02,0.045,0.03,0.092,0.058,0.124
		c0.087,0.101,0.18,0.198,0.273,0.295c0.033,0.034,0.087,0.034,0.117,0.005c0.031-0.03,0.03-0.078-0.004-0.116
		c-0.052-0.058-0.106-0.114-0.159-0.171C10.45,12.462,10.392,12.382,10.287,12.352z"/>
	<path display="inline" fill="#FFFFFF" d="M9,11.748c-0.004-0.389,0.314-0.71,0.709-0.716c0.389-0.006,0.714,0.317,0.717,0.712
		c0.002,0.391-0.314,0.71-0.708,0.714C9.325,12.462,9.004,12.144,9,11.748z M9.166,11.741c-0.003,0.301,0.239,0.548,0.541,0.551
		c0.302,0.003,0.548-0.237,0.552-0.54c0.004-0.303-0.238-0.55-0.544-0.554C9.417,11.194,9.17,11.438,9.166,11.741z"/>
</g>
<g id="ppc_4_" display="none">
	<path display="inline" fill="#FFFFFF" d="M7.392,8.696C7.423,8.65,7.467,8.641,7.519,8.641c1.278,0.001,2.556,0.001,3.834,0.001
		c0.018,0,0.037,0.001,0.055,0.004c0.042,0.008,0.069,0.041,0.069,0.08c-0.001,0.041-0.031,0.076-0.075,0.08
		c-0.036,0.003-0.072,0.004-0.108,0.001c-0.033-0.003-0.042,0.011-0.038,0.04c0.001,0.009,0,0.019,0,0.028c0,0.765,0,1.529,0,2.294
		c0,0.081-0.019,0.152-0.085,0.205c-0.05,0.04-0.108,0.048-0.169,0.048c-0.841,0-1.681,0-2.522,0c-0.205,0-0.41,0-0.614,0
		c-0.12,0-0.203-0.059-0.232-0.162c-0.009-0.031-0.009-0.063-0.009-0.095c0-0.77,0-1.54,0.001-2.31c0-0.037-0.006-0.054-0.047-0.048
		C7.558,8.811,7.533,8.806,7.509,8.808C7.458,8.813,7.419,8.797,7.392,8.752C7.392,8.733,7.392,8.715,7.392,8.696z M9.444,8.808
		c-0.536,0-1.072,0-1.608-0.001c-0.037,0-0.045,0.011-0.045,0.046c0.001,0.773,0.001,1.545,0.001,2.318
		c0,0.07,0.016,0.086,0.083,0.086c1.045,0,2.091,0,3.136,0c0.065,0,0.082-0.017,0.082-0.083c0-0.775,0-1.551,0.001-2.326
		c0-0.035-0.01-0.04-0.042-0.04C10.516,8.808,9.98,8.808,9.444,8.808z"/>
	<path display="inline" fill="#FFFFFF" d="M9.565,12.21c0,0.131,0,0.259,0,0.386c0,0.057-0.029,0.091-0.076,0.094
		c-0.05,0.004-0.086-0.033-0.087-0.091c-0.001-0.109,0-0.218,0-0.327c0-0.02,0-0.039,0-0.062c-0.018,0.003-0.026,0.016-0.035,0.026
		c-0.139,0.139-0.279,0.278-0.418,0.417c-0.025,0.025-0.053,0.044-0.092,0.034c-0.053-0.013-0.079-0.072-0.051-0.119
		c0.009-0.015,0.021-0.027,0.033-0.04c0.178-0.178,0.355-0.356,0.534-0.533c0.022-0.022,0.031-0.043,0.03-0.073
		c-0.002-0.046-0.002-0.093,0-0.14c0.001-0.024-0.006-0.032-0.031-0.032c-0.089,0.001-0.178,0.001-0.267,0
		c-0.043-0.001-0.074-0.027-0.082-0.063c-0.008-0.037,0.008-0.074,0.042-0.091c0.017-0.009,0.035-0.011,0.054-0.011
		c0.241,0,0.481-0.001,0.722,0c0.059,0,0.097,0.036,0.096,0.084c-0.001,0.049-0.038,0.081-0.098,0.082c-0.081,0-0.162,0.001-0.243,0
		c-0.022,0-0.033,0.006-0.029,0.029c0,0.003,0,0.005,0,0.008c0,0.058-0.015,0.123,0.006,0.174c0.021,0.05,0.077,0.086,0.118,0.127
		c0.144,0.144,0.288,0.288,0.432,0.432c0.008,0.008,0.015,0.015,0.022,0.023c0.035,0.041,0.036,0.089,0.002,0.121
		c-0.033,0.031-0.081,0.03-0.118-0.005c-0.03-0.028-0.059-0.058-0.088-0.087c-0.113-0.113-0.226-0.226-0.339-0.338
		C9.59,12.226,9.583,12.213,9.565,12.21z"/>
	<path display="inline" fill="#FFFFFF" d="M9.475,9.668c0,0.11,0.001,0.221-0.001,0.331c0,0.029,0.006,0.038,0.037,0.038
		c0.218-0.001,0.436-0.001,0.654-0.001c0.089,0,0.116,0.029,0.11,0.119c-0.023,0.356-0.197,0.613-0.517,0.768
		c-0.358,0.174-0.821,0.06-1.062-0.257C8.44,10.329,8.44,9.894,8.703,9.564c0.172-0.216,0.403-0.323,0.679-0.331
		c0.058-0.002,0.092,0.034,0.092,0.096C9.475,9.442,9.475,9.555,9.475,9.668z M9.308,9.768c0-0.109-0.001-0.218,0.001-0.327
		c0.001-0.033-0.009-0.039-0.04-0.034c-0.34,0.057-0.599,0.364-0.599,0.71c0,0.354,0.26,0.657,0.609,0.711
		c0.391,0.06,0.753-0.2,0.821-0.587c0.006-0.036-0.001-0.042-0.035-0.042c-0.217,0.001-0.433,0.001-0.65,0.001
		c-0.079,0-0.107-0.03-0.108-0.109C9.308,9.984,9.308,9.876,9.308,9.768z"/>
	<path display="inline" fill="#FFFFFF" d="M10.061,9.855c-0.1,0-0.199,0-0.299,0c-0.067,0-0.097-0.03-0.097-0.097
		c0-0.199,0-0.399,0-0.598c0-0.07,0.031-0.099,0.1-0.098c0.378,0.008,0.683,0.311,0.693,0.689c0.002,0.075-0.026,0.103-0.102,0.104
		C10.258,9.855,10.16,9.855,10.061,9.855z M10.062,9.692c0.066,0,0.133-0.001,0.199,0c0.021,0,0.026-0.004,0.022-0.027
		c-0.037-0.208-0.218-0.39-0.423-0.428c-0.026-0.005-0.032,0-0.032,0.026c0.001,0.132,0.001,0.263,0,0.395
		c0,0.026,0.008,0.035,0.034,0.034C9.929,9.691,9.995,9.692,10.062,9.692z"/>
</g>
<g id="ppc_5_" display="none">
	<path display="inline" fill="#FFFFFF" d="M7.386,10.682c0-0.011,0-0.021,0-0.032c0.019-0.06,0.063-0.081,0.122-0.079
		c0.057,0.001,0.114,0,0.176,0c0.03-0.446,0.198-0.829,0.512-1.143c0.313-0.314,0.696-0.482,1.141-0.514c0-0.059,0-0.112,0-0.165
		c0-0.081,0.031-0.123,0.092-0.125C9.491,8.623,9.524,8.667,9.524,8.75c0,0.054,0,0.108,0,0.164c0.451,0.029,0.835,0.198,1.15,0.512
		c0.315,0.314,0.483,0.699,0.514,1.146c0.061,0,0.118,0.001,0.175,0c0.058-0.001,0.101,0.02,0.12,0.078c0,0.013,0,0.027,0,0.04
		c-0.025,0.057-0.069,0.075-0.128,0.072c-0.055-0.002-0.111,0-0.168,0c-0.031,0.45-0.201,0.834-0.517,1.148
		c-0.315,0.314-0.701,0.48-1.147,0.509c0,0.058,0,0.112,0,0.165c0,0.081-0.032,0.123-0.092,0.124
		c-0.062,0.001-0.095-0.043-0.095-0.125c0-0.054,0-0.108,0-0.165c-0.447-0.031-0.829-0.201-1.141-0.514
		c-0.313-0.314-0.481-0.697-0.512-1.143c-0.061,0-0.118-0.001-0.175,0C7.449,10.762,7.405,10.742,7.386,10.682z M10.963,10.996
		c-0.436,0.399-0.943,0.607-1.528,0.606c-0.586,0-1.093-0.21-1.527-0.608c0.156,0.741,0.817,1.211,1.43,1.23
		c0-0.014,0-0.029,0-0.043c0-0.051,0-0.101,0.002-0.152c0.002-0.039,0.024-0.065,0.06-0.078c0.034-0.013,0.07-0.009,0.092,0.018
		c0.018,0.022,0.03,0.054,0.032,0.082c0.005,0.058,0.001,0.116,0.001,0.174C10.215,12.2,10.832,11.666,10.963,10.996z M9.439,9.881
		c-0.422,0.001-0.766,0.346-0.765,0.766c0.002,0.42,0.346,0.763,0.765,0.762c0.421,0,0.765-0.346,0.764-0.767
		C10.202,10.222,9.859,9.88,9.439,9.881z M9.337,9.104c-0.352,0.025-0.657,0.15-0.92,0.375C8.168,9.693,8.002,9.96,7.923,10.281
		c0.432-0.386,0.936-0.589,1.514-0.588c0.58,0.001,1.084,0.206,1.516,0.599c-0.172-0.734-0.859-1.18-1.429-1.182
		c0,0.061,0.001,0.122,0,0.183C9.523,9.334,9.503,9.365,9.464,9.38C9.429,9.394,9.392,9.39,9.369,9.361
		C9.351,9.339,9.34,9.307,9.338,9.278C9.334,9.222,9.337,9.165,9.337,9.104z M7.916,10.571c0.041,0,0.075-0.001,0.11,0
		c0.017,0,0.035,0.002,0.051,0.005c0.045,0.01,0.072,0.044,0.072,0.088c0.001,0.046-0.026,0.083-0.073,0.091
		c-0.04,0.007-0.081,0.006-0.128,0.009c0.222,0.237,0.479,0.41,0.78,0.523c-0.321-0.425-0.323-0.848-0.01-1.272
		C8.482,10.08,8.087,10.351,7.916,10.571z M10.163,10.016c0.311,0.426,0.309,0.845-0.007,1.267c0.297-0.115,0.55-0.285,0.77-0.521
		c-0.044,0-0.078,0.002-0.111,0c-0.068-0.005-0.108-0.06-0.091-0.121c0.012-0.041,0.05-0.066,0.106-0.067c0.04-0.001,0.08,0,0.13,0
		C10.734,10.319,10.473,10.137,10.163,10.016z"/>
	<path display="inline" fill="#FFFFFF" d="M9.78,10.666c0,0.191-0.156,0.346-0.347,0.344c-0.189-0.002-0.343-0.157-0.343-0.345
		c0-0.19,0.158-0.346,0.347-0.344C9.628,10.323,9.781,10.477,9.78,10.666z M9.435,10.509c-0.085,0-0.155,0.07-0.155,0.155
		c-0.001,0.087,0.07,0.159,0.157,0.158c0.085-0.001,0.155-0.071,0.157-0.155C9.594,10.582,9.521,10.509,9.435,10.509z"/>
</g>
<g id="cooperation_red_2_" display="none">
	<path display="inline" fill="#E53935" d="M7.557,13.941c-0.063-0.025-0.086-0.071-0.085-0.138c0.003-0.15,0.001-0.3,0.001-0.45
		c0-0.095,0.04-0.135,0.135-0.135c0.09-0.001,0.179,0,0.273,0c0.006-0.071,0.01-0.139,0.017-0.207
		c0.051-0.485,0.195-0.936,0.492-1.329c0.045-0.059,0.095-0.114,0.145-0.168c0.052-0.056,0.118-0.062,0.164-0.017
		c0.047,0.045,0.046,0.108-0.01,0.165c-0.171,0.176-0.294,0.381-0.388,0.605c-0.115,0.272-0.176,0.557-0.196,0.851
		c-0.002,0.031-0.004,0.062-0.006,0.097c0.09,0,0.178,0,0.272,0c0.015-0.122,0.057-0.235,0.13-0.336
		c0.139-0.19,0.329-0.308,0.551-0.371c0.363-0.104,0.716-0.075,1.05,0.109c0.116,0.064,0.214,0.15,0.293,0.257
		c0.037,0.05,0.035,0.1-0.006,0.133c-0.041,0.033-0.093,0.028-0.131-0.022c-0.14-0.184-0.331-0.285-0.551-0.329
		c-0.353-0.07-0.683-0.022-0.967,0.218c-0.114,0.096-0.177,0.22-0.186,0.34c0.747,0,1.495,0,2.245,0
		c-0.008-0.249-0.047-0.489-0.12-0.723c-0.094-0.301-0.233-0.578-0.451-0.809c-0.107-0.114-0.229-0.208-0.371-0.276
		c-0.027-0.013-0.056-0.03-0.074-0.053c-0.042-0.053-0.019-0.122,0.047-0.16c0.067-0.038,0.138-0.072,0.2-0.117
		c0.253-0.18,0.421-0.428,0.547-0.707c0.102-0.226,0.166-0.463,0.198-0.708c0.002-0.019,0.006-0.038,0.011-0.056
		c0.015-0.054,0.065-0.088,0.117-0.08c0.054,0.008,0.096,0.051,0.089,0.108c-0.013,0.107-0.029,0.215-0.053,0.321
		c-0.084,0.369-0.231,0.709-0.473,1.005c-0.104,0.128-0.225,0.238-0.369,0.334c0.32,0.213,0.532,0.509,0.683,0.852
		c0.149,0.339,0.222,0.697,0.235,1.073c0.09,0,0.175,0,0.261,0c0.117,0,0.151,0.034,0.151,0.151c0,0.145-0.002,0.29,0.001,0.434
		c0.001,0.067-0.022,0.113-0.085,0.138C10.08,13.941,8.819,13.941,7.557,13.941z M7.69,13.723c1.174,0,2.345,0,3.52,0
		c0-0.097,0-0.19,0-0.287c-1.174,0-2.346,0-3.52,0C7.69,13.532,7.69,13.626,7.69,13.723z"/>
	<path display="inline" fill="#E53935" d="M11.342,8.645c0.063,0.025,0.086,0.071,0.085,0.138c-0.003,0.146-0.001,0.293-0.001,0.439
		c0,0.11-0.036,0.146-0.145,0.146c-1.037,0-2.075,0-3.112,0c-0.022,0-0.044,0-0.069,0c0.007,0.225,0.039,0.441,0.099,0.652
		c0.093,0.329,0.236,0.631,0.473,0.884c0.109,0.117,0.234,0.213,0.38,0.28c0.05,0.023,0.088,0.057,0.084,0.117
		c-0.006,0.08-0.083,0.119-0.162,0.084c-0.173-0.079-0.324-0.189-0.454-0.328c-0.303-0.323-0.478-0.712-0.567-1.141
		C7.919,9.753,7.908,9.585,7.887,9.42c-0.002-0.015-0.003-0.03-0.005-0.052c-0.088,0-0.173,0-0.259,0
		c-0.117,0-0.151-0.034-0.151-0.151c0-0.145,0.002-0.29-0.001-0.434C7.471,8.716,7.494,8.67,7.557,8.645
		C8.819,8.645,10.08,8.645,11.342,8.645z M7.69,9.149c1.174,0,2.345,0,3.52,0c0-0.096,0-0.19,0-0.287c-1.174,0-2.345,0-3.52,0
		C7.69,8.959,7.69,9.053,7.69,9.149z"/>
	<path display="inline" fill="#E53935" d="M9.455,9.751c0.283,0,0.565,0,0.848,0c0.114,0,0.157,0.056,0.127,0.165
		c-0.071,0.258-0.171,0.502-0.339,0.714c-0.132,0.167-0.29,0.299-0.506,0.344c-0.246,0.05-0.456-0.03-0.637-0.193
		c-0.212-0.191-0.338-0.436-0.429-0.702C8.499,10.02,8.482,9.96,8.466,9.9C8.442,9.81,8.488,9.751,8.581,9.751
		C8.872,9.75,9.163,9.751,9.455,9.751z M10.194,9.968c-0.501,0-0.989,0-1.484,0c0.014,0.039,0.024,0.075,0.038,0.11
		c0.08,0.202,0.181,0.391,0.342,0.541c0.224,0.208,0.498,0.206,0.722-0.003c0.115-0.107,0.2-0.236,0.267-0.377
		C10.121,10.153,10.155,10.063,10.194,9.968z"/>
	<circle display="inline" fill="#E53935" cx="9.451" cy="11.293" r="0.105"/>
	<circle display="inline" fill="#E53935" cx="9.448" cy="11.758" r="0.105"/>
	<circle display="inline" fill="#E53935" cx="9.448" cy="12.223" r="0.105"/>
</g>
<g id="cooperation_red_1_" display="none">
	<path display="inline" fill="#E53935" d="M12.36,13.875c-0.029,0.028-0.048,0.067-0.094,0.076c-0.07,0.015-0.134-0.023-0.146-0.094
		c-0.012-0.069-0.005-0.139-0.005-0.209c0-0.035-0.012-0.058-0.04-0.079c-0.12-0.093-0.247-0.174-0.382-0.242
		c-0.069-0.035-0.098-0.088-0.097-0.163c0.002-0.086,0.001-0.171,0-0.257c0-0.033,0.001-0.069,0.026-0.089
		c0.042-0.035,0.041-0.078,0.04-0.124c-0.001-0.076,0.001-0.151-0.001-0.227c-0.003-0.123-0.069-0.18-0.203-0.179
		c-0.124,0.001-0.187,0.061-0.189,0.18c-0.001,0.07,0,0.139,0,0.209c0,0.053-0.009,0.106,0.042,0.147
		c0.023,0.019,0.021,0.054,0.021,0.084c-0.001,0.088-0.002,0.175,0,0.263c0.001,0.071-0.028,0.121-0.091,0.154
		c-0.131,0.068-0.255,0.146-0.373,0.234c-0.04,0.03-0.057,0.06-0.053,0.109c0.004,0.047,0.002,0.096,0.001,0.143
		c-0.003,0.089-0.053,0.146-0.125,0.145c-0.074-0.001-0.122-0.057-0.123-0.147c-0.001-0.062,0-0.123,0-0.185
		c0-0.098,0.041-0.176,0.117-0.237c0.112-0.09,0.232-0.168,0.357-0.237c0.03-0.016,0.043-0.034,0.041-0.069
		c-0.003-0.075-0.021-0.144-0.038-0.217c-0.045-0.193-0.059-0.397,0.015-0.586c0.069-0.174,0.247-0.259,0.446-0.239
		c0.255,0.026,0.4,0.186,0.4,0.444c0,0.094,0,0.187,0,0.281c0,0.043-0.004,0.087-0.029,0.12c-0.053,0.07-0.027,0.149-0.033,0.224
		c-0.002,0.026,0.022,0.03,0.038,0.04c0.103,0.06,0.203,0.124,0.301,0.194c0.081,0.058,0.147,0.124,0.177,0.222
		C12.36,13.668,12.36,13.772,12.36,13.875z"/>
	<path display="inline" fill="#E53935" d="M6.241,13.529c0.09-0.188,0.275-0.266,0.435-0.372c0.027-0.018,0.073-0.021,0.074-0.061
		c0-0.06,0.021-0.126-0.013-0.181c-0.037-0.061-0.052-0.124-0.051-0.193c0.002-0.103-0.008-0.207,0.005-0.31
		c0.031-0.248,0.23-0.401,0.485-0.373c0.245,0.027,0.391,0.188,0.392,0.434c0,0.094,0,0.187,0,0.281c0,0.043-0.003,0.087-0.028,0.12
		c-0.051,0.068-0.028,0.145-0.034,0.218c-0.002,0.03,0.021,0.035,0.039,0.045c0.121,0.07,0.238,0.144,0.348,0.231
		c0.073,0.058,0.118,0.129,0.12,0.223c0.002,0.072,0.004,0.143,0.001,0.215c-0.003,0.082-0.054,0.132-0.125,0.13
		c-0.071-0.002-0.118-0.054-0.12-0.136c-0.001-0.048-0.003-0.096,0.001-0.143c0.004-0.051-0.014-0.084-0.056-0.115
		c-0.115-0.085-0.236-0.162-0.364-0.227c-0.066-0.034-0.096-0.085-0.094-0.159c0.002-0.088,0.001-0.175,0-0.263
		c0-0.029,0-0.062,0.021-0.079c0.05-0.041,0.041-0.095,0.041-0.147c0-0.074,0.001-0.147-0.001-0.221
		c-0.002-0.09-0.064-0.154-0.154-0.158c-0.049-0.003-0.1-0.007-0.146,0.019c-0.056,0.031-0.081,0.08-0.081,0.143
		c-0.001,0.094,0,0.187,0,0.281c0,0.018-0.001,0.037,0.015,0.05C6.996,12.817,7,12.867,7,12.92c-0.001,0.078-0.002,0.155,0,0.233
		c0.002,0.075-0.028,0.128-0.097,0.163c-0.131,0.067-0.255,0.146-0.373,0.235c-0.031,0.023-0.043,0.047-0.042,0.085
		c0.003,0.05,0.001,0.1,0,0.149c-0.001,0.077-0.029,0.125-0.084,0.143c-0.064,0.02-0.113-0.003-0.149-0.057
		c-0.003-0.004-0.01-0.006-0.015-0.008C6.241,13.752,6.241,13.64,6.241,13.529z"/>
	<path display="inline" fill="#E53935" d="M8.142,11.174c0.327,0,0.653-0.001,0.98,0.001c0.046,0,0.062-0.011,0.06-0.059
		c-0.004-0.087-0.002-0.175-0.001-0.263C9.182,10.77,9.227,10.72,9.3,10.718c0.073-0.002,0.123,0.045,0.128,0.128
		c0.005,0.085,0.006,0.172,0,0.257c-0.005,0.064,0.019,0.074,0.076,0.073c0.635-0.002,1.271-0.001,1.906-0.001
		c0.14,0,0.175,0.036,0.175,0.177c0,0.135,0,0.271-0.001,0.406c0,0.053-0.026,0.091-0.075,0.112
		c-0.044,0.019-0.086,0.012-0.124-0.017c-0.035-0.027-0.045-0.064-0.045-0.106c0-0.092-0.002-0.183,0.001-0.275
		c0.001-0.039-0.012-0.05-0.051-0.05c-0.603,0.001-1.207,0.001-1.81,0c-0.044,0-0.053,0.016-0.052,0.055
		c0.003,0.086,0.002,0.171,0,0.257c-0.001,0.078-0.036,0.127-0.095,0.142c-0.078,0.019-0.15-0.037-0.153-0.123
		c-0.003-0.094-0.003-0.187,0-0.281c0.001-0.04-0.012-0.05-0.051-0.05c-0.607,0.001-1.215,0.001-1.822,0
		c-0.044,0-0.053,0.016-0.051,0.055c0.003,0.088,0.002,0.175,0.001,0.263c-0.001,0.084-0.045,0.135-0.117,0.139
		c-0.072,0.004-0.128-0.048-0.13-0.132c-0.004-0.145-0.004-0.291,0-0.436c0.003-0.095,0.053-0.137,0.152-0.137
		C7.489,11.174,7.815,11.174,8.142,11.174z"/>
	<path display="inline" fill="#E53935" d="M9.791,9.252c0,0.068,0,0.135,0,0.203c0,0.045-0.009,0.089-0.036,0.124
		C9.692,9.662,9.73,9.756,9.721,9.844c-0.003,0.025,0.024,0.03,0.04,0.039c0.141,0.079,0.276,0.166,0.404,0.264
		c0.095,0.073,0.147,0.164,0.143,0.286c-0.003,0.072,0.001,0.143-0.001,0.215c-0.003,0.076-0.054,0.128-0.121,0.129
		c-0.067,0-0.119-0.052-0.122-0.128c-0.003-0.072-0.002-0.143-0.001-0.215c0.001-0.037-0.013-0.063-0.043-0.086
		c-0.139-0.107-0.284-0.204-0.441-0.283c-0.073-0.036-0.107-0.09-0.106-0.17c0.002-0.098,0-0.195,0-0.293
		c0-0.047,0.008-0.092,0.048-0.123c0.024-0.018,0.025-0.043,0.025-0.07c0-0.104,0.001-0.207,0-0.311
		C9.543,8.956,9.464,8.885,9.321,8.878c-0.192-0.011-0.27,0.109-0.26,0.26c0.006,0.091,0.001,0.183,0.001,0.275
		c0,0.024-0.001,0.049,0.021,0.065c0.044,0.034,0.053,0.08,0.052,0.133c-0.002,0.098-0.003,0.195,0,0.293
		c0.002,0.075-0.029,0.125-0.094,0.158c-0.156,0.08-0.304,0.173-0.443,0.28C8.562,10.37,8.544,10.4,8.547,10.447
		c0.004,0.066,0.002,0.131,0,0.197c-0.002,0.078-0.049,0.129-0.117,0.134c-0.065,0.004-0.125-0.046-0.128-0.122
		c-0.005-0.103-0.011-0.207,0.007-0.31c0.013-0.078,0.059-0.137,0.12-0.186C8.559,10.056,8.7,9.965,8.846,9.885
		C8.879,9.868,8.893,9.847,8.89,9.811c-0.003-0.032-0.002-0.064,0-0.095c0.003-0.049-0.004-0.093-0.035-0.134
		C8.832,9.551,8.822,9.513,8.82,9.474C8.813,9.337,8.815,9.2,8.819,9.063c0.006-0.221,0.182-0.41,0.422-0.431
		c0.227-0.02,0.408,0.066,0.504,0.252c0.033,0.063,0.046,0.131,0.047,0.201C9.793,9.14,9.792,9.196,9.791,9.252L9.791,9.252z"/>
	<path display="inline" fill="#E53935" d="M9.741,12.62c-0.004,0.078,0.021,0.174-0.027,0.253c-0.04,0.066-0.035,0.131-0.04,0.2
		c-0.003,0.043,0.015,0.065,0.05,0.084c0.119,0.064,0.231,0.14,0.338,0.223c0.077,0.059,0.125,0.133,0.129,0.231
		c0.002,0.072,0.004,0.143,0.001,0.215c-0.004,0.08-0.057,0.133-0.125,0.132c-0.07-0.001-0.117-0.055-0.12-0.137
		c-0.001-0.02-0.004-0.04,0-0.06c0.025-0.122-0.029-0.199-0.132-0.261c-0.095-0.057-0.188-0.12-0.287-0.17
		c-0.07-0.036-0.102-0.089-0.098-0.168c0.003-0.087,0.001-0.175,0.001-0.263c0-0.031,0.001-0.063,0.025-0.083
		c0.037-0.031,0.038-0.069,0.038-0.112c-0.002-0.082,0.001-0.163-0.001-0.245c-0.002-0.107-0.067-0.168-0.18-0.171
		C9.179,12.285,9.105,12.34,9.1,12.452c-0.004,0.097-0.001,0.195-0.001,0.293c0,0.016,0,0.033,0.014,0.044
		c0.048,0.038,0.052,0.09,0.052,0.145c-0.001,0.072-0.002,0.143,0,0.215c0.004,0.087-0.027,0.147-0.109,0.187
		c-0.133,0.064-0.255,0.146-0.372,0.236c-0.028,0.022-0.041,0.044-0.04,0.08c0.002,0.06,0.002,0.12,0,0.179
		c-0.003,0.075-0.056,0.127-0.124,0.127c-0.065-0.001-0.117-0.051-0.12-0.124C8.397,13.76,8.399,13.686,8.4,13.613
		c0.002-0.096,0.047-0.17,0.121-0.228c0.108-0.085,0.221-0.162,0.343-0.227c0.038-0.02,0.055-0.043,0.053-0.088
		C8.914,13,8.894,12.937,8.878,12.871c-0.048-0.2-0.063-0.408,0.02-0.603c0.071-0.167,0.246-0.248,0.44-0.229
		c0.253,0.025,0.401,0.188,0.402,0.444C9.741,12.525,9.741,12.567,9.741,12.62z"/>
</g>
<g id="cooperation_red" display="none">
	<path display="inline" fill="#E53935" d="M6.181,12.179c0.118-0.228,0.345-0.328,0.542-0.465c0.077-0.053,0.21-0.058,0.192-0.206
		c-0.012-0.096-0.02-0.189-0.045-0.287c-0.076-0.3-0.116-0.615,0.049-0.901c0.123-0.213,0.415-0.288,0.681-0.207
		c0.231,0.071,0.371,0.263,0.375,0.521c0.002,0.135-0.001,0.271,0.001,0.406c0.001,0.074-0.017,0.139-0.055,0.203
		c-0.095,0.159-0.043,0.361,0.114,0.448c0.15,0.084,0.289,0.182,0.425,0.286c0.11,0.084,0.163,0.191,0.159,0.329
		c-0.003,0.087,0.001,0.175-0.002,0.263c-0.002,0.08-0.047,0.13-0.126,0.129c-0.073-0.001-0.114-0.05-0.118-0.125
		c-0.001-0.028-0.006-0.057,0-0.083c0.041-0.211-0.056-0.346-0.233-0.443c-0.129-0.071-0.251-0.153-0.38-0.224
		c-0.086-0.048-0.127-0.113-0.123-0.212c0.004-0.107,0.002-0.215,0-0.322c-0.001-0.058,0.014-0.106,0.052-0.153
		c0.084-0.106,0.055-0.613-0.039-0.708c-0.112-0.112-0.252-0.11-0.391-0.071c-0.126,0.036-0.184,0.137-0.191,0.261
		c-0.008,0.143-0.003,0.287-0.002,0.43c0,0.016-0.001,0.036,0.008,0.046c0.155,0.168,0.064,0.373,0.083,0.56
		c0.009,0.085-0.055,0.134-0.126,0.171c-0.179,0.095-0.35,0.203-0.513,0.325c-0.068,0.051-0.098,0.109-0.093,0.192
		c0.004,0.059,0.001,0.119,0.001,0.179c0,0.064,0.002,0.128-0.069,0.165c-0.078,0.041-0.124-0.016-0.177-0.053
		C6.181,12.482,6.181,12.331,6.181,12.179z"/>
	<path display="inline" fill="#E53935" d="M11.656,10.825c-0.005,0.167,0.017,0.323-0.077,0.472
		c-0.038,0.061-0.011,0.163-0.014,0.246c-0.004,0.115,0.103,0.118,0.168,0.159c0.142,0.089,0.281,0.181,0.413,0.283
		c0.101,0.079,0.154,0.179,0.153,0.308c-0.001,0.092,0.001,0.183-0.001,0.275c-0.002,0.08-0.045,0.132-0.124,0.131
		c-0.08,0-0.119-0.055-0.12-0.134c0-0.02-0.004-0.041,0-0.06c0.046-0.226-0.061-0.368-0.251-0.47
		c-0.122-0.066-0.238-0.144-0.36-0.211c-0.087-0.047-0.127-0.112-0.124-0.211c0.004-0.107,0-0.215,0.002-0.322
		c0.001-0.035-0.001-0.077,0.017-0.104c0.141-0.205,0.072-0.429,0.052-0.644c-0.012-0.127-0.126-0.197-0.27-0.205
		c-0.173-0.01-0.311,0.051-0.345,0.175c-0.052,0.186-0.077,0.403-0.007,0.563c0.079,0.179,0.056,0.346,0.073,0.518
		c0.011,0.113-0.036,0.188-0.138,0.239c-0.178,0.09-0.343,0.199-0.503,0.318c-0.068,0.051-0.098,0.108-0.094,0.191
		c0.004,0.075,0.001,0.151,0,0.227c-0.002,0.08-0.045,0.131-0.124,0.129c-0.073-0.001-0.117-0.05-0.119-0.124
		c-0.002-0.115-0.005-0.231,0.003-0.346c0.008-0.104,0.068-0.183,0.15-0.247c0.157-0.123,0.321-0.235,0.498-0.327
		c0.061-0.032,0.086-0.071,0.082-0.14c-0.007-0.11,0.014-0.222-0.065-0.319c-0.033-0.041-0.027-0.098-0.027-0.15
		c0-0.135-0.002-0.271,0-0.406c0.005-0.319,0.204-0.526,0.524-0.548c0.312-0.021,0.55,0.136,0.615,0.41
		C11.669,10.611,11.651,10.723,11.656,10.825z"/>
	<path display="inline" fill="#E53935" d="M7.386,13.229c0,0.081,0.003,0.144-0.001,0.207c-0.005,0.076-0.039,0.132-0.124,0.13
		c-0.083-0.002-0.12-0.057-0.122-0.134c-0.003-0.167-0.004-0.334-0.003-0.502c0-0.08,0.042-0.128,0.123-0.131
		c0.167-0.005,0.334-0.01,0.501-0.009c0.079,0,0.144,0.033,0.141,0.126c-0.003,0.09-0.065,0.121-0.146,0.122
		c-0.055,0.001-0.11,0-0.187,0c0.177,0.18,0.367,0.306,0.573,0.405c0.918,0.443,1.957,0.283,2.701-0.411
		c0.02-0.019,0.04-0.039,0.062-0.056c0.06-0.047,0.125-0.06,0.182-0.002c0.063,0.065,0.043,0.129-0.017,0.188
		c-0.457,0.448-1.001,0.71-1.641,0.763c-0.757,0.063-1.419-0.162-1.99-0.662C7.428,13.254,7.414,13.247,7.386,13.229z"/>
	<path display="inline" fill="#E53935" d="M11.011,9.366c0-0.086-0.003-0.148,0.001-0.21c0.005-0.076,0.043-0.13,0.126-0.131
		c0.079-0.001,0.119,0.053,0.121,0.122c0.007,0.175,0.009,0.35,0.005,0.525c-0.002,0.071-0.049,0.118-0.125,0.119
		c-0.171,0.003-0.342,0.005-0.514,0.005c-0.081,0-0.131-0.044-0.131-0.123c0.001-0.073,0.05-0.116,0.124-0.119
		c0.062-0.003,0.124-0.001,0.216-0.001c-0.246-0.237-0.504-0.399-0.795-0.498C9.108,8.737,8.271,8.906,7.539,9.57
		C7.524,9.584,7.51,9.598,7.495,9.611c-0.059,0.05-0.124,0.064-0.181,0.007C7.25,9.555,7.27,9.486,7.328,9.429
		c0.189-0.185,0.395-0.347,0.631-0.468c1.014-0.517,2.113-0.387,2.984,0.349C10.957,9.323,10.973,9.335,11.011,9.366z"/>
</g>
<g id="smm_red" display="none">
	<path display="inline" fill="#E53935" d="M6.157,11.324c0.065-0.131,0.102-0.273,0.149-0.41C6.532,10.26,6.756,9.605,6.98,8.951
		c0.051-0.149,0.123-0.183,0.273-0.13c0.357,0.126,0.715,0.25,1.071,0.379c0.165,0.06,0.32,0.055,0.475-0.028
		c0.226-0.121,0.46-0.135,0.703-0.05c0.612,0.214,1.226,0.424,1.839,0.636c0.15,0.052,0.181,0.114,0.151,0.271
		c-0.035,0.179-0.102,0.34-0.255,0.45c-0.176,0.126-0.37,0.121-0.566,0.06c-0.207-0.065-0.412-0.138-0.617-0.208
		c-0.103-0.035-0.101-0.034-0.149,0.06c-0.163,0.321-0.405,0.552-0.761,0.646c-0.282,0.075-0.557,0.032-0.826-0.06
		c-0.088-0.03-0.129-0.115-0.105-0.193c0.027-0.086,0.108-0.129,0.206-0.102c0.124,0.035,0.249,0.069,0.378,0.076
		c0.379,0.018,0.638-0.167,0.817-0.486c0.034-0.062,0.061-0.127,0.085-0.194c0.044-0.127,0.12-0.163,0.248-0.12
		c0.273,0.092,0.545,0.184,0.818,0.277c0.058,0.02,0.118,0.029,0.179,0.024c0.105-0.009,0.203-0.1,0.221-0.201
		c0.008-0.046-0.029-0.042-0.051-0.05c-0.253-0.088-0.506-0.175-0.759-0.262c-0.315-0.108-0.631-0.214-0.945-0.327
		C9.247,9.363,9.094,9.37,8.942,9.452C8.739,9.56,8.524,9.586,8.304,9.517c-0.06-0.019-0.077-0.002-0.095,0.051
		c-0.242,0.712-0.487,1.424-0.73,2.135c-0.058,0.17-0.121,0.2-0.291,0.141c-0.291-0.101-0.582-0.201-0.874-0.299
		c-0.071-0.024-0.126-0.06-0.156-0.129C6.157,11.385,6.157,11.354,6.157,11.324z M7.187,11.509c0.04,0.001,0.037-0.032,0.044-0.053
		c0.23-0.67,0.459-1.342,0.691-2.012c0.015-0.045,0.008-0.062-0.036-0.076C7.689,9.303,7.493,9.237,7.298,9.167
		C7.251,9.15,7.239,9.166,7.225,9.206c-0.229,0.671-0.458,1.342-0.689,2.012c-0.015,0.043-0.017,0.065,0.036,0.082
		c0.195,0.062,0.387,0.131,0.581,0.197C7.164,11.502,7.176,11.505,7.187,11.509z"/>
	<path display="inline" fill="#E53935" d="M7.763,12.674c-0.003-0.071,0.017-0.146,0.06-0.214c0.02-0.032,0.018-0.049-0.008-0.077
		c-0.232-0.243-0.178-0.587,0.119-0.743c0.219-0.115,0.443-0.22,0.666-0.327c0.097-0.046,0.189-0.017,0.227,0.066
		c0.038,0.084,0.004,0.168-0.094,0.217c-0.206,0.102-0.412,0.202-0.619,0.303c-0.032,0.016-0.065,0.03-0.088,0.057
		c-0.042,0.049-0.05,0.105-0.021,0.162c0.029,0.058,0.08,0.082,0.144,0.077c0.036-0.003,0.067-0.02,0.099-0.035
		c0.397-0.194,0.793-0.388,1.19-0.582c0.029-0.014,0.059-0.029,0.091-0.037c0.068-0.018,0.14,0.017,0.172,0.08
		c0.032,0.062,0.017,0.14-0.038,0.185c-0.025,0.02-0.055,0.036-0.084,0.051c-0.455,0.224-0.911,0.446-1.366,0.67
		c-0.12,0.059-0.163,0.138-0.122,0.222c0.043,0.087,0.128,0.101,0.25,0.041c0.506-0.247,1.011-0.494,1.517-0.741
		c0.009-0.004,0.018-0.009,0.027-0.013c0.106-0.049,0.192-0.027,0.234,0.058c0.044,0.087,0.006,0.172-0.103,0.225
		c-0.358,0.176-0.716,0.35-1.074,0.525c-0.104,0.051-0.209,0.101-0.313,0.153c-0.098,0.049-0.132,0.129-0.092,0.209
		c0.04,0.08,0.124,0.102,0.222,0.054c0.467-0.228,0.934-0.457,1.401-0.685c0.129-0.063,0.216-0.048,0.263,0.044
		c0.048,0.095,0.006,0.174-0.128,0.239c-0.304,0.149-0.607,0.297-0.911,0.445c-0.062,0.03-0.114,0.067-0.117,0.144
		c-0.005,0.1,0.084,0.172,0.181,0.147c0.017-0.005,0.034-0.011,0.049-0.019c0.658-0.326,1.324-0.635,1.974-0.977
		c0.344-0.181,0.648-0.421,0.932-0.685c0.061-0.057,0.12-0.117,0.185-0.168c0.048-0.038,0.045-0.069,0.02-0.119
		c-0.341-0.693-0.68-1.387-1.019-2.08c-0.018-0.037-0.038-0.074-0.039-0.114c-0.001-0.073,0.04-0.123,0.104-0.154
		c0.301-0.148,0.602-0.296,0.904-0.442c0.113-0.055,0.19-0.023,0.249,0.1c0.313,0.642,0.626,1.284,0.939,1.925
		c0.049,0.1,0.098,0.199,0.146,0.299c0.064,0.132,0.039,0.206-0.092,0.27c-0.27,0.132-0.539,0.264-0.809,0.395
		c-0.051,0.025-0.095,0.056-0.136,0.094c-0.253,0.233-0.503,0.469-0.784,0.67c-0.291,0.209-0.607,0.37-0.927,0.526
		c-0.501,0.244-1.002,0.49-1.502,0.736c-0.181,0.089-0.355,0.087-0.52-0.037c-0.079-0.06-0.134-0.139-0.156-0.235
		c-0.013-0.058-0.03-0.059-0.078-0.036c-0.248,0.117-0.495,0.046-0.623-0.177c-0.027-0.047-0.046-0.096-0.05-0.15
		c-0.004-0.053-0.023-0.075-0.079-0.084C7.916,13.093,7.763,12.907,7.763,12.674z M12.916,11.515
		c0.015-0.007,0.029-0.013,0.042-0.02c0.186-0.091,0.371-0.184,0.558-0.272c0.044-0.021,0.045-0.037,0.025-0.077
		c-0.101-0.201-0.198-0.403-0.297-0.604c-0.213-0.435-0.426-0.87-0.638-1.305c-0.017-0.034-0.024-0.068-0.08-0.039
		c-0.186,0.096-0.375,0.187-0.564,0.277c-0.041,0.02-0.041,0.039-0.023,0.075c0.048,0.092,0.092,0.185,0.137,0.278
		c0.266,0.544,0.532,1.087,0.798,1.631C12.885,11.479,12.886,11.508,12.916,11.515z"/>
</g>
<g id="smm_red_1_" display="none">
	<path display="inline" fill="#E53935" d="M6.19,14.381c0.137-0.189,0.202-0.417,0.326-0.612c0.36-0.564,0.47-1.172,0.442-1.84
		c-0.04-0.966-0.01-1.935-0.01-2.903c0-0.225,0.039-0.263,0.269-0.263c1.926,0,3.851,0,5.777,0c0.237,0,0.275,0.038,0.275,0.275
		c0,1.233,0.001,2.466-0.001,3.699c0,0.11,0.02,0.208,0.07,0.307c0.209,0.413,0.411,0.829,0.617,1.243
		c0.017,0.034,0.018,0.08,0.064,0.095c0,0.051,0,0.102,0,0.153c-0.081,0.068-0.173,0.085-0.279,0.085
		c-2.424-0.002-4.847-0.002-7.271,0c-0.105,0-0.197-0.021-0.279-0.085C6.19,14.483,6.19,14.432,6.19,14.381z M10.104,12.779
		c0.902,0,1.804-0.002,2.706,0.003c0.114,0.001,0.144-0.027,0.143-0.142c-0.005-1.142-0.004-2.283,0-3.425
		c0-0.112-0.035-0.131-0.138-0.131c-1.804,0.003-3.608,0.003-5.412,0c-0.111,0-0.145,0.022-0.145,0.14
		c0.005,1.136,0.005,2.273,0,3.409c-0.001,0.125,0.04,0.149,0.154,0.148C8.31,12.777,9.207,12.779,10.104,12.779z M13.601,14.294
		c-0.184-0.375-0.361-0.728-0.53-1.085c-0.041-0.086-0.089-0.115-0.184-0.115c-0.805,0.004-1.61,0.002-2.415,0.002
		c-1.045,0-2.089,0-3.134,0.001c-0.056,0-0.123-0.027-0.16,0.049C6.992,13.524,6.805,13.9,6.61,14.294c0.071,0,0.121,0,0.17,0
		c0.535,0,1.071-0.022,1.605,0.008c0.304,0.017,0.487-0.064,0.57-0.36c0.042-0.148,0.151-0.196,0.304-0.194
		c0.474,0.007,0.948,0,1.422,0.003c0.576,0.003,0.447-0.064,0.691,0.427c0.046,0.093,0.099,0.118,0.198,0.117
		c0.627-0.004,1.253-0.002,1.88-0.002C13.493,14.294,13.536,14.294,13.601,14.294z M10.098,14.234c0.275,0,0.55,0.001,0.825-0.001
		c0.034,0,0.096,0.028,0.096-0.034c0.001-0.045-0.02-0.103-0.076-0.121c-0.028-0.009-0.06-0.005-0.091-0.005
		c-0.499,0-0.998,0-1.496,0c-0.025,0-0.052-0.003-0.076,0.002c-0.068,0.013-0.088,0.076-0.088,0.126c0,0.06,0.063,0.032,0.097,0.032
		C9.558,14.235,9.828,14.234,10.098,14.234z"/>
	<path display="inline" fill="#E53935" d="M9.964,11.567c0.107,0,0.214,0.005,0.321-0.001c0.139-0.009,0.244-0.109,0.239-0.231
		c-0.006-0.132-0.077-0.225-0.212-0.24c-0.126-0.014-0.254-0.008-0.381-0.011c-0.304-0.009-0.538-0.217-0.56-0.497
		c-0.024-0.308,0.166-0.555,0.478-0.604c0.078-0.012,0.108-0.036,0.101-0.113C9.945,9.823,9.946,9.777,9.952,9.731
		c0.012-0.089,0.071-0.139,0.156-0.137c0.084,0.002,0.137,0.054,0.152,0.143c0.013,0.077-0.041,0.181,0.037,0.225
		c0.059,0.033,0.149,0.012,0.225,0.012c0.11-0.001,0.197,0.031,0.195,0.159c-0.002,0.129-0.092,0.155-0.2,0.154
		c-0.178-0.001-0.357-0.003-0.535,0c-0.183,0.003-0.296,0.098-0.296,0.241c0,0.144,0.114,0.238,0.295,0.242
		c0.112,0.002,0.224-0.003,0.336,0.003c0.278,0.013,0.504,0.234,0.522,0.505c0.019,0.29-0.162,0.549-0.441,0.589
		c-0.129,0.018-0.147,0.073-0.139,0.177c0.009,0.111-0.015,0.217-0.149,0.222c-0.144,0.005-0.174-0.105-0.162-0.222
		c0.013-0.126-0.03-0.18-0.159-0.162c-0.05,0.007-0.102,0.001-0.153,0c-0.097-0.003-0.158-0.058-0.159-0.15
		c-0.002-0.1,0.062-0.159,0.165-0.161c0.107-0.002,0.214-0.001,0.321-0.001L9.964,11.567z"/>
</g>
<g id="smm_red_2_" display="none">
	<path display="inline" fill="#E53935" d="M10.056,6.89c0.066,0.032,0.139,0.028,0.209,0.041c1.001,0.187,1.727,0.744,2.121,1.676
		c0.408,0.966,0.29,1.901-0.324,2.756c-0.417,0.58-0.988,0.947-1.686,1.084c-0.929,0.183-1.76-0.046-2.467-0.683
		c-0.454-0.41-0.745-0.922-0.856-1.524C6.887,9.335,7.106,8.527,7.715,7.833c0.402-0.459,0.909-0.745,1.503-0.879
		c0.089-0.02,0.179-0.03,0.269-0.046C9.501,6.906,9.519,6.911,9.525,6.89C9.702,6.89,9.879,6.89,10.056,6.89z M12.292,9.718
		c-0.008-0.609-0.196-1.145-0.567-1.593c-0.38-0.459-0.865-0.751-1.452-0.863c-0.57-0.109-1.116-0.029-1.627,0.243
		C8.105,7.793,7.718,8.226,7.493,8.799c-0.163,0.413-0.209,0.841-0.141,1.28c0.071,0.461,0.26,0.868,0.56,1.225
		c0.019,0.023,0.037,0.032,0.066,0.022c0.238-0.076,0.473-0.159,0.688-0.289c0.13-0.078,0.251-0.168,0.333-0.301
		c0.02-0.033,0.022-0.057-0.009-0.087c-0.15-0.147-0.247-0.327-0.311-0.525c-0.113-0.35-0.124-0.709-0.096-1.073
		c0.051-0.662,0.507-1.106,1.168-1.126c0.582-0.018,1.029,0.304,1.181,0.867c0.094,0.35,0.084,0.706,0.023,1.061
		c-0.05,0.29-0.152,0.556-0.357,0.774c-0.027,0.028-0.017,0.051-0.005,0.076c0.039,0.081,0.098,0.147,0.167,0.204
		c0.257,0.21,0.562,0.321,0.872,0.42c0.039,0.012,0.056-0.009,0.077-0.034C12.095,10.827,12.287,10.29,12.292,9.718z M8.891,9.347
		c0.001,0.266,0.031,0.51,0.12,0.744c0.137,0.36,0.398,0.541,0.781,0.545c0.36,0.004,0.631-0.186,0.765-0.543
		c0.128-0.339,0.14-0.69,0.099-1.046c-0.02-0.176-0.069-0.343-0.18-0.483c-0.223-0.281-0.527-0.345-0.862-0.297
		C9.288,8.314,9.07,8.497,8.963,8.809C8.901,8.989,8.899,9.177,8.891,9.347z M8.209,11.594c0.918,0.803,2.337,0.764,3.191-0.002
		c-0.148-0.051-0.291-0.103-0.428-0.172c-0.257-0.13-0.502-0.277-0.651-0.538c-0.018-0.031-0.037-0.027-0.064-0.017
		c-0.302,0.121-0.607,0.126-0.913,0.015c-0.037-0.014-0.055-0.004-0.074,0.029c-0.032,0.057-0.073,0.107-0.118,0.154
		c-0.15,0.156-0.332,0.266-0.524,0.36C8.494,11.491,8.352,11.54,8.209,11.594z"/>
	<path display="inline" fill="#E53935" d="M9.815,13.437c0.656,0,1.312,0,1.969,0c0.034,0,0.068-0.001,0.101,0.004
		c0.079,0.012,0.131,0.079,0.129,0.161c-0.002,0.078-0.054,0.139-0.132,0.15c-0.031,0.004-0.062,0.004-0.094,0.004
		c-1.323,0-2.646,0-3.968,0c-0.15,0-0.221-0.051-0.223-0.158c-0.002-0.11,0.071-0.162,0.226-0.162
		C8.487,13.437,9.151,13.437,9.815,13.437z"/>
	<path display="inline" fill="#E53935" d="M9.803,14.894c-0.43,0-0.86,0-1.29,0c-0.128,0-0.199-0.064-0.194-0.171
		c0.004-0.074,0.043-0.122,0.113-0.141c0.032-0.009,0.067-0.012,0.1-0.012c0.849-0.001,1.699-0.001,2.548,0
		c0.139,0,0.213,0.057,0.214,0.161c0.001,0.098-0.068,0.163-0.179,0.163c-0.208,0.002-0.417,0-0.625,0
		C10.261,14.894,10.032,14.894,9.803,14.894z"/>
</g>
<g id="Слой_34" display="none">
	<path display="inline" fill="#0D8497" d="M3.413,8.674c0.044-0.137,0.129-0.213,0.283-0.218c0.116-0.004,0.174-0.09,0.193-0.198
		c0.01-0.057,0.009-0.117,0.009-0.175c0.001-0.405-0.001-0.811,0.001-1.216C3.9,6.63,3.999,6.525,4.23,6.525
		C5.613,6.523,6.997,6.521,8.38,6.526c0.395,0.001,0.776,0.07,1.078,0.357c0.087,0.083,0.158,0.183,0.236,0.275
		c0.094,0.11,0.174,0.12,0.255,0.003c0.328-0.473,0.818-0.61,1.345-0.618c1.383-0.02,2.766-0.016,4.149-0.019
		c0.223,0,0.324,0.108,0.325,0.337c0.002,0.409,0,0.819,0.001,1.228c0,0.28,0.031,0.32,0.301,0.379
		c0.104,0.022,0.16,0.087,0.177,0.186c0.008,0.049,0.006,0.1,0.006,0.15c0,2.135,0,4.27,0,6.405c0,0.301-0.098,0.4-0.396,0.4
		c-1.262,0-2.524,0-3.786,0c-0.403,0-0.8,0.037-1.181,0.183c-0.289,0.111-0.544,0.269-0.746,0.51
		c-0.209,0.249-0.406,0.243-0.611-0.002c-0.245-0.295-0.576-0.447-0.933-0.555c-0.372-0.112-0.755-0.135-1.14-0.136
		c-1.22-0.001-2.44-0.001-3.66,0.001c-0.185,0-0.326-0.053-0.387-0.242C3.413,13.138,3.413,10.906,3.413,8.674z M4.496,10.818
		c0,1.103,0,2.206,0,3.31c0,0.025,0,0.05,0,0.075c0.001,0.241,0.08,0.32,0.325,0.321c0.272,0.001,0.543-0.001,0.815,0
		c0.907,0.005,1.814-0.004,2.72,0.022c0.518,0.015,0.993,0.175,1.343,0.596c0.093,0.112,0.216,0.111,0.296,0.001
		c0.182-0.249,0.441-0.376,0.72-0.474c0.336-0.118,0.686-0.142,1.037-0.143c1.032-0.004,2.064-0.001,3.097-0.002
		c0.238,0,0.321-0.08,0.321-0.312c0-2.269,0-4.538,0-6.807c0-0.223-0.087-0.309-0.313-0.309C13.749,7.095,12.641,7.09,11.534,7.1
		c-0.209,0.002-0.429,0.036-0.624,0.109c-0.448,0.168-0.645,0.544-0.723,0.992c-0.02,0.115-0.027,0.233-0.028,0.349
		c-0.002,1.621-0.001,3.243-0.002,4.864c0,0.287-0.098,0.39-0.355,0.379c-0.137-0.005-0.23-0.069-0.264-0.206
		c-0.024-0.096-0.031-0.198-0.031-0.297c-0.002-1.55-0.001-3.101-0.001-4.651c0-0.618-0.298-1.044-0.849-1.302
		c-0.426-0.2-0.883-0.24-1.345-0.241C6.49,7.093,5.666,7.095,4.843,7.095c-0.276,0-0.347,0.073-0.348,0.351
		C4.496,8.57,4.496,9.694,4.496,10.818z"/>
</g>
<g id="Слой_35" display="none">
	<path display="inline" fill="#0D8497" d="M9.529,4.671c0.113,0.054,0.238,0.048,0.357,0.07c1.712,0.32,2.954,1.272,3.628,2.867
		c0.699,1.652,0.496,3.251-0.555,4.714c-0.713,0.992-1.69,1.62-2.884,1.854c-1.59,0.312-3.011-0.078-4.219-1.169
		c-0.777-0.702-1.274-1.578-1.464-2.606c-0.285-1.548,0.091-2.93,1.132-4.117C6.211,5.499,7.079,5.01,8.094,4.78
		c0.152-0.034,0.307-0.052,0.46-0.078C8.578,4.698,8.61,4.707,8.62,4.671C8.923,4.671,9.226,4.671,9.529,4.671z M13.353,9.507
		c-0.014-1.042-0.336-1.959-0.97-2.725c-0.65-0.785-1.479-1.284-2.483-1.477c-0.975-0.186-1.909-0.05-2.783,0.416
		C6.192,6.215,5.529,6.956,5.144,7.935c-0.278,0.707-0.357,1.438-0.241,2.189c0.122,0.789,0.445,1.485,0.957,2.096
		c0.033,0.039,0.063,0.055,0.114,0.038c0.407-0.131,0.809-0.272,1.177-0.494c0.222-0.134,0.43-0.287,0.569-0.514
		c0.035-0.057,0.038-0.097-0.015-0.149c-0.257-0.251-0.422-0.559-0.531-0.898C6.981,9.605,6.963,8.992,7.011,8.369
		c0.087-1.132,0.867-1.892,1.998-1.926c0.996-0.03,1.76,0.521,2.019,1.483c0.161,0.598,0.143,1.208,0.039,1.815
		c-0.085,0.496-0.261,0.951-0.611,1.324c-0.046,0.049-0.029,0.088-0.008,0.131c0.067,0.138,0.167,0.251,0.285,0.348
		c0.44,0.359,0.96,0.55,1.492,0.718c0.067,0.021,0.097-0.015,0.132-0.058C13.016,11.405,13.344,10.485,13.353,9.507z M7.535,8.874
		c0.001,0.454,0.053,0.872,0.204,1.272c0.234,0.616,0.682,0.926,1.336,0.932c0.615,0.006,1.079-0.319,1.309-0.929
		c0.218-0.58,0.239-1.181,0.17-1.789c-0.034-0.301-0.118-0.586-0.308-0.826C9.864,7.053,9.345,6.944,8.772,7.026
		C8.215,7.105,7.842,7.42,7.658,7.954C7.552,8.261,7.549,8.583,7.535,8.874z M6.369,12.717c1.571,1.374,3.997,1.307,5.458-0.003
		c-0.253-0.088-0.498-0.177-0.732-0.295c-0.44-0.222-0.858-0.474-1.113-0.92c-0.03-0.053-0.063-0.047-0.109-0.029
		c-0.517,0.207-1.038,0.215-1.562,0.026c-0.064-0.023-0.094-0.007-0.126,0.05c-0.054,0.097-0.125,0.184-0.202,0.264
		c-0.257,0.267-0.567,0.454-0.896,0.616C6.856,12.539,6.614,12.624,6.369,12.717z"/>
	<path display="inline" fill="#0D8497" d="M9.116,15.869c1.122,0,2.245,0,3.367,0c0.058,0,0.116-0.002,0.173,0.007
		c0.135,0.021,0.224,0.135,0.22,0.275c-0.004,0.134-0.093,0.238-0.225,0.257c-0.053,0.007-0.107,0.007-0.16,0.007
		c-2.263,0-4.525,0-6.788,0c-0.256,0-0.378-0.087-0.381-0.269c-0.003-0.188,0.121-0.277,0.386-0.277
		C6.845,15.869,7.98,15.869,9.116,15.869z"/>
	<path display="inline" fill="#0D8497" d="M9.094,18.361c-0.735,0-1.47,0.001-2.206,0c-0.219,0-0.341-0.11-0.331-0.293
		c0.007-0.126,0.074-0.208,0.194-0.242c0.055-0.015,0.114-0.021,0.171-0.021c1.453-0.001,2.905-0.001,4.358-0.001
		c0.237,0,0.365,0.098,0.366,0.276c0.001,0.167-0.116,0.278-0.306,0.28c-0.356,0.003-0.713,0.001-1.069,0.001
		C9.879,18.361,9.487,18.361,9.094,18.361z"/>
	<ellipse display="inline" fill="#0D8497" cx="9.091" cy="8.931" rx="1.907" ry="2.173"/>
	<path display="inline" fill="#0D8497" d="M6.001,12.6l2.154-1.267h1.902l1.992,1.267C12.048,12.6,9.731,15.606,6.001,12.6z"/>
</g>
<g id="Слой_36" display="none">
	<path display="inline" fill="#0D8497" d="M1.499,7.04c0.14-0.103,0.293-0.139,0.469-0.137c0.584,0.008,1.168-0.011,1.751,0.01
		C3.958,6.922,4.04,6.858,4.077,6.619C4.29,5.275,5.4,4.407,6.751,4.507c1.128,0.084,2.077,0.99,2.222,2.149
		C9,6.87,9.07,6.915,9.269,6.911c0.614-0.012,1.228-0.007,1.842-0.004c0.356,0.002,0.417,0.067,0.42,0.429
		c0.002,0.252,0.001,0.503-0.001,0.755c-0.001,0.193-0.105,0.312-0.292,0.311C11.064,8.4,10.97,8.281,10.965,8.103
		c-0.001-0.02-0.001-0.04-0.002-0.06c-0.027-0.569-0.027-0.569-0.593-0.569c-0.383,0-0.765,0.007-1.148-0.003
		C9.056,7.465,8.991,7.51,8.998,7.687c0.013,0.312,0.002,0.624,0.004,0.936C9.003,8.821,8.93,8.971,8.715,8.968
		C8.498,8.965,8.434,8.81,8.436,8.615C8.438,8.303,8.429,7.99,8.439,7.679C8.444,7.524,8.4,7.469,8.237,7.47
		c-1.148,0.006-2.295,0.006-3.443,0C4.626,7.469,4.593,7.537,4.596,7.685c0.008,0.312,0.002,0.624,0.002,0.936
		c0,0.195-0.068,0.349-0.286,0.347c-0.215-0.002-0.284-0.153-0.283-0.35c0.002-0.292-0.012-0.585,0.005-0.876
		C4.045,7.54,3.997,7.46,3.775,7.468C3.292,7.485,2.808,7.483,2.325,7.469C2.124,7.462,2.07,7.525,2.073,7.723
		c0.011,0.704,0.004,1.409,0.004,2.114c0,2.154,0,4.309,0,6.463c0,1.12,0.543,1.656,1.672,1.657c1.289,0,2.577,0,3.866,0.001
		c0.1,0,0.203-0.003,0.301,0.013c0.15,0.025,0.228,0.13,0.224,0.277c-0.004,0.146-0.087,0.246-0.236,0.269
		c-0.089,0.013-0.181,0.009-0.271,0.009c-1.309,0-2.618-0.025-3.926,0.008c-1.096,0.028-1.91-0.611-2.141-1.498
		c-0.01-0.04-0.021-0.077-0.067-0.088C1.499,13.644,1.499,10.342,1.499,7.04z M6.495,6.91c0.453,0,0.906,0,1.359,0
		c0.649,0,0.67-0.032,0.423-0.657C7.99,5.53,7.188,5.01,6.446,5.067c-0.897,0.068-1.62,0.666-1.797,1.485
		C4.575,6.896,4.586,6.91,4.925,6.91C5.448,6.91,5.972,6.91,6.495,6.91z"/>
	<path display="inline" fill="#0D8497" d="M16.963,17.49c-0.204,0.46-0.468,0.857-0.999,0.992c-0.169,0.043-0.338,0.043-0.508,0.043
		c-1.711,0.002-3.421,0.002-5.132,0.001c-0.973-0.001-1.508-0.539-1.509-1.514c-0.002-1.781-0.001-3.562,0-5.343
		c0-0.437,0.075-0.513,0.501-0.514c0.413-0.001,0.826-0.016,1.237,0.006c0.243,0.013,0.318-0.043,0.316-0.303
		c-0.006-0.95,0.539-1.726,1.364-1.997c1.327-0.436,2.628,0.479,2.682,1.887c0.016,0.406,0.016,0.406,0.418,0.407
		c0.392,0,0.785,0.008,1.177-0.004c0.185-0.006,0.331,0.045,0.452,0.18C16.963,13.382,16.963,15.436,16.963,17.49z M12.881,17.961
		c0.825,0,1.65-0.018,2.475,0.006c0.626,0.018,1.055-0.276,1.031-1.013c-0.032-1.005-0.008-2.012-0.008-3.018
		c0-0.654-0.006-1.308,0.004-1.962c0.003-0.186-0.057-0.246-0.241-0.239c-0.321,0.013-0.644,0.013-0.966,0
		c-0.191-0.008-0.278,0.042-0.26,0.25c0.016,0.18,0.003,0.362,0,0.543c-0.003,0.183-0.111,0.291-0.281,0.29
		c-0.17-0.001-0.276-0.11-0.278-0.293c-0.003-0.191-0.01-0.383-0.001-0.573c0.007-0.15-0.036-0.217-0.201-0.216
		c-0.835,0.006-1.67,0.006-2.505,0c-0.155-0.001-0.219,0.048-0.21,0.207c0.009,0.181,0.007,0.362-0.002,0.543
		c-0.009,0.193-0.095,0.345-0.308,0.331c-0.188-0.012-0.271-0.152-0.27-0.338c0.001-0.171-0.013-0.343,0.003-0.513
		c0.019-0.196-0.065-0.238-0.242-0.231c-0.301,0.012-0.605,0.02-0.905-0.002c-0.247-0.018-0.322,0.055-0.32,0.311
		c0.012,1.66,0.005,3.32,0.007,4.98c0,0.639,0.295,0.933,0.942,0.935C11.191,17.963,12.036,17.961,12.881,17.961z M12.878,11.154
		c0.422,0,0.844-0.005,1.266,0.003c0.148,0.003,0.219-0.028,0.21-0.197c-0.015-0.282-0.033-0.559-0.162-0.818
		c-0.298-0.603-0.962-0.932-1.604-0.793c-0.704,0.153-1.146,0.755-1.159,1.554c-0.003,0.188,0.034,0.266,0.244,0.256
		C12.074,11.141,12.477,11.154,12.878,11.154z"/>
	<path display="inline" fill="#0D8497" d="M9.125,11.516h7.542l-0.104,6.072c0,0-0.104,0.479-0.854,0.583H9.729
		c0,0-0.625-0.646-0.604-1.083S9.125,11.516,9.125,11.516z"/>
</g>
<g id="Слой_37" display="none">
	<path display="inline" fill="#0D8497" d="M17.708,18.393c-0.326,0.216-0.446,0.189-0.612-0.14c0.109-0.505-0.1-0.839-0.552-1.052
		c-0.141-0.067-0.264-0.174-0.408-0.235c-0.304-0.128-0.377-0.347-0.401-0.668c-0.039-0.539,0.248-1.025,0.181-1.567
		c-0.052-0.415-0.185-0.609-0.55-0.61c-0.369,0-0.55,0.193-0.549,0.608c0.001,0.329,0.012,0.641,0.142,0.971
		c0.232,0.59,0.009,1.04-0.55,1.365c-0.072,0.042-0.139,0.096-0.214,0.131c-0.465,0.213-0.683,0.556-0.574,1.074
		c-0.051,0.191-0.171,0.289-0.37,0.247c-0.193-0.041-0.198-0.201-0.23-0.363c-0.161-0.822,0.381-1.19,0.966-1.538
		c0.461-0.274,0.459-0.399,0.304-0.932c-0.146-0.503-0.156-1.044,0.034-1.545c0.181-0.479,0.726-0.698,1.325-0.592
		c0.456,0.081,0.834,0.476,0.847,0.963c0.012,0.453,0.09,0.913-0.13,1.359c-0.144,0.294-0.019,0.507,0.271,0.689
		c0.266,0.167,0.519,0.353,0.78,0.528c0.155,0.104,0.206,0.275,0.291,0.425C17.708,17.805,17.708,18.099,17.708,18.393z"/>
	<path display="inline" fill="#0D8497" d="M2.198,18.192c-0.167,0.338-0.295,0.366-0.616,0.137c0-0.315,0-0.63,0-0.945
		c0.267-0.387,0.666-0.612,1.049-0.854c0.305-0.193,0.38-0.438,0.248-0.781c-0.199-0.517-0.173-1.057-0.024-1.569
		c0.147-0.505,0.699-0.738,1.322-0.638c0.469,0.075,0.845,0.478,0.855,0.988c0.008,0.442,0.076,0.887-0.14,1.326
		c-0.109,0.223-0.103,0.532,0.253,0.665c0.172,0.064,0.309,0.217,0.476,0.302c0.528,0.268,0.667,0.712,0.606,1.261
		c-0.02,0.175-0.038,0.343-0.25,0.383c-0.208,0.039-0.309-0.083-0.366-0.261c0.114-0.509-0.12-0.83-0.559-1.048
		c-0.178-0.088-0.346-0.195-0.518-0.296c-0.099-0.059-0.226-0.122-0.23-0.241c-0.013-0.379-0.085-0.751,0.067-1.137
		c0.137-0.348,0.094-0.74,0.003-1.109c-0.024-0.1-0.122-0.164-0.225-0.206c-0.412-0.168-0.784,0.056-0.786,0.503
		c-0.002,0.325-0.03,0.641,0.13,0.973c0.248,0.513,0,1.077-0.495,1.36c-0.1,0.057-0.191,0.131-0.295,0.18
		C2.272,17.389,2.093,17.718,2.198,18.192z"/>
	<path display="inline" fill="#0D8497" d="M6.576,11.233c0.839,0,1.678-0.007,2.517,0.005c0.209,0.003,0.275-0.058,0.257-0.262
		c-0.017-0.198-0.009-0.398-0.001-0.598c0.008-0.202,0.1-0.36,0.32-0.348c0.194,0.01,0.286,0.154,0.288,0.348
		c0,0.042-0.002,0.084,0.001,0.126c0.017,0.238-0.104,0.553,0.054,0.691c0.132,0.116,0.439,0.037,0.668,0.037
		c1.479,0.001,2.958,0,4.437,0.001c0.484,0,0.552,0.067,0.553,0.538c0.001,0.304,0.004,0.608-0.002,0.913
		c-0.004,0.195-0.071,0.362-0.304,0.359c-0.228-0.003-0.299-0.158-0.301-0.361c0-0.01,0-0.021,0-0.031
		c-0.007-0.26,0.086-0.612-0.047-0.755c-0.157-0.169-0.513-0.05-0.782-0.051c-1.322-0.005-2.643,0.007-3.965-0.01
		c-0.273-0.003-0.344,0.077-0.314,0.329c0.021,0.176,0.005,0.356,0.003,0.534c-0.002,0.19-0.078,0.335-0.285,0.346
		c-0.23,0.012-0.304-0.146-0.32-0.344c-0.005-0.063-0.002-0.126-0.002-0.189c-0.002-0.669-0.002-0.669-0.656-0.669
		c-1.395,0-2.79,0.006-4.185-0.006c-0.237-0.002-0.314,0.056-0.288,0.291c0.022,0.197,0.01,0.398,0.002,0.597
		c-0.008,0.192-0.1,0.322-0.309,0.32c-0.196-0.002-0.283-0.135-0.288-0.308c-0.011-0.388-0.012-0.776-0.002-1.164
		c0.007-0.273,0.195-0.34,0.433-0.34C4.898,11.235,5.737,11.233,6.576,11.233z"/>
	<path display="inline" fill="#0D8497" d="M10.911,6.165c-0.009,0.294,0.02,0.627-0.162,0.958c-0.171,0.313-0.01,0.631,0.304,0.82
		c0.188,0.113,0.356,0.263,0.552,0.359c0.635,0.313,0.742,0.853,0.677,1.48c-0.019,0.188-0.091,0.339-0.292,0.346
		c-0.221,0.008-0.351-0.156-0.311-0.347c0.138-0.653-0.27-0.945-0.741-1.21c-0.055-0.031-0.108-0.064-0.16-0.099
		c-0.211-0.145-0.54-0.178-0.612-0.453c-0.093-0.354-0.135-0.769,0.002-1.085c0.165-0.383,0.147-0.748,0.149-1.126
		c0.002-0.464-0.231-0.693-0.662-0.694C9.218,5.114,8.993,5.338,9.003,5.809C9.01,6.186,8.966,6.555,9.144,6.938
		c0.142,0.305,0.07,0.699,0.013,1.052C9.13,8.158,8.99,8.223,8.862,8.291C8.519,8.472,8.195,8.682,7.878,8.907
		C7.697,9.036,7.606,9.18,7.629,9.404c0.015,0.145,0.008,0.294-0.002,0.44c-0.011,0.17-0.116,0.276-0.28,0.286
		c-0.167,0.011-0.289-0.086-0.302-0.256c-0.044-0.571-0.101-1.148,0.525-1.49c0.22-0.12,0.417-0.281,0.632-0.409
		c0.416-0.248,0.46-0.533,0.299-1.007C8.296,6.366,8.28,5.726,8.543,5.132c0.231-0.521,0.859-0.737,1.489-0.582
		c0.511,0.125,0.861,0.573,0.878,1.126C10.914,5.823,10.911,5.97,10.911,6.165z"/>
	<path display="inline" fill="#0D8497" d="M7.895,18.255c-0.043,0.192-0.155,0.3-0.358,0.264c-0.213-0.037-0.21-0.21-0.243-0.382
		c-0.153-0.791,0.358-1.157,0.925-1.5c0.511-0.309,0.498-0.402,0.34-0.968c-0.137-0.491-0.148-1.024,0.032-1.516
		c0.179-0.492,0.739-0.721,1.345-0.607c0.469,0.088,0.839,0.503,0.838,1.002c-0.002,0.443,0.076,0.888-0.13,1.329
		c-0.108,0.231-0.105,0.534,0.243,0.673c0.162,0.065,0.293,0.204,0.451,0.282c0.564,0.279,0.716,0.745,0.645,1.332
		c-0.021,0.171-0.051,0.318-0.24,0.354c-0.202,0.038-0.316-0.068-0.358-0.261c0.107-0.505-0.111-0.835-0.557-1.053
		c-0.188-0.091-0.362-0.21-0.543-0.314c-0.102-0.058-0.212-0.124-0.233-0.242c-0.058-0.331-0.118-0.701,0.011-0.991
		c0.138-0.312,0.124-0.607,0.127-0.913c0.003-0.432-0.189-0.632-0.566-0.625c-0.363,0.006-0.537,0.201-0.534,0.624
		c0.002,0.318,0.003,0.619,0.14,0.94c0.239,0.56,0.003,1.06-0.532,1.373c-0.081,0.047-0.157,0.106-0.241,0.147
		C8.012,17.419,7.787,17.748,7.895,18.255z"/>
	<path display="inline" fill="#0D8497" d="M7.623,18.255c-0.125-0.527,0.135-0.869,0.647-1.092c0.098-0.042,0.185-0.103,0.279-0.152
		c0.619-0.324,0.892-0.844,0.615-1.426c-0.158-0.333-0.159-0.646-0.162-0.976c-0.004-0.439,0.198-0.641,0.618-0.648
		c0.436-0.007,0.658,0.201,0.654,0.649c-0.003,0.318,0.013,0.624-0.147,0.948c-0.149,0.301-0.08,0.685-0.013,1.029
		c0.024,0.122,0.151,0.19,0.269,0.251c0.21,0.108,0.411,0.231,0.628,0.326c0.516,0.226,0.767,0.568,0.644,1.093
		C10.312,18.257,8.968,18.256,7.623,18.255z"/>
	<path display="inline" fill="#0D8497" d="M13.349,18.27c-0.125-0.538,0.127-0.894,0.664-1.116c0.087-0.036,0.164-0.092,0.248-0.136
		c0.647-0.338,0.905-0.805,0.636-1.418c-0.15-0.343-0.163-0.667-0.164-1.008c-0.001-0.431,0.208-0.632,0.635-0.631
		c0.423,0,0.577,0.202,0.636,0.633c0.078,0.563-0.254,1.067-0.209,1.628c0.027,0.333,0.112,0.56,0.463,0.694
		c0.166,0.063,0.308,0.175,0.471,0.244c0.523,0.221,0.765,0.568,0.639,1.093C16.028,18.258,14.688,18.264,13.349,18.27z"/>
	<path display="inline" fill="#0D8497" d="M1.927,18.192c-0.121-0.492,0.086-0.833,0.589-1.047c0.12-0.051,0.226-0.127,0.342-0.186
		c0.574-0.293,0.861-0.879,0.573-1.41c-0.186-0.344-0.153-0.671-0.151-1.009c0.003-0.463,0.434-0.696,0.911-0.521
		c0.119,0.043,0.232,0.11,0.26,0.214c0.104,0.382,0.155,0.788-0.004,1.15c-0.176,0.4-0.092,0.786-0.077,1.179
		c0.005,0.124,0.151,0.189,0.266,0.25c0.198,0.105,0.394,0.216,0.6,0.307c0.509,0.226,0.78,0.558,0.648,1.086
		C4.565,18.2,3.246,18.196,1.927,18.192z"/>
</g>
<g id="Слой_38" display="none">
	<path display="inline" fill="#999999" d="M17.704,4.558c0,0.36,0,0.72,0,1.08c-0.008,0.11-0.022,0.22-0.023,0.331
		c-0.025,1.661-0.051,3.323-0.069,4.984c-0.003,0.26-0.087,0.466-0.271,0.65c-2.667,2.662-5.329,5.328-7.997,7.989
		c-0.152,0.151-0.325,0.296-0.516,0.39c-0.257,0.127-0.54,0.201-0.811,0.297c-0.148,0-0.296,0-0.445,0
		c-0.023-0.01-0.046-0.026-0.07-0.029c-0.471-0.073-0.872-0.288-1.206-0.621c-1.409-1.403-2.816-2.807-4.214-4.22
		c-0.178-0.18-0.323-0.405-0.44-0.632c-0.099-0.192-0.136-0.417-0.2-0.627c0-0.148,0-0.296,0-0.445
		c0.01-0.024,0.024-0.048,0.028-0.073c0.073-0.489,0.302-0.899,0.647-1.245c2.667-2.669,5.337-5.336,8.002-8.006
		c0.184-0.184,0.388-0.268,0.649-0.271c1.688-0.018,3.376-0.045,5.064-0.07C15.916,4.038,16,4.025,16.084,4.018
		c0.349,0,0.699,0,1.048,0C17.405,4.111,17.643,4.24,17.704,4.558z M16.3,5.387c-0.06-0.003-0.097-0.007-0.133-0.007
		c-1.688,0.013-3.376,0.024-5.065,0.043c-0.073,0.001-0.163,0.045-0.216,0.098c-2.615,2.609-5.227,5.221-7.839,7.834
		c-0.326,0.327-0.326,0.801,0.005,1.132c1.402,1.405,2.805,2.808,4.21,4.21c0.336,0.335,0.705,0.329,1.042-0.008
		c2.612-2.612,5.224-5.225,7.838-7.835c0.077-0.077,0.11-0.153,0.111-0.263c0.013-1.672,0.03-3.345,0.046-5.017
		C16.3,5.517,16.3,5.46,16.3,5.387z"/>
	<path display="inline" fill="#999999" d="M14.654,7.652c-0.001,0.543-0.441,0.987-0.987,0.995c-0.54,0.008-1.005-0.454-1.003-0.998
		c0.002-0.548,0.457-0.997,1.006-0.992C14.215,6.662,14.655,7.107,14.654,7.652z"/>
</g>
<g id="Слой_39" display="none">
	<path display="inline" fill="#999999" d="M4.726,16.413c-0.132-0.061-0.172-0.093-0.215-0.097c-2.291-0.195-2.854-0.81-2.854-3.122
		c0-2.344-0.002-4.687,0.001-7.031C1.66,4.278,2.515,3.41,4.378,3.409c3.764-0.003,7.528-0.004,11.292,0
		c1.784,0.002,2.673,0.883,2.677,2.655c0.006,2.533,0.006,5.066,0,7.599c-0.004,1.749-0.886,2.633-2.613,2.636
		c-1.704,0.003-3.409-0.019-5.113,0.017c-0.371,0.008-0.792,0.138-1.096,0.347c-1.575,1.08-3.119,2.204-4.799,3.401
		C4.726,18.744,4.726,17.557,4.726,16.413z M6.212,17.138c0.965-0.686,1.797-1.228,2.57-1.844c0.516-0.411,1.051-0.545,1.696-0.533
		c1.773,0.032,3.548,0.016,5.322,0.008c0.792-0.004,1.019-0.228,1.021-1.008c0.006-2.602,0.006-5.204,0-7.806
		c-0.002-0.773-0.245-1.016-1.02-1.017c-3.856-0.005-7.711-0.004-11.567,0c-0.815,0.001-1.046,0.236-1.047,1.06
		c-0.004,2.578-0.005,5.157,0,7.735c0.002,0.827,0.215,1.029,1.063,1.038c0.631,0.006,1.262,0.001,1.962,0.001
		C6.212,15.567,6.212,16.264,6.212,17.138z"/>
</g>
<g id="Слой_40" display="none">
	<path display="inline" fill="#999999" d="M10.13,3.613c-4.486,0-8.122,3.637-8.122,8.122c0,4.486,3.637,8.122,8.122,8.122
		c4.486,0,8.122-3.636,8.122-8.122C18.252,7.25,14.616,3.613,10.13,3.613z M10.13,18.381c-3.67,0-6.646-2.975-6.646-6.646
		S6.459,5.09,10.13,5.09s6.646,2.975,6.646,6.646S13.8,18.381,10.13,18.381z"/>
	<path display="inline" fill="#999999" d="M10.868,11.43V7.305c0-0.408-0.331-0.738-0.738-0.738c-0.408,0-0.738,0.331-0.738,0.738
		v4.43c0,0.002,0.001,0.003,0.001,0.005c0,0.047,0.005,0.093,0.014,0.139c0.004,0.023,0.013,0.043,0.019,0.065
		c0.007,0.024,0.013,0.049,0.023,0.073c0.011,0.025,0.025,0.049,0.038,0.073c0.01,0.018,0.018,0.037,0.03,0.054
		c0.027,0.041,0.058,0.079,0.092,0.113l2.088,2.088c0.288,0.288,0.756,0.288,1.044,0c0.288-0.288,0.288-0.756,0-1.044L10.868,11.43z
		"/>
</g>
<g id="Слой_41" display="none">
	<g display="inline">
		<g>
			<path fill="#E53935" d="M15.691,3.405h-3.62c-0.208,0-0.375,0.167-0.375,0.375s0.167,0.375,0.375,0.375h3.62
				c0.409,0,0.742,0.333,0.742,0.742v9.307c0,0.409-0.333,0.742-0.742,0.742H1.62c-0.409,0-0.742-0.333-0.742-0.742V4.897
				c0-0.409,0.333-0.742,0.742-0.742h3.677c0.208,0,0.375-0.167,0.375-0.375S5.505,3.405,5.297,3.405H1.62
				c-0.822,0-1.492,0.67-1.492,1.492v9.307c0,0.822,0.67,1.492,1.492,1.492h6.661v2.253H5.168c-0.208,0-0.375,0.167-0.375,0.375
				s0.167,0.375,0.375,0.375h6.971c0.208,0,0.375-0.167,0.375-0.375s-0.167-0.375-0.375-0.375H9.027v-2.253h6.661
				c0.822,0,1.492-0.67,1.492-1.492V4.897C17.183,4.076,16.513,3.405,15.691,3.405z"/>
			<path fill="#E53935" d="M10.769,1.641c0-0.81-0.659-1.473-1.473-1.473H8.012c-0.81,0-1.473,0.659-1.473,1.473v0.882
				c0,0.023,0.004,0.045,0.008,0.064C6.543,2.61,6.539,2.629,6.539,2.652v7.316c0,0.083,0.027,0.163,0.076,0.227l1.738,2.283
				c0.072,0.095,0.182,0.148,0.299,0.148s0.227-0.053,0.299-0.148l1.738-2.283c0.049-0.064,0.076-0.144,0.076-0.227V2.641
				c0-0.019-0.004-0.042-0.008-0.061c0.004-0.019,0.008-0.038,0.008-0.061V1.641H10.769z M7.293,2.898h0.988V9.54H7.293V2.898z
				 M8.656,11.634L7.63,10.286h2.052L8.656,11.634z M10.019,9.54H9.031V2.898h0.988V9.54z M10.019,2.148H7.293V1.641
				c0-0.398,0.326-0.723,0.723-0.723H9.3c0.398,0,0.723,0.326,0.723,0.723v0.507C10.023,2.148,10.019,2.148,10.019,2.148z"/>
		</g>
	</g>
</g>
<g id="Слой_42" display="none">
	<g display="inline">
		<g>
			<path fill="#E53935" d="M3.229,3.507c2.974-3.042,7.866-3.1,10.908-0.127l-0.867,0.01c-0.188,0.003-0.336,0.154-0.336,0.343
				c0.003,0.185,0.154,0.336,0.339,0.336h0.003l1.686-0.021c0.188-0.003,0.336-0.154,0.336-0.343L15.278,2.02
				c-0.003-0.188-0.154-0.339-0.343-0.336c-0.188,0.003-0.336,0.154-0.336,0.343l0.01,0.867C11.3-0.34,5.976-0.275,2.742,3.034
				c-1.12,1.148-1.888,2.58-2.213,4.145c-0.319,1.525-0.209,3.1,0.315,4.563c0.051,0.137,0.182,0.226,0.319,0.226
				c0.038,0,0.075-0.007,0.113-0.021c0.175-0.062,0.267-0.257,0.206-0.435C0.478,8.708,1.146,5.638,3.229,3.507z"/>
			<path fill="#E53935" d="M2.883,14.908c1.579,1.542,3.659,2.388,5.862,2.388c0.034,0,0.065,0,0.099,0
				c2.244-0.027,4.341-0.922,5.906-2.528c1.124-1.148,1.888-2.583,2.213-4.149c0.319-1.525,0.209-3.1-0.315-4.563
				c-0.062-0.175-0.257-0.267-0.435-0.206c-0.175,0.062-0.267,0.257-0.206,0.435c1.007,2.806,0.339,5.875-1.744,8.006
				c-1.442,1.473-3.368,2.299-5.43,2.323c-2.059,0.024-4.005-0.757-5.478-2.196l0.867-0.01c0.188-0.003,0.336-0.154,0.336-0.343
				c-0.003-0.185-0.154-0.336-0.339-0.336H4.215L2.53,13.75c-0.089,0-0.175,0.038-0.24,0.103c-0.062,0.065-0.096,0.151-0.096,0.24
				l0.021,1.686c0.003,0.185,0.154,0.336,0.339,0.336h0.003c0.188-0.003,0.336-0.154,0.336-0.343L2.883,14.908z"/>
			<path fill="#E53935" d="M13.438,6.953c-0.75-1.805-2.449-3.004-4.382-3.121c-0.034-0.003-0.072-0.003-0.11-0.007
				c-0.003,0-0.01,0-0.014,0c-0.021,0-0.041-0.003-0.062-0.003c-0.003,0-0.007,0-0.01,0c-0.038,0-0.075-0.003-0.116-0.003
				c-0.668,0-1.319,0.13-1.939,0.387C5.552,4.723,4.575,5.7,4.058,6.953c-0.521,1.254-0.521,2.634,0,3.885
				c0.788,1.905,2.631,3.138,4.693,3.138c0.027,0,0.051,0,0.079-0.003c0.014,0,0.031,0.003,0.045,0.003c0.007,0,0.014,0,0.017-0.003
				c0.031,0,0.058-0.003,0.089-0.003c0.01,0,0.021,0,0.034,0c0.01,0,0.017,0,0.027-0.003c0.565-0.031,1.12-0.158,1.651-0.377
				c1.254-0.517,2.23-1.494,2.748-2.748c0.517-1.254,0.521-2.634,0-3.885C13.438,6.957,13.438,6.957,13.438,6.953
				C13.438,6.957,13.438,6.957,13.438,6.953z M6.977,4.874C6.6,5.364,6.298,6.005,6.1,6.748H4.911
				C5.373,5.919,6.093,5.265,6.977,4.874z M4.603,7.43h1.35c-0.079,0.462-0.12,0.956-0.12,1.473c0,0.51,0.045,1.007,0.13,1.473
				h-1.36C4.26,9.417,4.26,8.385,4.603,7.43z M4.911,11.051H6.12c0.212,0.757,0.534,1.411,0.928,1.912
				C6.151,12.586,5.394,11.921,4.911,11.051z M8.532,13.25c-0.709-0.209-1.34-1.059-1.699-2.199h1.699V13.25L8.532,13.25z
				 M8.532,10.372H6.658C6.562,9.907,6.511,9.41,6.511,8.899c0-0.517,0.048-1.014,0.13-1.473h1.891V10.372z M8.532,6.751h-1.73
				c0.346-1.178,0.976-2.011,1.73-2.203V6.751z M12.585,6.748h-0.942c-0.175-0.654-0.425-1.226-0.74-1.686
				C11.598,5.453,12.184,6.032,12.585,6.748z M9.21,4.545c0.754,0.195,1.381,1.028,1.73,2.203H9.21V4.545z M9.21,7.43h1.891
				c0.086,0.459,0.13,0.952,0.13,1.473c0,0.51-0.051,1.007-0.147,1.473H9.21V7.43z M9.21,13.25v-2.199h1.699
				C10.55,12.192,9.92,13.041,9.21,13.25z M10.834,12.774c0.332-0.469,0.603-1.059,0.791-1.723h0.959
				C12.177,11.784,11.574,12.377,10.834,12.774z M12.893,10.372H11.78c0.086-0.466,0.13-0.959,0.13-1.473
				c0-0.517-0.041-1.011-0.12-1.473h1.103C13.236,8.385,13.236,9.417,12.893,10.372z"/>
		</g>
	</g>
</g>
<g id="Слой_43" display="none">
	<g display="inline">
		<g>
			<path fill="#E53935" d="M17.154,8.836c0-4.686-3.813-8.499-8.499-8.499c-0.191,0-0.343,0.153-0.343,0.343v3.144H8.153
				c-1.591,0-2.887,1.293-2.887,2.887v4.253c0,1.591,1.293,2.887,2.887,2.887h1.002c1.591,0,2.887-1.293,2.887-2.887V6.707
				c0-1.591-1.293-2.887-2.887-2.887H8.995V1.026c4.152,0.18,7.473,3.615,7.473,7.809c0,2.759-1.411,5.258-3.771,6.69
				c-2.44,1.477-5.418,1.501-8.166,0.066c-1.13-0.593-2.042-1.504-2.634-2.638C0.049,9.407,0.659,5.501,3.453,3.009
				c0.142-0.125,0.153-0.343,0.028-0.485C3.356,2.382,3.137,2.371,2.995,2.496c-1.39,1.241-2.347,2.925-2.693,4.745
				c-0.374,1.979-0.035,4.066,0.984,6.024c0.655,1.262,1.667,2.274,2.925,2.929c1.456,0.763,2.974,1.14,4.457,1.14
				c1.535,0,3.036-0.409,4.385-1.227C15.622,14.555,17.154,11.834,17.154,8.836z M9.158,4.506c1.213,0,2.201,0.988,2.201,2.201
				v4.253c0,1.213-0.988,2.201-2.201,2.201H8.156c-1.213,0-2.201-0.988-2.201-2.201V6.707c0-1.213,0.988-2.201,2.201-2.201
				L9.158,4.506L9.158,4.506z"/>
			<path fill="#E53935" d="M8.655,7.969c0.191,0,0.343-0.153,0.343-0.343V5.928c0-0.191-0.153-0.343-0.343-0.343
				S8.312,5.737,8.312,5.928v1.698C8.312,7.813,8.465,7.969,8.655,7.969z"/>
		</g>
	</g>
</g>
<g id="Слой_44">
	<g>
		<g>
			<path fill="#E53935" d="M7.126,11.557h-3.98c-0.19,0-0.342,0.152-0.342,0.342s0.152,0.342,0.342,0.342h3.686
				c0.107,0.297,0.394,0.508,0.726,0.508h2.185c0.332,0,0.619-0.211,0.726-0.508h3.69c0.19,0,0.342-0.152,0.342-0.342
				s-0.152-0.342-0.342-0.342h-3.98c-0.19,0-0.342,0.152-0.342,0.342v0.076c0,0.048-0.041,0.09-0.09,0.09H7.562
				c-0.048,0-0.09-0.041-0.09-0.09V11.9C7.468,11.71,7.316,11.557,7.126,11.557z"/>
			<path fill="#E53935" d="M16.787,11.557h-0.899V3.67c0-0.19-0.152-0.342-0.342-0.342c-0.19,0-0.342,0.152-0.342,0.342v8.23
				c0,0.19,0.156,0.342,0.346,0.342h0.896v0.47c0,0.484-0.394,0.878-0.878,0.878H1.742c-0.484,0-0.878-0.394-0.878-0.878v-0.47
				h0.896c0.19,0,0.342-0.152,0.342-0.342V3.67c0-0.19-0.152-0.342-0.342-0.342S1.417,3.48,1.417,3.67v7.888H0.521
				c-0.19,0-0.342,0.152-0.342,0.342v0.813c0,0.861,0.702,1.563,1.563,1.563h13.825c0.861,0,1.563-0.702,1.563-1.563V11.9
				C17.13,11.71,16.978,11.557,16.787,11.557z"/>
			<path fill="#E53935" d="M9.986,2.615L8.011,4.579L7.323,3.888c-0.135-0.135-0.349-0.135-0.484,0
				c-0.135,0.135-0.135,0.349,0,0.484l0.927,0.934c0.066,0.066,0.156,0.1,0.242,0.1s0.173-0.035,0.242-0.1l2.22-2.206
				c0.135-0.135,0.135-0.349,0-0.484C10.338,2.484,10.12,2.48,9.986,2.615z"/>
			<path fill="#E53935" d="M12.88,0.208H4.429c-0.692,0-1.255,0.564-1.255,1.255v4.993c0,0.692,0.564,1.255,1.255,1.255h0.356v1.504
				c0,0.28,0.228,0.505,0.508,0.505c0.145,0,0.284-0.062,0.38-0.176l1.584-1.833h5.623c0.692,0,1.255-0.564,1.255-1.255V1.464
				C14.135,0.772,13.572,0.208,12.88,0.208z M13.45,6.457c0,0.315-0.256,0.571-0.571,0.571H7.098c-0.1,0-0.194,0.041-0.259,0.118
				L5.466,8.732V7.37c0-0.19-0.152-0.342-0.342-0.342H4.425c-0.315,0-0.571-0.256-0.571-0.571V1.464
				c0-0.315,0.256-0.571,0.571-0.571h8.451c0.315,0,0.571,0.256,0.571,0.571v4.993H13.45z"/>
		</g>
	</g>
</g>
</svg>
