<?xml version="1.0" encoding="utf-8"?>
<!-- Generator: Adobe Illustrator 19.0.0, SVG Export Plug-In . SVG Version: 6.00 Build 0)  -->
<svg version="1.1" id="Capa_1" xmlns="http://www.w3.org/2000/svg" xmlns:xlink="http://www.w3.org/1999/xlink" x="0px" y="0px"
	 viewBox="-289 419.911 16.786 9.979" enable-background="new -289 419.911 16.786 9.979" xml:space="preserve">
<path fill="#0D8497" d="M-274.001,420.322h-13.211c-0.529,0-0.958,0.429-0.958,0.957v2.795c0,0.528,0.429,0.957,0.958,0.957h5.903
	v2.353h-0.85c-0.442,0-0.829,0.229-1.052,0.574h-4.806v1.358h4.807c0.224,0.345,0.61,0.574,1.052,0.574h3.057
	c0.441,0,0.828-0.229,1.052-0.574h4.807v-1.358h-4.807c-0.224-0.345-0.61-0.574-1.052-0.574h-0.85v-2.353h5.949
	c0.528,0,0.957-0.429,0.957-0.957v-2.795C-273.044,420.751-273.473,420.322-274.001,420.322z M-274.844,423.036h-2.633v-0.718h2.633
	V423.036z"/>
</svg>
