<?xml version="1.0" encoding="utf-8"?>
<!-- Generator: Adobe Illustrator 19.0.0, SVG Export Plug-In . SVG Version: 6.00 Build 0)  -->
<svg version="1.1" id="Capa_1" xmlns="http://www.w3.org/2000/svg" xmlns:xlink="http://www.w3.org/1999/xlink" x="0px" y="0px"
	 viewBox="-281 405.427 31.462 31.463" enable-background="new -281 405.427 31.462 31.463" xml:space="preserve">
<g>
	<path fill="#0D8497" d="M-249.739,406.049c-0.008-0.009-0.012-0.019-0.016-0.024c-0.008-0.013-0.02-0.021-0.023-0.031
		c-0.227-0.311-0.586-0.514-0.998-0.514h-0.002h-20.953h-0.003c-0.683,0-1.233,0.553-1.233,1.234v0.001v1.076v4.042v2.274v4.043
		v2.271v4.041v2.273v4.043v1.075l0,0c0,0.247,0.074,0.478,0.199,0.671c0.006,0.006,0.008,0.014,0.012,0.021
		c0.01,0.012,0.02,0.021,0.025,0.03c0.225,0.312,0.586,0.515,0.997,0.515h0.002h1.534c-0.258,1.675-1.695,2.965-3.441,2.965
		c-1.764,0-3.212-1.317-3.445-3.021h1.547l0,0c0.683,0,1.234-0.553,1.234-1.233V431.8v-1.075v-4.043v-2.272v-4.041v-2.273v-4.044
		v-2.273v-4.041v-1.077v-0.002c0-0.244-0.072-0.474-0.197-0.664c-0.005-0.007-0.01-0.018-0.016-0.024
		c-0.005-0.012-0.014-0.021-0.023-0.03c-0.225-0.31-0.586-0.514-0.999-0.514l0,0h-4.221h-0.002c-0.682,0-1.232,0.553-1.232,1.232
		v0.002v1.076v4.041v2.273v4.043v2.273v4.041v2.272v4.043v1.076v0.001c0,0.247,0.072,0.477,0.197,0.669
		c0.006,0.006,0.01,0.015,0.014,0.021c0.008,0.013,0.017,0.021,0.023,0.031c0.227,0.312,0.586,0.514,0.998,0.514h0.002h1.838
		c0.239,2.162,2.057,3.855,4.281,3.855c2.207,0,4.014-1.667,4.277-3.802h18.584h0.002c0.683,0,1.232-0.554,1.232-1.233v-0.002
		v-1.076v-4.043v-2.271v-4.041v-2.272v-4.043v-2.273v-4.042v-1.076v-0.001C-249.542,406.468-249.616,406.239-249.739,406.049z
		 M-265.03,424.083c0,0.291-0.236,0.525-0.527,0.525h-2.902c-0.291,0-0.526-0.234-0.526-0.525v-1.23
		c0-0.289,0.235-0.525,0.526-0.525h2.902c0.291,0,0.527,0.236,0.527,0.525C-265.03,422.853-265.03,424.083-265.03,424.083z
		 M-265.03,419.9c0,0.291-0.236,0.527-0.527,0.527h-2.902c-0.291,0-0.526-0.236-0.526-0.527v-1.229c0-0.291,0.235-0.527,0.526-0.527
		h2.902c0.291,0,0.527,0.236,0.527,0.527C-265.03,418.671-265.03,419.9-265.03,419.9z M-265.03,415.717
		c0,0.289-0.236,0.526-0.527,0.526h-2.902c-0.291,0-0.526-0.237-0.526-0.526v-1.229c0-0.291,0.235-0.527,0.526-0.527h2.902
		c0.291,0,0.527,0.236,0.527,0.527C-265.03,414.488-265.03,415.717-265.03,415.717z M-259.276,424.083
		c0,0.291-0.234,0.525-0.527,0.525h-2.901c-0.293,0-0.526-0.234-0.526-0.525v-1.23c0-0.289,0.233-0.525,0.526-0.525h2.901
		c0.293,0,0.527,0.236,0.527,0.525C-259.276,422.853-259.276,424.083-259.276,424.083z M-259.276,419.9
		c0,0.291-0.234,0.527-0.527,0.527h-2.901c-0.293,0-0.526-0.236-0.526-0.527v-1.229c0-0.291,0.233-0.527,0.526-0.527h2.901
		c0.293,0,0.527,0.236,0.527,0.527C-259.276,418.671-259.276,419.9-259.276,419.9z M-259.276,415.717
		c0,0.289-0.234,0.526-0.527,0.526h-2.901c-0.293,0-0.526-0.237-0.526-0.526v-1.229c0-0.291,0.233-0.527,0.526-0.527h2.901
		c0.293,0,0.527,0.236,0.527,0.527C-259.276,414.488-259.276,415.717-259.276,415.717z M-253.522,424.083
		c0,0.291-0.236,0.525-0.529,0.525h-2.899c-0.293,0-0.528-0.234-0.528-0.525v-1.23c0-0.289,0.235-0.525,0.528-0.525h2.899
		c0.293,0,0.529,0.236,0.529,0.525V424.083z M-253.522,419.9c0,0.291-0.236,0.527-0.529,0.527h-2.899
		c-0.293,0-0.528-0.236-0.528-0.527v-1.229c0-0.291,0.235-0.527,0.528-0.527h2.899c0.293,0,0.529,0.236,0.529,0.527V419.9z
		 M-253.522,415.717c0,0.289-0.236,0.526-0.529,0.526h-2.899c-0.293,0-0.528-0.237-0.528-0.526v-1.229
		c0-0.291,0.235-0.527,0.528-0.527h2.899c0.293,0,0.529,0.236,0.529,0.527V415.717z"/>
</g>
</svg>
