<?xml version="1.0" encoding="utf-8"?>
<!-- Generator: Adobe Illustrator 19.0.0, SVG Export Plug-In . SVG Version: 6.00 Build 0)  -->
<svg version="1.1" id="Capa_1" xmlns="http://www.w3.org/2000/svg" xmlns:xlink="http://www.w3.org/1999/xlink" x="0px" y="0px"
	 viewBox="-54 178.679 485.211 485.211" enable-background="new -54 178.679 485.211 485.211" xml:space="preserve">
<g>
	<g>
		<path fill="#0D8497" d="M67.304,254.495h-90.977C-40.436,254.495-54,268.088-54,284.82v333.586
			c0,16.76,13.564,30.322,30.327,30.322h90.978c16.762,0,30.324-13.562,30.324-30.322V284.82
			C97.628,268.088,84.066,254.495,67.304,254.495z M-8.51,557.752c-8.382,0-15.163-6.781-15.163-15.168
			c0-8.377,6.781-15.158,15.163-15.158c8.38,0,15.161,6.781,15.161,15.158C6.651,550.971-0.13,557.752-8.51,557.752z
			 M67.304,375.797h-90.977v-30.324h90.978L67.304,375.797L67.304,375.797z M67.304,315.146h-90.977V284.82h90.978L67.304,315.146
			L67.304,315.146z"/>
		<path fill="#0D8497" d="M264.423,588.075v-30.322h-90.98v30.322c-16.759,0-30.327,13.567-30.327,30.331h151.629
			C294.745,601.642,281.183,588.075,264.423,588.075z"/>
		<path fill="#0D8497" d="M400.889,193.842H36.978c-16.762,0-30.327,13.593-30.327,30.327h30.327h90.978H400.89v242.604H127.955
			v60.653h272.934c16.759,0,30.322-13.562,30.322-30.332V224.168C431.211,207.434,417.647,193.842,400.889,193.842z
			 M218.933,512.263c-8.382,0-15.163-6.777-15.163-15.169c0-8.377,6.781-15.158,15.163-15.158c8.383,0,15.164,6.781,15.164,15.158
			C234.097,505.486,227.315,512.263,218.933,512.263z"/>
	</g>
</g>
</svg>
