<?xml version="1.0" encoding="utf-8"?>
<!-- Generator: Adobe Illustrator 19.0.0, SVG Export Plug-In . SVG Version: 6.00 Build 0)  -->
<svg version="1.1" xmlns="http://www.w3.org/2000/svg" xmlns:xlink="http://www.w3.org/1999/xlink" x="0px" y="0px"
	 viewBox="0 0 15.872 16.006" enable-background="new 0 0 15.872 16.006" xml:space="preserve">
<g id="mail" display="none">
	<path display="inline" d="M11.158,20.776c1.354,1.168,2.709,2.335,4.062,3.504c0.836,0.723,1.668,1.45,2.528,2.198
		c-0.701,0.596-1.38,1.172-2.059,1.75c-1.401,1.191-2.802,2.384-4.204,3.574c-0.103,0.087-0.218,0.159-0.327,0.239
		C11.158,28.285,11.158,24.53,11.158,20.776z"/>
	<path display="inline" d="M29.81,19.931c-3.031,2.598-6.057,5.191-9.103,7.802c-3.042-2.607-6.068-5.2-9.1-7.799
		c0.326-0.332,0.713-0.381,1.119-0.381c1.715,0.001,3.431,0,5.146,0c3.58,0,7.16,0.001,10.739-0.001
		C29.04,19.553,29.457,19.578,29.81,19.931z"/>
	<path display="inline" d="M23.07,27.033c2.242,1.923,4.475,3.838,6.783,5.817c-0.277,0.119-0.497,0.237-0.731,0.304
		c-0.162,0.047-0.345,0.032-0.519,0.032c-5.268,0.001-10.536,0.001-15.804,0.002c-0.429,0-0.846-0.026-1.194-0.379
		c2.248-1.927,4.491-3.849,6.74-5.777c0.795,0.694,1.569,1.37,2.362,2.063C21.503,28.401,22.277,27.725,23.07,27.033z"/>
	<path display="inline" d="M30.222,32.051c-2.206-1.875-4.371-3.714-6.558-5.573c2.189-1.904,4.352-3.786,6.558-5.705
		C30.222,24.544,30.222,28.266,30.222,32.051z"/>
</g>
<g id="phone" display="none">
	<path display="inline" d="M24.802,17.633c0.622,0.246,0.841,0.703,0.838,1.367c-0.017,4.422-0.017,8.844,0,13.265
		c0.003,0.664-0.216,1.121-0.838,1.367c-2.542,0-5.083,0-7.625,0c-0.623-0.246-0.84-0.704-0.838-1.368
		c0.017-4.422,0.017-8.843,0-13.265c-0.003-0.664,0.216-1.121,0.838-1.367C19.718,17.633,22.26,17.633,24.802,17.633z
		 M17.125,19.355c0,4.108,0,8.184,0,12.258c2.593,0,5.161,0,7.727,0c0-4.095,0-8.17,0-12.258
		C22.268,19.355,19.709,19.355,17.125,19.355z M20.992,32.016c-0.287-0.002-0.54,0.253-0.537,0.54
		c0.003,0.283,0.231,0.515,0.515,0.523c0.3,0.009,0.545-0.22,0.552-0.517C21.529,32.275,21.279,32.018,20.992,32.016z
		 M20.988,18.412c-0.352,0-0.704-0.006-1.056,0.005c-0.066,0.002-0.129,0.072-0.194,0.111c0.065,0.05,0.129,0.142,0.195,0.143
		c0.704,0.01,1.408,0.01,2.112,0c0.065-0.001,0.129-0.094,0.193-0.144c-0.065-0.038-0.129-0.108-0.195-0.11
		C21.693,18.407,21.34,18.412,20.988,18.412z"/>
</g>
<g id="search" display="none">
	<path display="inline" d="M28.188,33.969c-0.111,0-0.222,0-0.333,0c-0.292-0.089-0.496-0.296-0.7-0.51
		c-1.24-1.294-2.484-2.584-3.725-3.877c-0.045-0.047-0.076-0.109-0.113-0.164c-0.067,0.051-0.095,0.068-0.123,0.086
		c-1.14,0.766-2.395,1.158-3.769,1.177c-1.454,0.02-2.78-0.393-3.974-1.212c-1.061-0.729-1.856-1.689-2.387-2.865
		c-0.561-1.243-0.727-2.542-0.516-3.883c0.223-1.415,0.843-2.642,1.835-3.675c1.004-1.045,2.219-1.717,3.643-1.997
		c0.287-0.056,0.579-0.089,0.868-0.132c0.3,0,0.6,0,0.899,0c0.153,0.021,0.306,0.043,0.459,0.063
		c1.556,0.209,2.886,0.881,3.985,1.992c1.087,1.098,1.742,2.423,1.936,3.961c0.171,1.355-0.034,2.658-0.649,3.879
		c-0.25,0.497-0.573,0.957-0.907,1.508c0.121,0.102,0.3,0.229,0.45,0.384c1.185,1.224,2.364,2.454,3.546,3.68
		c0.272,0.283,0.385,0.604,0.256,0.987C28.759,33.7,28.501,33.867,28.188,33.969z M19.352,18.715
		c-2.797-0.005-5.079,2.273-5.089,5.079c-0.01,2.799,2.293,5.105,5.089,5.094c2.809-0.011,5.08-2.284,5.08-5.086
		C24.433,21.002,22.153,18.719,19.352,18.715z"/>
</g>
<g id="ru" display="none">
	<text transform="matrix(1 0 0 1 12.9429 29.3597)" display="inline" font-family="'Roboto-Medium'" font-size="12px">RU</text>
</g>
<g id="arrow_main_menu" display="none">
	<polygon display="inline" fill="#E53935" points="10.967,23.955 30.419,23.955 20.693,31.913 	"/>
</g>
<g id="Слой_7" display="none">
	<path display="inline" fill="#FFFFFF" d="M14.458,29.933c0-3.452,0-6.903,0-10.355c0.211-0.564,0.589-0.961,1.162-1.162
		c3.346,0,6.692,0,10.038,0c0.689,0.194,1.23,0.56,1.479,1.268c0,3.416,0,6.833,0,10.249c-0.235,0.592-0.643,0.996-1.268,1.162
		c-3.416,0-6.833,0-10.249,0C15.052,30.889,14.651,30.515,14.458,29.933z M20.803,29.405c1.233,0,2.465,0.006,3.698-0.003
		c0.621-0.004,0.94-0.326,0.943-0.948c0.007-1.462-0.008-2.923,0.009-4.385c0.008-0.69-0.491-0.322-0.746-0.353
		c-0.417-0.051-0.175,0.28-0.15,0.427c0.249,1.444-0.404,2.979-1.678,3.783c-1.381,0.871-2.794,0.868-4.172-0.005
		c-1.267-0.802-1.918-2.343-1.667-3.788c0.026-0.151,0.261-0.477-0.162-0.42c-0.259,0.035-0.747-0.316-0.736,0.367
		c0.022,1.444,0.003,2.888,0.008,4.332c0.002,0.683,0.314,0.988,1.007,0.991C18.373,29.409,19.588,29.405,20.803,29.405z
		 M20.815,22.432c-1.277-0.008-2.327,1.02-2.341,2.292c-0.014,1.278,1.009,2.335,2.279,2.355c1.298,0.021,2.366-1.026,2.368-2.32
		C23.124,23.484,22.088,22.439,20.815,22.432z M24.407,20.106c-1.073,0-1.074,0-1.073,1.065c0,0.193-0.003,0.387,0.002,0.58
		c0.008,0.294,0.161,0.437,0.456,0.47c1.542,0.175,1.821-0.103,1.658-1.649c-0.031-0.293-0.166-0.454-0.462-0.464
		C24.794,20.102,24.6,20.107,24.407,20.106z"/>
</g>
<g id="Слой_7__x28_копия_x29_" display="none">
	<path display="inline" fill="#25798C" d="M14.458,29.933c0-3.452,0-6.903,0-10.355c0.211-0.564,0.589-0.961,1.162-1.162
		c3.346,0,6.692,0,10.038,0c0.689,0.194,1.23,0.56,1.479,1.268c0,3.416,0,6.833,0,10.249c-0.235,0.592-0.643,0.996-1.268,1.162
		c-3.416,0-6.833,0-10.249,0C15.052,30.889,14.651,30.515,14.458,29.933z M20.803,29.405c1.233,0,2.465,0.006,3.698-0.003
		c0.621-0.004,0.94-0.326,0.943-0.948c0.007-1.462-0.008-2.923,0.009-4.385c0.008-0.69-0.491-0.322-0.746-0.353
		c-0.417-0.051-0.175,0.28-0.15,0.427c0.249,1.444-0.404,2.979-1.678,3.783c-1.381,0.871-2.794,0.868-4.172-0.005
		c-1.267-0.802-1.918-2.343-1.667-3.788c0.026-0.151,0.261-0.477-0.162-0.42c-0.259,0.035-0.747-0.316-0.736,0.367
		c0.022,1.444,0.003,2.888,0.008,4.332c0.002,0.683,0.314,0.988,1.007,0.991C18.373,29.409,19.588,29.405,20.803,29.405z
		 M20.815,22.432c-1.277-0.008-2.327,1.02-2.341,2.292c-0.014,1.278,1.009,2.335,2.279,2.355c1.298,0.021,2.366-1.026,2.368-2.32
		C23.124,23.484,22.088,22.439,20.815,22.432z M24.407,20.106c-1.073,0-1.074,0-1.073,1.065c0,0.193-0.003,0.387,0.002,0.58
		c0.008,0.294,0.161,0.437,0.456,0.47c1.542,0.175,1.821-0.103,1.658-1.649c-0.031-0.293-0.166-0.454-0.462-0.464
		C24.794,20.102,24.6,20.107,24.407,20.106z"/>
</g>
<g id="Слой_8" display="none">
	<path display="inline" fill="#FFFFFF" d="M14.482,28.926c1.271-0.011,2.45-0.26,3.561-1.098c-1.14-0.184-2.046-0.588-2.493-1.706
		c0.695,0.023,1.34,0.327,2.05-0.003c-1.381-0.63-2.563-1.398-2.962-2.985c0.39,0.023,0.631,0.34,0.987,0.216
		c-0.059-0.249-0.268-0.353-0.397-0.516c-0.608-0.763-0.724-1.693-0.309-2.459c0.129-0.238,0.22-0.273,0.416-0.056
		c1.346,1.492,3.126,1.832,5.018,1.89c0.36,0.011,0.338-0.17,0.343-0.424c0.027-1.505,1.12-2.592,2.577-2.591
		c0.655,0.001,1.197,0.269,1.596,0.756c0.346,0.42,0.663,0.45,1.077,0.138c0.183-0.138,0.397-0.233,0.61-0.355
		c-0.051,0.486-0.134,0.622-0.915,1.503c0.492,0.052,0.875-0.272,1.373-0.324c-0.21,0.398-0.455,0.707-0.761,0.937
		c-0.344,0.258-0.407,0.566-0.413,0.968c-0.047,3.456-2.325,6.281-5.651,6.959C18.202,30.18,16.285,29.91,14.482,28.926z"/>
</g>
<g id="Слой_8__x28_копия_x29_" display="none">
	<path display="inline" fill="#25798C" d="M14.482,28.926c1.271-0.011,2.45-0.26,3.561-1.098c-1.14-0.184-2.046-0.588-2.493-1.706
		c0.695,0.023,1.34,0.327,2.05-0.003c-1.381-0.63-2.563-1.398-2.962-2.985c0.39,0.023,0.631,0.34,0.987,0.216
		c-0.059-0.249-0.268-0.353-0.397-0.516c-0.608-0.763-0.724-1.693-0.309-2.459c0.129-0.238,0.22-0.273,0.416-0.056
		c1.346,1.492,3.126,1.832,5.018,1.89c0.36,0.011,0.338-0.17,0.343-0.424c0.027-1.505,1.12-2.592,2.577-2.591
		c0.655,0.001,1.197,0.269,1.596,0.756c0.346,0.42,0.663,0.45,1.077,0.138c0.183-0.138,0.397-0.233,0.61-0.355
		c-0.051,0.486-0.134,0.622-0.915,1.503c0.492,0.052,0.875-0.272,1.373-0.324c-0.21,0.398-0.455,0.707-0.761,0.937
		c-0.344,0.258-0.407,0.566-0.413,0.968c-0.047,3.456-2.325,6.281-5.651,6.959C18.202,30.18,16.285,29.91,14.482,28.926z"/>
</g>
<g id="Слой_9__x28_копия_x29_" display="none">
	<path display="inline" fill="#FFFFFF" d="M23.526,22.947h-1.858v-1.219c0-0.458,0.303-0.564,0.517-0.564c0.213,0,1.311,0,1.311,0
		v-2.012l-1.806-0.007c-2.005,0-2.461,1.501-2.461,2.461v1.341H18.07v2.073h1.159c0,2.661,0,5.867,0,5.867h2.439
		c0,0,0-3.238,0-5.867h1.646L23.526,22.947z"/>
</g>
<g id="Слой_9" display="none">
	<path display="inline" fill="#25798C" d="M23.526,22.947h-1.858v-1.219c0-0.458,0.303-0.564,0.517-0.564c0.213,0,1.311,0,1.311,0
		v-2.012l-1.806-0.007c-2.005,0-2.461,1.501-2.461,2.461v1.341H18.07v2.073h1.159c0,2.661,0,5.867,0,5.867h2.439
		c0,0,0-3.238,0-5.867h1.646L23.526,22.947z"/>
</g>
<g id="Слой_10" display="none">
	<path display="inline" fill="#FFFFFF" d="M11.059,21.167c0.906-0.047,1.814-0.141,2.718-0.113c0.258,0.008,0.575,0.324,0.746,0.578
		c0.655,0.977,1.248,1.996,1.894,2.98c0.255,0.389,0.589,0.727,1.022,1.252c0.19-0.462,0.371-0.723,0.397-0.998
		c0.081-0.859,0.111-1.724,0.148-2.587c0.032-0.758-0.57-0.671-1.134-0.723c0.647-0.732,1.385-1.061,2.255-1.107
		c0.432-0.023,0.866-0.008,1.298-0.004c0.787,0.006,1.029,0.211,1.054,1.021c0.03,0.961-0.049,1.927,0.024,2.883
		c0.033,0.434,0.232,1.135,0.502,1.213c0.597,0.175,0.644-0.549,0.868-0.938c0.635-1.101,1.23-2.226,1.897-3.307
		c0.147-0.238,0.534-0.478,0.799-0.466c0.784,0.035,1.565,0.18,2.342,0.314c0.473,0.081,0.592,0.393,0.349,0.792
		c-0.524,0.86-1.07,1.706-1.61,2.556c-0.064,0.101-0.145,0.192-0.216,0.288c-1.023,1.378-1.008,1.364,0.195,2.548
		c0.546,0.537,1.07,1.112,1.515,1.733c0.549,0.767,0.137,1.643-0.803,1.731c-0.691,0.065-1.397,0.06-2.089-0.003
		c-0.273-0.025-0.55-0.259-0.78-0.452c-0.607-0.509-1.152-1.097-1.79-1.56c-0.761-0.552-1.665-0.087-1.782,0.855
		c-0.153,1.222-0.158,1.224-1.363,1.177c-1.198-0.047-2.246-0.48-3.164-1.235c-2.128-1.749-3.616-3.962-4.674-6.484
		c-0.194-0.462-0.411-0.913-0.617-1.369C11.059,21.552,11.059,21.359,11.059,21.167z"/>
</g>
<g id="Слой_10__x28_копия_x29_" display="none">
	<path display="inline" fill="#25798C" d="M11.059,21.167c0.906-0.047,1.814-0.141,2.718-0.113c0.258,0.008,0.575,0.324,0.746,0.578
		c0.655,0.977,1.248,1.996,1.894,2.98c0.255,0.389,0.589,0.727,1.022,1.252c0.19-0.462,0.371-0.723,0.397-0.998
		c0.081-0.859,0.111-1.724,0.148-2.587c0.032-0.758-0.57-0.671-1.134-0.723c0.647-0.732,1.385-1.061,2.255-1.107
		c0.432-0.023,0.866-0.008,1.298-0.004c0.787,0.006,1.029,0.211,1.054,1.021c0.03,0.961-0.049,1.927,0.024,2.883
		c0.033,0.434,0.232,1.135,0.502,1.213c0.597,0.175,0.644-0.549,0.868-0.938c0.635-1.101,1.23-2.226,1.897-3.307
		c0.147-0.238,0.534-0.478,0.799-0.466c0.784,0.035,1.565,0.18,2.342,0.314c0.473,0.081,0.592,0.393,0.349,0.792
		c-0.524,0.86-1.07,1.706-1.61,2.556c-0.064,0.101-0.145,0.192-0.216,0.288c-1.023,1.378-1.008,1.364,0.195,2.548
		c0.546,0.537,1.07,1.112,1.515,1.733c0.549,0.767,0.137,1.643-0.803,1.731c-0.691,0.065-1.397,0.06-2.089-0.003
		c-0.273-0.025-0.55-0.259-0.78-0.452c-0.607-0.509-1.152-1.097-1.79-1.56c-0.761-0.552-1.665-0.087-1.782,0.855
		c-0.153,1.222-0.158,1.224-1.363,1.177c-1.198-0.047-2.246-0.48-3.164-1.235c-2.128-1.749-3.616-3.962-4.674-6.484
		c-0.194-0.462-0.411-0.913-0.617-1.369C11.059,21.552,11.059,21.359,11.059,21.167z"/>
</g>
<g id="Слой_11" display="none">
	<g id="Google_plus_2_" display="inline">
		<polygon fill="#FFFFFF" points="27.192,19.831 27.192,17.6 26.073,17.6 26.073,19.831 23.834,19.831 23.834,20.948 26.073,20.948 
			26.073,23.18 27.192,23.18 27.192,20.948 29.429,20.948 29.429,19.831 		"/>
		<path fill="#FFFFFF" d="M21.047,26.769c-1.567-1.14-1.95-1.783-0.454-2.937c0.843-0.65,1.434-1.516,1.434-2.585
			c0-1.165-0.478-2.222-1.376-2.736h1.274l1.084-1.134c0,0-4.087,0-4.851,0c-3.028,0-4.513,1.81-4.513,3.801
			c0,2.035,1.4,3.637,4.134,3.637c-0.424,0.853-0.254,1.641,0.439,2.205c-4.668,0-5.667,2.043-5.667,3.616
			c0,2.04,2.35,3.252,5.169,3.252c3.853,0,5.385-2.037,5.385-3.709C23.103,28.815,22.592,27.923,21.047,26.769z M15.468,21.148
			c-0.226-1.712,0.651-3.023,1.958-2.985c1.307,0.039,2.425,1.445,2.651,3.156c0.226,1.713-0.526,2.815-1.833,2.776
			C16.936,24.057,15.693,22.86,15.468,21.148z M17.731,32.981c-1.948,0-3.355-1.229-3.355-2.707c0-1.448,1.651-2.696,3.598-2.675
			c2.161,0,3.45,1.342,3.45,2.75C21.425,31.827,20.222,32.981,17.731,32.981z"/>
	</g>
</g>
<g id="Слой_11__x28_копия_x29_" display="none">
	<g id="Google_plus_1_" display="inline">
		<polygon fill="#25798C" points="27.192,19.831 27.192,17.6 26.073,17.6 26.073,19.831 23.834,19.831 23.834,20.948 26.073,20.948 
			26.073,23.18 27.192,23.18 27.192,20.948 29.429,20.948 29.429,19.831 		"/>
		<path fill="#25798C" d="M21.047,26.769c-1.567-1.14-1.95-1.783-0.454-2.937c0.843-0.65,1.434-1.516,1.434-2.585
			c0-1.165-0.478-2.222-1.376-2.736h1.274l1.084-1.134c0,0-4.087,0-4.851,0c-3.028,0-4.513,1.81-4.513,3.801
			c0,2.035,1.4,3.637,4.134,3.637c-0.424,0.853-0.254,1.641,0.439,2.205c-4.668,0-5.667,2.043-5.667,3.616
			c0,2.04,2.35,3.252,5.169,3.252c3.853,0,5.385-2.037,5.385-3.709C23.103,28.815,22.592,27.923,21.047,26.769z M15.468,21.148
			c-0.226-1.712,0.651-3.023,1.958-2.985c1.307,0.039,2.425,1.445,2.651,3.156c0.226,1.713-0.526,2.815-1.833,2.776
			C16.936,24.057,15.693,22.86,15.468,21.148z M17.731,32.981c-1.948,0-3.355-1.229-3.355-2.707c0-1.448,1.651-2.696,3.598-2.675
			c2.161,0,3.45,1.342,3.45,2.75C21.425,31.827,20.222,32.981,17.731,32.981z"/>
	</g>
</g>
<g id="arrow_pagination" display="none">
	<path display="inline" d="M16.404,34.297c-0.04-0.021-0.081-0.041-0.121-0.063c-0.28-0.154-0.352-0.505-0.152-0.754
		c0.047-0.058,0.102-0.11,0.155-0.163c2.575-2.576,5.151-5.151,7.727-7.726c0.044-0.044,0.099-0.079,0.179-0.193
		c-0.06-0.035-0.131-0.059-0.178-0.106c-2.589-2.586-5.178-5.173-7.761-7.765c-0.103-0.104-0.197-0.251-0.223-0.391
		c-0.051-0.281,0.133-0.443,0.373-0.548c0.081,0,0.161,0,0.242,0c0.129,0.102,0.269,0.193,0.385,0.309
		c2.695,2.69,5.386,5.383,8.079,8.075c0.049,0.049,0.099,0.097,0.142,0.15c0.156,0.196,0.155,0.442-0.002,0.635
		c-0.047,0.058-0.102,0.11-0.155,0.163c-2.688,2.689-5.376,5.377-8.066,8.064c-0.116,0.116-0.255,0.208-0.383,0.311
		C16.565,34.297,16.484,34.297,16.404,34.297z"/>
</g>
<g id="arrow_для_попапов" display="none">
	<path display="inline" fill="#25798C" d="M17.295,28.492c-0.023-0.012-0.046-0.023-0.068-0.036c-0.159-0.087-0.2-0.287-0.086-0.428
		c0.027-0.033,0.058-0.062,0.088-0.092c1.462-1.462,2.924-2.925,4.387-4.387c0.025-0.025,0.056-0.045,0.102-0.109
		c-0.034-0.02-0.074-0.033-0.101-0.06c-1.47-1.468-2.94-2.937-4.406-4.409c-0.059-0.059-0.112-0.142-0.126-0.222
		c-0.029-0.16,0.076-0.252,0.212-0.311c0.046,0,0.092,0,0.137,0c0.073,0.058,0.153,0.11,0.219,0.175
		c1.53,1.527,3.058,3.056,4.587,4.585c0.028,0.028,0.056,0.055,0.081,0.085c0.089,0.111,0.088,0.251-0.001,0.361
		c-0.027,0.033-0.058,0.062-0.088,0.092c-1.526,1.527-3.052,3.053-4.58,4.579c-0.066,0.066-0.145,0.118-0.218,0.177
		C17.387,28.492,17.341,28.492,17.295,28.492z"/>
</g>
<g id="Blogosphere_promotion" display="none">
	<path display="inline" fill="#FFFFFF" d="M21.181,18.404c0.159,0.047,0.326,0.06,0.482,0.116c0.761,0.274,1.246,0.785,1.436,1.549
		c0.022,0.088,0.062,0.123,0.15,0.155c0.741,0.268,1.177,0.79,1.287,1.539c0.126,0.857-0.355,1.649-1.174,1.989
		c-0.22,0.091-0.451,0.138-0.691,0.138c-1.34,0.001-2.681-0.013-4.021,0.005c-0.949,0.013-1.752-0.78-1.753-1.71
		c0-0.503,0.21-0.925,0.615-1.249c0.06-0.048,0.076-0.089,0.065-0.166c-0.111-0.738,0.582-1.407,1.351-1.305
		c0.072,0.01,0.104-0.009,0.139-0.063c0.3-0.454,0.722-0.755,1.255-0.91c0.126-0.037,0.256-0.059,0.384-0.088
		C20.865,18.404,21.023,18.404,21.181,18.404z M20.622,23.476c0.684,0,1.368,0,2.053,0c0.048,0,0.097,0,0.144-0.006
		c1.024-0.136,1.619-1.228,1.153-2.118c-0.216-0.414-0.554-0.683-1.029-0.784c-0.15-0.032-0.193-0.078-0.219-0.225
		c-0.012-0.068-0.023-0.137-0.039-0.205c-0.18-0.748-0.87-1.301-1.666-1.316c-0.733-0.014-1.287,0.292-1.654,0.907
		c-0.117,0.196-0.167,0.22-0.378,0.166c-0.591-0.15-1.12,0.365-0.961,0.937c0.05,0.182,0.032,0.233-0.124,0.335
		c-0.469,0.307-0.672,0.804-0.535,1.334c0.149,0.574,0.683,0.994,1.275,0.978C19.301,23.463,19.962,23.476,20.622,23.476z"/>
	<path display="inline" fill="#FFFFFF" d="M20.562,28.587c-0.05-0.055-0.128-0.055-0.19-0.09c-0.254-0.145-0.385-0.362-0.377-0.64
		c0.008-0.288,0.16-0.502,0.435-0.623c0.069-0.03,0.088-0.064,0.088-0.133c-0.002-0.756-0.002-1.511-0.001-2.267
		c0-0.162,0.077-0.249,0.213-0.247c0.107,0.001,0.19,0.071,0.203,0.174c0.005,0.039,0.004,0.079,0.004,0.119
		c0,0.732,0.001,1.465-0.002,2.197c0,0.082,0.016,0.126,0.103,0.163c0.265,0.111,0.44,0.396,0.423,0.662
		c-0.019,0.307-0.222,0.559-0.519,0.65c-0.031,0.009-0.07,0.003-0.092,0.034C20.755,28.587,20.658,28.587,20.562,28.587z
		 M20.725,28.172c0.171,0.001,0.31-0.128,0.312-0.291c0.002-0.161-0.14-0.301-0.305-0.301c-0.169,0.001-0.31,0.134-0.313,0.295
		C20.416,28.037,20.553,28.171,20.725,28.172z"/>
	<path display="inline" fill="#FFFFFF" d="M21.673,25.399c0-0.189-0.001-0.378,0-0.566c0.001-0.155,0.076-0.242,0.207-0.245
		c0.133-0.002,0.218,0.087,0.22,0.246c0.003,0.338,0.001,0.676,0.002,1.013c0,0.059-0.001,0.12,0.01,0.178
		c0.027,0.144,0.17,0.267,0.326,0.273c0.202,0.007,0.405,0.001,0.608,0.004c0.055,0.001,0.067-0.031,0.084-0.069
		c0.14-0.305,0.439-0.467,0.783-0.427c0.308,0.036,0.565,0.283,0.619,0.595c0.06,0.346-0.162,0.682-0.522,0.789
		c-0.338,0.1-0.721-0.065-0.867-0.382c-0.034-0.073-0.071-0.094-0.151-0.094c-0.213,0-0.426,0.017-0.638-0.012
		c-0.368-0.05-0.66-0.35-0.675-0.707c-0.008-0.198-0.002-0.397-0.002-0.596C21.675,25.399,21.674,25.399,21.673,25.399z
		 M24.113,26.513c0.001-0.17-0.137-0.304-0.312-0.303c-0.168,0.002-0.308,0.138-0.307,0.3c0.001,0.161,0.143,0.298,0.31,0.298
		C23.975,26.808,24.112,26.677,24.113,26.513z"/>
	<path display="inline" fill="#FFFFFF" d="M19.781,25.411c0,0.166,0.001,0.331,0,0.497c-0.004,0.477-0.342,0.802-0.839,0.806
		c-0.168,0.002-0.337,0.002-0.505-0.001c-0.06-0.001-0.089,0.016-0.114,0.072c-0.136,0.301-0.445,0.467-0.775,0.424
		c-0.321-0.042-0.572-0.283-0.624-0.602c-0.057-0.346,0.163-0.676,0.519-0.781c0.342-0.101,0.723,0.06,0.868,0.379
		c0.037,0.081,0.081,0.098,0.161,0.095c0.161-0.005,0.323,0,0.485-0.002c0.245-0.002,0.394-0.141,0.396-0.376
		c0.003-0.345,0.001-0.689,0.002-1.034c0-0.046,0.003-0.093,0.012-0.138c0.021-0.108,0.109-0.171,0.222-0.164
		c0.106,0.007,0.187,0.079,0.19,0.187c0.005,0.212,0.001,0.424,0.001,0.636C19.779,25.411,19.78,25.411,19.781,25.411z
		 M17.648,26.802c0.172,0.001,0.31-0.128,0.313-0.291c0.002-0.159-0.138-0.3-0.304-0.304c-0.172-0.004-0.315,0.132-0.314,0.301
		C17.342,26.675,17.473,26.801,17.648,26.802z"/>
</g>
<g id="Blogosphere_promotion_1_" display="none">
	<path display="inline" fill="#FFFFFF" d="M25.847,21.638c-0.065,0.176-0.07,0.364-0.101,0.547c-0.106,0.638-0.201,1.278-0.31,1.915
		c-0.078,0.457-0.461,0.781-0.925,0.815c-0.382,0.028-0.763,0.013-1.145,0.015c-0.614,0.004-1.228,0-1.842,0.002
		c-0.262,0.001-0.498-0.07-0.697-0.243c-0.041-0.035-0.068-0.039-0.113-0.005c-0.07,0.052-0.153,0.07-0.241,0.069
		c-0.324-0.001-0.648,0.001-0.972-0.001c-0.261-0.002-0.431-0.169-0.432-0.428c-0.002-1.013-0.002-2.026,0-3.039
		c0-0.246,0.142-0.414,0.387-0.428c0.357-0.021,0.715-0.018,1.073,0c0.096,0.005,0.177,0.046,0.246,0.112
		c0.026,0.025,0.047,0.047,0.088,0.033c0.367-0.132,0.694-0.319,0.905-0.663c0.107-0.173,0.147-0.365,0.147-0.566
		c0.001-0.358,0-0.716,0-1.074c0-0.174,0.053-0.238,0.224-0.274c0.223-0.047,0.445-0.055,0.666,0.014
		c0.401,0.125,0.589,0.422,0.644,0.814c0.054,0.386,0.018,0.776,0.021,1.165c0.001,0.099,0.026,0.124,0.124,0.123
		c0.406-0.006,0.812-0.003,1.218-0.002c0.348,0.001,0.636,0.126,0.849,0.41c0.096,0.128,0.134,0.278,0.185,0.424
		C25.847,21.461,25.847,21.549,25.847,21.638z M22.92,24.505c0-0.001,0-0.001,0-0.001c0.488-0.001,0.976,0.005,1.463-0.003
		c0.374-0.006,0.59-0.187,0.65-0.55c0.127-0.769,0.246-1.54,0.365-2.311c0.064-0.414-0.167-0.678-0.587-0.678
		c-0.484-0.001-0.969,0-1.453,0c-0.24,0-0.309-0.069-0.31-0.31c-0.002-0.416,0.002-0.832-0.008-1.248
		c-0.009-0.394-0.225-0.598-0.601-0.594c-0.076,0.001-0.106,0.02-0.104,0.103c0.006,0.273,0.003,0.546,0.002,0.819
		c-0.001,0.319-0.063,0.622-0.249,0.891c-0.269,0.39-0.649,0.625-1.088,0.775c-0.07,0.024-0.094,0.05-0.094,0.125
		c0.003,0.795,0.001,1.59,0.002,2.384c0.001,0.375,0.225,0.598,0.598,0.599C21.979,24.506,22.449,24.505,22.92,24.505z
		 M20.483,22.809c0-0.481-0.002-0.962,0.002-1.443c0.001-0.075-0.017-0.099-0.095-0.098c-0.269,0.005-0.539,0.004-0.808,0
		c-0.074-0.001-0.099,0.015-0.099,0.095c0.003,0.958,0.003,1.917,0,2.875c0,0.075,0.019,0.1,0.097,0.099
		c0.269-0.004,0.539-0.004,0.808,0c0.076,0.001,0.098-0.019,0.097-0.097C20.481,23.764,20.483,23.286,20.483,22.809z"/>
	<path display="inline" fill="#FFFFFF" d="M15.367,20.594c0.052-0.138,0.072-0.287,0.143-0.419c0.256-0.477,0.649-0.756,1.193-0.766
		c0.873-0.016,1.746-0.006,2.62-0.006c0.58,0,1.16,0,1.74,0c0.044,0,0.09,0,0.132,0.011c0.088,0.023,0.153,0.121,0.147,0.21
		c-0.007,0.099-0.081,0.18-0.18,0.192c-0.044,0.005-0.088,0.005-0.133,0.005c-1.395,0-2.79,0-4.186,0
		c-0.175,0-0.348,0.018-0.506,0.1c-0.377,0.195-0.548,0.511-0.547,0.931c0.001,1.235,0.001,2.47,0.001,3.705
		c0,0.188-0.003,0.375,0.001,0.563c0.008,0.484,0.276,0.834,0.734,0.961c0.096,0.027,0.195,0.03,0.294,0.031
		c0.259,0.002,0.519,0,0.778,0.001c0.221,0,0.288,0.068,0.288,0.285c0,0.495,0,0.989,0,1.49c0.044-0.004,0.063-0.039,0.087-0.062
		c0.557-0.533,1.116-1.064,1.67-1.6c0.088-0.085,0.182-0.118,0.302-0.118c1.296,0.002,2.593,0,3.889,0.002
		c0.377,0.001,0.673-0.143,0.881-0.46c0.035-0.054,0.058-0.115,0.091-0.171c0.062-0.104,0.171-0.14,0.271-0.092
		c0.103,0.049,0.15,0.165,0.102,0.277c-0.184,0.422-0.498,0.699-0.943,0.823c-0.136,0.038-0.275,0.046-0.415,0.046
		c-1.262-0.001-2.524,0-3.787-0.002c-0.07,0-0.12,0.02-0.17,0.068c-0.664,0.639-1.329,1.275-1.994,1.912
		c-0.063,0.06-0.128,0.115-0.223,0.1c-0.122-0.019-0.183-0.101-0.184-0.254c-0.001-0.276,0-0.553,0-0.829
		c0-0.293-0.003-0.587,0.002-0.88c0.002-0.089-0.016-0.119-0.114-0.119c-0.269,0.001-0.539,0.024-0.807-0.016
		c-0.55-0.081-1-0.491-1.134-1.03c-0.01-0.041-0.004-0.088-0.041-0.119C15.367,23.774,15.367,22.184,15.367,20.594z"/>
</g>
<g id="Blogosphere_promotion_2_" display="none">
	<path display="inline" fill="#FFFFFF" d="M25.832,23.929c-0.034,0.02-0.033,0.057-0.043,0.089c-0.114,0.375-0.444,0.627-0.85,0.651
		c-0.356,0.021-0.714-0.207-0.863-0.556c-0.026-0.062-0.061-0.078-0.124-0.078c-0.299,0.003-0.598,0.002-0.897,0.001
		c-0.133-0.001-0.215-0.065-0.233-0.173c-0.022-0.137,0.077-0.243,0.235-0.244c0.285-0.002,0.57-0.003,0.855,0.001
		c0.07,0.001,0.101-0.017,0.119-0.088c0.109-0.424,0.486-0.711,0.906-0.695c0.45,0.017,0.8,0.327,0.879,0.779
		c0.002,0.009,0.01,0.017,0.015,0.025C25.832,23.737,25.832,23.833,25.832,23.929z M24.912,23.264
		c-0.275,0.001-0.488,0.216-0.487,0.491c0.001,0.274,0.217,0.488,0.491,0.487c0.274-0.001,0.488-0.217,0.487-0.491
		C25.402,23.475,25.188,23.263,24.912,23.264z"/>
	<path display="inline" fill="#FFFFFF" d="M15.273,23.62c0.053-0.166,0.103-0.331,0.226-0.465c0.243-0.266,0.543-0.373,0.892-0.293
		c0.352,0.081,0.584,0.306,0.679,0.659c0.02,0.076,0.05,0.102,0.131,0.1c0.24-0.007,0.481-0.003,0.721-0.002
		c0.034,0,0.069-0.001,0.103,0.005c0.104,0.018,0.178,0.106,0.177,0.209c-0.001,0.101-0.068,0.181-0.172,0.201
		c-0.044,0.008-0.089,0.011-0.133,0.011c-0.251,0.001-0.501,0.002-0.752-0.001c-0.059-0.001-0.091,0.015-0.116,0.073
		c-0.158,0.355-0.512,0.576-0.875,0.553c-0.405-0.025-0.714-0.269-0.841-0.661c-0.009-0.028-0.008-0.062-0.04-0.08
		C15.273,23.826,15.273,23.723,15.273,23.62z M16.189,24.242c0.274,0,0.49-0.215,0.49-0.489c0-0.275-0.213-0.489-0.489-0.49
		c-0.276,0-0.49,0.213-0.49,0.488C15.701,24.027,15.914,24.242,16.189,24.242z"/>
	<path display="inline" fill="#FFFFFF" d="M21.937,24.011c0,0.189-0.001,0.378,0,0.567c0.002,0.201-0.054,0.379-0.193,0.527
		c-0.034,0.037-0.039,0.076-0.039,0.122c0.001,0.254,0.003,0.509-0.001,0.763c-0.001,0.065,0.023,0.096,0.078,0.125
		c0.521,0.274,1.013,0.592,1.475,0.956c0.223,0.176,0.338,0.4,0.338,0.683c0.001,0.237,0.001,0.474,0,0.711
		c0,0.093-0.02,0.177-0.109,0.229c-0.144,0.083-0.311-0.018-0.314-0.197c-0.004-0.237-0.006-0.474,0-0.711
		c0.004-0.165-0.056-0.287-0.187-0.389c-0.467-0.365-0.962-0.684-1.49-0.951c-0.155-0.078-0.222-0.187-0.219-0.359
		c0.006-0.33,0.003-0.66,0.001-0.99c0-0.096,0.027-0.175,0.107-0.232c0.088-0.063,0.13-0.153,0.129-0.257
		c-0.003-0.422,0.02-0.845-0.013-1.267c-0.028-0.355-0.362-0.682-0.717-0.713c-0.199-0.017-0.399-0.031-0.593,0.027
		c-0.371,0.111-0.592,0.415-0.598,0.829c-0.005,0.364-0.001,0.729-0.001,1.093c0,0.12,0.036,0.222,0.137,0.295
		c0.077,0.055,0.1,0.134,0.099,0.226c-0.002,0.34-0.002,0.681,0,1.021c0.001,0.146-0.058,0.244-0.19,0.312
		c-0.539,0.276-1.049,0.598-1.525,0.973c-0.124,0.098-0.182,0.216-0.179,0.372c0.004,0.241,0.001,0.481,0.001,0.722
		c0,0.095-0.04,0.17-0.127,0.206c-0.076,0.032-0.155,0.024-0.222-0.034c-0.051-0.043-0.072-0.1-0.072-0.164
		c0-0.275-0.002-0.55,0.004-0.825c0.005-0.254,0.13-0.449,0.325-0.604c0.46-0.367,0.954-0.683,1.474-0.958
		c0.064-0.034,0.087-0.07,0.085-0.142c-0.004-0.251-0.003-0.502-0.001-0.753c0-0.051-0.01-0.091-0.046-0.13
		c-0.125-0.134-0.183-0.298-0.184-0.479c-0.002-0.412-0.007-0.825,0.002-1.237c0.014-0.621,0.558-1.162,1.181-1.185
		c0.303-0.011,0.607-0.023,0.886,0.127c0.43,0.231,0.67,0.589,0.695,1.079c0.01,0.202,0.002,0.405,0.002,0.608L21.937,24.011z"/>
	<path display="inline" fill="#FFFFFF" d="M21.468,19.392c0,0.413-0.283,0.78-0.688,0.882c-0.069,0.017-0.086,0.045-0.085,0.111
		c0.003,0.289,0.002,0.577,0.001,0.866c0,0.092-0.03,0.17-0.115,0.215c-0.073,0.039-0.145,0.034-0.214-0.012
		c-0.086-0.056-0.098-0.144-0.098-0.235c-0.001-0.282-0.003-0.564,0.002-0.845c0.001-0.079-0.018-0.12-0.095-0.154
		c-0.379-0.166-0.579-0.543-0.527-0.977c0.042-0.35,0.362-0.682,0.727-0.753C20.936,18.38,21.468,18.819,21.468,19.392z
		 M20.551,18.898c-0.268,0.001-0.492,0.226-0.492,0.494c0,0.266,0.228,0.493,0.494,0.492c0.267-0.001,0.493-0.229,0.492-0.495
		C21.044,19.121,20.819,18.897,20.551,18.898z"/>
	<path display="inline" fill="#FFFFFF" d="M17.494,21.583c-0.501-0.008-0.897-0.361-0.939-0.809
		c-0.046-0.482,0.259-0.915,0.726-1.003c0.376-0.071,0.697,0.047,0.924,0.359c0.216,0.297,0.238,0.623,0.074,0.952
		c-0.035,0.07-0.024,0.105,0.027,0.156c0.195,0.189,0.386,0.382,0.577,0.575c0.063,0.064,0.1,0.139,0.067,0.233
		c-0.03,0.083-0.09,0.128-0.174,0.141c-0.086,0.013-0.15-0.033-0.208-0.09c-0.187-0.187-0.376-0.372-0.56-0.563
		c-0.053-0.055-0.094-0.072-0.167-0.033C17.723,21.564,17.594,21.587,17.494,21.583z M17.957,20.666
		c-0.001-0.273-0.217-0.49-0.489-0.49c-0.276,0-0.499,0.225-0.494,0.498c0.005,0.267,0.233,0.491,0.497,0.489
		C17.738,21.16,17.958,20.936,17.957,20.666z"/>
	<path display="inline" fill="#FFFFFF" d="M23.608,21.583c-0.124,0.004-0.277-0.032-0.415-0.116
		c-0.052-0.032-0.081-0.024-0.121,0.018c-0.19,0.194-0.383,0.385-0.575,0.577c-0.055,0.055-0.117,0.099-0.199,0.089
		c-0.158-0.018-0.238-0.193-0.15-0.326c0.023-0.034,0.052-0.064,0.081-0.093c0.184-0.185,0.368-0.371,0.554-0.554
		c0.039-0.038,0.052-0.068,0.028-0.124c-0.234-0.55,0.026-1.112,0.599-1.268c0.35-0.095,0.664-0.001,0.906,0.271
		c0.259,0.291,0.312,0.631,0.153,0.987C24.315,21.388,24.011,21.576,23.608,21.583z M23.147,20.667c0,0.27,0.22,0.494,0.487,0.496
		c0.265,0.002,0.492-0.223,0.497-0.49c0.004-0.273-0.22-0.498-0.495-0.497C23.363,20.177,23.148,20.393,23.147,20.667z"/>
</g>
<g id="ppc" display="none">
	<path display="inline" fill="#FFFFFF" d="M21.502,18.401c0.613,0.128,0.816,0.585,0.91,1.131c0.008,0.048,0.015,0.096,0.023,0.151
		c0.057,0,0.106,0,0.154,0c0.916,0,1.831,0,2.747,0c0.045,0,0.091-0.001,0.135,0.008c0.113,0.023,0.181,0.112,0.171,0.221
		c-0.011,0.113-0.075,0.179-0.188,0.193c-0.045,0.005-0.09,0.006-0.135,0.006c-3.203,0-6.405,0-9.608,0
		c-0.049,0-0.099,0-0.147-0.008c-0.101-0.017-0.16-0.08-0.171-0.182c-0.012-0.108,0.038-0.185,0.139-0.219
		c0.049-0.016,0.105-0.018,0.157-0.018c0.78-0.001,1.56-0.001,2.34-0.001c0.045,0,0.089,0,0.141,0
		c0.084-0.591,0.245-1.122,0.918-1.282C19.893,18.401,20.698,18.401,21.502,18.401z M18.581,19.677c1.163,0,2.286,0,3.439,0
		c-0.052-0.172-0.091-0.335-0.149-0.489c-0.088-0.235-0.264-0.36-0.518-0.36c-0.701-0.001-1.403-0.001-2.104,0
		c-0.227,0-0.4,0.104-0.489,0.31C18.687,19.305,18.643,19.484,18.581,19.677z"/>
	<path display="inline" fill="#FFFFFF" d="M16.059,20.546c2.978,0,5.94,0,8.91,0c0,0.105,0.004,0.206-0.001,0.307
		c-0.055,1.333-0.11,2.665-0.166,3.998c-0.072,1.714-0.145,3.428-0.219,5.142c-0.011,0.261-0.105,0.494-0.276,0.695
		c-0.183,0.214-0.421,0.306-0.693,0.323c-0.11,0.007-0.222,0.003-0.332,0.003c-1.913,0-3.826,0-5.739,0.001
		c-0.327,0-0.616-0.083-0.831-0.347c-0.155-0.19-0.245-0.409-0.257-0.653c-0.038-0.767-0.068-1.533-0.1-2.3
		c-0.055-1.292-0.109-2.583-0.163-3.875c-0.044-1.058-0.088-2.116-0.131-3.174C16.057,20.63,16.059,20.594,16.059,20.546z
		 M16.504,20.971c0,0.059-0.002,0.105,0,0.149c0.05,1.214,0.101,2.428,0.151,3.642c0.072,1.71,0.144,3.42,0.215,5.13
		c0.015,0.363,0.18,0.703,0.719,0.701c1.95-0.009,3.9-0.004,5.85-0.004c0.07,0,0.139-0.005,0.209-0.013
		c0.211-0.024,0.361-0.139,0.437-0.332c0.044-0.112,0.07-0.237,0.075-0.358c0.056-1.255,0.105-2.51,0.157-3.765
		c0.07-1.669,0.141-3.338,0.212-5.007c0.002-0.047,0-0.095,0-0.144C21.848,20.971,19.182,20.971,16.504,20.971z"/>
	<path display="inline" fill="#FFFFFF" d="M20.515,27.81c-0.8,0-1.601,0-2.401,0c-0.025,0-0.049,0-0.074,0
		c-0.195-0.001-0.3-0.076-0.301-0.215c0-0.139,0.104-0.215,0.299-0.215c1.654,0,3.308,0,4.962,0c0.045,0,0.091,0.003,0.134,0.013
		c0.102,0.023,0.153,0.097,0.158,0.195c0.004,0.093-0.041,0.17-0.134,0.2c-0.053,0.017-0.113,0.022-0.169,0.022
		C22.164,27.811,21.34,27.81,20.515,27.81z"/>
	<path display="inline" fill="#FFFFFF" d="M20.511,29.948c-0.817,0-1.634,0-2.45,0c-0.215,0-0.324-0.075-0.321-0.219
		c0.003-0.142,0.107-0.213,0.315-0.213c1.642,0,3.283,0,4.925,0c0.208,0,0.312,0.071,0.315,0.213
		c0.002,0.144-0.107,0.219-0.322,0.219C22.152,29.949,21.331,29.948,20.511,29.948z"/>
	<path display="inline" fill="#FFFFFF" d="M20.504,28.875c-0.813,0-1.625,0-2.438,0c-0.037,0-0.074,0.001-0.111-0.001
		c-0.128-0.009-0.215-0.094-0.217-0.208c-0.002-0.113,0.088-0.203,0.212-0.213c0.037-0.003,0.074-0.001,0.111-0.001
		c1.637,0,3.275,0,4.912,0c0.012,0,0.025,0,0.037,0c0.184,0.001,0.287,0.08,0.284,0.216c-0.003,0.133-0.102,0.208-0.28,0.208
		C22.178,28.875,21.341,28.875,20.504,28.875z"/>
</g>
<g id="ppc_1_" display="none">
	<path display="inline" fill="#FFFFFF" d="M12.688,19.198c0.05-0.112,0.086-0.234,0.154-0.333c0.168-0.245,0.415-0.351,0.71-0.351
		c4.289,0,8.578-0.001,12.867,0.001c0.514,0,0.861,0.348,0.861,0.86c0.002,2.973,0.002,5.947,0,8.92
		c0,0.508-0.338,0.845-0.847,0.857c-0.024,0.001-0.047,0-0.071,0c-4.251,0-8.502-0.001-12.753,0.002
		c-0.376,0-0.665-0.127-0.839-0.471c-0.031-0.062-0.054-0.129-0.081-0.194C12.688,25.392,12.688,22.295,12.688,19.198z
		 M13.31,27.308c4.461,0,8.899,0,13.35,0c0-0.065,0-0.121,0-0.178c0-2.555,0-5.11,0-7.665c0-0.288-0.042-0.329-0.328-0.329
		c-4.231,0-8.463,0-12.694,0c-0.286,0-0.328,0.042-0.328,0.329c0,2.555,0,5.11,0,7.665C13.31,27.186,13.31,27.242,13.31,27.308z
		 M19.981,28.447c0.19,0.002,0.365-0.166,0.371-0.357c0.006-0.196-0.166-0.373-0.365-0.375c-0.194-0.001-0.365,0.162-0.371,0.354
		C19.61,28.264,19.785,28.445,19.981,28.447z"/>
	<path display="inline" fill="#FFFFFF" d="M19.982,30.883c-0.912,0-1.823,0-2.735,0c-0.192,0-0.201-0.01-0.202-0.203
		c0-0.09,0.005-0.181-0.001-0.271c-0.009-0.124,0.046-0.17,0.167-0.169c0.456,0.003,0.912,0.001,1.367,0.001
		c0.207,0,0.217-0.01,0.217-0.217c0.001-0.331,0.001-0.331,0.336-0.331c0.612,0,1.225,0,1.837,0c0.181,0,0.202,0.023,0.204,0.207
		c0.004,0.36-0.045,0.341,0.35,0.34c0.408,0,0.817,0.002,1.225-0.001c0.126-0.001,0.186,0.041,0.176,0.174
		c-0.007,0.094-0.001,0.19-0.002,0.285c-0.001,0.168-0.016,0.183-0.192,0.183c-0.636,0-1.272,0-1.909,0
		C20.542,30.883,20.262,30.883,19.982,30.883z"/>
	<path display="inline" fill="#FFFFFF" d="M22.476,24.299c-0.033,0.215-0.056,0.408-0.092,0.599
		c-0.068,0.354-0.358,0.465-0.644,0.243c-0.288-0.224-0.57-0.457-0.85-0.693c-0.123-0.103-0.253-0.153-0.415-0.151
		c-0.551,0.006-1.101,0.003-1.652,0.002c-0.349-0.001-0.54-0.187-0.54-0.535c-0.002-0.921-0.002-1.842,0-2.763
		c0.001-0.355,0.191-0.543,0.549-0.543c1.401-0.001,2.801-0.001,4.202,0c0.359,0,0.543,0.187,0.544,0.546
		c0.001,0.916,0.001,1.833,0,2.749c0,0.367-0.183,0.546-0.554,0.547C22.843,24.3,22.663,24.299,22.476,24.299z M18.826,23.759
		c0.567,0,1.118,0.003,1.668-0.001c0.268-0.002,0.501,0.078,0.707,0.251c0.22,0.186,0.447,0.364,0.686,0.558
		c0.02-0.127,0.036-0.233,0.055-0.339c0.056-0.311,0.244-0.468,0.562-0.47c0.174-0.001,0.348,0,0.521,0c0-0.93,0-1.843,0-2.754
		c-1.406,0-2.799,0-4.199,0C18.826,21.924,18.826,22.833,18.826,23.759z"/>
	<path display="inline" fill="#FFFFFF" d="M16.939,22.083c0,0.929,0,1.838,0,2.763c0.172,0,0.337-0.001,0.502,0
		c0.351,0.002,0.532,0.155,0.593,0.504c0.016,0.093,0.029,0.187,0.045,0.299c0.044-0.031,0.078-0.053,0.109-0.078
		c0.162-0.131,0.336-0.252,0.483-0.398c0.31-0.307,0.69-0.354,1.095-0.323c0.176,0.013,0.283,0.128,0.276,0.282
		c-0.007,0.149-0.121,0.271-0.287,0.25c-0.376-0.049-0.656,0.104-0.917,0.35c-0.179,0.169-0.38,0.315-0.572,0.47
		c-0.325,0.263-0.617,0.157-0.689-0.251c-0.032-0.182-0.055-0.365-0.085-0.564c-0.193,0-0.381,0.001-0.57,0
		c-0.343-0.002-0.531-0.186-0.531-0.526c-0.001-0.926-0.001-1.852,0-2.778c0-0.343,0.182-0.531,0.525-0.534
		c0.232-0.003,0.465-0.002,0.697,0.015c0.142,0.011,0.223,0.132,0.214,0.271c-0.008,0.131-0.099,0.227-0.235,0.243
		c-0.056,0.007-0.114,0.005-0.171,0.005C17.266,22.083,17.11,22.083,16.939,22.083z"/>
</g>
<g id="ppc_2_">
	<path fill="#FFFFFF" d="M0.146,7.669C0.198,7.642,0.194,7.586,0.209,7.54C0.391,6.98,0.771,6.629,1.35,6.532
		c0.587-0.098,1.063,0.116,1.414,0.598c0.084,0.115,0.15,0.241,0.182,0.381c0.022,0.097,0.072,0.123,0.169,0.122
		c0.416-0.006,0.831-0.006,1.247,0c0.254,0.004,0.405,0.213,0.315,0.428c-0.06,0.143-0.179,0.196-0.33,0.195
		C3.942,8.254,3.537,8.26,3.131,8.253c-0.109-0.002-0.157,0.03-0.189,0.136c-0.181,0.587-0.734,0.988-1.35,0.99
		C0.97,9.38,0.41,8.974,0.223,8.39C0.204,8.33,0.207,8.259,0.146,8.217C0.146,8.035,0.146,7.852,0.146,7.669z M0.778,7.936
		C0.774,8.385,1.134,8.749,1.582,8.749c0.439,0,0.801-0.358,0.809-0.799c0.008-0.439-0.365-0.814-0.809-0.813
		C1.139,7.137,0.782,7.493,0.778,7.936z"/>
	<path fill="#FFFFFF" d="M8.149,0.153c0.163,0.073,0.343,0.097,0.498,0.193c0.529,0.329,0.78,0.807,0.709,1.421
		C9.289,2.35,8.95,2.748,8.395,2.944c-0.118,0.042-0.151,0.09-0.149,0.21C8.253,3.57,8.251,3.985,8.245,4.401
		C8.242,4.571,8.14,4.676,7.98,4.703C7.853,4.726,7.715,4.652,7.655,4.531C7.621,4.46,7.624,4.384,7.624,4.308
		C7.624,3.913,7.621,3.517,7.626,3.122c0.001-0.097-0.028-0.14-0.122-0.17C6.893,2.759,6.494,2.21,6.502,1.584
		c0.008-0.632,0.413-1.175,1.017-1.364c0.05-0.016,0.112-0.011,0.144-0.067C7.825,0.153,7.987,0.153,8.149,0.153z M8.741,1.61
		c0.018-0.431-0.325-0.803-0.76-0.823C7.519,0.766,7.15,1.104,7.131,1.567c-0.018,0.439,0.34,0.816,0.791,0.831
		C8.353,2.412,8.723,2.056,8.741,1.61z"/>
	<path fill="#FFFFFF" d="M7.671,9.222c0.203,0,0.406,0.002,0.608-0.001c0.29-0.004,0.502-0.208,0.505-0.48
		c0.003-0.269-0.209-0.482-0.497-0.49c-0.223-0.006-0.446,0-0.669-0.002c-0.654-0.006-1.13-0.431-1.16-1.079
		C6.432,6.594,6.854,6.09,7.476,6.034c0.131-0.012,0.161-0.055,0.151-0.173C7.619,5.756,7.622,5.648,7.631,5.542
		c0.014-0.167,0.141-0.278,0.305-0.278c0.164,0,0.292,0.111,0.305,0.277c0.01,0.126,0.009,0.253,0.005,0.38
		c-0.003,0.08,0.026,0.107,0.105,0.104c0.147-0.005,0.294-0.002,0.441-0.001c0.232,0.002,0.374,0.116,0.38,0.305
		c0.006,0.189-0.143,0.324-0.376,0.327c-0.39,0.004-0.781,0-1.171,0.002C7.353,6.66,7.176,6.78,7.113,7.001
		C7.026,7.305,7.229,7.595,7.544,7.614c0.293,0.017,0.587-0.009,0.881,0.02c0.477,0.047,0.908,0.443,0.973,0.906
		C9.477,9.095,9.197,9.59,8.706,9.774C8.591,9.817,8.472,9.841,8.351,9.85C8.262,9.856,8.243,9.895,8.246,9.974
		c0.005,0.116,0.005,0.233-0.002,0.35c-0.011,0.179-0.133,0.296-0.302,0.298c-0.175,0.003-0.303-0.116-0.314-0.302
		c-0.007-0.111-0.008-0.223-0.002-0.334C7.632,9.89,7.606,9.849,7.501,9.855C7.349,9.863,7.197,9.86,7.045,9.856
		C6.816,9.851,6.679,9.73,6.68,9.537c0.001-0.195,0.136-0.312,0.368-0.314C7.255,9.22,7.463,9.222,7.671,9.222z"/>
	<path fill="#FFFFFF" d="M3.371,11.009c0.253-0.015,0.497,0.024,0.717,0.15c0.099,0.057,0.155,0.039,0.229-0.038
		c0.282-0.291,0.571-0.576,0.859-0.861c0.094-0.093,0.203-0.151,0.342-0.104c0.115,0.039,0.187,0.117,0.214,0.235
		c0.031,0.135-0.036,0.234-0.125,0.323c-0.286,0.287-0.571,0.576-0.862,0.859c-0.07,0.068-0.077,0.119-0.033,0.206
		c0.489,0.959-0.191,2.083-1.264,2.094C2.757,13.88,2.11,13.31,2.027,12.657c-0.106-0.828,0.44-1.486,1.147-1.631
		C3.238,11.013,3.305,11.014,3.371,11.009z M3.445,13.239c0.439,0,0.805-0.363,0.806-0.8c0.001-0.436-0.362-0.803-0.799-0.809
		c-0.442-0.006-0.813,0.365-0.811,0.81C2.643,12.88,3.004,13.239,3.445,13.239z"/>
	<path fill="#FFFFFF" d="M4.874,3.459C4.867,3.731,4.817,3.932,4.711,4.114C4.664,4.195,4.676,4.242,4.742,4.306
		c0.291,0.283,0.575,0.572,0.862,0.859C5.71,5.272,5.779,5.391,5.718,5.546C5.634,5.761,5.375,5.813,5.193,5.642
		c-0.206-0.195-0.403-0.4-0.604-0.601C4.478,4.93,4.383,4.79,4.251,4.716C4.1,4.631,3.974,4.801,3.83,4.838
		C2.917,5.073,2.018,4.41,2.011,3.464c-0.006-0.88,0.743-1.512,1.567-1.437c0.597,0.054,1.129,0.513,1.26,1.087
		C4.869,3.248,4.868,3.384,4.874,3.459z M2.641,3.445c-0.003,0.44,0.353,0.804,0.794,0.811C3.869,4.264,4.243,3.901,4.25,3.465
		C4.257,3.02,3.891,2.648,3.446,2.647C3.005,2.647,2.644,3.005,2.641,3.445z"/>
	<path fill="#FFFFFF" d="M12.502,4.879c-0.257,0.013-0.505-0.028-0.73-0.158c-0.086-0.05-0.137-0.037-0.205,0.033
		c-0.283,0.29-0.572,0.574-0.86,0.86c-0.089,0.088-0.188,0.155-0.324,0.125c-0.228-0.05-0.331-0.293-0.192-0.482
		c0.077-0.105,0.177-0.194,0.27-0.287c0.221-0.223,0.442-0.446,0.667-0.666c0.058-0.056,0.078-0.096,0.036-0.179
		c-0.435-0.859-0.001-1.819,0.932-2.071c0.793-0.215,1.652,0.392,1.752,1.207C13.952,4.095,13.313,4.854,12.502,4.879z
		 M13.233,3.452c0-0.442-0.36-0.803-0.801-0.804c-0.441-0.002-0.806,0.359-0.809,0.798C11.62,3.89,11.99,4.262,12.433,4.26
		C12.872,4.257,13.233,3.893,13.233,3.452z"/>
	<path fill="#FFFFFF" d="M10.991,12.364c0.015-0.217,0.07-0.422,0.179-0.608c0.044-0.075,0.022-0.114-0.032-0.167
		c-0.299-0.296-0.597-0.594-0.892-0.893c-0.089-0.091-0.142-0.196-0.099-0.33c0.04-0.122,0.123-0.196,0.246-0.221
		c0.134-0.027,0.234,0.042,0.323,0.131c0.283,0.283,0.568,0.565,0.848,0.851c0.065,0.067,0.113,0.086,0.205,0.039
		c0.897-0.466,1.964,0.108,2.079,1.108c0.088,0.764-0.431,1.437-1.148,1.569c-0.79,0.145-1.526-0.358-1.679-1.131
		C10.998,12.598,11,12.48,10.991,12.364z M13.233,12.444c0.003-0.442-0.351-0.806-0.793-0.814c-0.435-0.009-0.808,0.353-0.817,0.792
		c-0.009,0.446,0.355,0.818,0.802,0.82C12.868,13.242,13.229,12.886,13.233,12.444z"/>
	<path fill="#FFFFFF" d="M12.151,7.631c0.203,0,0.406-0.006,0.608,0.002c0.099,0.004,0.139-0.031,0.168-0.124
		c0.218-0.686,0.872-1.091,1.583-0.984c0.688,0.103,1.219,0.723,1.216,1.42c-0.003,0.695-0.524,1.306-1.206,1.413
		c-0.707,0.111-1.378-0.296-1.59-0.973c-0.03-0.096-0.067-0.136-0.176-0.134c-0.421,0.007-0.841,0.006-1.262,0.001
		C11.317,8.251,11.213,8.159,11.181,8c-0.029-0.147,0.033-0.254,0.156-0.331c0.064-0.04,0.136-0.037,0.206-0.037
		C11.746,7.63,11.949,7.631,12.151,7.631z M15.095,7.951c0.004-0.449-0.356-0.814-0.804-0.814c-0.439,0-0.801,0.358-0.809,0.799
		c-0.008,0.439,0.365,0.814,0.809,0.814C14.733,8.749,15.091,8.394,15.095,7.951z"/>
	<path fill="#FFFFFF" d="M8.249,12.159c0,0.203,0.006,0.406-0.003,0.608c-0.004,0.1,0.033,0.138,0.125,0.167
		c0.685,0.217,1.09,0.874,0.983,1.583c-0.104,0.688-0.725,1.219-1.421,1.215c-0.695-0.004-1.305-0.526-1.412-1.207
		c-0.111-0.708,0.296-1.377,0.974-1.589c0.097-0.031,0.134-0.069,0.133-0.177c-0.007-0.421-0.006-0.841,0-1.262
		c0.002-0.175,0.094-0.279,0.254-0.311c0.147-0.029,0.254,0.034,0.33,0.157c0.039,0.064,0.036,0.136,0.037,0.207
		C8.25,11.754,8.249,11.956,8.249,12.159z M7.936,15.102c0.444,0,0.799-0.351,0.806-0.796c0.007-0.443-0.362-0.817-0.806-0.817
		c-0.437,0-0.8,0.36-0.807,0.801C7.123,14.735,7.487,15.102,7.936,15.102z"/>
</g>
<g id="ppc_3_" display="none">
	<path display="inline" fill="#FFFFFF" d="M13.731,0.218c0.436,0.153,0.595,0.462,0.594,0.921c-0.011,2.929-0.006,5.859-0.006,8.788
		c0,0.077,0,0.153,0,0.243c-0.247,0-0.481,0-0.734,0c0-3.064,0-6.125,0-9.201c-2.725,0-5.431,0-8.165,0c0,0.075,0,0.15,0,0.224
		c0,1.59,0,3.181,0,4.771c0,0.615-0.281,0.894-0.898,0.895c-1.107,0-2.215,0-3.322,0c-0.069,0-0.139,0-0.219,0
		c0,3.653,0,7.286,0,10.938c2.111,0,4.213,0,6.331,0c0,0.251,0,0.485,0,0.736c-0.069,0.003-0.138,0.009-0.206,0.009
		c-2.002,0-4.005,0.001-6.007,0c-0.594,0-0.875-0.281-0.875-0.876c-0.001-3.554,0-7.108-0.001-10.662
		c0-0.427,0.124-0.805,0.383-1.147C1.888,4.165,3.167,2.47,4.442,0.771C4.648,0.497,4.92,0.333,5.232,0.218
		C8.065,0.218,10.898,0.218,13.731,0.218z M1.349,6.104c1.136,0,2.226,0,3.317,0c0-1.459,0-2.902,0-4.396
		C3.546,3.192,2.456,4.637,1.349,6.104z"/>
	<path display="inline" fill="#FFFFFF" d="M14.382,16.865c0.397,0.425,0.793,0.839,1.176,1.264c0.529,0.587,0.369,1.44-0.322,1.765
		c-0.434,0.204-0.918,0.106-1.284-0.275c-0.37-0.385-0.736-0.775-1.092-1.173c-0.104-0.116-0.185-0.128-0.325-0.066
		c-2.463,1.079-5.177-0.127-6.038-2.677c-0.68-2.015,0.302-4.365,2.214-5.3c2.335-1.141,5.025-0.184,6.066,2.193
		c0.605,1.382,0.483,2.746-0.271,4.053c-0.032,0.056-0.068,0.109-0.102,0.164C14.397,16.823,14.394,16.835,14.382,16.865z
		 M13.283,17.064c1.78-1.86,1.206-4.346-0.151-5.51c-1.337-1.147-3.389-1.193-4.761-0.052c-1.42,1.181-1.765,3.196-0.81,4.761
		c0.478,0.783,1.156,1.328,2.03,1.603c1.243,0.391,2.384,0.12,3.436-0.611c0.09,0.202,0.135,0.413,0.258,0.556
		c0.39,0.453,0.807,0.885,1.221,1.317c0.147,0.153,0.391,0.151,0.524,0.021c0.137-0.135,0.135-0.35-0.019-0.52
		c-0.233-0.258-0.472-0.511-0.71-0.764C14.008,17.552,13.749,17.196,13.283,17.064z"/>
	<path display="inline" fill="#FFFFFF" d="M7.529,14.361c-0.016-1.737,1.404-3.171,3.168-3.199c1.74-0.027,3.191,1.415,3.202,3.181
		c0.011,1.749-1.401,3.174-3.165,3.193C8.981,17.554,7.546,16.132,7.529,14.361z M8.272,14.332c-0.015,1.346,1.07,2.451,2.419,2.463
		c1.351,0.012,2.448-1.061,2.467-2.415c0.019-1.354-1.064-2.457-2.429-2.475C9.392,11.888,8.287,12.979,8.272,14.332z"/>
</g>
<g id="ppc_4_" display="none">
	<path display="inline" fill="#FFFFFF" d="M0.139,0.532c0.148-0.224,0.365-0.265,0.619-0.265C6.971,0.271,13.184,0.27,19.397,0.271
		c0.09,0,0.181,0.003,0.269,0.02C19.87,0.33,20.003,0.491,20,0.681c-0.003,0.199-0.153,0.37-0.363,0.389
		c-0.173,0.015-0.35,0.019-0.523,0.004c-0.161-0.014-0.204,0.051-0.185,0.195c0.006,0.044,0.001,0.09,0.001,0.136
		c0,3.717-0.002,7.435,0.002,11.152c0,0.396-0.091,0.74-0.412,0.997c-0.241,0.193-0.523,0.233-0.82,0.233
		c-4.086-0.001-8.172-0.001-12.258-0.001c-0.996,0-1.991,0.002-2.987-0.001c-0.583-0.002-0.985-0.285-1.13-0.787
		c-0.043-0.15-0.046-0.306-0.046-0.461c0-3.743-0.001-7.487,0.004-11.23c0-0.179-0.031-0.262-0.227-0.233
		C0.944,1.091,0.824,1.068,0.709,1.079C0.46,1.103,0.268,1.022,0.139,0.804C0.139,0.714,0.139,0.623,0.139,0.532z M10.114,1.077
		c-2.605,0-5.211,0.002-7.816-0.005c-0.182,0-0.218,0.051-0.218,0.223c0.005,3.756,0.004,7.513,0.004,11.269
		c0,0.339,0.076,0.417,0.404,0.417c5.082,0,10.163,0,15.245,0c0.318,0,0.399-0.082,0.399-0.404c0-3.769-0.001-7.538,0.004-11.308
		c0-0.169-0.051-0.197-0.206-0.197C15.325,1.079,12.719,1.077,10.114,1.077z"/>
	<path display="inline" fill="#FFFFFF" d="M10.7,17.613c0,0.637,0.002,1.257-0.001,1.878c-0.001,0.276-0.14,0.441-0.371,0.459
		c-0.241,0.019-0.42-0.161-0.423-0.443c-0.005-0.53-0.002-1.06-0.002-1.59c0-0.096,0-0.192,0-0.303
		c-0.087,0.016-0.124,0.08-0.17,0.126c-0.678,0.676-1.354,1.352-2.03,2.029c-0.124,0.124-0.257,0.213-0.445,0.168
		C7,19.873,6.872,19.586,7.008,19.359c0.043-0.071,0.102-0.133,0.161-0.192c0.863-0.865,1.726-1.73,2.594-2.59
		c0.106-0.105,0.15-0.209,0.143-0.355c-0.011-0.226-0.009-0.453,0-0.679c0.005-0.118-0.029-0.155-0.151-0.153
		c-0.433,0.007-0.866,0.007-1.299,0c-0.208-0.003-0.359-0.129-0.398-0.306c-0.04-0.18,0.041-0.36,0.202-0.442
		c0.082-0.042,0.172-0.055,0.262-0.055c1.17-0.001,2.34-0.003,3.511,0.001c0.285,0.001,0.472,0.174,0.469,0.407
		c-0.003,0.241-0.187,0.395-0.478,0.397c-0.394,0.002-0.789,0.004-1.183-0.002c-0.108-0.002-0.158,0.028-0.141,0.14
		c0.002,0.013,0,0.026,0,0.039c0.002,0.284-0.073,0.6,0.027,0.844c0.1,0.244,0.373,0.417,0.574,0.618
		c0.699,0.7,1.399,1.399,2.098,2.099c0.037,0.037,0.075,0.071,0.109,0.11c0.172,0.197,0.174,0.433,0.007,0.59
		c-0.161,0.151-0.391,0.145-0.575-0.026c-0.147-0.136-0.285-0.282-0.426-0.424c-0.549-0.549-1.097-1.098-1.647-1.645
		C10.823,17.692,10.792,17.631,10.7,17.613z"/>
	<path display="inline" fill="#FFFFFF" d="M10.263,5.257c0,0.536,0.005,1.073-0.003,1.609c-0.002,0.142,0.029,0.184,0.178,0.183
		c1.06-0.007,2.12-0.004,3.18-0.004c0.434,0,0.565,0.14,0.536,0.577c-0.114,1.731-0.959,2.98-2.513,3.734
		c-1.74,0.845-3.991,0.29-5.163-1.251C5.233,8.469,5.231,6.358,6.513,4.751c0.837-1.049,1.96-1.568,3.3-1.609
		c0.284-0.009,0.446,0.165,0.448,0.467C10.266,4.158,10.263,4.708,10.263,5.257z M9.452,5.746c0-0.53-0.007-1.06,0.004-1.59
		C9.46,3.994,9.411,3.967,9.263,3.992C7.61,4.27,6.349,5.762,6.351,7.443c0.002,1.722,1.265,3.195,2.963,3.456
		c1.901,0.292,3.66-0.97,3.992-2.853c0.031-0.174-0.004-0.203-0.169-0.202c-1.054,0.007-2.107,0.005-3.161,0.003
		C9.592,7.845,9.453,7.702,9.452,7.317C9.452,6.793,9.452,6.27,9.452,5.746z"/>
	<path display="inline" fill="#FFFFFF" d="M13.115,6.166c-0.484,0-0.969,0.002-1.453-0.001c-0.327-0.002-0.471-0.146-0.472-0.474
		c-0.002-0.969-0.002-1.938,0-2.906c0.001-0.339,0.15-0.481,0.487-0.474c1.835,0.038,3.319,1.514,3.367,3.35
		c0.01,0.363-0.127,0.503-0.495,0.504C14.071,6.168,13.593,6.166,13.115,6.166z M13.116,5.373c0.323,0,0.646-0.003,0.969,0.002
		c0.103,0.001,0.128-0.02,0.108-0.132c-0.182-1.009-1.058-1.895-2.059-2.079c-0.125-0.023-0.155,0-0.153,0.125
		c0.005,0.64,0.005,1.28,0,1.919c-0.001,0.125,0.037,0.17,0.165,0.167C12.47,5.368,12.793,5.373,13.116,5.373z"/>
</g>
<g id="ppc_5_" display="none">
	<path display="inline" fill="#FFFFFF" d="M0.229,10.037c0-0.051,0-0.102,0-0.153c0.091-0.286,0.3-0.384,0.584-0.377
		c0.272,0.006,0.544,0.001,0.836,0.001C1.79,7.382,2.594,5.556,4.087,4.06c1.493-1.496,3.319-2.299,5.437-2.448
		c0-0.279,0-0.532,0-0.786c0.001-0.386,0.15-0.588,0.437-0.594c0.296-0.006,0.455,0.202,0.455,0.596c0,0.258,0,0.515,0,0.782
		c2.147,0.139,3.981,0.942,5.482,2.442c1.501,1.499,2.304,3.332,2.448,5.462c0.292,0,0.564,0.004,0.836-0.001
		c0.278-0.006,0.479,0.097,0.573,0.371c0,0.064,0,0.127,0,0.191c-0.117,0.269-0.331,0.356-0.612,0.344
		c-0.264-0.011-0.529-0.002-0.799-0.002c-0.147,2.144-0.958,3.973-2.463,5.469c-1.503,1.495-3.34,2.289-5.465,2.426
		c0,0.278,0,0.531,0,0.785c0,0.384-0.152,0.588-0.44,0.592c-0.295,0.004-0.452-0.203-0.453-0.598c0-0.257,0-0.515,0-0.785
		c-2.132-0.15-3.95-0.956-5.439-2.447c-1.493-1.496-2.295-3.323-2.438-5.447c-0.291,0-0.563-0.005-0.835,0.001
		C0.529,10.421,0.319,10.323,0.229,10.037z M17.273,11.531c-2.08,1.901-4.493,2.891-7.284,2.89
		c-2.793-0.002-5.207-0.998-7.278-2.898c0.742,3.533,3.894,5.771,6.813,5.863c0-0.069-0.001-0.137,0-0.205
		c0.002-0.241-0.001-0.483,0.01-0.724c0.008-0.184,0.117-0.308,0.284-0.37c0.161-0.06,0.334-0.044,0.44,0.088
		c0.084,0.105,0.141,0.256,0.152,0.391c0.023,0.275,0.007,0.552,0.007,0.829C13.711,17.271,16.65,14.728,17.273,11.531z
		 M10.014,6.22C8,6.225,6.361,7.868,6.37,9.873c0.009,2.001,1.648,3.635,3.646,3.634c2.008-0.001,3.648-1.647,3.64-3.655
		C13.649,7.845,12.014,6.216,10.014,6.22z M9.524,2.516C7.849,2.637,6.393,3.229,5.141,4.304c-1.188,1.02-1.975,2.294-2.353,3.824
		c2.06-1.838,4.461-2.808,7.216-2.805c2.763,0.003,5.167,0.981,7.224,2.852c-0.818-3.499-4.092-5.623-6.812-5.632
		c0,0.291,0.004,0.582-0.001,0.873c-0.003,0.196-0.099,0.342-0.282,0.415C9.965,3.898,9.786,3.88,9.676,3.742
		C9.593,3.637,9.542,3.484,9.531,3.348C9.509,3.078,9.524,2.805,9.524,2.516z M2.752,9.508c0.196,0,0.36-0.003,0.523,0.001
		C3.357,9.511,3.44,9.518,3.52,9.535c0.213,0.047,0.342,0.208,0.345,0.418c0.004,0.218-0.126,0.395-0.349,0.432
		c-0.19,0.031-0.385,0.029-0.61,0.044c1.059,1.129,2.284,1.955,3.716,2.491C5.09,10.896,5.08,8.88,6.574,6.86
		C5.452,7.167,3.57,8.461,2.752,9.508z M13.461,6.861c1.482,2.032,1.471,4.029-0.034,6.04c1.413-0.547,2.62-1.358,3.669-2.485
		c-0.211,0-0.37,0.009-0.528-0.002c-0.323-0.023-0.514-0.284-0.432-0.578c0.055-0.197,0.236-0.314,0.507-0.32
		c0.191-0.004,0.383-0.001,0.618-0.001C16.185,8.306,14.94,7.439,13.461,6.861z"/>
	<path display="inline" fill="#FFFFFF" d="M11.638,9.963c-0.001,0.91-0.746,1.648-1.653,1.64c-0.901-0.008-1.634-0.747-1.633-1.644
		c0.002-0.905,0.751-1.648,1.656-1.641C10.911,8.326,11.639,9.061,11.638,9.963z M9.994,9.213C9.587,9.215,9.257,9.545,9.253,9.954
		C9.249,10.37,9.586,10.711,10,10.708c0.404-0.002,0.741-0.337,0.746-0.741C10.751,9.559,10.404,9.212,9.994,9.213z"/>
</g>
<g id="cooperation_red_2_" display="none">
	<path display="inline" fill="#E53935" d="M2.885,20c-0.234-0.093-0.322-0.267-0.318-0.517c0.01-0.562,0.002-1.124,0.003-1.685
		c0.001-0.357,0.149-0.504,0.507-0.507c0.335-0.002,0.671,0,1.024,0c0.021-0.265,0.036-0.52,0.063-0.775
		c0.191-1.816,0.731-3.505,1.844-4.98c0.167-0.221,0.355-0.426,0.544-0.629c0.196-0.211,0.441-0.231,0.614-0.065
		c0.175,0.167,0.171,0.404-0.036,0.617c-0.639,0.658-1.101,1.427-1.454,2.267c-0.429,1.021-0.66,2.087-0.736,3.189
		c-0.008,0.116-0.014,0.232-0.022,0.362c0.336,0,0.668,0,1.018,0c0.055-0.458,0.212-0.882,0.488-1.258
		c0.522-0.712,1.234-1.153,2.066-1.39c1.36-0.388,2.681-0.28,3.934,0.41c0.435,0.24,0.801,0.563,1.098,0.963
		c0.138,0.186,0.13,0.374-0.023,0.498c-0.153,0.125-0.348,0.106-0.491-0.081c-0.525-0.688-1.239-1.066-2.065-1.231
		c-1.322-0.264-2.559-0.081-3.622,0.817c-0.427,0.361-0.664,0.825-0.697,1.275c2.8,0,5.6,0,8.41,0
		c-0.028-0.932-0.177-1.832-0.451-2.709c-0.352-1.127-0.873-2.164-1.691-3.032c-0.402-0.427-0.859-0.779-1.389-1.035
		c-0.102-0.049-0.209-0.114-0.278-0.2c-0.158-0.198-0.073-0.458,0.174-0.598c0.252-0.143,0.516-0.27,0.751-0.438
		c0.947-0.676,1.578-1.602,2.049-2.648c0.381-0.846,0.623-1.734,0.744-2.654c0.009-0.07,0.021-0.141,0.041-0.209
		c0.058-0.203,0.243-0.328,0.437-0.3c0.203,0.03,0.358,0.19,0.333,0.406c-0.048,0.403-0.107,0.806-0.197,1.201
		c-0.313,1.383-0.866,2.657-1.771,3.764c-0.391,0.478-0.842,0.89-1.384,1.25c1.2,0.799,1.994,1.908,2.559,3.192
		c0.56,1.272,0.832,2.611,0.88,4.021c0.336,0,0.657,0,0.977,0c0.438,0,0.565,0.126,0.565,0.565c0,0.542-0.007,1.085,0.003,1.627
		c0.005,0.25-0.083,0.423-0.318,0.517C12.341,20,7.613,20,2.885,20z M3.384,19.183c4.399,0,8.787,0,13.186,0
		c0-0.362,0-0.713,0-1.073c-4.399,0-8.787,0-13.186,0C3.384,18.47,3.384,18.821,3.384,19.183z"/>
	<path display="inline" fill="#E53935" d="M17.068,0.159c0.234,0.093,0.322,0.267,0.317,0.517c-0.01,0.549-0.003,1.098-0.003,1.646
		c0,0.411-0.134,0.546-0.545,0.546c-3.887,0-7.773,0-11.66,0c-0.082,0-0.165,0-0.257,0c0.026,0.844,0.147,1.65,0.37,2.441
		C5.637,6.542,6.176,7.675,7.061,8.62c0.41,0.438,0.878,0.797,1.424,1.05C8.673,9.758,8.816,9.883,8.8,10.109
		c-0.021,0.298-0.311,0.447-0.606,0.313c-0.648-0.295-1.214-0.709-1.7-1.227C5.358,7.984,4.703,6.526,4.369,4.92
		C4.242,4.31,4.202,3.682,4.123,3.062C4.116,3.006,4.112,2.949,4.105,2.868c-0.328,0-0.649,0-0.969,0
		c-0.438,0-0.564-0.127-0.564-0.565c0-0.542,0.007-1.085-0.003-1.627c-0.004-0.25,0.083-0.423,0.317-0.517
		C7.613,0.159,12.341,0.159,17.068,0.159z M3.384,2.05c4.399,0,8.787,0,13.186,0c0-0.361,0-0.712,0-1.073c-4.399,0-8.787,0-13.186,0
		C3.384,1.338,3.384,1.689,3.384,2.05z"/>
	<path display="inline" fill="#E53935" d="M9.996,4.302c1.059,0,2.118,0,3.177,0c0.426,0,0.588,0.21,0.476,0.617
		c-0.264,0.966-0.642,1.88-1.268,2.674c-0.496,0.627-1.087,1.122-1.896,1.288C9.562,9.07,8.779,8.769,8.1,8.158
		C7.306,7.443,6.834,6.524,6.491,5.529C6.416,5.31,6.352,5.086,6.293,4.862c-0.09-0.337,0.08-0.559,0.43-0.56
		C7.814,4.301,8.905,4.302,9.996,4.302z M12.768,5.117c-1.876,0-3.706,0-5.561,0C7.258,5.265,7.298,5.399,7.35,5.529
		c0.299,0.756,0.677,1.464,1.282,2.025c0.839,0.779,1.867,0.772,2.704-0.011c0.43-0.402,0.749-0.885,1.002-1.412
		C12.492,5.809,12.618,5.473,12.768,5.117z"/>
	<path display="inline" fill="#E53935" d="M9.986,10.473c-0.218,0.005-0.396-0.163-0.403-0.379C9.576,9.868,9.752,9.686,9.977,9.686
		c0.217,0,0.391,0.172,0.393,0.389C10.373,10.292,10.203,10.469,9.986,10.473z"/>
	<path display="inline" fill="#E53935" d="M9.978,11.429c0.218,0,0.391,0.172,0.393,0.39c0.002,0.225-0.178,0.403-0.404,0.398
		c-0.217-0.005-0.386-0.181-0.383-0.399C9.586,11.599,9.76,11.428,9.978,11.429z"/>
	<path display="inline" fill="#E53935" d="M9.981,13.172c0.219,0.002,0.389,0.174,0.389,0.392c0,0.226-0.181,0.401-0.407,0.394
		c-0.216-0.006-0.384-0.185-0.38-0.403C9.588,13.339,9.762,13.17,9.981,13.172z"/>
</g>
<g id="cooperation_red_1_" display="none">
	<path display="inline" fill="#E53935" d="M22.307,18.261c-0.093,0.091-0.154,0.215-0.303,0.246
		c-0.226,0.048-0.433-0.074-0.471-0.302c-0.038-0.223-0.016-0.449-0.015-0.673c0-0.115-0.039-0.186-0.13-0.256
		c-0.387-0.3-0.799-0.56-1.234-0.782c-0.222-0.113-0.316-0.284-0.312-0.527c0.005-0.276,0.002-0.553,0.001-0.829
		c0-0.105,0.003-0.222,0.082-0.288c0.135-0.112,0.132-0.251,0.129-0.4c-0.004-0.244,0.004-0.489-0.002-0.733
		c-0.01-0.397-0.222-0.581-0.655-0.577c-0.4,0.003-0.604,0.195-0.611,0.58c-0.004,0.225-0.001,0.45-0.001,0.675
		c0.001,0.17-0.028,0.342,0.135,0.474c0.074,0.06,0.069,0.174,0.068,0.272c-0.002,0.283-0.005,0.566,0.001,0.848
		c0.005,0.231-0.092,0.392-0.295,0.497c-0.422,0.219-0.823,0.471-1.205,0.756c-0.129,0.096-0.184,0.195-0.171,0.353
		c0.013,0.153,0.007,0.308,0.002,0.462c-0.009,0.286-0.169,0.47-0.404,0.468c-0.238-0.002-0.393-0.185-0.396-0.474
		c-0.002-0.199,0-0.398,0-0.598c0-0.317,0.133-0.567,0.379-0.764c0.362-0.29,0.748-0.543,1.154-0.765
		c0.095-0.052,0.138-0.11,0.133-0.223c-0.011-0.24-0.067-0.466-0.122-0.7c-0.145-0.624-0.192-1.28,0.05-1.892
		c0.222-0.563,0.797-0.836,1.439-0.771c0.823,0.083,1.29,0.601,1.292,1.433c0.001,0.302-0.001,0.604,0,0.906
		c0.001,0.138-0.012,0.281-0.092,0.388c-0.171,0.227-0.087,0.481-0.108,0.724c-0.007,0.085,0.07,0.098,0.122,0.129
		c0.332,0.195,0.657,0.401,0.97,0.626c0.261,0.188,0.475,0.402,0.57,0.717C22.307,17.593,22.307,17.927,22.307,18.261z"/>
	<path display="inline" fill="#E53935" d="M2.558,17.143c0.291-0.607,0.886-0.858,1.405-1.2c0.086-0.057,0.237-0.069,0.238-0.198
		c0.001-0.195,0.068-0.406-0.042-0.584c-0.12-0.195-0.169-0.4-0.164-0.623c0.007-0.334-0.024-0.669,0.017-1.001
		c0.101-0.802,0.742-1.293,1.566-1.204c0.792,0.086,1.262,0.605,1.266,1.4c0.001,0.302-0.001,0.604,0.001,0.906
		c0.001,0.138-0.01,0.281-0.09,0.388c-0.166,0.221-0.092,0.467-0.111,0.704c-0.008,0.095,0.069,0.113,0.127,0.147
		c0.39,0.225,0.768,0.465,1.122,0.745c0.235,0.186,0.38,0.415,0.387,0.719c0.006,0.231,0.012,0.463,0.003,0.694
		c-0.011,0.263-0.175,0.425-0.405,0.42c-0.229-0.005-0.38-0.173-0.387-0.438c-0.004-0.154-0.011-0.309,0.002-0.463
		c0.013-0.165-0.045-0.272-0.179-0.371c-0.373-0.276-0.762-0.523-1.174-0.734c-0.212-0.109-0.309-0.273-0.303-0.512
		c0.007-0.283,0.003-0.566,0.001-0.848c-0.001-0.092-0.001-0.199,0.066-0.254c0.162-0.133,0.131-0.306,0.132-0.476
		c0.001-0.238,0.004-0.476-0.002-0.713c-0.008-0.289-0.208-0.496-0.497-0.511c-0.159-0.008-0.322-0.022-0.471,0.061
		c-0.181,0.101-0.261,0.259-0.262,0.46c-0.002,0.302,0,0.604-0.001,0.906c0,0.059-0.002,0.119,0.048,0.16
		c0.145,0.12,0.16,0.283,0.158,0.455c-0.003,0.251-0.005,0.501,0,0.752c0.006,0.244-0.091,0.414-0.313,0.526
		c-0.424,0.215-0.824,0.47-1.203,0.76c-0.099,0.075-0.14,0.153-0.134,0.274c0.008,0.16,0.004,0.321,0.001,0.482
		c-0.004,0.25-0.092,0.405-0.272,0.462c-0.206,0.065-0.363-0.009-0.481-0.184c-0.009-0.014-0.032-0.018-0.048-0.027
		C2.558,17.863,2.558,17.503,2.558,17.143z"/>
	<path display="inline" fill="#E53935" d="M8.693,9.544c1.054,0,2.108-0.003,3.163,0.003c0.15,0.001,0.199-0.036,0.192-0.19
		c-0.013-0.282-0.007-0.566-0.003-0.848c0.004-0.269,0.151-0.433,0.385-0.438c0.235-0.006,0.398,0.144,0.412,0.413
		c0.015,0.276,0.02,0.554,0,0.829c-0.015,0.206,0.06,0.237,0.246,0.237c2.051-0.007,4.101-0.004,6.152-0.004
		c0.45,0,0.566,0.117,0.566,0.573c0,0.437,0,0.874-0.002,1.311c-0.001,0.171-0.085,0.295-0.24,0.362
		c-0.141,0.061-0.277,0.04-0.399-0.055c-0.111-0.086-0.146-0.206-0.146-0.341c0-0.296-0.006-0.592,0.002-0.887
		c0.003-0.127-0.038-0.163-0.164-0.163c-1.948,0.004-3.896,0.004-5.843,0c-0.142,0-0.171,0.051-0.167,0.179
		c0.008,0.276,0.006,0.553,0.001,0.829c-0.005,0.251-0.117,0.411-0.307,0.458c-0.252,0.062-0.485-0.119-0.492-0.398
		c-0.009-0.302-0.008-0.604,0-0.906c0.004-0.129-0.039-0.161-0.164-0.161c-1.961,0.004-3.921,0.004-5.882-0.001
		c-0.143,0-0.17,0.051-0.166,0.178c0.008,0.283,0.005,0.566,0.002,0.848c-0.003,0.27-0.146,0.437-0.376,0.449
		c-0.233,0.012-0.414-0.155-0.421-0.427c-0.012-0.469-0.013-0.939,0.001-1.408C5.05,9.679,5.213,9.545,5.531,9.544
		C6.585,9.543,7.639,9.544,8.693,9.544z"/>
	<path display="inline" fill="#E53935" d="M14.017,3.339c0,0.218,0,0.437,0,0.655c0,0.145-0.03,0.288-0.116,0.401
		c-0.203,0.267-0.083,0.57-0.111,0.856c-0.008,0.08,0.077,0.095,0.129,0.125c0.454,0.255,0.89,0.535,1.304,0.853
		c0.307,0.236,0.474,0.529,0.46,0.923c-0.008,0.231,0.004,0.463-0.004,0.694c-0.008,0.244-0.175,0.414-0.392,0.415
		c-0.217,0.001-0.385-0.167-0.394-0.413c-0.009-0.231-0.006-0.463-0.003-0.694c0.002-0.119-0.042-0.203-0.138-0.277
		c-0.448-0.347-0.918-0.66-1.424-0.913c-0.235-0.118-0.345-0.289-0.341-0.549c0.005-0.315,0.002-0.63,0.001-0.945
		c0-0.153,0.025-0.296,0.156-0.396c0.077-0.059,0.08-0.14,0.08-0.225c-0.001-0.334,0.004-0.668-0.001-1.003
		C13.215,2.385,12.96,2.156,12.5,2.13c-0.619-0.034-0.87,0.352-0.838,0.841c0.019,0.294,0.004,0.591,0.003,0.887
		c0,0.079-0.002,0.157,0.067,0.211c0.142,0.11,0.171,0.259,0.168,0.428c-0.006,0.315-0.009,0.63,0.001,0.945
		c0.007,0.241-0.094,0.403-0.304,0.511c-0.504,0.258-0.98,0.559-1.43,0.904C10.049,6.947,9.991,7.043,10,7.195
		c0.011,0.211,0.007,0.424,0.002,0.636C9.994,8.082,9.844,8.249,9.623,8.264C9.414,8.278,9.22,8.114,9.208,7.872
		c-0.016-0.333-0.036-0.669,0.021-1c0.044-0.252,0.192-0.442,0.389-0.6c0.422-0.338,0.874-0.631,1.349-0.889
		c0.104-0.057,0.15-0.123,0.139-0.242c-0.009-0.102-0.007-0.206-0.001-0.308c0.01-0.158-0.012-0.301-0.113-0.433
		c-0.073-0.097-0.105-0.219-0.111-0.343c-0.023-0.443-0.015-0.886-0.004-1.329c0.018-0.712,0.589-1.325,1.363-1.393
		c0.733-0.064,1.316,0.214,1.628,0.814c0.106,0.204,0.149,0.422,0.151,0.65c0.001,0.18,0,0.36,0,0.54L14.017,3.339z"/>
	<path display="inline" fill="#E53935" d="M13.853,14.209c-0.014,0.251,0.069,0.561-0.086,0.816
		c-0.128,0.212-0.114,0.423-0.129,0.644c-0.01,0.139,0.049,0.209,0.161,0.27c0.385,0.208,0.745,0.453,1.092,0.719
		c0.249,0.191,0.404,0.429,0.415,0.746c0.008,0.231,0.013,0.463,0.002,0.694c-0.012,0.259-0.185,0.43-0.404,0.426
		c-0.226-0.005-0.378-0.177-0.388-0.441c-0.002-0.064-0.011-0.131,0.001-0.192c0.08-0.395-0.094-0.644-0.426-0.842
		c-0.308-0.184-0.605-0.387-0.926-0.55c-0.227-0.116-0.328-0.286-0.318-0.541c0.011-0.282,0.003-0.565,0.002-0.848
		c0-0.099,0.004-0.204,0.081-0.268c0.12-0.1,0.124-0.224,0.121-0.361c-0.005-0.263,0.002-0.527-0.003-0.79
		c-0.006-0.345-0.217-0.543-0.581-0.551c-0.43-0.01-0.669,0.166-0.684,0.527c-0.013,0.314-0.003,0.63-0.004,0.945
		c0,0.053,0,0.106,0.045,0.141c0.156,0.121,0.169,0.292,0.167,0.47c-0.002,0.231-0.008,0.463,0.001,0.694
		c0.011,0.28-0.089,0.476-0.351,0.603c-0.428,0.208-0.822,0.473-1.201,0.762c-0.092,0.07-0.132,0.143-0.128,0.258
		c0.007,0.192,0.007,0.386-0.001,0.578c-0.01,0.241-0.182,0.411-0.399,0.408c-0.209-0.003-0.376-0.164-0.388-0.399
		c-0.012-0.237-0.006-0.475-0.002-0.713c0.005-0.311,0.151-0.547,0.392-0.737c0.349-0.275,0.715-0.524,1.106-0.732
		c0.121-0.065,0.176-0.138,0.17-0.283c-0.009-0.223-0.074-0.427-0.125-0.641c-0.156-0.644-0.204-1.317,0.064-1.945
		c0.23-0.54,0.794-0.8,1.421-0.738c0.817,0.082,1.294,0.608,1.298,1.432C13.854,13.904,13.853,14.038,13.853,14.209z"/>
</g>
<g id="cooperation_red" display="none">
	<path display="inline" fill="#E53935" d="M2.542,14.086c0.382-0.739,1.116-1.062,1.754-1.503c0.249-0.172,0.681-0.187,0.62-0.668
		c-0.04-0.311-0.065-0.613-0.144-0.928C4.527,10.017,4.396,8.999,4.93,8.075c0.397-0.688,1.343-0.932,2.203-0.669
		c0.748,0.228,1.2,0.852,1.212,1.686c0.007,0.438-0.003,0.875,0.003,1.313c0.003,0.238-0.054,0.449-0.178,0.657
		c-0.308,0.515-0.139,1.166,0.368,1.45c0.484,0.271,0.935,0.588,1.375,0.924c0.354,0.271,0.528,0.617,0.513,1.063
		c-0.009,0.283,0.004,0.567-0.005,0.85c-0.008,0.258-0.153,0.422-0.408,0.417c-0.235-0.004-0.369-0.161-0.38-0.404
		c-0.004-0.09-0.018-0.183-0.001-0.27c0.131-0.681-0.18-1.118-0.754-1.434c-0.416-0.229-0.812-0.494-1.228-0.724
		c-0.279-0.154-0.41-0.365-0.397-0.686c0.014-0.347,0.007-0.695,0.001-1.043C7.25,11.018,7.3,10.865,7.421,10.711
		c0.271-0.344,0.178-1.983-0.127-2.289C6.932,8.06,6.479,8.065,6.031,8.193C5.624,8.309,5.436,8.637,5.415,9.037
		c-0.025,0.462-0.008,0.927-0.008,1.39c0,0.05-0.003,0.118,0.026,0.149c0.502,0.543,0.206,1.206,0.269,1.812
		c0.028,0.274-0.178,0.433-0.408,0.554c-0.58,0.307-1.133,0.656-1.659,1.052c-0.221,0.166-0.318,0.351-0.3,0.619
		C3.346,14.806,3.337,15,3.336,15.193c-0.001,0.208,0.005,0.413-0.222,0.533c-0.254,0.134-0.401-0.051-0.573-0.171
		C2.542,15.065,2.542,14.576,2.542,14.086z"/>
	<path display="inline" fill="#E53935" d="M20.246,9.705c-0.015,0.54,0.055,1.045-0.25,1.526c-0.124,0.196-0.036,0.526-0.045,0.795
		c-0.012,0.372,0.335,0.383,0.543,0.513c0.458,0.287,0.908,0.584,1.334,0.917c0.327,0.255,0.497,0.58,0.494,0.996
		c-0.003,0.296,0.003,0.592-0.003,0.888c-0.005,0.258-0.146,0.426-0.401,0.425c-0.259-0.001-0.384-0.177-0.389-0.434
		c-0.001-0.064-0.012-0.131,0-0.193c0.147-0.731-0.198-1.189-0.811-1.519c-0.395-0.213-0.769-0.466-1.164-0.681
		c-0.28-0.153-0.412-0.364-0.401-0.683c0.012-0.347-0.002-0.695,0.005-1.043c0.002-0.113-0.002-0.25,0.056-0.336
		c0.455-0.664,0.234-1.387,0.167-2.082c-0.039-0.411-0.409-0.637-0.874-0.664c-0.56-0.032-1.005,0.166-1.116,0.565
		c-0.169,0.603-0.25,1.305-0.023,1.821c0.255,0.579,0.181,1.117,0.237,1.676c0.036,0.365-0.117,0.607-0.445,0.772
		c-0.575,0.29-1.111,0.643-1.627,1.03c-0.221,0.166-0.317,0.35-0.302,0.619c0.013,0.244,0.005,0.489-0.001,0.734
		c-0.006,0.26-0.144,0.424-0.402,0.418c-0.235-0.005-0.379-0.161-0.384-0.401c-0.008-0.373-0.017-0.748,0.01-1.119
		c0.025-0.337,0.22-0.591,0.486-0.799c0.507-0.398,1.039-0.758,1.61-1.057c0.197-0.103,0.279-0.229,0.265-0.454
		c-0.022-0.355,0.045-0.717-0.21-1.03c-0.106-0.131-0.088-0.318-0.088-0.486c0-0.438-0.006-0.875,0.001-1.313
		c0.016-1.033,0.659-1.703,1.696-1.772c1.01-0.068,1.779,0.44,1.989,1.327C20.287,9.014,20.231,9.378,20.246,9.705z"/>
	<path display="inline" fill="#E53935" d="M6.437,17.479c0,0.26,0.011,0.466-0.003,0.669c-0.016,0.245-0.126,0.428-0.402,0.42
		c-0.268-0.008-0.389-0.183-0.394-0.432c-0.01-0.541-0.011-1.081-0.01-1.622c0-0.26,0.135-0.415,0.399-0.423
		c0.54-0.016,1.081-0.031,1.621-0.028c0.254,0.001,0.467,0.105,0.456,0.407c-0.01,0.291-0.21,0.39-0.472,0.395
		c-0.178,0.003-0.356,0.001-0.604,0.001c0.571,0.581,1.186,0.988,1.852,1.309c2.969,1.431,6.329,0.914,8.736-1.331
		c0.066-0.061,0.131-0.125,0.201-0.18c0.194-0.151,0.406-0.195,0.59-0.006c0.203,0.209,0.138,0.418-0.055,0.607
		c-1.477,1.45-3.236,2.297-5.307,2.468c-2.449,0.203-4.59-0.525-6.436-2.141C6.573,17.561,6.528,17.539,6.437,17.479z"/>
	<path display="inline" fill="#E53935" d="M18.162,4.989c0-0.277-0.011-0.479,0.003-0.68c0.017-0.247,0.139-0.42,0.406-0.424
		c0.254-0.004,0.384,0.17,0.393,0.393c0.022,0.566,0.028,1.133,0.015,1.698c-0.006,0.229-0.157,0.381-0.403,0.385
		c-0.553,0.01-1.107,0.015-1.661,0.016c-0.261,0.001-0.424-0.142-0.423-0.398c0.002-0.237,0.161-0.374,0.4-0.386
		c0.2-0.01,0.4-0.002,0.7-0.002c-0.797-0.767-1.63-1.291-2.569-1.61C12.007,2.955,9.3,3.499,6.932,5.649
		C6.884,5.692,6.84,5.739,6.791,5.781c-0.19,0.163-0.4,0.207-0.587,0.022c-0.206-0.204-0.143-0.426,0.045-0.61
		c0.61-0.598,1.277-1.123,2.039-1.512c3.279-1.671,6.833-1.251,9.649,1.128C17.986,4.85,18.037,4.889,18.162,4.989z"/>
</g>
<g id="smm_red" display="none">
	<path display="inline" fill="#E53935" d="M2.651,12.483c0.165-0.334,0.259-0.695,0.38-1.045c0.575-1.664,1.144-3.332,1.715-4.997
		c0.13-0.378,0.313-0.465,0.695-0.33c0.909,0.321,1.82,0.636,2.726,0.966c0.419,0.153,0.815,0.14,1.209-0.07
		c0.576-0.308,1.17-0.344,1.789-0.128c1.559,0.545,3.122,1.08,4.683,1.62c0.383,0.133,0.462,0.291,0.385,0.69
		c-0.089,0.457-0.26,0.867-0.649,1.146c-0.447,0.321-0.943,0.309-1.441,0.153c-0.527-0.165-1.048-0.351-1.572-0.529
		c-0.262-0.089-0.257-0.087-0.38,0.154c-0.416,0.818-1.031,1.406-1.937,1.646c-0.718,0.19-1.417,0.082-2.104-0.154
		c-0.224-0.077-0.328-0.293-0.267-0.491c0.068-0.22,0.275-0.329,0.525-0.259c0.316,0.089,0.633,0.177,0.962,0.192
		c0.964,0.046,1.626-0.424,2.08-1.237c0.088-0.157,0.156-0.324,0.216-0.494c0.113-0.324,0.306-0.415,0.633-0.305
		c0.694,0.233,1.388,0.47,2.082,0.704c0.148,0.05,0.3,0.074,0.456,0.061c0.268-0.022,0.517-0.255,0.562-0.511
		c0.02-0.118-0.073-0.107-0.129-0.127c-0.643-0.225-1.288-0.446-1.932-0.668c-0.802-0.276-1.607-0.546-2.406-0.831
		c-0.414-0.148-0.803-0.13-1.19,0.077C9.224,7.992,8.678,8.057,8.117,7.881c-0.153-0.048-0.196-0.005-0.242,0.13
		c-0.617,1.813-1.239,3.625-1.859,5.437c-0.148,0.432-0.308,0.508-0.741,0.358c-0.741-0.256-1.482-0.513-2.226-0.762
		c-0.18-0.06-0.321-0.152-0.398-0.33C2.651,12.637,2.651,12.56,2.651,12.483z M5.272,12.953c0.101,0.004,0.094-0.082,0.112-0.135
		c0.587-1.707,1.17-3.416,1.759-5.122c0.039-0.114,0.02-0.157-0.091-0.194c-0.5-0.166-0.999-0.334-1.495-0.512
		c-0.121-0.044-0.152-0.003-0.187,0.1c-0.582,1.709-1.167,3.417-1.754,5.124c-0.038,0.11-0.043,0.166,0.091,0.209
		c0.495,0.159,0.986,0.334,1.478,0.502C5.215,12.935,5.246,12.944,5.272,12.953z"/>
	<path display="inline" fill="#E53935" d="M6.741,15.919c-0.007-0.181,0.044-0.373,0.152-0.545c0.051-0.081,0.045-0.125-0.021-0.195
		c-0.59-0.619-0.454-1.495,0.304-1.892c0.558-0.292,1.128-0.56,1.695-0.833c0.246-0.118,0.481-0.043,0.578,0.168
		c0.098,0.214,0.01,0.429-0.24,0.553c-0.524,0.26-1.05,0.515-1.575,0.77c-0.081,0.04-0.166,0.077-0.225,0.146
		c-0.106,0.124-0.126,0.268-0.054,0.413c0.073,0.147,0.204,0.208,0.366,0.196c0.091-0.007,0.171-0.05,0.253-0.09
		c1.01-0.495,2.02-0.988,3.03-1.481c0.075-0.036,0.151-0.075,0.231-0.095c0.174-0.045,0.356,0.044,0.438,0.204
		c0.081,0.157,0.044,0.357-0.096,0.471c-0.064,0.052-0.139,0.092-0.214,0.129c-1.159,0.569-2.319,1.137-3.479,1.705
		c-0.306,0.15-0.416,0.352-0.31,0.566c0.11,0.221,0.326,0.257,0.637,0.104c1.287-0.629,2.574-1.258,3.862-1.887
		c0.023-0.011,0.046-0.023,0.07-0.033c0.269-0.124,0.488-0.069,0.597,0.148c0.111,0.222,0.016,0.437-0.261,0.573
		c-0.911,0.447-1.824,0.892-2.735,1.338c-0.265,0.13-0.532,0.257-0.796,0.389c-0.249,0.125-0.336,0.33-0.233,0.533
		c0.103,0.204,0.316,0.259,0.565,0.137c1.189-0.58,2.378-1.163,3.567-1.744c0.328-0.161,0.55-0.123,0.669,0.112
		c0.122,0.241,0.015,0.442-0.326,0.609c-0.773,0.378-1.547,0.757-2.32,1.134c-0.157,0.076-0.29,0.17-0.299,0.366
		c-0.012,0.254,0.214,0.439,0.46,0.373c0.043-0.012,0.086-0.027,0.126-0.047c1.675-0.831,3.372-1.617,5.027-2.487
		c0.877-0.461,1.649-1.071,2.373-1.745c0.156-0.145,0.305-0.298,0.472-0.429c0.123-0.096,0.115-0.175,0.052-0.304
		c-0.868-1.764-1.73-3.53-2.596-5.295c-0.046-0.093-0.097-0.188-0.098-0.289c-0.003-0.186,0.101-0.313,0.264-0.393
		c0.767-0.376,1.533-0.754,2.303-1.126c0.288-0.139,0.483-0.058,0.635,0.254c0.798,1.634,1.594,3.268,2.391,4.902
		c0.124,0.254,0.249,0.507,0.372,0.762c0.162,0.337,0.099,0.525-0.234,0.688c-0.686,0.337-1.373,0.673-2.061,1.006
		c-0.129,0.062-0.242,0.142-0.347,0.239c-0.645,0.592-1.281,1.193-1.995,1.706c-0.74,0.532-1.546,0.942-2.361,1.34
		c-1.276,0.623-2.551,1.248-3.825,1.874c-0.461,0.227-0.904,0.222-1.323-0.095c-0.202-0.152-0.342-0.355-0.396-0.6
		c-0.033-0.148-0.077-0.149-0.2-0.091c-0.63,0.299-1.261,0.116-1.585-0.452c-0.068-0.118-0.117-0.246-0.127-0.381
		c-0.009-0.134-0.059-0.191-0.2-0.215C7.128,16.988,6.741,16.514,6.741,15.919z M19.861,12.968c0.038-0.018,0.073-0.034,0.107-0.051
		c0.473-0.232,0.943-0.468,1.42-0.692c0.111-0.052,0.114-0.094,0.062-0.195c-0.257-0.511-0.504-1.026-0.755-1.539
		c-0.542-1.107-1.084-2.215-1.625-3.322c-0.042-0.086-0.062-0.173-0.204-0.099c-0.473,0.245-0.954,0.475-1.435,0.704
		c-0.105,0.05-0.105,0.099-0.058,0.191c0.121,0.234,0.233,0.472,0.349,0.708c0.677,1.384,1.354,2.768,2.033,4.152
		C19.781,12.877,19.784,12.951,19.861,12.968z"/>
</g>
<g id="smm_red_1_" display="none">
	<path display="inline" fill="#E53935" d="M2.621,22.116c0.342-0.473,0.505-1.043,0.816-1.53c0.901-1.41,1.174-2.929,1.105-4.6
		c-0.1-2.416-0.026-4.839-0.025-7.259c0-0.562,0.097-0.658,0.671-0.658c4.815-0.001,9.629-0.001,14.444,0
		c0.592,0,0.687,0.094,0.687,0.688c0.001,3.082,0.002,6.165-0.003,9.247c0,0.274,0.051,0.519,0.176,0.767
		c0.523,1.031,1.027,2.072,1.542,3.107c0.042,0.084,0.044,0.2,0.159,0.237c0,0.127,0,0.255,0,0.382
		c-0.202,0.169-0.433,0.213-0.696,0.213c-6.06-0.006-12.119-0.006-18.179,0c-0.263,0-0.492-0.051-0.696-0.213
		C2.621,22.371,2.621,22.244,2.621,22.116z M12.407,18.112c2.255,0,4.511-0.006,6.766,0.007c0.285,0.002,0.36-0.068,0.359-0.356
		c-0.012-2.854-0.011-5.708,0-8.562c0.001-0.279-0.088-0.327-0.344-0.327c-4.511,0.008-9.021,0.008-13.532-0.001
		C5.378,8.872,5.293,8.927,5.294,9.223c0.013,2.841,0.013,5.683,0,8.524c-0.001,0.314,0.099,0.372,0.385,0.37
		C7.922,18.107,10.164,18.112,12.407,18.112z M21.15,21.898c-0.46-0.936-0.902-1.82-1.325-2.712
		c-0.102-0.214-0.222-0.288-0.461-0.287c-2.013,0.01-4.026,0.006-6.038,0.006c-2.612,0-5.223-0.001-7.835,0.003
		c-0.14,0-0.307-0.068-0.401,0.123c-0.464,0.942-0.932,1.883-1.42,2.867c0.178,0,0.302,0,0.426,0c1.338,0,2.678-0.054,4.012,0.021
		c0.759,0.043,1.217-0.159,1.425-0.899c0.104-0.369,0.378-0.49,0.761-0.484c1.185,0.017,2.369,0.001,3.554,0.008
		c1.44,0.008,1.117-0.159,1.727,1.068c0.116,0.233,0.248,0.295,0.494,0.293c1.567-0.011,3.134-0.006,4.701-0.006
		C20.878,21.898,20.988,21.898,21.15,21.898z M12.391,21.749c0.687,0,1.374,0.003,2.061-0.004c0.084-0.001,0.239,0.07,0.241-0.085
		c0.001-0.114-0.05-0.256-0.189-0.301c-0.07-0.023-0.151-0.013-0.227-0.013c-1.247-0.001-2.494,0-3.741,0
		c-0.064,0-0.129-0.008-0.19,0.004c-0.169,0.034-0.221,0.19-0.221,0.315c0,0.149,0.158,0.08,0.243,0.08
		C11.042,21.752,11.716,21.749,12.391,21.749z"/>
	<path display="inline" fill="#E53935" d="M12.056,15.08c0.268,0,0.536,0.013,0.802-0.003c0.348-0.022,0.611-0.272,0.598-0.578
		c-0.014-0.331-0.192-0.562-0.531-0.599c-0.315-0.034-0.635-0.019-0.953-0.029c-0.76-0.022-1.345-0.543-1.4-1.244
		c-0.06-0.771,0.415-1.387,1.196-1.51c0.196-0.031,0.269-0.09,0.252-0.282c-0.01-0.113-0.008-0.23,0.007-0.343
		c0.029-0.223,0.178-0.347,0.39-0.343c0.211,0.005,0.343,0.134,0.38,0.358c0.032,0.192-0.104,0.452,0.093,0.562
		c0.147,0.083,0.373,0.03,0.563,0.029c0.276-0.002,0.492,0.077,0.487,0.398c-0.005,0.322-0.23,0.387-0.501,0.385
		c-0.446-0.003-0.892-0.007-1.338,0.001c-0.457,0.009-0.74,0.246-0.74,0.603c0,0.359,0.286,0.596,0.737,0.605
		c0.28,0.006,0.561-0.006,0.841,0.007c0.694,0.033,1.26,0.586,1.304,1.262c0.047,0.726-0.405,1.373-1.102,1.471
		c-0.323,0.046-0.367,0.183-0.347,0.444c0.022,0.278-0.039,0.543-0.372,0.554c-0.36,0.011-0.436-0.262-0.405-0.556
		c0.033-0.315-0.074-0.451-0.399-0.406c-0.125,0.017-0.254,0.003-0.382-0.001c-0.243-0.007-0.395-0.145-0.399-0.376
		c-0.004-0.251,0.155-0.397,0.414-0.403c0.267-0.006,0.535-0.001,0.803-0.001L12.056,15.08z"/>
</g>
<g id="smm_red_2_" display="none">
	<path display="inline" fill="#E53935" d="M13.026,7.982c0.163,0.078,0.344,0.069,0.517,0.101c2.48,0.463,4.278,1.842,5.255,4.152
		c1.012,2.392,0.719,4.708-0.803,6.827c-1.032,1.437-2.447,2.346-4.177,2.686c-2.302,0.452-4.361-0.113-6.111-1.693
		c-1.126-1.016-1.845-2.285-2.12-3.775c-0.413-2.242,0.132-4.243,1.639-5.963c0.996-1.136,2.252-1.845,3.722-2.177
		c0.22-0.05,0.445-0.075,0.667-0.113c0.035-0.006,0.081,0.006,0.095-0.045C12.148,7.982,12.587,7.982,13.026,7.982z M18.564,14.986
		c-0.02-1.509-0.486-2.837-1.405-3.947c-0.941-1.137-2.142-1.86-3.597-2.139c-1.412-0.27-2.764-0.072-4.03,0.603
		c-1.34,0.715-2.3,1.788-2.858,3.206c-0.403,1.024-0.518,2.083-0.349,3.171c0.177,1.142,0.645,2.151,1.386,3.036
		c0.048,0.057,0.091,0.079,0.165,0.056c0.589-0.189,1.172-0.394,1.705-0.715c0.322-0.194,0.622-0.415,0.824-0.745
		c0.051-0.082,0.056-0.14-0.021-0.215c-0.372-0.364-0.612-0.809-0.77-1.301c-0.279-0.868-0.306-1.756-0.237-2.658
		c0.126-1.639,1.255-2.74,2.893-2.79c1.442-0.044,2.549,0.754,2.925,2.147c0.233,0.866,0.208,1.749,0.057,2.629
		c-0.123,0.718-0.378,1.378-0.886,1.918c-0.066,0.07-0.042,0.127-0.011,0.189c0.098,0.2,0.242,0.364,0.413,0.505
		c0.637,0.521,1.391,0.796,2.161,1.04c0.097,0.031,0.14-0.022,0.191-0.084C18.077,17.734,18.552,16.403,18.564,14.986z
		 M10.138,14.069c0.002,0.658,0.076,1.263,0.296,1.842c0.339,0.892,0.987,1.341,1.935,1.35c0.891,0.009,1.563-0.462,1.896-1.345
		c0.316-0.84,0.346-1.71,0.246-2.591c-0.049-0.435-0.171-0.849-0.447-1.197c-0.553-0.697-1.305-0.854-2.136-0.735
		c-0.806,0.115-1.346,0.57-1.613,1.343C10.163,13.182,10.158,13.647,10.138,14.069z M8.449,19.635
		c2.275,1.989,5.788,1.893,7.905-0.005c-0.366-0.127-0.722-0.256-1.06-0.427c-0.638-0.322-1.243-0.687-1.612-1.333
		c-0.044-0.077-0.092-0.068-0.158-0.042c-0.749,0.3-1.504,0.311-2.262,0.037c-0.093-0.033-0.137-0.01-0.182,0.073
		c-0.078,0.141-0.181,0.266-0.293,0.383c-0.372,0.387-0.822,0.658-1.298,0.892C9.155,19.378,8.804,19.5,8.449,19.635z"/>
	<path display="inline" fill="#E53935" d="M12.428,24.2c1.626,0,3.251,0,4.877,0c0.084,0,0.169-0.002,0.251,0.01
		c0.196,0.03,0.325,0.196,0.319,0.398c-0.005,0.194-0.135,0.345-0.326,0.372c-0.076,0.011-0.154,0.01-0.232,0.01
		c-3.277,0-6.554,0-9.831,0c-0.371,0-0.548-0.126-0.552-0.39C6.93,24.329,7.109,24.2,7.493,24.2C9.138,24.2,10.783,24.2,12.428,24.2
		z"/>
	<path display="inline" fill="#E53935" d="M12.397,27.809c-1.065,0-2.13,0.001-3.195-0.001c-0.317,0-0.494-0.159-0.48-0.425
		c0.01-0.183,0.107-0.301,0.28-0.35c0.079-0.022,0.165-0.03,0.248-0.03c2.104-0.002,4.208-0.002,6.312-0.001
		c0.344,0,0.528,0.141,0.53,0.4c0.002,0.242-0.168,0.403-0.443,0.405c-0.516,0.004-1.033,0.001-1.549,0.001
		C13.533,27.809,12.965,27.809,12.397,27.809z"/>
</g>
<g id="Слой_34" display="none">
	<path display="inline" fill="#0D8497" d="M5.648,13.687c0.067-0.209,0.196-0.323,0.429-0.331c0.176-0.006,0.265-0.137,0.293-0.301
		c0.015-0.087,0.013-0.177,0.014-0.266c0.001-0.616-0.002-1.231,0.001-1.847c0.002-0.361,0.152-0.52,0.504-0.52
		c2.101-0.002,4.202-0.005,6.303,0.002c0.6,0.002,1.179,0.107,1.638,0.543c0.132,0.126,0.239,0.279,0.359,0.418
		c0.142,0.166,0.264,0.183,0.387,0.005c0.498-0.719,1.242-0.927,2.043-0.938c2.1-0.03,4.201-0.024,6.302-0.029
		c0.338-0.001,0.492,0.164,0.494,0.511c0.003,0.622,0.001,1.244,0.001,1.866c0,0.426,0.047,0.487,0.457,0.576
		c0.158,0.034,0.242,0.132,0.268,0.282c0.013,0.074,0.009,0.152,0.009,0.228c0,3.243,0,6.487,0,9.73
		c0,0.457-0.148,0.607-0.601,0.607c-1.917,0.001-3.834,0-5.751,0c-0.612,0-1.215,0.056-1.794,0.278
		c-0.44,0.169-0.826,0.409-1.133,0.775c-0.317,0.378-0.617,0.37-0.927-0.003c-0.372-0.447-0.875-0.68-1.417-0.843
		c-0.565-0.17-1.147-0.206-1.732-0.206c-1.853-0.001-3.707-0.002-5.56,0.002c-0.281,0.001-0.496-0.08-0.589-0.368
		C5.648,20.468,5.648,17.078,5.648,13.687z M7.292,16.945c0,1.676,0,3.352,0,5.028c0,0.038,0,0.076,0,0.114
		c0.002,0.367,0.122,0.486,0.493,0.487c0.413,0.001,0.825-0.002,1.238,0.001c1.377,0.007,2.755-0.006,4.131,0.033
		c0.787,0.022,1.508,0.267,2.04,0.905c0.142,0.17,0.328,0.169,0.45,0.001c0.276-0.379,0.67-0.571,1.094-0.72
		c0.51-0.179,1.042-0.216,1.576-0.218c1.568-0.005,3.136-0.001,4.704-0.002c0.362,0,0.487-0.122,0.487-0.474
		c0.001-3.447,0.001-6.894,0-10.341c0-0.339-0.133-0.47-0.476-0.47c-1.682-0.001-3.365-0.009-5.047,0.007
		c-0.317,0.003-0.651,0.055-0.947,0.166c-0.681,0.255-0.98,0.826-1.098,1.507c-0.03,0.174-0.042,0.353-0.042,0.53
		c-0.003,2.463-0.001,4.926-0.002,7.389c0,0.437-0.148,0.592-0.54,0.576c-0.208-0.008-0.35-0.106-0.401-0.313
		c-0.036-0.146-0.048-0.301-0.048-0.452c-0.003-2.355-0.002-4.71-0.002-7.065c0-0.939-0.452-1.586-1.289-1.978
		c-0.647-0.303-1.341-0.365-2.043-0.367c-1.251-0.003-2.501-0.001-3.752-0.001c-0.419,0-0.528,0.11-0.528,0.533
		C7.292,13.529,7.292,15.237,7.292,16.945z"/>
</g>
<g id="Слой_35" display="none">
	<path display="inline" fill="#0D8497" d="M15.813,11.083c0.146,0.07,0.307,0.062,0.461,0.09c2.214,0.413,3.819,1.644,4.691,3.706
		c0.903,2.136,0.642,4.203-0.717,6.094c-0.921,1.282-2.185,2.094-3.728,2.397c-2.055,0.404-3.893-0.101-5.455-1.511
		c-1.005-0.907-1.647-2.04-1.892-3.37c-0.369-2.002,0.118-3.788,1.463-5.323c0.889-1.014,2.01-1.647,3.323-1.943
		c0.196-0.044,0.397-0.067,0.595-0.101c0.031-0.005,0.072,0.006,0.085-0.04C15.03,11.083,15.422,11.083,15.813,11.083z
		 M20.757,17.335c-0.018-1.347-0.434-2.533-1.254-3.523c-0.84-1.015-1.912-1.661-3.211-1.909c-1.26-0.241-2.468-0.064-3.598,0.538
		c-1.196,0.638-2.053,1.596-2.551,2.862c-0.359,0.914-0.462,1.859-0.312,2.83c0.158,1.02,0.575,1.92,1.237,2.71
		c0.043,0.051,0.082,0.071,0.147,0.05c0.526-0.169,1.046-0.352,1.522-0.638c0.287-0.173,0.555-0.37,0.736-0.665
		c0.045-0.074,0.05-0.125-0.019-0.192c-0.332-0.325-0.546-0.722-0.687-1.161c-0.249-0.775-0.273-1.567-0.211-2.373
		c0.113-1.463,1.121-2.446,2.583-2.491c1.288-0.039,2.276,0.673,2.611,1.917c0.208,0.773,0.185,1.561,0.051,2.346
		c-0.11,0.641-0.337,1.23-0.79,1.712c-0.059,0.063-0.037,0.113-0.01,0.169c0.087,0.179,0.216,0.325,0.369,0.45
		c0.568,0.465,1.242,0.71,1.929,0.929c0.086,0.027,0.125-0.019,0.171-0.075C20.323,19.788,20.746,18.6,20.757,17.335z
		 M13.236,16.516c0.002,0.587,0.068,1.128,0.264,1.644c0.303,0.797,0.881,1.197,1.728,1.205c0.795,0.008,1.395-0.412,1.693-1.201
		c0.282-0.749,0.309-1.527,0.22-2.313c-0.044-0.389-0.152-0.758-0.399-1.068c-0.494-0.622-1.165-0.762-1.907-0.657
		c-0.719,0.102-1.202,0.509-1.44,1.199C13.257,15.724,13.253,16.14,13.236,16.516z M11.728,21.485
		c2.031,1.776,5.167,1.69,7.056-0.004c-0.327-0.113-0.644-0.229-0.946-0.381c-0.569-0.287-1.109-0.613-1.439-1.19
		c-0.039-0.069-0.082-0.061-0.141-0.037c-0.669,0.268-1.342,0.278-2.019,0.033c-0.083-0.03-0.122-0.009-0.163,0.065
		c-0.07,0.126-0.161,0.237-0.261,0.341c-0.332,0.345-0.734,0.587-1.159,0.796C12.358,21.255,12.045,21.365,11.728,21.485z"/>
	<path display="inline" fill="#0D8497" d="M15.28,25.56c1.451,0,2.902,0,4.353,0c0.075,0,0.151-0.002,0.224,0.009
		c0.175,0.027,0.29,0.175,0.285,0.356c-0.005,0.173-0.12,0.308-0.291,0.332c-0.068,0.01-0.138,0.009-0.207,0.009
		c-2.925,0-5.85,0-8.776,0c-0.331,0-0.489-0.112-0.493-0.348c-0.004-0.243,0.156-0.358,0.499-0.358
		C12.343,25.56,13.811,25.56,15.28,25.56z"/>
	<path display="inline" fill="#0D8497" d="M15.252,28.782c-0.951,0-1.901,0.001-2.852,0c-0.283,0-0.441-0.142-0.429-0.379
		c0.009-0.163,0.096-0.269,0.25-0.312c0.071-0.02,0.147-0.027,0.221-0.027c1.878-0.001,3.756-0.001,5.634-0.001
		c0.307,0,0.472,0.126,0.473,0.357c0.002,0.216-0.15,0.36-0.396,0.362c-0.461,0.004-0.922,0.001-1.383,0.001
		C16.266,28.782,15.759,28.782,15.252,28.782z"/>
	<ellipse display="inline" fill="#0D8497" cx="15.248" cy="16.59" rx="2.466" ry="2.809"/>
	<path display="inline" fill="#0D8497" d="M11.253,21.334l2.785-1.639h2.459l2.575,1.639C19.071,21.334,16.075,25.22,11.253,21.334z
		"/>
</g>
<g id="Слой_36" display="none">
	<path display="inline" fill="#0D8497" d="M9.06,14.361c0.174-0.128,0.364-0.173,0.583-0.17c0.726,0.01,1.452-0.014,2.177,0.012
		c0.297,0.011,0.398-0.069,0.445-0.366c0.264-1.671,1.644-2.75,3.324-2.625c1.402,0.104,2.582,1.231,2.762,2.671
		c0.033,0.265,0.121,0.321,0.367,0.316c0.763-0.015,1.527-0.008,2.29-0.005c0.443,0.002,0.519,0.083,0.522,0.534
		c0.002,0.313,0.001,0.626-0.001,0.939c-0.001,0.24-0.131,0.388-0.363,0.386c-0.216-0.002-0.333-0.15-0.339-0.372
		c-0.001-0.025-0.001-0.05-0.002-0.075C20.792,14.9,20.792,14.9,20.089,14.9c-0.476,0-0.951,0.009-1.426-0.004
		c-0.208-0.006-0.289,0.05-0.28,0.27c0.016,0.387,0.003,0.776,0.005,1.164c0.001,0.245-0.089,0.432-0.357,0.428
		c-0.269-0.004-0.348-0.196-0.346-0.439c0.003-0.388-0.008-0.776,0.004-1.164c0.006-0.192-0.049-0.26-0.251-0.259
		c-1.427,0.008-2.853,0.008-4.28,0c-0.209-0.001-0.251,0.083-0.246,0.267c0.01,0.388,0.003,0.776,0.002,1.164
		c0,0.242-0.085,0.434-0.356,0.431c-0.267-0.003-0.353-0.191-0.351-0.435c0.003-0.363-0.014-0.727,0.006-1.088
		c0.014-0.252-0.046-0.351-0.322-0.341c-0.6,0.022-1.201,0.019-1.802,0.001c-0.251-0.008-0.317,0.07-0.313,0.316
		c0.014,0.876,0.006,1.752,0.006,2.628c0,2.678-0.001,5.356,0,8.034c0,1.392,0.675,2.059,2.078,2.059c1.602,0,3.204,0,4.805,0.001
		c0.125,0,0.252-0.004,0.374,0.016c0.186,0.031,0.284,0.161,0.279,0.344c-0.005,0.182-0.108,0.306-0.293,0.334
		c-0.11,0.017-0.225,0.011-0.337,0.011c-1.627,0.001-3.254-0.031-4.88,0.01c-1.362,0.035-2.374-0.76-2.662-1.862
		c-0.013-0.049-0.026-0.095-0.084-0.11C9.06,22.571,9.06,18.466,9.06,14.361z M15.271,14.2c0.563,0,1.126,0,1.689,0
		c0.807,0,0.833-0.04,0.525-0.817c-0.356-0.899-1.352-1.544-2.275-1.475c-1.115,0.084-2.014,0.827-2.234,1.846
		c-0.092,0.428-0.079,0.446,0.342,0.446C13.97,14.201,14.62,14.2,15.271,14.2z"/>
	<path display="inline" fill="#0D8497" d="M28.283,27.352c-0.254,0.572-0.582,1.065-1.242,1.233
		c-0.211,0.054-0.421,0.053-0.632,0.053c-2.126,0.002-4.253,0.003-6.379,0.001c-1.209-0.001-1.874-0.669-1.876-1.883
		c-0.002-2.214-0.001-4.428,0-6.642c0-0.543,0.093-0.638,0.623-0.639c0.513-0.001,1.027-0.019,1.538,0.007
		c0.302,0.016,0.395-0.053,0.393-0.377c-0.008-1.18,0.67-2.145,1.696-2.483c1.649-0.542,3.266,0.595,3.335,2.346
		c0.02,0.505,0.02,0.505,0.52,0.505c0.488,0,0.976,0.01,1.463-0.004c0.229-0.007,0.411,0.056,0.562,0.224
		C28.283,22.246,28.283,24.799,28.283,27.352z M23.209,27.937c1.026,0,2.052-0.023,3.076,0.007c0.778,0.023,1.312-0.344,1.282-1.26
		c-0.04-1.249-0.01-2.501-0.01-3.752c0-0.813-0.007-1.626,0.005-2.439c0.003-0.231-0.071-0.306-0.3-0.297
		c-0.4,0.016-0.801,0.016-1.2,0c-0.238-0.01-0.346,0.053-0.323,0.31c0.02,0.223,0.004,0.45,0,0.675
		c-0.004,0.227-0.138,0.362-0.349,0.361c-0.211-0.001-0.343-0.137-0.346-0.364c-0.003-0.238-0.012-0.476-0.001-0.713
		c0.009-0.187-0.044-0.27-0.249-0.268c-1.038,0.008-2.076,0.007-3.114,0c-0.193-0.001-0.272,0.059-0.261,0.257
		c0.012,0.224,0.008,0.45-0.002,0.675c-0.011,0.239-0.118,0.429-0.383,0.411c-0.234-0.016-0.337-0.188-0.336-0.42
		c0.001-0.213-0.016-0.427,0.004-0.637c0.023-0.243-0.081-0.296-0.301-0.287c-0.375,0.015-0.752,0.024-1.125-0.002
		c-0.308-0.022-0.401,0.068-0.398,0.387c0.015,2.063,0.007,4.127,0.008,6.19c0.001,0.795,0.366,1.159,1.172,1.162
		C21.108,27.94,22.159,27.937,23.209,27.937z M23.206,19.475c0.525,0,1.049-0.006,1.574,0.003c0.184,0.003,0.273-0.034,0.261-0.245
		c-0.019-0.35-0.041-0.695-0.201-1.017c-0.371-0.75-1.195-1.159-1.994-0.985c-0.875,0.19-1.425,0.938-1.441,1.932
		c-0.004,0.233,0.042,0.331,0.303,0.319C22.206,19.459,22.707,19.475,23.206,19.475z"/>
	<path display="inline" fill="#0D8497" d="M18.54,19.926h9.375l-0.129,7.548c0,0-0.129,0.596-1.062,0.725h-7.433
		c0,0-0.777-0.803-0.751-1.347S18.54,19.926,18.54,19.926z"/>
</g>
<g id="Слой_37" display="none">
	<path display="inline" fill="#0D8497" d="M28.505,29.007c-0.386,0.255-0.527,0.223-0.724-0.166
		c0.129-0.597-0.118-0.992-0.653-1.244c-0.167-0.079-0.312-0.206-0.482-0.277c-0.359-0.152-0.446-0.411-0.474-0.79
		c-0.046-0.638,0.293-1.212,0.214-1.853c-0.061-0.491-0.218-0.72-0.651-0.721c-0.437-0.001-0.65,0.228-0.649,0.718
		c0.001,0.388,0.014,0.757,0.168,1.148c0.275,0.698,0.011,1.229-0.65,1.614c-0.086,0.05-0.164,0.114-0.253,0.155
		c-0.549,0.252-0.807,0.657-0.679,1.27c-0.061,0.226-0.203,0.342-0.438,0.292c-0.228-0.048-0.234-0.238-0.272-0.429
		c-0.19-0.972,0.45-1.407,1.143-1.819c0.544-0.324,0.543-0.472,0.36-1.102c-0.173-0.595-0.184-1.235,0.04-1.827
		c0.214-0.567,0.858-0.825,1.566-0.7c0.539,0.095,0.986,0.563,1.001,1.139c0.014,0.536,0.106,1.079-0.153,1.607
		c-0.171,0.348-0.022,0.6,0.32,0.815c0.314,0.197,0.614,0.418,0.922,0.624c0.183,0.122,0.244,0.325,0.345,0.502
		C28.505,28.312,28.505,28.66,28.505,29.007z"/>
	<path display="inline" fill="#0D8497" d="M10.17,28.771c-0.197,0.399-0.349,0.433-0.728,0.162c0-0.372,0-0.745,0-1.117
		c0.315-0.457,0.788-0.724,1.241-1.01c0.361-0.228,0.449-0.518,0.293-0.923c-0.235-0.611-0.205-1.249-0.029-1.855
		c0.174-0.597,0.827-0.872,1.563-0.754c0.555,0.089,0.999,0.565,1.01,1.168c0.01,0.523,0.09,1.048-0.165,1.567
		c-0.129,0.263-0.121,0.629,0.299,0.786c0.203,0.076,0.365,0.256,0.562,0.357c0.624,0.317,0.789,0.841,0.716,1.49
		c-0.023,0.207-0.045,0.405-0.295,0.452c-0.245,0.046-0.365-0.099-0.433-0.309c0.135-0.602-0.142-0.981-0.661-1.239
		c-0.21-0.104-0.41-0.231-0.612-0.35c-0.118-0.07-0.267-0.144-0.272-0.285c-0.015-0.448-0.101-0.888,0.079-1.344
		c0.162-0.412,0.111-0.875,0.004-1.311c-0.029-0.118-0.144-0.194-0.266-0.243c-0.487-0.199-0.927,0.066-0.929,0.594
		c-0.002,0.385-0.036,0.758,0.154,1.15c0.293,0.606,0,1.274-0.585,1.608c-0.118,0.067-0.226,0.154-0.348,0.212
		C10.258,27.82,10.046,28.21,10.17,28.771z"/>
	<path display="inline" fill="#0D8497" d="M15.345,20.544c0.992,0,1.984-0.008,2.976,0.006c0.247,0.004,0.325-0.069,0.304-0.31
		c-0.02-0.234-0.01-0.471-0.001-0.706c0.009-0.239,0.118-0.425,0.378-0.412c0.23,0.012,0.338,0.182,0.34,0.412
		c0,0.05-0.002,0.099,0.001,0.149c0.02,0.281-0.123,0.653,0.064,0.817c0.156,0.137,0.519,0.044,0.79,0.044
		c1.748,0.002,3.497,0,5.245,0.001c0.572,0,0.652,0.079,0.654,0.636c0.001,0.36,0.005,0.719-0.003,1.079
		c-0.005,0.231-0.084,0.428-0.359,0.425c-0.269-0.003-0.353-0.187-0.356-0.427c0-0.012,0-0.025,0-0.037
		c-0.008-0.307,0.101-0.724-0.056-0.893c-0.185-0.2-0.606-0.059-0.924-0.06c-1.562-0.006-3.125,0.008-4.687-0.012
		c-0.322-0.004-0.406,0.091-0.371,0.389c0.025,0.208,0.006,0.421,0.004,0.632c-0.003,0.225-0.092,0.396-0.337,0.409
		c-0.272,0.014-0.36-0.172-0.378-0.407c-0.006-0.074-0.002-0.149-0.002-0.223c-0.003-0.791-0.003-0.791-0.776-0.791
		c-1.649,0-3.299,0.008-4.948-0.007c-0.28-0.003-0.371,0.066-0.34,0.344c0.026,0.233,0.012,0.471,0.002,0.706
		c-0.009,0.227-0.119,0.381-0.366,0.378c-0.232-0.003-0.335-0.16-0.341-0.364c-0.013-0.458-0.015-0.918-0.003-1.376
		c0.008-0.322,0.23-0.402,0.512-0.401C13.361,20.546,14.353,20.544,15.345,20.544z"/>
	<path display="inline" fill="#0D8497" d="M20.469,14.552c-0.01,0.347,0.023,0.741-0.191,1.133c-0.202,0.37-0.011,0.746,0.359,0.97
		c0.222,0.134,0.421,0.311,0.652,0.425c0.751,0.369,0.877,1.008,0.801,1.75c-0.023,0.222-0.107,0.4-0.345,0.409
		c-0.261,0.01-0.415-0.185-0.367-0.411c0.164-0.772-0.319-1.117-0.877-1.43c-0.065-0.036-0.128-0.075-0.189-0.118
		c-0.25-0.172-0.638-0.21-0.723-0.535c-0.11-0.418-0.159-0.909,0.002-1.282c0.195-0.452,0.174-0.884,0.176-1.331
		c0.002-0.549-0.272-0.82-0.782-0.821c-0.516-0.001-0.782,0.263-0.771,0.821c0.009,0.446-0.043,0.882,0.167,1.334
		c0.168,0.361,0.083,0.826,0.015,1.244c-0.032,0.199-0.197,0.275-0.349,0.356c-0.406,0.214-0.788,0.463-1.162,0.728
		c-0.214,0.152-0.322,0.322-0.295,0.588c0.017,0.172,0.009,0.347-0.002,0.52c-0.013,0.201-0.138,0.326-0.331,0.339
		c-0.197,0.013-0.341-0.101-0.357-0.303c-0.052-0.675-0.12-1.357,0.621-1.761c0.26-0.142,0.492-0.332,0.747-0.484
		c0.491-0.293,0.544-0.63,0.353-1.19c-0.243-0.713-0.262-1.47,0.049-2.172c0.273-0.616,1.016-0.871,1.76-0.688
		c0.604,0.148,1.018,0.678,1.038,1.331C20.474,14.148,20.469,14.322,20.469,14.552z"/>
	<path display="inline" fill="#0D8497" d="M16.904,28.845c-0.051,0.226-0.184,0.354-0.423,0.313
		c-0.251-0.044-0.248-0.248-0.288-0.451c-0.181-0.935,0.423-1.368,1.093-1.773c0.604-0.365,0.589-0.476,0.402-1.144
		c-0.163-0.581-0.174-1.211,0.037-1.792c0.212-0.582,0.874-0.852,1.591-0.717c0.555,0.104,0.992,0.595,0.99,1.184
		c-0.002,0.524,0.09,1.05-0.153,1.571c-0.128,0.273-0.125,0.631,0.287,0.796c0.191,0.076,0.346,0.241,0.533,0.334
		c0.667,0.33,0.846,0.881,0.762,1.575c-0.024,0.202-0.06,0.376-0.284,0.418c-0.239,0.045-0.373-0.081-0.424-0.308
		c0.126-0.598-0.131-0.987-0.658-1.244c-0.222-0.108-0.428-0.249-0.642-0.372c-0.121-0.069-0.251-0.147-0.275-0.286
		c-0.068-0.392-0.139-0.829,0.013-1.171c0.164-0.369,0.147-0.717,0.15-1.079c0.004-0.511-0.223-0.747-0.669-0.739
		c-0.429,0.008-0.635,0.237-0.632,0.737c0.003,0.375,0.004,0.732,0.166,1.111c0.283,0.662,0.004,1.254-0.629,1.623
		c-0.096,0.056-0.186,0.125-0.285,0.173C17.042,27.856,16.777,28.245,16.904,28.845z"/>
	<path display="inline" fill="#0D8497" d="M16.583,28.845c-0.148-0.623,0.159-1.027,0.765-1.291c0.115-0.05,0.219-0.122,0.33-0.18
		c0.731-0.383,1.054-0.998,0.727-1.685c-0.187-0.394-0.188-0.764-0.192-1.154c-0.004-0.519,0.234-0.758,0.73-0.766
		c0.515-0.008,0.778,0.237,0.773,0.768c-0.003,0.376,0.016,0.738-0.173,1.121c-0.176,0.356-0.094,0.81-0.015,1.217
		c0.028,0.144,0.178,0.225,0.318,0.297c0.248,0.128,0.486,0.274,0.742,0.386c0.609,0.267,0.907,0.672,0.761,1.292
		C19.761,28.847,18.172,28.846,16.583,28.845z"/>
	<path display="inline" fill="#0D8497" d="M23.351,28.862c-0.148-0.636,0.15-1.057,0.785-1.319c0.103-0.043,0.194-0.109,0.293-0.161
		c0.764-0.4,1.069-0.952,0.752-1.676c-0.178-0.406-0.193-0.789-0.194-1.192c-0.001-0.51,0.246-0.747,0.75-0.746
		c0.5,0.001,0.682,0.239,0.752,0.749c0.092,0.665-0.301,1.262-0.247,1.924c0.032,0.394,0.133,0.663,0.548,0.82
		c0.196,0.074,0.364,0.206,0.557,0.288c0.618,0.262,0.904,0.672,0.755,1.292C26.519,28.848,24.935,28.855,23.351,28.862z"/>
	<path display="inline" fill="#0D8497" d="M9.849,28.77c-0.144-0.582,0.102-0.985,0.696-1.237c0.142-0.06,0.267-0.15,0.404-0.22
		c0.678-0.347,1.018-1.039,0.678-1.667c-0.22-0.407-0.181-0.794-0.178-1.192c0.003-0.547,0.513-0.822,1.077-0.616
		c0.14,0.051,0.274,0.13,0.308,0.252c0.124,0.452,0.183,0.932-0.005,1.359c-0.208,0.473-0.109,0.929-0.091,1.394
		c0.005,0.146,0.179,0.224,0.315,0.296c0.234,0.124,0.466,0.255,0.709,0.363c0.601,0.267,0.922,0.66,0.766,1.284
		C12.967,28.78,11.408,28.775,9.849,28.77z"/>
</g>
<g id="Слой_38" display="none">
	<path display="inline" fill="#999999" d="M28.639,12.858c0,0.432,0,0.864,0,1.296c-0.01,0.132-0.026,0.265-0.028,0.397
		c-0.03,1.994-0.061,3.988-0.083,5.983c-0.003,0.312-0.105,0.559-0.326,0.78c-3.201,3.195-6.396,6.395-9.598,9.589
		c-0.182,0.182-0.391,0.355-0.619,0.468c-0.308,0.152-0.648,0.241-0.974,0.357c-0.178,0-0.356,0-0.534,0
		c-0.028-0.012-0.055-0.031-0.085-0.035c-0.565-0.088-1.046-0.346-1.447-0.745c-1.691-1.684-3.38-3.369-5.058-5.066
		c-0.214-0.216-0.387-0.487-0.528-0.759c-0.119-0.231-0.163-0.5-0.24-0.753c0-0.178,0-0.356,0-0.534
		c0.012-0.029,0.029-0.057,0.034-0.087c0.087-0.587,0.362-1.08,0.776-1.494c3.201-3.204,6.405-6.405,9.605-9.61
		c0.221-0.221,0.465-0.322,0.779-0.326c2.026-0.021,4.052-0.054,6.078-0.084c0.101-0.002,0.201-0.017,0.302-0.026
		c0.419,0,0.839,0,1.258,0C28.281,12.322,28.566,12.477,28.639,12.858z M26.954,13.854c-0.072-0.004-0.116-0.009-0.16-0.008
		c-2.026,0.015-4.053,0.029-6.079,0.051c-0.088,0.001-0.195,0.054-0.259,0.118c-3.139,3.132-6.274,6.267-9.409,9.403
		c-0.392,0.392-0.391,0.961,0.006,1.359c1.683,1.686,3.367,3.371,5.054,5.053c0.403,0.402,0.847,0.395,1.251-0.009
		c3.135-3.135,6.27-6.271,9.407-9.404c0.092-0.092,0.133-0.184,0.134-0.315c0.015-2.007,0.036-4.015,0.055-6.022
		C26.955,14.01,26.954,13.941,26.954,13.854z"/>
	<path display="inline" fill="#999999" d="M24.738,16.555c-0.001,0.651-0.53,1.185-1.184,1.194
		c-0.648,0.009-1.206-0.546-1.204-1.197c0.002-0.658,0.548-1.196,1.207-1.19C24.211,15.367,24.739,15.901,24.738,16.555z"/>
</g>
<g id="Слой_39" display="none">
	<path display="inline" fill="#999999" d="M12.714,27.356c-0.153-0.071-0.2-0.108-0.25-0.112c-2.666-0.227-3.321-0.943-3.322-3.634
		c0-2.728-0.002-5.456,0.001-8.184c0.002-2.195,0.997-3.205,3.166-3.206c4.381-0.003,8.763-0.004,13.144,0
		c2.076,0.002,3.111,1.028,3.116,3.091c0.007,2.948,0.007,5.897,0,8.845c-0.005,2.036-1.031,3.065-3.042,3.069
		c-1.984,0.004-3.968-0.023-5.951,0.019c-0.431,0.009-0.921,0.16-1.276,0.403c-1.833,1.257-3.63,2.565-5.586,3.959
		C12.714,30.069,12.714,28.687,12.714,27.356z M14.443,28.2c1.124-0.798,2.092-1.429,2.992-2.146
		c0.601-0.479,1.223-0.634,1.974-0.62c2.064,0.037,4.13,0.019,6.195,0.01c0.922-0.004,1.186-0.265,1.188-1.174
		c0.007-3.029,0.007-6.057,0-9.086c-0.002-0.9-0.285-1.182-1.187-1.184c-4.488-0.005-8.976-0.005-13.463,0
		c-0.949,0.001-1.217,0.274-1.219,1.234c-0.005,3.001-0.005,6.002,0,9.003c0.002,0.962,0.25,1.198,1.237,1.208
		c0.734,0.007,1.469,0.001,2.283,0.001C14.443,26.371,14.443,27.183,14.443,28.2z"/>
</g>
<g id="Слой_40" display="none">
	<path display="inline" fill="#999999" d="M18.982,13.897c-4.486,0-8.122,3.637-8.122,8.122c0,4.486,3.637,8.122,8.122,8.122
		c4.486,0,8.122-3.636,8.122-8.122C27.104,17.534,23.468,13.897,18.982,13.897z M18.982,28.665c-3.67,0-6.646-2.975-6.646-6.646
		s2.975-6.646,6.646-6.646s6.646,2.975,6.646,6.646S22.652,28.665,18.982,28.665z"/>
	<path display="inline" fill="#999999" d="M19.72,21.714v-4.125c0-0.408-0.331-0.738-0.738-0.738s-0.738,0.331-0.738,0.738v4.43
		c0,0.002,0.001,0.003,0.001,0.005c0,0.047,0.005,0.093,0.014,0.139c0.004,0.023,0.013,0.043,0.019,0.065
		c0.007,0.024,0.013,0.049,0.023,0.073c0.011,0.025,0.025,0.049,0.038,0.073c0.01,0.018,0.018,0.037,0.03,0.054
		c0.027,0.041,0.058,0.079,0.092,0.113l2.088,2.088c0.288,0.288,0.756,0.288,1.044,0c0.288-0.288,0.288-0.756,0-1.044L19.72,21.714z
		"/>
</g>
<g id="Слой_41" display="none">
	<g display="inline">
		<g>
			<path fill="#E53935" d="M26.551,17.302h-3.62c-0.208,0-0.375,0.167-0.375,0.375s0.167,0.375,0.375,0.375h3.62
				c0.409,0,0.742,0.333,0.742,0.742v9.307c0,0.409-0.333,0.742-0.742,0.742H12.48c-0.409,0-0.742-0.333-0.742-0.742v-9.307
				c0-0.409,0.333-0.742,0.742-0.742h3.677c0.208,0,0.375-0.167,0.375-0.375s-0.167-0.375-0.375-0.375H12.48
				c-0.822,0-1.492,0.67-1.492,1.492v9.307c0,0.822,0.67,1.492,1.492,1.492h6.661v2.253h-3.113c-0.208,0-0.375,0.167-0.375,0.375
				c0,0.208,0.167,0.375,0.375,0.375h6.971c0.208,0,0.375-0.167,0.375-0.375c0-0.208-0.167-0.375-0.375-0.375h-3.113v-2.253h6.661
				c0.822,0,1.492-0.67,1.492-1.492v-9.307C28.043,17.973,27.372,17.302,26.551,17.302z"/>
			<path fill="#E53935" d="M21.628,15.538c0-0.81-0.659-1.473-1.473-1.473h-1.284c-0.81,0-1.473,0.659-1.473,1.473v0.882
				c0,0.023,0.004,0.045,0.008,0.064c-0.004,0.023-0.008,0.042-0.008,0.064v7.316c0,0.083,0.027,0.163,0.076,0.227l1.738,2.283
				c0.072,0.095,0.182,0.148,0.299,0.148c0.117,0,0.227-0.053,0.299-0.148l1.738-2.283c0.049-0.064,0.076-0.144,0.076-0.227v-7.327
				c0-0.019-0.004-0.042-0.008-0.061c0.004-0.019,0.008-0.038,0.008-0.061v-0.878H21.628z M18.152,16.795h0.988v6.642h-0.988V16.795
				z M19.515,25.53l-1.026-1.348h2.052L19.515,25.53z M20.878,23.437H19.89v-6.642h0.988V23.437z M20.878,16.045h-2.726v-0.507
				c0-0.398,0.326-0.723,0.723-0.723h1.284c0.398,0,0.723,0.326,0.723,0.723v0.507C20.882,16.045,20.878,16.045,20.878,16.045z"/>
		</g>
	</g>
</g>
<g id="Слой_42" display="none">
	<g display="inline">
		<g>
			<path fill="#E53935" d="M14.088,17.404c2.974-3.042,7.866-3.1,10.908-0.127l-0.867,0.01c-0.188,0.003-0.336,0.154-0.336,0.343
				c0.003,0.185,0.154,0.336,0.339,0.336h0.003l1.686-0.021c0.188-0.003,0.336-0.154,0.336-0.343l-0.021-1.686
				c-0.003-0.188-0.154-0.339-0.343-0.336s-0.336,0.154-0.336,0.343l0.01,0.867c-3.309-3.234-8.633-3.169-11.867,0.14
				c-1.12,1.148-1.888,2.58-2.213,4.145c-0.319,1.525-0.209,3.1,0.315,4.563c0.051,0.137,0.182,0.226,0.319,0.226
				c0.038,0,0.075-0.007,0.113-0.021c0.175-0.062,0.267-0.257,0.206-0.435C11.337,22.604,12.005,19.535,14.088,17.404z"/>
			<path fill="#E53935" d="M13.742,28.805c1.579,1.542,3.659,2.388,5.862,2.388c0.034,0,0.065,0,0.099,0
				c2.244-0.027,4.341-0.922,5.906-2.528c1.124-1.148,1.888-2.583,2.213-4.149c0.319-1.525,0.209-3.1-0.315-4.563
				c-0.062-0.175-0.257-0.267-0.435-0.206c-0.175,0.062-0.267,0.257-0.206,0.435c1.007,2.806,0.339,5.875-1.744,8.006
				c-1.442,1.473-3.368,2.299-5.43,2.323c-2.059,0.024-4.005-0.757-5.478-2.196l0.867-0.01c0.188-0.003,0.336-0.154,0.336-0.343
				c-0.003-0.185-0.154-0.336-0.339-0.336h-0.003l-1.686,0.021c-0.089,0-0.175,0.038-0.24,0.103
				c-0.062,0.065-0.096,0.151-0.096,0.24l0.021,1.686c0.003,0.185,0.154,0.336,0.339,0.336h0.003
				c0.188-0.003,0.336-0.154,0.336-0.343L13.742,28.805z"/>
			<path fill="#E53935" d="M24.297,20.85c-0.75-1.805-2.449-3.004-4.382-3.121c-0.034-0.003-0.072-0.003-0.11-0.007
				c-0.003,0-0.01,0-0.014,0c-0.021,0-0.041-0.003-0.062-0.003c-0.003,0-0.007,0-0.01,0c-0.038,0-0.075-0.003-0.116-0.003
				c-0.668,0-1.319,0.13-1.939,0.387c-1.254,0.517-2.23,1.494-2.748,2.748c-0.521,1.254-0.521,2.634,0,3.885
				c0.788,1.905,2.631,3.138,4.693,3.138c0.027,0,0.051,0,0.079-0.003c0.014,0,0.031,0.003,0.045,0.003c0.007,0,0.014,0,0.017-0.003
				c0.031,0,0.058-0.003,0.089-0.003c0.01,0,0.021,0,0.034,0c0.01,0,0.017,0,0.027-0.003c0.565-0.031,1.12-0.158,1.651-0.377
				c1.254-0.517,2.23-1.494,2.748-2.748c0.517-1.254,0.521-2.634,0-3.885C24.297,20.854,24.297,20.854,24.297,20.85
				C24.297,20.854,24.297,20.854,24.297,20.85z M17.836,18.771c-0.377,0.49-0.678,1.131-0.877,1.874H15.77
				C16.233,19.816,16.952,19.161,17.836,18.771z M15.462,21.327h1.35c-0.079,0.462-0.12,0.956-0.12,1.473
				c0,0.51,0.045,1.007,0.13,1.473h-1.36C15.119,23.314,15.119,22.282,15.462,21.327z M15.77,24.948h1.209
				c0.212,0.757,0.534,1.411,0.928,1.912C17.01,26.482,16.253,25.818,15.77,24.948z M19.391,27.147
				c-0.709-0.209-1.34-1.059-1.699-2.199h1.699V27.147L19.391,27.147z M19.391,24.269h-1.874c-0.096-0.466-0.147-0.963-0.147-1.473
				c0-0.517,0.048-1.014,0.13-1.473h1.891V24.269z M19.391,20.648h-1.73c0.346-1.178,0.976-2.011,1.73-2.203V20.648z M23.444,20.645
				h-0.942c-0.175-0.654-0.425-1.226-0.74-1.686C22.458,19.35,23.043,19.929,23.444,20.645z M20.07,18.442
				c0.754,0.195,1.381,1.028,1.73,2.203h-1.73V18.442z M20.07,21.327h1.891c0.086,0.459,0.13,0.952,0.13,1.473
				c0,0.51-0.051,1.007-0.147,1.473H20.07V21.327z M20.07,27.147v-2.199h1.699C21.409,26.089,20.779,26.938,20.07,27.147z
				 M21.694,26.671c0.332-0.469,0.603-1.059,0.791-1.723h0.959C23.037,25.681,22.434,26.274,21.694,26.671z M23.753,24.269h-1.113
				c0.086-0.466,0.13-0.959,0.13-1.473c0-0.517-0.041-1.011-0.12-1.473h1.103C24.095,22.282,24.095,23.314,23.753,24.269z"/>
		</g>
	</g>
</g>
<g id="Слой_43" display="none">
	<g display="inline">
		<g>
			<path fill="#E53935" d="M28.014,22.732c0-4.686-3.813-8.499-8.499-8.499c-0.191,0-0.343,0.153-0.343,0.343v3.144h-0.159
				c-1.591,0-2.887,1.293-2.887,2.887v4.253c0,1.591,1.293,2.887,2.887,2.887h1.002c1.591,0,2.887-1.293,2.887-2.887v-4.256
				c0-1.591-1.293-2.887-2.887-2.887h-0.159v-2.794c4.152,0.18,7.473,3.615,7.473,7.809c0,2.759-1.411,5.258-3.771,6.69
				c-2.44,1.477-5.418,1.501-8.166,0.066c-1.13-0.593-2.042-1.504-2.634-2.638c-1.847-3.546-1.237-7.452,1.556-9.944
				c0.142-0.125,0.153-0.343,0.028-0.485c-0.125-0.142-0.343-0.153-0.485-0.028c-1.39,1.241-2.347,2.925-2.693,4.745
				c-0.374,1.979-0.035,4.066,0.984,6.024c0.655,1.262,1.667,2.274,2.925,2.929c1.456,0.763,2.974,1.14,4.457,1.14
				c1.535,0,3.036-0.409,4.385-1.227C26.482,28.452,28.014,25.731,28.014,22.732z M20.017,18.403c1.213,0,2.201,0.988,2.201,2.201
				v4.253c0,1.213-0.988,2.201-2.201,2.201h-1.002c-1.213,0-2.201-0.988-2.201-2.201v-4.253c0-1.213,0.988-2.201,2.201-2.201H20.017
				L20.017,18.403z"/>
			<path fill="#E53935" d="M19.515,21.866c0.191,0,0.343-0.153,0.343-0.343v-1.698c0-0.191-0.153-0.343-0.343-0.343
				s-0.343,0.153-0.343,0.343v1.698C19.172,21.71,19.324,21.866,19.515,21.866z"/>
		</g>
	</g>
</g>
<g id="Слой_44" display="none">
	<g display="inline">
		<g>
			<path fill="#E53935" d="M17.985,25.454h-3.98c-0.19,0-0.342,0.152-0.342,0.342s0.152,0.342,0.342,0.342h3.686
				c0.107,0.297,0.394,0.508,0.726,0.508h2.185c0.332,0,0.619-0.211,0.726-0.508h3.69c0.19,0,0.342-0.152,0.342-0.342
				s-0.152-0.342-0.342-0.342h-3.98c-0.19,0-0.342,0.152-0.342,0.342v0.076c0,0.048-0.041,0.09-0.09,0.09h-2.185
				c-0.048,0-0.09-0.041-0.09-0.09v-0.076C18.328,25.607,18.175,25.454,17.985,25.454z"/>
			<path fill="#E53935" d="M27.647,25.454h-0.899v-7.888c0-0.19-0.152-0.342-0.342-0.342s-0.342,0.152-0.342,0.342v8.23
				c0,0.19,0.156,0.342,0.346,0.342h0.896v0.47c0,0.484-0.394,0.878-0.878,0.878H12.601c-0.484,0-0.878-0.394-0.878-0.878v-0.47
				h0.896c0.19,0,0.342-0.152,0.342-0.342v-8.23c0-0.19-0.152-0.342-0.342-0.342s-0.342,0.152-0.342,0.342v7.888H11.38
				c-0.19,0-0.342,0.152-0.342,0.342v0.813c0,0.861,0.702,1.563,1.563,1.563h13.825c0.861,0,1.563-0.702,1.563-1.563v-0.813
				C27.989,25.607,27.837,25.454,27.647,25.454z"/>
			<path fill="#E53935" d="M20.845,16.512l-1.975,1.964l-0.688-0.692c-0.135-0.135-0.349-0.135-0.484,0s-0.135,0.349,0,0.484
				l0.927,0.934c0.066,0.066,0.156,0.1,0.242,0.1c0.086,0,0.173-0.035,0.242-0.1l2.22-2.206c0.135-0.135,0.135-0.349,0-0.484
				C21.198,16.381,20.98,16.377,20.845,16.512z"/>
			<path fill="#E53935" d="M23.739,14.105h-8.451c-0.692,0-1.255,0.564-1.255,1.255v4.993c0,0.692,0.564,1.255,1.255,1.255h0.356
				v1.504c0,0.28,0.228,0.505,0.508,0.505c0.145,0,0.284-0.062,0.38-0.176l1.584-1.833h5.623c0.692,0,1.255-0.564,1.255-1.255V15.36
				C24.995,14.669,24.431,14.105,23.739,14.105z M24.31,20.354c0,0.315-0.256,0.571-0.571,0.571h-5.782
				c-0.1,0-0.194,0.041-0.259,0.118l-1.373,1.587v-1.362c0-0.19-0.152-0.342-0.342-0.342h-0.699c-0.315,0-0.571-0.256-0.571-0.571
				V15.36c0-0.315,0.256-0.571,0.571-0.571h8.451c0.315,0,0.571,0.256,0.571,0.571v4.993H24.31z"/>
		</g>
	</g>
</g>
</svg>
