<?xml version="1.0" encoding="utf-8"?>
<!-- Generator: Adobe Illustrator 19.0.0, SVG Export Plug-In . SVG Version: 6.00 Build 0)  -->
<svg version="1.1" id="Capa_1" xmlns="http://www.w3.org/2000/svg" xmlns:xlink="http://www.w3.org/1999/xlink" x="0px" y="0px"
	 viewBox="-50 174.405 493.485 493.485" enable-background="new -50 174.405 493.485 493.485" xml:space="preserve">
<path id="XMLID_240_" fill="#0D8497" d="M98.836,519.566C214.901,635.631,342.5,696.229,383.821,654.909L-36.533,234.556
	C-77.845,275.877-17.262,403.477,98.836,519.566z"/>
<path id="XMLID_239_" fill="#0D8497" d="M145.627,312.438c9.675-9.667,9.675-25.356,0-35.024l-95.752-95.753
	c-9.675-9.674-25.356-9.674-35.023,0l-32.698,32.689l130.778,130.784L145.627,312.438z"/>
<path id="XMLID_238_" fill="#0D8497" d="M435.74,567.999l-95.746-95.744c-4.646-4.648-10.952-7.259-17.514-7.259
	c-6.572,0-12.868,2.611-17.516,7.259l-32.688,32.695l130.775,130.769l32.689-32.695C445.415,593.356,445.415,577.674,435.74,567.999
	z"/>
</svg>
