<?xml version="1.0" encoding="utf-8"?>
<!-- Generator: Adobe Illustrator 19.0.0, SVG Export Plug-In . SVG Version: 6.00 Build 0)  -->
<svg version="1.1" xmlns="http://www.w3.org/2000/svg" xmlns:xlink="http://www.w3.org/1999/xlink" x="0px" y="0px"
	 viewBox="0 0 20 18.104" enable-background="new 0 0 20 18.104" xml:space="preserve">
<g id="mail" display="none">
	<path display="inline" d="M2.278,9.895c1.354,1.168,2.709,2.335,4.062,3.504c0.836,0.723,1.668,1.45,2.528,2.198
		c-0.701,0.596-1.38,1.172-2.059,1.75c-1.401,1.191-2.802,2.384-4.204,3.574c-0.103,0.087-0.218,0.159-0.327,0.239
		C2.278,17.405,2.278,13.65,2.278,9.895z"/>
	<path display="inline" d="M20.929,9.051c-3.031,2.598-6.057,5.191-9.103,7.802c-3.042-2.607-6.068-5.2-9.1-7.799
		c0.326-0.332,0.713-0.381,1.119-0.381c1.715,0.001,3.431,0,5.146,0c3.58,0,7.16,0.001,10.739-0.001
		C20.16,8.672,20.577,8.697,20.929,9.051z"/>
	<path display="inline" d="M14.19,16.152c2.242,1.923,4.475,3.838,6.783,5.817c-0.277,0.119-0.497,0.237-0.731,0.304
		c-0.162,0.047-0.345,0.032-0.519,0.032c-5.268,0.001-10.536,0.001-15.804,0.002c-0.429,0-0.846-0.026-1.194-0.379
		c2.248-1.927,4.491-3.849,6.74-5.777c0.795,0.694,1.569,1.37,2.362,2.063C12.622,17.52,13.397,16.844,14.19,16.152z"/>
	<path display="inline" d="M21.342,21.17c-2.206-1.875-4.371-3.714-6.558-5.573c2.189-1.904,4.352-3.786,6.558-5.705
		C21.342,13.663,21.342,17.385,21.342,21.17z"/>
</g>
<g id="phone" display="none">
	<path display="inline" d="M15.921,6.752c0.622,0.246,0.841,0.703,0.838,1.367c-0.017,4.422-0.017,8.844,0,13.265
		c0.003,0.664-0.216,1.121-0.838,1.367c-2.542,0-5.083,0-7.625,0c-0.623-0.246-0.84-0.704-0.838-1.368
		c0.017-4.422,0.017-8.843,0-13.265C7.456,7.455,7.675,6.998,8.296,6.752C10.838,6.752,13.38,6.752,15.921,6.752z M8.245,8.475
		c0,4.108,0,8.184,0,12.258c2.593,0,5.161,0,7.727,0c0-4.095,0-8.17,0-12.258C13.388,8.475,10.829,8.475,8.245,8.475z
		 M12.112,21.135c-0.287-0.002-0.54,0.253-0.537,0.54c0.003,0.283,0.231,0.515,0.515,0.523c0.3,0.009,0.545-0.22,0.552-0.517
		C12.649,21.394,12.399,21.137,12.112,21.135z M12.108,7.532c-0.352,0-0.704-0.006-1.056,0.005
		c-0.066,0.002-0.129,0.072-0.194,0.111c0.065,0.05,0.129,0.142,0.195,0.143c0.704,0.01,1.408,0.01,2.112,0
		c0.065-0.001,0.129-0.094,0.193-0.144c-0.065-0.038-0.129-0.108-0.195-0.11C12.813,7.526,12.46,7.532,12.108,7.532z"/>
</g>
<g id="search" display="none">
	<path display="inline" d="M19.308,23.089c-0.111,0-0.222,0-0.333,0c-0.292-0.089-0.496-0.296-0.7-0.51
		c-1.24-1.294-2.484-2.584-3.725-3.877c-0.045-0.047-0.076-0.109-0.113-0.164c-0.067,0.051-0.095,0.068-0.123,0.086
		c-1.14,0.766-2.395,1.158-3.769,1.177c-1.454,0.02-2.78-0.393-3.974-1.212C5.511,17.86,4.716,16.9,4.185,15.724
		c-0.561-1.243-0.727-2.542-0.516-3.883c0.223-1.415,0.843-2.642,1.835-3.675C6.508,7.12,7.723,6.449,9.148,6.168
		c0.287-0.056,0.579-0.089,0.868-0.132c0.3,0,0.6,0,0.899,0c0.153,0.021,0.306,0.043,0.459,0.063
		c1.556,0.209,2.886,0.881,3.985,1.992c1.087,1.098,1.742,2.423,1.936,3.961c0.171,1.355-0.034,2.658-0.649,3.879
		c-0.25,0.497-0.573,0.957-0.907,1.508c0.121,0.102,0.3,0.229,0.45,0.384c1.185,1.224,2.364,2.454,3.546,3.68
		c0.272,0.283,0.385,0.604,0.256,0.987C19.879,22.82,19.621,22.987,19.308,23.089z M10.472,7.834
		c-2.797-0.005-5.079,2.273-5.089,5.079c-0.01,2.799,2.293,5.105,5.089,5.094c2.809-0.011,5.08-2.284,5.08-5.086
		C15.552,10.122,13.273,7.839,10.472,7.834z"/>
</g>
<g id="ru" display="none">
	<text transform="matrix(1 0 0 1 4.0627 18.4792)" display="inline" font-family="'Roboto-Medium'" font-size="12px">RU</text>
</g>
<g id="arrow_main_menu" display="none">
	<polygon display="inline" fill="#E53935" points="2.086,13.074 21.539,13.074 11.813,21.032 	"/>
</g>
<g id="Слой_7" display="none">
	<path display="inline" fill="#FFFFFF" d="M5.578,19.052c0-3.452,0-6.903,0-10.355C5.789,8.134,6.167,7.737,6.74,7.535
		c3.346,0,6.692,0,10.038,0c0.689,0.194,1.23,0.56,1.479,1.268c0,3.416,0,6.833,0,10.249c-0.235,0.592-0.643,0.996-1.268,1.162
		c-3.416,0-6.833,0-10.249,0C6.172,20.008,5.771,19.634,5.578,19.052z M11.923,18.524c1.233,0,2.465,0.006,3.698-0.003
		c0.621-0.004,0.94-0.326,0.943-0.948c0.007-1.462-0.008-2.923,0.009-4.385c0.008-0.69-0.491-0.322-0.746-0.353
		c-0.417-0.051-0.175,0.28-0.15,0.427c0.249,1.444-0.404,2.979-1.678,3.783c-1.381,0.871-2.794,0.868-4.172-0.005
		c-1.267-0.802-1.918-2.343-1.667-3.788c0.026-0.151,0.261-0.477-0.162-0.42c-0.259,0.035-0.747-0.316-0.736,0.367
		c0.022,1.444,0.003,2.888,0.008,4.332c0.002,0.683,0.314,0.988,1.007,0.991C9.492,18.528,10.708,18.524,11.923,18.524z
		 M11.935,11.551c-1.277-0.008-2.327,1.02-2.341,2.292c-0.014,1.278,1.009,2.335,2.279,2.355c1.298,0.021,2.366-1.026,2.368-2.32
		C14.243,12.604,13.208,11.559,11.935,11.551z M15.527,9.226c-1.073,0-1.074,0-1.073,1.065c0,0.193-0.003,0.387,0.002,0.58
		c0.008,0.294,0.161,0.437,0.456,0.47c1.542,0.175,1.821-0.103,1.658-1.649c-0.031-0.293-0.166-0.454-0.462-0.464
		C15.914,9.221,15.72,9.227,15.527,9.226z"/>
</g>
<g id="Слой_7__x28_копия_x29_" display="none">
	<path display="inline" fill="#25798C" d="M5.578,19.052c0-3.452,0-6.903,0-10.355C5.789,8.134,6.167,7.737,6.74,7.535
		c3.346,0,6.692,0,10.038,0c0.689,0.194,1.23,0.56,1.479,1.268c0,3.416,0,6.833,0,10.249c-0.235,0.592-0.643,0.996-1.268,1.162
		c-3.416,0-6.833,0-10.249,0C6.172,20.008,5.771,19.634,5.578,19.052z M11.923,18.524c1.233,0,2.465,0.006,3.698-0.003
		c0.621-0.004,0.94-0.326,0.943-0.948c0.007-1.462-0.008-2.923,0.009-4.385c0.008-0.69-0.491-0.322-0.746-0.353
		c-0.417-0.051-0.175,0.28-0.15,0.427c0.249,1.444-0.404,2.979-1.678,3.783c-1.381,0.871-2.794,0.868-4.172-0.005
		c-1.267-0.802-1.918-2.343-1.667-3.788c0.026-0.151,0.261-0.477-0.162-0.42c-0.259,0.035-0.747-0.316-0.736,0.367
		c0.022,1.444,0.003,2.888,0.008,4.332c0.002,0.683,0.314,0.988,1.007,0.991C9.492,18.528,10.708,18.524,11.923,18.524z
		 M11.935,11.551c-1.277-0.008-2.327,1.02-2.341,2.292c-0.014,1.278,1.009,2.335,2.279,2.355c1.298,0.021,2.366-1.026,2.368-2.32
		C14.243,12.604,13.208,11.559,11.935,11.551z M15.527,9.226c-1.073,0-1.074,0-1.073,1.065c0,0.193-0.003,0.387,0.002,0.58
		c0.008,0.294,0.161,0.437,0.456,0.47c1.542,0.175,1.821-0.103,1.658-1.649c-0.031-0.293-0.166-0.454-0.462-0.464
		C15.914,9.221,15.72,9.227,15.527,9.226z"/>
</g>
<g id="Слой_8" display="none">
	<path display="inline" fill="#FFFFFF" d="M5.602,18.046c1.271-0.011,2.45-0.26,3.561-1.098c-1.14-0.184-2.046-0.588-2.493-1.706
		c0.695,0.023,1.34,0.327,2.05-0.003c-1.381-0.63-2.563-1.398-2.962-2.985c0.39,0.023,0.631,0.34,0.987,0.216
		c-0.059-0.249-0.268-0.353-0.397-0.516C5.739,11.19,5.623,10.26,6.038,9.495c0.129-0.238,0.22-0.273,0.416-0.056
		c1.346,1.492,3.126,1.832,5.018,1.89c0.36,0.011,0.338-0.17,0.343-0.424c0.027-1.505,1.12-2.592,2.577-2.591
		c0.655,0.001,1.197,0.269,1.596,0.756c0.346,0.42,0.663,0.45,1.077,0.138c0.183-0.138,0.397-0.233,0.61-0.355
		c-0.051,0.486-0.134,0.622-0.915,1.503c0.492,0.052,0.875-0.272,1.373-0.324c-0.21,0.398-0.455,0.707-0.761,0.937
		c-0.344,0.258-0.407,0.566-0.413,0.968c-0.047,3.456-2.325,6.281-5.651,6.959C9.322,19.299,7.405,19.029,5.602,18.046z"/>
</g>
<g id="Слой_8__x28_копия_x29_" display="none">
	<path display="inline" fill="#25798C" d="M5.602,18.046c1.271-0.011,2.45-0.26,3.561-1.098c-1.14-0.184-2.046-0.588-2.493-1.706
		c0.695,0.023,1.34,0.327,2.05-0.003c-1.381-0.63-2.563-1.398-2.962-2.985c0.39,0.023,0.631,0.34,0.987,0.216
		c-0.059-0.249-0.268-0.353-0.397-0.516C5.739,11.19,5.623,10.26,6.038,9.495c0.129-0.238,0.22-0.273,0.416-0.056
		c1.346,1.492,3.126,1.832,5.018,1.89c0.36,0.011,0.338-0.17,0.343-0.424c0.027-1.505,1.12-2.592,2.577-2.591
		c0.655,0.001,1.197,0.269,1.596,0.756c0.346,0.42,0.663,0.45,1.077,0.138c0.183-0.138,0.397-0.233,0.61-0.355
		c-0.051,0.486-0.134,0.622-0.915,1.503c0.492,0.052,0.875-0.272,1.373-0.324c-0.21,0.398-0.455,0.707-0.761,0.937
		c-0.344,0.258-0.407,0.566-0.413,0.968c-0.047,3.456-2.325,6.281-5.651,6.959C9.322,19.299,7.405,19.029,5.602,18.046z"/>
</g>
<g id="Слой_9__x28_копия_x29_" display="none">
	<path display="inline" fill="#FFFFFF" d="M14.646,12.066h-1.858v-1.219c0-0.458,0.303-0.564,0.517-0.564c0.213,0,1.311,0,1.311,0
		V8.271L12.81,8.264c-2.005,0-2.461,1.501-2.461,2.461v1.341H9.19v2.073h1.159c0,2.661,0,5.867,0,5.867h2.439c0,0,0-3.238,0-5.867
		h1.646L14.646,12.066z"/>
</g>
<g id="Слой_9" display="none">
	<path display="inline" fill="#25798C" d="M14.646,12.066h-1.858v-1.219c0-0.458,0.303-0.564,0.517-0.564c0.213,0,1.311,0,1.311,0
		V8.271L12.81,8.264c-2.005,0-2.461,1.501-2.461,2.461v1.341H9.19v2.073h1.159c0,2.661,0,5.867,0,5.867h2.439c0,0,0-3.238,0-5.867
		h1.646L14.646,12.066z"/>
</g>
<g id="Слой_10" display="none">
	<path display="inline" fill="#FFFFFF" d="M2.179,10.286c0.906-0.047,1.814-0.141,2.718-0.113c0.258,0.008,0.575,0.324,0.746,0.578
		c0.655,0.977,1.248,1.996,1.894,2.98c0.255,0.389,0.589,0.727,1.022,1.252c0.19-0.462,0.371-0.723,0.397-0.998
		c0.081-0.859,0.111-1.724,0.148-2.587c0.032-0.758-0.57-0.671-1.134-0.723c0.647-0.732,1.385-1.061,2.255-1.107
		c0.432-0.023,0.866-0.008,1.298-0.004c0.787,0.006,1.029,0.211,1.054,1.021c0.03,0.961-0.049,1.927,0.024,2.883
		c0.033,0.434,0.232,1.135,0.502,1.213c0.597,0.175,0.644-0.549,0.868-0.938c0.635-1.101,1.23-2.226,1.897-3.307
		c0.147-0.238,0.534-0.478,0.799-0.466c0.784,0.035,1.565,0.18,2.342,0.314c0.473,0.081,0.592,0.393,0.349,0.792
		c-0.524,0.86-1.07,1.706-1.61,2.556c-0.064,0.101-0.145,0.192-0.216,0.288c-1.023,1.378-1.008,1.364,0.195,2.548
		c0.546,0.537,1.07,1.112,1.515,1.733c0.549,0.767,0.137,1.643-0.803,1.731c-0.691,0.065-1.397,0.06-2.089-0.003
		c-0.273-0.025-0.55-0.259-0.78-0.452c-0.607-0.509-1.152-1.097-1.79-1.56c-0.761-0.552-1.665-0.087-1.782,0.855
		c-0.153,1.222-0.158,1.224-1.363,1.177c-1.198-0.047-2.246-0.48-3.164-1.235c-2.128-1.749-3.616-3.962-4.674-6.484
		c-0.194-0.462-0.411-0.913-0.617-1.369C2.179,10.671,2.179,10.479,2.179,10.286z"/>
</g>
<g id="Слой_10__x28_копия_x29_" display="none">
	<path display="inline" fill="#25798C" d="M2.179,10.286c0.906-0.047,1.814-0.141,2.718-0.113c0.258,0.008,0.575,0.324,0.746,0.578
		c0.655,0.977,1.248,1.996,1.894,2.98c0.255,0.389,0.589,0.727,1.022,1.252c0.19-0.462,0.371-0.723,0.397-0.998
		c0.081-0.859,0.111-1.724,0.148-2.587c0.032-0.758-0.57-0.671-1.134-0.723c0.647-0.732,1.385-1.061,2.255-1.107
		c0.432-0.023,0.866-0.008,1.298-0.004c0.787,0.006,1.029,0.211,1.054,1.021c0.03,0.961-0.049,1.927,0.024,2.883
		c0.033,0.434,0.232,1.135,0.502,1.213c0.597,0.175,0.644-0.549,0.868-0.938c0.635-1.101,1.23-2.226,1.897-3.307
		c0.147-0.238,0.534-0.478,0.799-0.466c0.784,0.035,1.565,0.18,2.342,0.314c0.473,0.081,0.592,0.393,0.349,0.792
		c-0.524,0.86-1.07,1.706-1.61,2.556c-0.064,0.101-0.145,0.192-0.216,0.288c-1.023,1.378-1.008,1.364,0.195,2.548
		c0.546,0.537,1.07,1.112,1.515,1.733c0.549,0.767,0.137,1.643-0.803,1.731c-0.691,0.065-1.397,0.06-2.089-0.003
		c-0.273-0.025-0.55-0.259-0.78-0.452c-0.607-0.509-1.152-1.097-1.79-1.56c-0.761-0.552-1.665-0.087-1.782,0.855
		c-0.153,1.222-0.158,1.224-1.363,1.177c-1.198-0.047-2.246-0.48-3.164-1.235c-2.128-1.749-3.616-3.962-4.674-6.484
		c-0.194-0.462-0.411-0.913-0.617-1.369C2.179,10.671,2.179,10.479,2.179,10.286z"/>
</g>
<g id="Слой_11" display="none">
	<g id="Google_plus_2_" display="inline">
		<polygon fill="#FFFFFF" points="18.311,8.951 18.311,6.719 17.192,6.719 17.192,8.951 14.954,8.951 14.954,10.068 17.192,10.068 
			17.192,12.299 18.311,12.299 18.311,10.068 20.549,10.068 20.549,8.951 		"/>
		<path fill="#FFFFFF" d="M12.167,15.889c-1.567-1.14-1.95-1.783-0.454-2.937c0.843-0.65,1.434-1.516,1.434-2.585
			c0-1.165-0.478-2.222-1.376-2.736h1.274l1.084-1.134c0,0-4.087,0-4.851,0c-3.028,0-4.513,1.81-4.513,3.801
			c0,2.035,1.4,3.637,4.134,3.637c-0.424,0.853-0.254,1.641,0.439,2.205c-4.668,0-5.667,2.043-5.667,3.616
			c0,2.04,2.35,3.252,5.169,3.252c3.853,0,5.385-2.037,5.385-3.709C14.223,17.934,13.712,17.043,12.167,15.889z M6.587,10.267
			C6.361,8.555,7.238,7.244,8.546,7.283c1.307,0.039,2.425,1.445,2.651,3.156c0.226,1.713-0.526,2.815-1.833,2.776
			C8.056,13.176,6.813,11.98,6.587,10.267z M8.851,22.101c-1.948,0-3.355-1.229-3.355-2.707c0-1.448,1.651-2.696,3.598-2.675
			c2.161,0,3.45,1.342,3.45,2.75C12.545,20.947,11.341,22.101,8.851,22.101z"/>
	</g>
</g>
<g id="Слой_11__x28_копия_x29_" display="none">
	<g id="Google_plus_1_" display="inline">
		<polygon fill="#25798C" points="18.311,8.951 18.311,6.719 17.192,6.719 17.192,8.951 14.954,8.951 14.954,10.068 17.192,10.068 
			17.192,12.299 18.311,12.299 18.311,10.068 20.549,10.068 20.549,8.951 		"/>
		<path fill="#25798C" d="M12.167,15.889c-1.567-1.14-1.95-1.783-0.454-2.937c0.843-0.65,1.434-1.516,1.434-2.585
			c0-1.165-0.478-2.222-1.376-2.736h1.274l1.084-1.134c0,0-4.087,0-4.851,0c-3.028,0-4.513,1.81-4.513,3.801
			c0,2.035,1.4,3.637,4.134,3.637c-0.424,0.853-0.254,1.641,0.439,2.205c-4.668,0-5.667,2.043-5.667,3.616
			c0,2.04,2.35,3.252,5.169,3.252c3.853,0,5.385-2.037,5.385-3.709C14.223,17.934,13.712,17.043,12.167,15.889z M6.587,10.267
			C6.361,8.555,7.238,7.244,8.546,7.283c1.307,0.039,2.425,1.445,2.651,3.156c0.226,1.713-0.526,2.815-1.833,2.776
			C8.056,13.176,6.813,11.98,6.587,10.267z M8.851,22.101c-1.948,0-3.355-1.229-3.355-2.707c0-1.448,1.651-2.696,3.598-2.675
			c2.161,0,3.45,1.342,3.45,2.75C12.545,20.947,11.341,22.101,8.851,22.101z"/>
	</g>
</g>
<g id="arrow_pagination" display="none">
	<path display="inline" d="M7.523,23.416c-0.04-0.021-0.081-0.041-0.121-0.063C7.123,23.2,7.051,22.849,7.251,22.6
		c0.047-0.058,0.102-0.11,0.155-0.163c2.575-2.576,5.151-5.151,7.727-7.726c0.044-0.044,0.099-0.079,0.179-0.193
		c-0.06-0.035-0.131-0.059-0.178-0.106c-2.589-2.586-5.178-5.173-7.761-7.765C7.27,6.544,7.176,6.397,7.15,6.257
		C7.099,5.975,7.283,5.814,7.523,5.709c0.081,0,0.161,0,0.242,0c0.129,0.102,0.269,0.193,0.385,0.309
		c2.695,2.69,5.386,5.383,8.079,8.075c0.049,0.049,0.099,0.097,0.142,0.15c0.156,0.196,0.155,0.442-0.002,0.635
		c-0.047,0.058-0.102,0.11-0.155,0.163c-2.688,2.689-5.376,5.377-8.066,8.064c-0.116,0.116-0.255,0.208-0.383,0.311
		C7.685,23.416,7.604,23.416,7.523,23.416z"/>
</g>
<g id="arrow_для_попапов" display="none">
	<path display="inline" fill="#25798C" d="M8.415,17.612c-0.023-0.012-0.046-0.023-0.068-0.036c-0.159-0.087-0.2-0.287-0.086-0.428
		c0.027-0.033,0.058-0.062,0.088-0.092c1.462-1.462,2.924-2.925,4.387-4.387c0.025-0.025,0.056-0.045,0.102-0.109
		c-0.034-0.02-0.074-0.033-0.101-0.06c-1.47-1.468-2.94-2.937-4.406-4.409C8.271,8.032,8.218,7.948,8.203,7.869
		c-0.029-0.16,0.076-0.252,0.212-0.311c0.046,0,0.092,0,0.137,0c0.073,0.058,0.153,0.11,0.219,0.175
		c1.53,1.527,3.058,3.056,4.587,4.585c0.028,0.028,0.056,0.055,0.081,0.085c0.089,0.111,0.088,0.251-0.001,0.361
		c-0.027,0.033-0.058,0.062-0.088,0.092c-1.526,1.527-3.052,3.053-4.58,4.579c-0.066,0.066-0.145,0.118-0.218,0.177
		C8.507,17.612,8.461,17.612,8.415,17.612z"/>
</g>
<g id="Blogosphere_promotion" display="none">
	<path display="inline" fill="#FFFFFF" d="M12.301,7.523c0.159,0.047,0.326,0.06,0.482,0.116c0.761,0.274,1.246,0.785,1.436,1.549
		c0.022,0.088,0.062,0.123,0.15,0.155c0.741,0.268,1.177,0.79,1.287,1.539c0.126,0.857-0.355,1.649-1.174,1.989
		c-0.22,0.091-0.451,0.138-0.691,0.138c-1.34,0.001-2.681-0.013-4.021,0.005c-0.949,0.013-1.752-0.78-1.753-1.71
		c0-0.503,0.21-0.925,0.615-1.249c0.06-0.048,0.077-0.089,0.065-0.166C8.586,9.151,9.28,8.482,10.048,8.584
		c0.072,0.01,0.104-0.009,0.139-0.063c0.3-0.454,0.722-0.755,1.255-0.91c0.126-0.037,0.256-0.059,0.384-0.088
		C11.984,7.523,12.143,7.523,12.301,7.523z M11.742,12.595c0.684,0,1.368,0,2.053,0c0.048,0,0.097,0,0.144-0.006
		c1.024-0.136,1.619-1.228,1.153-2.118c-0.216-0.414-0.554-0.683-1.029-0.784c-0.15-0.032-0.193-0.078-0.219-0.225
		c-0.012-0.068-0.023-0.137-0.039-0.205c-0.18-0.748-0.87-1.301-1.666-1.316c-0.733-0.014-1.287,0.292-1.654,0.907
		c-0.117,0.196-0.167,0.22-0.378,0.166c-0.591-0.15-1.12,0.365-0.961,0.937c0.05,0.182,0.032,0.233-0.124,0.335
		c-0.469,0.307-0.672,0.804-0.535,1.334c0.149,0.574,0.683,0.994,1.275,0.978C10.421,12.582,11.082,12.595,11.742,12.595z"/>
	<path display="inline" fill="#FFFFFF" d="M11.682,17.706c-0.05-0.055-0.128-0.055-0.19-0.09c-0.254-0.145-0.385-0.362-0.377-0.64
		c0.008-0.288,0.16-0.502,0.435-0.623c0.069-0.03,0.088-0.064,0.088-0.133c-0.002-0.756-0.002-1.511-0.001-2.267
		c0-0.162,0.077-0.249,0.213-0.247c0.107,0.001,0.19,0.071,0.203,0.174c0.005,0.039,0.004,0.079,0.004,0.119
		c0,0.732,0.001,1.465-0.002,2.197c0,0.082,0.016,0.126,0.103,0.163c0.265,0.111,0.44,0.396,0.423,0.662
		c-0.019,0.307-0.222,0.559-0.519,0.65c-0.031,0.009-0.07,0.003-0.092,0.034C11.874,17.706,11.778,17.706,11.682,17.706z
		 M11.844,17.292c0.171,0.001,0.31-0.128,0.312-0.291c0.002-0.161-0.14-0.301-0.305-0.301c-0.169,0.001-0.31,0.134-0.313,0.295
		C11.536,17.157,11.673,17.29,11.844,17.292z"/>
	<path display="inline" fill="#FFFFFF" d="M12.793,14.518c0-0.189-0.001-0.378,0-0.566c0.001-0.155,0.076-0.242,0.207-0.245
		c0.133-0.002,0.218,0.087,0.22,0.246c0.003,0.338,0.001,0.676,0.002,1.013c0,0.059-0.001,0.12,0.01,0.178
		c0.027,0.144,0.17,0.267,0.326,0.273c0.202,0.007,0.405,0.001,0.608,0.004c0.055,0.001,0.067-0.031,0.084-0.069
		c0.14-0.305,0.439-0.467,0.783-0.427c0.308,0.036,0.565,0.283,0.619,0.595c0.06,0.346-0.162,0.682-0.522,0.789
		c-0.338,0.1-0.721-0.065-0.867-0.382c-0.034-0.073-0.071-0.094-0.151-0.094c-0.213,0-0.426,0.017-0.638-0.012
		c-0.368-0.05-0.66-0.35-0.675-0.707c-0.008-0.198-0.002-0.397-0.002-0.596C12.795,14.518,12.794,14.518,12.793,14.518z
		 M15.233,15.632c0.001-0.17-0.137-0.304-0.312-0.303c-0.168,0.002-0.308,0.138-0.307,0.3c0.001,0.161,0.143,0.298,0.31,0.298
		C15.094,15.927,15.232,15.796,15.233,15.632z"/>
	<path display="inline" fill="#FFFFFF" d="M10.9,14.53c0,0.166,0.001,0.331,0,0.497c-0.004,0.477-0.342,0.802-0.839,0.806
		c-0.168,0.002-0.337,0.002-0.505-0.001c-0.06-0.001-0.089,0.016-0.114,0.072c-0.136,0.301-0.445,0.467-0.775,0.424
		c-0.321-0.042-0.572-0.283-0.624-0.602c-0.057-0.346,0.163-0.676,0.519-0.781c0.342-0.101,0.723,0.06,0.868,0.379
		c0.037,0.081,0.081,0.098,0.161,0.095c0.161-0.005,0.323,0,0.485-0.002c0.245-0.002,0.394-0.141,0.396-0.376
		c0.003-0.345,0.001-0.689,0.002-1.034c0-0.046,0.003-0.093,0.012-0.138c0.021-0.108,0.109-0.171,0.222-0.164
		c0.106,0.007,0.187,0.079,0.19,0.187c0.005,0.212,0.001,0.424,0.001,0.636C10.899,14.53,10.9,14.53,10.9,14.53z M8.767,15.921
		c0.172,0.001,0.31-0.128,0.313-0.291c0.002-0.159-0.138-0.3-0.304-0.304c-0.172-0.004-0.315,0.132-0.314,0.301
		C8.462,15.794,8.593,15.921,8.767,15.921z"/>
</g>
<g id="Blogosphere_promotion_1_" display="none">
	<path display="inline" fill="#FFFFFF" d="M16.967,10.758c-0.065,0.176-0.07,0.364-0.101,0.547c-0.106,0.638-0.201,1.278-0.31,1.915
		c-0.078,0.457-0.461,0.781-0.925,0.815c-0.382,0.028-0.763,0.013-1.145,0.015c-0.614,0.004-1.228,0-1.842,0.002
		c-0.262,0.001-0.498-0.07-0.697-0.243c-0.041-0.035-0.068-0.039-0.113-0.005c-0.07,0.052-0.153,0.07-0.241,0.069
		c-0.324-0.001-0.648,0.001-0.972-0.001c-0.261-0.002-0.431-0.169-0.432-0.428c-0.002-1.013-0.002-2.026,0-3.039
		c0-0.246,0.142-0.414,0.387-0.428c0.357-0.021,0.715-0.018,1.073,0c0.096,0.005,0.177,0.046,0.246,0.112
		c0.026,0.025,0.047,0.047,0.088,0.033c0.367-0.132,0.694-0.319,0.905-0.663c0.107-0.173,0.147-0.365,0.147-0.566
		c0.001-0.358,0-0.716,0-1.074c0-0.174,0.053-0.238,0.224-0.274c0.223-0.047,0.445-0.055,0.666,0.014
		c0.401,0.125,0.589,0.422,0.644,0.814c0.054,0.386,0.018,0.776,0.021,1.165c0.001,0.099,0.026,0.124,0.124,0.123
		c0.406-0.006,0.812-0.003,1.218-0.002c0.348,0.001,0.636,0.126,0.849,0.41c0.096,0.128,0.134,0.278,0.185,0.424
		C16.967,10.58,16.967,10.669,16.967,10.758z M14.04,13.624c0-0.001,0-0.001,0-0.001c0.488-0.001,0.976,0.005,1.463-0.003
		c0.374-0.006,0.59-0.187,0.65-0.55c0.127-0.769,0.246-1.54,0.365-2.311c0.064-0.414-0.167-0.678-0.587-0.678
		c-0.484-0.001-0.969,0-1.453,0c-0.24,0-0.309-0.069-0.31-0.31c-0.002-0.416,0.002-0.832-0.008-1.248
		c-0.009-0.394-0.225-0.598-0.601-0.594c-0.076,0.001-0.106,0.02-0.104,0.103c0.006,0.273,0.003,0.546,0.002,0.819
		c-0.001,0.319-0.063,0.622-0.249,0.891c-0.269,0.39-0.649,0.625-1.088,0.775c-0.07,0.024-0.094,0.05-0.094,0.125
		c0.003,0.795,0.001,1.59,0.002,2.384c0.001,0.375,0.225,0.598,0.598,0.599C13.098,13.625,13.569,13.624,14.04,13.624z
		 M11.603,11.928c0-0.481-0.002-0.962,0.002-1.443c0.001-0.075-0.017-0.099-0.095-0.098c-0.269,0.005-0.539,0.004-0.808,0
		c-0.074-0.001-0.099,0.015-0.099,0.095c0.003,0.958,0.003,1.917,0,2.875c0,0.075,0.019,0.1,0.097,0.099
		c0.269-0.004,0.539-0.004,0.808,0c0.076,0.001,0.098-0.019,0.097-0.097C11.601,12.883,11.603,12.406,11.603,11.928z"/>
	<path display="inline" fill="#FFFFFF" d="M6.487,9.714C6.539,9.575,6.559,9.427,6.63,9.294C6.887,8.818,7.28,8.538,7.823,8.528
		c0.873-0.016,1.746-0.006,2.62-0.006c0.58,0,1.16,0,1.74,0c0.044,0,0.09,0,0.132,0.011c0.088,0.023,0.153,0.121,0.147,0.21
		c-0.007,0.099-0.081,0.18-0.18,0.192c-0.044,0.005-0.088,0.005-0.133,0.005c-1.395,0-2.79,0-4.186,0
		c-0.175,0-0.348,0.018-0.506,0.1C7.081,9.237,6.91,9.553,6.91,9.972c0.001,1.235,0.001,2.47,0.001,3.705
		c0,0.188-0.003,0.375,0.001,0.563c0.008,0.484,0.276,0.834,0.734,0.961c0.096,0.027,0.195,0.03,0.294,0.031
		c0.259,0.002,0.519,0,0.778,0.001c0.221,0,0.288,0.068,0.288,0.285c0,0.495,0,0.989,0,1.49c0.044-0.004,0.063-0.039,0.087-0.062
		c0.557-0.533,1.116-1.064,1.67-1.6c0.088-0.085,0.182-0.118,0.302-0.118c1.296,0.002,2.593,0,3.889,0.002
		c0.377,0.001,0.673-0.143,0.881-0.46c0.035-0.054,0.058-0.115,0.091-0.171c0.062-0.104,0.171-0.14,0.271-0.092
		c0.103,0.049,0.15,0.165,0.102,0.277c-0.184,0.422-0.498,0.699-0.943,0.823c-0.136,0.038-0.275,0.046-0.415,0.046
		c-1.262-0.001-2.524,0-3.787-0.002c-0.07,0-0.12,0.02-0.17,0.068c-0.664,0.639-1.329,1.275-1.994,1.912
		c-0.063,0.06-0.128,0.115-0.223,0.1c-0.122-0.019-0.183-0.101-0.184-0.254c-0.001-0.276,0-0.553,0-0.829
		c0-0.293-0.003-0.587,0.002-0.88c0.002-0.089-0.016-0.119-0.114-0.119C8.2,15.648,7.93,15.671,7.662,15.632
		c-0.55-0.081-1-0.491-1.134-1.03c-0.01-0.041-0.004-0.088-0.041-0.119C6.487,12.893,6.487,11.303,6.487,9.714z"/>
</g>
<g id="Blogosphere_promotion_2_" display="none">
	<path display="inline" fill="#FFFFFF" d="M16.951,13.049c-0.034,0.02-0.033,0.057-0.043,0.089c-0.114,0.375-0.444,0.627-0.85,0.651
		c-0.356,0.021-0.714-0.207-0.863-0.556c-0.026-0.062-0.061-0.078-0.124-0.078c-0.299,0.003-0.598,0.002-0.897,0.001
		c-0.133-0.001-0.215-0.065-0.233-0.173c-0.022-0.137,0.077-0.243,0.235-0.244c0.285-0.002,0.57-0.003,0.855,0.001
		c0.07,0.001,0.101-0.017,0.119-0.088c0.109-0.424,0.486-0.711,0.906-0.695c0.45,0.017,0.8,0.327,0.879,0.779
		c0.002,0.009,0.01,0.017,0.015,0.025C16.951,12.856,16.951,12.953,16.951,13.049z M16.032,12.383
		c-0.275,0.001-0.488,0.216-0.487,0.491c0.001,0.274,0.217,0.488,0.491,0.487c0.274-0.001,0.488-0.217,0.487-0.491
		C16.522,12.595,16.308,12.382,16.032,12.383z"/>
	<path display="inline" fill="#FFFFFF" d="M6.392,12.74c0.053-0.166,0.103-0.331,0.226-0.465c0.243-0.266,0.543-0.373,0.892-0.293
		c0.352,0.081,0.584,0.306,0.679,0.659c0.02,0.076,0.05,0.102,0.131,0.1c0.24-0.007,0.481-0.003,0.721-0.002
		c0.034,0,0.069-0.001,0.103,0.005c0.104,0.018,0.178,0.106,0.177,0.209c-0.001,0.101-0.068,0.181-0.172,0.201
		c-0.044,0.008-0.089,0.011-0.133,0.011c-0.251,0.001-0.501,0.002-0.752-0.001c-0.059-0.001-0.091,0.015-0.116,0.073
		c-0.158,0.355-0.512,0.576-0.875,0.553c-0.405-0.025-0.714-0.269-0.841-0.661c-0.009-0.028-0.008-0.062-0.04-0.08
		C6.392,12.946,6.392,12.843,6.392,12.74z M7.309,13.361c0.274,0,0.49-0.215,0.49-0.489c0-0.275-0.213-0.489-0.489-0.49
		c-0.276,0-0.49,0.213-0.49,0.488C6.82,13.146,7.034,13.361,7.309,13.361z"/>
	<path display="inline" fill="#FFFFFF" d="M13.057,13.13c0,0.189-0.001,0.378,0,0.567c0.002,0.201-0.054,0.379-0.193,0.527
		c-0.034,0.037-0.039,0.076-0.039,0.122c0.001,0.254,0.003,0.509-0.001,0.763c-0.001,0.065,0.023,0.096,0.078,0.125
		c0.521,0.274,1.013,0.592,1.475,0.956c0.223,0.176,0.338,0.4,0.338,0.683c0.001,0.237,0.001,0.474,0,0.711
		c0,0.093-0.02,0.177-0.109,0.229c-0.144,0.083-0.311-0.018-0.314-0.197c-0.004-0.237-0.006-0.474,0-0.711
		c0.004-0.165-0.056-0.287-0.187-0.389c-0.467-0.365-0.962-0.684-1.49-0.951c-0.155-0.078-0.222-0.187-0.219-0.359
		c0.006-0.33,0.003-0.66,0.001-0.99c0-0.096,0.027-0.175,0.107-0.232c0.088-0.063,0.13-0.153,0.129-0.257
		c-0.003-0.422,0.02-0.845-0.013-1.267c-0.028-0.355-0.362-0.682-0.717-0.713c-0.199-0.017-0.399-0.031-0.593,0.027
		c-0.371,0.111-0.592,0.415-0.598,0.829c-0.005,0.364-0.001,0.729-0.001,1.093c0,0.12,0.036,0.222,0.137,0.295
		c0.077,0.055,0.1,0.134,0.099,0.226c-0.002,0.34-0.002,0.681,0,1.021c0.001,0.146-0.058,0.244-0.19,0.312
		c-0.539,0.276-1.049,0.598-1.525,0.973c-0.124,0.098-0.182,0.216-0.179,0.372c0.004,0.241,0.001,0.481,0.001,0.722
		c0,0.095-0.04,0.17-0.127,0.206c-0.076,0.032-0.155,0.024-0.222-0.034c-0.051-0.043-0.072-0.1-0.072-0.164
		c0-0.275-0.002-0.55,0.004-0.825c0.005-0.254,0.13-0.449,0.325-0.604c0.46-0.367,0.954-0.683,1.474-0.958
		c0.064-0.034,0.087-0.07,0.085-0.142c-0.004-0.251-0.003-0.502-0.001-0.753c0-0.051-0.01-0.091-0.046-0.13
		c-0.125-0.134-0.183-0.298-0.184-0.479c-0.002-0.412-0.007-0.825,0.002-1.237c0.014-0.621,0.558-1.162,1.181-1.185
		c0.303-0.011,0.607-0.023,0.886,0.127c0.43,0.231,0.67,0.589,0.695,1.079c0.01,0.202,0.002,0.405,0.002,0.608L13.057,13.13z"/>
	<path display="inline" fill="#FFFFFF" d="M12.588,8.512c0,0.413-0.283,0.78-0.688,0.882c-0.069,0.017-0.086,0.045-0.085,0.111
		c0.003,0.289,0.002,0.577,0.001,0.866c0,0.092-0.03,0.17-0.115,0.215c-0.073,0.039-0.145,0.034-0.214-0.012
		c-0.086-0.056-0.098-0.144-0.098-0.235c-0.001-0.282-0.003-0.564,0.002-0.845c0.001-0.079-0.018-0.12-0.095-0.154
		c-0.379-0.166-0.579-0.543-0.527-0.977c0.042-0.35,0.362-0.682,0.727-0.753C12.056,7.5,12.588,7.939,12.588,8.512z M11.671,8.018
		c-0.268,0.001-0.492,0.226-0.492,0.494c0,0.266,0.228,0.493,0.494,0.492c0.267-0.001,0.493-0.229,0.492-0.495
		C12.164,8.24,11.938,8.017,11.671,8.018z"/>
	<path display="inline" fill="#FFFFFF" d="M8.613,10.702c-0.501-0.008-0.897-0.361-0.939-0.809C7.629,9.411,7.933,8.979,8.4,8.891
		C8.776,8.82,9.097,8.938,9.324,9.25c0.216,0.297,0.238,0.623,0.074,0.952c-0.035,0.07-0.024,0.105,0.027,0.156
		c0.195,0.189,0.386,0.382,0.577,0.575c0.063,0.064,0.1,0.139,0.067,0.233c-0.03,0.083-0.09,0.128-0.174,0.141
		c-0.086,0.013-0.15-0.033-0.208-0.09c-0.187-0.187-0.376-0.372-0.56-0.563c-0.053-0.055-0.094-0.072-0.167-0.033
		C8.843,10.684,8.714,10.707,8.613,10.702z M9.077,9.786c-0.001-0.273-0.217-0.49-0.489-0.49c-0.276,0-0.499,0.225-0.494,0.498
		c0.005,0.267,0.233,0.491,0.497,0.489C8.858,10.28,9.077,10.055,9.077,9.786z"/>
	<path display="inline" fill="#FFFFFF" d="M14.728,10.702c-0.124,0.004-0.277-0.032-0.415-0.116
		c-0.052-0.032-0.081-0.024-0.121,0.018c-0.19,0.194-0.383,0.385-0.575,0.577c-0.055,0.055-0.117,0.099-0.199,0.089
		c-0.158-0.018-0.238-0.193-0.15-0.326c0.023-0.034,0.052-0.064,0.081-0.093c0.184-0.185,0.368-0.371,0.554-0.554
		c0.039-0.038,0.052-0.068,0.028-0.124c-0.234-0.55,0.026-1.112,0.599-1.268c0.35-0.095,0.664-0.001,0.906,0.271
		c0.259,0.291,0.312,0.631,0.153,0.987C15.435,10.507,15.131,10.695,14.728,10.702z M14.267,9.786c0,0.27,0.22,0.494,0.487,0.496
		c0.265,0.002,0.492-0.223,0.497-0.49c0.004-0.273-0.22-0.498-0.495-0.497C14.483,9.296,14.268,9.513,14.267,9.786z"/>
</g>
<g id="ppc" display="none">
	<path display="inline" fill="#FFFFFF" d="M12.622,7.521c0.613,0.128,0.816,0.585,0.91,1.131c0.008,0.048,0.015,0.096,0.023,0.151
		c0.057,0,0.106,0,0.154,0c0.916,0,1.831,0,2.747,0c0.045,0,0.091-0.001,0.135,0.008c0.113,0.023,0.181,0.112,0.171,0.221
		c-0.011,0.113-0.075,0.179-0.188,0.193c-0.045,0.005-0.09,0.006-0.135,0.006c-3.203,0-6.405,0-9.608,0
		c-0.049,0-0.099,0-0.147-0.008c-0.101-0.017-0.16-0.08-0.171-0.182C6.501,8.933,6.55,8.856,6.652,8.821
		c0.049-0.016,0.105-0.018,0.157-0.018c0.78-0.001,1.56-0.001,2.34-0.001c0.045,0,0.089,0,0.141,0
		c0.084-0.591,0.245-1.122,0.918-1.282C11.013,7.521,11.817,7.521,12.622,7.521z M9.701,8.797c1.163,0,2.286,0,3.439,0
		c-0.052-0.172-0.091-0.335-0.149-0.489c-0.088-0.235-0.264-0.36-0.518-0.36c-0.701-0.001-1.403-0.001-2.104,0
		c-0.227,0-0.4,0.104-0.489,0.31C9.807,8.424,9.763,8.604,9.701,8.797z"/>
	<path display="inline" fill="#FFFFFF" d="M7.178,9.665c2.978,0,5.94,0,8.91,0c0,0.105,0.004,0.206-0.001,0.307
		c-0.055,1.333-0.11,2.665-0.166,3.998c-0.072,1.714-0.145,3.428-0.219,5.142c-0.011,0.261-0.105,0.494-0.276,0.695
		c-0.183,0.214-0.421,0.306-0.693,0.323c-0.11,0.007-0.222,0.003-0.332,0.003c-1.913,0-3.826,0-5.739,0.001
		c-0.327,0-0.616-0.083-0.831-0.347c-0.155-0.19-0.245-0.409-0.257-0.653c-0.038-0.767-0.068-1.533-0.1-2.3
		c-0.055-1.292-0.109-2.583-0.163-3.875c-0.044-1.058-0.088-2.116-0.131-3.174C7.177,9.75,7.178,9.713,7.178,9.665z M7.624,10.091
		c0,0.059-0.002,0.105,0,0.149c0.05,1.214,0.101,2.428,0.151,3.642c0.072,1.71,0.144,3.42,0.215,5.13
		c0.015,0.363,0.18,0.703,0.719,0.701c1.95-0.009,3.9-0.004,5.85-0.004c0.07,0,0.139-0.005,0.209-0.013
		c0.211-0.024,0.361-0.139,0.437-0.332c0.044-0.112,0.07-0.237,0.075-0.358c0.056-1.255,0.105-2.51,0.157-3.765
		c0.07-1.669,0.141-3.338,0.212-5.007c0.002-0.047,0-0.095,0-0.144C12.968,10.091,10.301,10.091,7.624,10.091z"/>
	<path display="inline" fill="#FFFFFF" d="M11.634,16.93c-0.8,0-1.601,0-2.401,0c-0.025,0-0.049,0-0.074,0
		c-0.195-0.001-0.3-0.076-0.301-0.215c0-0.139,0.104-0.215,0.299-0.215c1.654,0,3.308,0,4.962,0c0.045,0,0.091,0.003,0.134,0.013
		c0.102,0.023,0.153,0.097,0.158,0.195c0.004,0.093-0.041,0.17-0.134,0.2c-0.053,0.017-0.113,0.022-0.169,0.022
		C13.284,16.93,12.459,16.93,11.634,16.93z"/>
	<path display="inline" fill="#FFFFFF" d="M11.63,19.068c-0.817,0-1.634,0-2.45,0c-0.215,0-0.324-0.075-0.321-0.219
		c0.003-0.142,0.107-0.213,0.315-0.213c1.642,0,3.283,0,4.925,0c0.208,0,0.312,0.071,0.315,0.213
		c0.002,0.144-0.107,0.219-0.322,0.219C13.272,19.068,12.451,19.068,11.63,19.068z"/>
	<path display="inline" fill="#FFFFFF" d="M11.624,17.995c-0.813,0-1.625,0-2.438,0c-0.037,0-0.074,0.001-0.111-0.001
		C8.948,17.984,8.86,17.9,8.859,17.785c-0.002-0.113,0.088-0.203,0.212-0.213c0.037-0.003,0.074-0.001,0.111-0.001
		c1.637,0,3.275,0,4.912,0c0.012,0,0.025,0,0.037,0c0.184,0.001,0.287,0.08,0.284,0.216c-0.003,0.133-0.102,0.208-0.28,0.208
		C13.298,17.995,12.461,17.995,11.624,17.995z"/>
</g>
<g id="ppc_1_" display="none">
	<path display="inline" fill="#FFFFFF" d="M3.808,8.317c0.05-0.112,0.086-0.234,0.154-0.333c0.168-0.245,0.415-0.351,0.71-0.351
		c4.289,0,8.578-0.001,12.867,0.001c0.514,0,0.861,0.348,0.861,0.86c0.002,2.973,0.002,5.947,0,8.92
		c0,0.508-0.338,0.845-0.847,0.857c-0.024,0.001-0.047,0-0.071,0c-4.251,0-8.502-0.001-12.753,0.002
		c-0.376,0-0.665-0.127-0.839-0.471c-0.031-0.062-0.054-0.129-0.081-0.194C3.808,14.511,3.808,11.414,3.808,8.317z M4.429,16.427
		c4.461,0,8.899,0,13.35,0c0-0.065,0-0.121,0-0.178c0-2.555,0-5.11,0-7.665c0-0.288-0.042-0.329-0.328-0.329
		c-4.231,0-8.463,0-12.694,0c-0.286,0-0.328,0.042-0.328,0.329c0,2.555,0,5.11,0,7.665C4.429,16.306,4.429,16.362,4.429,16.427z
		 M11.101,17.567c0.19,0.002,0.365-0.166,0.371-0.357c0.006-0.196-0.166-0.373-0.365-0.375c-0.194-0.001-0.365,0.162-0.371,0.354
		C10.73,17.384,10.905,17.565,11.101,17.567z"/>
	<path display="inline" fill="#FFFFFF" d="M11.102,20.002c-0.912,0-1.823,0-2.735,0c-0.192,0-0.201-0.01-0.202-0.203
		c0-0.09,0.005-0.181-0.001-0.271c-0.009-0.124,0.046-0.17,0.167-0.169c0.456,0.003,0.912,0.001,1.367,0.001
		c0.207,0,0.217-0.01,0.217-0.217c0.001-0.331,0.001-0.331,0.336-0.331c0.612,0,1.225,0,1.837,0c0.181,0,0.202,0.023,0.204,0.207
		c0.004,0.36-0.045,0.341,0.35,0.34c0.408,0,0.817,0.002,1.225-0.001c0.126-0.001,0.186,0.041,0.176,0.174
		c-0.007,0.094-0.001,0.19-0.002,0.285c-0.001,0.168-0.016,0.183-0.192,0.183c-0.636,0-1.272,0-1.909,0
		C11.662,20.002,11.382,20.002,11.102,20.002z"/>
	<path display="inline" fill="#FFFFFF" d="M13.595,13.419c-0.033,0.215-0.056,0.408-0.092,0.599
		c-0.068,0.354-0.358,0.465-0.644,0.243c-0.288-0.224-0.57-0.457-0.85-0.693c-0.123-0.103-0.253-0.153-0.415-0.151
		c-0.551,0.006-1.101,0.003-1.652,0.002c-0.349-0.001-0.54-0.187-0.54-0.535c-0.002-0.921-0.002-1.842,0-2.763
		c0.001-0.355,0.191-0.543,0.549-0.543c1.401-0.001,2.801-0.001,4.202,0c0.359,0,0.543,0.187,0.544,0.546
		c0.001,0.916,0.001,1.833,0,2.749c0,0.367-0.183,0.546-0.554,0.547C13.962,13.419,13.783,13.419,13.595,13.419z M9.946,12.879
		c0.567,0,1.118,0.003,1.668-0.001c0.268-0.002,0.501,0.078,0.707,0.251c0.22,0.186,0.447,0.364,0.686,0.558
		c0.02-0.127,0.036-0.233,0.055-0.339c0.056-0.311,0.244-0.468,0.562-0.47c0.174-0.001,0.348,0,0.521,0c0-0.93,0-1.843,0-2.754
		c-1.406,0-2.799,0-4.199,0C9.946,11.043,9.946,11.953,9.946,12.879z"/>
	<path display="inline" fill="#FFFFFF" d="M8.059,11.202c0,0.929,0,1.838,0,2.763c0.172,0,0.337-0.001,0.502,0
		c0.351,0.002,0.532,0.155,0.593,0.504c0.016,0.093,0.029,0.187,0.045,0.299c0.044-0.031,0.078-0.053,0.109-0.078
		c0.162-0.131,0.336-0.252,0.483-0.398c0.31-0.307,0.69-0.354,1.095-0.323c0.176,0.013,0.283,0.128,0.276,0.282
		c-0.007,0.149-0.121,0.271-0.287,0.25c-0.376-0.049-0.656,0.104-0.917,0.35c-0.179,0.169-0.38,0.315-0.572,0.47
		c-0.325,0.263-0.617,0.157-0.689-0.251c-0.032-0.182-0.055-0.365-0.085-0.564c-0.193,0-0.381,0.001-0.57,0
		c-0.343-0.002-0.531-0.186-0.531-0.526c-0.001-0.926-0.001-1.852,0-2.778c0-0.343,0.182-0.531,0.525-0.534
		c0.232-0.003,0.465-0.002,0.697,0.015c0.142,0.011,0.223,0.132,0.214,0.271c-0.008,0.131-0.099,0.227-0.235,0.243
		c-0.056,0.007-0.114,0.005-0.171,0.005C8.386,11.203,8.23,11.202,8.059,11.202z"/>
</g>
<g id="ppc_2_" display="none">
	<path display="inline" fill="#FFFFFF" d="M9.307,13.805c0.012-0.006,0.011-0.019,0.014-0.03c0.042-0.129,0.129-0.209,0.262-0.231
		c0.135-0.023,0.244,0.027,0.324,0.137c0.019,0.026,0.034,0.055,0.042,0.087c0.005,0.022,0.016,0.028,0.039,0.028
		c0.095-0.001,0.191-0.001,0.286,0c0.058,0.001,0.093,0.049,0.072,0.098c-0.014,0.033-0.041,0.045-0.076,0.045
		c-0.093,0-0.186,0.001-0.279-0.001c-0.025,0-0.036,0.007-0.043,0.031c-0.042,0.135-0.168,0.227-0.31,0.227
		c-0.143,0-0.271-0.093-0.314-0.227c-0.004-0.014-0.004-0.03-0.018-0.04C9.307,13.889,9.307,13.847,9.307,13.805z M9.452,13.866
		c-0.001,0.103,0.082,0.187,0.184,0.187c0.101,0,0.184-0.082,0.186-0.183c0.002-0.101-0.084-0.187-0.186-0.187
		C9.535,13.683,9.453,13.764,9.452,13.866z"/>
	<path display="inline" fill="#FFFFFF" d="M11.143,12.081c0.037,0.017,0.079,0.022,0.114,0.044c0.121,0.076,0.179,0.185,0.163,0.326
		c-0.015,0.134-0.093,0.225-0.221,0.27c-0.027,0.01-0.035,0.021-0.034,0.048c0.002,0.095,0.001,0.191,0,0.286
		c-0.001,0.039-0.024,0.063-0.061,0.069c-0.029,0.005-0.061-0.012-0.075-0.039c-0.008-0.016-0.007-0.034-0.007-0.051
		c0-0.091-0.001-0.181,0-0.272c0-0.022-0.006-0.032-0.028-0.039c-0.14-0.044-0.232-0.17-0.23-0.314
		c0.002-0.145,0.095-0.27,0.233-0.313c0.012-0.004,0.026-0.002,0.033-0.015C11.068,12.081,11.105,12.081,11.143,12.081z
		 M11.278,12.415c0.004-0.099-0.075-0.184-0.174-0.189c-0.106-0.005-0.191,0.073-0.195,0.179c-0.004,0.101,0.078,0.187,0.181,0.191
		C11.189,12.599,11.274,12.517,11.278,12.415z"/>
	<path display="inline" fill="#FFFFFF" d="M11.033,14.161c0.047,0,0.093,0.001,0.14,0c0.066-0.001,0.115-0.048,0.116-0.11
		c0.001-0.062-0.048-0.111-0.114-0.112c-0.051-0.001-0.102,0-0.154,0c-0.15-0.001-0.259-0.099-0.266-0.248
		c-0.006-0.132,0.091-0.248,0.234-0.261c0.03-0.003,0.037-0.013,0.035-0.04c-0.002-0.024-0.001-0.049,0.001-0.073
		c0.003-0.038,0.032-0.064,0.07-0.064c0.038,0,0.067,0.025,0.07,0.064c0.002,0.029,0.002,0.058,0.001,0.087
		c-0.001,0.018,0.006,0.025,0.024,0.024c0.034-0.001,0.067-0.001,0.101,0c0.053,0,0.086,0.027,0.087,0.07
		c0.001,0.043-0.033,0.074-0.086,0.075c-0.09,0.001-0.179,0-0.269,0c-0.062,0-0.103,0.028-0.117,0.079
		c-0.02,0.07,0.027,0.136,0.099,0.141c0.067,0.004,0.135-0.002,0.202,0.005c0.109,0.011,0.208,0.102,0.223,0.208
		c0.018,0.127-0.046,0.241-0.159,0.283c-0.026,0.01-0.054,0.015-0.081,0.017c-0.02,0.001-0.025,0.01-0.024,0.029
		c0.001,0.027,0.001,0.054-0.001,0.08c-0.002,0.041-0.03,0.068-0.069,0.068c-0.04,0.001-0.069-0.027-0.072-0.069
		c-0.002-0.026-0.002-0.051,0-0.077c0.001-0.022-0.005-0.031-0.029-0.03c-0.035,0.002-0.07,0.001-0.105,0
		c-0.052-0.001-0.084-0.029-0.084-0.073c0-0.045,0.031-0.072,0.084-0.072C10.938,14.161,10.985,14.161,11.033,14.161z"/>
	<path display="inline" fill="#FFFFFF" d="M10.047,14.571c0.058-0.004,0.114,0.005,0.164,0.034c0.023,0.013,0.035,0.009,0.053-0.009
		c0.065-0.067,0.131-0.132,0.197-0.198c0.022-0.021,0.047-0.035,0.079-0.024c0.026,0.009,0.043,0.027,0.049,0.054
		c0.007,0.031-0.008,0.054-0.029,0.074c-0.066,0.066-0.131,0.132-0.198,0.197c-0.016,0.016-0.018,0.027-0.008,0.047
		c0.112,0.22-0.044,0.478-0.29,0.48c-0.159,0.002-0.307-0.129-0.326-0.279c-0.024-0.19,0.101-0.341,0.263-0.374
		C10.016,14.572,10.031,14.572,10.047,14.571z M10.064,15.083c0.101,0,0.185-0.083,0.185-0.184c0-0.1-0.083-0.184-0.183-0.186
		c-0.101-0.001-0.187,0.084-0.186,0.186C9.88,15,9.962,15.083,10.064,15.083z"/>
	<path display="inline" fill="#FFFFFF" d="M10.391,12.839c-0.002,0.062-0.013,0.108-0.037,0.15
		c-0.011,0.019-0.008,0.029,0.007,0.044c0.067,0.065,0.132,0.131,0.198,0.197c0.025,0.024,0.04,0.052,0.026,0.087
		c-0.019,0.049-0.079,0.061-0.12,0.022c-0.047-0.045-0.092-0.092-0.139-0.138c-0.026-0.025-0.047-0.058-0.078-0.075
		c-0.035-0.019-0.063,0.02-0.097,0.028c-0.209,0.054-0.416-0.098-0.417-0.315c-0.001-0.202,0.17-0.347,0.359-0.33
		c0.137,0.012,0.259,0.118,0.289,0.249C10.39,12.791,10.39,12.822,10.391,12.839z M9.879,12.836
		c-0.001,0.101,0.081,0.184,0.182,0.186c0.1,0.002,0.185-0.082,0.187-0.182c0.002-0.102-0.082-0.187-0.184-0.188
		C9.963,12.653,9.88,12.735,9.879,12.836z"/>
	<path display="inline" fill="#FFFFFF" d="M12.141,13.165c-0.059,0.003-0.116-0.007-0.167-0.036
		c-0.02-0.011-0.032-0.008-0.047,0.008c-0.065,0.067-0.131,0.132-0.197,0.197c-0.02,0.02-0.043,0.035-0.074,0.029
		c-0.052-0.011-0.076-0.067-0.044-0.111c0.018-0.024,0.041-0.044,0.062-0.066c0.051-0.051,0.101-0.102,0.153-0.153
		c0.013-0.013,0.018-0.022,0.008-0.041c-0.1-0.197,0-0.417,0.214-0.475c0.182-0.049,0.379,0.09,0.402,0.277
		C12.474,12.985,12.327,13.159,12.141,13.165z M12.309,12.837c0-0.101-0.083-0.184-0.184-0.185c-0.101,0-0.185,0.082-0.186,0.183
		c-0.001,0.102,0.084,0.187,0.186,0.187C12.226,13.022,12.309,12.939,12.309,12.837z"/>
	<path display="inline" fill="#FFFFFF" d="M11.795,14.882c0.003-0.05,0.016-0.097,0.041-0.139c0.01-0.017,0.005-0.026-0.007-0.038
		c-0.069-0.068-0.137-0.136-0.205-0.205c-0.02-0.021-0.033-0.045-0.023-0.076c0.009-0.028,0.028-0.045,0.057-0.051
		c0.031-0.006,0.054,0.01,0.074,0.03c0.065,0.065,0.13,0.13,0.195,0.195c0.015,0.015,0.026,0.02,0.047,0.009
		c0.206-0.107,0.45,0.025,0.477,0.254c0.02,0.175-0.099,0.33-0.263,0.36c-0.181,0.033-0.35-0.082-0.385-0.26
		C11.796,14.935,11.797,14.908,11.795,14.882z M12.309,14.9c0.001-0.101-0.08-0.185-0.182-0.187c-0.1-0.002-0.185,0.081-0.187,0.182
		c-0.002,0.102,0.081,0.188,0.184,0.188C12.225,15.083,12.308,15.002,12.309,14.9z"/>
	<path display="inline" fill="#FFFFFF" d="M12.061,13.796c0.047,0,0.093-0.001,0.139,0.001c0.023,0.001,0.032-0.007,0.039-0.028
		c0.05-0.157,0.2-0.25,0.363-0.226c0.158,0.024,0.28,0.166,0.279,0.326c-0.001,0.159-0.12,0.299-0.277,0.324
		c-0.162,0.026-0.316-0.068-0.365-0.223c-0.007-0.022-0.015-0.031-0.04-0.031c-0.096,0.002-0.193,0.001-0.289,0
		c-0.04-0.001-0.064-0.021-0.071-0.058c-0.007-0.034,0.008-0.058,0.036-0.076c0.015-0.009,0.031-0.008,0.047-0.009
		C11.968,13.796,12.014,13.796,12.061,13.796z M12.736,13.869c0.001-0.103-0.082-0.187-0.184-0.187
		c-0.101,0-0.184,0.082-0.186,0.183c-0.002,0.101,0.084,0.187,0.186,0.187C12.653,14.053,12.735,13.971,12.736,13.869z"/>
	<path display="inline" fill="#FFFFFF" d="M11.166,14.835c0,0.047,0.001,0.093-0.001,0.139c-0.001,0.023,0.008,0.032,0.029,0.038
		c0.157,0.05,0.25,0.2,0.225,0.363c-0.024,0.158-0.166,0.28-0.326,0.279c-0.159-0.001-0.299-0.121-0.324-0.277
		c-0.025-0.162,0.068-0.316,0.223-0.365c0.022-0.007,0.031-0.016,0.03-0.041c-0.002-0.096-0.001-0.193,0-0.289
		c0.001-0.04,0.022-0.064,0.058-0.071c0.034-0.007,0.058,0.008,0.076,0.036c0.009,0.015,0.008,0.031,0.008,0.047
		C11.166,14.742,11.166,14.788,11.166,14.835z M11.094,15.51c0.102,0,0.183-0.08,0.185-0.183c0.002-0.102-0.083-0.187-0.185-0.187
		c-0.1,0-0.183,0.083-0.185,0.184C10.907,15.426,10.991,15.51,11.094,15.51z"/>
</g>
<g id="ppc_3_" display="none">
	<path display="inline" fill="#FFFFFF" d="M12.367,11.599c0.098,0.034,0.133,0.103,0.133,0.206
		c-0.002,0.656-0.001,1.311-0.001,1.967c0,0.017,0,0.034,0,0.054c-0.055,0-0.108,0-0.164,0c0-0.686,0-1.371,0-2.059
		c-0.61,0-1.215,0-1.827,0c0,0.017,0,0.034,0,0.05c0,0.356,0,0.712,0,1.068c0,0.138-0.063,0.2-0.201,0.2c-0.248,0-0.496,0-0.743,0
		c-0.016,0-0.031,0-0.049,0c0,0.817,0,1.631,0,2.448c0.472,0,0.943,0,1.417,0c0,0.056,0,0.108,0,0.165
		c-0.016,0.001-0.031,0.002-0.046,0.002c-0.448,0-0.896,0-1.344,0c-0.133,0-0.196-0.063-0.196-0.196c0-0.795,0-1.591,0-2.386
		c0-0.095,0.028-0.18,0.086-0.257c0.287-0.379,0.573-0.758,0.859-1.138c0.046-0.061,0.107-0.098,0.177-0.124
		C11.099,11.599,11.733,11.599,12.367,11.599z M9.596,12.916c0.254,0,0.498,0,0.742,0c0-0.326,0-0.649,0-0.984
		C10.088,12.265,9.844,12.588,9.596,12.916z"/>
	<path display="inline" fill="#FFFFFF" d="M12.513,15.324c0.089,0.095,0.177,0.188,0.263,0.283c0.118,0.131,0.083,0.322-0.072,0.395
		c-0.097,0.046-0.205,0.024-0.287-0.062c-0.083-0.086-0.165-0.173-0.244-0.262c-0.023-0.026-0.041-0.029-0.073-0.015
		c-0.551,0.242-1.159-0.028-1.351-0.599c-0.152-0.451,0.068-0.977,0.496-1.186c0.522-0.255,1.124-0.041,1.357,0.491
		c0.135,0.309,0.108,0.615-0.061,0.907c-0.007,0.012-0.015,0.024-0.023,0.037C12.516,15.315,12.515,15.318,12.513,15.324z
		 M12.267,15.369c0.398-0.416,0.27-0.973-0.034-1.233c-0.299-0.257-0.758-0.267-1.065-0.012c-0.318,0.264-0.395,0.715-0.181,1.065
		c0.107,0.175,0.259,0.297,0.454,0.359c0.278,0.088,0.534,0.027,0.769-0.137c0.02,0.045,0.03,0.092,0.058,0.124
		c0.087,0.101,0.18,0.198,0.273,0.295c0.033,0.034,0.087,0.034,0.117,0.005c0.031-0.03,0.03-0.078-0.004-0.116
		c-0.052-0.058-0.106-0.114-0.159-0.171C12.429,15.478,12.371,15.398,12.267,15.369z"/>
	<path display="inline" fill="#FFFFFF" d="M10.979,14.764c-0.004-0.389,0.314-0.71,0.709-0.716c0.389-0.006,0.714,0.317,0.717,0.712
		c0.002,0.391-0.314,0.71-0.708,0.714C11.304,15.479,10.983,15.16,10.979,14.764z M11.145,14.758
		c-0.003,0.301,0.239,0.548,0.541,0.551c0.302,0.003,0.548-0.237,0.552-0.54c0.004-0.303-0.238-0.55-0.544-0.554
		C11.396,14.211,11.149,14.455,11.145,14.758z"/>
</g>
<g id="ppc_4_" display="none">
	<path display="inline" fill="#FFFFFF" d="M9.371,11.712c0.031-0.046,0.075-0.055,0.127-0.055c1.278,0.001,2.556,0.001,3.834,0.001
		c0.018,0,0.037,0.001,0.055,0.004c0.042,0.008,0.069,0.041,0.069,0.08c-0.001,0.041-0.031,0.076-0.075,0.08
		c-0.036,0.003-0.072,0.004-0.108,0.001c-0.033-0.003-0.042,0.011-0.038,0.04c0.001,0.009,0,0.019,0,0.028c0,0.765,0,1.529,0,2.294
		c0,0.081-0.019,0.152-0.085,0.205c-0.05,0.04-0.108,0.048-0.169,0.048c-0.841,0-1.681,0-2.522,0c-0.205,0-0.41,0-0.614,0
		c-0.12,0-0.203-0.059-0.232-0.162c-0.009-0.031-0.009-0.063-0.009-0.095c0-0.77,0-1.54,0.001-2.31c0-0.037-0.006-0.054-0.047-0.048
		c-0.023,0.003-0.048-0.001-0.072,0.001c-0.051,0.005-0.091-0.012-0.117-0.057C9.371,11.75,9.371,11.731,9.371,11.712z
		 M11.423,11.824c-0.536,0-1.072,0-1.608-0.001c-0.037,0-0.045,0.011-0.045,0.046c0.001,0.773,0.001,1.545,0.001,2.318
		c0,0.07,0.016,0.086,0.083,0.086c1.045,0,2.091,0,3.136,0c0.065,0,0.082-0.017,0.082-0.083c0-0.775,0-1.551,0.001-2.326
		c0-0.035-0.01-0.04-0.042-0.04C12.495,11.825,11.959,11.824,11.423,11.824z"/>
	<path display="inline" fill="#FFFFFF" d="M11.544,15.226c0,0.131,0,0.259,0,0.386c0,0.057-0.029,0.091-0.076,0.094
		c-0.05,0.004-0.086-0.033-0.087-0.091c-0.001-0.109,0-0.218,0-0.327c0-0.02,0-0.039,0-0.062c-0.018,0.003-0.026,0.016-0.035,0.026
		c-0.139,0.139-0.279,0.278-0.418,0.417c-0.025,0.025-0.053,0.044-0.092,0.034c-0.053-0.013-0.079-0.072-0.051-0.119
		c0.009-0.015,0.021-0.027,0.033-0.04c0.178-0.178,0.355-0.356,0.534-0.533c0.022-0.022,0.031-0.043,0.03-0.073
		c-0.002-0.046-0.002-0.093,0-0.14c0.001-0.024-0.006-0.032-0.031-0.032c-0.089,0.001-0.178,0.001-0.267,0
		c-0.043-0.001-0.074-0.027-0.082-0.063c-0.008-0.037,0.008-0.074,0.042-0.091c0.017-0.009,0.035-0.011,0.054-0.011
		c0.241,0,0.481-0.001,0.722,0c0.059,0,0.097,0.036,0.096,0.084c-0.001,0.049-0.038,0.081-0.098,0.082c-0.081,0-0.162,0.001-0.243,0
		c-0.022,0-0.033,0.006-0.029,0.029c0,0.003,0,0.005,0,0.008c0,0.058-0.015,0.123,0.006,0.174c0.021,0.05,0.077,0.086,0.118,0.127
		c0.144,0.144,0.288,0.288,0.432,0.432c0.008,0.008,0.015,0.015,0.022,0.023c0.035,0.041,0.036,0.089,0.002,0.121
		c-0.033,0.031-0.081,0.03-0.118-0.005c-0.03-0.028-0.059-0.058-0.088-0.087c-0.113-0.113-0.226-0.226-0.339-0.338
		C11.569,15.242,11.563,15.23,11.544,15.226z"/>
	<path display="inline" fill="#FFFFFF" d="M11.454,12.684c0,0.11,0.001,0.221-0.001,0.331c0,0.029,0.006,0.038,0.037,0.038
		c0.218-0.001,0.436-0.001,0.654-0.001c0.089,0,0.116,0.029,0.11,0.119c-0.023,0.356-0.197,0.613-0.517,0.768
		c-0.358,0.174-0.821,0.06-1.062-0.257c-0.256-0.337-0.256-0.771,0.007-1.102c0.172-0.216,0.403-0.323,0.679-0.331
		c0.058-0.002,0.092,0.034,0.092,0.096C11.454,12.458,11.454,12.571,11.454,12.684z M11.287,12.785c0-0.109-0.001-0.218,0.001-0.327
		c0.001-0.033-0.009-0.039-0.04-0.034c-0.34,0.057-0.599,0.364-0.599,0.71c0,0.354,0.26,0.657,0.609,0.711
		c0.391,0.06,0.753-0.2,0.821-0.587c0.006-0.036-0.001-0.042-0.035-0.042c-0.217,0.001-0.433,0.001-0.65,0.001
		c-0.079,0-0.107-0.03-0.108-0.109C11.287,13,11.287,12.893,11.287,12.785z"/>
	<path display="inline" fill="#FFFFFF" d="M12.041,12.871c-0.1,0-0.199,0-0.299,0c-0.067,0-0.097-0.03-0.097-0.097
		c0-0.199,0-0.399,0-0.598c0-0.07,0.031-0.099,0.1-0.098c0.378,0.008,0.683,0.311,0.693,0.689c0.002,0.075-0.026,0.103-0.102,0.104
		C12.237,12.872,12.139,12.871,12.041,12.871z M12.041,12.708c0.066,0,0.133-0.001,0.199,0c0.021,0,0.026-0.004,0.022-0.027
		c-0.037-0.208-0.218-0.39-0.423-0.428c-0.026-0.005-0.032,0-0.032,0.026c0.001,0.132,0.001,0.263,0,0.395
		c0,0.026,0.008,0.035,0.034,0.034C11.908,12.707,11.974,12.708,12.041,12.708z"/>
</g>
<g id="ppc_5_" display="none">
	<path display="inline" fill="#FFFFFF" d="M9.365,13.698c0-0.011,0-0.021,0-0.032c0.019-0.06,0.063-0.081,0.122-0.079
		c0.057,0.001,0.114,0,0.176,0c0.03-0.446,0.198-0.829,0.512-1.143c0.313-0.314,0.696-0.482,1.141-0.514c0-0.059,0-0.112,0-0.165
		c0-0.081,0.031-0.123,0.092-0.125c0.062-0.001,0.095,0.042,0.095,0.125c0,0.054,0,0.108,0,0.164
		c0.451,0.029,0.835,0.198,1.15,0.512c0.315,0.314,0.483,0.699,0.514,1.146c0.061,0,0.118,0.001,0.175,0
		c0.058-0.001,0.101,0.02,0.12,0.078c0,0.013,0,0.027,0,0.04c-0.025,0.057-0.069,0.075-0.128,0.072c-0.055-0.002-0.111,0-0.168,0
		c-0.031,0.45-0.201,0.834-0.517,1.148c-0.315,0.314-0.701,0.48-1.147,0.509c0,0.058,0,0.112,0,0.165
		c0,0.081-0.032,0.123-0.092,0.124c-0.062,0.001-0.095-0.043-0.095-0.125c0-0.054,0-0.108,0-0.165
		c-0.447-0.031-0.829-0.201-1.141-0.514c-0.313-0.314-0.481-0.697-0.512-1.143c-0.061,0-0.118-0.001-0.175,0
		C9.428,13.779,9.384,13.758,9.365,13.698z M12.942,14.012c-0.436,0.399-0.943,0.607-1.528,0.606c-0.586,0-1.093-0.21-1.527-0.608
		c0.156,0.741,0.817,1.211,1.43,1.23c0-0.014,0-0.029,0-0.043c0-0.051,0-0.101,0.002-0.152c0.002-0.039,0.024-0.065,0.06-0.078
		c0.034-0.013,0.07-0.009,0.092,0.018c0.018,0.022,0.03,0.054,0.032,0.082c0.005,0.058,0.001,0.116,0.001,0.174
		C12.194,15.216,12.811,14.683,12.942,14.012z M11.419,12.897c-0.422,0.001-0.766,0.346-0.765,0.766
		c0.002,0.42,0.346,0.763,0.765,0.762c0.421,0,0.765-0.346,0.764-0.767C12.181,13.238,11.838,12.897,11.419,12.897z M11.316,12.12
		c-0.352,0.025-0.657,0.15-0.92,0.375c-0.249,0.214-0.414,0.481-0.494,0.802c0.432-0.386,0.936-0.589,1.514-0.588
		c0.58,0.001,1.084,0.206,1.516,0.599c-0.172-0.734-0.859-1.18-1.429-1.182c0,0.061,0.001,0.122,0,0.183
		c-0.001,0.041-0.021,0.072-0.059,0.087c-0.035,0.014-0.073,0.01-0.096-0.019c-0.017-0.022-0.028-0.054-0.03-0.083
		C11.313,12.238,11.316,12.181,11.316,12.12z M9.895,13.587c0.041,0,0.075-0.001,0.11,0c0.017,0,0.035,0.002,0.051,0.005
		c0.045,0.01,0.072,0.044,0.072,0.088c0.001,0.046-0.026,0.083-0.073,0.091c-0.04,0.007-0.081,0.006-0.128,0.009
		c0.222,0.237,0.479,0.41,0.78,0.523c-0.321-0.425-0.323-0.848-0.01-1.272C10.461,13.096,10.067,13.368,9.895,13.587z
		 M12.142,13.032c0.311,0.426,0.309,0.845-0.007,1.267c0.297-0.115,0.55-0.285,0.77-0.521c-0.044,0-0.078,0.002-0.111,0
		c-0.068-0.005-0.108-0.06-0.091-0.121c0.012-0.041,0.05-0.066,0.106-0.067c0.04-0.001,0.08,0,0.13,0
		C12.714,13.335,12.452,13.153,12.142,13.032z"/>
	<path display="inline" fill="#FFFFFF" d="M11.759,13.683c0,0.191-0.156,0.346-0.347,0.344c-0.189-0.002-0.343-0.157-0.343-0.345
		c0-0.19,0.158-0.346,0.347-0.344C11.607,13.339,11.76,13.493,11.759,13.683z M11.414,13.525c-0.085,0-0.155,0.07-0.155,0.155
		c-0.001,0.087,0.07,0.159,0.157,0.158c0.085-0.001,0.155-0.071,0.157-0.155C11.573,13.598,11.501,13.525,11.414,13.525z"/>
</g>
<g id="cooperation_red_2_" display="none">
	<path display="inline" fill="#E53935" d="M9.536,16.957c-0.063-0.025-0.086-0.071-0.085-0.138c0.003-0.15,0.001-0.3,0.001-0.45
		c0-0.095,0.04-0.135,0.135-0.135c0.09-0.001,0.179,0,0.273,0c0.006-0.071,0.01-0.139,0.017-0.207
		c0.051-0.485,0.195-0.936,0.492-1.329c0.045-0.059,0.095-0.114,0.145-0.168c0.052-0.056,0.118-0.062,0.164-0.017
		c0.047,0.045,0.046,0.108-0.01,0.165c-0.171,0.176-0.294,0.381-0.388,0.605c-0.115,0.272-0.176,0.557-0.196,0.851
		c-0.002,0.031-0.004,0.062-0.006,0.097c0.09,0,0.178,0,0.272,0c0.015-0.122,0.057-0.235,0.13-0.336
		c0.139-0.19,0.329-0.308,0.551-0.371c0.363-0.104,0.716-0.075,1.05,0.109c0.116,0.064,0.214,0.15,0.293,0.257
		c0.037,0.05,0.035,0.1-0.006,0.133c-0.041,0.033-0.093,0.028-0.131-0.022c-0.14-0.184-0.331-0.285-0.551-0.329
		c-0.353-0.07-0.683-0.022-0.967,0.218c-0.114,0.096-0.177,0.22-0.186,0.34c0.747,0,1.495,0,2.245,0
		c-0.008-0.249-0.047-0.489-0.12-0.723c-0.094-0.301-0.233-0.578-0.451-0.809c-0.107-0.114-0.229-0.208-0.371-0.276
		c-0.027-0.013-0.056-0.03-0.074-0.053c-0.042-0.053-0.019-0.122,0.047-0.16c0.067-0.038,0.138-0.072,0.2-0.117
		c0.253-0.18,0.421-0.428,0.547-0.707c0.102-0.226,0.166-0.463,0.198-0.708c0.002-0.019,0.006-0.038,0.011-0.056
		c0.015-0.054,0.065-0.088,0.117-0.08c0.054,0.008,0.096,0.051,0.089,0.108c-0.013,0.107-0.029,0.215-0.053,0.321
		c-0.084,0.369-0.231,0.709-0.473,1.005c-0.104,0.128-0.225,0.238-0.369,0.334c0.32,0.213,0.532,0.509,0.683,0.852
		c0.149,0.339,0.222,0.697,0.235,1.073c0.09,0,0.175,0,0.261,0c0.117,0,0.151,0.034,0.151,0.151c0,0.145-0.002,0.29,0.001,0.434
		c0.001,0.067-0.022,0.113-0.085,0.138C12.06,16.957,10.798,16.957,9.536,16.957z M9.669,16.739c1.174,0,2.345,0,3.52,0
		c0-0.097,0-0.19,0-0.287c-1.174,0-2.346,0-3.52,0C9.669,16.549,9.669,16.642,9.669,16.739z"/>
	<path display="inline" fill="#E53935" d="M13.322,11.661c0.063,0.025,0.086,0.071,0.085,0.138
		c-0.003,0.146-0.001,0.293-0.001,0.439c0,0.11-0.036,0.146-0.145,0.146c-1.037,0-2.075,0-3.112,0c-0.022,0-0.044,0-0.069,0
		c0.007,0.225,0.039,0.441,0.099,0.652c0.093,0.329,0.236,0.631,0.473,0.884c0.109,0.117,0.234,0.213,0.38,0.28
		c0.05,0.023,0.088,0.057,0.084,0.117c-0.006,0.08-0.083,0.119-0.162,0.084c-0.173-0.079-0.324-0.189-0.454-0.328
		c-0.303-0.323-0.478-0.712-0.567-1.141c-0.034-0.163-0.044-0.33-0.066-0.496c-0.002-0.015-0.003-0.03-0.005-0.052
		c-0.088,0-0.173,0-0.259,0c-0.117,0-0.151-0.034-0.151-0.151c0-0.145,0.002-0.29-0.001-0.434c-0.001-0.067,0.022-0.113,0.085-0.138
		C10.798,11.661,12.06,11.661,13.322,11.661z M9.669,12.166c1.174,0,2.345,0,3.52,0c0-0.096,0-0.19,0-0.287c-1.174,0-2.345,0-3.52,0
		C9.669,11.976,9.669,12.069,9.669,12.166z"/>
	<path display="inline" fill="#E53935" d="M11.434,12.767c0.283,0,0.565,0,0.848,0c0.114,0,0.157,0.056,0.127,0.165
		c-0.071,0.258-0.171,0.502-0.339,0.714c-0.132,0.167-0.29,0.299-0.506,0.344c-0.246,0.05-0.456-0.03-0.637-0.193
		c-0.212-0.191-0.338-0.436-0.429-0.702c-0.02-0.058-0.037-0.118-0.053-0.178c-0.024-0.09,0.021-0.149,0.115-0.149
		C10.851,12.767,11.143,12.767,11.434,12.767z M12.174,12.984c-0.501,0-0.989,0-1.484,0c0.014,0.039,0.024,0.075,0.038,0.11
		c0.08,0.202,0.181,0.391,0.342,0.541c0.224,0.208,0.498,0.206,0.722-0.003c0.115-0.107,0.2-0.236,0.267-0.377
		C12.1,13.169,12.134,13.079,12.174,12.984z"/>
	<circle display="inline" fill="#E53935" cx="11.43" cy="14.309" r="0.105"/>
	<circle display="inline" fill="#E53935" cx="11.427" cy="14.774" r="0.105"/>
	<circle display="inline" fill="#E53935" cx="11.427" cy="15.24" r="0.105"/>
</g>
<g id="cooperation_red_1_" display="none">
	<path display="inline" fill="#E53935" d="M14.339,16.892c-0.029,0.028-0.048,0.067-0.094,0.076
		c-0.07,0.015-0.134-0.023-0.146-0.094c-0.012-0.069-0.005-0.139-0.005-0.209c0-0.035-0.012-0.058-0.04-0.079
		c-0.12-0.093-0.247-0.174-0.382-0.242c-0.069-0.035-0.098-0.088-0.097-0.163c0.002-0.086,0.001-0.171,0-0.257
		c0-0.033,0.001-0.069,0.026-0.089c0.042-0.035,0.041-0.078,0.04-0.124c-0.001-0.076,0.001-0.151-0.001-0.227
		c-0.003-0.123-0.069-0.18-0.203-0.179c-0.124,0.001-0.187,0.061-0.189,0.18c-0.001,0.07,0,0.139,0,0.209
		c0,0.053-0.009,0.106,0.042,0.147c0.023,0.019,0.021,0.054,0.021,0.084c-0.001,0.088-0.002,0.175,0,0.263
		c0.001,0.071-0.028,0.121-0.091,0.154c-0.131,0.068-0.255,0.146-0.373,0.234c-0.04,0.03-0.057,0.06-0.053,0.109
		c0.004,0.047,0.002,0.096,0.001,0.143c-0.003,0.089-0.053,0.146-0.125,0.145c-0.074-0.001-0.122-0.057-0.123-0.147
		c-0.001-0.062,0-0.123,0-0.185c0-0.098,0.041-0.176,0.117-0.237c0.112-0.09,0.232-0.168,0.357-0.237
		c0.03-0.016,0.043-0.034,0.041-0.069c-0.003-0.075-0.021-0.144-0.038-0.217c-0.045-0.193-0.059-0.397,0.015-0.586
		c0.069-0.174,0.247-0.259,0.446-0.239c0.255,0.026,0.4,0.186,0.4,0.444c0,0.094,0,0.187,0,0.281c0,0.043-0.004,0.087-0.029,0.12
		c-0.053,0.07-0.027,0.149-0.033,0.224c-0.002,0.026,0.022,0.03,0.038,0.04c0.103,0.06,0.203,0.124,0.301,0.194
		c0.081,0.058,0.147,0.124,0.177,0.222C14.339,16.685,14.339,16.788,14.339,16.892z"/>
	<path display="inline" fill="#E53935" d="M8.22,16.545c0.09-0.188,0.275-0.266,0.435-0.372c0.027-0.018,0.073-0.021,0.074-0.061
		c0-0.06,0.021-0.126-0.013-0.181c-0.037-0.061-0.052-0.124-0.051-0.193c0.002-0.103-0.008-0.207,0.005-0.31
		c0.031-0.248,0.23-0.401,0.485-0.373c0.245,0.027,0.391,0.188,0.392,0.434c0,0.094,0,0.187,0,0.281c0,0.043-0.003,0.087-0.028,0.12
		c-0.051,0.068-0.028,0.145-0.034,0.218c-0.002,0.03,0.021,0.035,0.039,0.045c0.121,0.07,0.238,0.144,0.348,0.231
		c0.073,0.058,0.118,0.129,0.12,0.223c0.002,0.072,0.004,0.143,0.001,0.215c-0.003,0.082-0.054,0.132-0.125,0.13
		c-0.071-0.002-0.118-0.054-0.12-0.136c-0.001-0.048-0.003-0.096,0.001-0.143c0.004-0.051-0.014-0.084-0.056-0.115
		c-0.116-0.085-0.236-0.162-0.364-0.227c-0.066-0.034-0.096-0.085-0.094-0.159c0.002-0.088,0.001-0.175,0-0.263
		c0-0.029,0-0.062,0.021-0.079c0.05-0.041,0.041-0.095,0.041-0.147c0-0.074,0.001-0.147-0.001-0.221
		c-0.002-0.09-0.064-0.154-0.154-0.158c-0.049-0.003-0.1-0.007-0.146,0.019c-0.056,0.031-0.081,0.08-0.081,0.143
		c-0.001,0.094,0,0.187,0,0.281c0,0.018-0.001,0.037,0.015,0.05c0.045,0.037,0.05,0.088,0.049,0.141
		c-0.001,0.078-0.002,0.155,0,0.233c0.002,0.075-0.028,0.128-0.097,0.163c-0.131,0.067-0.255,0.146-0.373,0.235
		c-0.031,0.023-0.043,0.047-0.042,0.085c0.003,0.05,0.001,0.1,0,0.149c-0.001,0.077-0.029,0.125-0.084,0.143
		c-0.064,0.02-0.113-0.003-0.149-0.057c-0.003-0.004-0.01-0.006-0.015-0.008C8.22,16.768,8.22,16.657,8.22,16.545z"/>
	<path display="inline" fill="#E53935" d="M10.121,14.191c0.327,0,0.653-0.001,0.98,0.001c0.046,0,0.062-0.011,0.06-0.059
		c-0.004-0.087-0.002-0.175-0.001-0.263c0.001-0.083,0.047-0.134,0.119-0.136c0.073-0.002,0.123,0.045,0.128,0.128
		c0.005,0.085,0.006,0.172,0,0.257c-0.005,0.064,0.019,0.074,0.076,0.073c0.635-0.002,1.271-0.001,1.906-0.001
		c0.14,0,0.175,0.036,0.175,0.177c0,0.135,0,0.271-0.001,0.406c0,0.053-0.026,0.091-0.075,0.112
		c-0.044,0.019-0.086,0.012-0.124-0.017c-0.035-0.027-0.045-0.064-0.045-0.106c0-0.092-0.002-0.183,0.001-0.275
		c0.001-0.039-0.012-0.05-0.051-0.05c-0.603,0.001-1.207,0.001-1.81,0c-0.044,0-0.053,0.016-0.052,0.055
		c0.003,0.086,0.002,0.171,0,0.257c-0.001,0.078-0.036,0.127-0.095,0.142c-0.078,0.019-0.15-0.037-0.153-0.123
		c-0.003-0.094-0.003-0.187,0-0.281c0.001-0.04-0.012-0.05-0.051-0.05c-0.607,0.001-1.215,0.001-1.822,0
		c-0.044,0-0.053,0.016-0.051,0.055c0.003,0.088,0.002,0.175,0.001,0.263c-0.001,0.084-0.045,0.135-0.117,0.139
		c-0.072,0.004-0.128-0.048-0.13-0.132c-0.004-0.145-0.004-0.291,0-0.436c0.003-0.095,0.053-0.137,0.152-0.137
		C9.468,14.191,9.794,14.191,10.121,14.191z"/>
	<path display="inline" fill="#E53935" d="M11.771,12.268c0,0.068,0,0.135,0,0.203c0,0.045-0.009,0.089-0.036,0.124
		c-0.063,0.083-0.026,0.177-0.035,0.265c-0.003,0.025,0.024,0.03,0.04,0.039c0.141,0.079,0.276,0.166,0.404,0.264
		c0.095,0.073,0.147,0.164,0.143,0.286c-0.003,0.072,0.001,0.143-0.001,0.215c-0.003,0.076-0.054,0.128-0.121,0.129
		c-0.067,0-0.119-0.052-0.122-0.128c-0.003-0.072-0.002-0.143-0.001-0.215c0.001-0.037-0.013-0.063-0.043-0.086
		c-0.139-0.107-0.284-0.204-0.441-0.283c-0.073-0.036-0.107-0.09-0.106-0.17c0.002-0.098,0-0.195,0-0.293
		c0-0.047,0.008-0.092,0.048-0.123c0.024-0.018,0.025-0.043,0.025-0.07c0-0.104,0.001-0.207,0-0.311
		c-0.002-0.143-0.082-0.214-0.224-0.222c-0.192-0.011-0.27,0.109-0.26,0.26c0.006,0.091,0.001,0.183,0.001,0.275
		c0,0.024-0.001,0.049,0.021,0.065c0.044,0.034,0.053,0.08,0.052,0.133c-0.002,0.098-0.003,0.195,0,0.293
		c0.002,0.075-0.029,0.125-0.094,0.158c-0.156,0.08-0.304,0.173-0.443,0.28c-0.037,0.028-0.055,0.058-0.052,0.105
		c0.004,0.066,0.002,0.131,0,0.197c-0.002,0.078-0.049,0.129-0.117,0.134c-0.065,0.004-0.125-0.046-0.128-0.122
		c-0.005-0.103-0.011-0.207,0.007-0.31c0.013-0.078,0.059-0.137,0.12-0.186c0.131-0.105,0.271-0.195,0.418-0.275
		c0.032-0.018,0.047-0.038,0.043-0.075c-0.003-0.032-0.002-0.064,0-0.095c0.003-0.049-0.004-0.093-0.035-0.134
		c-0.023-0.03-0.032-0.068-0.034-0.106c-0.007-0.137-0.005-0.275-0.001-0.412c0.006-0.221,0.182-0.41,0.422-0.431
		c0.227-0.02,0.408,0.066,0.504,0.252c0.033,0.063,0.046,0.131,0.047,0.201C11.772,12.157,11.771,12.213,11.771,12.268
		L11.771,12.268z"/>
	<path display="inline" fill="#E53935" d="M11.72,15.636c-0.004,0.078,0.021,0.174-0.027,0.253c-0.04,0.066-0.035,0.131-0.04,0.2
		c-0.003,0.043,0.015,0.065,0.05,0.084c0.119,0.064,0.231,0.14,0.338,0.223c0.077,0.059,0.125,0.133,0.129,0.231
		c0.002,0.072,0.004,0.143,0.001,0.215c-0.004,0.08-0.057,0.133-0.125,0.132c-0.07-0.001-0.117-0.055-0.12-0.137
		c-0.001-0.02-0.003-0.041,0-0.06c0.025-0.122-0.029-0.199-0.132-0.261c-0.095-0.057-0.188-0.12-0.287-0.17
		c-0.07-0.036-0.102-0.089-0.098-0.168c0.003-0.087,0.001-0.175,0.001-0.263c0-0.031,0.001-0.063,0.025-0.083
		c0.037-0.031,0.038-0.069,0.038-0.112c-0.002-0.082,0.001-0.163-0.001-0.245c-0.002-0.107-0.067-0.168-0.18-0.171
		c-0.133-0.003-0.207,0.052-0.212,0.163c-0.004,0.097-0.001,0.195-0.001,0.293c0,0.016,0,0.033,0.014,0.044
		c0.048,0.038,0.052,0.09,0.052,0.145c-0.001,0.072-0.002,0.143,0,0.215c0.004,0.087-0.027,0.147-0.109,0.187
		c-0.133,0.064-0.255,0.146-0.372,0.236c-0.028,0.022-0.041,0.044-0.04,0.08c0.002,0.06,0.002,0.12,0,0.179
		c-0.003,0.075-0.056,0.127-0.124,0.127c-0.065-0.001-0.117-0.051-0.12-0.124c-0.004-0.073-0.002-0.147-0.001-0.221
		c0.002-0.096,0.047-0.17,0.121-0.228c0.108-0.085,0.221-0.162,0.343-0.227c0.038-0.02,0.055-0.043,0.053-0.088
		c-0.003-0.069-0.023-0.132-0.039-0.199c-0.048-0.2-0.063-0.408,0.02-0.603c0.071-0.167,0.246-0.248,0.44-0.229
		c0.253,0.025,0.401,0.188,0.402,0.444C11.72,15.542,11.72,15.583,11.72,15.636z"/>
</g>
<g id="cooperation_red" display="none">
	<path display="inline" fill="#E53935" d="M8.16,15.196c0.118-0.228,0.345-0.328,0.542-0.465c0.077-0.053,0.21-0.058,0.192-0.206
		c-0.012-0.096-0.02-0.189-0.045-0.287c-0.076-0.3-0.116-0.615,0.049-0.901c0.123-0.213,0.415-0.288,0.681-0.207
		c0.231,0.071,0.371,0.263,0.375,0.521c0.002,0.135-0.001,0.271,0.001,0.406c0.001,0.074-0.017,0.139-0.055,0.203
		c-0.095,0.159-0.043,0.361,0.114,0.448c0.15,0.084,0.289,0.182,0.425,0.286c0.11,0.084,0.163,0.191,0.159,0.329
		c-0.003,0.087,0.001,0.175-0.002,0.263c-0.002,0.08-0.047,0.13-0.126,0.129c-0.073-0.001-0.114-0.05-0.118-0.125
		c-0.001-0.028-0.006-0.057,0-0.083c0.041-0.211-0.056-0.346-0.233-0.443c-0.129-0.071-0.251-0.153-0.38-0.224
		c-0.086-0.048-0.127-0.113-0.123-0.212c0.004-0.107,0.002-0.215,0-0.322c-0.001-0.058,0.014-0.106,0.052-0.153
		c0.084-0.106,0.055-0.613-0.039-0.708c-0.112-0.112-0.252-0.11-0.391-0.071c-0.126,0.036-0.184,0.137-0.191,0.261
		c-0.008,0.143-0.003,0.287-0.002,0.43c0,0.016-0.001,0.036,0.008,0.046c0.155,0.168,0.064,0.373,0.083,0.56
		c0.009,0.085-0.055,0.134-0.126,0.171c-0.179,0.095-0.35,0.203-0.513,0.325C8.43,15.219,8.4,15.276,8.405,15.359
		c0.004,0.059,0.001,0.119,0.001,0.179c0,0.064,0.002,0.128-0.069,0.165c-0.078,0.041-0.124-0.016-0.177-0.053
		C8.16,15.499,8.16,15.347,8.16,15.196z"/>
	<path display="inline" fill="#E53935" d="M13.635,13.841c-0.005,0.167,0.017,0.323-0.077,0.472
		c-0.038,0.061-0.011,0.163-0.014,0.246c-0.004,0.115,0.103,0.118,0.168,0.159c0.142,0.089,0.281,0.181,0.413,0.283
		c0.101,0.079,0.154,0.179,0.153,0.308c-0.001,0.092,0.001,0.183-0.001,0.275c-0.002,0.08-0.045,0.132-0.124,0.131
		c-0.08,0-0.119-0.055-0.12-0.134c0-0.02-0.004-0.041,0-0.06c0.046-0.226-0.061-0.368-0.251-0.47
		c-0.122-0.066-0.238-0.144-0.36-0.211c-0.087-0.047-0.127-0.112-0.124-0.211c0.004-0.107,0-0.215,0.002-0.322
		c0.001-0.035-0.001-0.077,0.017-0.104c0.141-0.205,0.072-0.429,0.052-0.644c-0.012-0.127-0.126-0.197-0.27-0.205
		c-0.173-0.01-0.311,0.051-0.345,0.175c-0.052,0.186-0.077,0.403-0.007,0.563c0.079,0.179,0.056,0.346,0.073,0.518
		c0.011,0.113-0.036,0.188-0.138,0.239c-0.178,0.09-0.343,0.199-0.503,0.318c-0.068,0.051-0.098,0.108-0.094,0.191
		c0.004,0.075,0.001,0.151,0,0.227c-0.002,0.08-0.045,0.131-0.124,0.129c-0.073-0.001-0.117-0.05-0.119-0.124
		c-0.002-0.115-0.005-0.231,0.003-0.346c0.008-0.104,0.068-0.183,0.15-0.247c0.157-0.123,0.321-0.235,0.498-0.327
		c0.061-0.032,0.086-0.071,0.082-0.14c-0.007-0.11,0.014-0.222-0.065-0.319c-0.033-0.041-0.027-0.098-0.027-0.15
		c0-0.135-0.002-0.271,0-0.406c0.005-0.319,0.204-0.526,0.524-0.548c0.312-0.021,0.55,0.136,0.615,0.41
		C13.648,13.627,13.63,13.74,13.635,13.841z"/>
	<path display="inline" fill="#E53935" d="M9.365,16.245c0,0.081,0.003,0.144-0.001,0.207c-0.005,0.076-0.039,0.132-0.124,0.13
		c-0.083-0.002-0.12-0.057-0.122-0.134c-0.003-0.167-0.004-0.334-0.003-0.502c0-0.08,0.042-0.128,0.123-0.131
		c0.167-0.005,0.334-0.01,0.501-0.009c0.079,0,0.144,0.033,0.141,0.126c-0.003,0.09-0.065,0.121-0.146,0.122
		c-0.055,0.001-0.11,0-0.187,0c0.177,0.18,0.367,0.306,0.573,0.405c0.918,0.443,1.957,0.283,2.701-0.411
		c0.02-0.019,0.04-0.039,0.062-0.056c0.06-0.047,0.125-0.06,0.182-0.002c0.063,0.065,0.043,0.129-0.017,0.188
		c-0.457,0.448-1.001,0.71-1.641,0.763c-0.757,0.063-1.419-0.162-1.99-0.662C9.407,16.27,9.393,16.263,9.365,16.245z"/>
	<path display="inline" fill="#E53935" d="M12.99,12.383c0-0.086-0.003-0.148,0.001-0.21c0.005-0.076,0.043-0.13,0.126-0.131
		c0.079-0.001,0.119,0.053,0.121,0.122c0.007,0.175,0.009,0.35,0.005,0.525c-0.002,0.071-0.049,0.118-0.125,0.119
		c-0.171,0.003-0.342,0.005-0.514,0.005c-0.081,0-0.131-0.044-0.131-0.123c0.001-0.073,0.05-0.116,0.124-0.119
		c0.062-0.003,0.124-0.001,0.216-0.001c-0.246-0.237-0.504-0.399-0.795-0.498c-0.932-0.317-1.77-0.149-2.502,0.516
		c-0.015,0.013-0.029,0.028-0.044,0.041c-0.059,0.05-0.124,0.064-0.181,0.007c-0.064-0.063-0.044-0.132,0.014-0.189
		c0.189-0.185,0.395-0.347,0.631-0.468c1.014-0.517,2.113-0.387,2.984,0.349C12.936,12.34,12.952,12.352,12.99,12.383z"/>
</g>
<g id="smm_red" display="none">
	<path display="inline" fill="#E53935" d="M8.136,14.34c0.065-0.131,0.102-0.273,0.149-0.41c0.226-0.654,0.449-1.308,0.673-1.963
		c0.051-0.149,0.123-0.183,0.273-0.13c0.357,0.126,0.715,0.25,1.071,0.379c0.165,0.06,0.32,0.055,0.475-0.028
		c0.226-0.121,0.46-0.135,0.703-0.05c0.612,0.214,1.226,0.424,1.839,0.636c0.15,0.052,0.181,0.114,0.151,0.271
		c-0.035,0.179-0.102,0.34-0.255,0.45c-0.176,0.126-0.37,0.121-0.566,0.06c-0.207-0.065-0.412-0.138-0.617-0.208
		c-0.103-0.035-0.101-0.034-0.149,0.06c-0.163,0.321-0.405,0.552-0.761,0.646c-0.282,0.075-0.557,0.032-0.826-0.06
		c-0.088-0.03-0.129-0.115-0.105-0.193c0.027-0.086,0.108-0.129,0.206-0.102c0.124,0.035,0.249,0.069,0.378,0.076
		c0.379,0.018,0.638-0.167,0.817-0.486c0.034-0.062,0.061-0.127,0.085-0.194c0.044-0.127,0.12-0.163,0.248-0.12
		c0.273,0.092,0.545,0.184,0.818,0.277c0.058,0.02,0.118,0.029,0.179,0.024c0.105-0.009,0.203-0.1,0.221-0.201
		c0.008-0.046-0.029-0.042-0.051-0.05c-0.253-0.088-0.506-0.175-0.759-0.262c-0.315-0.108-0.631-0.214-0.945-0.327
		c-0.163-0.058-0.315-0.051-0.467,0.03c-0.203,0.109-0.417,0.134-0.638,0.065c-0.06-0.019-0.077-0.002-0.095,0.051
		c-0.242,0.712-0.487,1.424-0.73,2.135c-0.058,0.17-0.121,0.2-0.291,0.141c-0.291-0.101-0.582-0.201-0.874-0.299
		c-0.071-0.024-0.126-0.06-0.156-0.129C8.136,14.401,8.136,14.371,8.136,14.34z M9.166,14.525c0.04,0.001,0.037-0.032,0.044-0.053
		c0.23-0.67,0.459-1.342,0.691-2.012c0.015-0.045,0.008-0.062-0.036-0.076c-0.196-0.065-0.393-0.131-0.587-0.201
		c-0.048-0.017-0.06-0.001-0.074,0.039c-0.229,0.671-0.458,1.342-0.689,2.012C8.5,14.278,8.498,14.3,8.551,14.317
		c0.195,0.062,0.387,0.131,0.581,0.197C9.143,14.518,9.156,14.522,9.166,14.525z"/>
	<path display="inline" fill="#E53935" d="M9.743,15.69c-0.003-0.071,0.017-0.146,0.06-0.214c0.02-0.032,0.018-0.049-0.008-0.077
		c-0.232-0.243-0.178-0.587,0.119-0.743c0.219-0.115,0.443-0.22,0.666-0.327c0.097-0.046,0.189-0.017,0.227,0.066
		c0.038,0.084,0.004,0.168-0.094,0.217c-0.206,0.102-0.412,0.202-0.619,0.303c-0.032,0.016-0.065,0.03-0.088,0.057
		c-0.042,0.049-0.05,0.105-0.021,0.162c0.029,0.058,0.08,0.082,0.144,0.077c0.036-0.003,0.067-0.02,0.099-0.035
		c0.397-0.194,0.793-0.388,1.19-0.582c0.029-0.014,0.059-0.029,0.091-0.037c0.068-0.018,0.14,0.017,0.172,0.08
		c0.032,0.062,0.017,0.14-0.038,0.185c-0.025,0.02-0.055,0.036-0.084,0.051c-0.455,0.224-0.911,0.446-1.366,0.67
		c-0.12,0.059-0.163,0.138-0.122,0.222c0.043,0.087,0.128,0.101,0.25,0.041c0.506-0.247,1.011-0.494,1.517-0.741
		c0.009-0.004,0.018-0.009,0.027-0.013c0.106-0.049,0.192-0.027,0.234,0.058c0.044,0.087,0.006,0.172-0.103,0.225
		c-0.358,0.176-0.716,0.35-1.074,0.525c-0.104,0.051-0.209,0.101-0.313,0.153c-0.098,0.049-0.132,0.129-0.092,0.209
		c0.04,0.08,0.124,0.102,0.222,0.054c0.467-0.228,0.934-0.457,1.401-0.685c0.129-0.063,0.216-0.048,0.263,0.044
		c0.048,0.095,0.006,0.174-0.128,0.239c-0.304,0.149-0.607,0.297-0.911,0.445c-0.062,0.03-0.114,0.067-0.117,0.144
		c-0.005,0.1,0.084,0.172,0.181,0.147c0.017-0.005,0.034-0.011,0.049-0.019c0.658-0.326,1.324-0.635,1.974-0.977
		c0.344-0.181,0.648-0.421,0.932-0.685c0.061-0.057,0.12-0.117,0.185-0.168c0.048-0.038,0.045-0.069,0.02-0.119
		c-0.341-0.693-0.68-1.387-1.019-2.08c-0.018-0.037-0.038-0.074-0.039-0.114c-0.001-0.073,0.04-0.123,0.104-0.154
		c0.301-0.148,0.602-0.296,0.904-0.442c0.113-0.055,0.19-0.023,0.249,0.1c0.313,0.642,0.626,1.284,0.939,1.925
		c0.049,0.1,0.098,0.199,0.146,0.299c0.064,0.132,0.039,0.206-0.092,0.27c-0.27,0.132-0.539,0.264-0.809,0.395
		c-0.051,0.025-0.095,0.056-0.136,0.094c-0.253,0.233-0.503,0.469-0.784,0.67c-0.291,0.209-0.607,0.37-0.927,0.526
		c-0.501,0.244-1.002,0.49-1.502,0.736c-0.181,0.089-0.355,0.087-0.52-0.037c-0.079-0.06-0.134-0.139-0.156-0.235
		c-0.013-0.058-0.03-0.059-0.078-0.036c-0.248,0.117-0.495,0.046-0.623-0.177c-0.027-0.047-0.046-0.096-0.05-0.15
		c-0.004-0.053-0.023-0.075-0.079-0.084C9.895,16.11,9.743,15.924,9.743,15.69z M14.895,14.531c0.015-0.007,0.029-0.013,0.042-0.02
		c0.186-0.091,0.371-0.184,0.558-0.272c0.044-0.021,0.045-0.037,0.025-0.077c-0.101-0.201-0.198-0.403-0.297-0.604
		c-0.213-0.435-0.426-0.87-0.638-1.305c-0.017-0.034-0.024-0.068-0.08-0.039c-0.186,0.096-0.375,0.187-0.564,0.277
		c-0.041,0.02-0.041,0.039-0.023,0.075c0.048,0.092,0.092,0.185,0.137,0.278c0.266,0.544,0.532,1.087,0.798,1.631
		C14.864,14.495,14.865,14.524,14.895,14.531z"/>
</g>
<g id="smm_red_1_" display="none">
	<path display="inline" fill="#E53935" d="M8.169,17.397c0.137-0.189,0.202-0.417,0.326-0.612c0.36-0.564,0.47-1.172,0.442-1.84
		c-0.04-0.966-0.01-1.935-0.01-2.903c0-0.225,0.039-0.263,0.269-0.263c1.926,0,3.851,0,5.777,0c0.237,0,0.275,0.038,0.275,0.275
		c0,1.233,0.001,2.466-0.001,3.699c0,0.11,0.02,0.208,0.07,0.307c0.209,0.413,0.411,0.829,0.617,1.243
		c0.017,0.034,0.018,0.08,0.064,0.095c0,0.051,0,0.102,0,0.153c-0.081,0.068-0.173,0.085-0.279,0.085
		c-2.424-0.002-4.847-0.002-7.271,0c-0.105,0-0.197-0.021-0.279-0.085C8.169,17.499,8.169,17.448,8.169,17.397z M12.083,15.796
		c0.902,0,1.804-0.002,2.706,0.003c0.114,0.001,0.144-0.027,0.143-0.142c-0.005-1.142-0.004-2.283,0-3.425
		c0-0.112-0.035-0.131-0.138-0.131c-1.804,0.003-3.608,0.003-5.412,0c-0.111,0-0.145,0.022-0.145,0.14
		c0.005,1.136,0.005,2.273,0,3.409c-0.001,0.125,0.04,0.149,0.154,0.148C10.289,15.794,11.186,15.796,12.083,15.796z M15.58,17.31
		c-0.184-0.375-0.361-0.728-0.53-1.085c-0.041-0.086-0.089-0.115-0.184-0.115c-0.805,0.004-1.61,0.002-2.415,0.002
		c-1.045,0-2.089,0-3.134,0.001c-0.056,0-0.123-0.027-0.16,0.049c-0.185,0.377-0.373,0.753-0.568,1.147c0.071,0,0.121,0,0.17,0
		c0.535,0,1.071-0.022,1.605,0.008c0.304,0.017,0.487-0.064,0.57-0.36c0.042-0.148,0.151-0.196,0.304-0.194
		c0.474,0.007,0.948,0,1.422,0.003c0.576,0.003,0.447-0.064,0.691,0.427c0.046,0.093,0.099,0.118,0.198,0.117
		c0.627-0.004,1.253-0.002,1.88-0.002C15.472,17.31,15.515,17.31,15.58,17.31z M12.077,17.251c0.275,0,0.55,0.001,0.825-0.001
		c0.034,0,0.096,0.028,0.096-0.034c0.001-0.045-0.02-0.103-0.076-0.121c-0.028-0.009-0.06-0.005-0.091-0.005
		c-0.499,0-0.998,0-1.496,0c-0.025,0-0.052-0.003-0.076,0.002c-0.068,0.013-0.088,0.076-0.088,0.126c0,0.06,0.063,0.032,0.097,0.032
		C11.537,17.252,11.807,17.251,12.077,17.251z"/>
	<path display="inline" fill="#E53935" d="M11.943,14.583c0.107,0,0.214,0.005,0.321-0.001c0.139-0.009,0.244-0.109,0.239-0.231
		c-0.006-0.132-0.077-0.225-0.212-0.24c-0.126-0.014-0.254-0.008-0.381-0.011c-0.304-0.009-0.538-0.217-0.56-0.497
		c-0.024-0.308,0.166-0.555,0.478-0.604c0.078-0.012,0.108-0.036,0.101-0.113c-0.004-0.045-0.003-0.092,0.003-0.137
		c0.012-0.089,0.071-0.139,0.156-0.137c0.084,0.002,0.137,0.054,0.152,0.143c0.013,0.077-0.041,0.181,0.037,0.225
		c0.059,0.033,0.149,0.012,0.225,0.012c0.11-0.001,0.197,0.031,0.195,0.159c-0.002,0.129-0.092,0.155-0.2,0.154
		c-0.178-0.001-0.357-0.003-0.535,0c-0.183,0.003-0.296,0.098-0.296,0.241c0,0.144,0.114,0.238,0.295,0.242
		c0.112,0.002,0.224-0.003,0.336,0.003c0.278,0.013,0.504,0.234,0.522,0.505c0.019,0.29-0.162,0.549-0.441,0.589
		c-0.129,0.018-0.147,0.073-0.139,0.177c0.009,0.111-0.015,0.217-0.149,0.222c-0.144,0.005-0.174-0.105-0.162-0.222
		c0.013-0.126-0.03-0.18-0.159-0.162c-0.05,0.007-0.102,0.001-0.153,0c-0.097-0.003-0.158-0.058-0.159-0.15
		c-0.002-0.1,0.062-0.159,0.165-0.161c0.107-0.002,0.214-0.001,0.321-0.001L11.943,14.583z"/>
</g>
<g id="smm_red_2_" display="none">
	<path display="inline" fill="#E53935" d="M12.036,9.907c0.066,0.032,0.139,0.028,0.209,0.041c1.001,0.187,1.727,0.744,2.121,1.676
		c0.408,0.966,0.29,1.901-0.324,2.756c-0.417,0.58-0.988,0.947-1.686,1.084c-0.929,0.183-1.76-0.046-2.467-0.683
		c-0.454-0.41-0.745-0.922-0.856-1.524c-0.167-0.905,0.053-1.713,0.662-2.407c0.402-0.459,0.909-0.745,1.503-0.879
		c0.089-0.02,0.179-0.03,0.269-0.046c0.014-0.002,0.033,0.003,0.038-0.018C11.681,9.907,11.858,9.907,12.036,9.907z M14.271,12.734
		c-0.008-0.609-0.196-1.145-0.567-1.593c-0.38-0.459-0.865-0.751-1.452-0.863c-0.57-0.109-1.116-0.029-1.627,0.243
		c-0.541,0.288-0.928,0.722-1.154,1.294c-0.163,0.413-0.209,0.841-0.141,1.28c0.071,0.461,0.26,0.868,0.56,1.225
		c0.019,0.023,0.037,0.032,0.066,0.022c0.238-0.076,0.473-0.159,0.688-0.289c0.13-0.078,0.251-0.168,0.333-0.301
		c0.02-0.033,0.022-0.057-0.009-0.087c-0.15-0.147-0.247-0.327-0.311-0.525c-0.113-0.35-0.124-0.709-0.096-1.073
		c0.051-0.662,0.507-1.106,1.168-1.126c0.582-0.018,1.029,0.304,1.181,0.867c0.094,0.35,0.084,0.706,0.023,1.061
		c-0.05,0.29-0.152,0.556-0.357,0.774c-0.027,0.028-0.017,0.051-0.005,0.076c0.039,0.081,0.098,0.147,0.167,0.204
		c0.257,0.21,0.562,0.321,0.872,0.42c0.039,0.012,0.056-0.009,0.077-0.034C14.075,13.844,14.266,13.306,14.271,12.734z
		 M10.87,12.364c0.001,0.266,0.031,0.51,0.12,0.744c0.137,0.36,0.398,0.541,0.781,0.545c0.36,0.004,0.631-0.186,0.765-0.543
		c0.128-0.339,0.14-0.69,0.099-1.046c-0.02-0.176-0.069-0.343-0.18-0.483c-0.223-0.281-0.527-0.345-0.862-0.297
		c-0.325,0.046-0.543,0.23-0.651,0.542C10.88,12.006,10.878,12.194,10.87,12.364z M10.188,14.611
		c0.918,0.803,2.337,0.764,3.191-0.002c-0.148-0.051-0.291-0.103-0.428-0.172c-0.257-0.13-0.502-0.277-0.651-0.538
		c-0.018-0.031-0.037-0.027-0.064-0.017c-0.302,0.121-0.607,0.126-0.913,0.015c-0.037-0.014-0.055-0.004-0.074,0.029
		c-0.032,0.057-0.073,0.107-0.118,0.154c-0.15,0.156-0.332,0.266-0.524,0.36C10.473,14.507,10.331,14.556,10.188,14.611z"/>
	<path display="inline" fill="#E53935" d="M11.794,16.454c0.656,0,1.312,0,1.969,0c0.034,0,0.068-0.001,0.101,0.004
		c0.079,0.012,0.131,0.079,0.129,0.161c-0.002,0.078-0.054,0.139-0.132,0.15c-0.031,0.004-0.062,0.004-0.094,0.004
		c-1.323,0-2.646,0-3.968,0c-0.15,0-0.221-0.051-0.223-0.158c-0.002-0.11,0.071-0.162,0.226-0.162
		C10.466,16.454,11.13,16.454,11.794,16.454z"/>
	<path display="inline" fill="#E53935" d="M11.782,17.91c-0.43,0-0.86,0-1.29,0c-0.128,0-0.199-0.064-0.194-0.171
		c0.004-0.074,0.043-0.122,0.113-0.141c0.032-0.009,0.067-0.012,0.1-0.012c0.849-0.001,1.699-0.001,2.548,0
		c0.139,0,0.213,0.057,0.214,0.161c0.001,0.098-0.068,0.163-0.179,0.163c-0.208,0.002-0.417,0-0.625,0
		C12.24,17.911,12.011,17.911,11.782,17.91z"/>
</g>
<g id="Слой_34" display="none">
	<path display="inline" fill="#0D8497" d="M5.392,11.69c0.044-0.137,0.129-0.213,0.283-0.218c0.116-0.004,0.174-0.09,0.193-0.198
		c0.01-0.057,0.009-0.117,0.009-0.175c0.001-0.405-0.001-0.811,0.001-1.216c0.001-0.237,0.1-0.342,0.332-0.342
		c1.383-0.001,2.766-0.004,4.149,0.001c0.395,0.001,0.776,0.07,1.078,0.357c0.087,0.083,0.158,0.183,0.236,0.275
		c0.094,0.11,0.174,0.12,0.255,0.003c0.328-0.473,0.818-0.61,1.345-0.618c1.383-0.02,2.766-0.016,4.149-0.019
		c0.223,0,0.324,0.108,0.325,0.337c0.002,0.409,0,0.819,0.001,1.228c0,0.28,0.031,0.32,0.301,0.379
		c0.104,0.022,0.16,0.087,0.177,0.186c0.008,0.049,0.006,0.1,0.006,0.15c0,2.135,0,4.27,0,6.405c0,0.301-0.098,0.4-0.396,0.4
		c-1.262,0-2.524,0-3.786,0c-0.403,0-0.8,0.037-1.181,0.183c-0.289,0.111-0.544,0.269-0.746,0.51
		c-0.209,0.249-0.406,0.243-0.611-0.002c-0.245-0.295-0.576-0.447-0.933-0.555c-0.372-0.112-0.755-0.135-1.14-0.136
		C8.22,18.626,7,18.626,5.78,18.628c-0.185,0-0.326-0.053-0.387-0.242C5.392,16.154,5.392,13.922,5.392,11.69z M6.475,13.835
		c0,1.103,0,2.206,0,3.31c0,0.025,0,0.05,0,0.075c0.001,0.241,0.08,0.32,0.325,0.321c0.272,0.001,0.543-0.001,0.815,0
		c0.907,0.005,1.814-0.004,2.72,0.022c0.518,0.015,0.993,0.175,1.343,0.596c0.093,0.112,0.216,0.111,0.296,0.001
		c0.182-0.249,0.441-0.376,0.72-0.474c0.336-0.118,0.686-0.142,1.037-0.143c1.032-0.004,2.064-0.001,3.097-0.002
		c0.238,0,0.321-0.08,0.321-0.312c0-2.269,0-4.538,0-6.807c0-0.223-0.087-0.309-0.313-0.309c-1.107-0.001-2.215-0.006-3.322,0.005
		c-0.209,0.002-0.429,0.036-0.624,0.109c-0.448,0.168-0.645,0.544-0.723,0.992c-0.02,0.115-0.027,0.233-0.028,0.349
		c-0.002,1.621-0.001,3.243-0.002,4.864c0,0.287-0.098,0.39-0.355,0.379c-0.137-0.005-0.23-0.069-0.264-0.206
		c-0.024-0.096-0.031-0.198-0.031-0.297c-0.002-1.55-0.001-3.101-0.001-4.651c0-0.618-0.298-1.044-0.849-1.302
		c-0.426-0.2-0.883-0.24-1.345-0.241c-0.823-0.002-1.646-0.001-2.47-0.001c-0.276,0-0.347,0.073-0.348,0.351
		C6.475,11.586,6.475,12.71,6.475,13.835z"/>
</g>
<g id="Слой_35" display="none">
	<path display="inline" fill="#0D8497" d="M11.508,7.688c0.113,0.054,0.238,0.048,0.357,0.07c1.712,0.32,2.954,1.272,3.628,2.867
		c0.699,1.652,0.496,3.251-0.555,4.714c-0.713,0.992-1.69,1.62-2.884,1.854c-1.59,0.312-3.011-0.078-4.219-1.169
		c-0.777-0.702-1.274-1.578-1.464-2.606c-0.285-1.548,0.091-2.93,1.132-4.117c0.688-0.785,1.555-1.274,2.57-1.503
		c0.152-0.034,0.307-0.052,0.46-0.078c0.024-0.004,0.056,0.004,0.066-0.031C10.902,7.688,11.205,7.688,11.508,7.688z M15.332,12.523
		c-0.014-1.042-0.336-1.959-0.97-2.725c-0.65-0.785-1.479-1.284-2.483-1.477c-0.975-0.186-1.909-0.05-2.783,0.416
		c-0.925,0.493-1.588,1.234-1.973,2.214c-0.278,0.707-0.357,1.438-0.241,2.189c0.122,0.789,0.445,1.485,0.957,2.096
		c0.033,0.039,0.063,0.055,0.114,0.038c0.407-0.131,0.809-0.272,1.177-0.494c0.222-0.134,0.43-0.287,0.569-0.514
		c0.035-0.057,0.038-0.097-0.015-0.149c-0.257-0.251-0.422-0.559-0.531-0.898c-0.193-0.599-0.211-1.212-0.163-1.835
		c0.087-1.132,0.867-1.892,1.998-1.926c0.996-0.03,1.76,0.521,2.019,1.483c0.161,0.598,0.143,1.208,0.039,1.815
		c-0.085,0.496-0.261,0.951-0.611,1.324c-0.046,0.049-0.029,0.088-0.008,0.131c0.067,0.138,0.167,0.251,0.285,0.348
		c0.44,0.359,0.96,0.55,1.492,0.718c0.067,0.021,0.097-0.015,0.132-0.058C14.995,14.421,15.323,13.502,15.332,12.523z M9.514,11.89
		c0.001,0.454,0.053,0.872,0.204,1.272c0.234,0.616,0.682,0.926,1.336,0.932c0.615,0.006,1.079-0.319,1.309-0.929
		c0.218-0.58,0.239-1.181,0.17-1.789c-0.034-0.301-0.118-0.586-0.308-0.826c-0.382-0.481-0.901-0.589-1.475-0.508
		c-0.556,0.079-0.929,0.394-1.114,0.927C9.531,11.278,9.528,11.599,9.514,11.89z M8.348,15.733c1.571,1.374,3.997,1.307,5.458-0.003
		c-0.253-0.088-0.498-0.177-0.732-0.295c-0.44-0.222-0.858-0.474-1.113-0.92c-0.03-0.053-0.063-0.047-0.109-0.029
		c-0.517,0.207-1.038,0.215-1.562,0.026c-0.064-0.023-0.094-0.007-0.126,0.05c-0.054,0.097-0.125,0.184-0.202,0.264
		c-0.257,0.267-0.567,0.454-0.896,0.616C8.836,15.555,8.593,15.64,8.348,15.733z"/>
	<path display="inline" fill="#0D8497" d="M11.095,18.885c1.122,0,2.245,0,3.367,0c0.058,0,0.116-0.002,0.173,0.007
		c0.135,0.021,0.224,0.135,0.22,0.275c-0.004,0.134-0.093,0.238-0.225,0.257c-0.053,0.007-0.107,0.007-0.16,0.007
		c-2.263,0-4.525,0-6.788,0c-0.256,0-0.378-0.087-0.381-0.269c-0.003-0.188,0.121-0.277,0.386-0.277
		C8.824,18.885,9.959,18.885,11.095,18.885z"/>
	<path display="inline" fill="#0D8497" d="M11.074,21.377c-0.735,0-1.47,0.001-2.206,0c-0.219,0-0.341-0.11-0.331-0.293
		c0.007-0.126,0.074-0.208,0.194-0.242c0.055-0.015,0.114-0.021,0.171-0.021c1.453-0.001,2.905-0.001,4.358-0.001
		c0.237,0,0.365,0.098,0.366,0.276c0.001,0.167-0.116,0.278-0.306,0.28c-0.356,0.003-0.713,0.001-1.069,0.001
		C11.858,21.377,11.466,21.377,11.074,21.377z"/>
	<ellipse display="inline" fill="#0D8497" cx="11.07" cy="11.947" rx="1.907" ry="2.173"/>
	<path display="inline" fill="#0D8497" d="M7.981,15.617l2.154-1.267h1.902l1.992,1.267C14.027,15.617,11.71,18.622,7.981,15.617z"
		/>
</g>
<g id="Слой_36">
	<path fill="#0D8497" d="M0.18,3.481c0.174-0.128,0.364-0.173,0.583-0.17c0.726,0.01,1.452-0.014,2.177,0.012
		c0.297,0.011,0.398-0.069,0.445-0.366c0.264-1.671,1.644-2.75,3.324-2.625c1.402,0.104,2.582,1.231,2.762,2.671
		c0.033,0.265,0.121,0.321,0.367,0.316c0.763-0.015,1.527-0.008,2.29-0.005c0.443,0.002,0.519,0.083,0.522,0.534
		c0.002,0.313,0.001,0.626-0.001,0.939c-0.001,0.24-0.131,0.388-0.363,0.386c-0.216-0.002-0.333-0.15-0.339-0.372
		c-0.001-0.025-0.001-0.05-0.002-0.075C11.912,4.02,11.912,4.02,11.209,4.02c-0.476,0-0.951,0.009-1.426-0.004
		c-0.208-0.006-0.289,0.05-0.28,0.27C9.519,4.673,9.505,5.062,9.507,5.45C9.508,5.695,9.418,5.881,9.15,5.878
		C8.88,5.874,8.802,5.681,8.803,5.439c0.003-0.388-0.008-0.776,0.004-1.164c0.006-0.192-0.049-0.26-0.251-0.259
		c-1.427,0.008-2.853,0.008-4.28,0C4.068,4.015,4.026,4.099,4.031,4.283C4.04,4.67,4.033,5.059,4.033,5.446
		c0,0.242-0.085,0.434-0.356,0.431C3.41,5.875,3.324,5.687,3.326,5.442C3.329,5.08,3.311,4.716,3.331,4.354
		c0.014-0.252-0.046-0.351-0.322-0.341c-0.6,0.022-1.201,0.019-1.802,0.001C0.957,4.006,0.89,4.084,0.894,4.33
		C0.908,5.205,0.9,6.082,0.9,6.957c0,2.678-0.001,5.356,0,8.034c0,1.392,0.675,2.059,2.078,2.059c1.602,0,3.204,0,4.805,0.001
		c0.125,0,0.252-0.004,0.374,0.016c0.186,0.031,0.284,0.161,0.279,0.344c-0.005,0.182-0.108,0.306-0.293,0.334
		c-0.11,0.017-0.225,0.011-0.337,0.011c-1.627,0.001-3.254-0.031-4.88,0.01c-1.362,0.035-2.374-0.76-2.662-1.862
		c-0.013-0.049-0.026-0.095-0.084-0.11C0.18,11.691,0.18,7.586,0.18,3.481z M6.391,3.32c0.563,0,1.126,0,1.689,0
		c0.807,0,0.833-0.04,0.525-0.817C8.249,1.604,7.253,0.958,6.33,1.028C5.215,1.112,4.316,1.855,4.097,2.874
		C4.004,3.302,4.017,3.32,4.439,3.32C5.09,3.32,5.74,3.32,6.391,3.32z"/>
	<path fill="#0D8497" d="M19.403,16.471c-0.254,0.572-0.582,1.065-1.242,1.233c-0.211,0.054-0.421,0.053-0.632,0.053
		c-2.126,0.002-4.253,0.003-6.379,0.001c-1.209-0.001-1.874-0.669-1.876-1.883c-0.002-2.214-0.001-4.428,0-6.642
		c0-0.543,0.093-0.638,0.623-0.639c0.513-0.001,1.027-0.019,1.538,0.007c0.302,0.016,0.395-0.053,0.393-0.377
		c-0.008-1.18,0.67-2.145,1.696-2.483c1.649-0.542,3.266,0.595,3.335,2.346c0.02,0.505,0.02,0.505,0.52,0.505
		c0.488,0,0.976,0.01,1.463-0.004c0.229-0.007,0.411,0.056,0.562,0.224C19.403,11.365,19.403,13.918,19.403,16.471z M14.329,17.057
		c1.026,0,2.052-0.023,3.076,0.007c0.778,0.023,1.312-0.344,1.282-1.26c-0.04-1.249-0.01-2.501-0.01-3.752
		c0-0.813-0.007-1.626,0.005-2.439c0.003-0.231-0.071-0.306-0.3-0.297c-0.4,0.016-0.801,0.016-1.2,0
		c-0.238-0.01-0.346,0.053-0.323,0.31c0.02,0.223,0.004,0.45,0,0.675c-0.004,0.227-0.138,0.362-0.349,0.361
		c-0.211-0.001-0.343-0.137-0.346-0.364c-0.003-0.238-0.012-0.476-0.001-0.713c0.009-0.187-0.044-0.27-0.249-0.268
		c-1.038,0.008-2.076,0.007-3.114,0c-0.193-0.001-0.272,0.059-0.261,0.257c0.012,0.224,0.008,0.45-0.002,0.675
		c-0.011,0.239-0.118,0.429-0.383,0.411c-0.234-0.016-0.337-0.188-0.336-0.42c0.001-0.213-0.016-0.427,0.004-0.637
		c0.023-0.243-0.081-0.296-0.301-0.287c-0.375,0.015-0.752,0.024-1.125-0.002c-0.308-0.022-0.401,0.068-0.398,0.387
		c0.015,2.063,0.007,4.127,0.008,6.19c0.001,0.795,0.366,1.159,1.172,1.162C12.228,17.06,13.279,17.057,14.329,17.057z
		 M14.326,8.595c0.525,0,1.049-0.006,1.574,0.003c0.184,0.003,0.273-0.034,0.261-0.245c-0.019-0.35-0.041-0.695-0.201-1.017
		c-0.371-0.75-1.195-1.159-1.994-0.985c-0.875,0.19-1.425,0.938-1.441,1.932c-0.004,0.233,0.042,0.331,0.303,0.319
		C13.326,8.579,13.826,8.595,14.326,8.595z"/>
	<path fill="#0D8497" d="M9.66,9.046h9.375l-0.129,7.548c0,0-0.129,0.596-1.062,0.725h-7.433c0,0-0.777-0.803-0.751-1.347
		C9.686,15.428,9.66,9.046,9.66,9.046z"/>
</g>
<g id="Слой_37" display="none">
	<path display="inline" fill="#0D8497" d="M19.625,18.127c-0.386,0.255-0.527,0.223-0.724-0.166
		c0.129-0.597-0.118-0.992-0.653-1.244c-0.167-0.079-0.312-0.206-0.482-0.277c-0.359-0.152-0.446-0.411-0.474-0.79
		c-0.046-0.638,0.293-1.212,0.214-1.853c-0.061-0.491-0.218-0.72-0.651-0.721c-0.437-0.001-0.65,0.228-0.649,0.718
		c0.001,0.388,0.014,0.757,0.168,1.148c0.275,0.698,0.011,1.229-0.65,1.614c-0.086,0.05-0.164,0.114-0.253,0.155
		c-0.549,0.252-0.807,0.657-0.679,1.27c-0.061,0.226-0.203,0.342-0.438,0.292c-0.228-0.048-0.234-0.238-0.272-0.429
		c-0.19-0.972,0.45-1.407,1.143-1.819c0.544-0.324,0.543-0.472,0.36-1.102c-0.173-0.595-0.184-1.235,0.04-1.827
		c0.214-0.567,0.858-0.825,1.566-0.7c0.539,0.095,0.986,0.563,1.001,1.139c0.014,0.536,0.106,1.079-0.153,1.607
		c-0.171,0.348-0.022,0.6,0.32,0.815c0.314,0.197,0.614,0.418,0.922,0.624c0.183,0.122,0.244,0.325,0.345,0.502
		C19.625,17.432,19.625,17.779,19.625,18.127z"/>
	<path display="inline" fill="#0D8497" d="M1.289,17.89c-0.197,0.399-0.349,0.433-0.728,0.162c0-0.372,0-0.745,0-1.117
		c0.315-0.457,0.788-0.724,1.241-1.01c0.361-0.228,0.449-0.518,0.293-0.923c-0.235-0.611-0.205-1.249-0.029-1.855
		c0.174-0.597,0.827-0.872,1.563-0.754c0.555,0.089,0.999,0.565,1.01,1.168c0.01,0.523,0.09,1.048-0.165,1.567
		c-0.129,0.263-0.121,0.629,0.299,0.786c0.203,0.076,0.365,0.256,0.562,0.357c0.624,0.317,0.789,0.841,0.716,1.49
		c-0.023,0.207-0.045,0.405-0.295,0.452c-0.245,0.046-0.365-0.099-0.433-0.309c0.135-0.602-0.142-0.981-0.661-1.239
		c-0.21-0.104-0.41-0.231-0.612-0.35c-0.118-0.07-0.267-0.144-0.272-0.285c-0.015-0.448-0.101-0.888,0.079-1.344
		c0.162-0.412,0.111-0.875,0.004-1.311c-0.029-0.118-0.144-0.194-0.266-0.243c-0.487-0.199-0.927,0.066-0.929,0.594
		c-0.002,0.385-0.036,0.758,0.154,1.15c0.293,0.606,0,1.274-0.585,1.608c-0.118,0.067-0.226,0.154-0.348,0.212
		C1.377,16.94,1.166,17.329,1.289,17.89z"/>
	<path display="inline" fill="#0D8497" d="M6.465,9.664c0.992,0,1.984-0.008,2.976,0.006C9.687,9.673,9.765,9.6,9.745,9.359
		c-0.02-0.234-0.01-0.471-0.001-0.706c0.009-0.239,0.118-0.425,0.378-0.412c0.23,0.012,0.338,0.182,0.34,0.412
		c0,0.05-0.002,0.099,0.001,0.149c0.02,0.281-0.123,0.653,0.064,0.817c0.156,0.137,0.519,0.044,0.79,0.044
		c1.748,0.002,3.497,0,5.245,0.001c0.572,0,0.652,0.079,0.654,0.636c0.001,0.36,0.005,0.719-0.003,1.079
		c-0.005,0.231-0.084,0.428-0.359,0.425c-0.269-0.003-0.353-0.187-0.356-0.427c0-0.012,0-0.025,0-0.037
		c-0.008-0.307,0.101-0.724-0.056-0.893c-0.185-0.2-0.606-0.059-0.924-0.06c-1.562-0.006-3.125,0.008-4.687-0.012
		c-0.322-0.004-0.406,0.091-0.371,0.389c0.025,0.208,0.006,0.421,0.004,0.632c-0.003,0.225-0.092,0.396-0.337,0.409
		c-0.272,0.014-0.36-0.172-0.378-0.407c-0.006-0.074-0.002-0.149-0.002-0.223c-0.003-0.791-0.003-0.791-0.776-0.791
		c-1.649,0-3.299,0.008-4.948-0.007c-0.28-0.003-0.371,0.066-0.34,0.344c0.026,0.233,0.012,0.471,0.002,0.706
		c-0.009,0.227-0.119,0.381-0.366,0.378c-0.232-0.003-0.335-0.16-0.341-0.364c-0.013-0.458-0.015-0.918-0.003-1.376
		c0.008-0.322,0.23-0.402,0.512-0.401C4.481,9.665,5.473,9.664,6.465,9.664z"/>
	<path display="inline" fill="#0D8497" d="M11.589,3.672c-0.01,0.347,0.023,0.741-0.191,1.133c-0.202,0.37-0.011,0.746,0.359,0.97
		c0.222,0.134,0.421,0.311,0.652,0.425c0.751,0.369,0.877,1.008,0.801,1.75c-0.023,0.222-0.107,0.4-0.345,0.409
		c-0.261,0.01-0.415-0.185-0.367-0.411c0.164-0.772-0.319-1.117-0.877-1.43c-0.065-0.036-0.128-0.075-0.189-0.118
		c-0.25-0.172-0.638-0.21-0.723-0.535c-0.11-0.418-0.159-0.909,0.002-1.282c0.195-0.452,0.174-0.884,0.176-1.331
		c0.002-0.549-0.272-0.82-0.782-0.821C9.588,2.43,9.322,2.694,9.333,3.251C9.342,3.697,9.29,4.133,9.501,4.585
		C9.668,4.946,9.583,5.412,9.516,5.83C9.484,6.028,9.319,6.105,9.167,6.185C8.761,6.4,8.379,6.648,8.004,6.914
		C7.79,7.066,7.682,7.236,7.709,7.502c0.017,0.172,0.009,0.347-0.002,0.52C7.694,8.223,7.569,8.348,7.376,8.36
		C7.18,8.373,7.035,8.259,7.02,8.057C6.968,7.383,6.9,6.701,7.641,6.296C7.9,6.154,8.133,5.964,8.388,5.813
		c0.491-0.293,0.544-0.63,0.353-1.19C8.498,3.91,8.479,3.153,8.79,2.451c0.273-0.616,1.016-0.871,1.76-0.688
		c0.604,0.148,1.018,0.678,1.038,1.331C11.593,3.267,11.589,3.441,11.589,3.672z"/>
	<path display="inline" fill="#0D8497" d="M8.024,17.964c-0.051,0.226-0.184,0.354-0.423,0.313
		c-0.251-0.044-0.248-0.248-0.288-0.451c-0.181-0.935,0.423-1.368,1.093-1.773c0.604-0.365,0.589-0.476,0.402-1.144
		c-0.163-0.581-0.174-1.211,0.037-1.792c0.212-0.582,0.874-0.852,1.591-0.717c0.555,0.104,0.992,0.595,0.99,1.184
		c-0.002,0.524,0.09,1.05-0.153,1.571c-0.128,0.273-0.125,0.631,0.287,0.796c0.191,0.076,0.346,0.241,0.533,0.334
		c0.667,0.33,0.846,0.881,0.762,1.575c-0.024,0.202-0.06,0.376-0.284,0.418c-0.239,0.045-0.373-0.081-0.424-0.308
		c0.126-0.598-0.131-0.987-0.658-1.244c-0.222-0.108-0.428-0.249-0.642-0.372c-0.121-0.069-0.251-0.147-0.275-0.286
		c-0.068-0.392-0.139-0.829,0.013-1.171c0.164-0.369,0.147-0.717,0.15-1.079c0.004-0.511-0.223-0.747-0.669-0.739
		c-0.429,0.008-0.635,0.237-0.632,0.737c0.003,0.375,0.004,0.732,0.166,1.111c0.283,0.662,0.004,1.254-0.629,1.623
		c-0.096,0.056-0.186,0.125-0.285,0.173C8.162,16.976,7.896,17.364,8.024,17.964z"/>
	<path display="inline" fill="#0D8497" d="M7.703,17.964c-0.148-0.623,0.159-1.027,0.765-1.291c0.115-0.05,0.219-0.122,0.33-0.18
		c0.731-0.383,1.054-0.998,0.727-1.685c-0.187-0.394-0.188-0.764-0.192-1.154c-0.004-0.519,0.234-0.758,0.73-0.766
		c0.515-0.008,0.778,0.237,0.773,0.768c-0.003,0.376,0.016,0.738-0.173,1.121c-0.176,0.356-0.094,0.81-0.015,1.217
		c0.028,0.144,0.178,0.225,0.318,0.297c0.248,0.128,0.486,0.274,0.742,0.386c0.609,0.267,0.907,0.672,0.761,1.292
		C10.881,17.967,9.292,17.965,7.703,17.964z"/>
	<path display="inline" fill="#0D8497" d="M14.471,17.982c-0.148-0.636,0.15-1.057,0.785-1.319c0.103-0.043,0.194-0.109,0.293-0.161
		c0.764-0.4,1.069-0.952,0.752-1.676c-0.178-0.406-0.193-0.789-0.194-1.192c-0.001-0.51,0.246-0.747,0.75-0.746
		c0.5,0.001,0.682,0.239,0.752,0.749c0.092,0.665-0.301,1.262-0.247,1.924c0.032,0.394,0.133,0.663,0.548,0.82
		c0.196,0.074,0.364,0.206,0.557,0.288c0.618,0.262,0.904,0.672,0.755,1.292C17.639,17.968,16.055,17.975,14.471,17.982z"/>
	<path display="inline" fill="#0D8497" d="M0.969,17.89c-0.144-0.582,0.102-0.985,0.696-1.237c0.142-0.06,0.267-0.15,0.404-0.22
		c0.678-0.347,1.018-1.039,0.678-1.667c-0.22-0.407-0.181-0.794-0.178-1.192c0.003-0.547,0.513-0.822,1.077-0.616
		c0.14,0.051,0.274,0.13,0.308,0.252c0.124,0.452,0.183,0.932-0.005,1.359c-0.208,0.473-0.109,0.929-0.091,1.394
		c0.005,0.146,0.179,0.224,0.315,0.296c0.234,0.124,0.466,0.255,0.709,0.363c0.601,0.267,0.922,0.66,0.766,1.284
		C4.087,17.9,2.528,17.895,0.969,17.89z"/>
</g>
<g id="Слой_38" display="none">
	<path display="inline" fill="#999999" d="M19.759,1.978c0,0.432,0,0.864,0,1.296c-0.01,0.132-0.026,0.265-0.028,0.397
		c-0.03,1.994-0.061,3.988-0.083,5.983c-0.003,0.312-0.105,0.559-0.326,0.78c-3.201,3.195-6.396,6.395-9.598,9.589
		c-0.182,0.182-0.391,0.355-0.619,0.468c-0.308,0.152-0.648,0.241-0.974,0.357c-0.178,0-0.356,0-0.534,0
		c-0.028-0.012-0.055-0.031-0.085-0.035c-0.565-0.088-1.046-0.346-1.447-0.745c-1.691-1.684-3.38-3.369-5.058-5.066
		c-0.214-0.216-0.387-0.487-0.528-0.759c-0.119-0.231-0.163-0.5-0.24-0.753c0-0.178,0-0.356,0-0.534
		c0.012-0.029,0.029-0.057,0.034-0.087c0.087-0.587,0.362-1.08,0.776-1.494c3.201-3.204,6.405-6.405,9.605-9.61
		c0.221-0.221,0.465-0.322,0.779-0.326c2.026-0.021,4.052-0.054,6.078-0.084c0.101-0.002,0.201-0.017,0.302-0.026
		c0.419,0,0.839,0,1.258,0C19.4,1.441,19.686,1.597,19.759,1.978z M18.074,2.974c-0.072-0.004-0.116-0.009-0.16-0.008
		c-2.026,0.015-4.053,0.029-6.079,0.051c-0.088,0.001-0.195,0.054-0.259,0.118c-3.139,3.132-6.274,6.267-9.409,9.403
		c-0.392,0.392-0.391,0.961,0.006,1.359c1.683,1.686,3.367,3.371,5.054,5.053c0.403,0.402,0.847,0.395,1.251-0.009
		c3.135-3.135,6.27-6.271,9.407-9.404c0.092-0.092,0.133-0.184,0.134-0.315c0.015-2.007,0.036-4.015,0.055-6.022
		C18.074,3.129,18.074,3.061,18.074,2.974z"/>
	<path display="inline" fill="#999999" d="M15.858,5.675c-0.001,0.651-0.53,1.185-1.184,1.194c-0.648,0.009-1.206-0.546-1.204-1.197
		c0.002-0.658,0.548-1.196,1.207-1.19C15.331,4.487,15.859,5.02,15.858,5.675z"/>
</g>
<g id="Слой_39" display="none">
	<path display="inline" fill="#999999" d="M3.833,16.475c-0.153-0.071-0.2-0.108-0.25-0.112c-2.666-0.227-3.321-0.943-3.322-3.634
		c0-2.728-0.002-5.456,0.001-8.184C0.265,2.35,1.259,1.341,3.429,1.339c4.381-0.003,8.763-0.004,13.144,0
		c2.076,0.002,3.111,1.028,3.116,3.091c0.007,2.948,0.007,5.897,0,8.845c-0.005,2.036-1.031,3.065-3.042,3.069
		c-1.984,0.004-3.968-0.023-5.951,0.019c-0.431,0.009-0.921,0.16-1.276,0.403c-1.833,1.257-3.63,2.565-5.586,3.959
		C3.833,19.188,3.833,17.807,3.833,16.475z M5.563,17.319c1.124-0.798,2.092-1.429,2.992-2.146c0.601-0.479,1.223-0.634,1.974-0.62
		c2.064,0.037,4.13,0.019,6.195,0.01c0.922-0.004,1.186-0.265,1.188-1.174c0.007-3.029,0.007-6.057,0-9.086
		c-0.002-0.9-0.285-1.182-1.187-1.184c-4.488-0.005-8.976-0.005-13.463,0C2.312,3.12,2.044,3.393,2.043,4.353
		c-0.005,3.001-0.005,6.002,0,9.003c0.002,0.962,0.25,1.198,1.237,1.208c0.734,0.007,1.469,0.001,2.283,0.001
		C5.563,15.49,5.563,16.302,5.563,17.319z"/>
</g>
<g id="Слой_40" display="none">
	<path display="inline" fill="#999999" d="M10.102,3.016c-4.486,0-8.122,3.637-8.122,8.122c0,4.486,3.637,8.122,8.122,8.122
		c4.486,0,8.122-3.636,8.122-8.122C18.224,6.653,14.588,3.016,10.102,3.016z M10.102,17.785c-3.67,0-6.646-2.975-6.646-6.646
		s2.975-6.646,6.646-6.646s6.646,2.975,6.646,6.646S13.772,17.785,10.102,17.785z"/>
	<path display="inline" fill="#999999" d="M10.84,10.833V6.708c0-0.408-0.331-0.738-0.738-0.738c-0.408,0-0.738,0.331-0.738,0.738
		v4.43c0,0.002,0.001,0.003,0.001,0.005c0,0.047,0.005,0.093,0.014,0.139c0.004,0.023,0.013,0.043,0.019,0.065
		c0.007,0.024,0.013,0.049,0.023,0.073c0.011,0.025,0.025,0.049,0.038,0.073c0.01,0.018,0.018,0.037,0.03,0.054
		c0.027,0.041,0.058,0.079,0.092,0.113l2.088,2.088c0.288,0.288,0.756,0.288,1.044,0c0.288-0.288,0.288-0.756,0-1.044L10.84,10.833z
		"/>
</g>
<g id="Слой_41" display="none">
	<g display="inline">
		<g>
			<path fill="#E53935" d="M17.67,6.422h-3.62c-0.208,0-0.375,0.167-0.375,0.375c0,0.208,0.167,0.375,0.375,0.375h3.62
				c0.409,0,0.742,0.333,0.742,0.742v9.307c0,0.409-0.333,0.742-0.742,0.742H3.6c-0.409,0-0.742-0.333-0.742-0.742V7.914
				c0-0.409,0.333-0.742,0.742-0.742h3.677c0.208,0,0.375-0.167,0.375-0.375c0-0.208-0.167-0.375-0.375-0.375H3.6
				c-0.822,0-1.492,0.67-1.492,1.492v9.307c0,0.822,0.67,1.492,1.492,1.492h6.661v2.253H7.148c-0.208,0-0.375,0.167-0.375,0.375
				c0,0.208,0.167,0.375,0.375,0.375h6.971c0.208,0,0.375-0.167,0.375-0.375c0-0.208-0.167-0.375-0.375-0.375h-3.113v-2.253h6.661
				c0.822,0,1.492-0.67,1.492-1.492V7.914C19.162,7.092,18.492,6.422,17.67,6.422z"/>
			<path fill="#E53935" d="M12.748,4.657c0-0.81-0.659-1.473-1.473-1.473H9.991c-0.81,0-1.473,0.659-1.473,1.473V5.54
				c0,0.023,0.004,0.045,0.008,0.064C8.522,5.627,8.518,5.646,8.518,5.668v7.316c0,0.083,0.027,0.163,0.076,0.227l1.738,2.283
				c0.072,0.095,0.182,0.148,0.299,0.148c0.117,0,0.227-0.053,0.299-0.148l1.738-2.283c0.049-0.064,0.076-0.144,0.076-0.227V5.657
				c0-0.019-0.004-0.042-0.008-0.061c0.004-0.019,0.008-0.038,0.008-0.061V4.657H12.748z M9.272,5.914h0.988v6.642H9.272V5.914z
				 M10.635,14.65l-1.026-1.348h2.052L10.635,14.65z M11.998,12.556H11.01V5.914h0.988V12.556z M11.998,5.165H9.272V4.657
				c0-0.398,0.326-0.723,0.723-0.723h1.284c0.398,0,0.723,0.326,0.723,0.723v0.507C12.002,5.165,11.998,5.165,11.998,5.165z"/>
		</g>
	</g>
</g>
<g id="Слой_42" display="none">
	<g display="inline">
		<g>
			<path fill="#E53935" d="M5.208,6.523c2.974-3.042,7.866-3.1,10.908-0.127l-0.867,0.01c-0.188,0.003-0.336,0.154-0.336,0.343
				c0.003,0.185,0.154,0.336,0.339,0.336h0.003l1.686-0.021c0.188-0.003,0.336-0.154,0.336-0.343l-0.021-1.686
				c-0.003-0.188-0.154-0.339-0.343-0.336c-0.188,0.003-0.336,0.154-0.336,0.343l0.01,0.867c-3.309-3.234-8.633-3.169-11.867,0.14
				c-1.12,1.148-1.888,2.58-2.213,4.145c-0.319,1.525-0.209,3.1,0.315,4.563c0.051,0.137,0.182,0.226,0.319,0.226
				c0.038,0,0.075-0.007,0.113-0.021c0.175-0.062,0.267-0.257,0.206-0.435C2.457,11.724,3.125,8.654,5.208,6.523z"/>
			<path fill="#E53935" d="M4.862,17.925c1.579,1.542,3.659,2.388,5.862,2.388c0.034,0,0.065,0,0.099,0
				c2.244-0.027,4.341-0.922,5.906-2.528c1.124-1.148,1.888-2.583,2.213-4.149c0.319-1.525,0.209-3.1-0.315-4.563
				c-0.062-0.175-0.257-0.267-0.435-0.206c-0.175,0.062-0.267,0.257-0.206,0.435c1.007,2.806,0.339,5.875-1.744,8.006
				c-1.442,1.473-3.368,2.299-5.43,2.323c-2.059,0.024-4.005-0.757-5.478-2.196l0.867-0.01c0.188-0.003,0.336-0.154,0.336-0.343
				c-0.003-0.185-0.154-0.336-0.339-0.336H6.195l-1.686,0.021c-0.089,0-0.175,0.038-0.24,0.103c-0.062,0.065-0.096,0.151-0.096,0.24
				l0.021,1.686c0.003,0.185,0.154,0.336,0.339,0.336h0.003c0.188-0.003,0.336-0.154,0.336-0.343L4.862,17.925z"/>
			<path fill="#E53935" d="M15.417,9.97c-0.75-1.805-2.449-3.004-4.382-3.121c-0.034-0.003-0.072-0.003-0.11-0.007
				c-0.003,0-0.01,0-0.014,0c-0.021,0-0.041-0.003-0.062-0.003c-0.003,0-0.007,0-0.01,0c-0.038,0-0.075-0.003-0.116-0.003
				c-0.668,0-1.319,0.13-1.939,0.387C7.531,7.74,6.554,8.716,6.037,9.97c-0.521,1.254-0.521,2.634,0,3.885
				c0.788,1.905,2.631,3.138,4.693,3.138c0.027,0,0.051,0,0.079-0.003c0.014,0,0.031,0.003,0.045,0.003c0.007,0,0.014,0,0.017-0.003
				c0.031,0,0.058-0.003,0.089-0.003c0.01,0,0.021,0,0.034,0c0.01,0,0.017,0,0.027-0.003c0.565-0.031,1.12-0.158,1.651-0.377
				c1.254-0.517,2.23-1.494,2.748-2.748s0.521-2.634,0-3.885C15.417,9.973,15.417,9.973,15.417,9.97
				C15.417,9.973,15.417,9.973,15.417,9.97z M8.956,7.89C8.579,8.38,8.278,9.021,8.079,9.764H6.89
				C7.353,8.935,8.072,8.281,8.956,7.89z M6.582,10.446h1.35c-0.079,0.462-0.12,0.956-0.12,1.473c0,0.51,0.045,1.007,0.13,1.473
				h-1.36C6.239,12.433,6.239,11.402,6.582,10.446z M6.89,14.067h1.209c0.212,0.757,0.534,1.411,0.928,1.912
				C8.13,15.602,7.373,14.937,6.89,14.067z M10.511,16.267c-0.709-0.209-1.34-1.059-1.699-2.199h1.699V16.267L10.511,16.267z
				 M10.511,13.389H8.637c-0.096-0.466-0.147-0.963-0.147-1.473c0-0.517,0.048-1.014,0.13-1.473h1.891V13.389z M10.511,9.768h-1.73
				c0.346-1.178,0.976-2.011,1.73-2.203V9.768z M14.564,9.764h-0.942c-0.175-0.654-0.425-1.226-0.74-1.686
				C13.577,8.469,14.163,9.048,14.564,9.764z M11.19,7.561c0.754,0.195,1.381,1.028,1.73,2.203h-1.73V7.561z M11.19,10.446h1.891
				c0.086,0.459,0.13,0.952,0.13,1.473c0,0.51-0.051,1.007-0.147,1.473H11.19V10.446z M11.19,16.267v-2.199h1.699
				C12.529,15.208,11.899,16.058,11.19,16.267z M12.813,15.79c0.332-0.469,0.603-1.059,0.791-1.723h0.959
				C14.156,14.8,13.553,15.393,12.813,15.79z M14.872,13.389h-1.113c0.086-0.466,0.13-0.959,0.13-1.473
				c0-0.517-0.041-1.011-0.12-1.473h1.103C15.215,11.402,15.215,12.433,14.872,13.389z"/>
		</g>
	</g>
</g>
<g id="Слой_43" display="none">
	<g display="inline">
		<g>
			<path fill="#E53935" d="M19.133,11.852c0-4.686-3.813-8.499-8.499-8.499c-0.191,0-0.343,0.153-0.343,0.343V6.84h-0.159
				c-1.591,0-2.887,1.293-2.887,2.887v4.253c0,1.591,1.293,2.887,2.887,2.887h1.002c1.591,0,2.887-1.293,2.887-2.887V9.724
				c0-1.591-1.293-2.887-2.887-2.887h-0.159V4.043c4.152,0.18,7.473,3.615,7.473,7.809c0,2.759-1.411,5.258-3.771,6.69
				c-2.44,1.477-5.418,1.501-8.166,0.066c-1.13-0.593-2.042-1.504-2.634-2.638c-1.847-3.546-1.237-7.452,1.556-9.944
				C5.574,5.901,5.584,5.682,5.46,5.54C5.335,5.398,5.117,5.388,4.974,5.512c-1.39,1.241-2.347,2.925-2.693,4.745
				c-0.374,1.979-0.035,4.066,0.984,6.024c0.655,1.262,1.667,2.274,2.925,2.929c1.456,0.763,2.974,1.14,4.457,1.14
				c1.535,0,3.036-0.409,4.385-1.227C17.601,17.571,19.133,14.85,19.133,11.852z M11.137,7.523c1.213,0,2.201,0.988,2.201,2.201
				v4.253c0,1.213-0.988,2.201-2.201,2.201h-1.002c-1.213,0-2.201-0.988-2.201-2.201V9.724c0-1.213,0.988-2.201,2.201-2.201
				L11.137,7.523L11.137,7.523z"/>
			<path fill="#E53935" d="M10.635,10.985c0.191,0,0.343-0.153,0.343-0.343V8.944c0-0.191-0.153-0.343-0.343-0.343
				c-0.191,0-0.343,0.153-0.343,0.343v1.698C10.291,10.829,10.444,10.985,10.635,10.985z"/>
		</g>
	</g>
</g>
<g id="Слой_44" display="none">
	<g display="inline">
		<g>
			<path fill="#E53935" d="M9.105,14.574h-3.98c-0.19,0-0.342,0.152-0.342,0.342s0.152,0.342,0.342,0.342h3.686
				c0.107,0.297,0.394,0.508,0.726,0.508h2.185c0.332,0,0.619-0.211,0.726-0.508h3.69c0.19,0,0.342-0.152,0.342-0.342
				s-0.152-0.342-0.342-0.342h-3.98c-0.19,0-0.342,0.152-0.342,0.342v0.076c0,0.048-0.041,0.09-0.09,0.09H9.541
				c-0.048,0-0.09-0.041-0.09-0.09v-0.076C9.447,14.726,9.295,14.574,9.105,14.574z"/>
			<path fill="#E53935" d="M18.767,14.574h-0.899V6.686c0-0.19-0.152-0.342-0.342-0.342s-0.342,0.152-0.342,0.342v8.23
				c0,0.19,0.156,0.342,0.346,0.342h0.896v0.47c0,0.484-0.394,0.878-0.878,0.878H3.721c-0.484,0-0.878-0.394-0.878-0.878v-0.47
				h0.896c0.19,0,0.342-0.152,0.342-0.342v-8.23c0-0.19-0.152-0.342-0.342-0.342S3.396,6.496,3.396,6.686v7.888H2.5
				c-0.19,0-0.342,0.152-0.342,0.342v0.813c0,0.861,0.702,1.563,1.563,1.563h13.825c0.861,0,1.563-0.702,1.563-1.563v-0.813
				C19.109,14.726,18.957,14.574,18.767,14.574z"/>
			<path fill="#E53935" d="M11.965,5.631L9.99,7.596L9.302,6.904c-0.135-0.135-0.349-0.135-0.484,0
				c-0.135,0.135-0.135,0.349,0,0.484l0.927,0.934c0.066,0.066,0.156,0.1,0.242,0.1s0.173-0.035,0.242-0.1l2.22-2.206
				c0.135-0.135,0.135-0.349,0-0.484C12.317,5.5,12.1,5.497,11.965,5.631z"/>
			<path fill="#E53935" d="M14.859,3.225H6.408c-0.692,0-1.255,0.564-1.255,1.255v4.993c0,0.692,0.564,1.255,1.255,1.255h0.356
				v1.504c0,0.28,0.228,0.505,0.508,0.505c0.145,0,0.284-0.062,0.38-0.176l1.584-1.833h5.623c0.692,0,1.255-0.564,1.255-1.255V4.48
				C16.114,3.788,15.551,3.225,14.859,3.225z M15.43,9.473c0,0.315-0.256,0.571-0.571,0.571H9.077c-0.1,0-0.194,0.041-0.259,0.118
				l-1.373,1.587v-1.362c0-0.19-0.152-0.342-0.342-0.342H6.404c-0.315,0-0.571-0.256-0.571-0.571V4.48
				c0-0.315,0.256-0.571,0.571-0.571h8.451c0.315,0,0.571,0.256,0.571,0.571v4.993H15.43z"/>
		</g>
	</g>
</g>
</svg>
